<svg xmlns="http://www.w3.org/2000/svg" xmlns:xlink="http://www.w3.org/1999/xlink" width="500" zoomAndPan="magnify" viewBox="0 0 375 374.999991" height="500" preserveAspectRatio="xMidYMid meet" version="1.0"><defs><clipPath id="8320d9e0fb"><path d="M 209.496094 263 L 324.316406 263 L 324.316406 333.75 L 209.496094 333.75 Z M 209.496094 263 " clip-rule="nonzero"/></clipPath><clipPath id="4ee6ff9fda"><path d="M 206 41.257812 L 337.5 41.257812 L 337.5 121.457031 L 206 121.457031 Z M 206 41.257812 " clip-rule="nonzero"/></clipPath></defs><path fill="#00406d" d="M 71.835938 241.417969 C 72.90625 242.480469 74.636719 242.480469 75.707031 241.417969 L 108.304688 209.035156 C 110.042969 207.308594 108.820312 204.339844 106.371094 204.339844 L 84.164062 204.339844 C 84.351562 158.621094 121.46875 121.613281 167.230469 121.613281 C 213.109375 121.613281 250.300781 158.804688 250.300781 204.683594 C 250.300781 248.875 215.789062 285.003906 172.25 287.597656 L 39.050781 287.597656 L 39.050781 309.203125 L 167.230469 309.203125 C 191.179688 309.203125 213.246094 301.144531 230.871094 287.597656 C 255.726562 268.492188 271.75 238.457031 271.75 204.683594 C 271.75 146.960938 224.953125 100.164062 167.230469 100.164062 C 109.625 100.164062 62.902344 146.773438 62.714844 204.339844 L 41.175781 204.339844 C 38.722656 204.339844 37.5 207.308594 39.238281 209.035156 L 71.835938 241.417969 " fill-opacity="1" fill-rule="nonzero"/><g clip-path="url(#8320d9e0fb)"><path fill="#00406d" d="M 291.078125 332.933594 L 323.460938 300.335938 C 324.523438 299.265625 324.523438 297.535156 323.460938 296.464844 L 291.078125 263.867188 C 289.351562 262.128906 286.378906 263.351562 286.378906 265.804688 L 286.378906 287.597656 L 243.636719 287.597656 C 241.15625 289.890625 238.570312 292.074219 235.894531 294.132812 C 227.8125 300.34375 218.992188 305.394531 209.609375 309.203125 L 286.378906 309.203125 L 286.378906 330.996094 C 286.378906 333.449219 289.351562 334.671875 291.078125 332.933594 " fill-opacity="1" fill-rule="nonzero"/></g><g clip-path="url(#4ee6ff9fda)"><path fill="#00406d" d="M 218.25 104.101562 C 218.140625 102.800781 218.082031 101.492188 218.082031 100.164062 C 218.082031 74.308594 239.042969 53.347656 264.902344 53.347656 C 290.695312 53.347656 311.613281 74.203125 311.71875 99.972656 L 299.207031 99.972656 C 297.824219 99.972656 297.132812 101.644531 298.113281 102.617188 L 316.488281 120.871094 C 317.089844 121.46875 318.066406 121.46875 318.671875 120.871094 L 337.042969 102.617188 C 338.023438 101.644531 337.332031 99.972656 335.949219 99.972656 L 323.808594 99.972656 C 323.703125 67.527344 297.371094 41.257812 264.902344 41.257812 C 232.835938 41.257812 206.753906 66.882812 206.011719 98.773438 C 207.726562 99.402344 209.433594 100.074219 211.125 100.789062 C 213.542969 101.8125 215.917969 102.917969 218.25 104.101562 " fill-opacity="1" fill-rule="nonzero"/></g><path fill="#00406d" d="M 155.664062 199.4375 C 158.605469 190.265625 168.460938 185.191406 177.632812 188.132812 C 186.808594 191.074219 191.878906 200.929688 188.941406 210.101562 C 186 219.277344 176.144531 224.347656 166.96875 221.40625 C 157.796875 218.46875 152.726562 208.613281 155.664062 199.4375 Z M 145.257812 186.949219 L 140.09375 185.292969 C 137.160156 184.351562 134.015625 185.96875 133.078125 188.90625 L 131.160156 194.878906 C 130.222656 197.8125 131.839844 200.953125 134.773438 201.894531 L 140.257812 203.652344 C 140.214844 206.171875 140.464844 208.660156 140.996094 211.078125 L 135.753906 213.773438 C 133.015625 215.183594 131.9375 218.550781 133.347656 221.289062 L 136.21875 226.867188 C 137.625 229.605469 140.992188 230.683594 143.734375 229.273438 L 149.179688 226.46875 C 150.828125 228.199219 152.679688 229.753906 154.710938 231.09375 L 152.824219 236.980469 C 151.886719 239.914062 153.503906 243.054688 156.4375 243.996094 L 162.410156 245.910156 C 165.34375 246.851562 168.488281 245.234375 169.425781 242.296875 L 171.3125 236.414062 C 173.746094 236.503906 176.15625 236.316406 178.5 235.867188 L 181.304688 241.316406 C 182.714844 244.058594 186.082031 245.136719 188.820312 243.726562 L 194.398438 240.855469 C 197.136719 239.445312 198.21875 236.082031 196.804688 233.339844 L 194.109375 228.097656 C 195.945312 226.441406 197.597656 224.5625 199.027344 222.488281 L 204.511719 224.246094 C 207.445312 225.1875 210.585938 223.570312 211.527344 220.632812 L 213.441406 214.660156 C 214.382812 211.726562 212.765625 208.585938 209.832031 207.644531 L 204.667969 205.988281 C 204.816406 203.347656 204.632812 200.726562 204.148438 198.1875 L 208.847656 195.765625 C 211.589844 194.355469 212.667969 190.992188 211.257812 188.25 L 208.386719 182.671875 C 206.976562 179.933594 203.613281 178.855469 200.871094 180.265625 L 196.378906 182.578125 C 194.585938 180.59375 192.535156 178.820312 190.253906 177.3125 L 191.777344 172.5625 C 192.71875 169.625 191.101562 166.484375 188.167969 165.542969 L 182.195312 163.628906 C 179.257812 162.6875 176.117188 164.304688 175.175781 167.242188 L 173.652344 171.992188 C 170.921875 171.890625 168.222656 172.144531 165.609375 172.714844 L 163.300781 168.222656 C 161.890625 165.484375 158.523438 164.40625 155.78125 165.816406 L 150.207031 168.683594 C 147.464844 170.09375 146.386719 173.460938 147.796875 176.199219 L 150.214844 180.902344 C 148.34375 182.6875 146.675781 184.714844 145.257812 186.949219 " fill-opacity="1" fill-rule="nonzero"/></svg>
