<svg xmlns="http://www.w3.org/2000/svg" xmlns:xlink="http://www.w3.org/1999/xlink" width="500" zoomAndPan="magnify" viewBox="0 0 375 374.999991" height="500" preserveAspectRatio="xMidYMid meet" version="1.0"><defs><clipPath id="6b2cd4ec36"><path d="M 42.5625 41.546875 L 196 41.546875 L 196 337.796875 L 42.5625 337.796875 Z M 42.5625 41.546875 " clip-rule="nonzero"/></clipPath><clipPath id="1396dfa26d"><path d="M 126 105 L 328.3125 105 L 328.3125 274 L 126 274 Z M 126 105 " clip-rule="nonzero"/></clipPath></defs><path fill="#3b5998" d="M 185.246094 168.070312 C 184.507812 166.148438 182.683594 164.867188 180.613281 164.867188 C 178.542969 164.867188 176.71875 166.148438 175.976562 168.070312 L 161.1875 207.515625 C 160.25 210.078125 161.53125 212.886719 164.097656 213.875 C 166.660156 214.8125 169.46875 213.53125 170.457031 210.964844 L 172.96875 204.308594 L 188.304688 204.308594 L 190.820312 210.964844 C 191.558594 212.9375 193.429688 214.171875 195.453125 214.171875 C 196.042969 214.171875 196.636719 214.070312 197.179688 213.875 C 199.742188 212.9375 201.023438 210.078125 200.039062 207.515625 Z M 176.667969 194.449219 L 180.660156 183.847656 L 184.65625 194.449219 Z M 176.667969 194.449219 " fill-opacity="1" fill-rule="nonzero"/><path fill="#3b5998" d="M 210.195312 164.867188 C 207.484375 164.867188 205.265625 167.085938 205.265625 169.796875 L 205.265625 209.238281 C 205.265625 211.953125 207.484375 214.171875 210.195312 214.171875 C 212.90625 214.171875 215.125 211.953125 215.125 209.238281 L 215.125 169.796875 C 215.125 167.085938 212.90625 164.867188 210.195312 164.867188 Z M 210.195312 164.867188 " fill-opacity="1" fill-rule="nonzero"/><g clip-path="url(#6b2cd4ec36)"><path fill="#3b5998" d="M 190.472656 273.335938 C 144.277344 273.335938 106.65625 235.714844 106.65625 189.519531 C 106.65625 143.320312 144.277344 105.703125 190.472656 105.703125 C 193.183594 105.703125 195.402344 103.484375 195.402344 100.773438 L 195.402344 46.539062 C 195.402344 43.828125 193.183594 41.609375 190.472656 41.609375 L 164.492188 41.609375 C 162.222656 41.609375 160.25 43.136719 159.707031 45.355469 L 152.65625 73.65625 C 146.640625 75.628906 140.824219 77.992188 135.300781 80.804688 L 110.304688 65.816406 C 108.382812 64.632812 105.867188 64.976562 104.289062 66.554688 L 67.558594 103.285156 C 65.980469 104.863281 65.636719 107.378906 66.820312 109.300781 L 81.808594 134.296875 C 78.996094 139.820312 76.582031 145.636719 74.660156 151.652344 L 46.359375 158.703125 C 44.140625 159.246094 42.613281 161.21875 42.613281 163.488281 L 42.613281 215.453125 C 42.613281 217.71875 44.140625 219.691406 46.359375 220.234375 L 74.660156 227.285156 C 76.632812 233.300781 78.996094 239.117188 81.808594 244.640625 L 66.820312 269.636719 C 65.636719 271.558594 65.980469 274.074219 67.558594 275.652344 L 104.289062 312.382812 C 105.867188 313.960938 108.382812 314.304688 110.304688 313.121094 L 135.300781 298.132812 C 140.824219 300.945312 146.640625 303.359375 152.65625 305.285156 L 159.707031 333.582031 C 160.25 335.800781 162.222656 337.332031 164.492188 337.332031 L 190.472656 337.332031 C 193.183594 337.332031 195.402344 335.113281 195.402344 332.402344 L 195.402344 278.167969 C 195.402344 275.453125 193.183594 273.234375 190.472656 273.234375 Z M 185.542969 327.570312 L 168.335938 327.570312 L 161.53125 300.304688 C 161.089844 298.628906 159.804688 297.296875 158.179688 296.753906 C 150.933594 294.585938 143.929688 291.726562 137.472656 288.222656 C 135.945312 287.386719 134.070312 287.4375 132.589844 288.324219 L 108.53125 302.769531 L 77.222656 271.460938 L 91.667969 247.402344 C 92.554688 245.921875 92.605469 244.046875 91.765625 242.519531 C 88.265625 236.0625 85.40625 229.058594 83.238281 221.8125 C 82.746094 220.136719 81.414062 218.855469 79.6875 218.460938 L 52.421875 211.65625 L 52.421875 167.382812 L 79.6875 160.578125 C 81.363281 160.132812 82.695312 158.851562 83.238281 157.226562 C 85.40625 149.976562 88.265625 142.976562 91.765625 136.515625 C 92.605469 134.988281 92.554688 133.117188 91.667969 131.636719 L 77.222656 107.574219 L 108.53125 76.269531 L 132.589844 90.714844 C 134.070312 91.601562 135.945312 91.652344 137.472656 90.8125 C 143.929688 87.3125 150.933594 84.453125 158.179688 82.285156 C 159.855469 81.789062 161.136719 80.460938 161.53125 78.734375 L 168.335938 51.46875 L 185.542969 51.46875 L 185.542969 95.988281 C 136.191406 98.554688 96.796875 139.523438 96.796875 189.519531 C 96.796875 239.511719 136.191406 280.484375 185.542969 283.046875 Z M 185.542969 327.570312 " fill-opacity="1" fill-rule="nonzero"/></g><g clip-path="url(#1396dfa26d)"><path fill="#3b5998" d="M 308.800781 169.796875 C 299.632812 169.796875 291.988281 176.109375 289.769531 184.589844 L 239.777344 184.589844 L 239.777344 164.867188 L 259.5 164.867188 C 260.878906 164.867188 262.210938 164.273438 263.148438 163.238281 L 281.191406 143.46875 C 283.609375 144.503906 286.269531 145.144531 289.082031 145.144531 C 299.976562 145.144531 308.800781 136.320312 308.800781 125.425781 C 308.800781 114.527344 299.976562 105.703125 289.082031 105.703125 C 278.183594 105.703125 269.359375 114.527344 269.359375 125.425781 C 269.359375 129.910156 270.9375 134.003906 273.453125 137.304688 L 257.328125 155.007812 L 239.777344 155.007812 L 239.777344 145.144531 C 239.777344 142.433594 237.558594 140.214844 234.847656 140.214844 L 224.984375 140.214844 L 224.984375 130.355469 C 224.984375 127.644531 222.765625 125.425781 220.054688 125.425781 C 217.34375 125.425781 215.125 127.644531 215.125 130.355469 L 215.125 140.214844 L 195.402344 140.214844 L 195.402344 130.355469 C 195.402344 127.644531 193.183594 125.425781 190.472656 125.425781 C 187.761719 125.425781 185.542969 127.644531 185.542969 130.355469 L 185.542969 140.214844 L 165.820312 140.214844 L 165.820312 130.355469 C 165.820312 127.644531 163.601562 125.425781 160.890625 125.425781 C 158.179688 125.425781 155.960938 127.644531 155.960938 130.355469 L 155.960938 140.214844 L 146.101562 140.214844 C 143.386719 140.214844 141.167969 142.433594 141.167969 145.144531 L 141.167969 155.007812 L 131.308594 155.007812 C 128.597656 155.007812 126.378906 157.226562 126.378906 159.9375 C 126.378906 162.648438 128.597656 164.867188 131.308594 164.867188 L 141.167969 164.867188 L 141.167969 184.589844 L 131.308594 184.589844 C 128.597656 184.589844 126.378906 186.808594 126.378906 189.519531 C 126.378906 192.230469 128.597656 194.449219 131.308594 194.449219 L 141.167969 194.449219 L 141.167969 214.171875 L 131.308594 214.171875 C 128.597656 214.171875 126.378906 216.390625 126.378906 219.101562 C 126.378906 221.8125 128.597656 224.03125 131.308594 224.03125 L 141.167969 224.03125 L 141.167969 233.890625 C 141.167969 236.605469 143.386719 238.824219 146.101562 238.824219 L 155.960938 238.824219 L 155.960938 248.683594 C 155.960938 251.394531 158.179688 253.613281 160.890625 253.613281 C 163.601562 253.613281 165.820312 251.394531 165.820312 248.683594 L 165.820312 238.824219 L 185.542969 238.824219 L 185.542969 248.683594 C 185.542969 251.394531 187.761719 253.613281 190.472656 253.613281 C 193.183594 253.613281 195.402344 251.394531 195.402344 248.683594 L 195.402344 238.824219 L 215.125 238.824219 L 215.125 248.683594 C 215.125 251.394531 217.34375 253.613281 220.054688 253.613281 C 222.765625 253.613281 224.984375 251.394531 224.984375 248.683594 L 224.984375 238.824219 L 234.847656 238.824219 C 237.558594 238.824219 239.777344 236.605469 239.777344 233.890625 L 239.777344 224.03125 L 257.328125 224.03125 L 273.453125 241.730469 C 270.9375 245.035156 269.359375 249.125 269.359375 253.613281 C 269.359375 264.507812 278.183594 273.335938 289.082031 273.335938 C 299.976562 273.335938 308.800781 264.507812 308.800781 253.613281 C 308.800781 242.71875 299.976562 233.890625 289.082031 233.890625 C 286.269531 233.890625 283.609375 234.484375 281.191406 235.566406 L 263.148438 215.796875 C 262.210938 214.761719 260.878906 214.171875 259.5 214.171875 L 239.777344 214.171875 L 239.777344 194.449219 L 289.769531 194.449219 C 291.988281 202.929688 299.632812 209.238281 308.800781 209.238281 C 319.699219 209.238281 328.523438 200.414062 328.523438 189.519531 C 328.523438 178.621094 319.699219 169.796875 308.800781 169.796875 Z M 289.082031 115.5625 C 294.503906 115.5625 298.941406 120 298.941406 125.425781 C 298.941406 130.847656 294.503906 135.285156 289.082031 135.285156 C 283.65625 135.285156 279.21875 130.847656 279.21875 125.425781 C 279.21875 120 283.65625 115.5625 289.082031 115.5625 Z M 298.941406 253.613281 C 298.941406 259.035156 294.503906 263.472656 289.082031 263.472656 C 283.65625 263.472656 279.21875 259.035156 279.21875 253.613281 C 279.21875 248.191406 283.65625 243.753906 289.082031 243.753906 C 294.503906 243.753906 298.941406 248.191406 298.941406 253.613281 Z M 229.917969 228.960938 L 151.03125 228.960938 L 151.03125 150.074219 L 229.917969 150.074219 Z M 308.800781 199.378906 C 303.378906 199.378906 298.941406 194.941406 298.941406 189.519531 C 298.941406 184.09375 303.378906 179.65625 308.800781 179.65625 C 314.226562 179.65625 318.664062 184.09375 318.664062 189.519531 C 318.664062 194.941406 314.226562 199.378906 308.800781 199.378906 Z M 308.800781 199.378906 " fill-opacity="1" fill-rule="nonzero"/></g></svg>