<!DOCTYPE svg PUBLIC "-//W3C//DTD SVG 1.1//EN" "http://www.w3.org/Graphics/SVG/1.1/DTD/svg11.dtd">
<!-- Uploaded to: SVG Find, www.svgrepo.com, Transformed by: SVG Find Mixer Tools -->
<svg fill="#0a4773" width="800px" height="800px" version="1.1" viewBox="144 144 512 512" xmlns="http://www.w3.org/2000/svg" stroke="#0a4773">
<g id="SVGRepo_bgCarrier" stroke-width="0"/>
<g id="SVGRepo_tracerCarrier" stroke-linecap="round" stroke-linejoin="round"/>
<g id="SVGRepo_iconCarrier"> <path d="m160.12 367.63 91.676 74.426c12.301 10.094 27.695 15.648 43.605 15.738 0.66406 0 1.3242-0.011719 1.9883-0.03125 4.4805-0.023437 8.9219-0.84375 13.117-2.418l80.148-30.867-37.664 99.617c-0.6875 1.8164-0.4375 3.8516 0.66406 5.4453 1.1016 1.5938 2.918 2.5469 4.8555 2.5469h49.098c2.1055 0 4.0508-1.1211 5.1055-2.9453l85.844-148.25 124.68-49.363 0.003907-0.003906c7.5312-2.9805 13.523-8.9062 16.598-16.402 3.0703-7.4961 2.957-15.922-0.32031-23.332-3.2734-7.4141-9.4258-13.168-17.039-15.945-34.242-12.441-72.109-10.137-104.59 6.3672l-60.242 29.66-110.71-40.672c-1.6875-0.62109-3.5664-0.4375-5.1055 0.5l-30.426 18.508c-1.7383 1.0547-2.8086 2.9336-2.8359 4.9648-0.027343 2.0352 0.99609 3.9375 2.7031 5.0391l73.645 47.469-85.848 42.266-49.68-34.34h0.003906c-18.84-13.051-42.957-15.809-64.258-7.3516l-23.473 9.293c-1.9492 0.77344-3.3438 2.5195-3.6602 4.5938-0.32031 2.0742 0.48438 4.1602 2.1133 5.4805zm244.08 152.65h-37.145l46.211-122.2 79.98-31.578zm-78.602-224.88 19.941-12.129 97.477 35.812-45.738 22.52zm-136.11 63.848c17.633-7.0039 37.602-4.7188 53.195 6.0859l52.531 36.309c1.7617 1.2188 4.043 1.3867 5.9648 0.44141l222-109.31c29.574-15.043 64.062-17.152 95.254-5.8281 4.5938 1.6719 8.3086 5.1484 10.285 9.6211s2.0469 9.5586 0.19141 14.086c-1.8516 4.5273-5.4727 8.1016-10.02 9.9023l-110.8 43.867 3.8672-6.6758v-0.003906c1.2617-2.1758 1.0039-4.9102-0.63672-6.8164-1.6406-1.9023-4.3086-2.5586-6.6445-1.6328l-98.188 38.77h-0.003907c-1.5469 0.60938-2.7656 1.8438-3.3516 3.4023l-6.8867 18.211-90.047 34.676c-2.9414 1.0781-6.0469 1.625-9.1797 1.6172-13.758 0.3125-27.176-4.3242-37.801-13.074l-83.836-68.066z"/> </g>
</svg>