<?xml version="1.0" encoding="UTF-8"?>
<!-- Uploaded to: SVG Find, www.svgrepo.com, Generator: SVG Find Mixer Tools -->
<svg fill="#000000" width="800px" height="800px" version="1.1" viewBox="144 144 512 512" xmlns="http://www.w3.org/2000/svg">
 <g>
  <path d="m541.18 616.52h-351.43c-2.9102 0-5.2617-2.3516-5.2617-5.2617v-20.711c0-14.332 11.645-25.863 25.863-25.863h310.12c14.332 0 25.863 11.645 25.863 25.863v20.711c0.10938 3.0234-2.2383 5.2617-5.1523 5.2617zm-346.17-10.41h341.02v-15.449c0-8.5078-6.9414-15.449-15.449-15.449h-310.12c-8.5078 0-15.449 6.9414-15.449 15.449z"/>
  <path d="m365.52 575.21c-76.691 0-139.05-62.359-139.05-139.05 0-58.555 36.945-111.06 92.027-130.88 2.6875-1.0078 5.7109 0.44922 6.7188 3.1367 1.0078 2.6875-0.44922 5.7109-3.1367 6.7188-50.941 18.25-85.086 66.949-85.086 121.03 0 70.871 57.656 128.53 128.53 128.53 52.395 0 99.082-31.348 118.9-79.715 1.1211-2.6875 4.1406-3.918 6.8281-2.8008 2.6875 1.1211 3.918 4.1406 2.8008 6.8281-21.383 52.398-71.875 86.207-128.53 86.207z"/>
  <path d="m365.52 536.25c-55.195 0-100.09-44.895-100.09-100.09 0-40.527 24.184-76.914 61.688-92.477 2.6875-1.1211 5.7109 0.11328 6.8281 2.8008 1.1211 2.6875-0.11328 5.7109-2.8008 6.8281-33.586 13.996-55.195 46.461-55.195 82.738 0 49.375 40.191 89.68 89.68 89.68 30.898 0 59.227-15.562 75.684-41.648 1.5664-2.4648 4.8125-3.1367 7.2773-1.5664 2.4648 1.5664 3.1367 4.8125 1.5664 7.2773-18.582 29.105-50.152 46.457-84.637 46.457z"/>
  <path d="m358.8 366.97c-24.965 0-45.344-20.375-45.344-45.344 0-24.965 20.375-45.344 45.344-45.344 24.965 0 45.344 20.375 45.344 45.344 0 24.965-20.375 45.344-45.344 45.344zm0-80.273c-19.258 0-34.93 15.676-34.93 34.93 0 19.258 15.676 34.93 34.93 34.93 19.258 0 34.93-15.676 34.93-34.93 0.003907-19.258-15.672-34.93-34.93-34.93z"/>
  <path d="m358.8 346.04c-13.434 0-24.406-10.973-24.406-24.406s10.973-24.406 24.406-24.406c2.9102 0 5.2617 2.3516 5.2617 5.2617s-2.3516 5.2617-5.2617 5.2617c-7.7266 0-13.996 6.2695-13.996 13.996 0 7.7266 6.2695 13.996 13.996 13.996 2.9102 0 5.2617 2.3516 5.2617 5.2617 0 2.6836-2.3477 5.0352-5.2617 5.0352z"/>
  <path d="m581.93 492.25h-212.83c-2.9102 0-5.2617-2.3516-5.2617-5.2617v-29.781c0-2.9102 2.3516-5.2617 5.2617-5.2617h212.83c2.9102 0 5.2617 2.3516 5.2617 5.2617v29.781c0 2.9141-2.3516 5.2617-5.2617 5.2617zm-207.57-10.523h202.31v-19.367h-202.31z"/>
  <path d="m566.48 616.52h-401.93c-2.9102 0-5.2617-2.3516-5.2617-5.2617 0-2.9102 2.3516-5.2617 5.2617-5.2617h401.93c2.9102 0 5.2617 2.3516 5.2617 5.2617 0 2.9102-2.3516 5.2617-5.2617 5.2617z"/>
  <path d="m539.95 320.73c-27.316 0-49.598-22.281-49.598-49.598 0-27.316 22.281-49.598 49.598-49.598 27.316 0 49.598 22.281 49.598 49.598 0 27.316-22.168 49.598-49.598 49.598zm0-88.785c-21.609 0-39.184 17.578-39.184 39.184 0 21.609 17.578 39.184 39.184 39.184 21.609 0 39.184-17.578 39.184-39.184 0-21.605-17.574-39.184-39.184-39.184z"/>
  <path d="m539.95 299.8c-15.785 0-28.66-12.875-28.66-28.66 0-15.785 12.875-28.66 28.66-28.66 2.9102 0 5.2617 2.3516 5.2617 5.2617 0 2.9102-2.3516 5.2617-5.2617 5.2617-10.078 0-18.25 8.1719-18.25 18.25s8.1719 18.25 18.25 18.25c2.9102 0 5.2617 2.3516 5.2617 5.2617 0 2.6836-2.3516 5.0352-5.2617 5.0352z"/>
  <path d="m503 251.88c-1.3438 0-2.8008-0.55859-3.8047-1.5664l-31.012-32.242c-2.0156-2.1289-1.9023-5.375 0.11328-7.3906 2.1289-2.0156 5.375-1.9023 7.3906 0.11328l31.012 32.242c2.0156 2.1289 1.9023 5.375-0.11328 7.3906-1.0117 0.89453-2.3555 1.4531-3.5859 1.4531z"/>
  <path d="m580.03 257.14c-1.5664 0-3.1367-0.67188-4.1406-2.0156-1.793-2.2383-1.3438-5.5977 0.89453-7.3906l22.727-17.688c2.2383-1.793 5.5977-1.3438 7.3906 0.89453 1.793 2.2383 1.3438 5.5977-0.89453 7.3906l-22.727 17.688c-1.0117 0.78516-2.1328 1.1211-3.25 1.1211z"/>
  <path d="m573.42 337.97c-1.793 0-3.582-0.89453-4.4766-2.5742l-12.875-22.281c-1.457-2.4648-0.55859-5.7109 1.9023-7.1641 2.4648-1.457 5.7109-0.55859 7.1641 1.9023l12.875 22.281c1.457 2.4648 0.55859 5.7109-1.9023 7.1641-0.89844 0.44922-1.793 0.67188-2.6875 0.67188z"/>
  <path d="m461.57 223.78c-11.082 0-20.152-9.0703-20.152-20.152s9.0703-20.152 20.152-20.152 20.152 9.0703 20.152 20.152-9.0664 20.152-20.152 20.152zm0-29.895c-5.375 0-9.7422 4.3672-9.7422 9.7422s4.3672 9.7422 9.7422 9.7422 9.7422-4.3672 9.7422-9.7422c-0.11328-5.375-4.3672-9.7422-9.7422-9.7422z"/>
  <path d="m617.2 246.5c-12.988 0-23.512-10.523-23.512-23.512 0-12.988 10.523-23.512 23.512-23.512 12.988 0 23.512 10.523 23.512 23.512 0 12.988-10.523 23.512-23.512 23.512zm0-36.496c-7.1641 0-12.988 5.8203-12.988 12.988 0 7.1641 5.8203 12.988 12.988 12.988 7.1641 0 12.988-5.8203 12.988-12.988 0-7.0547-5.8203-12.988-12.988-12.988z"/>
  <path d="m584.28 378.61c-14.891 0-27.094-12.09-27.094-27.094 0-15.004 12.09-27.094 27.094-27.094s27.094 12.09 27.094 27.094c0 15.004-12.094 27.094-27.094 27.094zm0-43.551c-9.1797 0-16.57 7.3906-16.57 16.57 0 9.1797 7.3906 16.57 16.57 16.57s16.57-7.3906 16.57-16.57c0-9.1797-7.3906-16.57-16.57-16.57z"/>
  <path d="m426.2 375.82c-4.4766 0-8.6211-1.6797-11.754-4.8125l-24.965-24.965c-1.6797-1.6797-2.0156-4.3672-0.78516-6.3828 3.2461-5.375 5.0391-11.645 5.0391-18.023 0-19.258-15.676-34.93-34.93-34.93-6.3828 0-12.539 1.6797-18.023 5.0391-2.0156 1.2305-4.7031 0.89453-6.3828-0.78516l-22.504-22.504c-6.4922-6.4922-6.4922-17.016 0-23.512l35.938-35.938c6.2695-6.2695 17.242-6.2695 23.512 0l102.55 102.55c6.4922 6.4922 6.4922 17.016 0 23.512l-35.941 35.82c-3.1367 3.1328-7.2773 4.9258-11.758 4.9258zm-26.531-34.484 22.168 22.168c2.3516 2.3516 6.3828 2.3516 8.7344 0l35.828-35.938c2.3516-2.3516 2.3516-6.2695 0-8.7344l-102.45-102.44c-2.3516-2.3516-6.3828-2.3516-8.7344 0l-35.938 35.828c-2.3516 2.4648-2.3516 6.2695 0 8.7344l19.703 19.703c6.1562-2.9102 12.875-4.4766 19.703-4.4766 24.965 0 45.344 20.375 45.344 45.344 0.11328 6.9375-1.4531 13.656-4.3633 19.812z"/>
  <path d="m426.2 350.85c-1.3438 0-2.6875-0.55859-3.6953-1.5664-2.0156-2.0156-2.0156-5.375 0-7.3906l18.695-18.695-85.312-85.312c-2.0156-2.0156-2.0156-5.375 0-7.3906 2.0156-2.0156 5.375-2.0156 7.3906 0l89.008 89.008c2.0156 2.0156 2.0156 5.375 0 7.3906l-22.391 22.391c-1.0078 1.1211-2.3516 1.5664-3.6953 1.5664z"/>
  <path d="m317.04 249.98c-2.9102 0-5.5977-1.1211-7.7266-3.1367l-17.688-17.688c-2.0156-2.0156-3.1367-4.8125-3.1367-7.6133 0-2.8008 1.1211-5.5977 3.1367-7.6133l24.965-24.965c4.0312-4.1406 11.309-4.1406 15.34 0l17.688 17.688c4.2539 4.2539 4.2539 11.082 0 15.34l-24.965 24.965c-2.0156 1.9023-4.7031 3.0234-7.6133 3.0234zm7.3867-53.852c-0.11328 0-0.22266 0-0.22266 0.11328l-24.965 24.965c-0.11328 0.11328-0.11328 0.44922 0 0.55859l17.688 17.688c0.11328 0.11328 0.44922 0.11328 0.55859 0l24.965-24.965c0.11328-0.11328 0.11328-0.44922 0-0.55859l-17.797-17.691c-0.11328-0.10938-0.11328-0.10938-0.22656-0.10938z"/>
  <path d="m441.54 400.11c-2.4648 0-4.8125-1.0078-6.4922-2.6875l-12.652-12.648c-1.6797-1.793-2.6875-4.0312-2.6875-6.4922 0-2.4648 1.0078-4.8125 2.6875-6.4922l52.172-52.172c3.4688-3.4688 9.6289-3.4688 13.098 0l12.652 12.652c1.6797 1.793 2.6875 4.0312 2.6875 6.4922 0 2.4648-1.0078 4.8125-2.6875 6.4922l-52.172 52.168c-1.793 1.6797-4.1445 2.6875-6.6055 2.6875zm2.9102-6.3789m-13.77-15.562 10.859 10.973 50.492-50.492-10.859-10.859z"/>
  <path d="m469.75 403.58c-2.2383 0-4.4766-0.89453-6.1562-2.5742l-10.859-10.859c-3.3594-3.3594-3.3594-8.8438 0-12.316l28.102-28.102c3.3594-3.3594 8.957-3.3594 12.316 0l10.859 10.859c3.3594 3.3594 3.3594 8.8438 0 12.316l-28.102 28.102c-1.6836 1.7891-3.9219 2.5742-6.1602 2.5742zm2.4609-6.2695m-10.746-13.211 8.3984 8.3984 25.527-25.527-8.3984-8.2852z"/>
  <path d="m581.93 462.36h-102.33c-2.9102 0-5.2617-2.3516-5.2617-5.2617v-14.891c0-11.082 9.0703-20.152 20.152-20.152h72.547c11.082 0 20.152 9.0703 20.152 20.152v14.891c0 2.9102-2.3516 5.2617-5.2617 5.2617zm-97.066-10.414h91.918v-9.6289c0-5.375-4.3672-9.6289-9.6289-9.6289h-72.547c-5.375 0-9.6289 4.3672-9.6289 9.6289-0.11328 0.003906-0.11328 9.6289-0.11328 9.6289z"/>
 </g>
</svg>