<svg xmlns="http://www.w3.org/2000/svg" xmlns:xlink="http://www.w3.org/1999/xlink" width="200" zoomAndPan="magnify" viewBox="0 0 150 157.92" height="200" preserveAspectRatio="xMidYMid meet" version="1.0"><defs><clipPath id="84351d2d4a"><path d="M 0.0390625 70 L 149.960938 70 L 149.960938 149 L 0.0390625 149 Z M 0.0390625 70 " clip-rule="nonzero"/></clipPath></defs><g clip-path="url(#84351d2d4a)"><path fill="#00406d" d="M 148.964844 75.277344 C 144.691406 69.863281 136.972656 68.804688 131.398438 72.871094 L 96.839844 98.082031 L 79.417969 85.261719 C 76.023438 82.804688 72.015625 81.507812 67.824219 81.507812 L 64.679688 81.507812 C 63.179688 81.507812 61.964844 82.722656 61.964844 84.21875 C 61.964844 85.71875 63.179688 86.933594 64.679688 86.933594 L 67.824219 86.933594 C 70.863281 86.933594 73.773438 87.875 76.222656 89.644531 L 92.242188 101.4375 L 85.152344 106.605469 C 82.289062 108.695312 78.554688 108.984375 75.402344 107.359375 L 65.605469 102.300781 C 64.273438 101.613281 62.636719 102.136719 61.949219 103.46875 C 61.261719 104.800781 61.785156 106.433594 63.117188 107.121094 L 72.914062 112.179688 C 77.902344 114.753906 83.816406 114.296875 88.351562 110.988281 L 134.59375 77.253906 C 137.804688 74.914062 142.246094 75.523438 144.707031 78.640625 C 147.523438 82.207031 147.019531 87.3125 143.558594 90.257812 L 84.988281 140.144531 C 81.339844 143.253906 76.335938 144.011719 71.929688 142.125 L 37.988281 127.574219 L 37.988281 82.355469 C 37.988281 78.242188 34.640625 74.894531 30.527344 74.894531 L 7.496094 74.894531 C 3.382812 74.894531 0.0390625 78.242188 0.0390625 82.355469 L 0.0390625 130.375 C 0.0390625 134.488281 3.382812 137.832031 7.496094 137.832031 L 30.527344 137.832031 C 33.628906 137.832031 36.292969 135.929688 37.417969 133.230469 L 69.792969 147.109375 C 76.105469 149.816406 83.277344 148.730469 88.507812 144.277344 L 147.078125 94.386719 C 152.769531 89.539062 153.597656 81.148438 148.964844 75.277344 Z M 30.527344 132.40625 L 7.496094 132.40625 C 6.375 132.40625 5.464844 131.496094 5.464844 130.375 L 5.464844 82.355469 C 5.464844 81.234375 6.375 80.320312 7.496094 80.320312 L 30.527344 80.320312 C 31.648438 80.320312 32.5625 81.234375 32.5625 82.355469 L 32.5625 130.375 C 32.5625 131.496094 31.648438 132.40625 30.527344 132.40625 Z M 30.527344 132.40625 " fill-opacity="1" fill-rule="nonzero"/></g><path fill="#00406d" d="M 18.917969 67.3125 L 128.878906 67.363281 C 130.375 67.363281 131.589844 66.148438 131.589844 64.652344 L 131.589844 3.398438 C 131.589844 1.902344 130.375 0.6875 128.878906 0.6875 L 97.703125 0.6875 C 96.203125 0.6875 94.988281 1.902344 94.988281 3.398438 L 94.988281 33.476562 L 79.945312 21.621094 C 78.957031 20.847656 77.570312 20.847656 76.585938 21.621094 L 64.5625 31.09375 C 64.269531 24.09375 58.933594 18.371094 52.082031 17.425781 L 56.039062 10.523438 C 56.832031 9.144531 57.011719 7.550781 56.550781 6.035156 C 56.085938 4.511719 54.984375 3.226562 53.53125 2.511719 L 51.246094 1.386719 C 48.792969 0.175781 45.828125 0.75 44.035156 2.78125 L 41.363281 5.808594 C 41.140625 6.0625 40.667969 6.050781 40.457031 5.808594 L 37.75 2.699219 C 36.042969 0.734375 33.261719 0.105469 30.839844 1.128906 L 27.578125 2.5 C 25.988281 3.171875 24.78125 4.476562 24.261719 6.085938 C 23.753906 7.660156 23.957031 9.375 24.820312 10.792969 L 28.839844 17.398438 C 21.722656 18.3125 16.207031 24.367188 16.207031 31.6875 L 16.207031 41.328125 C 16.207031 47.722656 13.867188 51.613281 11.761719 55.859375 C 9.144531 61.136719 13 67.3125 18.917969 67.3125 Z M 81.617188 61.902344 L 75.070312 61.902344 L 75.070312 48.625 L 81.617188 48.625 Z M 100.414062 6.113281 L 126.164062 6.113281 L 126.164062 61.9375 L 100.414062 61.9375 Z M 78.265625 27.207031 L 94.988281 40.382812 L 94.988281 61.902344 L 87.042969 61.902344 L 87.042969 48.167969 C 87.042969 45.429688 84.8125 43.199219 82.074219 43.199219 L 74.609375 43.199219 C 71.871094 43.199219 69.644531 45.429688 69.644531 48.167969 L 69.644531 61.902344 L 61.539062 61.894531 L 61.539062 40.382812 Z M 29.6875 7.5 L 32.945312 6.125 C 33.195312 6.023438 33.5 6.078125 33.660156 6.261719 L 36.367188 9.371094 C 38.738281 12.089844 43.042969 12.105469 45.429688 9.398438 L 48.101562 6.371094 C 48.269531 6.179688 48.597656 6.128906 48.847656 6.25 C 52.621094 8.113281 51.785156 7.035156 45.910156 17.285156 L 35.121094 17.277344 C 29.347656 7.796875 28.984375 7.796875 29.6875 7.5 Z M 16.621094 58.269531 C 18.976562 53.515625 21.628906 48.964844 21.628906 41.328125 L 21.628906 31.6875 C 21.628906 26.730469 25.703125 22.699219 30.707031 22.699219 L 50.078125 22.710938 C 55.082031 22.710938 59.152344 26.742188 59.152344 31.699219 L 59.152344 35.355469 L 57.148438 36.933594 C 56.496094 37.449219 56.113281 38.234375 56.113281 39.066406 L 56.113281 61.890625 L 18.917969 61.890625 C 17.027344 61.890625 15.792969 59.9375 16.621094 58.269531 Z M 16.621094 58.269531 " fill-opacity="1" fill-rule="nonzero"/><path fill="#00406d" d="M 118.359375 21.066406 C 119.855469 21.066406 121.070312 19.851562 121.070312 18.351562 L 121.070312 16.761719 C 121.070312 15.265625 119.855469 14.050781 118.359375 14.050781 C 116.859375 14.050781 115.644531 15.265625 115.644531 16.761719 L 115.644531 18.351562 C 115.644531 19.851562 116.859375 21.066406 118.359375 21.066406 Z M 118.359375 21.066406 " fill-opacity="1" fill-rule="nonzero"/><path fill="#00406d" d="M 107.679688 21.066406 C 109.179688 21.066406 110.394531 19.851562 110.394531 18.351562 L 110.394531 16.761719 C 110.394531 15.265625 109.179688 14.050781 107.679688 14.050781 C 106.183594 14.050781 104.96875 15.265625 104.96875 16.761719 L 104.96875 18.351562 C 104.96875 19.851562 106.183594 21.066406 107.679688 21.066406 Z M 107.679688 21.066406 " fill-opacity="1" fill-rule="nonzero"/><path fill="#00406d" d="M 118.359375 31.660156 C 119.855469 31.660156 121.070312 30.445312 121.070312 28.949219 L 121.070312 27.359375 C 121.070312 25.859375 119.855469 24.644531 118.359375 24.644531 C 116.859375 24.644531 115.644531 25.859375 115.644531 27.359375 L 115.644531 28.949219 C 115.644531 30.445312 116.859375 31.660156 118.359375 31.660156 Z M 118.359375 31.660156 " fill-opacity="1" fill-rule="nonzero"/><path fill="#00406d" d="M 107.679688 31.660156 C 109.179688 31.660156 110.394531 30.445312 110.394531 28.949219 L 110.394531 27.359375 C 110.394531 25.859375 109.179688 24.644531 107.679688 24.644531 C 106.183594 24.644531 104.96875 25.859375 104.96875 27.359375 L 104.96875 28.949219 C 104.96875 30.445312 106.183594 31.660156 107.679688 31.660156 Z M 107.679688 31.660156 " fill-opacity="1" fill-rule="nonzero"/><path fill="#00406d" d="M 118.898438 36.390625 C 117.402344 36.390625 116.1875 37.605469 116.1875 39.101562 L 116.1875 40.691406 C 116.1875 42.191406 117.402344 43.40625 118.898438 43.40625 C 120.398438 43.40625 121.613281 42.191406 121.613281 40.691406 L 121.613281 39.101562 C 121.613281 37.605469 120.398438 36.390625 118.898438 36.390625 Z M 118.898438 36.390625 " fill-opacity="1" fill-rule="nonzero"/><path fill="#00406d" d="M 108.222656 36.390625 C 106.722656 36.390625 105.507812 37.605469 105.507812 39.101562 L 105.507812 40.691406 C 105.507812 42.191406 106.722656 43.40625 108.222656 43.40625 C 109.71875 43.40625 110.933594 42.191406 110.933594 40.691406 L 110.933594 39.101562 C 110.933594 37.605469 109.71875 36.390625 108.222656 36.390625 Z M 108.222656 36.390625 " fill-opacity="1" fill-rule="nonzero"/><path fill="#00406d" d="M 118.898438 46.988281 C 117.402344 46.988281 116.1875 48.199219 116.1875 49.699219 L 116.1875 51.289062 C 116.1875 52.789062 117.402344 54 118.898438 54 C 120.398438 54 121.613281 52.789062 121.613281 51.289062 L 121.613281 49.699219 C 121.613281 48.199219 120.398438 46.988281 118.898438 46.988281 Z M 118.898438 46.988281 " fill-opacity="1" fill-rule="nonzero"/><path fill="#00406d" d="M 108.222656 46.988281 C 106.722656 46.988281 105.507812 48.199219 105.507812 49.699219 L 105.507812 51.289062 C 105.507812 52.789062 106.722656 54 108.222656 54 C 109.71875 54 110.933594 52.789062 110.933594 51.289062 L 110.933594 49.699219 C 110.933594 48.199219 109.71875 46.988281 108.222656 46.988281 Z M 108.222656 46.988281 " fill-opacity="1" fill-rule="nonzero"/><path fill="#00406d" d="M 40.390625 44.589844 C 41.636719 44.589844 42.652344 45.605469 42.652344 46.851562 C 42.652344 48.097656 41.636719 49.113281 40.390625 49.113281 C 39.421875 49.113281 38.558594 48.496094 38.25 47.578125 C 37.769531 46.15625 36.230469 45.398438 34.8125 45.878906 C 33.390625 46.355469 32.628906 47.898438 33.109375 49.316406 C 33.863281 51.542969 35.570312 53.242188 37.679688 54.039062 L 37.679688 55.710938 C 37.679688 57.207031 38.894531 58.421875 40.390625 58.421875 C 41.890625 58.421875 43.105469 57.207031 43.105469 55.710938 L 43.105469 54.042969 C 46.007812 52.941406 48.078125 50.136719 48.078125 46.851562 C 48.078125 42.613281 44.628906 39.167969 40.390625 39.167969 C 39.144531 39.167969 38.132812 38.152344 38.132812 36.90625 C 38.132812 35.660156 39.144531 34.644531 40.390625 34.644531 C 41.121094 34.644531 41.8125 35 42.234375 35.597656 C 43.105469 36.820312 44.796875 37.101562 46.019531 36.234375 C 47.238281 35.367188 47.523438 33.671875 46.65625 32.453125 C 45.757812 31.191406 44.515625 30.25 43.105469 29.71875 L 43.105469 27.582031 C 43.105469 26.082031 41.890625 24.867188 40.390625 24.867188 C 38.894531 24.867188 37.679688 26.082031 37.679688 27.582031 L 37.679688 29.714844 C 34.777344 30.816406 32.707031 33.621094 32.707031 36.90625 C 32.707031 41.144531 36.152344 44.589844 40.390625 44.589844 Z M 40.390625 44.589844 " fill-opacity="1" fill-rule="nonzero"/><path fill="#00406d" d="M 58.347656 84.140625 C 58.347656 84.546875 58.269531 84.933594 58.117188 85.308594 C 57.960938 85.683594 57.738281 86.011719 57.453125 86.296875 C 57.167969 86.585938 56.839844 86.804688 56.464844 86.960938 C 56.089844 87.113281 55.699219 87.191406 55.296875 87.191406 C 54.890625 87.191406 54.503906 87.113281 54.128906 86.960938 C 53.753906 86.804688 53.425781 86.585938 53.136719 86.296875 C 52.851562 86.011719 52.632812 85.683594 52.476562 85.308594 C 52.320312 84.933594 52.246094 84.546875 52.246094 84.140625 C 52.246094 83.734375 52.320312 83.347656 52.476562 82.972656 C 52.632812 82.597656 52.851562 82.269531 53.136719 81.984375 C 53.425781 81.695312 53.753906 81.476562 54.128906 81.320312 C 54.503906 81.167969 54.890625 81.089844 55.296875 81.089844 C 55.699219 81.089844 56.089844 81.167969 56.464844 81.320312 C 56.839844 81.476562 57.167969 81.695312 57.453125 81.984375 C 57.738281 82.269531 57.960938 82.597656 58.117188 82.972656 C 58.269531 83.347656 58.347656 83.734375 58.347656 84.140625 Z M 58.347656 84.140625 " fill-opacity="1" fill-rule="nonzero"/><path fill="#00406d" d="M 48.855469 84.140625 C 48.855469 84.546875 48.777344 84.933594 48.621094 85.308594 C 48.464844 85.683594 48.246094 86.011719 47.960938 86.296875 C 47.675781 86.585938 47.34375 86.804688 46.96875 86.960938 C 46.597656 87.113281 46.207031 87.191406 45.800781 87.191406 C 45.398438 87.191406 45.007812 87.113281 44.632812 86.960938 C 44.261719 86.804688 43.929688 86.585938 43.644531 86.296875 C 43.359375 86.011719 43.136719 85.683594 42.984375 85.308594 C 42.828125 84.933594 42.75 84.546875 42.75 84.140625 C 42.75 83.734375 42.828125 83.347656 42.984375 82.972656 C 43.136719 82.597656 43.359375 82.269531 43.644531 81.984375 C 43.929688 81.695312 44.261719 81.476562 44.632812 81.320312 C 45.007812 81.167969 45.398438 81.089844 45.800781 81.089844 C 46.207031 81.089844 46.597656 81.167969 46.96875 81.320312 C 47.34375 81.476562 47.675781 81.695312 47.960938 81.984375 C 48.246094 82.269531 48.464844 82.597656 48.621094 82.972656 C 48.777344 83.347656 48.855469 83.734375 48.855469 84.140625 Z M 48.855469 84.140625 " fill-opacity="1" fill-rule="nonzero"/></svg>