<?xml version="1.0" encoding="UTF-8"?>
<!-- Uploaded to: SVG Find, www.svgrepo.com, Generator: SVG Find Mixer Tools -->
<svg fill="#00406d" width="800px" height="800px" version="1.1" viewBox="144 144 512 512" xmlns="http://www.w3.org/2000/svg">
 <g>
  <path d="m291.53 467.59c37.164 0 67.402-30.25 67.402-67.414s-30.238-67.402-67.402-67.402c-37.176 0-67.414 30.238-67.414 67.402s30.238 67.414 67.414 67.414zm0-117.15c27.422 0 49.734 22.309 49.734 49.734 0 27.414-22.309 49.723-49.734 49.723-27.422 0-49.746-22.309-49.746-49.723 0.003906-27.422 22.324-49.734 49.746-49.734z"/>
  <path d="m291.53 489.92c-70.414 0-127.7 57.305-127.7 127.73 0 4.875 3.9609 8.8477 8.8359 8.8477h237.73c4.875 0 8.8359-3.9688 8.8359-8.8477 0.003907-70.422-57.285-127.73-127.7-127.73zm-109.67 118.89c4.5078-56.551 51.977-101.19 109.67-101.19 57.695 0 105.16 44.641 109.67 101.19z"/>
  <path d="m518.43 173.5c-64.922 0-117.72 52.809-117.72 117.73 0 64.914 52.797 117.72 117.72 117.72s117.74-52.809 117.74-117.72c0-64.922-52.82-117.73-117.74-117.73zm8.8477 217.39v-11.148c0-4.875-3.9688-8.8359-8.8477-8.8359-4.875 0-8.8477 3.9609-8.8477 8.8359v11.148c-48.129-4.2344-86.578-42.688-90.809-90.82h11.148c4.875 0 8.8477-3.9609 8.8477-8.8359s-3.9688-8.8359-8.8477-8.8359h-11.148c4.2305-48.133 42.68-86.594 90.809-90.828v11.148c0 4.875 3.9688 8.8359 8.8477 8.8359 4.875 0 8.8477-3.9609 8.8477-8.8359v-11.148c48.129 4.2383 86.578 42.695 90.809 90.828l-11.129 0.003907c-4.875 0-8.8477 3.9609-8.8477 8.8359s3.9688 8.8359 8.8477 8.8359h11.129c-4.2305 48.129-42.68 86.582-90.809 90.816z"/>
  <path d="m527.02 274.26c0.16016-0.66406 0.25-1.3477 0.25-2.0586v-25.559c0-4.875-3.9688-8.8359-8.8477-8.8359-4.875 0-8.8477 3.9609-8.8477 8.8359v25.559c0 0.71094 0.09375 1.4023 0.25391 2.0664-3.6055 1.832-6.543 4.7734-8.3711 8.3828-0.66406-0.16016-1.3555-0.25391-2.0703-0.25391h-36.961c-4.875 0-8.8477 3.9609-8.8477 8.8359s3.9688 8.8359 8.8477 8.8359h36.961c0.71484 0 1.4062-0.09375 2.0703-0.25391 3.1406 6.1914 9.5508 10.445 16.969 10.445 10.512 0 19.031-8.5195 19.031-19.031 0.007813-7.418-4.2461-13.828-10.438-16.969z"/>
 </g>
</svg>
