<svg xmlns="http://www.w3.org/2000/svg" xmlns:xlink="http://www.w3.org/1999/xlink" width="500" zoomAndPan="magnify" viewBox="0 0 375 374.999991" height="500" preserveAspectRatio="xMidYMid meet" version="1.0"><defs><clipPath id="55c1c779b5"><path d="M 150 37.5 L 315.941406 37.5 L 315.941406 189 L 150 189 Z M 150 37.5 " clip-rule="nonzero"/></clipPath><clipPath id="2438aa4c3d"><path d="M 41.441406 102 L 201 102 L 201 337.5 L 41.441406 337.5 Z M 41.441406 102 " clip-rule="nonzero"/></clipPath></defs><path fill="#00406d" d="M 284.308594 112.851562 L 284.308594 119.210938 C 284.308594 120.453125 283.296875 121.472656 282.054688 121.472656 L 275.746094 121.472656 C 274.503906 121.472656 273.492188 120.453125 273.492188 119.210938 L 273.492188 112.851562 C 273.492188 111.605469 274.503906 110.585938 275.746094 110.585938 L 282.054688 110.585938 C 283.296875 110.585938 284.308594 111.605469 284.308594 112.851562 " fill-opacity="1" fill-rule="nonzero"/><path fill="#00406d" d="M 236.144531 156.550781 C 237.386719 156.550781 238.40625 157.570312 238.40625 158.816406 L 238.40625 165.113281 C 238.40625 166.367188 237.386719 167.375 236.144531 167.375 L 229.789062 167.375 C 228.539062 167.375 227.527344 166.367188 227.527344 165.113281 L 227.527344 158.816406 C 227.527344 157.570312 228.539062 156.550781 229.789062 156.550781 L 236.144531 156.550781 " fill-opacity="1" fill-rule="nonzero"/><path fill="#00406d" d="M 236.105469 75.53125 L 229.828125 75.53125 C 228.585938 75.53125 227.566406 74.511719 227.566406 73.269531 L 227.566406 66.984375 C 227.566406 65.742188 228.585938 64.730469 229.828125 64.730469 L 236.105469 64.730469 C 237.347656 64.730469 238.367188 65.742188 238.367188 66.984375 L 238.367188 73.269531 C 238.367188 74.511719 237.347656 75.53125 236.105469 75.53125 " fill-opacity="1" fill-rule="nonzero"/><path fill="#00406d" d="M 274.84375 88.355469 C 275.933594 88.648438 276.84375 89.34375 277.449219 90.390625 C 278.617188 92.40625 277.925781 94.996094 275.839844 96.191406 C 275.1875 96.574219 274.464844 96.769531 273.734375 96.769531 C 273.367188 96.769531 273.003906 96.714844 272.636719 96.621094 C 271.539062 96.324219 270.628906 95.625 270.03125 94.574219 C 268.867188 92.5625 269.566406 89.980469 271.578125 88.8125 L 272.140625 89.785156 L 271.640625 88.78125 C 272.621094 88.214844 273.757812 88.066406 274.84375 88.355469 " fill-opacity="1" fill-rule="nonzero"/><path fill="#00406d" d="M 273.765625 143.824219 C 273.027344 143.824219 272.269531 143.636719 271.578125 143.230469 C 270.597656 142.664062 269.898438 141.753906 269.613281 140.65625 C 269.316406 139.570312 269.472656 138.433594 270.039062 137.460938 L 270.070312 137.390625 C 271.246094 135.386719 273.828125 134.699219 275.902344 135.898438 C 276.882812 136.464844 277.582031 137.375 277.871094 138.464844 C 278.15625 139.554688 278.011719 140.695312 277.410156 141.730469 C 276.632812 143.066406 275.234375 143.824219 273.765625 143.824219 " fill-opacity="1" fill-rule="nonzero"/><path fill="#00406d" d="M 252.839844 73.089844 C 254.003906 71.074219 256.59375 70.390625 258.671875 71.589844 C 259.652344 72.15625 260.34375 73.066406 260.636719 74.15625 C 260.925781 75.25 260.777344 76.386719 260.210938 77.367188 L 260.179688 77.421875 C 259.402344 78.765625 257.992188 79.519531 256.523438 79.519531 C 255.785156 79.519531 255.039062 79.328125 254.347656 78.921875 C 253.367188 78.363281 252.675781 77.445312 252.378906 76.355469 C 252.09375 75.265625 252.238281 74.125 252.839844 73.089844 " fill-opacity="1" fill-rule="nonzero"/><path fill="#00406d" d="M 205.300781 74.140625 C 205.589844 73.050781 206.296875 72.140625 207.332031 71.542969 C 209.347656 70.382812 211.9375 71.082031 213.132812 73.160156 C 214.292969 75.175781 213.601562 77.757812 211.585938 78.921875 L 211.53125 78.953125 C 210.871094 79.34375 210.148438 79.519531 209.433594 79.519531 C 207.96875 79.519531 206.53125 78.75 205.722656 77.359375 C 205.15625 76.378906 205.007812 75.238281 205.300781 74.140625 " fill-opacity="1" fill-rule="nonzero"/><path fill="#00406d" d="M 254.402344 153.097656 C 255.382812 152.53125 256.515625 152.375 257.613281 152.671875 C 258.703125 152.960938 259.613281 153.660156 260.21875 154.703125 C 260.777344 155.679688 260.925781 156.816406 260.636719 157.90625 C 260.34375 158.992188 259.652344 159.910156 258.609375 160.511719 C 257.957031 160.882812 257.230469 161.078125 256.5 161.078125 C 256.136719 161.078125 255.769531 161.03125 255.40625 160.929688 C 254.316406 160.640625 253.40625 159.933594 252.800781 158.902344 C 251.640625 156.886719 252.332031 154.296875 254.347656 153.128906 L 254.90625 154.101562 L 254.402344 153.097656 " fill-opacity="1" fill-rule="nonzero"/><path fill="#00406d" d="M 209.441406 161.0625 C 208.707031 161.0625 207.953125 160.875 207.261719 160.472656 C 206.28125 159.902344 205.589844 158.992188 205.300781 157.90625 C 205.007812 156.808594 205.164062 155.671875 205.722656 154.703125 L 205.761719 154.632812 C 206.933594 152.625 209.515625 151.941406 211.59375 153.136719 C 213.609375 154.3125 214.292969 156.902344 213.085938 158.96875 C 212.308594 160.308594 210.910156 161.0625 209.441406 161.0625 " fill-opacity="1" fill-rule="nonzero"/><g clip-path="url(#55c1c779b5)"><path fill="#00406d" d="M 188.1875 156.40625 C 199.222656 168.660156 215.21875 176.367188 232.96875 176.367188 C 266.222656 176.367188 293.265625 149.3125 293.265625 116.046875 C 293.265625 82.792969 266.222656 55.742188 232.96875 55.742188 C 207.699219 55.742188 186.007812 71.363281 177.050781 93.441406 L 164.554688 93.457031 C 167.480469 84.613281 172.082031 76.535156 177.96875 69.574219 L 170.417969 62.03125 L 159.351562 73.097656 L 156.023438 69.753906 C 152.457031 66.191406 150.496094 61.433594 150.496094 56.355469 C 150.496094 51.269531 152.457031 46.519531 156.023438 42.957031 C 159.585938 39.386719 164.359375 37.4375 169.421875 37.4375 C 174.5 37.4375 179.261719 39.386719 182.835938 42.957031 L 186.164062 46.285156 L 175.101562 57.351562 L 182.472656 64.707031 C 195.464844 51.914062 213.320312 44.015625 232.96875 44.015625 C 252.621094 44.015625 270.453125 51.914062 283.46875 64.707031 L 290.816406 57.351562 L 279.753906 46.285156 L 283.097656 42.957031 C 286.671875 39.386719 291.425781 37.4375 296.496094 37.4375 C 301.578125 37.4375 306.347656 39.386719 309.90625 42.957031 C 313.476562 46.519531 315.445312 51.269531 315.445312 56.355469 C 315.445312 61.433594 313.476562 66.191406 309.90625 69.753906 L 306.578125 73.097656 L 295.515625 62.03125 L 287.972656 69.574219 C 298.601562 82.125 305.015625 98.347656 305.015625 116.046875 C 305.015625 155.773438 272.691406 188.101562 232.96875 188.101562 C 214.160156 188.101562 196.996094 180.851562 184.152344 168.996094 C 185.910156 164.964844 187.261719 160.757812 188.1875 156.40625 " fill-opacity="1" fill-rule="nonzero"/></g><path fill="#00406d" d="M 219.457031 136.886719 L 217.9375 138.550781 C 216.914062 139.707031 216.179688 140.488281 214.679688 142.128906 C 213.902344 142.945312 213.070312 143.386719 212.207031 143.410156 L 212.152344 143.410156 C 211.382812 143.410156 210.660156 143.082031 210 142.445312 C 209.144531 141.613281 208.816406 140.65625 209.019531 139.6875 C 209.097656 139.25 209.285156 138.808594 209.578125 138.378906 C 209.710938 138.167969 209.875 137.976562 210.0625 137.78125 C 210.257812 137.570312 210.449219 137.351562 210.660156 137.144531 C 213.367188 134.171875 215.347656 132.011719 217.285156 129.878906 C 219.492188 127.5 221.640625 125.175781 224.71875 121.777344 C 224.828125 121.628906 224.96875 121.511719 225.109375 121.371094 C 225.28125 121.210938 225.410156 121.078125 225.488281 120.96875 C 224.890625 119.964844 224.285156 118.691406 224.324219 117.21875 C 224.324219 116.691406 224.183594 116.425781 223.320312 115.890625 C 219.261719 113.417969 214.332031 110.414062 209.578125 107.5 L 209.578125 99.902344 C 211.089844 100.828125 212.644531 101.777344 214.207031 102.726562 C 218.59375 105.421875 223.023438 108.136719 226.773438 110.445312 C 228.4375 109.652344 228.707031 108.378906 228.640625 106.007812 C 228.507812 101.394531 228.53125 100.128906 228.53125 97.015625 L 228.546875 93.671875 C 228.546875 91.894531 228.546875 87.6875 232.488281 87.609375 C 233.632812 87.585938 234.578125 87.917969 235.28125 88.589844 C 236.273438 89.566406 236.726562 91.175781 236.703125 93.671875 C 236.703125 96.574219 236.726562 98.347656 236.726562 100.011719 C 236.742188 102.101562 236.75 104 236.726562 107.585938 C 236.703125 108.90625 236.945312 109.4375 237.800781 109.917969 C 239.640625 111 240.367188 112.933594 240.816406 114.523438 C 241.265625 116.101562 241.003906 117.554688 240.683594 118.953125 C 241.359375 119.359375 241.953125 119.722656 242.527344 120.066406 C 243.398438 120.59375 244.253906 121.109375 245.328125 121.769531 C 247.894531 123.363281 247.652344 125.175781 247.007812 126.433594 C 246.601562 127.195312 245.980469 127.71875 245.1875 127.953125 C 244.191406 128.238281 243.0625 128.003906 241.882812 127.304688 C 241.328125 126.980469 240.855469 126.691406 240.40625 126.410156 C 239.308594 125.78125 238.367188 125.222656 237.074219 124.382812 C 236.507812 124.03125 236.296875 124.03125 235.917969 124.226562 C 234.308594 125.003906 232.714844 125.199219 231.3125 124.785156 C 230.816406 124.632812 230.660156 124.667969 230.070312 125.332031 C 227.753906 127.875 226.003906 129.777344 224.175781 131.738281 C 222.753906 133.292969 221.273438 134.886719 219.457031 136.886719 " fill-opacity="1" fill-rule="nonzero"/><g clip-path="url(#2438aa4c3d)"><path fill="#00406d" d="M 91.949219 134.917969 C 94.863281 129.878906 100.074219 126.878906 105.90625 126.878906 L 136.007812 126.878906 C 141.832031 126.878906 147.042969 129.894531 149.960938 134.933594 C 152.875 139.988281 152.859375 146.007812 149.953125 151.039062 L 133.164062 180.113281 L 133.164062 247.402344 L 156.863281 285.816406 C 160.261719 291.320312 160.417969 297.96875 157.277344 303.609375 C 153.972656 309.519531 147.578125 313.195312 140.597656 313.195312 L 101.3125 313.195312 C 94.328125 313.195312 87.9375 309.535156 84.640625 303.625 C 81.488281 297.976562 81.636719 291.335938 85.035156 285.816406 L 94.863281 269.914062 L 108.746094 247.417969 L 108.746094 180.121094 L 91.949219 151.039062 C 89.03125 145.984375 89.03125 139.964844 91.949219 134.917969 Z M 61.449219 132.144531 C 61.464844 135.128906 61.464844 137.984375 61.441406 140.851562 C 61.285156 158.121094 60.757812 173.039062 73.535156 185.160156 C 77.296875 188.746094 81.070312 192.339844 84.847656 195.9375 C 88.503906 199.414062 92.160156 202.898438 95.820312 206.375 C 100.191406 210.527344 102.5 215.238281 102.492188 220.039062 C 102.492188 224.835938 100.167969 229.5625 95.789062 233.714844 L 92.859375 236.492188 C 86.800781 242.222656 80.539062 248.15625 74.289062 253.886719 C 60.726562 266.304688 60.953125 281.492188 61.28125 299.042969 C 61.339844 302.039062 61.324219 305.078125 61.316406 308.015625 C 61.300781 308.523438 61.300781 309.035156 61.300781 309.542969 L 41.566406 309.542969 L 41.566406 337.363281 L 200.339844 337.363281 L 200.339844 309.542969 L 180.605469 309.542969 C 180.605469 308.972656 180.605469 308.40625 180.597656 307.847656 C 180.582031 304.953125 180.574219 301.984375 180.628906 299.042969 C 180.957031 281.484375 181.179688 266.296875 167.632812 253.886719 C 161.40625 248.1875 155.183594 242.292969 149.160156 236.59375 L 146.117188 233.714844 C 141.730469 229.5625 139.414062 224.828125 139.40625 220.03125 C 139.40625 215.238281 141.714844 210.511719 146.078125 206.375 C 149.34375 203.265625 152.617188 200.152344 155.890625 197.035156 C 160.054688 193.085938 164.214844 189.117188 168.375 185.160156 C 181.148438 173.039062 180.621094 158.121094 180.464844 140.851562 C 180.441406 137.929688 180.441406 135.003906 180.441406 131.949219 L 180.441406 130.441406 L 200.339844 130.441406 L 200.339844 102.726562 L 198.023438 102.71875 C 189.71875 102.695312 172.867188 102.695312 161.179688 102.703125 L 80.726562 102.703125 C 69.039062 102.695312 52.1875 102.695312 43.867188 102.71875 L 41.566406 102.726562 L 41.566406 130.441406 L 61.449219 130.441406 L 61.449219 132.144531 " fill-opacity="1" fill-rule="nonzero"/></g><path fill="#00406d" d="M 105.898438 133.816406 L 136 133.816406 C 143.070312 133.816406 147.480469 141.457031 143.941406 147.570312 L 136.421875 160.613281 L 126.226562 178.253906 L 126.226562 249.375 L 141.148438 273.554688 L 150.960938 289.464844 C 155.574219 296.929688 149.804688 306.261719 140.589844 306.261719 L 101.3125 306.261719 C 92.097656 306.261719 86.34375 296.929688 90.9375 289.464844 L 100.765625 273.554688 L 115.683594 249.382812 L 115.683594 178.261719 L 105.480469 160.613281 L 97.960938 147.570312 C 94.429688 141.457031 98.839844 133.816406 105.898438 133.816406 " fill-opacity="1" fill-rule="nonzero"/></svg>