<?xml version="1.0" encoding="UTF-8"?>
<!-- Uploaded to: SVG Find, www.svgrepo.com, Generator: SVG Find Mixer Tools -->
<svg width="800px" height="800px" version="1.1" viewBox="144 144 512 512" xmlns="http://www.w3.org/2000/svg">
 <defs>
  <clipPath id="a">
   <path d="m148.09 148.09h503.81v503.81h-503.81z"/>
  </clipPath>
 </defs>
 <g clip-path="url(#a)">
  <path d="m603.15 441.28v-82.559c27.523-3.9648 48.754-27.637 48.754-56.23 0-31.367-25.516-56.883-56.883-56.883-19.316 0-36.387 9.6953-46.676 24.461l-94.391-47.199c1.8711-5.6289 2.9258-11.633 2.9258-17.891 0-31.367-25.516-56.883-56.883-56.883-31.367 0-56.883 25.516-56.883 56.883 0 6.2578 1.0547 12.262 2.9258 17.895l-94.387 47.191c-10.289-14.762-27.363-24.457-46.676-24.457-31.367 0-56.883 25.516-56.883 56.883 0 28.594 21.234 52.266 48.754 56.23v82.559c-27.52 3.9648-48.754 27.637-48.754 56.234 0 31.359 25.516 56.883 56.883 56.883 19.316 0 36.387-9.6953 46.676-24.461l94.398 47.195c-1.8789 5.6289-2.9336 11.637-2.9336 17.895 0 31.359 25.516 56.883 56.883 56.883s56.883-25.523 56.883-56.883c0-6.2578-1.0547-12.262-2.9258-17.895l94.398-47.195c10.277 14.766 27.352 24.457 46.668 24.457 31.367 0 56.883-25.523 56.883-56.883-0.003906-28.594-21.234-52.266-48.758-56.23zm-8.125-179.42c22.402 0 40.629 18.227 40.629 40.629s-18.227 40.629-40.629 40.629c-22.402 0-40.629-18.227-40.629-40.629-0.003906-22.402 18.223-40.629 40.629-40.629zm-195.02 276.29c-15.91 0-30.293 6.582-40.629 17.152l-0.003906-9.0273c0-9.3125 1.8594-17.285 4.9961-24.379h71.266c3.1367 7.0938 5 15.066 5 24.379v9.0273c-10.336-10.57-24.719-17.152-40.629-17.152zm-25.176-32.504c7.0547-8.207 15.879-15.293 25.176-22.332 9.2969 7.0352 18.121 14.133 25.176 22.332zm25.176-42.68c-9.2969-7.0352-18.121-14.133-25.176-22.332h50.355c-7.0586 8.2109-15.887 15.297-25.18 22.332zm35.629-38.582h-71.266c-2.1797-4.9336-3.7148-10.312-4.4531-16.25h80.164c-0.73047 5.9414-2.2656 11.32-4.4453 16.25zm-75.707-32.504c0.73828-5.9414 2.2656-11.32 4.4531-16.25h71.266c2.1797 4.9336 3.7148 10.312 4.4531 16.25zm14.902-32.504c7.0547-8.207 15.879-15.293 25.176-22.332 9.2969 7.0352 18.121 14.133 25.176 22.332zm25.176-42.676c-9.2969-7.0352-18.121-14.133-25.176-22.332h50.355c-7.0586 8.207-15.887 15.293-25.18 22.332zm40.629-62.961c0 9.3125-1.8594 17.285-4.9961 24.379h-71.266c-3.1367-7.0938-5-15.066-5-24.379v-9.0195c10.336 10.562 24.719 17.145 40.629 17.145s30.293-6.582 40.629-17.145zm-40.629-89.387c22.402 0 40.629 18.227 40.629 40.629s-18.227 40.629-40.629 40.629-40.629-18.227-40.629-40.629c-0.003906-22.402 18.223-40.629 40.629-40.629zm-235.66 138.14c0-22.402 18.227-40.629 40.629-40.629s40.629 18.227 40.629 40.629c0 22.402-18.227 40.629-40.629 40.629s-40.629-18.227-40.629-40.629zm40.633 235.65c-22.402 0-40.629-18.227-40.629-40.629 0-22.402 18.227-40.629 40.629-40.629 22.402 0 40.629 18.227 40.629 40.629 0 22.402-18.227 40.629-40.629 40.629zm8.125-96.863v-82.559c27.523-3.9648 48.754-27.637 48.754-56.23 0-6.2578-1.0547-12.262-2.9258-17.895l84.188-42.094v11.23c0 35.91 21.582 56.266 43.434 73.133-21.852 16.871-43.434 37.227-43.434 73.137 0 35.918 21.582 56.266 43.434 73.133-21.852 16.867-43.434 37.215-43.434 73.133v11.223l-84.184-42.094c1.8672-5.6211 2.9219-11.629 2.9219-17.883 0-28.598-21.23-52.27-48.754-56.234zm186.9 194.38c-22.402 0-40.629-18.227-40.629-40.629 0-22.402 18.227-40.629 40.629-40.629s40.629 18.227 40.629 40.629c0 22.402-18.227 40.629-40.629 40.629zm56.879-78.156v-11.23c0-35.918-21.582-56.266-43.434-73.133 21.852-16.871 43.434-37.219 43.434-73.133 0-35.91-21.582-56.266-43.434-73.133 21.852-16.871 43.434-37.227 43.434-73.137v-11.23l84.184 42.094c-1.8672 5.6328-2.9219 11.637-2.9219 17.895 0 28.594 21.234 52.266 48.754 56.23v82.559c-27.523 3.9648-48.754 27.637-48.754 56.23 0 6.2578 1.0547 12.262 2.9258 17.895zm138.14-19.355c-22.402 0-40.629-18.227-40.629-40.629 0-22.402 18.227-40.629 40.629-40.629 22.402 0 40.629 18.227 40.629 40.629 0 22.402-18.227 40.629-40.629 40.629z"/>
 </g>
</svg>