<svg xmlns="http://www.w3.org/2000/svg" xmlns:xlink="http://www.w3.org/1999/xlink" width="500" zoomAndPan="magnify" viewBox="0 0 375 374.999991" height="500" preserveAspectRatio="xMidYMid meet" version="1.0"><defs><clipPath id="ad495346ed"><path d="M 37.5 38 L 336 38 L 336 339 L 37.5 339 Z M 37.5 38 " clip-rule="nonzero"/></clipPath></defs><g clip-path="url(#ad495346ed)"><path fill="#00406d" d="M 81.558594 112.523438 L 86.273438 119.726562 L 83.167969 145.128906 C 82.984375 146.652344 83.75 148.132812 85.097656 148.863281 C 85.65625 149.160156 86.265625 149.308594 86.871094 149.308594 C 87.734375 149.308594 88.585938 149.011719 89.277344 148.425781 L 114.957031 126.75 C 115.535156 126.265625 115.945312 125.609375 116.148438 124.890625 L 120.632812 108.59375 C 126.636719 104.847656 132.414062 100.640625 137.726562 96.109375 C 152.320312 83.640625 162.085938 69.933594 165.222656 57.503906 C 165.234375 57.453125 165.246094 57.398438 165.257812 57.347656 L 167.53125 46.351562 C 167.945312 44.34375 166.660156 42.371094 164.648438 41.949219 L 153.664062 39.628906 C 153.613281 39.613281 153.558594 39.609375 153.503906 39.597656 C 140.855469 37.492188 124.386719 40.945312 107.117188 49.332031 C 100.835938 52.378906 94.664062 55.992188 88.835938 59.992188 L 72.105469 57.574219 C 71.355469 57.46875 70.597656 57.585938 69.921875 57.921875 L 39.769531 72.761719 C 38.394531 73.441406 37.574219 74.890625 37.699219 76.421875 C 37.828125 77.949219 38.882812 79.246094 40.347656 79.6875 L 64.871094 87.019531 L 69.585938 94.222656 C 67.070312 94.515625 64.566406 95.417969 62.3125 96.890625 C 58.523438 99.367188 53.605469 106.53125 48.039062 114.9375 C 46.9375 116.597656 45.992188 118.027344 45.28125 119.035156 C 44.40625 120.285156 44.375 121.945312 45.214844 123.222656 C 45.910156 124.292969 47.089844 124.914062 48.335938 124.914062 C 48.585938 124.914062 48.832031 124.890625 49.074219 124.839844 C 50.289062 124.589844 51.980469 124.296875 53.941406 123.957031 C 63.875 122.222656 72.402344 120.585938 76.195312 118.101562 C 78.453125 116.640625 80.277344 114.707031 81.558594 112.523438 Z M 78.074219 78.03125 L 99.804688 111.234375 C 97.121094 112.398438 94.410156 113.457031 91.699219 114.390625 L 71.941406 84.191406 C 73.875 82.074219 75.933594 80.023438 78.074219 78.03125 Z M 109.257812 121.804688 L 91.730469 136.601562 L 93.558594 121.628906 C 99.460938 119.625 105.496094 117.003906 111.441406 113.878906 Z M 152.195312 46.949219 L 159.46875 48.484375 L 157.960938 55.761719 C 156.382812 61.953125 152.820312 68.519531 147.824219 74.984375 L 130.523438 48.542969 C 138.457031 46.558594 145.894531 45.917969 152.195312 46.949219 Z M 123.0625 50.769531 L 142.804688 80.941406 C 133.316406 91.292969 120.472656 100.996094 106.625 108.03125 L 83.753906 73.074219 C 95.742188 63.195312 109.773438 55.316406 123.0625 50.769531 Z M 66.050781 79.585938 L 51.601562 75.261719 L 72.179688 65.128906 L 80.320312 66.304688 C 75.070312 70.5 70.25 74.976562 66.050781 79.585938 Z M 75.773438 107.324219 C 75.207031 109.058594 73.871094 110.71875 72.109375 111.871094 C 69.820312 113.371094 62.214844 114.898438 56.328125 115.964844 C 59.664062 111 64.109375 104.640625 66.398438 103.144531 C 67.949219 102.128906 69.722656 101.574219 71.363281 101.574219 C 71.585938 101.574219 71.8125 101.589844 72.035156 101.605469 C 72.925781 101.695312 74.554688 102.046875 75.46875 103.441406 C 76.382812 104.835938 76.054688 106.472656 75.773438 107.324219 Z M 332.394531 252.722656 L 321.191406 252.722656 C 320.019531 248.703125 318.417969 244.828125 316.394531 241.160156 L 324.320312 233.234375 C 325.773438 231.78125 325.773438 229.414062 324.320312 227.960938 L 306.902344 210.535156 C 306.199219 209.835938 305.253906 209.441406 304.265625 209.441406 C 303.277344 209.441406 302.324219 209.835938 301.628906 210.535156 L 293.703125 218.460938 C 290.027344 216.441406 286.15625 214.835938 282.140625 213.664062 L 282.140625 202.464844 C 282.140625 200.402344 280.464844 198.730469 278.40625 198.730469 L 269.824219 198.730469 L 269.824219 147.886719 C 269.824219 145.828125 268.148438 144.152344 266.089844 144.152344 L 235.40625 144.152344 C 233.347656 144.152344 231.671875 145.828125 231.671875 147.886719 L 231.671875 211.664062 L 230.546875 210.535156 C 229.851562 209.835938 228.898438 209.441406 227.910156 209.441406 C 226.921875 209.441406 225.96875 209.835938 225.273438 210.535156 L 216.808594 219.003906 L 216.808594 170.492188 C 216.808594 168.429688 215.132812 166.757812 213.074219 166.757812 L 182.390625 166.757812 C 180.332031 166.757812 178.65625 168.429688 178.65625 170.492188 L 178.65625 268.773438 C 178.65625 270.832031 180.332031 272.503906 182.390625 272.503906 L 196.050781 272.503906 L 196.050781 281.085938 C 196.050781 283.148438 197.722656 284.820312 199.78125 284.820312 L 210.984375 284.820312 C 212.15625 288.839844 213.757812 292.714844 215.78125 296.382812 L 207.855469 304.308594 C 206.402344 305.765625 206.402344 308.128906 207.855469 309.582031 L 225.273438 327.007812 C 225.976562 327.710938 226.921875 328.101562 227.910156 328.101562 C 228.898438 328.101562 229.851562 327.710938 230.546875 327.007812 L 238.472656 319.082031 C 242.148438 321.101562 246.019531 322.707031 250.035156 323.878906 L 250.035156 335.082031 C 250.035156 337.140625 251.710938 338.8125 253.769531 338.8125 L 278.40625 338.8125 C 280.464844 338.8125 282.140625 337.140625 282.140625 335.082031 L 282.140625 323.878906 C 286.15625 322.707031 290.03125 321.101562 293.703125 319.082031 L 301.628906 327.007812 C 302.324219 327.710938 303.277344 328.101562 304.265625 328.101562 C 305.253906 328.101562 306.207031 327.710938 306.902344 327.007812 L 324.320312 309.582031 C 325.773438 308.128906 325.773438 305.765625 324.320312 304.308594 L 316.394531 296.382812 C 318.417969 292.707031 320.019531 288.839844 321.191406 284.820312 L 332.394531 284.820312 C 334.453125 284.820312 336.125 283.148438 336.125 281.085938 L 336.125 256.457031 C 336.125 254.390625 334.453125 252.722656 332.394531 252.722656 Z M 262.351562 151.617188 L 262.351562 198.730469 L 253.769531 198.730469 C 251.710938 198.730469 250.035156 200.402344 250.035156 202.464844 L 250.035156 213.664062 C 246.253906 214.765625 242.609375 216.253906 239.136719 218.105469 L 239.136719 151.617188 Z M 196.042969 256.457031 L 196.042969 265.039062 L 186.117188 265.039062 L 186.117188 174.222656 L 209.335938 174.222656 L 209.335938 226.46875 L 207.851562 227.953125 C 206.394531 229.410156 206.394531 231.773438 207.851562 233.230469 L 215.773438 241.152344 C 213.753906 244.828125 212.148438 248.699219 210.980469 252.71875 L 199.777344 252.71875 C 197.710938 252.722656 196.042969 254.390625 196.042969 256.457031 Z M 328.660156 277.355469 L 318.316406 277.355469 C 316.582031 277.355469 315.082031 278.550781 314.683594 280.234375 C 313.453125 285.46875 311.394531 290.4375 308.550781 295.019531 C 307.636719 296.496094 307.859375 298.398438 309.085938 299.625 L 316.40625 306.945312 L 304.265625 319.085938 L 296.945312 311.765625 C 295.71875 310.542969 293.808594 310.316406 292.339844 311.230469 C 287.761719 314.066406 282.785156 316.132812 277.554688 317.363281 C 275.867188 317.761719 274.675781 319.269531 274.675781 320.996094 L 274.675781 331.347656 L 257.5 331.347656 L 257.5 321.003906 C 257.5 319.269531 256.304688 317.769531 254.621094 317.371094 C 249.390625 316.140625 244.417969 314.082031 239.835938 311.238281 C 238.359375 310.324219 236.457031 310.546875 235.230469 311.773438 L 227.910156 319.09375 L 215.769531 306.953125 L 223.082031 299.625 C 224.308594 298.398438 224.53125 296.488281 223.617188 295.019531 C 220.78125 290.441406 218.714844 285.46875 217.484375 280.234375 C 217.085938 278.550781 215.582031 277.355469 213.851562 277.355469 L 203.507812 277.355469 L 203.507812 260.1875 L 213.851562 260.1875 C 215.585938 260.1875 217.085938 258.992188 217.484375 257.308594 C 218.714844 252.078125 220.777344 247.105469 223.617188 242.523438 C 224.53125 241.046875 224.308594 239.144531 223.082031 237.917969 L 215.761719 230.597656 L 227.902344 218.457031 L 235.226562 225.777344 C 236.449219 227.003906 238.355469 227.226562 239.828125 226.3125 C 244.40625 223.476562 249.382812 221.410156 254.613281 220.179688 C 256.300781 219.78125 257.496094 218.273438 257.496094 216.546875 L 257.496094 206.195312 L 274.667969 206.195312 L 274.667969 216.539062 C 274.667969 218.273438 275.863281 219.773438 277.546875 220.171875 C 282.773438 221.398438 287.75 223.460938 292.335938 226.304688 C 293.808594 227.21875 295.710938 226.996094 296.9375 225.769531 L 304.257812 218.449219 L 316.402344 230.589844 L 309.078125 237.914062 C 307.855469 239.136719 307.628906 241.046875 308.542969 242.515625 C 311.378906 247.09375 313.445312 252.070312 314.675781 257.300781 C 315.074219 258.988281 316.582031 260.179688 318.308594 260.179688 L 328.65625 260.179688 L 328.65625 277.355469 Z M 266.085938 232.191406 C 245.910156 232.191406 229.503906 248.597656 229.503906 268.773438 C 229.503906 288.945312 245.910156 305.351562 266.085938 305.351562 C 286.257812 305.351562 302.667969 288.945312 302.667969 268.773438 C 302.667969 248.597656 286.25 232.191406 266.085938 232.191406 Z M 266.085938 297.890625 C 250.03125 297.890625 236.96875 284.828125 236.96875 268.773438 C 236.96875 252.71875 250.03125 239.65625 266.085938 239.65625 C 282.140625 239.65625 295.203125 252.71875 295.203125 268.773438 C 295.203125 284.828125 282.140625 297.890625 266.085938 297.890625 Z M 217.746094 80.898438 C 217.753906 78.839844 219.417969 77.171875 221.476562 77.171875 C 221.476562 77.171875 221.484375 77.171875 221.484375 77.171875 L 242.726562 77.214844 C 243.714844 77.214844 244.667969 77.613281 245.363281 78.316406 C 246.0625 79.019531 246.453125 79.972656 246.453125 80.960938 L 246.410156 102.203125 C 246.402344 104.261719 244.734375 105.929688 242.675781 105.929688 C 242.675781 105.929688 242.671875 105.929688 242.671875 105.929688 C 240.613281 105.921875 238.945312 104.25 238.945312 102.191406 L 238.96875 90.0625 C 188.058594 140.421875 134.949219 164.707031 89.363281 181.816406 C 88.9375 181.980469 88.488281 182.054688 88.050781 182.054688 C 86.542969 182.054688 85.121094 181.132812 84.558594 179.632812 C 83.828125 177.707031 84.8125 175.554688 86.738281 174.824219 C 131.601562 157.988281 183.859375 134.101562 233.808594 84.664062 L 221.472656 84.636719 C 219.414062 84.636719 217.746094 82.957031 217.746094 80.898438 Z M 160.054688 189.246094 L 129.367188 189.246094 C 127.308594 189.246094 125.636719 190.917969 125.636719 192.976562 L 125.636719 268.773438 C 125.636719 270.832031 127.308594 272.503906 129.367188 272.503906 L 160.054688 272.503906 C 162.113281 272.503906 163.785156 270.832031 163.785156 268.773438 L 163.785156 192.976562 C 163.785156 190.917969 162.113281 189.246094 160.054688 189.246094 Z M 156.320312 265.039062 L 133.101562 265.039062 L 133.101562 196.710938 L 156.320312 196.710938 Z M 107.035156 205.867188 L 76.351562 205.867188 C 74.292969 205.867188 72.621094 207.539062 72.621094 209.597656 L 72.621094 268.773438 C 72.621094 270.832031 74.292969 272.503906 76.351562 272.503906 L 107.035156 272.503906 C 109.097656 272.503906 110.769531 270.832031 110.769531 268.773438 L 110.769531 209.597656 C 110.769531 207.539062 109.097656 205.867188 107.035156 205.867188 Z M 103.304688 265.039062 L 80.085938 265.039062 L 80.085938 213.328125 L 103.304688 213.328125 Z M 117.902344 87.835938 C 124.609375 87.835938 130.066406 82.378906 130.066406 75.679688 C 130.066406 68.980469 124.609375 63.527344 117.902344 63.527344 C 111.199219 63.527344 105.75 68.980469 105.75 75.679688 C 105.75 82.378906 111.199219 87.835938 117.902344 87.835938 Z M 117.902344 70.988281 C 120.492188 70.988281 122.601562 73.09375 122.601562 75.679688 C 122.601562 78.269531 120.496094 80.371094 117.902344 80.371094 C 115.316406 80.371094 113.214844 78.269531 113.214844 75.679688 C 113.214844 73.09375 115.316406 70.988281 117.902344 70.988281 Z M 117.902344 70.988281 " fill-opacity="1" fill-rule="nonzero"/></g></svg>