<svg xmlns="http://www.w3.org/2000/svg" xmlns:xlink="http://www.w3.org/1999/xlink" width="500" zoomAndPan="magnify" viewBox="0 0 375 374.999991" height="500" preserveAspectRatio="xMidYMid meet" version="1.0"><defs><clipPath id="54c8710c41"><path d="M 38 51 L 337.5 51 L 337.5 325.5 L 38 325.5 Z M 38 51 " clip-rule="nonzero"/></clipPath></defs><g clip-path="url(#54c8710c41)"><path fill="#00406d" d="M 144.046875 147.253906 C 132.710938 147.253906 123.484375 156.476562 123.484375 167.8125 C 123.484375 173.292969 125.644531 178.273438 129.148438 181.964844 C 117.890625 187.070312 109.6875 197.816406 108.292969 210.851562 C 108.148438 212.207031 108.585938 213.5625 109.496094 214.578125 C 110.410156 215.59375 111.710938 216.171875 113.078125 216.171875 L 175.019531 216.171875 C 176.382812 216.171875 177.683594 215.59375 178.597656 214.578125 C 179.507812 213.5625 179.945312 212.207031 179.800781 210.851562 C 179.523438 208.25 178.964844 205.746094 178.175781 203.351562 L 197.90625 203.351562 C 197.113281 205.746094 196.558594 208.25 196.277344 210.851562 C 196.132812 212.207031 196.570312 213.5625 197.484375 214.578125 C 198.398438 215.59375 199.699219 216.171875 201.0625 216.171875 L 263.003906 216.171875 C 264.371094 216.171875 265.671875 215.59375 266.582031 214.578125 C 267.496094 213.5625 267.933594 212.207031 267.789062 210.851562 C 266.394531 197.816406 258.191406 187.070312 246.929688 181.964844 C 250.4375 178.273438 252.59375 173.292969 252.59375 167.8125 C 252.59375 156.476562 243.371094 147.253906 232.03125 147.253906 C 220.695312 147.253906 211.472656 156.476562 211.472656 167.8125 C 211.472656 170.824219 212.125 173.683594 213.292969 176.261719 C 210.285156 173.28125 206.78125 170.875 202.945312 169.136719 C 206.445312 165.445312 208.601562 160.46875 208.601562 154.992188 C 208.601562 143.65625 199.375 134.433594 188.039062 134.433594 C 176.699219 134.433594 167.476562 143.65625 167.476562 154.992188 C 167.476562 160.46875 169.632812 165.445312 173.132812 169.136719 C 169.296875 170.875 165.792969 173.28125 162.785156 176.261719 C 163.949219 173.683594 164.605469 170.824219 164.605469 167.816406 C 164.609375 156.476562 155.382812 147.253906 144.046875 147.253906 Z M 133.109375 167.8125 C 133.109375 161.78125 138.015625 156.875 144.046875 156.875 C 150.078125 156.875 154.984375 161.78125 154.984375 167.8125 C 154.984375 173.847656 150.078125 178.753906 144.046875 178.753906 C 138.015625 178.753906 133.109375 173.84375 133.109375 167.8125 Z M 118.988281 206.550781 C 122.433594 195.890625 132.410156 188.375 144.046875 188.375 C 155.683594 188.375 165.660156 195.890625 169.105469 206.550781 Z M 257.089844 206.550781 L 206.976562 206.550781 C 210.421875 195.890625 220.394531 188.375 232.035156 188.375 C 243.671875 188.375 253.648438 195.890625 257.089844 206.550781 Z M 232.035156 156.875 C 238.066406 156.875 242.972656 161.78125 242.972656 167.8125 C 242.972656 173.847656 238.066406 178.753906 232.035156 178.753906 C 226.003906 178.753906 221.09375 173.847656 221.09375 167.8125 C 221.09375 161.78125 226.003906 156.875 232.035156 156.875 Z M 177.101562 154.992188 C 177.101562 148.960938 182.007812 144.054688 188.039062 144.054688 C 194.074219 144.054688 198.980469 148.960938 198.980469 154.992188 C 198.980469 161.023438 194.074219 165.929688 188.039062 165.929688 C 182.007812 165.929688 177.101562 161.023438 177.101562 154.992188 Z M 188.039062 175.554688 C 196.714844 175.554688 204.621094 179.722656 209.515625 186.644531 C 206.96875 188.6875 204.707031 191.066406 202.796875 193.730469 L 173.285156 193.730469 C 171.375 191.066406 169.113281 188.683594 166.566406 186.644531 C 171.460938 179.722656 179.367188 175.554688 188.039062 175.554688 Z M 335.949219 103.980469 L 308.742188 55.910156 C 306.117188 51.269531 300.207031 49.632812 295.566406 52.257812 L 286.3125 57.496094 C 281.675781 60.121094 280.035156 66.03125 282.664062 70.671875 L 284.546875 74 L 281.25 75.90625 L 239.757812 64.789062 C 232.207031 62.761719 224.757812 63.820312 218.21875 67.84375 L 158.367188 104.699219 C 151.96875 108.636719 149.976562 118.140625 154.105469 125.035156 C 156.054688 128.292969 163.992188 138.003906 184.1875 126.242188 L 217.167969 107.03125 C 217.421875 106.886719 217.671875 106.746094 217.925781 106.617188 C 216.121094 113.808594 220.394531 121.253906 227.734375 123.632812 C 227.941406 123.699219 228.152344 123.753906 228.363281 123.792969 C 235.671875 125.109375 242.945312 127.453125 249.335938 129.703125 C 277.042969 149.738281 285.023438 187.050781 267.855469 216.78125 C 261.84375 227.195312 253.117188 235.738281 242.730469 241.554688 C 243.613281 239.308594 242.691406 236.710938 240.507812 235.550781 C 238.160156 234.308594 235.246094 235.199219 234.003906 237.546875 L 227.835938 249.171875 C 227.144531 250.476562 227.089844 252.03125 227.691406 253.382812 C 228.292969 254.734375 229.484375 255.734375 230.917969 256.09375 L 243.679688 259.292969 C 244.074219 259.390625 244.46875 259.4375 244.855469 259.4375 C 247.007812 259.4375 248.96875 257.980469 249.519531 255.796875 C 250.089844 253.515625 248.925781 251.207031 246.863281 250.257812 C 259.003906 243.597656 269.203125 233.699219 276.191406 221.59375 C 285.703125 205.117188 288.695312 185.804688 284.621094 167.207031 C 282.011719 155.304688 276.648438 144.351562 269.066406 135.136719 C 275.210938 134.992188 280.769531 132.363281 285.601562 129.5625 L 308.492188 116.308594 L 309.867188 118.742188 C 311.644531 121.878906 314.925781 123.644531 318.300781 123.644531 C 319.910156 123.644531 321.542969 123.242188 323.042969 122.390625 L 332.296875 117.15625 C 334.539062 115.886719 336.15625 113.8125 336.847656 111.324219 C 337.535156 108.828125 337.214844 106.222656 335.949219 103.980469 Z M 280.78125 121.234375 C 273.773438 125.289062 269.089844 126.351562 264.613281 124.902344 C 262.640625 124.261719 260.34375 123.429688 257.683594 122.46875 C 249.988281 119.6875 240.433594 116.230469 230.445312 114.386719 C 228.023438 113.476562 226.667969 111.15625 227.277344 108.882812 C 227.542969 107.882812 228.261719 105.242188 232.792969 105.738281 C 237.546875 106.722656 242.101562 108.019531 246.917969 109.394531 C 249.242188 110.058594 251.640625 110.742188 254.117188 111.40625 C 254.535156 111.519531 254.953125 111.574219 255.367188 111.574219 C 257.492188 111.574219 259.433594 110.15625 260.011719 108.003906 C 260.699219 105.4375 259.175781 102.800781 256.609375 102.113281 C 254.210938 101.46875 251.847656 100.792969 249.5625 100.140625 C 244.488281 98.691406 239.699219 97.324219 234.507812 96.265625 C 234.480469 96.257812 234.351562 96.234375 234.316406 96.230469 L 230.210938 95.5625 C 223.628906 94.511719 217.78125 95.542969 212.328125 98.714844 L 179.347656 117.925781 C 170.988281 122.792969 164.476562 123.625 162.363281 120.089844 C 160.886719 117.625 161.703125 113.945312 163.410156 112.894531 L 223.265625 76.039062 C 227.550781 73.398438 232.261719 72.738281 237.269531 74.082031 L 280.683594 85.714844 C 281.914062 86.046875 283.230469 85.875 284.332031 85.234375 L 289.285156 82.375 L 303.75 107.933594 Z M 327.554688 108.78125 L 318.246094 114.003906 C 318.246094 114.003906 318.242188 114.003906 318.242188 114 L 295.25 73.378906 C 295.25 73.375 295.25 73.375 295.25 73.375 L 291.035156 65.925781 L 291.054688 65.867188 L 300.3125 60.628906 L 300.367188 60.648438 L 327.578125 108.722656 Z M 316.546875 106.375 C 316.28125 104.566406 317.53125 102.890625 319.335938 102.625 C 321.140625 102.363281 322.820312 103.613281 323.085938 105.417969 C 323.347656 107.222656 322.097656 108.902344 320.292969 109.164062 C 318.488281 109.429688 316.808594 108.179688 316.546875 106.375 Z M 191.890625 250.140625 L 158.910156 269.351562 C 158.660156 269.496094 158.410156 269.632812 158.15625 269.765625 C 159.957031 262.570312 155.683594 255.128906 148.347656 252.75 C 148.140625 252.683594 147.929688 252.628906 147.714844 252.589844 C 140.410156 251.273438 133.136719 248.929688 126.742188 246.679688 C 99.039062 226.640625 91.058594 189.328125 108.222656 159.601562 C 114.234375 149.1875 122.964844 140.644531 133.347656 134.828125 C 132.46875 137.074219 133.390625 139.671875 135.574219 140.832031 C 136.292969 141.210938 137.0625 141.394531 137.824219 141.394531 C 139.546875 141.394531 141.214844 140.464844 142.078125 138.835938 L 148.246094 127.210938 C 148.9375 125.902344 148.992188 124.351562 148.390625 123 C 147.789062 121.648438 146.597656 120.648438 145.164062 120.289062 L 132.402344 117.089844 C 129.820312 116.4375 127.210938 118.007812 126.5625 120.585938 C 125.992188 122.867188 127.15625 125.175781 129.21875 126.121094 C 117.078125 132.785156 106.878906 142.679688 99.890625 154.789062 C 90.378906 171.265625 87.382812 190.578125 91.460938 209.175781 C 94.070312 221.074219 99.429688 232.023438 107.011719 241.238281 C 100.863281 241.382812 95.3125 244.019531 90.480469 246.820312 L 67.589844 260.070312 L 66.214844 257.640625 C 64.945312 255.398438 62.871094 253.78125 60.378906 253.089844 C 57.890625 252.402344 55.28125 252.71875 53.039062 253.988281 L 43.785156 259.226562 C 39.144531 261.851562 37.507812 267.761719 40.132812 272.402344 L 67.339844 320.472656 C 68.609375 322.714844 70.679688 324.328125 73.171875 325.019531 C 74.03125 325.257812 74.90625 325.378906 75.777344 325.375 C 77.421875 325.375 79.046875 324.953125 80.511719 324.121094 L 89.765625 318.886719 C 92.011719 317.617188 93.625 315.542969 94.316406 313.054688 C 95.007812 310.5625 94.6875 307.953125 93.417969 305.710938 L 91.535156 302.378906 L 94.832031 300.476562 L 136.320312 311.59375 C 138.816406 312.261719 141.304688 312.59375 143.75 312.59375 C 148.699219 312.59375 153.484375 311.230469 157.863281 308.535156 L 217.714844 271.683594 C 224.113281 267.742188 226.105469 258.238281 221.976562 251.347656 C 220.023438 248.089844 212.089844 238.375 191.890625 250.140625 Z M 85.027344 310.511719 L 75.769531 315.75 L 75.710938 315.730469 L 48.503906 267.65625 L 48.523438 267.601562 L 57.835938 262.375 C 57.835938 262.375 57.835938 262.375 57.839844 262.378906 L 85.046875 310.453125 Z M 212.667969 263.488281 L 152.816406 300.34375 C 148.53125 302.980469 143.816406 303.640625 138.8125 302.296875 L 95.398438 290.664062 C 94.164062 290.335938 92.851562 290.507812 91.746094 291.148438 L 86.792969 294.007812 L 72.328125 268.445312 L 95.300781 255.148438 C 102.308594 251.089844 106.988281 250.027344 111.464844 251.480469 C 113.441406 252.121094 115.738281 252.949219 118.398438 253.914062 C 126.09375 256.695312 135.648438 260.148438 145.636719 261.992188 C 148.058594 262.902344 149.414062 265.222656 148.804688 267.496094 C 148.535156 268.5 147.828125 271.136719 143.289062 270.640625 C 138.535156 269.660156 133.980469 268.363281 129.167969 266.988281 C 126.84375 266.324219 124.4375 265.636719 121.960938 264.972656 C 119.394531 264.285156 116.757812 265.808594 116.066406 268.375 C 115.378906 270.941406 116.90625 273.578125 119.472656 274.269531 C 121.871094 274.910156 124.238281 275.585938 126.523438 276.238281 C 131.59375 277.6875 136.382812 279.054688 141.570312 280.117188 C 141.605469 280.121094 141.730469 280.144531 141.765625 280.152344 L 145.871094 280.816406 C 152.453125 281.871094 158.300781 280.839844 163.753906 277.664062 L 196.734375 258.453125 C 205.09375 253.585938 211.601562 252.753906 213.71875 256.289062 C 215.195312 258.757812 214.378906 262.4375 212.667969 263.488281 Z M 59.535156 270.007812 C 59.796875 271.8125 58.546875 273.492188 56.742188 273.753906 C 54.9375 274.019531 53.261719 272.769531 52.996094 270.964844 C 52.730469 269.160156 53.980469 267.480469 55.789062 267.21875 C 57.59375 266.953125 59.269531 268.203125 59.535156 270.007812 Z M 59.535156 270.007812 " fill-opacity="1" fill-rule="evenodd"/></g></svg>