<svg xmlns="http://www.w3.org/2000/svg" xmlns:xlink="http://www.w3.org/1999/xlink" width="500" zoomAndPan="magnify" viewBox="0 0 375 374.999991" height="500" preserveAspectRatio="xMidYMid meet" version="1.0"><defs><clipPath id="b54e324cc0"><path d="M 36.175781 38.8125 L 337.675781 38.8125 L 337.675781 337.3125 L 36.175781 337.3125 Z M 36.175781 38.8125 " clip-rule="nonzero"/></clipPath></defs><g clip-path="url(#b54e324cc0)"><path fill="#3b5998" d="M 269.417969 174.433594 L 269.417969 192.511719 C 269.417969 197.648438 265.234375 201.828125 260.101562 201.828125 L 247.0625 201.828125 C 246.402344 201.828125 245.910156 202.1875 245.707031 202.808594 C 244.746094 205.742188 243.542969 208.644531 242.140625 211.414062 C 241.84375 212 241.9375 212.597656 242.402344 213.0625 L 246.878906 217.539062 L 282.605469 217.539062 C 312.882812 217.539062 337.515625 192.90625 337.515625 162.636719 C 337.515625 134.15625 315.265625 110.109375 286.882812 107.902344 C 284.855469 107.742188 283.285156 106.078125 283.246094 104.050781 C 282.59375 73.738281 257.382812 49.078125 227.054688 49.078125 C 212.082031 49.078125 197.988281 54.894531 187.382812 65.464844 C 186.503906 66.339844 185.261719 66.757812 184.03125 66.570312 C 182.792969 66.394531 181.71875 65.644531 181.128906 64.550781 C 172.523438 48.671875 155.96875 38.808594 137.925781 38.808594 C 110.851562 38.808594 88.820312 60.835938 88.820312 87.914062 C 88.820312 92.964844 89.589844 97.945312 91.097656 102.722656 C 91.457031 103.878906 91.273438 105.136719 90.589844 106.144531 C 89.90625 107.144531 88.792969 107.777344 87.582031 107.847656 C 58.769531 109.691406 36.195312 133.753906 36.195312 162.636719 C 36.195312 192.90625 60.828125 217.539062 91.097656 217.539062 L 126.828125 217.539062 L 131.300781 213.0625 C 131.765625 212.597656 131.859375 212 131.5625 211.414062 C 130.160156 208.644531 128.957031 205.75 127.996094 202.808594 C 127.785156 202.1875 127.292969 201.828125 126.640625 201.828125 L 113.601562 201.828125 C 108.464844 201.828125 104.285156 197.648438 104.285156 192.511719 L 104.285156 174.433594 C 104.285156 169.292969 108.464844 165.117188 113.601562 165.117188 L 126.640625 165.117188 C 127.300781 165.117188 127.785156 164.761719 127.996094 164.136719 C 128.957031 161.195312 130.160156 158.300781 131.5625 155.53125 C 131.859375 154.945312 131.765625 154.347656 131.300781 153.878906 L 122.078125 144.65625 C 120.320312 142.898438 119.351562 140.558594 119.351562 138.070312 C 119.351562 135.578125 120.320312 133.234375 122.078125 131.480469 L 134.859375 118.695312 C 138.492188 115.066406 144.40625 115.066406 148.035156 118.695312 L 157.261719 127.921875 C 157.726562 128.386719 158.324219 128.480469 158.910156 128.183594 C 161.679688 126.78125 164.574219 125.578125 167.515625 124.617188 C 168.136719 124.414062 168.496094 123.921875 168.496094 123.261719 L 168.496094 110.222656 C 168.496094 105.085938 172.675781 100.90625 177.8125 100.90625 L 195.890625 100.90625 C 201.03125 100.90625 205.207031 105.085938 205.207031 110.222656 L 205.207031 123.261719 C 205.207031 123.921875 205.570312 124.414062 206.1875 124.617188 C 209.128906 125.578125 212.023438 126.78125 214.792969 128.183594 C 215.378906 128.480469 215.976562 128.386719 216.445312 127.921875 L 225.667969 118.695312 C 229.296875 115.066406 235.214844 115.066406 238.84375 118.695312 L 251.628906 131.480469 C 255.257812 135.109375 255.257812 141.023438 251.628906 144.65625 L 242.402344 153.878906 C 241.9375 154.347656 241.84375 154.945312 242.140625 155.53125 C 243.542969 158.300781 244.746094 161.195312 245.707031 164.136719 C 245.917969 164.753906 246.410156 165.117188 247.0625 165.117188 L 260.101562 165.117188 C 265.238281 165.117188 269.417969 169.292969 269.417969 174.433594 Z M 219.445312 282.804688 L 231.171875 291.949219 C 230.363281 294.074219 229.921875 296.378906 229.921875 298.785156 C 229.921875 309.4375 238.589844 318.109375 249.246094 318.109375 C 259.898438 318.109375 268.566406 309.4375 268.566406 298.785156 C 268.566406 288.128906 259.898438 279.464844 249.246094 279.464844 C 243.84375 279.464844 238.964844 281.6875 235.449219 285.273438 L 225.820312 277.765625 L 225.820312 250.15625 C 225.429688 249.859375 225.0625 249.542969 224.714844 249.195312 L 217.925781 242.40625 L 217.925781 279.695312 C 217.925781 280.90625 218.484375 282.0625 219.445312 282.804688 Z M 182.90625 267.378906 L 182.90625 299.234375 C 174.136719 301.054688 167.53125 308.84375 167.53125 318.148438 C 167.53125 328.800781 176.199219 337.46875 186.851562 337.46875 C 197.503906 337.46875 206.175781 328.800781 206.175781 318.148438 C 206.175781 308.84375 199.570312 301.054688 190.800781 299.234375 L 190.800781 267.378906 Z M 155.78125 279.6875 L 155.78125 242.40625 L 148.992188 249.195312 C 148.640625 249.542969 148.273438 249.867188 147.886719 250.164062 L 147.886719 277.765625 L 138.253906 285.273438 C 134.742188 281.6875 129.859375 279.464844 124.457031 279.464844 C 113.808594 279.464844 105.136719 288.128906 105.136719 298.785156 C 105.136719 309.4375 113.808594 318.109375 124.457031 318.109375 C 135.117188 318.109375 143.78125 309.4375 143.78125 298.785156 C 143.78125 296.378906 143.339844 294.074219 142.53125 291.949219 L 154.261719 282.804688 C 155.214844 282.0625 155.78125 280.90625 155.78125 279.6875 Z M 186.851562 211.714844 C 171.273438 211.714844 158.601562 199.042969 158.601562 183.464844 C 158.601562 167.886719 171.273438 155.214844 186.851562 155.214844 C 202.429688 155.214844 215.101562 167.886719 215.101562 183.464844 C 215.101562 199.050781 202.429688 211.714844 186.851562 211.714844 Z M 261.523438 192.511719 C 261.523438 193.28125 260.871094 193.933594 260.101562 193.933594 L 247.0625 193.933594 C 243.027344 193.933594 239.46875 196.511719 238.207031 200.347656 C 237.371094 202.90625 236.320312 205.425781 235.09375 207.847656 C 233.273438 211.445312 233.964844 215.789062 236.820312 218.644531 L 246.042969 227.867188 C 246.589844 228.414062 246.589844 229.332031 246.042969 229.878906 L 233.257812 242.664062 C 232.902344 243.023438 232.476562 243.078125 232.253906 243.078125 C 232.035156 243.078125 231.609375 243.023438 231.246094 242.664062 L 222.023438 233.4375 C 219.167969 230.582031 214.832031 229.894531 211.226562 231.714844 C 208.8125 232.9375 206.285156 233.984375 203.71875 234.828125 C 199.890625 236.089844 197.3125 239.648438 197.3125 243.683594 L 197.3125 256.722656 C 197.3125 257.492188 196.660156 258.140625 195.890625 258.140625 L 177.8125 258.140625 C 177.042969 258.140625 176.390625 257.492188 176.390625 256.722656 L 176.390625 243.683594 C 176.390625 239.648438 173.8125 236.089844 169.984375 234.828125 C 167.410156 233.984375 164.890625 232.9375 162.476562 231.714844 C 161.136719 231.039062 159.695312 230.707031 158.261719 230.707031 C 155.851562 230.707031 153.46875 231.648438 151.679688 233.4375 L 142.457031 242.664062 C 142.097656 243.023438 141.667969 243.078125 141.449219 243.078125 C 141.226562 243.078125 140.800781 243.023438 140.445312 242.664062 L 127.660156 229.878906 C 127.300781 229.523438 127.246094 229.097656 127.246094 228.871094 C 127.246094 228.65625 127.300781 228.226562 127.660156 227.867188 L 136.878906 218.644531 C 139.742188 215.789062 140.429688 211.453125 138.609375 207.847656 C 137.386719 205.433594 136.339844 202.90625 135.496094 200.347656 C 134.234375 196.511719 130.675781 193.933594 126.640625 193.933594 L 113.601562 193.933594 C 112.832031 193.933594 112.183594 193.28125 112.183594 192.511719 L 112.183594 174.433594 C 112.183594 173.664062 112.832031 173.011719 113.601562 173.011719 L 126.640625 173.011719 C 130.675781 173.011719 134.234375 170.433594 135.496094 166.597656 C 136.339844 164.039062 137.386719 161.511719 138.609375 159.097656 C 140.429688 155.492188 139.742188 151.15625 136.878906 148.300781 L 127.660156 139.078125 C 127.300781 138.714844 127.246094 138.289062 127.246094 138.070312 C 127.246094 137.847656 127.300781 137.421875 127.660156 137.066406 L 140.445312 124.28125 C 140.992188 123.734375 141.910156 123.734375 142.457031 124.28125 L 151.679688 133.503906 C 154.535156 136.359375 158.878906 137.050781 162.476562 135.230469 C 164.890625 134.003906 167.417969 132.960938 169.984375 132.109375 C 173.8125 130.855469 176.390625 127.296875 176.390625 123.261719 L 176.390625 110.222656 C 176.390625 109.453125 177.042969 108.800781 177.8125 108.800781 L 195.890625 108.800781 C 196.660156 108.800781 197.3125 109.453125 197.3125 110.222656 L 197.3125 123.261719 C 197.3125 127.296875 199.890625 130.855469 203.726562 132.117188 C 206.285156 132.960938 208.8125 134.003906 211.226562 135.230469 C 214.824219 137.050781 219.167969 136.359375 222.023438 133.503906 L 231.246094 124.28125 C 231.792969 123.734375 232.714844 123.734375 233.257812 124.28125 L 246.042969 137.066406 C 246.589844 137.609375 246.589844 138.53125 246.042969 139.078125 L 236.820312 148.300781 C 233.964844 151.15625 233.273438 155.5 235.09375 159.097656 C 236.320312 161.519531 237.371094 164.039062 238.207031 166.605469 C 239.46875 170.433594 243.027344 173.011719 247.0625 173.011719 L 260.101562 173.011719 C 260.871094 173.011719 261.523438 173.664062 261.523438 174.433594 Z M 222.996094 183.472656 C 222.996094 203.398438 206.78125 219.617188 186.851562 219.617188 C 166.925781 219.617188 150.707031 203.398438 150.707031 183.472656 C 150.707031 163.542969 166.925781 147.328125 186.851562 147.328125 C 206.78125 147.328125 222.996094 163.542969 222.996094 183.472656 Z M 222.996094 183.472656 " fill-opacity="1" fill-rule="evenodd"/></g></svg>