<svg xmlns="http://www.w3.org/2000/svg" xmlns:xlink="http://www.w3.org/1999/xlink" width="500" zoomAndPan="magnify" viewBox="0 0 375 374.999991" height="500" preserveAspectRatio="xMidYMid meet" version="1.0"><defs><clipPath id="5a14d5eab2"><path d="M 37.5 37.5 L 337.5 37.5 L 337.5 337.5 L 37.5 337.5 Z M 37.5 37.5 " clip-rule="nonzero"/></clipPath></defs><rect x="-37.5" width="450" fill="#ffffff" y="-37.499999" height="449.999989" fill-opacity="1"/><rect x="-37.5" width="450" fill="#ffffff" y="-37.499999" height="449.999989" fill-opacity="1"/><g clip-path="url(#5a14d5eab2)"><path fill="#00406d" d="M 336.269531 126.34375 C 335.511719 125.925781 334.585938 125.953125 333.851562 126.410156 L 289.238281 154.410156 L 289.238281 40.308594 C 289.238281 38.996094 288.175781 37.929688 286.863281 37.929688 L 87.789062 37.5 C 87.789062 37.5 87.789062 37.5 87.785156 37.5 C 87.15625 37.5 86.550781 37.75 86.105469 38.195312 C 85.65625 38.640625 85.40625 39.246094 85.40625 39.882812 L 85.40625 154.1875 L 41.144531 126.410156 C 40.410156 125.953125 39.488281 125.929688 38.726562 126.34375 C 37.96875 126.765625 37.5 127.5625 37.5 128.429688 L 37.5 231.167969 C 37.5 232.066406 38.007812 232.890625 38.8125 233.296875 L 87.40625 257.707031 L 87.382812 308.476562 C 87.382812 309.105469 87.632812 309.714844 88.078125 310.160156 C 88.527344 310.605469 89.128906 310.855469 89.761719 310.855469 L 133.078125 310.855469 C 133.789062 312.769531 134.996094 314.492188 136.585938 315.824219 C 138.714844 317.613281 141.429688 318.59375 144.238281 318.59375 C 145.363281 318.59375 146.464844 318.390625 147.53125 318.082031 C 147.742188 321.25 149.203125 324.28125 151.765625 326.40625 C 153.917969 328.1875 156.625 329.167969 159.382812 329.167969 C 161.214844 329.167969 162.988281 328.742188 164.589844 327.960938 C 165.117188 330.5625 166.484375 332.96875 168.625 334.738281 C 170.777344 336.519531 173.480469 337.496094 176.234375 337.496094 C 179.765625 337.496094 183.09375 335.949219 185.367188 333.246094 L 190.40625 327.246094 C 192.320312 328.78125 195.324219 330.515625 199.234375 330.515625 C 199.472656 330.515625 199.714844 330.507812 199.960938 330.492188 C 204.300781 330.253906 207.3125 328.007812 208.789062 326.625 L 210.484375 324.902344 C 212.417969 322.933594 213.617188 320.421875 213.976562 317.785156 C 215.457031 318.339844 217.019531 318.617188 218.585938 318.617188 C 221.96875 318.617188 225.34375 317.324219 227.839844 314.765625 L 229.546875 313.039062 C 230.199219 312.367188 230.734375 311.625 231.214844 310.855469 L 285.261719 310.855469 C 285.894531 310.855469 286.5 310.605469 286.945312 310.15625 C 287.390625 309.710938 287.644531 309.105469 287.644531 308.472656 L 287.597656 257.703125 L 336.191406 233.292969 C 336.996094 232.886719 337.503906 232.0625 337.503906 231.164062 L 337.503906 128.429688 C 337.5 127.5625 337.03125 126.765625 336.269531 126.34375 Z M 90.167969 42.265625 L 284.476562 42.6875 L 284.476562 157.398438 L 238.019531 186.554688 C 237.472656 186.898438 237.089844 187.449219 236.957031 188.082031 C 236.828125 188.714844 236.953125 189.375 237.316406 189.910156 L 240.003906 193.867188 L 234.722656 197.75 C 232.667969 195.3125 229.734375 193.617188 226.324219 192.992188 L 207.746094 189.679688 C 203.960938 189.015625 200.121094 188.988281 196.332031 189.605469 L 141.410156 198.585938 L 134.996094 193.871094 L 137.683594 189.910156 C 138.046875 189.375 138.175781 188.71875 138.042969 188.085938 C 137.910156 187.453125 137.527344 186.902344 136.980469 186.558594 L 90.167969 157.175781 Z M 244.222656 283.796875 C 243.617188 281.0625 242.105469 278.550781 239.800781 276.691406 C 233.257812 271.4375 226 265.484375 218.785156 259.570312 C 213.4375 255.179688 208.128906 250.828125 203.125 246.769531 C 203.949219 246.804688 204.769531 246.839844 205.589844 246.839844 C 208.792969 246.839844 211.992188 246.582031 215.167969 246.066406 C 222.699219 244.839844 229.851562 242.203125 236.421875 238.230469 C 237.550781 237.550781 237.910156 236.085938 237.230469 234.960938 C 236.550781 233.835938 235.089844 233.472656 233.960938 234.15625 C 227.910156 237.808594 221.332031 240.238281 214.40625 241.363281 C 207.515625 242.484375 200.511719 242.277344 193.605469 240.769531 C 193.578125 240.761719 193.546875 240.757812 193.519531 240.75 C 192.523438 240.421875 191.527344 240.171875 190.605469 240.035156 C 186.390625 239.289062 182.109375 239.871094 178.230469 241.699219 C 176.503906 242.507812 174.945312 243.191406 173.570312 243.796875 L 173.042969 244.023438 C 161.421875 248.996094 157.753906 248.898438 156.175781 248.832031 C 150.003906 248.691406 146.4375 247.519531 145.570312 245.332031 C 145.003906 243.910156 145.527344 241.808594 146.972656 239.699219 C 147.960938 238.25 149.480469 236.941406 151.464844 235.820312 L 187.859375 215.707031 L 199.429688 214.65625 C 214.105469 219.582031 225.722656 217.5625 231.738281 213.992188 C 234.09375 212.59375 235.777344 210.867188 236.734375 208.9375 L 269.550781 256.234375 C 266.347656 260.851562 262.796875 265.371094 258.941406 269.671875 C 254.402344 274.722656 249.453125 279.449219 244.222656 283.796875 Z M 101.988281 252.867188 L 97.296875 249.414062 L 132.320312 197.8125 L 137.53125 201.644531 Z M 92.167969 256.972656 L 94.621094 253.355469 L 100.894531 257.972656 C 104.824219 263.046875 109.082031 268.0625 113.558594 272.875 C 116.917969 276.527344 120.472656 280.085938 124.101562 283.519531 L 120.558594 287.753906 C 118.519531 290.1875 117.546875 293.261719 117.828125 296.417969 C 118.109375 299.578125 119.605469 302.4375 122.054688 304.480469 C 122.863281 305.148438 123.773438 305.664062 124.71875 306.097656 L 92.144531 306.097656 Z M 142.316406 290.96875 C 142.035156 291.582031 141.675781 292.144531 141.265625 292.636719 L 135.199219 299.894531 C 134.800781 300.351562 134.464844 300.671875 134.148438 300.90625 C 134.0625 300.972656 133.980469 301.039062 133.902344 301.113281 C 131.335938 302.941406 127.550781 302.84375 125.101562 300.816406 C 123.636719 299.59375 122.742188 297.886719 122.570312 295.996094 C 122.40625 294.109375 122.984375 292.273438 124.207031 290.816406 L 129.078125 284.996094 C 129.085938 284.984375 129.097656 284.984375 129.105469 284.976562 C 129.121094 284.960938 129.125 284.941406 129.136719 284.925781 L 130.300781 283.535156 C 131.667969 281.90625 133.667969 280.976562 135.789062 280.976562 C 137.453125 280.976562 139.089844 281.570312 140.382812 282.636719 C 142.820312 284.675781 143.613281 288.113281 142.316406 290.96875 Z M 139.648438 312.171875 C 138.375 311.109375 137.515625 309.644531 137.21875 308.03125 C 136.972656 306.746094 137.105469 305.449219 137.566406 304.246094 C 137.972656 303.890625 138.382812 303.496094 138.824219 302.980469 L 144.925781 295.6875 C 145.441406 295.0625 145.878906 294.367188 146.273438 293.636719 C 148.792969 291.898438 152.511719 292.007812 154.929688 294 C 157.28125 295.953125 158.113281 299.171875 156.980469 302.046875 C 156.722656 302.742188 156.335938 303.390625 155.816406 304.019531 L 149.757812 311.238281 C 149.492188 311.539062 149.230469 311.824219 148.9375 312.082031 C 146.359375 314.3125 142.222656 314.339844 139.648438 312.171875 Z M 154.808594 322.742188 C 152.5625 320.882812 151.722656 317.863281 152.605469 315.125 C 152.859375 314.867188 153.113281 314.636719 153.371094 314.339844 L 159.472656 307.070312 C 160.152344 306.25 160.667969 305.367188 161.082031 304.472656 C 163.601562 302.496094 167.546875 302.480469 170.078125 304.574219 C 172.253906 306.375 173.140625 309.296875 172.347656 312.035156 C 172.339844 312.054688 172.324219 312.066406 172.320312 312.089844 C 172.039062 312.992188 171.578125 313.851562 170.984375 314.5625 L 165.296875 321.324219 C 165.277344 321.34375 165.273438 321.375 165.257812 321.394531 L 164.867188 321.851562 C 162.4375 324.738281 157.769531 325.1875 154.808594 322.742188 Z M 181.722656 330.183594 C 179.296875 333.070312 174.632812 333.527344 171.660156 331.070312 C 169.558594 329.332031 168.671875 326.574219 169.3125 323.949219 L 174.636719 317.617188 C 175.496094 316.585938 176.144531 315.367188 176.617188 314.089844 L 176.867188 313.796875 C 179.292969 310.910156 183.992188 310.480469 186.9375 312.90625 C 189.753906 315.234375 190.3125 319.40625 188.132812 322.527344 C 188.082031 322.613281 188.007812 322.691406 187.84375 322.894531 Z M 224.441406 311.433594 C 221.398438 314.546875 216.316406 314.691406 212.976562 311.675781 C 212.917969 311.617188 212.855469 311.5625 212.789062 311.511719 L 178.136719 279.535156 C 177.179688 278.648438 175.667969 278.703125 174.773438 279.671875 C 173.882812 280.636719 173.941406 282.144531 174.910156 283.039062 L 209.167969 314.632812 C 209.664062 317.113281 208.90625 319.722656 207.09375 321.570312 L 205.46875 323.214844 C 204.714844 323.921875 202.644531 325.578125 199.703125 325.742188 C 196.734375 325.878906 194.472656 324.476562 193.132812 323.335938 C 195.347656 318.554688 194.144531 312.691406 189.972656 309.242188 C 187.804688 307.449219 185.171875 306.503906 182.355469 306.503906 C 180.519531 306.503906 178.742188 306.925781 177.140625 307.699219 C 176.617188 305.089844 175.25 302.671875 173.113281 300.90625 C 170.101562 298.417969 165.90625 297.742188 162.207031 298.742188 C 162.019531 295.546875 160.558594 292.484375 157.972656 290.335938 C 155.136719 287.992188 151.207031 287.242188 147.65625 288.003906 C 147.621094 284.601562 146.160156 281.265625 143.421875 278.980469 C 141.269531 277.199219 138.558594 276.21875 135.789062 276.21875 C 132.527344 276.21875 129.449219 277.554688 127.199219 279.898438 C 123.710938 276.589844 120.296875 273.167969 117.054688 269.644531 C 112.984375 265.269531 109.136719 260.726562 105.523438 256.132812 L 142.191406 203.289062 L 197.097656 194.308594 C 200.359375 193.777344 203.667969 193.800781 206.917969 194.375 L 225.476562 197.679688 C 228.410156 198.222656 230.8125 199.882812 232.0625 202.242188 C 232.125 202.351562 232.191406 202.460938 232.269531 202.5625 C 232.253906 202.539062 232.207031 202.480469 232.207031 202.480469 C 232.207031 202.480469 232.207031 202.480469 232.210938 202.484375 C 232.804688 203.730469 233.015625 204.789062 232.847656 205.730469 C 232.597656 207.214844 231.339844 208.695312 229.308594 209.902344 C 224.386719 212.824219 213.882812 214.601562 200.492188 209.992188 C 200.175781 209.882812 199.835938 209.84375 199.5 209.871094 L 186.929688 211.015625 C 186.601562 211.046875 186.285156 211.144531 185.996094 211.300781 L 149.144531 231.667969 C 146.496094 233.160156 144.441406 234.960938 143.039062 237.019531 C 140.664062 240.488281 139.976562 244.164062 141.148438 247.09375 C 143.613281 253.316406 152.664062 253.519531 156.050781 253.597656 C 156.246094 253.601562 156.449219 253.605469 156.65625 253.605469 C 159.773438 253.605469 164.53125 252.851562 174.9375 248.398438 L 175.480469 248.160156 C 176.894531 247.542969 178.492188 246.84375 180.261719 246.011719 C 183.226562 244.613281 186.480469 244.171875 189.753906 244.726562 C 190.535156 244.929688 191.410156 245.15625 192.394531 245.382812 C 194.09375 246 195.644531 246.855469 196.988281 247.925781 C 202.851562 252.652344 209.296875 257.9375 215.769531 263.253906 C 223 269.179688 230.269531 275.144531 236.820312 280.40625 C 239.1875 282.3125 240.242188 285.300781 239.558594 288.234375 C 239.199219 289.894531 238.308594 291.371094 236.835938 292.640625 C 235.109375 294.382812 232.21875 295.878906 230.238281 296.261719 C 229.851562 295.789062 229.453125 295.355469 229.046875 294.992188 L 196 264.515625 C 195.035156 263.628906 193.527344 263.6875 192.636719 264.65625 C 191.746094 265.621094 191.804688 267.125 192.773438 268.019531 L 225.851562 298.519531 C 226.296875 298.917969 226.714844 299.421875 227.132812 300.042969 C 228.578125 302.269531 228.785156 305.058594 227.675781 307.496094 C 227.308594 308.304688 226.789062 309.054688 226.148438 309.71875 Z M 232.984375 306.09375 C 233.257812 304.253906 233.121094 302.378906 232.574219 300.59375 C 235.449219 299.71875 238.335938 297.882812 240.070312 296.121094 C 241.949219 294.515625 243.246094 292.453125 243.929688 290.15625 C 250.59375 284.949219 256.839844 279.140625 262.488281 272.851562 C 266.757812 268.082031 270.6875 263.058594 274.179688 257.921875 L 280.378906 253.355469 L 282.832031 256.972656 L 282.875 306.09375 Z M 332.738281 229.699219 L 286.007812 253.171875 L 242.640625 189.277344 L 332.738281 132.734375 Z M 332.738281 229.699219 " fill-opacity="1" fill-rule="nonzero"/></g><path fill="#00406d" d="M 176.144531 76.191406 L 238.59375 76.191406 C 239.910156 76.191406 240.976562 75.125 240.976562 73.808594 C 240.976562 72.496094 239.910156 71.429688 238.59375 71.429688 L 176.144531 71.429688 C 174.828125 71.429688 173.761719 72.496094 173.761719 73.808594 C 173.761719 75.125 174.828125 76.191406 176.144531 76.191406 Z M 176.144531 76.191406 " fill-opacity="1" fill-rule="nonzero"/><path fill="#00406d" d="M 167.617188 95.976562 L 252.785156 95.976562 C 254.101562 95.976562 255.167969 94.910156 255.167969 93.59375 C 255.167969 92.28125 254.101562 91.214844 252.785156 91.214844 L 167.617188 91.214844 C 166.300781 91.214844 165.238281 92.28125 165.238281 93.59375 C 165.238281 94.910156 166.304688 95.976562 167.617188 95.976562 Z M 167.617188 95.976562 " fill-opacity="1" fill-rule="nonzero"/><path fill="#00406d" d="M 125.046875 130.808594 C 123.730469 130.808594 122.667969 131.875 122.667969 133.191406 C 122.667969 134.503906 123.730469 135.570312 125.046875 135.570312 L 249.953125 135.570312 C 251.269531 135.570312 252.332031 134.503906 252.332031 133.191406 C 252.332031 131.875 251.269531 130.808594 249.953125 130.808594 Z M 125.046875 130.808594 " fill-opacity="1" fill-rule="nonzero"/><path fill="#00406d" d="M 252.332031 155.808594 C 252.332031 154.496094 251.269531 153.429688 249.953125 153.429688 L 119.355469 153.429688 C 118.039062 153.429688 116.976562 154.496094 116.976562 155.808594 C 116.976562 157.125 118.039062 158.191406 119.355469 158.191406 L 249.953125 158.191406 C 251.269531 158.191406 252.332031 157.125 252.332031 155.808594 Z M 252.332031 155.808594 " fill-opacity="1" fill-rule="nonzero"/><path fill="#00406d" d="M 227.238281 173.214844 L 159.117188 173.214844 C 157.800781 173.214844 156.738281 174.28125 156.738281 175.59375 C 156.738281 176.910156 157.800781 177.976562 159.117188 177.976562 L 227.238281 177.976562 C 228.554688 177.976562 229.617188 176.910156 229.617188 175.59375 C 229.617188 174.28125 228.554688 173.214844 227.238281 173.214844 Z M 227.238281 173.214844 " fill-opacity="1" fill-rule="nonzero"/><path fill="#00406d" d="M 119.570312 104.191406 L 122.734375 109.480469 C 123.839844 111.289062 125.765625 112.367188 127.890625 112.367188 C 127.898438 112.367188 127.90625 112.367188 127.910156 112.367188 C 130.035156 112.363281 131.949219 111.277344 133.046875 109.457031 L 136.171875 104.222656 C 136.464844 103.746094 137.027344 103.507812 137.570312 103.644531 L 143.519531 105.121094 C 145.59375 105.644531 147.734375 105.050781 149.242188 103.542969 C 150.742188 102.042969 151.328125 99.917969 150.808594 97.84375 L 149.308594 91.921875 C 149.179688 91.410156 149.421875 90.851562 149.898438 90.5625 L 155.148438 87.425781 C 156.984375 86.332031 158.078125 84.410156 158.078125 82.289062 C 158.078125 80.160156 156.980469 78.242188 155.144531 77.144531 L 149.871094 73.992188 C 149.40625 73.71875 149.179688 73.175781 149.308594 72.65625 L 150.808594 66.722656 C 151.328125 64.667969 150.742188 62.542969 149.242188 61.039062 C 147.734375 59.527344 145.601562 58.929688 143.511719 59.453125 L 137.570312 60.925781 C 137.027344 61.050781 136.464844 60.828125 136.179688 60.367188 L 133.039062 55.128906 C 131.949219 53.320312 130.03125 52.234375 127.910156 52.226562 C 127.90625 52.226562 127.898438 52.226562 127.890625 52.226562 C 125.765625 52.226562 123.839844 53.304688 122.722656 55.125 L 119.589844 60.351562 C 119.300781 60.824219 118.722656 61.058594 118.203125 60.929688 L 112.25 59.453125 C 110.191406 58.933594 108.039062 59.523438 106.53125 61.039062 C 105.023438 62.546875 104.4375 64.667969 104.953125 66.726562 L 106.453125 72.640625 C 106.585938 73.175781 106.359375 73.722656 105.871094 74.007812 C 104.136719 75.050781 102.375 76.097656 100.605469 77.148438 C 98.789062 78.246094 97.703125 80.164062 97.703125 82.285156 C 97.703125 84.40625 98.789062 86.324219 100.617188 87.425781 C 102.375 88.46875 104.136719 89.515625 105.867188 90.558594 C 106.339844 90.84375 106.582031 91.40625 106.453125 91.914062 L 104.953125 97.847656 C 104.4375 99.910156 105.027344 102.039062 106.53125 103.539062 C 108.039062 105.046875 110.167969 105.644531 112.242188 105.117188 L 118.191406 103.644531 C 118.726562 103.515625 119.300781 103.753906 119.570312 104.191406 Z M 111.085938 100.5 C 110.464844 100.65625 110.042969 100.324219 109.894531 100.171875 C 109.710938 99.988281 109.421875 99.59375 109.570312 99.011719 L 111.070312 93.078125 C 111.710938 90.515625 110.609375 87.863281 108.324219 86.484375 C 106.582031 85.4375 104.8125 84.386719 103.058594 83.34375 C 102.519531 83.019531 102.464844 82.496094 102.464844 82.289062 C 102.464844 82.078125 102.519531 81.558594 103.046875 81.242188 C 104.8125 80.191406 106.582031 79.140625 108.300781 78.105469 C 110.601562 76.757812 111.714844 74.105469 111.070312 71.492188 L 109.570312 65.5625 C 109.417969 64.96875 109.746094 64.558594 109.894531 64.410156 C 110.046875 64.257812 110.464844 63.929688 111.089844 64.078125 L 117.050781 65.554688 C 119.617188 66.183594 122.265625 65.097656 123.65625 62.828125 L 126.789062 57.605469 C 127.128906 57.054688 127.667969 56.992188 127.886719 56.992188 C 128.035156 57.035156 128.632812 57.046875 128.957031 57.589844 L 132.113281 62.847656 C 133.496094 65.101562 136.148438 66.1875 138.722656 65.550781 L 144.667969 64.078125 C 145.300781 63.921875 145.714844 64.253906 145.867188 64.40625 C 146.015625 64.554688 146.339844 64.960938 146.1875 65.5625 L 144.6875 71.507812 C 144.042969 74.105469 145.160156 76.757812 147.445312 78.101562 L 152.703125 81.242188 C 153.234375 81.554688 153.3125 82.035156 153.3125 82.289062 C 153.3125 82.546875 153.234375 83.027344 152.710938 83.339844 L 147.445312 86.484375 C 147.441406 86.484375 147.4375 86.488281 147.433594 86.492188 C 145.148438 87.867188 144.046875 90.515625 144.6875 93.089844 L 146.1875 99.007812 C 146.335938 99.601562 146.050781 99.996094 145.867188 100.179688 C 145.71875 100.328125 145.292969 100.664062 144.664062 100.503906 L 138.707031 99.027344 C 136.140625 98.386719 133.496094 99.480469 132.089844 101.765625 L 128.957031 107.015625 C 128.632812 107.550781 128.105469 107.609375 127.894531 107.609375 C 127.742188 107.660156 127.132812 107.554688 126.808594 107.019531 L 123.648438 101.734375 C 122.527344 99.90625 120.574219 98.847656 118.507812 98.847656 C 118.023438 98.847656 117.535156 98.90625 117.046875 99.027344 Z M 111.085938 100.5 " fill-opacity="1" fill-rule="nonzero"/></svg>