<svg xmlns="http://www.w3.org/2000/svg" xmlns:xlink="http://www.w3.org/1999/xlink" width="500" zoomAndPan="magnify" viewBox="0 0 375 374.999991" height="500" preserveAspectRatio="xMidYMid meet" version="1.0"><defs><clipPath id="7fb8a3757c"><path d="M 37.5 47.25 L 337.5 47.25 L 337.5 327.75 L 37.5 327.75 Z M 37.5 47.25 " clip-rule="nonzero"/></clipPath></defs><g clip-path="url(#7fb8a3757c)"><path fill="#00406d" d="M 106.5 180.886719 C 85.949219 180.886719 69.289062 197.542969 69.289062 218.09375 C 69.289062 238.644531 85.949219 255.300781 106.5 255.300781 C 127.046875 255.300781 143.707031 238.644531 143.707031 218.09375 C 143.707031 197.542969 127.046875 180.886719 106.5 180.886719 Z M 237.5625 83.617188 C 272.589844 83.617188 300.988281 112.015625 300.988281 147.042969 C 300.988281 170.226562 288.550781 190.503906 269.984375 201.566406 C 265.980469 203.953125 263.703125 207.957031 263.703125 212.617188 L 263.703125 213.605469 L 211.421875 213.605469 L 211.421875 212.617188 C 211.421875 207.957031 209.144531 203.953125 205.140625 201.566406 C 186.574219 190.503906 174.136719 170.226562 174.136719 147.042969 C 174.136719 112.015625 202.53125 83.617188 237.5625 83.617188 Z M 254.589844 246.265625 C 253.171875 251.828125 248.113281 255.964844 242.121094 255.964844 L 233 255.964844 C 227.007812 255.964844 221.949219 251.828125 220.53125 246.265625 Z M 263.703125 223.070312 L 263.703125 228.082031 C 263.703125 232.882812 259.785156 236.800781 254.984375 236.800781 L 220.136719 236.800781 C 215.335938 236.800781 211.417969 232.882812 211.417969 228.082031 L 211.417969 223.070312 Z M 213.882812 116.671875 L 206.445312 109.234375 C 204.597656 107.386719 201.601562 107.386719 199.753906 109.234375 C 197.902344 111.082031 197.902344 114.078125 199.753906 115.925781 L 207.191406 123.363281 C 209.039062 125.210938 212.035156 125.210938 213.882812 123.363281 C 215.730469 121.515625 215.730469 118.519531 213.882812 116.671875 Z M 242.292969 108.824219 L 242.292969 98.304688 C 242.292969 95.691406 240.175781 93.574219 237.5625 93.574219 C 234.949219 93.574219 232.828125 95.691406 232.828125 98.304688 L 232.828125 108.824219 C 232.828125 111.4375 234.949219 113.558594 237.5625 113.558594 C 240.175781 113.558594 242.292969 111.4375 242.292969 108.824219 Z M 267.929688 123.363281 L 275.371094 115.925781 C 277.21875 114.078125 277.21875 111.082031 275.371094 109.234375 C 273.523438 107.386719 270.527344 107.386719 268.679688 109.234375 L 261.238281 116.671875 C 259.390625 118.519531 259.390625 121.515625 261.238281 123.363281 C 263.085938 125.210938 266.082031 125.210938 267.929688 123.363281 Z M 275.78125 151.773438 L 286.300781 151.773438 C 288.914062 151.773438 291.03125 149.65625 291.03125 147.042969 C 291.03125 144.429688 288.914062 142.3125 286.300781 142.3125 L 275.78125 142.3125 C 273.167969 142.3125 271.046875 144.429688 271.046875 147.042969 C 271.046875 149.65625 273.164062 151.773438 275.78125 151.773438 Z M 261.238281 177.414062 L 268.679688 184.851562 C 270.527344 186.699219 273.523438 186.699219 275.371094 184.851562 C 277.21875 183.003906 277.21875 180.007812 275.371094 178.160156 L 267.929688 170.722656 C 266.082031 168.871094 263.085938 168.871094 261.238281 170.722656 C 259.390625 172.570312 259.390625 175.566406 261.238281 177.414062 Z M 232.828125 185.261719 L 232.828125 195.78125 C 232.828125 198.394531 234.949219 200.511719 237.5625 200.511719 C 240.175781 200.511719 242.292969 198.394531 242.292969 195.78125 L 242.292969 185.261719 C 242.292969 182.648438 240.175781 180.527344 237.5625 180.527344 C 234.949219 180.527344 232.828125 182.648438 232.828125 185.261719 Z M 207.191406 170.722656 L 199.753906 178.160156 C 197.902344 180.007812 197.902344 183.003906 199.753906 184.851562 C 201.601562 186.699219 204.597656 186.699219 206.445312 184.851562 L 213.882812 177.414062 C 215.730469 175.566406 215.730469 172.570312 213.882812 170.722656 C 212.035156 168.875 209.039062 168.875 207.191406 170.722656 Z M 199.34375 142.3125 L 188.824219 142.3125 C 186.210938 142.3125 184.089844 144.429688 184.089844 147.042969 C 184.089844 149.65625 186.210938 151.773438 188.824219 151.773438 L 199.34375 151.773438 C 201.957031 151.773438 204.074219 149.65625 204.074219 147.042969 C 204.074219 144.429688 201.957031 142.3125 199.34375 142.3125 Z M 237.5625 123.511719 C 224.566406 123.511719 214.03125 134.046875 214.03125 147.042969 C 214.03125 160.039062 224.566406 170.574219 237.5625 170.574219 C 250.558594 170.574219 261.09375 160.039062 261.09375 147.042969 C 261.09375 134.046875 250.558594 123.511719 237.5625 123.511719 Z M 201.953125 223.925781 C 197.996094 222.089844 194.199219 219.957031 190.597656 217.554688 L 178.777344 229.375 L 155.230469 205.824219 L 167.050781 194.003906 C 161.023438 184.972656 156.6875 174.71875 154.488281 163.695312 L 137.777344 163.695312 L 137.777344 130.390625 L 154.488281 130.390625 C 156.683594 119.367188 161.023438 109.113281 167.050781 100.082031 L 155.230469 88.261719 L 178.777344 64.710938 L 190.597656 76.53125 C 199.628906 70.503906 209.882812 66.167969 220.910156 63.96875 L 220.910156 47.261719 L 254.210938 47.261719 L 254.210938 63.96875 C 265.238281 66.167969 275.492188 70.503906 284.523438 76.53125 L 296.34375 64.710938 L 319.890625 88.261719 L 308.074219 100.082031 C 314.101562 109.113281 318.4375 119.367188 320.636719 130.390625 L 337.34375 130.390625 L 337.34375 163.695312 L 320.636719 163.695312 C 318.4375 174.722656 314.097656 184.972656 308.074219 194.003906 L 319.894531 205.824219 L 296.34375 229.375 L 284.523438 217.554688 C 280.921875 219.957031 277.128906 222.089844 273.167969 223.925781 L 273.167969 212.617188 C 273.167969 211.292969 273.691406 210.375 274.828125 209.699219 C 296.90625 196.542969 310.449219 172.816406 310.449219 147.042969 C 310.449219 106.789062 277.8125 74.152344 237.5625 74.152344 C 197.308594 74.152344 164.671875 106.789062 164.671875 147.042969 C 164.671875 172.816406 178.21875 196.542969 200.296875 209.699219 C 201.433594 210.375 201.953125 211.292969 201.953125 212.617188 Z M 37.847656 322.578125 C 40.507812 287.101562 70.371094 258.894531 106.5 258.894531 C 142.628906 258.894531 172.492188 287.101562 175.152344 322.578125 C 175.363281 325.382812 173.171875 327.738281 170.363281 327.738281 L 42.636719 327.738281 C 39.824219 327.738281 37.636719 325.382812 37.847656 322.578125 Z M 37.847656 322.578125 " fill-opacity="1" fill-rule="evenodd"/></g></svg>