<svg xmlns="http://www.w3.org/2000/svg" xmlns:xlink="http://www.w3.org/1999/xlink" width="500" zoomAndPan="magnify" viewBox="0 0 375 374.999991" height="500" preserveAspectRatio="xMidYMid meet" version="1.0"><defs><clipPath id="fa15ba80c2"><path d="M 37.5 37.5 L 330 37.5 L 330 329.25 L 37.5 329.25 Z M 37.5 37.5 " clip-rule="nonzero"/></clipPath></defs><g clip-path="url(#fa15ba80c2)"><path fill="#00406d" d="M 328.617188 165.320312 C 327.210938 160.996094 323.214844 158.09375 318.667969 158.09375 C 318.664062 158.09375 318.65625 158.09375 318.648438 158.09375 L 296.542969 158.136719 C 296.539062 158.136719 296.539062 158.136719 296.539062 158.136719 C 296.035156 158.136719 295.691406 157.882812 295.535156 157.40625 L 288.746094 136.367188 C 287.34375 132.03125 283.34375 129.117188 278.785156 129.117188 C 277.027344 129.121094 275.351562 129.558594 273.875 130.34375 C 266.050781 118.351562 255.832031 107.9375 243.980469 99.878906 L 243.980469 90.667969 C 243.980469 88.71875 242.785156 86.976562 240.96875 86.277344 L 233.941406 83.570312 C 232.859375 79.832031 231.367188 76.234375 229.484375 72.820312 L 232.542969 65.933594 C 233.332031 64.15625 232.945312 62.078125 231.570312 60.699219 L 220.859375 49.988281 C 219.484375 48.613281 217.402344 48.226562 215.625 49.015625 L 208.738281 52.078125 C 205.324219 50.195312 201.726562 48.703125 197.988281 47.621094 L 195.285156 40.589844 C 194.585938 38.777344 192.839844 37.578125 190.894531 37.578125 L 175.746094 37.578125 C 173.800781 37.578125 172.058594 38.777344 171.359375 40.589844 L 168.652344 47.621094 C 164.914062 48.703125 161.316406 50.195312 157.90625 52.078125 L 151.015625 49.015625 C 149.238281 48.226562 147.15625 48.613281 145.78125 49.988281 L 135.070312 60.699219 C 133.695312 62.078125 133.308594 64.15625 134.097656 65.9375 L 137.15625 72.824219 C 135.273438 76.234375 133.78125 79.832031 132.699219 83.570312 L 125.671875 86.277344 C 123.855469 86.976562 122.660156 88.722656 122.660156 90.667969 L 122.660156 99.871094 C 113.765625 105.910156 105.875 113.195312 99.136719 121.570312 C 93.75 119.214844 87.808594 117.902344 81.5625 117.902344 C 57.265625 117.902344 37.5 137.667969 37.5 161.964844 C 37.5 173.398438 41.097656 179.550781 44.578125 185.5 C 48.425781 192.066406 52.398438 198.863281 53.359375 214.898438 L 53.359375 221.132812 C 53.359375 225.570312 55.980469 229.398438 59.753906 231.171875 L 59.753906 233.925781 C 59.753906 238.425781 62.453125 242.300781 66.3125 244.042969 L 66.3125 246.714844 C 66.3125 252.835938 71.292969 257.816406 77.410156 257.816406 L 85.710938 257.816406 C 89.878906 257.816406 93.515625 255.503906 95.414062 252.09375 C 106.292969 267.3125 120.941406 279.480469 137.957031 287.355469 C 128.6875 297.039062 122.480469 309.742188 120.953125 324.011719 C 120.808594 325.339844 121.238281 326.664062 122.128906 327.65625 C 123.023438 328.652344 124.296875 329.21875 125.628906 329.21875 L 241.011719 329.21875 C 242.347656 329.21875 243.617188 328.652344 244.511719 327.65625 C 245.402344 326.664062 245.832031 325.339844 245.6875 324.011719 C 244.160156 309.734375 237.949219 297.03125 228.675781 287.347656 C 242.902344 280.75 255.644531 271.0625 265.835938 259.015625 C 276.191406 246.777344 283.6875 232.355469 287.769531 216.957031 L 297.269531 223.886719 C 300.949219 226.574219 305.898438 226.578125 309.582031 223.898438 C 313.269531 221.222656 314.792969 216.511719 313.378906 212.183594 L 306.507812 191.171875 C 306.351562 190.695312 306.484375 190.285156 306.890625 189.992188 L 324.800781 177.03125 C 328.492188 174.359375 330.027344 169.65625 328.617188 165.320312 Z M 132.066406 93.898438 L 138.324219 91.488281 C 139.773438 90.929688 140.851562 89.695312 141.210938 88.1875 C 142.273438 83.730469 144.03125 79.488281 146.4375 75.578125 C 147.25 74.257812 147.359375 72.621094 146.730469 71.203125 L 144.007812 65.070312 L 150.148438 58.925781 L 156.285156 61.652344 C 157.703125 62.28125 159.339844 62.171875 160.660156 61.359375 C 164.570312 58.949219 168.8125 57.191406 173.265625 56.132812 C 174.777344 55.773438 176.011719 54.691406 176.566406 53.246094 L 178.976562 46.984375 L 187.664062 46.984375 L 190.074219 53.246094 C 190.628906 54.691406 191.867188 55.773438 193.375 56.132812 C 197.828125 57.191406 202.070312 58.949219 205.980469 61.359375 C 207.300781 62.171875 208.9375 62.28125 210.355469 61.652344 L 216.492188 58.925781 L 222.632812 65.070312 L 219.910156 71.199219 C 219.28125 72.617188 219.390625 74.257812 220.203125 75.578125 C 222.613281 79.488281 224.371094 83.730469 225.433594 88.1875 C 225.789062 89.695312 226.871094 90.929688 228.316406 91.488281 L 234.574219 93.894531 L 234.574219 102.582031 L 228.316406 104.992188 C 226.867188 105.550781 225.789062 106.785156 225.429688 108.292969 C 224.367188 112.746094 222.609375 116.988281 220.203125 120.898438 C 219.390625 122.222656 219.28125 123.855469 219.910156 125.273438 L 222.632812 131.410156 L 216.492188 137.550781 L 210.359375 134.828125 C 208.941406 134.199219 207.304688 134.308594 205.984375 135.121094 C 202.074219 137.53125 197.832031 139.289062 193.375 140.351562 C 191.863281 140.710938 190.628906 141.789062 190.074219 143.238281 L 187.664062 149.492188 L 178.976562 149.492188 L 176.566406 143.234375 C 176.011719 141.789062 174.777344 140.707031 173.269531 140.347656 C 168.8125 139.289062 164.570312 137.527344 160.660156 135.121094 C 159.339844 134.304688 157.703125 134.199219 156.285156 134.828125 L 150.148438 137.550781 L 144.007812 131.410156 L 146.730469 125.277344 C 147.359375 123.859375 147.25 122.222656 146.4375 120.902344 C 144.03125 116.992188 142.269531 112.75 141.210938 108.292969 C 140.851562 106.785156 139.769531 105.546875 138.324219 104.992188 L 132.066406 102.582031 Z M 46.90625 161.964844 C 46.90625 142.855469 62.453125 127.308594 81.5625 127.308594 C 100.671875 127.308594 116.214844 142.855469 116.214844 161.964844 C 116.214844 170.847656 113.660156 175.21875 110.425781 180.746094 C 106.761719 187.007812 102.277344 194.671875 100.71875 210.03125 L 93.0625 210.03125 L 93.0625 176.105469 L 97.503906 176.105469 C 105.140625 176.105469 111.355469 169.890625 111.355469 162.253906 C 111.355469 154.617188 105.144531 148.402344 97.503906 148.402344 C 89.867188 148.402344 83.65625 154.617188 83.65625 162.253906 L 83.65625 166.695312 L 79.46875 166.695312 L 79.46875 162.253906 C 79.46875 154.617188 73.257812 148.402344 65.621094 148.402344 C 57.984375 148.402344 51.769531 154.617188 51.769531 162.253906 C 51.769531 169.890625 57.984375 176.105469 65.621094 176.105469 L 70.0625 176.105469 L 70.0625 210.03125 L 62.40625 210.03125 C 60.847656 194.671875 56.363281 187.007812 52.699219 180.746094 C 49.464844 175.21875 46.90625 170.847656 46.90625 161.964844 Z M 70.855469 235.617188 C 69.9375 235.617188 69.160156 234.84375 69.160156 233.925781 L 69.160156 232.234375 L 93.964844 232.234375 L 93.964844 233.925781 C 93.964844 234.84375 93.1875 235.617188 92.273438 235.617188 Z M 100.359375 221.132812 C 100.359375 222.050781 99.585938 222.824219 98.667969 222.824219 L 64.457031 222.824219 C 63.539062 222.824219 62.765625 222.050781 62.765625 221.132812 L 62.765625 219.441406 L 100.359375 219.441406 Z M 70.0625 166.695312 L 65.621094 166.695312 C 63.167969 166.695312 61.175781 164.703125 61.175781 162.253906 C 61.175781 159.804688 63.167969 157.8125 65.621094 157.8125 C 68.070312 157.8125 70.0625 159.804688 70.0625 162.253906 Z M 83.65625 210.03125 L 79.46875 210.03125 L 79.46875 176.105469 L 83.65625 176.105469 Z M 93.0625 166.695312 L 93.0625 162.253906 C 93.0625 159.804688 95.054688 157.8125 97.503906 157.8125 C 99.953125 157.8125 101.949219 159.804688 101.949219 162.253906 C 101.949219 164.703125 99.953125 166.695312 97.503906 166.695312 Z M 85.710938 248.410156 L 77.410156 248.410156 C 76.496094 248.410156 75.71875 247.632812 75.71875 246.71875 L 75.71875 245.023438 L 87.402344 245.023438 L 87.402344 246.71875 C 87.402344 247.632812 86.628906 248.410156 85.710938 248.410156 Z M 131.121094 319.8125 C 136.195312 295.316406 157.777344 277.4375 183.320312 277.4375 C 208.863281 277.4375 230.449219 295.316406 235.519531 319.8125 Z M 158.6875 243.394531 C 158.6875 229.8125 169.738281 218.761719 183.320312 218.761719 C 196.902344 218.761719 207.953125 229.8125 207.953125 243.394531 C 207.953125 256.976562 196.902344 268.03125 183.320312 268.03125 C 169.738281 268.03125 158.6875 256.980469 158.6875 243.394531 Z M 220.917969 280.480469 C 215.535156 276.460938 209.488281 273.292969 202.980469 271.160156 C 211.675781 264.984375 217.363281 254.847656 217.363281 243.394531 C 217.363281 224.625 202.089844 209.351562 183.320312 209.351562 C 164.550781 209.351562 149.277344 224.625 149.277344 243.394531 C 149.277344 254.847656 154.96875 264.984375 163.660156 271.160156 C 157.152344 273.292969 151.105469 276.460938 145.71875 280.484375 C 126.816406 272.683594 110.832031 259.203125 99.921875 241.945312 C 102.039062 239.925781 103.371094 237.078125 103.371094 233.925781 L 103.371094 231.171875 C 107.144531 229.398438 109.765625 225.570312 109.765625 221.132812 L 109.765625 214.890625 C 110.726562 198.863281 114.699219 192.066406 118.542969 185.5 C 122.023438 179.550781 125.625 173.398438 125.625 161.964844 C 125.625 147.320312 118.4375 134.328125 107.410156 126.3125 C 112.558594 120.105469 118.414062 114.582031 124.898438 109.8125 C 125.144531 109.960938 125.398438 110.097656 125.671875 110.203125 L 132.699219 112.910156 C 133.78125 116.648438 135.273438 120.246094 137.15625 123.660156 L 134.097656 130.542969 C 133.308594 132.324219 133.695312 134.402344 135.070312 135.78125 L 145.78125 146.492188 C 147.15625 147.867188 149.238281 148.253906 151.015625 147.464844 L 157.90625 144.402344 C 161.316406 146.285156 164.914062 147.777344 168.652344 148.859375 L 171.359375 155.886719 C 172.054688 157.703125 173.800781 158.902344 175.746094 158.902344 L 190.894531 158.902344 C 192.839844 158.902344 194.585938 157.703125 195.285156 155.886719 L 197.988281 148.863281 C 201.726562 147.78125 205.328125 146.289062 208.738281 144.40625 L 215.625 147.464844 C 217.402344 148.253906 219.484375 147.867188 220.859375 146.492188 L 231.570312 135.78125 C 232.945312 134.402344 233.332031 132.324219 232.542969 130.542969 L 229.484375 123.65625 C 231.367188 120.242188 232.859375 116.644531 233.9375 112.910156 L 240.96875 110.203125 C 241.242188 110.097656 241.496094 109.960938 241.742188 109.8125 C 252.316406 117.609375 261.3125 127.511719 268.050781 138.789062 L 262.039062 157.40625 C 261.886719 157.882812 261.539062 158.136719 261.039062 158.136719 C 261.035156 158.136719 261.035156 158.136719 261.035156 158.136719 L 238.929688 158.09375 C 238.921875 158.09375 238.914062 158.09375 238.90625 158.09375 C 234.359375 158.09375 230.363281 160.996094 228.957031 165.324219 C 227.550781 169.65625 229.082031 174.363281 232.773438 177.03125 L 250.683594 189.992188 C 251.089844 190.289062 251.222656 190.695312 251.066406 191.175781 L 244.195312 212.1875 C 242.78125 216.515625 244.304688 221.226562 247.992188 223.902344 C 249.832031 225.238281 251.984375 225.90625 254.140625 225.90625 C 256.300781 225.90625 258.464844 225.234375 260.304688 223.890625 L 278.164062 210.863281 C 278.570312 210.566406 279.003906 210.566406 279.410156 210.863281 L 279.550781 210.964844 C 272.5625 242.039062 250.425781 268.289062 220.917969 280.480469 Z M 319.285156 169.410156 L 301.375 182.371094 C 297.679688 185.046875 296.148438 189.757812 297.566406 194.097656 L 304.4375 215.109375 C 304.59375 215.585938 304.460938 215.992188 304.054688 216.289062 C 303.648438 216.582031 303.21875 216.585938 302.816406 216.289062 L 284.957031 203.261719 C 281.269531 200.570312 276.3125 200.570312 272.621094 203.261719 L 254.765625 216.289062 C 254.359375 216.585938 253.929688 216.585938 253.523438 216.289062 C 253.117188 215.996094 252.984375 215.585938 253.140625 215.109375 L 260.011719 194.097656 C 261.429688 189.757812 259.898438 185.046875 256.203125 182.371094 L 238.292969 169.410156 C 237.886719 169.113281 237.75 168.707031 237.90625 168.230469 C 238.0625 167.753906 238.410156 167.5 238.910156 167.5 C 238.910156 167.5 238.910156 167.5 238.914062 167.5 L 261.019531 167.542969 C 261.027344 167.542969 261.03125 167.542969 261.039062 167.542969 C 265.597656 167.542969 269.597656 164.632812 270.996094 160.292969 L 277.785156 139.257812 C 277.941406 138.78125 278.289062 138.527344 278.789062 138.527344 C 279.292969 138.527344 279.640625 138.78125 279.792969 139.257812 L 286.585938 160.292969 C 287.984375 164.632812 291.984375 167.542969 296.542969 167.542969 C 296.546875 167.542969 296.554688 167.542969 296.5625 167.542969 L 318.667969 167.5 C 318.671875 167.5 318.671875 167.5 318.671875 167.5 C 319.171875 167.5 319.519531 167.753906 319.675781 168.226562 C 319.828125 168.707031 319.695312 169.113281 319.285156 169.410156 Z M 183.320312 133.398438 C 202.707031 133.398438 218.480469 117.625 218.480469 98.238281 C 218.480469 78.851562 202.707031 63.082031 183.320312 63.082031 C 163.933594 63.082031 148.160156 78.851562 148.160156 98.238281 C 148.160156 117.625 163.933594 133.398438 183.320312 133.398438 Z M 183.320312 72.488281 C 197.519531 72.488281 209.070312 84.039062 209.070312 98.238281 C 209.070312 112.4375 197.519531 123.992188 183.320312 123.992188 C 169.121094 123.992188 157.570312 112.4375 157.570312 98.238281 C 157.570312 84.039062 169.121094 72.488281 183.320312 72.488281 Z M 165.675781 102.417969 C 163.839844 100.582031 163.839844 97.601562 165.675781 95.765625 C 167.515625 93.929688 170.492188 93.929688 172.328125 95.765625 L 177.511719 100.949219 L 194.476562 85.550781 C 196.402344 83.804688 199.375 83.949219 201.121094 85.875 C 202.867188 87.796875 202.722656 90.773438 200.800781 92.519531 L 180.515625 110.925781 C 179.617188 111.742188 178.484375 112.148438 177.355469 112.148438 C 176.148438 112.148438 174.945312 111.6875 174.027344 110.769531 Z M 165.675781 102.417969 " fill-opacity="1" fill-rule="nonzero"/></g></svg>