<svg xmlns="http://www.w3.org/2000/svg" xmlns:xlink="http://www.w3.org/1999/xlink" width="500" zoomAndPan="magnify" viewBox="0 0 375 374.999991" height="500" preserveAspectRatio="xMidYMid meet" version="1.0"><defs><clipPath id="490c76aba0"><path d="M 57.917969 17.78125 L 296.417969 17.78125 L 296.417969 158 L 57.917969 158 Z M 57.917969 17.78125 " clip-rule="nonzero"/></clipPath><clipPath id="0b076c2056"><path d="M 87 81 L 268 81 L 268 196.28125 L 87 196.28125 Z M 87 81 " clip-rule="nonzero"/></clipPath><clipPath id="d2560039f1"><path d="M 124 124 L 230 124 L 230 196.28125 L 124 196.28125 Z M 124 124 " clip-rule="nonzero"/></clipPath><clipPath id="98881fbc3f"><path d="M 81 195.164062 L 271 195.164062 L 271 308 L 81 308 Z M 81 195.164062 " clip-rule="nonzero"/></clipPath><clipPath id="915195aa4a"><path d="M 120 195.164062 L 231 195.164062 L 231 268 L 120 268 Z M 120 195.164062 " clip-rule="nonzero"/></clipPath><clipPath id="a2e5b275ab"><path d="M 252 195.164062 L 259 195.164062 L 259 231 L 252 231 Z M 252 195.164062 " clip-rule="nonzero"/></clipPath><clipPath id="70cfb091c2"><path d="M 92 195.164062 L 99 195.164062 L 99 231 L 92 231 Z M 92 195.164062 " clip-rule="nonzero"/></clipPath><clipPath id="583348184f"><path d="M 166 324 L 185 324 L 185 342.914062 L 166 342.914062 Z M 166 324 " clip-rule="nonzero"/></clipPath><clipPath id="6f38f7f0bc"><path d="M 287 203 L 305.875 203 L 305.875 223 L 287 223 Z M 287 203 " clip-rule="nonzero"/></clipPath><clipPath id="f971abf2ec"><path d="M 45.625 203 L 65 203 L 65 223 L 45.625 223 Z M 45.625 203 " clip-rule="nonzero"/></clipPath></defs><path fill="#00406d" d="M 185.585938 191.386719 C 184.542969 191.386719 183.5 190.941406 182.902344 190.046875 L 175.902344 181.257812 L 170.6875 181.257812 L 170.6875 187.960938 C 170.6875 189.898438 169.046875 191.386719 167.261719 191.386719 C 165.324219 191.386719 163.835938 189.898438 163.835938 187.960938 L 163.835938 165.316406 C 163.835938 163.378906 165.324219 161.890625 167.261719 161.890625 L 179.03125 161.890625 C 184.390625 161.890625 188.710938 166.210938 188.710938 171.574219 C 188.710938 175.296875 186.628906 178.425781 183.648438 180.066406 L 188.265625 185.875 C 189.308594 187.363281 189.160156 189.449219 187.667969 190.640625 C 187.074219 191.089844 186.328125 191.386719 185.585938 191.386719 Z M 177.6875 174.402344 L 179.03125 174.402344 C 180.519531 174.402344 181.859375 173.210938 181.859375 171.574219 C 181.859375 170.082031 180.519531 168.742188 179.03125 168.742188 L 170.6875 168.742188 L 170.6875 174.402344 L 177.539062 174.402344 C 177.539062 174.402344 177.539062 174.402344 177.6875 174.402344 Z M 177.6875 174.402344 " fill-opacity="1" fill-rule="evenodd"/><path fill="#00406d" d="M 148.492188 191.386719 C 139.851562 191.386719 135.382812 183.9375 135.382812 176.636719 C 135.382812 172.914062 136.425781 169.488281 138.511719 166.804688 C 140.894531 163.679688 144.46875 161.890625 148.492188 161.890625 C 153.40625 161.890625 157.726562 164.570312 159.960938 168.890625 C 160.855469 170.53125 160.257812 172.617188 158.621094 173.511719 C 156.832031 174.402344 154.898438 173.660156 154.003906 172.019531 C 152.8125 170.082031 150.726562 168.742188 148.492188 168.742188 C 146.554688 168.742188 145.066406 169.488281 143.871094 170.976562 C 142.828125 172.316406 142.234375 174.402344 142.234375 176.636719 C 142.234375 179.617188 143.574219 184.535156 148.492188 184.535156 C 150.726562 184.535156 152.8125 183.191406 154.003906 181.257812 C 154.746094 179.617188 156.832031 178.871094 158.621094 179.765625 C 160.257812 180.660156 160.855469 182.746094 159.960938 184.386719 C 157.726562 188.703125 153.40625 191.386719 148.492188 191.386719 Z M 148.492188 191.386719 " fill-opacity="1" fill-rule="evenodd"/><path fill="#00406d" d="M 213.886719 191.386719 C 212.101562 191.386719 210.460938 189.898438 210.460938 187.960938 L 210.460938 182.894531 L 207.929688 189.300781 C 207.484375 190.492188 206.140625 191.386719 204.800781 191.386719 C 203.460938 191.386719 202.121094 190.492188 201.671875 189.300781 L 198.992188 182.894531 L 198.992188 187.960938 C 198.992188 189.898438 197.5 191.386719 195.566406 191.386719 C 193.777344 191.386719 192.289062 189.898438 192.289062 187.960938 L 192.289062 165.316406 C 192.289062 163.679688 193.332031 162.335938 194.96875 162.039062 C 196.609375 161.742188 198.246094 162.488281 198.84375 163.976562 L 204.800781 178.871094 L 210.761719 163.976562 C 211.355469 162.488281 212.996094 161.742188 214.632812 162.039062 C 216.121094 162.335938 217.316406 163.679688 217.316406 165.316406 L 217.316406 187.960938 C 217.316406 189.898438 215.824219 191.386719 213.886719 191.386719 Z M 213.886719 191.386719 " fill-opacity="1" fill-rule="evenodd"/><g clip-path="url(#490c76aba0)"><path fill="#00406d" d="M 265.433594 157.71875 L 249.492188 157.71875 C 247.703125 157.71875 246.214844 156.230469 246.214844 154.292969 C 246.214844 152.503906 247.703125 151.015625 249.492188 151.015625 L 265.433594 151.015625 C 278.691406 151.015625 289.566406 140.140625 289.566406 126.734375 C 289.566406 113.773438 279.433594 103.195312 266.472656 102.601562 C 265.433594 102.453125 264.238281 101.855469 263.792969 100.8125 C 263.195312 99.769531 263.195312 98.578125 263.644531 97.535156 C 265.582031 94.109375 266.625 90.085938 266.625 86.066406 C 266.625 72.65625 255.75 61.933594 242.339844 61.933594 C 238.019531 61.933594 233.851562 62.976562 230.125 65.210938 C 229.230469 65.804688 228.039062 65.804688 226.996094 65.359375 C 225.953125 64.910156 225.210938 64.015625 225.0625 62.976562 C 222.828125 51.652344 212.84375 43.460938 201.375 43.460938 C 195.566406 43.460938 189.90625 45.546875 185.585938 49.269531 C 184.691406 50.015625 183.351562 50.3125 182.308594 50.015625 C 181.113281 49.566406 180.371094 48.671875 180.074219 47.632812 C 176.496094 34.074219 164.28125 24.691406 150.277344 24.691406 C 133.296875 24.691406 119.589844 38.394531 119.589844 55.378906 C 119.589844 56.269531 119.589844 57.3125 119.738281 58.207031 C 119.738281 59.25 119.441406 60.144531 118.695312 60.890625 C 117.953125 61.632812 117.058594 62.082031 116.015625 61.933594 C 115.417969 61.933594 114.824219 61.933594 114.226562 61.933594 C 100.820312 61.933594 90.09375 72.808594 90.09375 86.066406 C 90.09375 90.085938 90.988281 93.960938 92.925781 97.535156 C 93.519531 98.578125 93.371094 99.917969 92.777344 100.960938 C 92.179688 102.003906 90.988281 102.601562 89.796875 102.601562 C 89.5 102.601562 89.199219 102.601562 88.902344 102.601562 C 75.496094 102.601562 64.769531 113.328125 64.769531 126.734375 C 64.769531 140.140625 75.496094 151.015625 88.902344 151.015625 L 104.695312 151.015625 C 106.628906 151.015625 108.121094 152.503906 108.121094 154.292969 C 108.121094 156.230469 106.628906 157.71875 104.695312 157.71875 L 88.902344 157.71875 C 71.773438 157.71875 57.917969 143.863281 57.917969 126.734375 C 57.917969 111.09375 69.6875 97.984375 84.882812 96.046875 C 83.6875 92.769531 83.242188 89.492188 83.242188 86.066406 C 83.242188 69.53125 96.351562 55.824219 112.738281 55.078125 C 112.886719 34.523438 129.71875 17.835938 150.277344 17.835938 C 165.769531 17.835938 179.328125 27.222656 185.136719 41.226562 C 189.90625 38.246094 195.566406 36.605469 201.375 36.605469 C 214.632812 36.605469 226.253906 45.097656 230.574219 57.3125 C 234.296875 55.824219 238.320312 55.078125 242.339844 55.078125 C 259.472656 55.078125 273.328125 68.933594 273.328125 86.066406 C 273.328125 89.640625 272.730469 93.066406 271.6875 96.34375 C 285.839844 99.175781 296.417969 111.835938 296.417969 126.734375 C 296.417969 143.863281 282.414062 157.71875 265.433594 157.71875 Z M 265.433594 157.71875 " fill-opacity="1" fill-rule="evenodd"/></g><g clip-path="url(#0b076c2056)"><path fill="#00406d" d="M 191.097656 272.128906 L 163.238281 272.128906 C 161.449219 272.128906 160.109375 270.9375 159.8125 269.148438 L 154.746094 237.863281 C 147.597656 235.183594 141.191406 231.460938 135.382812 226.691406 L 105.585938 238.015625 C 104.097656 238.609375 102.308594 237.863281 101.417969 236.523438 L 87.5625 212.242188 C 86.667969 210.753906 86.964844 208.964844 88.308594 207.921875 L 112.886719 187.8125 C 112.292969 184.085938 111.992188 180.363281 111.992188 176.636719 C 111.992188 172.914062 112.292969 169.191406 112.886719 165.464844 L 88.308594 145.355469 C 86.964844 144.3125 86.667969 142.523438 87.5625 141.035156 L 101.417969 116.753906 C 102.308594 115.410156 104.097656 114.667969 105.585938 115.261719 L 135.382812 126.585938 C 141.191406 121.816406 147.597656 118.09375 154.746094 115.410156 L 159.8125 84.128906 C 160.109375 82.488281 161.449219 81.148438 163.238281 81.148438 L 191.097656 81.148438 C 192.734375 81.148438 194.222656 82.488281 194.523438 84.128906 L 199.585938 115.410156 C 206.589844 118.09375 213.144531 121.816406 218.953125 126.585938 L 248.597656 115.261719 C 250.238281 114.667969 252.023438 115.410156 252.769531 116.753906 L 266.773438 141.035156 C 267.667969 142.523438 267.21875 144.3125 266.027344 145.355469 L 241.296875 165.464844 C 242.042969 169.191406 242.339844 172.914062 242.339844 176.636719 C 242.339844 180.363281 242.042969 184.085938 241.296875 187.8125 L 266.027344 207.921875 C 267.21875 208.964844 267.667969 210.753906 266.773438 212.242188 L 252.769531 236.523438 C 252.023438 237.863281 250.238281 238.609375 248.597656 238.015625 L 218.953125 226.691406 C 213.144531 231.460938 206.589844 235.183594 199.585938 237.863281 L 194.523438 269.148438 C 194.222656 270.9375 192.734375 272.128906 191.097656 272.128906 Z M 166.070312 265.273438 L 188.265625 265.273438 L 193.183594 234.738281 C 193.332031 233.542969 194.222656 232.5 195.417969 232.054688 C 203.011719 229.523438 210.015625 225.5 215.972656 220.136719 C 216.867188 219.394531 218.207031 219.09375 219.398438 219.542969 L 248.300781 230.566406 L 259.472656 211.347656 L 235.488281 191.832031 C 234.445312 191.089844 234 189.746094 234.296875 188.554688 C 235.042969 184.683594 235.488281 180.660156 235.488281 176.636719 C 235.488281 172.617188 235.042969 168.59375 234.296875 164.722656 C 234 163.527344 234.445312 162.1875 235.488281 161.445312 L 259.472656 141.929688 L 248.300781 122.710938 L 219.398438 133.734375 C 218.207031 134.183594 216.867188 133.882812 215.972656 133.140625 C 210.015625 127.777344 203.011719 123.753906 195.417969 121.222656 C 194.222656 120.773438 193.332031 119.730469 193.183594 118.539062 L 188.265625 88 L 166.070312 88 L 161.152344 118.539062 C 161.003906 119.730469 160.109375 120.773438 158.917969 121.222656 C 151.171875 123.753906 144.320312 127.777344 138.359375 133.140625 C 137.46875 133.882812 135.976562 134.183594 134.785156 133.734375 L 105.886719 122.710938 L 94.863281 141.929688 L 118.847656 161.445312 C 119.890625 162.1875 120.335938 163.527344 120.039062 164.722656 C 119.292969 168.59375 118.847656 172.617188 118.847656 176.636719 C 118.847656 180.660156 119.292969 184.683594 120.039062 188.554688 C 120.335938 189.746094 119.890625 191.089844 118.847656 191.832031 L 94.863281 211.347656 L 105.886719 230.566406 L 134.785156 219.542969 C 135.976562 219.09375 137.46875 219.394531 138.359375 220.136719 C 144.320312 225.5 151.171875 229.523438 158.769531 232.054688 C 160.109375 232.5 161.003906 233.542969 161.152344 234.738281 Z M 166.070312 265.273438 " fill-opacity="1" fill-rule="evenodd"/></g><g clip-path="url(#d2560039f1)"><path fill="#00406d" d="M 177.09375 228.777344 C 148.34375 228.777344 124.953125 205.390625 124.953125 176.636719 C 124.953125 147.886719 148.34375 124.5 177.09375 124.5 C 205.992188 124.5 229.382812 147.886719 229.382812 176.636719 C 229.382812 205.390625 205.992188 228.777344 177.09375 228.777344 Z M 177.09375 131.203125 C 152.066406 131.203125 131.804688 151.613281 131.804688 176.636719 C 131.804688 201.664062 152.066406 222.074219 177.09375 222.074219 C 202.121094 222.074219 222.527344 201.664062 222.527344 176.636719 C 222.527344 151.613281 202.121094 131.203125 177.09375 131.203125 Z M 177.09375 131.203125 " fill-opacity="1" fill-rule="evenodd"/></g><g clip-path="url(#98881fbc3f)"><path fill="#00406d" d="M 187.171875 307.605469 L 164.015625 307.605469 C 160.964844 307.605469 158.375 305.015625 158.375 301.816406 L 158.375 286.125 C 150.453125 284.292969 143.140625 281.246094 136.285156 276.980469 L 125.160156 288.105469 C 122.875 290.238281 119.066406 290.238281 116.933594 288.105469 L 100.628906 271.800781 C 98.34375 269.515625 98.34375 265.859375 100.628906 263.574219 L 111.753906 252.449219 C 107.488281 245.59375 104.4375 238.128906 102.609375 230.359375 L 86.765625 230.359375 C 83.71875 230.359375 81.128906 227.765625 81.128906 224.566406 L 81.128906 201.410156 C 81.128906 198.359375 83.71875 195.769531 86.765625 195.769531 L 102.609375 195.769531 C 104.4375 187.847656 107.488281 180.535156 111.753906 173.679688 L 100.628906 162.554688 C 98.34375 160.269531 98.34375 156.613281 100.628906 154.328125 L 116.933594 138.023438 C 119.066406 135.738281 122.875 135.738281 125.160156 138.023438 L 136.285156 149.148438 C 143.140625 144.882812 150.453125 141.835938 158.375 140.003906 L 158.375 124.160156 C 158.375 121.113281 160.964844 118.523438 164.015625 118.523438 L 187.171875 118.523438 C 190.371094 118.523438 192.964844 121.113281 192.964844 124.160156 L 192.964844 140.003906 C 200.734375 141.835938 208.199219 144.882812 215.054688 149.148438 L 226.179688 138.023438 C 228.3125 135.738281 232.121094 135.738281 234.40625 138.023438 L 250.710938 154.328125 C 252.996094 156.613281 252.996094 160.269531 250.710938 162.554688 L 239.585938 173.679688 C 243.851562 180.535156 246.898438 187.847656 248.726562 195.769531 L 264.421875 195.769531 C 267.621094 195.769531 270.210938 198.359375 270.210938 201.410156 L 270.210938 224.566406 C 270.210938 227.765625 267.621094 230.359375 264.421875 230.359375 L 248.726562 230.359375 C 246.898438 238.128906 243.851562 245.59375 239.585938 252.449219 L 250.710938 263.574219 C 251.777344 264.640625 252.386719 266.164062 252.386719 267.6875 C 252.386719 269.210938 251.777344 270.734375 250.710938 271.800781 L 234.40625 288.105469 C 232.121094 290.238281 228.3125 290.238281 226.179688 288.105469 L 215.054688 276.980469 C 208.199219 281.246094 200.734375 284.292969 192.964844 286.125 L 192.964844 301.816406 C 192.964844 305.015625 190.371094 307.605469 187.171875 307.605469 Z M 164.472656 301.511719 L 186.867188 301.511719 L 186.867188 283.683594 C 186.867188 282.160156 187.933594 280.941406 189.304688 280.636719 C 198.144531 278.960938 206.371094 275.457031 213.835938 270.582031 C 215.054688 269.667969 216.578125 269.820312 217.644531 270.886719 L 230.292969 283.53125 L 246.136719 267.6875 L 233.492188 255.039062 C 232.425781 253.972656 232.273438 252.449219 233.1875 251.230469 C 238.0625 243.765625 241.566406 235.539062 243.242188 226.699219 C 243.546875 225.328125 244.765625 224.261719 246.289062 224.261719 L 264.117188 224.261719 L 264.117188 201.867188 L 246.289062 201.867188 C 244.765625 201.867188 243.546875 200.800781 243.242188 199.429688 C 241.566406 190.589844 238.0625 182.363281 233.1875 174.898438 C 232.273438 173.679688 232.425781 172.15625 233.492188 171.089844 L 246.136719 158.441406 L 230.292969 142.445312 L 217.644531 155.242188 C 216.578125 156.15625 215.054688 156.308594 213.835938 155.546875 C 206.371094 150.519531 198.144531 147.167969 189.304688 145.492188 C 187.933594 145.1875 186.867188 143.816406 186.867188 142.445312 L 186.867188 124.617188 L 164.472656 124.617188 L 164.472656 142.445312 C 164.472656 143.816406 163.40625 145.1875 162.03125 145.492188 C 153.195312 147.167969 144.96875 150.519531 137.503906 155.546875 C 136.285156 156.308594 134.761719 156.15625 133.691406 155.242188 L 121.046875 142.597656 L 105.046875 158.441406 L 117.847656 171.089844 C 118.761719 172.15625 118.914062 173.679688 118.152344 174.898438 C 113.125 182.363281 109.773438 190.589844 107.945312 199.429688 C 107.792969 200.800781 106.421875 201.867188 105.046875 201.867188 L 87.222656 201.867188 L 87.222656 224.261719 L 105.046875 224.261719 C 106.421875 224.261719 107.792969 225.328125 108.097656 226.699219 C 109.773438 235.539062 113.125 243.765625 118.152344 251.230469 C 118.914062 252.449219 118.761719 253.972656 117.847656 255.039062 L 105.046875 267.6875 L 121.046875 283.53125 L 133.691406 270.886719 C 134.761719 269.820312 136.285156 269.667969 137.503906 270.582031 C 144.96875 275.457031 153.195312 278.960938 162.03125 280.636719 C 163.40625 280.941406 164.472656 282.160156 164.472656 283.683594 Z M 164.472656 301.511719 " fill-opacity="1" fill-rule="evenodd"/></g><g clip-path="url(#915195aa4a)"><path fill="#00406d" d="M 175.59375 267.992188 C 145.273438 267.992188 120.4375 243.308594 120.4375 212.835938 C 120.4375 185.714844 139.941406 162.859375 166.605469 158.441406 C 168.28125 158.136719 169.804688 159.203125 170.109375 160.878906 C 170.414062 162.554688 169.195312 164.078125 167.671875 164.382812 C 143.902344 168.34375 126.53125 188.609375 126.53125 212.835938 C 126.53125 239.957031 148.625 261.898438 175.59375 261.898438 C 202.714844 261.898438 224.65625 239.957031 224.65625 212.835938 C 224.65625 188.152344 206.371094 167.277344 181.992188 164.078125 C 180.316406 163.925781 179.097656 162.402344 179.402344 160.726562 C 179.554688 159.050781 181.078125 157.832031 182.753906 158.136719 C 210.179688 161.640625 230.75 185.105469 230.75 212.835938 C 230.75 243.308594 206.066406 267.992188 175.59375 267.992188 Z M 175.59375 267.992188 " fill-opacity="1" fill-rule="evenodd"/></g><g clip-path="url(#a2e5b275ab)"><path fill="#00406d" d="M 255.585938 230.359375 C 253.910156 230.359375 252.539062 228.988281 252.539062 227.308594 L 252.539062 198.816406 C 252.539062 197.140625 253.910156 195.769531 255.585938 195.769531 C 257.261719 195.769531 258.632812 197.140625 258.632812 198.816406 L 258.632812 227.308594 C 258.632812 228.988281 257.261719 230.359375 255.585938 230.359375 Z M 255.585938 230.359375 " fill-opacity="1" fill-rule="evenodd"/></g><path fill="#00406d" d="M 222.066406 282.769531 C 221.304688 282.769531 220.539062 282.464844 219.929688 281.855469 C 218.710938 280.636719 218.710938 278.65625 219.929688 277.4375 L 240.042969 257.328125 C 241.261719 256.105469 243.242188 256.105469 244.460938 257.328125 C 245.527344 258.546875 245.527344 260.375 244.460938 261.59375 L 224.199219 281.855469 C 223.589844 282.464844 222.828125 282.769531 222.066406 282.769531 Z M 222.066406 282.769531 " fill-opacity="1" fill-rule="evenodd"/><path fill="#00406d" d="M 189.914062 296.027344 L 161.421875 296.027344 C 159.746094 296.027344 158.375 294.65625 158.375 292.980469 C 158.375 291.304688 159.746094 289.933594 161.421875 289.933594 L 189.914062 289.933594 C 191.589844 289.933594 192.964844 291.304688 192.964844 292.980469 C 192.964844 294.65625 191.589844 296.027344 189.914062 296.027344 Z M 189.914062 296.027344 " fill-opacity="1" fill-rule="evenodd"/><path fill="#00406d" d="M 129.273438 282.769531 C 128.511719 282.769531 127.597656 282.464844 127.140625 281.855469 L 106.878906 261.59375 C 105.660156 260.375 105.660156 258.546875 106.878906 257.328125 C 108.097656 256.105469 109.925781 256.105469 111.144531 257.328125 L 131.40625 277.4375 C 132.625 278.65625 132.625 280.636719 131.40625 281.855469 C 130.796875 282.464844 130.035156 282.769531 129.273438 282.769531 Z M 129.273438 282.769531 " fill-opacity="1" fill-rule="evenodd"/><g clip-path="url(#70cfb091c2)"><path fill="#00406d" d="M 95.753906 230.359375 C 94.078125 230.359375 92.707031 228.988281 92.707031 227.308594 L 92.707031 198.816406 C 92.707031 197.140625 94.078125 195.769531 95.753906 195.769531 C 97.429688 195.769531 98.800781 197.140625 98.800781 198.816406 L 98.800781 227.308594 C 98.800781 228.988281 97.429688 230.359375 95.753906 230.359375 Z M 95.753906 230.359375 " fill-opacity="1" fill-rule="evenodd"/></g><path fill="#00406d" d="M 175.59375 330.613281 C 173.917969 330.613281 172.546875 329.242188 172.546875 327.566406 L 172.546875 304.558594 C 172.546875 302.882812 173.917969 301.511719 175.59375 301.511719 C 177.269531 301.511719 178.640625 302.882812 178.640625 304.558594 L 178.640625 327.566406 C 178.640625 329.242188 177.269531 330.613281 175.59375 330.613281 Z M 175.59375 330.613281 " fill-opacity="1" fill-rule="evenodd"/><g clip-path="url(#583348184f)"><path fill="#00406d" d="M 175.59375 343.105469 C 170.566406 343.105469 166.300781 338.839844 166.300781 333.8125 C 166.300781 328.632812 170.566406 324.519531 175.59375 324.519531 C 180.773438 324.519531 184.886719 328.632812 184.886719 333.8125 C 184.886719 338.839844 180.773438 343.105469 175.59375 343.105469 Z M 175.59375 330.613281 C 173.917969 330.613281 172.394531 331.984375 172.394531 333.8125 C 172.394531 335.488281 173.917969 337.011719 175.59375 337.011719 C 177.421875 337.011719 178.792969 335.488281 178.792969 333.8125 C 178.792969 331.984375 177.421875 330.613281 175.59375 330.613281 Z M 175.59375 330.613281 " fill-opacity="1" fill-rule="evenodd"/></g><path fill="#00406d" d="M 290.171875 216.035156 L 267.164062 216.035156 C 265.488281 216.035156 264.117188 214.664062 264.117188 212.988281 C 264.117188 211.3125 265.488281 209.941406 267.164062 209.941406 L 290.171875 209.941406 C 291.847656 209.941406 293.21875 211.3125 293.21875 212.988281 C 293.21875 214.664062 291.847656 216.035156 290.171875 216.035156 Z M 290.171875 216.035156 " fill-opacity="1" fill-rule="evenodd"/><g clip-path="url(#6f38f7f0bc)"><path fill="#00406d" d="M 296.417969 222.28125 C 291.238281 222.28125 287.125 218.167969 287.125 212.988281 C 287.125 207.960938 291.238281 203.695312 296.417969 203.695312 C 301.445312 203.695312 305.710938 207.960938 305.710938 212.988281 C 305.710938 218.167969 301.445312 222.28125 296.417969 222.28125 Z M 296.417969 209.789062 C 294.589844 209.789062 293.21875 211.3125 293.21875 212.988281 C 293.21875 214.816406 294.589844 216.1875 296.417969 216.1875 C 298.09375 216.1875 299.617188 214.816406 299.617188 212.988281 C 299.617188 211.3125 298.09375 209.789062 296.417969 209.789062 Z M 296.417969 209.789062 " fill-opacity="1" fill-rule="evenodd"/></g><path fill="#00406d" d="M 84.175781 216.035156 L 61.167969 216.035156 C 59.492188 216.035156 58.121094 214.664062 58.121094 212.988281 C 58.121094 211.3125 59.492188 209.941406 61.167969 209.941406 L 84.175781 209.941406 C 85.851562 209.941406 87.222656 211.3125 87.222656 212.988281 C 87.222656 214.664062 85.851562 216.035156 84.175781 216.035156 Z M 84.175781 216.035156 " fill-opacity="1" fill-rule="evenodd"/><g clip-path="url(#f971abf2ec)"><path fill="#00406d" d="M 54.921875 222.28125 C 49.742188 222.28125 45.625 218.167969 45.625 212.988281 C 45.625 207.960938 49.742188 203.695312 54.921875 203.695312 C 59.949219 203.695312 64.214844 207.960938 64.214844 212.988281 C 64.214844 218.167969 59.949219 222.28125 54.921875 222.28125 Z M 54.921875 209.789062 C 53.09375 209.789062 51.722656 211.3125 51.722656 212.988281 C 51.722656 214.816406 53.09375 216.1875 54.921875 216.1875 C 56.597656 216.1875 58.121094 214.816406 58.121094 212.988281 C 58.121094 211.3125 56.597656 209.789062 54.921875 209.789062 Z M 54.921875 209.789062 " fill-opacity="1" fill-rule="evenodd"/></g><path fill="#00406d" d="M 102.609375 312.785156 C 101.847656 312.785156 101.085938 312.480469 100.476562 311.871094 L 88.59375 299.988281 C 88.136719 299.53125 87.832031 298.617188 87.832031 297.855469 C 87.832031 297.09375 88.136719 296.332031 88.59375 295.722656 L 108.707031 275.609375 C 109.925781 274.390625 111.90625 274.390625 113.125 275.609375 C 114.191406 276.828125 114.191406 278.65625 113.125 279.875 L 95.144531 297.855469 L 104.742188 307.605469 C 105.964844 308.824219 105.964844 310.652344 104.742188 311.871094 C 104.285156 312.480469 103.371094 312.785156 102.609375 312.785156 Z M 102.609375 312.785156 " fill-opacity="1" fill-rule="evenodd"/><path fill="#00406d" d="M 107.488281 322.996094 C 102.304688 322.996094 98.191406 318.882812 98.191406 313.699219 C 98.191406 308.519531 102.304688 304.40625 107.488281 304.40625 C 112.515625 304.40625 116.78125 308.519531 116.78125 313.699219 C 116.78125 318.882812 112.515625 322.996094 107.488281 322.996094 Z M 107.488281 310.5 C 105.660156 310.5 104.285156 311.871094 104.285156 313.699219 C 104.285156 315.378906 105.660156 316.902344 107.488281 316.902344 C 109.164062 316.902344 110.6875 315.378906 110.6875 313.699219 C 110.6875 311.871094 109.164062 310.5 107.488281 310.5 Z M 107.488281 310.5 " fill-opacity="1" fill-rule="evenodd"/><path fill="#00406d" d="M 248.574219 312.785156 C 247.8125 312.785156 247.050781 312.480469 246.441406 311.871094 C 245.222656 310.652344 245.222656 308.824219 246.441406 307.605469 L 256.195312 297.855469 L 238.214844 279.875 C 236.996094 278.65625 236.996094 276.828125 238.214844 275.609375 C 239.433594 274.390625 241.414062 274.390625 242.480469 275.609375 L 262.59375 295.722656 C 263.8125 296.941406 263.8125 298.921875 262.59375 299.988281 L 250.863281 311.871094 C 250.253906 312.480469 249.488281 312.785156 248.574219 312.785156 Z M 248.574219 312.785156 " fill-opacity="1" fill-rule="evenodd"/><path fill="#00406d" d="M 243.851562 322.996094 C 238.671875 322.996094 234.558594 318.882812 234.558594 313.699219 C 234.558594 308.519531 238.671875 304.40625 243.851562 304.40625 C 248.878906 304.40625 253.148438 308.519531 253.148438 313.699219 C 253.148438 318.882812 248.878906 322.996094 243.851562 322.996094 Z M 243.851562 310.5 C 242.023438 310.5 240.652344 311.871094 240.652344 313.699219 C 240.652344 315.378906 242.023438 316.902344 243.851562 316.902344 C 245.527344 316.902344 247.050781 315.378906 247.050781 313.699219 C 247.050781 311.871094 245.527344 310.5 243.851562 310.5 Z M 243.851562 310.5 " fill-opacity="1" fill-rule="evenodd"/><path fill="#00406d" d="M 154.71875 228.835938 L 142.988281 228.835938 C 141.3125 228.835938 139.941406 227.460938 139.941406 225.785156 L 139.941406 200.34375 C 139.941406 198.664062 141.3125 197.292969 142.988281 197.292969 L 154.71875 197.292969 C 156.394531 197.292969 157.765625 198.664062 157.765625 200.34375 C 157.765625 202.019531 156.394531 203.390625 154.71875 203.390625 L 146.035156 203.390625 L 146.035156 209.941406 L 154.71875 209.941406 C 156.394531 209.941406 157.765625 211.3125 157.765625 212.988281 C 157.765625 214.664062 156.394531 216.035156 154.71875 216.035156 L 146.035156 216.035156 L 146.035156 222.738281 L 154.71875 222.738281 C 156.394531 222.738281 157.765625 224.109375 157.765625 225.785156 C 157.765625 227.460938 156.394531 228.835938 154.71875 228.835938 Z M 154.71875 228.835938 " fill-opacity="1" fill-rule="evenodd"/><path fill="#00406d" d="M 181.382812 228.835938 C 181.230469 228.835938 181.078125 228.835938 180.925781 228.835938 C 179.25 228.53125 178.183594 227.003906 178.335938 225.328125 C 178.945312 220.605469 177.878906 218.320312 176.964844 217.253906 C 176.203125 216.339844 175.136719 216.035156 174.984375 216.035156 L 171.785156 216.035156 L 171.785156 225.785156 C 171.785156 227.460938 170.414062 228.835938 168.738281 228.835938 C 167.0625 228.835938 165.691406 227.460938 165.691406 225.785156 L 165.691406 200.34375 C 165.691406 198.664062 167.0625 197.292969 168.738281 197.292969 L 175.136719 197.292969 C 180.316406 197.292969 184.429688 201.5625 184.429688 206.742188 C 184.429688 209.332031 183.363281 211.617188 181.6875 213.445312 C 184.125 216.1875 185.039062 220.605469 184.429688 226.089844 C 184.125 227.613281 182.90625 228.835938 181.382812 228.835938 Z M 171.785156 209.941406 L 175.136719 209.941406 C 176.964844 209.941406 178.335938 208.570312 178.335938 206.742188 C 178.335938 204.914062 176.964844 203.390625 175.136719 203.390625 L 171.785156 203.390625 Z M 171.785156 209.941406 " fill-opacity="1" fill-rule="evenodd"/><path fill="#00406d" d="M 195.554688 228.835938 C 193.878906 228.835938 192.507812 227.460938 192.507812 225.785156 L 192.507812 200.34375 C 192.507812 198.664062 193.878906 197.292969 195.554688 197.292969 L 201.953125 197.292969 C 207.132812 197.292969 211.398438 201.5625 211.398438 206.742188 C 211.398438 211.921875 207.132812 216.035156 201.953125 216.035156 L 198.601562 216.035156 L 198.601562 225.785156 C 198.601562 227.460938 197.230469 228.835938 195.554688 228.835938 Z M 198.601562 209.941406 L 201.953125 209.941406 C 203.78125 209.941406 205.304688 208.570312 205.304688 206.742188 C 205.304688 204.914062 203.78125 203.390625 201.953125 203.390625 L 198.601562 203.390625 Z M 198.601562 209.941406 " fill-opacity="1" fill-rule="evenodd"/></svg>