<svg xmlns="http://www.w3.org/2000/svg" xmlns:xlink="http://www.w3.org/1999/xlink" width="500" zoomAndPan="magnify" viewBox="0 0 375 374.999991" height="500" preserveAspectRatio="xMidYMid meet" version="1.0"><defs><clipPath id="67f5a4bf03"><path d="M 43.527344 81.25 L 184.527344 81.25 L 184.527344 164 L 43.527344 164 Z M 43.527344 81.25 " clip-rule="nonzero"/></clipPath><clipPath id="58a06ec9f1"><path d="M 60 118 L 167 118 L 167 231.25 L 60 231.25 Z M 60 118 " clip-rule="nonzero"/></clipPath><clipPath id="95e5fc9c5a"><path d="M 257 81.25 L 268 81.25 L 268 92 L 257 92 Z M 257 81.25 " clip-rule="nonzero"/></clipPath><clipPath id="ecf97f9577"><path d="M 257 220 L 268 220 L 268 231.25 L 257 231.25 Z M 257 220 " clip-rule="nonzero"/></clipPath><clipPath id="937a37102f"><path d="M 326 150 L 337.5 150 L 337.5 162 L 326 162 Z M 326 150 " clip-rule="nonzero"/></clipPath><clipPath id="b27a668255"><path d="M 187.5 150 L 199 150 L 199 162 L 187.5 162 Z M 187.5 150 " clip-rule="nonzero"/></clipPath></defs><path fill="#3b5998" d="M 118.800781 183.609375 C 118.1875 183.609375 117.574219 183.347656 117.222656 182.820312 L 113.09375 177.636719 L 110.019531 177.636719 L 110.019531 181.589844 C 110.019531 182.734375 109.050781 183.609375 108 183.609375 C 106.855469 183.609375 105.976562 182.734375 105.976562 181.589844 L 105.976562 168.238281 C 105.976562 167.097656 106.855469 166.21875 108 166.21875 L 114.9375 166.21875 C 118.097656 166.21875 120.648438 168.765625 120.648438 171.929688 C 120.648438 174.125 119.417969 175.96875 117.660156 176.933594 L 120.382812 180.359375 C 120.996094 181.238281 120.910156 182.46875 120.03125 183.171875 C 119.679688 183.433594 119.242188 183.609375 118.800781 183.609375 Z M 114.148438 173.597656 L 114.9375 173.597656 C 115.816406 173.597656 116.605469 172.894531 116.605469 171.929688 C 116.605469 171.050781 115.816406 170.261719 114.9375 170.261719 L 110.019531 170.261719 L 110.019531 173.597656 L 114.058594 173.597656 C 114.058594 173.597656 114.058594 173.597656 114.148438 173.597656 Z M 114.148438 173.597656 " fill-opacity="1" fill-rule="evenodd"/><path fill="#3b5998" d="M 96.929688 183.609375 C 91.835938 183.609375 89.203125 179.21875 89.203125 174.914062 C 89.203125 172.71875 89.816406 170.699219 91.046875 169.117188 C 92.453125 167.273438 94.558594 166.21875 96.929688 166.21875 C 99.828125 166.21875 102.375 167.800781 103.695312 170.347656 C 104.222656 171.3125 103.871094 172.542969 102.902344 173.070312 C 101.851562 173.597656 100.707031 173.160156 100.179688 172.191406 C 99.476562 171.050781 98.25 170.261719 96.929688 170.261719 C 95.789062 170.261719 94.910156 170.699219 94.207031 171.578125 C 93.59375 172.367188 93.242188 173.597656 93.242188 174.914062 C 93.242188 176.671875 94.03125 179.570312 96.929688 179.570312 C 98.25 179.570312 99.476562 178.78125 100.179688 177.636719 C 100.621094 176.671875 101.851562 176.234375 102.902344 176.757812 C 103.871094 177.285156 104.222656 178.515625 103.695312 179.484375 C 102.375 182.03125 99.828125 183.609375 96.929688 183.609375 Z M 96.929688 183.609375 " fill-opacity="1" fill-rule="evenodd"/><path fill="#3b5998" d="M 135.492188 183.609375 C 134.4375 183.609375 133.46875 182.734375 133.46875 181.589844 L 133.46875 178.605469 L 131.976562 182.382812 C 131.714844 183.082031 130.921875 183.609375 130.132812 183.609375 C 129.34375 183.609375 128.550781 183.082031 128.289062 182.382812 L 126.707031 178.605469 L 126.707031 181.589844 C 126.707031 182.734375 125.828125 183.609375 124.6875 183.609375 C 123.632812 183.609375 122.753906 182.734375 122.753906 181.589844 L 122.753906 168.238281 C 122.753906 167.273438 123.371094 166.484375 124.335938 166.308594 C 125.300781 166.132812 126.269531 166.570312 126.621094 167.449219 L 130.132812 176.234375 L 133.644531 167.449219 C 133.996094 166.570312 134.964844 166.132812 135.929688 166.308594 C 136.808594 166.484375 137.511719 167.273438 137.511719 168.238281 L 137.511719 181.589844 C 137.511719 182.734375 136.632812 183.609375 135.492188 183.609375 Z M 135.492188 183.609375 " fill-opacity="1" fill-rule="evenodd"/><g clip-path="url(#67f5a4bf03)"><path fill="#3b5998" d="M 165.882812 163.761719 L 156.484375 163.761719 C 155.429688 163.761719 154.550781 162.882812 154.550781 161.738281 C 154.550781 160.6875 155.429688 159.808594 156.484375 159.808594 L 165.882812 159.808594 C 173.699219 159.808594 180.113281 153.394531 180.113281 145.488281 C 180.113281 137.847656 174.136719 131.613281 166.496094 131.261719 C 165.882812 131.171875 165.179688 130.820312 164.914062 130.207031 C 164.5625 129.59375 164.5625 128.890625 164.828125 128.273438 C 165.96875 126.253906 166.585938 123.882812 166.585938 121.511719 C 166.585938 113.605469 160.171875 107.28125 152.265625 107.28125 C 149.71875 107.28125 147.261719 107.894531 145.066406 109.214844 C 144.539062 109.566406 143.835938 109.566406 143.21875 109.300781 C 142.605469 109.039062 142.167969 108.511719 142.078125 107.894531 C 140.761719 101.222656 134.875 96.390625 128.113281 96.390625 C 124.6875 96.390625 121.347656 97.621094 118.800781 99.816406 C 118.273438 100.253906 117.484375 100.429688 116.871094 100.253906 C 116.167969 99.992188 115.726562 99.464844 115.550781 98.847656 C 113.445312 90.855469 106.242188 85.324219 97.984375 85.324219 C 87.972656 85.324219 79.890625 93.402344 79.890625 103.417969 C 79.890625 103.945312 79.890625 104.558594 79.980469 105.085938 C 79.980469 105.699219 79.804688 106.226562 79.363281 106.667969 C 78.925781 107.105469 78.398438 107.371094 77.78125 107.28125 C 77.429688 107.28125 77.078125 107.28125 76.730469 107.28125 C 68.824219 107.28125 62.5 113.695312 62.5 121.511719 C 62.5 123.882812 63.027344 126.167969 64.167969 128.273438 C 64.519531 128.890625 64.433594 129.679688 64.082031 130.292969 C 63.730469 130.910156 63.027344 131.261719 62.324219 131.261719 C 62.148438 131.261719 61.972656 131.261719 61.796875 131.261719 C 53.890625 131.261719 47.566406 137.585938 47.566406 145.488281 C 47.566406 153.394531 53.890625 159.808594 61.796875 159.808594 L 71.105469 159.808594 C 72.25 159.808594 73.128906 160.6875 73.128906 161.738281 C 73.128906 162.882812 72.25 163.761719 71.105469 163.761719 L 61.796875 163.761719 C 51.695312 163.761719 43.527344 155.589844 43.527344 145.488281 C 43.527344 136.265625 50.464844 128.539062 59.425781 127.394531 C 58.722656 125.464844 58.457031 123.53125 58.457031 121.511719 C 58.457031 111.761719 66.1875 103.679688 75.851562 103.242188 C 75.9375 91.121094 85.863281 81.28125 97.984375 81.28125 C 107.121094 81.28125 115.113281 86.816406 118.539062 95.074219 C 121.347656 93.316406 124.6875 92.347656 128.113281 92.347656 C 135.929688 92.347656 142.78125 97.355469 145.328125 104.558594 C 147.523438 103.679688 149.894531 103.242188 152.265625 103.242188 C 162.367188 103.242188 170.539062 111.410156 170.539062 121.511719 C 170.539062 123.617188 170.1875 125.640625 169.570312 127.570312 C 177.914062 129.242188 184.152344 136.707031 184.152344 145.488281 C 184.152344 155.589844 175.894531 163.761719 165.882812 163.761719 Z M 165.882812 163.761719 " fill-opacity="1" fill-rule="evenodd"/></g><g clip-path="url(#58a06ec9f1)"><path fill="#3b5998" d="M 122.050781 231.21875 L 105.625 231.21875 C 104.574219 231.21875 103.78125 230.515625 103.605469 229.460938 L 100.621094 211.015625 C 96.402344 209.433594 92.628906 207.238281 89.203125 204.429688 L 71.632812 211.101562 C 70.753906 211.453125 69.703125 211.015625 69.175781 210.226562 L 61.007812 195.90625 C 60.480469 195.03125 60.65625 193.976562 61.445312 193.359375 L 75.9375 181.503906 C 75.585938 179.308594 75.410156 177.109375 75.410156 174.914062 C 75.410156 172.71875 75.585938 170.523438 75.9375 168.328125 L 61.445312 156.46875 C 60.65625 155.855469 60.480469 154.800781 61.007812 153.921875 L 69.175781 139.605469 C 69.703125 138.816406 70.753906 138.375 71.632812 138.726562 L 89.203125 145.402344 C 92.628906 142.589844 96.402344 140.394531 100.621094 138.816406 L 103.605469 120.367188 C 103.78125 119.402344 104.574219 118.613281 105.625 118.613281 L 122.050781 118.613281 C 123.019531 118.613281 123.894531 119.402344 124.070312 120.367188 L 127.058594 138.816406 C 131.1875 140.394531 135.050781 142.589844 138.476562 145.402344 L 155.957031 138.726562 C 156.921875 138.375 157.976562 138.816406 158.414062 139.605469 L 166.671875 153.921875 C 167.199219 154.800781 166.9375 155.855469 166.234375 156.46875 L 151.652344 168.328125 C 152.089844 170.523438 152.265625 172.71875 152.265625 174.914062 C 152.265625 177.109375 152.089844 179.308594 151.652344 181.503906 L 166.234375 193.359375 C 166.9375 193.976562 167.199219 195.03125 166.671875 195.90625 L 158.414062 210.226562 C 157.976562 211.015625 156.921875 211.453125 155.957031 211.101562 L 138.476562 204.429688 C 135.050781 207.238281 131.1875 209.433594 127.058594 211.015625 L 124.070312 229.460938 C 123.894531 230.515625 123.019531 231.21875 122.050781 231.21875 Z M 107.296875 227.175781 L 120.382812 227.175781 L 123.28125 209.171875 C 123.371094 208.46875 123.894531 207.851562 124.597656 207.589844 C 129.078125 206.097656 133.207031 203.726562 136.71875 200.5625 C 137.246094 200.125 138.039062 199.949219 138.742188 200.210938 L 155.78125 206.710938 L 162.367188 195.378906 L 148.226562 183.875 C 147.613281 183.433594 147.347656 182.644531 147.523438 181.941406 C 147.964844 179.660156 148.226562 177.285156 148.226562 174.914062 C 148.226562 172.542969 147.964844 170.171875 147.523438 167.886719 C 147.347656 167.183594 147.613281 166.394531 148.226562 165.957031 L 162.367188 154.449219 L 155.78125 143.117188 L 138.742188 149.617188 C 138.039062 149.882812 137.246094 149.707031 136.71875 149.265625 C 133.207031 146.105469 129.078125 143.734375 124.597656 142.238281 C 123.894531 141.976562 123.371094 141.363281 123.28125 140.660156 L 120.382812 122.652344 L 107.296875 122.652344 L 104.398438 140.660156 C 104.308594 141.363281 103.78125 141.976562 103.078125 142.238281 C 98.511719 143.734375 94.472656 146.105469 90.957031 149.265625 C 90.429688 149.707031 89.550781 149.882812 88.851562 149.617188 L 71.808594 143.117188 L 65.308594 154.449219 L 79.453125 165.957031 C 80.066406 166.394531 80.328125 167.183594 80.152344 167.886719 C 79.714844 170.171875 79.453125 172.542969 79.453125 174.914062 C 79.453125 177.285156 79.714844 179.660156 80.152344 181.941406 C 80.328125 182.644531 80.066406 183.433594 79.453125 183.875 L 65.308594 195.378906 L 71.808594 206.710938 L 88.851562 200.210938 C 89.550781 199.949219 90.429688 200.125 90.957031 200.5625 C 94.472656 203.726562 98.511719 206.097656 102.992188 207.589844 C 103.78125 207.851562 104.308594 208.46875 104.398438 209.171875 Z M 107.296875 227.175781 " fill-opacity="1" fill-rule="evenodd"/></g><path fill="#3b5998" d="M 113.796875 205.65625 C 96.84375 205.65625 83.054688 191.867188 83.054688 174.914062 C 83.054688 157.960938 96.84375 144.171875 113.796875 144.171875 C 130.835938 144.171875 144.625 157.960938 144.625 174.914062 C 144.625 191.867188 130.835938 205.65625 113.796875 205.65625 Z M 113.796875 148.125 C 99.039062 148.125 87.09375 160.160156 87.09375 174.914062 C 87.09375 189.671875 99.039062 201.703125 113.796875 201.703125 C 128.550781 201.703125 140.585938 189.671875 140.585938 174.914062 C 140.585938 160.160156 128.550781 148.125 113.796875 148.125 Z M 113.796875 148.125 " fill-opacity="1" fill-rule="evenodd"/><path fill="#3b5998" d="M 269.132812 210.777344 L 255.777344 210.777344 C 254.019531 210.777344 252.527344 209.28125 252.527344 207.4375 L 252.527344 198.386719 C 247.957031 197.332031 243.738281 195.574219 239.785156 193.113281 L 233.371094 199.527344 C 232.050781 200.757812 229.855469 200.757812 228.625 199.527344 L 219.222656 190.125 C 217.902344 188.808594 217.902344 186.699219 219.222656 185.378906 L 225.636719 178.964844 C 223.175781 175.011719 221.417969 170.707031 220.363281 166.222656 L 211.226562 166.222656 C 209.46875 166.222656 207.972656 164.730469 207.972656 162.882812 L 207.972656 149.527344 C 207.972656 147.769531 209.46875 146.277344 211.226562 146.277344 L 220.363281 146.277344 C 221.417969 141.707031 223.175781 137.488281 225.636719 133.535156 L 219.222656 127.121094 C 217.902344 125.800781 217.902344 123.691406 219.222656 122.375 L 228.625 112.972656 C 229.855469 111.652344 232.050781 111.652344 233.371094 112.972656 L 239.785156 119.386719 C 243.738281 116.925781 247.957031 115.167969 252.527344 114.113281 L 252.527344 104.976562 C 252.527344 103.21875 254.019531 101.722656 255.777344 101.722656 L 269.132812 101.722656 C 270.980469 101.722656 272.472656 103.21875 272.472656 104.976562 L 272.472656 114.113281 C 276.957031 115.167969 281.261719 116.925781 285.214844 119.386719 L 291.628906 112.972656 C 292.859375 111.652344 295.058594 111.652344 296.375 112.972656 L 305.777344 122.375 C 307.097656 123.691406 307.097656 125.800781 305.777344 127.121094 L 299.363281 133.535156 C 301.824219 137.488281 303.582031 141.707031 304.636719 146.277344 L 313.6875 146.277344 C 315.53125 146.277344 317.027344 147.769531 317.027344 149.527344 L 317.027344 162.882812 C 317.027344 164.730469 315.53125 166.222656 313.6875 166.222656 L 304.636719 166.222656 C 303.582031 170.707031 301.824219 175.011719 299.363281 178.964844 L 305.777344 185.378906 C 306.394531 185.996094 306.746094 186.875 306.746094 187.753906 C 306.746094 188.632812 306.394531 189.511719 305.777344 190.125 L 296.375 199.527344 C 295.058594 200.757812 292.859375 200.757812 291.628906 199.527344 L 285.214844 193.113281 C 281.261719 195.574219 276.957031 197.332031 272.472656 198.386719 L 272.472656 207.4375 C 272.472656 209.28125 270.980469 210.777344 269.132812 210.777344 Z M 256.042969 207.261719 L 268.957031 207.261719 L 268.957031 196.980469 C 268.957031 196.101562 269.574219 195.398438 270.363281 195.222656 C 275.460938 194.253906 280.207031 192.234375 284.511719 189.421875 C 285.214844 188.894531 286.09375 188.984375 286.710938 189.597656 L 294.003906 196.890625 L 303.140625 187.753906 L 295.847656 180.460938 C 295.234375 179.84375 295.144531 178.964844 295.671875 178.261719 C 298.484375 173.957031 300.503906 169.210938 301.472656 164.113281 C 301.648438 163.324219 302.351562 162.707031 303.230469 162.707031 L 313.511719 162.707031 L 313.511719 149.792969 L 303.230469 149.792969 C 302.351562 149.792969 301.648438 149.175781 301.472656 148.386719 C 300.503906 143.289062 298.484375 138.542969 295.671875 134.238281 C 295.144531 133.535156 295.234375 132.65625 295.847656 132.039062 L 303.140625 124.746094 L 294.003906 115.519531 L 286.710938 122.902344 C 286.09375 123.429688 285.214844 123.515625 284.511719 123.078125 C 280.207031 120.179688 275.460938 118.246094 270.363281 117.277344 C 269.574219 117.101562 268.957031 116.3125 268.957031 115.519531 L 268.957031 105.238281 L 256.042969 105.238281 L 256.042969 115.519531 C 256.042969 116.3125 255.425781 117.101562 254.636719 117.277344 C 249.539062 118.246094 244.792969 120.179688 240.488281 123.078125 C 239.785156 123.515625 238.90625 123.429688 238.289062 122.902344 L 230.996094 115.609375 L 221.769531 124.746094 L 229.152344 132.039062 C 229.679688 132.65625 229.765625 133.535156 229.328125 134.238281 C 226.429688 138.542969 224.496094 143.289062 223.441406 148.386719 C 223.351562 149.175781 222.5625 149.792969 221.769531 149.792969 L 211.488281 149.792969 L 211.488281 162.707031 L 221.769531 162.707031 C 222.5625 162.707031 223.351562 163.324219 223.527344 164.113281 C 224.496094 169.210938 226.429688 173.957031 229.328125 178.261719 C 229.765625 178.964844 229.679688 179.84375 229.152344 180.460938 L 221.769531 187.753906 L 230.996094 196.890625 L 238.289062 189.597656 C 238.90625 188.984375 239.785156 188.894531 240.488281 189.421875 C 244.792969 192.234375 249.539062 194.253906 254.636719 195.222656 C 255.425781 195.398438 256.042969 196.101562 256.042969 196.980469 Z M 256.042969 207.261719 " fill-opacity="1" fill-rule="evenodd"/><path fill="#3b5998" d="M 262.457031 187.929688 C 244.96875 187.929688 230.644531 173.691406 230.644531 156.117188 C 230.644531 140.476562 241.894531 127.296875 257.273438 124.746094 C 258.238281 124.570312 259.117188 125.1875 259.292969 126.152344 C 259.46875 127.121094 258.765625 128 257.886719 128.175781 C 244.179688 130.460938 234.160156 142.144531 234.160156 156.117188 C 234.160156 171.757812 246.902344 184.414062 262.457031 184.414062 C 278.097656 184.414062 290.75 171.757812 290.75 156.117188 C 290.75 141.882812 280.207031 129.84375 266.148438 128 C 265.179688 127.910156 264.476562 127.03125 264.652344 126.066406 C 264.742188 125.097656 265.621094 124.394531 266.585938 124.570312 C 282.402344 126.59375 294.265625 140.125 294.265625 156.117188 C 294.265625 173.691406 280.03125 187.929688 262.457031 187.929688 Z M 262.457031 187.929688 " fill-opacity="1" fill-rule="evenodd"/><path fill="#3b5998" d="M 270.714844 111.917969 L 254.285156 111.917969 C 253.316406 111.917969 252.527344 111.128906 252.527344 110.160156 C 252.527344 109.195312 253.316406 108.402344 254.285156 108.402344 L 270.714844 108.402344 C 271.683594 108.402344 272.472656 109.195312 272.472656 110.160156 C 272.472656 111.128906 271.683594 111.917969 270.714844 111.917969 Z M 270.714844 111.917969 " fill-opacity="1" fill-rule="evenodd"/><path fill="#3b5998" d="M 300.945312 131.25 C 300.417969 131.25 299.976562 131.074219 299.625 130.722656 L 288.027344 119.035156 C 287.324219 118.332031 287.324219 117.277344 288.027344 116.574219 C 288.730469 115.871094 289.785156 115.871094 290.488281 116.574219 L 302.175781 128.261719 C 302.789062 128.878906 302.789062 130.019531 302.175781 130.722656 C 301.824219 131.074219 301.382812 131.25 300.945312 131.25 Z M 300.945312 131.25 " fill-opacity="1" fill-rule="evenodd"/><path fill="#3b5998" d="M 308.589844 166.222656 C 307.621094 166.222656 306.832031 165.433594 306.832031 164.464844 L 306.832031 148.035156 C 306.832031 147.066406 307.621094 146.277344 308.589844 146.277344 C 309.554688 146.277344 310.347656 147.066406 310.347656 148.035156 L 310.347656 164.464844 C 310.347656 165.433594 309.554688 166.222656 308.589844 166.222656 Z M 308.589844 166.222656 " fill-opacity="1" fill-rule="evenodd"/><path fill="#3b5998" d="M 289.257812 196.453125 C 288.816406 196.453125 288.378906 196.277344 288.027344 195.925781 C 287.324219 195.222656 287.324219 194.078125 288.027344 193.375 L 299.625 181.777344 C 300.328125 181.074219 301.472656 181.074219 302.175781 181.777344 C 302.789062 182.480469 302.789062 183.535156 302.175781 184.238281 L 290.488281 195.925781 C 290.136719 196.277344 289.695312 196.453125 289.257812 196.453125 Z M 289.257812 196.453125 " fill-opacity="1" fill-rule="evenodd"/><path fill="#3b5998" d="M 270.714844 204.097656 L 254.285156 204.097656 C 253.316406 204.097656 252.527344 203.304688 252.527344 202.339844 C 252.527344 201.371094 253.316406 200.582031 254.285156 200.582031 L 270.714844 200.582031 C 271.683594 200.582031 272.472656 201.371094 272.472656 202.339844 C 272.472656 203.304688 271.683594 204.097656 270.714844 204.097656 Z M 270.714844 204.097656 " fill-opacity="1" fill-rule="evenodd"/><path fill="#3b5998" d="M 235.742188 196.453125 C 235.304688 196.453125 234.777344 196.277344 234.511719 195.925781 L 222.824219 184.238281 C 222.121094 183.535156 222.121094 182.480469 222.824219 181.777344 C 223.527344 181.074219 224.582031 181.074219 225.285156 181.777344 L 236.972656 193.375 C 237.675781 194.078125 237.675781 195.222656 236.972656 195.925781 C 236.621094 196.277344 236.183594 196.453125 235.742188 196.453125 Z M 235.742188 196.453125 " fill-opacity="1" fill-rule="evenodd"/><path fill="#3b5998" d="M 216.410156 166.222656 C 215.445312 166.222656 214.652344 165.433594 214.652344 164.464844 L 214.652344 148.035156 C 214.652344 147.066406 215.445312 146.277344 216.410156 146.277344 C 217.378906 146.277344 218.167969 147.066406 218.167969 148.035156 L 218.167969 164.464844 C 218.167969 165.433594 217.378906 166.222656 216.410156 166.222656 Z M 216.410156 166.222656 " fill-opacity="1" fill-rule="evenodd"/><path fill="#3b5998" d="M 224.054688 131.25 C 223.617188 131.25 223.175781 131.074219 222.824219 130.722656 C 222.121094 130.019531 222.121094 128.878906 222.824219 128.261719 L 234.511719 116.574219 C 235.128906 115.871094 236.269531 115.871094 236.972656 116.574219 C 237.675781 117.277344 237.675781 118.332031 236.972656 119.035156 L 225.285156 130.722656 C 224.933594 131.074219 224.496094 131.25 224.054688 131.25 Z M 224.054688 131.25 " fill-opacity="1" fill-rule="evenodd"/><path fill="#3b5998" d="M 262.457031 105.238281 C 261.488281 105.238281 260.699219 104.449219 260.699219 103.480469 L 260.699219 90.214844 C 260.699219 89.246094 261.488281 88.457031 262.457031 88.457031 C 263.421875 88.457031 264.214844 89.246094 264.214844 90.214844 L 264.214844 103.480469 C 264.214844 104.449219 263.421875 105.238281 262.457031 105.238281 Z M 262.457031 105.238281 " fill-opacity="1" fill-rule="evenodd"/><g clip-path="url(#95e5fc9c5a)"><path fill="#3b5998" d="M 262.457031 91.96875 C 259.554688 91.96875 257.097656 89.511719 257.097656 86.609375 C 257.097656 83.621094 259.554688 81.25 262.457031 81.25 C 265.445312 81.25 267.816406 83.621094 267.816406 86.609375 C 267.816406 89.511719 265.445312 91.96875 262.457031 91.96875 Z M 262.457031 84.765625 C 261.488281 84.765625 260.609375 85.554688 260.609375 86.609375 C 260.609375 87.578125 261.488281 88.457031 262.457031 88.457031 C 263.511719 88.457031 264.300781 87.578125 264.300781 86.609375 C 264.300781 85.554688 263.511719 84.765625 262.457031 84.765625 Z M 262.457031 84.765625 " fill-opacity="1" fill-rule="evenodd"/></g><path fill="#3b5998" d="M 225.199219 120.617188 C 224.757812 120.617188 224.320312 120.441406 223.96875 120.089844 L 212.367188 108.492188 C 211.664062 107.789062 211.664062 106.734375 212.367188 106.03125 L 219.132812 99.175781 C 219.835938 98.472656 220.980469 98.472656 221.683594 99.175781 C 222.386719 99.878906 222.386719 101.023438 221.683594 101.722656 L 216.058594 107.261719 L 226.429688 117.628906 C 227.132812 118.332031 227.132812 119.386719 226.429688 120.089844 C 226.078125 120.441406 225.636719 120.617188 225.199219 120.617188 Z M 225.199219 120.617188 " fill-opacity="1" fill-rule="evenodd"/><path fill="#3b5998" d="M 223.175781 103.480469 C 220.277344 103.480469 217.816406 101.109375 217.816406 98.121094 C 217.816406 95.222656 220.277344 92.761719 223.175781 92.761719 C 226.164062 92.761719 228.535156 95.222656 228.535156 98.121094 C 228.535156 101.109375 226.164062 103.480469 223.175781 103.480469 Z M 223.175781 96.277344 C 222.210938 96.277344 221.332031 97.15625 221.332031 98.121094 C 221.332031 99.175781 222.210938 99.96875 223.175781 99.96875 C 224.230469 99.96875 225.023438 99.175781 225.023438 98.121094 C 225.023438 97.15625 224.230469 96.277344 223.175781 96.277344 Z M 223.175781 96.277344 " fill-opacity="1" fill-rule="evenodd"/><path fill="#3b5998" d="M 262.457031 224.042969 C 261.488281 224.042969 260.699219 223.253906 260.699219 222.285156 L 260.699219 209.019531 C 260.699219 208.050781 261.488281 207.261719 262.457031 207.261719 C 263.421875 207.261719 264.214844 208.050781 264.214844 209.019531 L 264.214844 222.285156 C 264.214844 223.253906 263.421875 224.042969 262.457031 224.042969 Z M 262.457031 224.042969 " fill-opacity="1" fill-rule="evenodd"/><g clip-path="url(#ecf97f9577)"><path fill="#3b5998" d="M 262.457031 231.25 C 259.554688 231.25 257.097656 228.789062 257.097656 225.890625 C 257.097656 222.902344 259.554688 220.53125 262.457031 220.53125 C 265.445312 220.53125 267.816406 222.902344 267.816406 225.890625 C 267.816406 228.789062 265.445312 231.25 262.457031 231.25 Z M 262.457031 224.042969 C 261.488281 224.042969 260.609375 224.835938 260.609375 225.890625 C 260.609375 226.855469 261.488281 227.734375 262.457031 227.734375 C 263.511719 227.734375 264.300781 226.855469 264.300781 225.890625 C 264.300781 224.835938 263.511719 224.042969 262.457031 224.042969 Z M 262.457031 224.042969 " fill-opacity="1" fill-rule="evenodd"/></g><path fill="#3b5998" d="M 299.800781 120.707031 C 299.363281 120.707031 298.921875 120.53125 298.570312 120.179688 C 297.867188 119.476562 297.867188 118.332031 298.570312 117.628906 L 308.941406 107.261719 L 303.316406 101.722656 C 302.613281 101.023438 302.613281 99.878906 303.316406 99.265625 C 304.019531 98.5625 305.164062 98.5625 305.867188 99.265625 L 312.632812 106.03125 C 312.984375 106.382812 313.160156 106.820312 313.160156 107.261719 C 313.160156 107.789062 312.984375 108.226562 312.632812 108.578125 L 301.03125 120.179688 C 300.679688 120.53125 300.242188 120.707031 299.800781 120.707031 Z M 299.800781 120.707031 " fill-opacity="1" fill-rule="evenodd"/><path fill="#3b5998" d="M 301.824219 103.570312 C 298.835938 103.570312 296.464844 101.109375 296.464844 98.210938 C 296.464844 95.222656 298.835938 92.847656 301.824219 92.847656 C 304.8125 92.847656 307.183594 95.222656 307.183594 98.210938 C 307.183594 101.109375 304.722656 103.570312 301.824219 103.570312 Z M 301.824219 96.363281 C 300.769531 96.363281 299.976562 97.15625 299.976562 98.210938 C 299.976562 99.175781 300.769531 100.054688 301.824219 100.054688 C 302.789062 100.054688 303.667969 99.175781 303.667969 98.210938 C 303.667969 97.15625 302.789062 96.363281 301.824219 96.363281 Z M 301.824219 96.363281 " fill-opacity="1" fill-rule="evenodd"/><path fill="#3b5998" d="M 328.535156 157.964844 L 315.269531 157.964844 C 314.300781 157.964844 313.511719 157.171875 313.511719 156.207031 C 313.511719 155.238281 314.300781 154.449219 315.269531 154.449219 L 328.535156 154.449219 C 329.503906 154.449219 330.292969 155.238281 330.292969 156.207031 C 330.292969 157.171875 329.503906 157.964844 328.535156 157.964844 Z M 328.535156 157.964844 " fill-opacity="1" fill-rule="evenodd"/><g clip-path="url(#937a37102f)"><path fill="#3b5998" d="M 332.140625 161.566406 C 329.152344 161.566406 326.78125 159.195312 326.78125 156.207031 C 326.78125 153.304688 329.152344 150.847656 332.140625 150.847656 C 335.039062 150.847656 337.5 153.304688 337.5 156.207031 C 337.5 159.195312 335.039062 161.566406 332.140625 161.566406 Z M 332.140625 154.359375 C 331.085938 154.359375 330.292969 155.238281 330.292969 156.207031 C 330.292969 157.261719 331.085938 158.050781 332.140625 158.050781 C 333.105469 158.050781 333.984375 157.261719 333.984375 156.207031 C 333.984375 155.238281 333.105469 154.359375 332.140625 154.359375 Z M 332.140625 154.359375 " fill-opacity="1" fill-rule="evenodd"/></g><path fill="#3b5998" d="M 209.730469 157.964844 L 196.464844 157.964844 C 195.496094 157.964844 194.707031 157.171875 194.707031 156.207031 C 194.707031 155.238281 195.496094 154.449219 196.464844 154.449219 L 209.730469 154.449219 C 210.699219 154.449219 211.488281 155.238281 211.488281 156.207031 C 211.488281 157.171875 210.699219 157.964844 209.730469 157.964844 Z M 209.730469 157.964844 " fill-opacity="1" fill-rule="evenodd"/><g clip-path="url(#b27a668255)"><path fill="#3b5998" d="M 192.859375 161.566406 C 189.871094 161.566406 187.5 159.195312 187.5 156.207031 C 187.5 153.304688 189.871094 150.847656 192.859375 150.847656 C 195.761719 150.847656 198.21875 153.304688 198.21875 156.207031 C 198.21875 159.195312 195.761719 161.566406 192.859375 161.566406 Z M 192.859375 154.359375 C 191.804688 154.359375 191.015625 155.238281 191.015625 156.207031 C 191.015625 157.261719 191.804688 158.050781 192.859375 158.050781 C 193.828125 158.050781 194.707031 157.261719 194.707031 156.207031 C 194.707031 155.238281 193.828125 154.359375 192.859375 154.359375 Z M 192.859375 154.359375 " fill-opacity="1" fill-rule="evenodd"/></g><path fill="#3b5998" d="M 220.363281 213.761719 C 219.925781 213.761719 219.484375 213.585938 219.132812 213.234375 L 212.28125 206.382812 C 212.015625 206.117188 211.839844 205.589844 211.839844 205.152344 C 211.839844 204.710938 212.015625 204.273438 212.28125 203.921875 L 223.878906 192.320312 C 224.582031 191.617188 225.726562 191.617188 226.429688 192.320312 C 227.042969 193.023438 227.042969 194.078125 226.429688 194.78125 L 216.058594 205.152344 L 221.59375 210.777344 C 222.296875 211.476562 222.296875 212.53125 221.59375 213.234375 C 221.332031 213.585938 220.804688 213.761719 220.363281 213.761719 Z M 220.363281 213.761719 " fill-opacity="1" fill-rule="evenodd"/><path fill="#3b5998" d="M 223.175781 219.652344 C 220.1875 219.652344 217.816406 217.277344 217.816406 214.289062 C 217.816406 211.300781 220.1875 208.929688 223.175781 208.929688 C 226.078125 208.929688 228.535156 211.300781 228.535156 214.289062 C 228.535156 217.277344 226.078125 219.652344 223.175781 219.652344 Z M 223.175781 212.445312 C 222.121094 212.445312 221.332031 213.234375 221.332031 214.289062 C 221.332031 215.257812 222.121094 216.136719 223.175781 216.136719 C 224.144531 216.136719 225.023438 215.257812 225.023438 214.289062 C 225.023438 213.234375 224.144531 212.445312 223.175781 212.445312 Z M 223.175781 212.445312 " fill-opacity="1" fill-rule="evenodd"/><path fill="#3b5998" d="M 304.546875 213.761719 C 304.109375 213.761719 303.667969 213.585938 303.316406 213.234375 C 302.613281 212.53125 302.613281 211.476562 303.316406 210.777344 L 308.941406 205.152344 L 298.570312 194.78125 C 297.867188 194.078125 297.867188 193.023438 298.570312 192.320312 C 299.273438 191.617188 300.417969 191.617188 301.03125 192.320312 L 312.632812 203.921875 C 313.335938 204.625 313.335938 205.765625 312.632812 206.382812 L 305.867188 213.234375 C 305.515625 213.585938 305.074219 213.761719 304.546875 213.761719 Z M 304.546875 213.761719 " fill-opacity="1" fill-rule="evenodd"/><path fill="#3b5998" d="M 301.824219 219.652344 C 298.835938 219.652344 296.464844 217.277344 296.464844 214.289062 C 296.464844 211.300781 298.835938 208.929688 301.824219 208.929688 C 304.722656 208.929688 307.183594 211.300781 307.183594 214.289062 C 307.183594 217.277344 304.722656 219.652344 301.824219 219.652344 Z M 301.824219 212.445312 C 300.769531 212.445312 299.976562 213.234375 299.976562 214.289062 C 299.976562 215.257812 300.769531 216.136719 301.824219 216.136719 C 302.789062 216.136719 303.667969 215.257812 303.667969 214.289062 C 303.667969 213.234375 302.789062 212.445312 301.824219 212.445312 Z M 301.824219 212.445312 " fill-opacity="1" fill-rule="evenodd"/><path fill="#3b5998" d="M 250.417969 165.34375 L 243.652344 165.34375 C 242.683594 165.34375 241.894531 164.554688 241.894531 163.585938 L 241.894531 148.914062 C 241.894531 147.945312 242.683594 147.15625 243.652344 147.15625 L 250.417969 147.15625 C 251.382812 147.15625 252.175781 147.945312 252.175781 148.914062 C 252.175781 149.878906 251.382812 150.671875 250.417969 150.671875 L 245.410156 150.671875 L 245.410156 154.449219 L 250.417969 154.449219 C 251.382812 154.449219 252.175781 155.238281 252.175781 156.207031 C 252.175781 157.171875 251.382812 157.964844 250.417969 157.964844 L 245.410156 157.964844 L 245.410156 161.828125 L 250.417969 161.828125 C 251.382812 161.828125 252.175781 162.621094 252.175781 163.585938 C 252.175781 164.554688 251.382812 165.34375 250.417969 165.34375 Z M 250.417969 165.34375 " fill-opacity="1" fill-rule="evenodd"/><path fill="#3b5998" d="M 265.796875 165.34375 C 265.707031 165.34375 265.621094 165.34375 265.53125 165.34375 C 264.566406 165.167969 263.949219 164.289062 264.039062 163.324219 C 264.390625 160.601562 263.773438 159.28125 263.246094 158.667969 C 262.808594 158.140625 262.191406 157.964844 262.105469 157.964844 L 260.257812 157.964844 L 260.257812 163.585938 C 260.257812 164.554688 259.46875 165.34375 258.5 165.34375 C 257.535156 165.34375 256.746094 164.554688 256.746094 163.585938 L 256.746094 148.914062 C 256.746094 147.945312 257.535156 147.15625 258.5 147.15625 L 262.191406 147.15625 C 265.179688 147.15625 267.550781 149.617188 267.550781 152.601562 C 267.550781 154.097656 266.9375 155.414062 265.972656 156.46875 C 267.378906 158.050781 267.902344 160.601562 267.550781 163.761719 C 267.378906 164.640625 266.675781 165.34375 265.796875 165.34375 Z M 260.257812 154.449219 L 262.191406 154.449219 C 263.246094 154.449219 264.039062 153.65625 264.039062 152.601562 C 264.039062 151.546875 263.246094 150.671875 262.191406 150.671875 L 260.257812 150.671875 Z M 260.257812 154.449219 " fill-opacity="1" fill-rule="evenodd"/><path fill="#3b5998" d="M 273.96875 165.34375 C 273 165.34375 272.210938 164.554688 272.210938 163.585938 L 272.210938 148.914062 C 272.210938 147.945312 273 147.15625 273.96875 147.15625 L 277.65625 147.15625 C 280.644531 147.15625 283.105469 149.617188 283.105469 152.601562 C 283.105469 155.589844 280.644531 157.964844 277.65625 157.964844 L 275.726562 157.964844 L 275.726562 163.585938 C 275.726562 164.554688 274.933594 165.34375 273.96875 165.34375 Z M 275.726562 154.449219 L 277.65625 154.449219 C 278.710938 154.449219 279.589844 153.65625 279.589844 152.601562 C 279.589844 151.546875 278.710938 150.671875 277.65625 150.671875 L 275.726562 150.671875 Z M 275.726562 154.449219 " fill-opacity="1" fill-rule="evenodd"/></svg>