<!DOCTYPE svg PUBLIC "-//W3C//DTD SVG 1.1//EN" "http://www.w3.org/Graphics/SVG/1.1/DTD/svg11.dtd">
<!-- Uploaded to: SVG Find, www.svgrepo.com, Transformed by: SVG Find Mixer Tools -->
<svg fill="#00406d" width="250px" height="250px" version="1.1" viewBox="144 144 512 512" xmlns="http://www.w3.org/2000/svg" stroke="#00406d" stroke-width="5.12">
<g id="SVGRepo_bgCarrier" stroke-width="0"/>
<g id="SVGRepo_tracerCarrier" stroke-linecap="round" stroke-linejoin="round"/>
<g id="SVGRepo_iconCarrier"> <g> <path d="m161.16 579.03h1.3633c1.0312 0 1.8672-0.83594 1.8672-1.8672s-0.83594-1.8672-1.8672-1.8672l-1.3633 0.003906c-1.0312 0-1.8672 0.83594-1.8672 1.8672 0 1.0273 0.83594 1.8633 1.8672 1.8633z"/> <path d="m599.41 579.03c1.0312 0 1.8672-0.83594 1.8672-1.8672s-0.83594-1.8672-1.8672-1.8672h-1.6797c-1.0312 0-1.8672 0.83594-1.8672 1.8672s0.83594 1.8672 1.8672 1.8672z"/> <path d="m222.02 261.8c5.8906 0 10.68-4.8086 10.68-10.715 0-5.8906-4.7891-10.68-10.68-10.68s-10.68 4.7891-10.68 10.68c0 5.9062 4.7891 10.715 10.68 10.715zm0-17.664c3.832 0 6.9492 3.1172 6.9492 6.9492 0 3.8516-3.1172 6.9844-6.9492 6.9844s-6.9492-3.1328-6.9492-6.9844c0-3.832 3.1172-6.9492 6.9492-6.9492z"/> <path d="m250.18 261.8c5.8906 0 10.68-4.8086 10.68-10.715 0-5.8906-4.7891-10.68-10.68-10.68-5.8867 0-10.68 4.7891-10.68 10.68 0.003906 5.9062 4.793 10.715 10.68 10.715zm0-17.664c3.832 0 6.9492 3.1172 6.9492 6.9492 0 3.8516-3.1172 6.9844-6.9492 6.9844-3.832 0-6.9453-3.1328-6.9453-6.9844 0-3.832 3.1172-6.9492 6.9453-6.9492z"/> <path d="m278.35 261.8c5.8906 0 10.68-4.8086 10.68-10.715 0-5.8906-4.7891-10.68-10.68-10.68-5.8867 0-10.68 4.7891-10.68 10.68 0.003906 5.9062 4.793 10.715 10.68 10.715zm0-17.664c3.832 0 6.9492 3.1172 6.9492 6.9492 0 3.8516-3.1172 6.9844-6.9492 6.9844-3.832 0-6.9453-3.1328-6.9453-6.9844 0-3.832 3.1172-6.9492 6.9453-6.9492z"/> <path d="m213.89 397.71h319.38c4.7461 0 8.6055-3.8594 8.6055-8.6055v-79.324c0-4.7422-3.8594-8.6016-8.6055-8.6016h-319.38c-4.7422 0-8.6016 3.8594-8.6016 8.6016v79.328c-0.003907 4.7422 3.8555 8.6016 8.6016 8.6016zm-4.8711-87.93c0-2.6875 2.1836-4.8711 4.8711-4.8711h319.38c2.6875 0 4.8711 2.1836 4.8711 4.8711v79.328c0 2.6875-2.1875 4.8711-4.8711 4.8711h-319.38c-2.6875 0-4.8711-2.1875-4.8711-4.8711z"/> <path d="m346.25 368.34c0.36328 0.36328 0.84375 0.54688 1.3203 0.54688 0.47656 0 0.95313-0.18359 1.3203-0.54688 0.73047-0.73047 0.73047-1.9102 0-2.6367l-16.266-16.262 16.266-16.262c0.73047-0.73047 0.73047-1.9102 0-2.6367-0.73047-0.73047-1.9102-0.73047-2.6367 0l-17.586 17.582c-0.73047 0.73047-0.72656 1.9102 0 2.6367z"/> <path d="m398.27 368.34c0.73047 0.73047 1.9102 0.73047 2.6367 0l17.582-17.582c0.73047-0.73047 0.73047-1.9102 0-2.6367l-17.582-17.582c-0.73047-0.73047-1.9102-0.73047-2.6367 0-0.73047 0.73047-0.73047 1.9102 0 2.6367l16.262 16.262-16.262 16.262c-0.72656 0.73047-0.72656 1.9102 0 2.6406z"/> <path d="m360.61 376.98c0.25781 0.12109 0.52734 0.17969 0.79297 0.17969 0.69922 0 1.3711-0.39453 1.6875-1.0703l24.355-51.703c0.4375-0.92969 0.039063-2.043-0.89453-2.4805-0.93359-0.44531-2.043-0.039062-2.4805 0.89453l-24.355 51.703c-0.4375 0.92578-0.039063 2.0391 0.89453 2.4766z"/> <path d="m222.35 419.96h-12.355c-1.0312 0-1.8672 0.83594-1.8672 1.8672s0.83594 1.8672 1.8672 1.8672h12.355c1.0312 0 1.8672-0.83594 1.8672-1.8672 0-1.0352-0.83594-1.8672-1.8672-1.8672z"/> <path d="m222.35 444.36h-12.355c-1.0312 0-1.8672 0.83594-1.8672 1.8672s0.83594 1.8672 1.8672 1.8672h12.355c1.0312 0 1.8672-0.83594 1.8672-1.8672s-0.83594-1.8672-1.8672-1.8672z"/> <path d="m222.35 468.75h-12.355c-1.0312 0-1.8672 0.83594-1.8672 1.8672s0.83594 1.8672 1.8672 1.8672h12.355c1.0312 0 1.8672-0.83594 1.8672-1.8672s-0.83594-1.8672-1.8672-1.8672z"/> <path d="m222.35 493.15h-12.355c-1.0312 0-1.8672 0.83594-1.8672 1.8672s0.83594 1.8672 1.8672 1.8672h12.355c1.0312 0 1.8672-0.83594 1.8672-1.8672 0-1.0352-0.83594-1.8672-1.8672-1.8672z"/> <path d="m222.35 517.55h-12.355c-1.0312 0-1.8672 0.83594-1.8672 1.8672s0.83594 1.8672 1.8672 1.8672h12.355c1.0312 0 1.8672-0.83594 1.8672-1.8672s-0.83594-1.8672-1.8672-1.8672z"/> <path d="m222.35 541.94h-12.355c-1.0312 0-1.8672 0.83594-1.8672 1.8672s0.83594 1.8672 1.8672 1.8672h12.355c1.0312 0 1.8672-0.83594 1.8672-1.8672s-0.83594-1.8672-1.8672-1.8672z"/> <path d="m242.34 423.7h25.48c1.0312 0 1.8672-0.83594 1.8672-1.8672s-0.83594-1.8672-1.8672-1.8672h-25.48c-1.0312 0-1.8672 0.83594-1.8672 1.8672s0.83203 1.8672 1.8672 1.8672z"/> <path d="m352.24 423.7c1.0312 0 1.8672-0.83594 1.8672-1.8672s-0.83594-1.8672-1.8672-1.8672h-65.891c-1.0312 0-1.8672 0.83594-1.8672 1.8672s0.83594 1.8672 1.8672 1.8672z"/> <path d="m242.34 450.45h92.918c1.0312 0 1.8672-0.83594 1.8672-1.8672s-0.83594-1.8672-1.8672-1.8672l-92.918 0.003906c-1.0312 0-1.8672 0.83594-1.8672 1.8672 0 1.0273 0.83203 1.8633 1.8672 1.8633z"/> <path d="m239.02 470.62c0 1.0312 0.83594 1.8672 1.8672 1.8672h60.059c1.0312 0 1.8672-0.83594 1.8672-1.8672s-0.83594-1.8672-1.8672-1.8672h-60.062c-1.0312 0-1.8633 0.83594-1.8633 1.8672z"/> <path d="m392.26 468.75h-70.523c-1.0312 0-1.8672 0.83594-1.8672 1.8672s0.83594 1.8672 1.8672 1.8672h70.523c1.0312 0 1.8672-0.83594 1.8672-1.8672s-0.83594-1.8672-1.8672-1.8672z"/> <path d="m347.19 493.15h-106.31c-1.0312 0-1.8672 0.83594-1.8672 1.8672s0.83594 1.8672 1.8672 1.8672h106.31c1.0312 0 1.8672-0.83594 1.8672-1.8672 0-1.0352-0.83594-1.8672-1.8672-1.8672z"/> <path d="m290.55 521.28c1.0312 0 1.8672-0.83594 1.8672-1.8672s-0.83594-1.8672-1.8672-1.8672h-49.676c-1.0312 0-1.8672 0.83594-1.8672 1.8672s0.83594 1.8672 1.8672 1.8672z"/> <path d="m325.99 541.94h-83.652c-1.0312 0-1.8672 0.83594-1.8672 1.8672s0.83594 1.8672 1.8672 1.8672h83.652c1.0312 0 1.8672-0.83594 1.8672-1.8672-0.003906-1.0312-0.83594-1.8672-1.8672-1.8672z"/> <path d="m384.08 261.81h156.54c5.8984 0 10.691-4.7969 10.691-10.691v-0.035157c0-5.8984-4.7969-10.691-10.691-10.691h-156.54c-5.8984 0-10.691 4.7969-10.691 10.727 0 5.8945 4.793 10.691 10.691 10.691zm0-17.688h156.54c3.8359 0 6.9609 3.125 6.9609 6.9609v0.035157c0 3.8359-3.125 6.9609-6.9609 6.9609h-156.54c-3.8359 0-6.9609-3.125-6.9609-6.9961 0-3.8398 3.125-6.9609 6.9609-6.9609z"/> <path d="m603.28 450.11h-37.02l-0.003907-210.78c0-10.125-8.2539-18.359-18.398-18.359l-348.56-0.003906c-10.125 0-18.359 8.2383-18.359 18.359v321.32c0 6.0078 2.9414 11.305 7.4141 14.656h-15.141c-1.0312 0-1.8672 0.83594-1.8672 1.8672s0.83594 1.8672 1.8672 1.8672h413.83c1.0312 0 1.8672-0.83594 1.8672-1.8672s-0.83594-1.8672-1.8672-1.8672h-18.664c76.887-92.633 71.648-86.16 72.043-86.82 0.48047-0.80078 0.32031-1.6875-0.25781-2.2656l-35.562-35.562c-0.28906-0.28906-0.83594-0.54688-1.3164-0.54688zm31.059 35.562h-28.293c-0.035156-0.32031-0.10156-0.64844-0.30859-0.92188-1.5117-2.0156-3.6641-2.5664-5.3906-3.0078-1.3203-0.33594-2.4609-0.62891-3.2695-1.4375-0.19141-0.19141-0.28516-0.45703-0.42578-0.6875l7.4883-24.145zm-100.71 58.062c1.5312-1.5312 2-3.3672 2.4141-4.9805 0.17188-0.67578 0.32422-1.2461 0.51172-1.7344 0.1875 0.48828 0.33984 1.0586 0.51172 1.7344 0.41016 1.6172 0.87891 3.4492 2.4141 4.9805 1.5352 1.5352 3.3672 2.0039 4.9844 2.4141 0.67578 0.17188 1.2461 0.32422 1.7305 0.51172-0.48828 0.1875-1.0586 0.33984-1.7305 0.51172-1.6172 0.41406-3.4531 0.87891-4.9844 2.4141-2.125 2.125-2.1992 4.8203-2.9219 6.7148-0.73047-1.9141-0.79688-4.5859-2.9219-6.7148-2.125-2.125-4.8008-2.1953-6.7148-2.9258 0.48828-0.1875 1.0586-0.33594 1.7344-0.51172 1.6055-0.41406 3.4375-0.87891 4.9727-2.4141zm11.754 7.0508c1.7305-0.44141 3.8828-0.99219 5.3906-3.0078 0.49609-0.66406 0.49609-1.5742 0-2.2383-1.5117-2.0156-3.6641-2.5664-5.3906-3.0078-1.3203-0.33594-2.4609-0.62891-3.2695-1.4375-0.80859-0.80859-1.0977-1.9492-1.4336-3.2656-0.44141-1.7305-0.98828-3.8789-3.0078-5.3906-0.66406-0.5-1.5742-0.5-2.2383 0-1.4531 1.0898-2.1328 2.5078-2.5703 3.8633l-38.949-46.895h41.219l24.68 79.344-14.824-17.848c0.14062-0.035157 0.25391-0.082032 0.39453-0.11719zm42.867-67.547c0.015625-0.011719 0.023438-0.035156 0.042969-0.046875 0.097656-0.089844 0.20703-0.14844 0.30469-0.24609 2.125-2.125 2.1992-4.8203 2.9219-6.7148 0.73437 1.9141 0.79297 4.5859 2.9258 6.7148 2.125 2.1289 4.8086 2.1953 6.7148 2.9258-1.9141 0.73047-4.5898 0.79687-6.7148 2.9258-2.125 2.125-2.1914 4.793-2.9258 6.7148-0.73047-1.9219-0.79688-4.5898-2.9219-6.7148s-4.8008-2.1953-6.7148-2.9258c0.48828-0.1875 1.0586-0.33594 1.7344-0.51172 1.4844-0.37891 3.1445-0.84375 4.5977-2.1016 0.003906-0.007812 0.019531-0.007812 0.035156-0.019531zm-7.5039 6.168c0.66797 0.24219 1.332 0.4375 1.9414 0.59375 1.3203 0.33594 2.457 0.625 3.2656 1.4375 0.80859 0.80859 1.0977 1.9492 1.4375 3.2656 0.09375 0.36328 0.19922 0.75391 0.3125 1.1445l-23.316 75.047-25.348-81.488zm1.9414-7.6602c-1.7266 0.44141-3.8789 0.98828-5.3906 3.0078-0.20312 0.27344-0.26953 0.59766-0.30859 0.92188h-36.914l24.289-30.66 20.02 26.23c-0.52344 0.19141-1.0859 0.34375-1.6953 0.5zm-45.535 1.6016-7.3086-23.496c0.26172-0.83594 0.58203-1.6914 1.1914-2.3047 1.0547-1.0508 2.668-1.2227 4.4883-1.7773 1.1836-0.35938 2.6211-1.0586 3.5039-1.9336h21.496zm-2.2578-31.305c-0.44922 0.16016-0.9375 0.30469-1.5352 0.45703-1.6094 0.41406-3.4336 0.88672-4.9531 2.4062-1.3555 1.3516-1.8984 2.9766-2.3047 4.3906-0.019531 0.066406-0.035157 0.14062-0.046875 0.21875-0.16406 0.65234-0.34766 1.457-0.58594 2.0898-0.72266-1.8906-0.79297-4.582-2.9258-6.6914-0.003906-0.003906-0.003906-0.007812-0.007813-0.011718-0.003906-0.003907-0.007812-0.003907-0.011718-0.007813-2.125-2.1133-4.832-2.1953-6.6992-2.9219 1.9141-0.73438 4.6055-0.80078 6.7031-2.9297 2.1445-2.1094 2.2188-4.793 2.9453-6.7109 0.72266 1.8945 0.79688 4.5977 2.9258 6.6914 2.1094 2.1445 4.7812 2.2148 6.6992 2.9414-0.070312 0.03125-0.14062 0.054687-0.20312 0.078124zm-14.027 7.1719c0.17969 0.49609 0.32812 1.0234 0.47656 1.6016 0.4375 1.7227 0.98438 3.8633 3.0039 5.375 0.66406 0.5 1.5781 0.49609 2.2383 0 0.40625-0.30469 0.71484-0.65234 1.0156-1l6.3711 20.48h-39.531zm69.449 40.801c0.03125 0.023437 0.046876 0.054687 0.078126 0.078125 0.33203 0.25 0.72656 0.375 1.1172 0.375 0.39453 0 0.78906-0.125 1.1172-0.375 2.0156-1.5117 2.5664-3.6641 3.0078-5.3906 0.33594-1.3203 0.625-2.457 1.4375-3.2656 0.80859-0.80859 1.9492-1.1016 3.2656-1.4375 0.60938-0.15625 1.2734-0.35156 1.9414-0.59375h32.578l-65.906 79.348zm4.1992-26.102c-0.43359-0.81641-1.0039-1.6055-1.8828-2.2617-0.66406-0.5-1.5742-0.5-2.2383 0-2.0156 1.5117-2.5664 3.6641-3.0078 5.3906-0.13281 0.51953-0.27344 0.98438-0.42578 1.4375l-18.805-24.641h32.582zm-409.85 86.734v-321.32c0-8.0664 6.5625-14.629 14.629-14.629h348.56c8.0859 0 14.664 6.5625 14.664 14.629v210.78h-23.574c-1.4258-1.3711-3.1797-1.8828-4.6445-2.2578-1.3164-0.33594-2.4531-0.625-3.2773-1.4609-0.81641-0.80469-1.1094-1.9414-1.4414-3.2617-0.4375-1.7227-0.98438-3.8633-3-5.375-0.66406-0.5-1.5742-0.5-2.2383 0-2.0156 1.5117-2.5625 3.6562-3.0039 5.3789-0.33594 1.3164-0.625 2.4531-1.4609 3.2773-0.80469 0.81641-1.9414 1.1055-3.2578 1.4414-1.7227 0.4375-3.8672 0.98438-5.3789 3.0039-0.49609 0.66406-0.49609 1.5742 0 2.2383 1.5156 2.0195 3.668 2.5781 5.3945 3.0195 0.57031 0.14844 1.0859 0.29688 1.5742 0.47266l-29.598 29.629c-0.65625 0.65625-0.76172 1.7422-0.11719 2.5117l42.918 51.672c-0.14062 0.23047-0.23438 0.49609-0.42969 0.69141-0.80859 0.80859-1.9492 1.1016-3.2695 1.4375-1.7266 0.44141-3.8789 0.98828-5.3906 3.0078-0.49609 0.66406-0.49609 1.5742 0 2.2383 1.5117 2.0156 3.6641 2.5664 5.3906 3.0078 1.3203 0.33594 2.457 0.625 3.2656 1.4375 0.80859 0.80859 1.0977 1.9492 1.4375 3.2656 0.44141 1.7305 0.98828 3.8789 3.0078 5.3906 0.65625 0.49609 1.5703 0.5 2.2383 0 2.0195-1.5117 2.5664-3.6641 3.0078-5.3945 0.26562-1.0391 0.57031-1.9141 1.0586-2.6562l18.645 22.449-361.08 0.003907c-8.0664 0-14.629-6.5625-14.629-14.629z"/> </g> </g>
</svg>