<svg xmlns="http://www.w3.org/2000/svg" xmlns:xlink="http://www.w3.org/1999/xlink" width="500" zoomAndPan="magnify" viewBox="0 0 375 374.999991" height="500" preserveAspectRatio="xMidYMid meet" version="1.0"><defs><clipPath id="8b5cedf2bb"><path d="M 37.5 37.5 L 303 37.5 L 303 253 L 37.5 253 Z M 37.5 37.5 " clip-rule="nonzero"/></clipPath><clipPath id="49dccfb5f9"><path d="M 56 107 L 337.5 107 L 337.5 337.5 L 56 337.5 Z M 56 107 " clip-rule="nonzero"/></clipPath></defs><path fill="#3b5998" d="M 234.523438 169.367188 L 232.363281 169.367188 C 232.363281 163.644531 231.238281 158.089844 229.027344 152.855469 C 226.890625 147.804688 223.832031 143.265625 219.9375 139.375 C 216.042969 135.480469 211.507812 132.421875 206.457031 130.285156 C 201.222656 128.070312 195.667969 126.949219 189.945312 126.949219 C 184.222656 126.949219 178.664062 128.074219 173.429688 130.285156 C 168.378906 132.421875 163.84375 135.480469 159.949219 139.375 C 156.054688 143.265625 153 147.804688 150.863281 152.855469 C 148.648438 158.089844 147.527344 163.644531 147.527344 169.367188 L 145.367188 169.367188 C 138.277344 169.367188 132.53125 175.113281 132.53125 182.199219 L 132.53125 238.84375 C 132.53125 245.933594 138.277344 251.679688 145.367188 251.679688 L 234.523438 251.679688 C 241.613281 251.679688 247.355469 245.933594 247.355469 238.84375 L 247.355469 182.199219 C 247.355469 175.113281 241.613281 169.367188 234.523438 169.367188 Z M 194.609375 211.023438 L 194.609375 220.183594 C 194.609375 222.761719 192.519531 224.851562 189.945312 224.851562 C 187.367188 224.851562 185.28125 222.761719 185.28125 220.183594 L 185.28125 211.023438 C 181.007812 209.207031 178.015625 204.972656 178.015625 200.042969 C 178.015625 198.929688 178.167969 197.855469 178.449219 196.835938 C 179.851562 191.804688 184.464844 188.113281 189.945312 188.113281 C 195.421875 188.113281 200.039062 191.804688 201.4375 196.835938 C 201.722656 197.855469 201.875 198.929688 201.875 200.042969 C 201.875 204.972656 198.878906 209.207031 194.609375 211.023438 Z M 160.171875 169.367188 C 160.171875 152.949219 173.527344 139.59375 189.945312 139.59375 C 206.363281 139.59375 219.71875 152.949219 219.71875 169.367188 Z M 160.171875 169.367188 " fill-opacity="1" fill-rule="nonzero"/><path fill="#3b5998" d="M 282.324219 112.210938 C 265.777344 112.265625 249.324219 109.984375 233.429688 105.433594 C 218.140625 101.058594 203.507812 94.621094 189.941406 86.300781 L 187.621094 84.875 L 185.332031 86.351562 L 185.070312 86.519531 C 170.390625 95.914062 154.414062 102.867188 137.585938 107.183594 C 122.597656 111.03125 107.136719 112.722656 91.632812 112.214844 L 87.71875 112.089844 L 87.195312 115.964844 C 85.566406 128.035156 84.816406 140.039062 84.964844 151.648438 C 85.183594 169.085938 87.40625 185.792969 91.5625 201.300781 C 96.507812 219.742188 104.242188 236.636719 114.554688 251.503906 C 120.414062 259.953125 127.207031 267.886719 134.742188 275.082031 C 142.839844 282.808594 152.007812 289.886719 161.992188 296.117188 C 169.320312 300.6875 177.253906 304.910156 185.578125 308.664062 C 185.761719 308.746094 185.945312 308.828125 186.128906 308.910156 L 187.726562 309.628906 L 189.375 309.03125 C 198.078125 305.871094 206.351562 302.15625 213.96875 297.980469 C 224.542969 292.1875 234.179688 285.332031 242.613281 277.605469 C 250.421875 270.457031 257.382812 262.390625 263.296875 253.640625 C 273.582031 238.429688 281.007812 220.757812 285.375 201.121094 C 291.148438 175.140625 291.574219 145.648438 286.609375 115.835938 L 286.003906 112.203125 Z M 276.914062 199.238281 C 276.851562 199.523438 276.789062 199.808594 276.722656 200.09375 L 251.292969 200.09375 L 251.292969 241.238281 C 251.292969 248.816406 245.148438 254.957031 237.574219 254.957031 L 189.636719 254.957031 L 189.636719 299.683594 C 189.117188 299.882812 188.589844 300.082031 188.066406 300.277344 C 180.484375 296.808594 173.261719 292.9375 166.578125 288.769531 C 132.9375 267.773438 110.617188 237.941406 100.210938 200.09375 L 128.546875 200.09375 L 128.546875 180.6875 C 128.601562 179.460938 128.949219 174.933594 132.566406 170.988281 C 136.070312 167.160156 140.378906 166.355469 141.621094 166.171875 C 142.609375 166.113281 143.597656 166.058594 144.585938 166.003906 C 144.664062 162.136719 145.21875 158.894531 145.796875 156.472656 C 146.207031 154.746094 146.910156 152.226562 148.140625 149.316406 C 150.425781 143.917969 153.695312 139.070312 157.855469 134.90625 C 162.019531 130.742188 166.867188 127.476562 172.265625 125.191406 C 177.792969 122.855469 183.652344 121.65625 189.6875 121.625 L 189.6875 96.226562 C 202.703125 103.738281 216.59375 109.628906 231.046875 113.765625 C 246.535156 118.199219 262.527344 120.578125 278.636719 120.851562 C 280.46875 132.925781 281.382812 144.910156 281.382812 156.578125 C 281.382812 171.476562 279.890625 185.855469 276.914062 199.238281 Z M 276.914062 199.238281 " fill-opacity="1" fill-rule="nonzero"/><path fill="#3b5998" d="M 165.933594 166.445312 L 189.683594 166.445312 L 189.683594 145.085938 C 176.574219 145.171875 165.933594 154.71875 165.933594 166.445312 Z M 165.933594 166.445312 " fill-opacity="1" fill-rule="nonzero"/><g clip-path="url(#8b5cedf2bb)"><path fill="#3b5998" d="M 61.835938 245.355469 C 53.695312 227.742188 49.144531 208.140625 49.144531 187.496094 C 49.144531 111.207031 111.207031 49.144531 187.496094 49.144531 C 204.816406 49.144531 219.953125 52.890625 224.675781 54.21875 C 238.859375 58.214844 250.9375 64.125 260.957031 70.492188 C 259.691406 73.238281 258.980469 76.296875 258.980469 79.519531 C 258.980469 91.421875 268.632812 101.070312 280.535156 101.070312 C 284.949219 101.070312 289.046875 99.746094 292.464844 97.472656 C 295.796875 95.253906 298.476562 92.132812 300.152344 88.460938 C 301.398438 85.734375 302.089844 82.707031 302.089844 79.515625 C 302.089844 67.613281 292.441406 57.960938 280.535156 57.960938 C 276.210938 57.960938 272.183594 59.238281 268.808594 61.429688 C 261.53125 56.730469 253.835938 52.648438 245.882812 49.285156 C 227.386719 41.460938 207.742188 37.496094 187.496094 37.496094 C 167.246094 37.496094 147.601562 41.460938 129.105469 49.285156 C 120.214844 53.042969 111.644531 57.699219 103.625 63.117188 C 95.683594 68.480469 88.214844 74.640625 81.429688 81.429688 C 74.640625 88.214844 68.480469 95.683594 63.117188 103.625 C 57.699219 111.644531 53.042969 120.214844 49.285156 129.105469 C 41.460938 147.601562 37.496094 167.246094 37.496094 187.496094 C 37.496094 207.742188 41.460938 227.386719 49.285156 245.882812 C 49.957031 247.472656 50.660156 249.054688 51.390625 250.625 C 53.121094 252.617188 55.875 253.324219 58.199219 252.414062 C 60.878906 251.363281 62.480469 248.367188 61.835938 245.355469 Z M 61.835938 245.355469 " fill-opacity="1" fill-rule="nonzero"/></g><g clip-path="url(#49dccfb5f9)"><path fill="#3b5998" d="M 325.703125 129.105469 C 322.863281 122.390625 319.511719 115.851562 315.703125 109.597656 C 313.625 106.960938 309.855469 106.503906 307.390625 108.382812 C 305.195312 110.054688 304.472656 113.242188 305.824219 115.882812 C 310.734375 123.957031 316.710938 135.65625 320.855469 150.632812 C 320.855469 150.632812 325.84375 168.835938 325.84375 187.496094 C 325.84375 263.78125 263.78125 325.84375 187.496094 325.84375 C 170.328125 325.84375 156.46875 322.519531 150.292969 320.761719 C 128.4375 314.539062 111.242188 303.585938 98.359375 292.574219 C 99.382812 290.0625 99.945312 287.316406 99.945312 284.441406 C 99.945312 272.535156 90.296875 262.886719 78.390625 262.886719 C 76.222656 262.886719 74.125 263.207031 72.148438 263.804688 C 63.289062 266.484375 56.839844 274.707031 56.839844 284.441406 C 56.839844 296.34375 66.488281 305.996094 78.394531 305.996094 C 82.984375 305.996094 87.238281 304.558594 90.734375 302.113281 C 94.859375 305.597656 99.167969 308.859375 103.625 311.871094 C 111.644531 317.289062 120.21875 321.945312 129.105469 325.703125 C 147.601562 333.527344 167.246094 337.492188 187.496094 337.492188 C 207.742188 337.492188 227.386719 333.527344 245.882812 325.703125 C 254.773438 321.945312 263.347656 317.289062 271.367188 311.871094 C 279.308594 306.507812 286.773438 300.347656 293.5625 293.558594 C 300.347656 286.773438 306.507812 279.304688 311.875 271.363281 C 317.292969 263.34375 321.945312 254.773438 325.703125 245.882812 C 333.527344 227.386719 337.496094 207.742188 337.496094 187.496094 C 337.492188 167.246094 333.527344 147.601562 325.703125 129.105469 Z M 325.703125 129.105469 " fill-opacity="1" fill-rule="nonzero"/></g></svg>