<!DOCTYPE svg PUBLIC "-//W3C//DTD SVG 1.1//EN" "http://www.w3.org/Graphics/SVG/1.1/DTD/svg11.dtd">
<!-- Uploaded to: SVG Find, www.svgrepo.com, Transformed by: SVG Find Mixer Tools -->
<svg fill="#00406d" width="250px" height="250px" version="1.1" viewBox="144 144 512 512" xmlns="http://www.w3.org/2000/svg" stroke="#00406d" stroke-width="5.12">
<g id="SVGRepo_bgCarrier" stroke-width="0"/>
<g id="SVGRepo_tracerCarrier" stroke-linecap="round" stroke-linejoin="round"/>
<g id="SVGRepo_iconCarrier"> <g> <path d="m574.12 572.17c0.74609-0.71094 0.78516-1.8672 0.078125-2.6133-0.71094-0.74609-1.9062-0.78516-2.6484-0.074219-0.74609 0.70703-0.78516 1.8672-0.039063 2.6133 0.33984 0.41016 0.82422 0.59766 1.3438 0.59766 0.44922-0.003906 0.89453-0.1875 1.2656-0.52344z"/> <path d="m567.45 565.11c0.74609-0.70703 0.78516-1.8672 0.078126-2.6133-0.71094-0.78516-1.9062-0.78516-2.6484-0.074219-0.74609 0.70703-0.78516 1.9023-0.078125 2.6133 0.67578 0.73828 1.8125 0.83203 2.6484 0.074219z"/> <path d="m560.77 558.06c0.71094-0.70703 0.78516-1.8672 0.039063-2.6133-0.67578-0.74609-1.8672-0.78516-2.6133-0.074218-0.74609 0.70703-0.78516 1.8672-0.078125 2.6094 0.71484 0.78516 1.8633 0.79297 2.6523 0.078125z"/> <path d="m560.36 337.58c-0.82422 0.63281-0.93359 1.793-0.30078 2.6133 0.66406 0.80078 1.7617 0.95312 2.6133 0.30078 0.82031-0.63281 0.93359-1.8281 0.29688-2.6133-0.63672-0.82031-1.8281-0.93359-2.6094-0.30078z"/> <path d="m568.79 333.21c0.58984 0.76953 1.7773 0.97656 2.6484 0.30078 0.78516-0.63281 0.93359-1.793 0.30078-2.6133-0.63281-0.82031-1.8281-0.93359-2.6484-0.30078-0.78516 0.63672-0.9375 1.793-0.30078 2.6133z"/> <path d="m161.16 635.12h3.3672c1.0312 0 1.8672-0.83594 1.8672-1.8672s-0.83594-1.8672-1.8672-1.8672l-3.3672 0.003906c-1.0312 0-1.8672 0.83594-1.8672 1.8672s0.83594 1.8633 1.8672 1.8633z"/> <path d="m638.84 631.39h-2.1133c-1.0312 0-1.8672 0.83594-1.8672 1.8672s0.83594 1.8672 1.8672 1.8672l2.1133-0.003906c1.0312 0 1.8672-0.83594 1.8672-1.8672 0-1.0273-0.83594-1.8633-1.8672-1.8633z"/> <path d="m292.14 284.29c-0.74609 0.67188-0.85938 1.8281-0.14844 2.6094 0.37109 0.41016 0.85547 0.63672 1.3828 0.63672 0.44922 0 0.89453-0.14844 1.2305-0.44922 0.78516-0.67188 0.85547-1.8672 0.1875-2.6484-0.67578-0.78125-1.8672-0.85547-2.6523-0.14844z"/> <path d="m277.93 268.09c-0.78516 0.67188-0.85547 1.8672-0.14844 2.6523 0.33984 0.41016 0.85938 0.63281 1.3828 0.63281 0.44922 0 0.89844-0.1875 1.2305-0.48828 0.78516-0.67188 0.85938-1.8672 0.1875-2.6094-0.71094-0.78516-1.8711-0.85938-2.6523-0.1875z"/> <path d="m270.8 259.99c-0.74219 0.70703-0.82031 1.8672-0.14453 2.6484 0.70703 0.78516 1.9102 0.85156 2.6094 0.14844 0.78516-0.67187 0.85938-1.8281 0.19141-2.6094-0.67969-0.78516-1.8711-0.85938-2.6562-0.1875z"/> <path d="m285.05 276.19c-0.78516 0.67188-0.85547 1.8672-0.1875 2.6094 0.61719 0.74609 1.8008 0.86719 2.6484 0.1875 0.74609-0.67188 0.85938-1.8672 0.14844-2.6484-0.66406-0.74609-1.8242-0.82031-2.6094-0.14844z"/> <path d="m231.9 164.87c-28.348 0-51.406 23.059-51.406 51.406 0 28.379 23.059 51.469 51.406 51.469 12.949 0 24.762-4.8438 33.82-12.766 0.19922-0.078125 0.39453-0.19531 0.52734-0.36328 0.10156-0.09375 0.15625-0.21484 0.23047-0.32813 10.348-9.4219 16.895-22.949 16.895-38.012-0.003906-28.348-23.094-51.406-51.473-51.406zm0 99.141c-26.289 0-47.672-21.414-47.672-47.738 0-26.289 21.387-47.672 47.672-47.672 26.324 0 47.738 21.387 47.738 47.672 0 26.324-21.414 47.738-47.738 47.738z"/> <path d="m198.5 613.55 29.484 17.844h-44.805c-1.0312 0-1.8672 0.83594-1.8672 1.8672s0.83594 1.8672 1.8672 1.8672h92.797c1.0312 0 1.8672-0.83594 1.8672-1.8672s-0.83594-1.8672-1.8672-1.8672h-34.621l29.473-17.844c7.3164-4.4297 13.777-9.9766 19.258-16.316 24.746 18.262 53.07 29.844 83.133 34.16h-78.582c-1.0312 0-1.8672 0.83594-1.8672 1.8672s0.83594 1.8672 1.8672 1.8672h219.2c1.0312 0 1.8672-0.83594 1.8672-1.8672s-0.83594-1.8672-1.8672-1.8672h-87.18c41.23-5.9609 78.098-25.535 105.92-54.012 0.11328-0.074218 0.24219-0.12891 0.33984-0.23047 1.4688-1.5117 2.8711-3.0664 4.2852-4.6172 0.015625-0.019531 0.035157-0.039062 0.050781-0.054687 31.133-34.23 48.242-78.227 48.242-124.65 0-100.8-80.551-182.87-180.79-185.4-1.5586-0.039063-3.1094-0.11719-4.6758-0.11719-94.457 0-174.61 71.695-184.53 166.07-0.98047 9.3789-1.2227 19.773-0.85156 27.336 0.015625 0.36328 0.027344 0.73438 0.042969 1.0938-11.617 7.3945-29.133 15.715-53.902 20.562-0.87891 0.16406-1.5117 0.93359-1.5117 1.8242v64.766c0 28.277 15.027 54.941 39.215 69.59zm167.44-25.164c0.92578 6.0312-1.2227 10.477-6.7461 13.984-1.668 1.0273-2.8086 2.707-3.2852 3.8516-2.3633 4.9805-3.8242 5.6094-9.3555 4.2969-0.76172-0.35156-1.4492-0.5-2-0.61719-0.50391-0.10938-1.0234-0.003906-1.4453 0.28516-0.17578 0.12109-0.35938 0.21094-0.54297 0.30469-0.32422 0.16797-0.64453 0.33984-0.95703 0.55859-0.89062 0.61719-1.0547 1.8438-0.41016 2.6758 1.4922 1.9297 2.5703 4.2734 4.6875 5.9648 1.1367 0.94531 1.2539 1.2578 0.82422 1.9062-13.195-4.043-25.879-9.5781-37.73-16.465 0.027344-11.18-0.007813-22.359-0.078125-33.496 0.039062-2.1406-0.64844-4.1172-1.918-5.8164 1.9883-7.0508 3.0625-14.398 3.0625-21.867v-52.559c1.5977 0.44141 3.2773 0.73047 4.9297 0.52734 8.5273-1.0234 16.09 2.7031 18.828 9.2383 1.707 4.3711 4.7148 5.6523 9.1797 3.9062 2.2461-0.83203 5.1758-0.51172 7.6367 0.85156 1.9219 1.0664 3.2617 2.6367 3.5938 4.2383 0.83984 3.6289 2.4688 6.2227 4.8438 7.7031 2.625 1.6328 6.0508 1.9297 10.344 0.91797 1.1289-0.19141 2.7734-0.097656 4.3281 0.23828 7.418 1.7812 13.598 5.9531 19.578 9.9922l2.2852 1.5352c2.7617 1.8633 3.3477 5.6133 1.4062 9.1523-1.1797 2.2305-1.6328 4.375-2.6055 6.4883l-0.30469 0.75391c-0.25 0.62891-0.67188 1.6836-0.76172 1.832-6.4023 2.2734-6.9922 6.9844-7.4727 10.766-0.082031 0.65234-0.16406 1.3008-0.28125 1.9844-0.73047 4.8047-0.34375 9.0078-4.3281 12.246-0.20312 0.20312-0.40625 0.43359-0.61328 0.66797-0.23438 0.26953-0.625 0.71484-0.85156 0.76953-4.2852 0.30859-6.5508 2.7734-8.543 4.9453-1.0742 1.168-2.0898 2.2695-3.4062 3.0078-1.7578 1.0547-2.2148 3.7852-1.8906 5.2305zm-60.797-16.887c0 0.042969 0.019531 0.078125 0.019531 0.11719 0.066406 10.441 0.085937 20.883 0.066406 31.324-4.3594-2.6758-8.6211-5.543-12.781-8.6055 5.418-6.8828 9.7109-14.598 12.695-22.836zm207.84-38.332-0.082031-0.17969c-0.67969-2.7656-6.4688-4.3203-7.5859-4.5039l-1.0312-0.11719c-3.0664-0.33984-4.9141-0.54688-7.3906-3.0977-2.6836-2.5508-5.5938-3.3164-8.4336-3.3164-2.375 0-4.6992 0.53906-6.7891 1.0234l-1.2188 0.26953c-9.9062 2.1406-19.266 4.1641-30.887-0.57031l-1.0078-0.39844c-10.215-4.0312-19.867-7.8398-25.145-16.832-1.3438-2.0938-3.8008-3.8867-5.9844-5.4805-7.0273-5.1211-10.559-10.801-11.125-17.93-0.75-6.8359 1.1602-13.816-4.4766-22.016 0.39844-0.80859 1.8086-2.2812 2.5664-3.2812 1.5898-2.1719 3.832-3.9648 5.0586-6.7461 0.23828-0.54688 0.4375-1.1133 0.63672-1.6758 0.78906-2.2305 1.2227-3.457 3.9258-3.7266 1.3867-0.19531 2.5859-1.3359 3.0586-2.3672 0.39844-0.86719 0.35938-1.7734 0.042969-2.2227-1.3008-3.0156-0.097656-4.5195 2.3242-7.1328 0.48438-0.52344 0.97266-1.0547 1.4297-1.6016 0.058594-0.066406 0.3125-0.42969 0.35938-0.50781 0.39062-0.53516 1.1133-1.5273 0.79297-2.8086-0.32031-1.3125-0.53906-3.0469 0.26953-3.8789 0.61719-0.63281 2.5156-1.5039 8.3281-0.22266 0.5625 0.13281 1.168-0.023437 1.6172-0.40625 0.44531-0.38281 0.67969-0.95312 0.64453-1.5352-0.15625-2.4336 0.17188-4.0195 1.0352-5 1.1055-1.2461 3.3672-1.8984 7.3242-2.1211 3.7734-0.1875 7.2578-1.0352 10.629-1.8516 1.2422-0.30078 2.4922-0.60547 3.6367-0.85938 0.69531-0.097657 1.2773-0.38281 1.7852-0.63281 0.23828-0.11719 0.59766-0.29297 0.82812-0.30469l3.4766-0.027344c8.4023-0.0625 16.727-0.125 26.25-0.12109-0.066406 0.5625-0.12109 1.1055-0.17578 1.6328-0.19922 1.9297-0.37109 3.5938-0.82812 5.1445-1.5859 5.8672 1.6641 7.3164 7.1875 9.0039 6.875 2.168 13.645 5.3359 20.25 8.4219 1.1016 0.47266 2.2734 1.2969 3.5195 2.168 0.90234 0.63281 1.8203 1.2734 2.8164 1.8516 1.8711 1.0039 4.2617 2.0039 6.1094 0.85937 1.1992-0.74219 1.7773-2.1328 1.7188-4.1797-0.13672-2.6602-0.058594-4.1836 0.19141-4.5078 0.94531-0.44141 5.8008 1.4258 7.4023 2.0391 12.109 4.6641 23.859 6.7266 36.027 6.3633 1.8594-0.015625 6.7188-0.066406 9.2812-3.2812 0.019532 0.29297 0.050782 0.58594 0.066407 0.87891 0.16406 2.7305 0.32031 10.047 0.32031 10.422 0 46.258-17.445 89.469-47.426 122.34-0.73828 0.80859-1.5156 1.582-2.2656 2.3789-3.4141-6.1172-9.25-11.098-13.633-16.457-3.9062-4.8438-5.707-7.332-3.9414-10.914 1.793-3.4062-0.023437-8.1641-1.4844-11.984zm20.41-129.43c0.67969 1.5508 0.83984 2.7266 0.47656 3.6016-0.375 0.90625-1.3906 1.7383-3.1719 2.5781-0.78125-1.168-1.5625-2.3086-2.3359-3.4336-2.3359-3.4062-4.5391-6.625-6.3203-9.957-0.53906-1.0391-1.4062-1.6992-2.4492-1.8555-2.5508-0.35938-5.2109 2.3281-8.3008 5.4727-1.2266 1.2461-3.0977 3.1484-4.3125 3.9844l-0.78906-1.2852c-2.0977-3.4375-4.0781-6.6875-6.7773-9.707-1.5273-1.832-3.9922-3.0977-6.3789-4.3164-0.69531-0.35547-1.3867-0.70703-2.1172-1.1133-0.85156-0.42188-1.7227-0.64453-2.5664-0.85938-0.68359-0.17578-1.332-0.34375-1.9609-0.64844-8.5312-3.4648-16.969-5.4648-24.344-5.7773-0.73438-0.042969-4.5352-0.20312-6.0781 1.7227-2.207 2.7188-4.2773 5.5508-6.2812 8.2891-0.85156 1.1641-1.6992 2.3242-2.4297 3.3242-2.6484 2.1523-24.863-0.097656-28.125-2.7734-0.019531-0.28906-0.027344-0.57422-0.039063-0.85547-0.054687-1.4336-0.11328-3.0547-1.2578-4.5781-0.95312-1.2578-1.2734-1.9688-1.3789-2.3086 0.39062-0.10547 1.3516-0.23828 3.4531-0.015625 2.0742 0.14062 3.8945 0.097656 5.832 0.050782l0.55469-0.011719c5.5508-0.17578 8.4805-0.61328 10.109-2.6445 1.6641-2.0742 1.2539-5.0977 0.49219-9.1172-0.5625-3.2305-1.4922-6.6719-5.9648-10.121-0.98438-0.80859-1.2148-1.3555-1.2305-1.4297 0.078125-0.13672 0.81641-0.72266 2.7461-0.84375 2.582-0.03125 6.0195-0.82812 7.8359-2.5 4.4453-3.8516 8.4727-8.0625 11.926-12.449 1.3945-1.6172 3.8594-2.0273 7.5742-1.2461 2.2578 0.39453 5.4688 0.67969 7.3477-1.3359 1.2773-1.3672 1.5664-3.3633 0.89062-6.1016-0.54688-2.2148-1.0703-4.3516-1.3633-6.5977l2.207 1.9961c11.578 10.094 31.695 12.441 41.41 4.8086 0.9375-0.75 1.9609-1.4258 2.9805-2.0977 3.168-2.0977 6.7344-4.4609 7.5781-8.9688 0.36719-0.082031 1.0117-0.17969 2.1094-0.25781 1.9102-0.015625 3.9492-1.2812 6.457-4.0234 25.156 25.547 42.195 57.738 48.965 92.707 0.10156 0.52734 0.1875 1.0625 0.28516 1.5898-2.0273-0.22656-3.9336-0.35547-5.3984-0.35547-4.3594 0.21094-9.2109 0.13281-14.84-0.25-4.5586-0.30859-7.7148-2.5234-9.6445-6.7617-1.2031-2.6914-2.8945-5.2383-4.8672-7.3359-1.3711-1.5-3.6055-2.1875-5.5742-2.7969-0.46094-0.14453-0.91797-0.28516-1.3438-0.42969-0.50391-0.17188-1.0586-0.125-1.5195 0.13672-0.46094 0.25781-0.79297 0.70312-0.91016 1.2227-0.066406 0.30078-0.28125 0.71094-0.50781 1.1484-0.59375 1.1211-1.3945 2.6562-0.65234 4.5273zm-170.04-112.54c-0.31641-0.35156-0.48828-0.66797-0.50781-0.94531-0.011718-0.13672-0.035156-0.28516-0.078124-0.41797-1.7969-6.1367-3.6562-12.484-4.918-18.809 14.699-3.5039 30.105-5.2109 45.766-4.8984 9.8008 0.19141 19.148 1.1484 28.227 2.7578 0.30078 0.054687 0.59766 0.10547 0.89844 0.16016-3.2969 5.6719-4.6602 11.527-5.4805 16.086-0.16016 0.94141-0.25391 1.8828-0.35156 2.8242-0.36719 3.6719-0.66016 6.5664-4.6836 9.0703-0.57422 0.26953-1.1484 0.63672-1.7148 1.0117-0.60938 0.40234-1.2969 0.85938-1.5312 0.88281-9.3047-0.0625-12.848 4.0703-15.855 7.8047-1.2695 1.5742-2.4688 3.0625-4.0742 4.1953-9.2031 6.4453-11.77 14.434-14.246 22.16l-0.78906 2.4141c-0.4375 1.2617-0.88281 2.4531-1.3867 3.8008l-0.25 0.67578c-12.949-6.3477-14.527-14.25-14.23-21.895l0.09375-2.6328c0.30859-7.6055 0.65234-16.223-4.8867-24.246zm-62.461 4.3555c0.33984-0.074219 0.66797-0.21484 0.91016-0.48047 0.058594-0.046875 0.078125-0.125 0.12891-0.18359 15.922-10.242 33.508-18.105 52.297-23 1.293 6.4453 3.1328 12.746 4.918 18.844 0.12109 1.0508 0.59766 2.0391 1.2852 2.7773 4.6836 6.8047 4.3789 14.422 4.082 21.785l-0.097656 2.6562c-0.47656 12.527 4.9766 20.387 18.25 26.273 0.24219 0.10938 0.5 0.16016 0.75781 0.16016 0.24609 0 0.49609-0.050781 0.73047-0.14844 0.47266-0.20312 0.84375-0.58984 1.0234-1.0742l0.94922-2.5547c0.51563-1.3789 0.96875-2.5938 1.4258-3.9102l0.80469-2.4766c2.3945-7.4688 4.6602-14.52 12.84-20.25 2.0391-1.4414 3.4609-3.2031 4.8359-4.9062 2.7734-3.4414 5.1758-6.4219 12.59-6.4219 0.14453 0 0.30078 0 0.45312 0.003907 1.3828-0.097657 2.5039-0.84375 3.5-1.5 0.40625-0.26953 0.80859-0.54688 1.418-0.84375 5.7891-3.5742 6.2344-8.0391 6.6328-11.973 0.082032-0.85547 0.17188-1.7148 0.3125-2.5547 1.2031-6.6758 2.9297-11.551 5.6133-15.816 0.039062-0.0625 0.097656-0.14063 0.14062-0.20313 34.617 7.1211 65.641 24.152 90.047 47.949-2.4141 2.668-3.5195 2.9141-3.8359 2.9141h-0.007812c-0.046875-0.003906-0.097656 0.003906-0.14844 0.003906-2.0039 0.13672-5.3555 0.37109-5.5078 2.7695-0.4375 4.4922-5.2891 6.1602-9.2852 9.3633-8.2969 6.5195-26.449 4.1914-36.617-4.6758l-5.5117-4.9805c-0.53906-0.48828-1.3125-0.625-1.9805-0.33594-0.67187 0.28125-1.1133 0.92578-1.1406 1.6523-0.15625 4.4805 0.73437 8.1094 1.6836 11.949 0.48438 1.957 0.125 2.5352 0.003907 2.6641-0.11719 0.125-0.87891 0.73828-3.9141 0.21875-5.1172-1.0781-8.7305-0.27344-11.152 2.5352-3.3594 4.2695-7.2266 8.3047-11.535 12.039-0.89844 0.83203-3.3242 1.5273-5.4883 1.5547-3.2734 0.20312-5.5195 1.4453-6.1523 3.4062-0.33203 1.0352-0.46094 3.1211 2.457 5.5117 3.4727 2.6758 4.1211 5.0352 4.6172 7.8672 0.47656 2.5273 0.92969 5.2891 0.26562 6.1172-0.73438 0.92188-3.9492 1.1445-7.3008 1.25l-0.53906 0.011719c-1.9258 0.046875-3.582 0.085937-5.418-0.039063-2.8555-0.29688-5.9297-0.30469-7.1445 1.8477-1.1758 2.0938 0.33203 4.5469 1.7695 6.4453 0.41406 0.55078 0.46094 1.2969 0.50781 2.4688 0.019531 0.48828 0.035156 0.98047 0.089844 1.4805 0.22656 2.0508 2.707 3.0859 5.1055 3.8281 6.1016 1.8867 26.008 4.7148 29.566 0.55078 0.85938-1.1484 1.7148-2.3164 2.5742-3.4922 1.9727-2.6992 4.0117-5.4922 6.1055-8.0781 0.29688-0.22266 1.668-0.49609 3.0312-0.40625 6.9023 0.29297 15.125 2.25 23.023 5.4531 0.85156 0.42188 1.7227 0.64453 2.5664 0.85938 0.68359 0.17578 1.332 0.34375 1.7578 0.54687 0.6875 0.38281 1.418 0.75781 2.1523 1.1328 2.0469 1.0508 4.168 2.1367 5.2461 3.4297 2.5195 2.8164 4.4141 5.9258 6.4219 9.2148l1.6055 2.6094c0.35156 0.56641 1.0039 0.92188 1.6445 0.875 2.3594-0.078125 4.832-2.5938 7.6992-5.5078 1.4414-1.4688 3.7773-3.8359 4.8867-4.3125 1.8672 3.4648 4.0938 6.7148 6.4453 10.148 1.043 1.5234 2.1016 3.0703 3.1562 4.6758 0.48438 0.73828 1.4141 1.0312 2.2461 0.71094 2.4883-0.98047 5.4961-2.4609 6.6328-5.2188 0.76562-1.8594 0.59766-3.9961-0.48438-6.4609-0.085938-0.21875 0.24609-0.85547 0.51172-1.3672 0.027343-0.054688 0.058593-0.10938 0.085937-0.16406 1.457 0.44922 3.0508 0.96484 3.7227 1.7031 1.7148 1.8164 3.1641 4.0039 4.2031 6.332 2.4844 5.457 6.9102 8.5547 12.793 8.9531 5.7773 0.38672 10.773 0.47266 15.184 0.25781 1.4961 0 3.7109 0.18359 6 0.46875 0.61719 3.7891 1.1367 7.6133 1.5156 11.477-0.80469 0.66406-1.4961 1.4609-1.668 2.4805-0.34375 1.7695-1.457 3.5898-7.1914 3.6406-11.691 0.35156-22.977-1.6328-34.613-6.1172-6.0469-2.3203-8.9023-3.0469-10.914-1.582-1.9141 1.3867-1.9297 4.0781-1.7422 7.6836 0.011719 0.42188-0.023438 0.68359-0.003907 0.79688-0.28906-0.027344-0.96094-0.1875-2.2734-0.88672-0.84766-0.49609-1.6758-1.0781-2.5-1.6523-1.3438-0.94141-2.7383-1.9141-4.1367-2.5156-6.6602-3.1133-13.539-6.332-20.664-8.582-5.4492-1.6641-5.3789-1.9297-4.7031-4.4258 0.54297-1.8398 0.73828-3.7539 0.94922-5.7812 0.11719-1.1211 0.24219-2.3125 0.42969-3.6016 0.082031-0.53516-0.078125-1.082-0.42969-1.4922-0.35156-0.41016-0.86719-0.64844-1.4102-0.64844-10.355-0.023438-19.375 0.039062-28.414 0.10938l-3.3359 0.03125c-1.0352-0.078125-1.9375 0.36328-2.5859 0.68359-0.21875 0.10547-0.54297 0.26562-0.79297 0.3125-1.3086 0.28125-2.5898 0.59375-3.8672 0.90234-3.3516 0.8125-6.5078 1.582-9.9414 1.75-5.1133 0.28516-8.0781 1.293-9.9219 3.3711-1.1836 1.3398-1.832 3.0664-1.9805 5.3359-4.6484-0.74219-7.6953-0.17969-9.5273 1.6953-1.543 1.5781-1.9844 3.9219-1.3164 6.9688-0.027344 0.042969-0.0625 0.082032-0.089844 0.125-0.15234 0.20312-0.25391 0.33594-0.21094 0.32031-0.41406 0.49609-0.85938 0.97656-1.3008 1.4531-2.2578 2.4336-5.0352 5.4336-3.2109 10.559-4.918 0.51562-6.0742 3.7852-6.9219 6.1758-0.17187 0.48047-0.34375 0.96484-0.54297 1.4258-0.56641 1.2852-1.582 2.4336-2.6602 3.6484-0.6875 0.77344-1.3789 1.5547-1.9609 2.3555-0.24609 0.31641-0.53906 0.66016-0.84375 1.0156-1.5586 1.8242-3.6914 4.3242-1.9648 6.3906 3.668 5.1484 3.707 9.8398 3.7461 14.809 0.015625 1.8594 0.027344 3.7812 0.24219 5.668 0.64453 8.1289 4.7812 14.863 12.652 20.605 1.9023 1.3867 4.0625 2.9648 4.9883 4.4062 6.0156 10.258 17.008 14.426 27.945 18.742 12.66 5.1602 23.031 2.918 33.062 0.75391l1.2773-0.28125c4.2891-0.99609 8.3359-1.9297 11.754 1.3086 3.3555 3.457 6.3906 3.7969 9.6016 4.1523l0.91406 0.10156c1.6055 0.26562 4.168 1.4414 4.5625 1.9219l0.15234 0.40234c1.1289 2.957 2.6758 7.0039 1.6445 8.9727-2.918 5.9258 0.62109 10.309 4.3711 14.957 4.5273 5.5508 10.777 10.855 13.762 17.008-32.965 33.41-78.723 54.16-129.24 54.16-17.078 0-33.777-2.3359-49.785-6.8711 0.89844-2.1328 0.26172-4.0469-2.0039-5.9297-0.84375-0.67578-1.5195-1.6016-2.1953-2.6094 7.043 1.5703 10.211 0.007812 13.277-6.4531 0.28516-0.6875 0.97656-1.6641 1.8516-2.1992 6.7578-4.293 9.6016-10.254 8.4336-17.836-0.085937-0.39844 0.09375-1.2344 0.09375-1.3242 1.7891-0.99219 3.0586-2.375 4.2812-3.7109 1.8203-1.9805 3.2539-3.5469 5.8008-3.7461 1.7227 0.14453 2.8984-1.1719 3.6484-2.0312 0.15234-0.17188 0.30078-0.33984 0.30078-0.35938 4.2773-3.457 4.7812-7.9961 5.2227-12.004 0.375-3.3867 0.20703-1.4766 0.59766-4.5273 0.45312-3.6055 0.78125-6.2109 5.0352-7.7227 1.6211-0.59766 2.332-2.3828 2.9609-3.9609l0.25391-0.625c0.95312-2.0664 1.5117-4.4023 2.4766-6.2305 2.8477-5.1875 1.75-11.078-2.6172-14.02l-2.2734-1.5273c-6.2539-4.2188-12.723-8.5859-20.84-10.535-0.97656-0.21094-3.4961-0.65625-5.8906-0.25391-3.3984 0.80078-5.8984 0.65234-7.6367-0.42969-1.5273-0.95312-2.5703-2.7109-3.1758-5.332-0.54688-2.6523-2.5273-5.0938-5.4297-6.707-3.4219-1.9023-7.4414-2.3086-10.77-1.0742-2.7539 1.0781-3.4766 0.52734-4.3945-1.8164-3.4023-8.1328-12.535-12.758-22.734-11.543-1.4141 0.16406-3.0312-0.22266-4.4844-0.70312v-8.3125c0-0.89453-0.62891-1.6602-1.5078-1.832-45.914-8.9922-67.062-29.863-71.375-34.648 2.5703-1.8555 6.2656-2.2344 9.5-0.67969 1.582 0.76562 3.4219 1.4453 5.1133 0.63281 1.1445-0.55078 1.9141-1.6523 2.2812-3.2539 0.15625-0.62891 0.34766-0.88672 0.43359-0.9375 0.11328-0.074219 0.57422-0.17969 2.207 0.28125 0.6875 0.18359 1.4375 0.26953 2.168 0.35156 0.66016 0.066406 1.3945 0.14844 1.7344 0.3125 2.3594 1.125 2.9414 1.668 3.0273 1.7969 0.76562 4.5469 4.1406 6.8047 7.1211 8.793 1.1797 0.78906 2.2969 1.5352 3.2422 2.3945 0.46094 0.41797 1.0938 0.57031 1.7031 0.42969 0.60547-0.14844 1.0938-0.58984 1.3047-1.1719 0.59375-1.6289 0.48828-2.8438 0.39062-3.9531-0.21094-1.332-0.49609-2.6758-0.78125-4.0273-0.57031-2.7031-1.1094-5.2578-1.0625-7.7227-0.027344-2.1094 0.85547-5 2.5898-6.4336 6.6836-5.4141 10.215-11.578 10.793-18.777 0.52734-4.5547 3.3359-7.2109 8.5547-8.1133 1.4375-0.22656 3.4688-0.71484 4.5469-2.3008 0.72656-1.0625 0.89844-2.3984 0.49219-4.2109-0.32031-1.1094-0.30859-1.9414 0.035156-2.4805 0.46875-0.73047 1.7148-1.2578 3.6211-1.5352 1.5625-0.26563 2.7109-0.47266 4.0273-0.57031 3.4766-0.69531 5-2.5859 4.5273-5.6602-0.94922-5.3516 1.4336-9.4648 7.5312-12.973 5.707-3.5039 10.328-6.3594 14.941-9.0273 0.79297-0.52344 1.6836-0.91797 2.5508-1.3047 0.49219-0.22266 0.97656-0.44141 1.4414-0.67578 0.64062-0.32031 1.043-0.98047 1.0312-1.6992s-0.43359-1.3633-1.0859-1.6641c-12.164-5.5859-19.551-12.898-23.246-23.016-0.25781-0.71094-0.92188-1.1953-1.6758-1.2227l-0.83203-0.050782c-0.26172-0.019531-0.52344-0.039062-1.0391-0.058594-0.71094-0.082031-1.3086 0.3125-1.6602 0.89063-1.3867 2.2539-2.8633 4.6523-4.3789 6.9805 0.027344-1.8594 0.13672-3.707 0.24219-5.5117l0.054687-0.91016c0.042969-0.74219-0.35938-1.4414-1.0273-1.7773-3.457-1.7305-7.2148-2.7578-9.8281-4.9766-4.5547-3.4062-9.3711-3.1055-13.48-2.3555-1.3398 0.25-2.9922 0.72266-3.8711 2.1367-0.64062 1.0391-0.73047 2.3398-0.24219 4.0625 0.50391 1.4844 0.48047 3.1641 0.46094 4.9414-0.027344 2.3906 0.03125 2.2773 0.074219 3.5 0.054687 1.4023 0.11328 2.9922 0.73828 4.3594 0.80859 1.9727 0.36719 3.4648-1.7344 5.9062-1.0703 1.2383-1.9023 3.1445-2.2344 5.1836-0.35938 3.0391-0.50781 5.9531-0.64453 9.2188-0.12109-0.046875-0.24219-0.09375-0.35938-0.14062-3.7852-1.4805-5.1094-2.1953-5.0898-4.4023 0.023437-2.3008-0.066406-4.1562-1.3477-5.4023-1.332-1.2969-3.293-1.3281-6.0742-1.2188-1.8125 0-3.5742-0.39844-4.1172-0.69531-2.1289-4.2695-6.0586-3.8242-8.4336-3.543-1.3281 0.16406-2.4609 0.09375-3.2188-0.20703-0.47656-0.19141-0.71875-0.48047-0.86719-0.83203 13.891-21.492 32.18-39.859 53.598-53.848zm-82.559 158.84c-0.28125-7.0977-0.066406-15.73 0.74219-24.133 0.039063-0.41406 0.066407-0.83203 0.10938-1.2461 2.7422-26.547 11.613-53.043 25.973-76.293 0.46484 0.40234 1.0078 0.73047 1.6328 0.97656 1.3672 0.53906 3.0703 0.6875 5.0352 0.4375 3.0781-0.35156 3.9062-0.066407 4.6758 1.5664 1.0977 2.5547 6.332 2.6953 7.4805 2.6953h0.015625c0.74219-0.027344 2.9961-0.10938 3.3945 0.14844 0.11328 0.16406 0.24609 0.76953 0.23047 2.7109-0.039062 4.9766 3.9453 6.5352 7.4688 7.9102 0.87109 0.33984 1.7773 0.69531 2.6875 1.1133 1.1797 0.5625 2.5859-0.27344 2.6484-1.6133 0.16016-3.8711 0.28516-7.8086 0.71875-11.531 0.20703-1.2656 0.74219-2.543 1.3672-3.2617 2.1328-2.4766 4.0781-5.5742 2.3359-9.832-0.35156-0.76172-0.39453-1.9102-0.4375-3.0195l-0.03125-0.77734c-0.1875-2.6445 0.32422-5.7188-0.66406-8.625-0.19922-0.70703-0.14844-0.97656-0.16016-0.98047 0.039062-0.039063 0.30078-0.24609 1.3828-0.44922 4.7773-0.86719 7.832-0.375 10.477 1.6016 2.0898 1.7773 4.6719 2.8672 7.1719 3.918 0.74219 0.3125 1.4844 0.625 2.2148 0.95312-0.13672 2.2227-0.26172 4.5156-0.23047 6.8672 0.007813 0.65625 0.35938 1.2578 0.92969 1.5898 0.42188 0.24609 0.90234 0.47656 1.3867 0.71094 0.34766 0.16406 0.6875 0.33203 1.0078 0.50391 0.84375 0.46094 1.9062 0.20703 2.4453-0.59766 1.6055-2.3945 3.1836-4.9219 4.6758-7.3359 3.8203 9.2812 10.594 16.301 21.066 21.797-0.28906 0.15625-0.56641 0.32422-0.83203 0.49609-4.0586 2.3438-8 4.7617-11.992 7.2148l-2.8945 1.7773c-7.3984 4.2539-10.527 9.918-9.3125 16.793 0.12109 0.78125 0.16016 1.0469-1.3281 1.3594-1.043 0.0625-2.1641 0.24609-3.3164 0.44141l-0.79297 0.13281c-3.0664 0.44141-5.0898 1.4922-6.1953 3.2031-0.95703 1.4922-1.1172 3.3555-0.51172 5.4258 0.19531 0.89062 0.066407 1.1406 0.035157 1.1836-0.027344 0.046876-0.34766 0.44531-2.0781 0.72266-6.8945 1.1914-10.922 5.1211-11.656 11.43-0.5 6.1914-3.582 11.504-9.4414 16.254-2.793 2.3086-4 6.3711-3.9609 9.3125-0.050781 2.8281 0.55469 5.7109 1.1445 8.5039 0.21094 1.0078 0.42578 2.0156 0.59766 2.9531-0.24609-0.16406-0.49219-0.32812-0.73438-0.49219-2.6914-1.7969-5.0156-3.3516-5.4883-6.1133-0.13672-2.1875-2.6055-3.543-5.1172-4.7383-0.91406-0.44141-1.9414-0.55078-2.9336-0.66016-0.54688-0.058594-1.1094-0.11328-1.5859-0.23828-1.7188-0.48828-3.5234-0.81641-5.0742 0.09375-1.0625 0.62109-1.7969 1.7227-2.1836 3.2969-0.125 0.54297-0.26172 0.72656-0.25391 0.74219-0.085938 0.03125-0.53516 0.027343-1.8867-0.625-5.957-2.875-13.082-0.93359-16.301 4.2539-1.8867 2.0508-6.332 6.4062-13.656 11.473zm-55.32 26.332c25.246-5.1523 56.969-18.754 71.648-35.094 6.3164 7.0586 29.414 26.473 71.645 35.094v63.234c0 26.977-14.336 52.422-37.418 66.398l-34.227 20.723-34.238-20.723c-23.07-13.977-37.41-39.418-37.41-66.398z"/> <path d="m205.51 601.98 28.199 17.066c0.58984 0.35938 1.3438 0.35938 1.9297 0l28.184-17.066c20.168-12.211 32.699-34.441 32.699-58.02l0.003907-53.938c0-0.85547-0.57813-1.5977-1.4062-1.8086-31.082-7.8828-50.48-21.082-59.277-28.25-0.67969-0.55469-1.6641-0.55859-2.3555 0-8.8242 7.1719-28.25 20.375-59.262 28.246-0.82812 0.21094-1.4062 0.95312-1.4062 1.8086v53.945c-0.003906 23.574 12.523 45.805 32.691 58.016zm-28.961-110.52c29.594-7.7461 48.711-20.246 58.109-27.66 11.043 8.75 29.777 20.258 58.133 27.664v52.492c0 22.277-11.84 43.285-30.898 54.824l-27.215 16.48-27.234-16.48c-19.059-11.539-30.895-32.547-30.895-54.824z"/> <path d="m185.88 496.67c-1.0312 0-1.8672 0.83594-1.8672 1.8672v6.1094c0 1.0312 0.83594 1.8672 1.8672 1.8672s1.8672-0.83594 1.8672-1.8672v-6.1094c0-1.0312-0.83594-1.8672-1.8672-1.8672z"/> <path d="m185.88 510.24c-1.0312 0-1.8672 0.83594-1.8672 1.8672v15.16c0 1.0312 0.83594 1.8672 1.8672 1.8672s1.8672-0.83594 1.8672-1.8672v-15.16c0-1.0312-0.83594-1.8672-1.8672-1.8672z"/> <path d="m225.5 533.3-2.0742 27.23c-0.035157 0.51953 0.14062 1.0312 0.49219 1.4102s0.84766 0.59766 1.3711 0.59766h18.738c1.0977 0 1.9375-0.92969 1.8633-2.0078l-2.0781-27.246c3.7695-2.8594 5.9883-7.2852 5.9883-12.051 0-8.3477-6.793-15.145-15.145-15.145-8.3477 0-15.145 6.793-15.145 15.145 0.003906 4.7734 2.2227 9.207 5.9883 12.066zm9.1562-23.477c6.2891 0 11.41 5.1172 11.41 11.41 0 3.875-1.9492 7.4531-5.2148 9.5703-0.57031 0.37109-0.89844 1.0273-0.84375 1.707l2.0039 26.293h-14.711l2.0039-26.281c0.050781-0.67969-0.27344-1.3359-0.84375-1.707-3.2656-2.1172-5.2109-5.7031-5.2109-9.5859-0.003906-6.2891 5.1172-11.406 11.406-11.406z"/> <path d="m253.23 205.31h-0.015624v-9.4062c0-11.754-9.543-21.316-21.281-21.316-11.734 0-21.285 9.5625-21.285 21.316v9.4062h-0.015625c-2.9844 0-5.4141 2.4297-5.4141 5.4141v34.609c0 2.9883 2.4297 5.4141 5.4141 5.4141h42.594c2.9844 0 5.4141-2.4297 5.4141-5.4141v-34.609c0.003906-2.9844-2.4258-5.4141-5.4102-5.4141zm-38.848-9.4062c0-9.6992 7.8711-17.586 17.551-17.586 9.6758 0 17.547 7.8867 17.547 17.586v9.4062h-3.3672v-9.4062c0-7.8398-6.3594-14.219-14.18-14.219-7.8203 0-14.184 6.3789-14.184 14.219v9.4062h-3.3672zm28 9.4062h-20.902v-9.4062c0-5.7812 4.6914-10.488 10.453-10.488 5.7617 0 10.449 4.7031 10.449 10.488zm12.531 40.023c0 0.92969-0.75391 1.6836-1.6836 1.6836h-42.594c-0.92969 0-1.6836-0.75391-1.6836-1.6836v-34.609c0-0.92969 0.75391-1.6836 1.6836-1.6836h10.848 31.73 0.015624c0.92969 0 1.6836 0.75391 1.6836 1.6836z"/> <path d="m232.9 218.02c-3.7773 0-6.8477 3.0742-6.8477 6.8477 0 1.9375 0.80859 3.75 2.2031 5.0352l-0.73438 9.6211c-0.074219 1.082 0.76953 2.0078 1.8633 2.0078h7.0352c1.0977 0 1.9375-0.92969 1.8633-2.0078l-0.73828-9.625c1.3945-1.2852 2.2031-3.0977 2.2031-5.0312 0.003906-3.7773-3.0703-6.8477-6.8477-6.8477zm1.6914 9.4648c-0.57031 0.37109-0.89844 1.0273-0.84375 1.707l0.66016 8.6133h-3.0078l0.65625-8.6055c0.050781-0.67969-0.27344-1.332-0.84375-1.707-0.89453-0.58203-1.4258-1.5625-1.4258-2.6211 0-1.7188 1.3984-3.1172 3.1172-3.1172 1.7148 0 3.1172 1.3984 3.1172 3.1172-0.003906 1.0508-0.53516 2.0312-1.4297 2.6133z"/> <path d="m639.88 599.9c0-19.441-15.797-35.262-35.219-35.262-10.441 0-19.812 4.5898-26.273 11.828-0.046875 0.039062-0.10938 0.054688-0.15234 0.10156-0.089844 0.082032-0.13672 0.19141-0.20312 0.28906-5.3633 6.1875-8.6328 14.234-8.6328 23.047 0 13.781 7.9844 25.707 19.559 31.488h-56.453c-1.0312 0-1.8672 0.83594-1.8672 1.8672s0.83594 1.8672 1.8672 1.8672h96.762c1.0312 0 1.8672-0.83594 1.8672-1.8672s-0.83594-1.8672-1.8672-1.8672h-8.918c11.559-5.7852 19.531-17.707 19.531-31.492zm-35.219 31.492c-17.387 0-31.531-14.125-31.531-31.488 0-17.387 14.145-31.531 31.531-31.531 17.363 0 31.488 14.145 31.488 31.531 0 17.363-14.125 31.488-31.488 31.488z"/> <path d="m622.71 598.44c0.070313-0.63672 0.10547-1.2969 0.10547-1.9648 0-10.105-8.2383-18.328-18.371-18.328-10.105 0-18.328 8.2227-18.328 18.328 0 0.17969 0.003907 0.35938 0.011719 0.53906-3.5391 1.5391-5.8945 5.0547-5.8945 9.043 0 5.4961 4.4531 9.9648 9.9297 9.9648l29.957-0.13281c4.9219 0 8.9219-4 8.9219-8.918 0.003907-4.0352-2.6523-7.4492-6.332-8.5312zm-2.5938 13.719-29.957 0.13281c-3.4141 0-6.1914-2.7969-6.1914-6.2344 0-2.8242 1.8906-5.2656 4.5977-5.9414 0.92969-0.23438 1.5312-1.1289 1.3945-2.0742-0.078125-0.52344-0.11328-1.043-0.11328-1.5664 0-8.0469 6.5508-14.598 14.598-14.598 8.0742 0 14.641 6.5469 14.641 14.598 0 1.082-0.11719 2.1055-0.34375 3.0469-0.13281 0.54297-0.011719 1.1133 0.32422 1.5586 0.33203 0.44531 0.84766 0.71875 1.4023 0.74219 2.7148 0.12891 4.8438 2.3867 4.8438 5.1484 0 2.9102-2.2773 5.1875-5.1953 5.1875z"/> <path d="m604.41 588.49c-3.4766 0-6.3086 2.8281-6.3086 6.3086 0 1.7305 0.73438 3.3984 1.9727 4.582l-0.66016 8.4648c-0.042968 0.51953 0.13672 1.0312 0.48828 1.4141 0.35156 0.38281 0.84766 0.59766 1.3711 0.59766h6.2734c0.51562 0 1.0117-0.21484 1.3672-0.59766 0.35156-0.37891 0.53125-0.89062 0.49609-1.4062l-0.625-8.4727c1.2305-1.1719 1.9375-2.8164 1.9375-4.5859-0.003906-3.4727-2.8359-6.3047-6.3125-6.3047zm1.4258 8.4844c-0.57422 0.37109-0.89844 1.0234-0.85156 1.707l0.55078 7.4492h-2.2461l0.57812-7.4375c0.054688-0.68359-0.26953-1.3438-0.84766-1.7148-0.73438-0.47266-1.1875-1.3047-1.1875-2.1758 0-1.4219 1.1562-2.5781 2.5781-2.5781 1.3945 0 2.5781 1.1797 2.5781 2.5781-0.003906 0.89844-0.43359 1.7109-1.1523 2.1719z"/> <path d="m605.72 271.08c-19.312 0-35.023 15.711-35.023 35.023 0 19.289 15.711 34.98 35.023 34.98 19.289 0 34.984-15.691 34.984-34.984 0-19.309-15.691-35.02-34.984-35.02zm0 66.277c-17.254 0-31.293-14.02-31.293-31.25 0-17.254 14.039-31.293 31.293-31.293 17.23 0 31.25 14.035 31.25 31.293 0.003906 17.23-14.016 31.25-31.25 31.25z"/> <path d="m606.42 287.6c-5.8359 0-10.582 4.7461-10.582 10.582 0 3.2188 1.4414 6.2148 3.9062 8.2148l-1.3359 17.539c-0.078125 1.0859 0.77344 2.0078 1.8633 2.0078h12.305c1.0977 0 1.9375-0.92969 1.8633-2.0078l-1.3398-17.547c2.4688-2 3.9102-4.9922 3.9102-8.207-0.007813-5.8359-4.7578-10.582-10.59-10.582zm3.7188 16.332c-0.57422 0.37109-0.89844 1.0273-0.84766 1.707l1.2656 16.578h-8.2773l1.2656-16.566c0.050781-0.67969-0.27344-1.3359-0.84375-1.707-1.9609-1.2734-3.1289-3.4258-3.1289-5.7578 0-3.7773 3.0742-6.8516 6.8516-6.8516 3.7812 0 6.8516 3.0742 6.8516 6.8516-0.003906 2.3242-1.1758 4.4727-3.1367 5.7461z"/> </g> </g>
</svg>