<!DOCTYPE svg PUBLIC "-//W3C//DTD SVG 1.1//EN" "http://www.w3.org/Graphics/SVG/1.1/DTD/svg11.dtd">
<!-- Uploaded to: SVG Find, www.svgrepo.com, Transformed by: SVG Find Mixer Tools -->
<svg fill="#00406d" width="250px" height="250px" version="1.1" viewBox="144 144 512 512" xmlns="http://www.w3.org/2000/svg" stroke="#00406d" stroke-width="5.12">
<g id="SVGRepo_bgCarrier" stroke-width="0"/>
<g id="SVGRepo_tracerCarrier" stroke-linecap="round" stroke-linejoin="round"/>
<g id="SVGRepo_iconCarrier"> <g> <path d="m157.24 549.77h1.0859c1.0312 0 1.8672-0.83594 1.8672-1.8672s-0.83594-1.8672-1.8672-1.8672l-1.0859 0.003906c-1.0312 0-1.8672 0.83594-1.8672 1.8672s0.83594 1.8633 1.8672 1.8633z"/> <path d="m634.93 549.77c1.0312 0 1.8672-0.83594 1.8672-1.8672s-0.83594-1.8672-1.8672-1.8672h-2.5312c-1.0312 0-1.8672 0.83594-1.8672 1.8672s0.83594 1.8672 1.8672 1.8672z"/> <path d="m277.49 526.25c1.0312 0 1.8672-0.83594 1.8672-1.8672v-49.504c0-1.0312-0.83594-1.8672-1.8672-1.8672s-1.8672 0.83594-1.8672 1.8672v49.508c0.003906 1.0312 0.83594 1.8633 1.8672 1.8633z"/> <path d="m251.71 526.25c1.0312 0 1.8672-0.83594 1.8672-1.8672v-49.504c0-1.0312-0.83594-1.8672-1.8672-1.8672s-1.8672 0.83594-1.8672 1.8672v49.508c0 1.0312 0.83594 1.8633 1.8672 1.8633z"/> <path d="m264.6 526.25c1.0312 0 1.8672-0.83594 1.8672-1.8672v-49.504c0-1.0312-0.83594-1.8672-1.8672-1.8672s-1.8672 0.83594-1.8672 1.8672v49.508c0.003906 1.0312 0.83594 1.8633 1.8672 1.8633z"/> <path d="m409.23 402.55 6.8672-7.1133c2.6992-2.793 3.2422-7.1016 1.3281-10.477l-4.6797-8.2461c1.4531-2.9258 2.7812-6.1875 3.7031-9.3359l9.0859-2.8398c3.6992-1.1562 6.2422-4.668 6.1836-8.543l-0.14453-9.8516c-0.054687-3.8828-2.707-7.3203-6.4531-8.3672l-9.1719-2.5508c-0.24609-0.76172-0.50781-1.5-0.77344-2.2578-0.89844-2.4141-1.9844-4.7773-3.2305-7.0391l4.4219-8.375c1.8125-3.4297 1.1328-7.7227-1.6445-10.43l-7.0586-6.8789c-2.7969-2.7148-7.1133-3.2734-10.5-1.3555l-8.3633 4.7461-9.2578-3.6602-2.832-9.1602c-1.1445-3.7148-4.625-6.1875-8.5508-6.2109l-9.8477 0.14453c-3.875 0.054687-7.3125 2.7031-8.3594 6.4375l-2.6016 9.1641c-3.2422 1.082-6.2812 2.4023-9.2383 4.0234l-8.3594-4.4336c-3.457-1.8281-7.7656-1.1406-10.48 1.6641l-6.8477 7.0859c-2.707 2.8008-3.2461 7.1211-1.3164 10.5l4.6875 8.207c-1.6289 3.1797-2.8711 6.2656-3.7773 9.3789l-9.082 2.8398c-3.7031 1.1602-6.2461 4.6797-6.1836 8.5625l0.16406 9.8438c0.0625 3.8672 2.7109 7.2969 6.4375 8.3438l9.1602 2.5664c1.0703 3.2227 2.4258 6.3359 4.043 9.2812l-4.418 8.3711c-1.8125 3.4375-1.1328 7.7266 1.6523 10.434l7.043 6.8516c2.7812 2.7031 7.082 3.2695 10.473 1.3594l8.2891-4.668c2.9531 1.5117 6.0938 2.7617 9.3594 3.7266l2.8281 9.0547c1.1406 3.6562 4.5938 6.1836 8.4141 6.1836h0.12891l9.8516-0.14453c3.8867-0.054687 7.3242-2.707 8.3672-6.4531l2.5469-9.1641c3.1797-1.0234 6.2812-2.3633 9.2578-3.9922l8.418 4.4375c3.4531 1.832 7.75 1.1484 10.461-1.6602zm-8.7148-1.625-9.3164-4.9102c-0.5625-0.30078-1.2461-0.28516-1.7969 0.03125-3.3047 1.8945-6.7891 3.3984-10.363 4.4688-0.61328 0.18359-1.0898 0.67188-1.2617 1.2891l-2.8203 10.141c-0.59766 2.1562-2.582 3.6875-4.8242 3.7188l-9.8516 0.14453c-2.2617-0.078126-4.2617-1.4336-4.9258-3.5664l-3.1289-10.016c-0.1875-0.60547-0.67188-1.0742-1.2812-1.2422-3.6953-1.0234-7.2266-2.4297-10.492-4.1797-0.27344-0.14844-0.57812-0.22266-0.88281-0.22266-0.31641 0-0.63281 0.082031-0.91797 0.24219l-9.168 5.1641c-1.9492 1.0938-4.4336 0.77344-6.0391-0.78516l-7.043-6.8516c-1.6055-1.5625-1.9961-4.0352-0.95313-6.0156l4.8945-9.2695c0.29688-0.56641 0.28516-1.2461-0.03125-1.7969-1.8711-3.2656-3.3984-6.7695-4.5391-10.41-0.1875-0.60156-0.66797-1.0703-1.2773-1.2383l-10.121-2.8359c-2.1484-0.60156-3.6719-2.582-3.7109-4.8125l-0.16406-9.8438c-0.035156-2.2383 1.4297-4.2695 3.5664-4.9375l10.051-3.1445c0.60938-0.19141 1.082-0.67969 1.2461-1.3008 0.92578-3.4727 2.3086-6.9062 4.2227-10.5 0.30078-0.56641 0.29297-1.2461-0.027343-1.8008l-5.1953-9.0898c-1.1133-1.9492-0.80078-4.4414 0.75781-6.0547l6.8477-7.0859c1.5703-1.625 4.0586-2.0234 6.0508-0.96094l9.2578 4.9062c0.56641 0.29297 1.2422 0.28906 1.8008-0.027344 3.2969-1.8828 6.6875-3.3633 10.371-4.5195 0.59766-0.1875 1.0625-0.66406 1.2344-1.2695l2.8789-10.141c0.60156-2.1523 2.5859-3.6797 4.8203-3.7109l9.8477-0.14453c2.2266 0.050781 4.2695 1.4414 4.9297 3.582l3.0977 10.016c0.16406 0.54297 0.57031 0.97656 1.0977 1.1836l10.918 4.3164c0.52344 0.20703 1.1172 0.16406 1.6055-0.10938l9.1406-5.1836c1.9531-1.1133 4.4492-0.78906 6.0586 0.78125l7.0586 6.875c1.6055 1.5625 1.9961 4.0352 0.94922 6.0156l-4.8945 9.2734c-0.30078 0.56641-0.28516 1.25 0.035156 1.8008 1.3555 2.3555 2.5234 4.8398 3.4609 7.3477 0.35156 1.0039 0.69922 2.0078 1.0312 3.0703 0.1875 0.60547 0.67188 1.0781 1.2812 1.25l10.141 2.8203c2.1602 0.60156 3.6914 2.5859 3.7227 4.8242l0.14453 9.8516c0.03125 2.2344-1.4336 4.2617-3.5664 4.9258l-10.305 3.2461c-0.49219 0.23828-0.85547 0.67578-0.99609 1.2031-0.24219 0.89844-0.51953 1.8125-0.81641 2.6836-0.90234 2.6445-2.0234 5.2695-3.332 7.793-0.29297 0.5625-0.27734 1.2305 0.03125 1.7773l5.1758 9.1211c1.1055 1.9453 0.78906 4.4297-0.76562 6.0391l-6.8672 7.1133c-1.582 1.6133-4.0586 2.0078-6.0508 0.96094z"/> <path d="m363.87 328.71c-6.4492 0.10156-12.48 2.7148-16.984 7.3516-4.5078 4.6445-6.9336 10.746-6.832 17.191 0.09375 6.4688 2.7031 12.512 7.3516 17.023 4.5508 4.4141 10.508 6.832 16.812 6.832 0.13281 0 0.38281-0.027344 0.39453-0.003907 13.332-0.22656 24.027-11.258 23.836-24.594-0.21094-13.316-11.398-23.922-24.578-23.801zm0.68359 44.66c-11.418 0.10547-20.605-8.9219-20.77-20.176-0.17969-11.266 8.8594-20.574 20.141-20.754h0.29688c11.148 0 20.316 8.9688 20.492 20.129 0.16406 11.277-8.8828 20.609-20.16 20.801z"/> <path d="m494.92 423.28-2.6484-6.4805c-1.1445-2.8281-3.9453-4.5391-6.9922-4.2188l-6.5508 0.66406-4.5977-4.6367 0.72266-6.5039c0.36328-2.9766-1.3281-5.8711-4.1133-7.0469l-6.4453-2.7227c-2.7461-1.1562-5.9961-0.35547-7.8906 1.9336l-4.1367 5.0234c-2.2344-0.19141-4.4375-0.20312-6.6914-0.019531l-3.9961-5.0469c-1.9102-2.3789-5.0898-3.2109-7.918-2.0664l-6.5039 2.6562c-2.7969 1.1758-4.4727 3.9961-4.168 7.0234l0.69141 6.3672c-1.7773 1.4609-3.3906 3.0391-4.8086 4.707l-6.4297-0.71484c-2.9805-0.3125-5.875 1.3672-7.0352 4.1445l-2.6914 6.4375c-1.168 2.7617-0.35156 6.0117 1.9688 7.9023l5.0078 4.1055c-0.19141 2.2188-0.19922 4.4688-0.019531 6.7188l-5.0352 4.0078c-2.3633 1.8633-3.2188 5.1055-2.082 7.875l2.625 6.4961c1.1328 2.7656 3.9961 4.4727 6.9883 4.1875l6.4414-0.62891c1.4453 1.7266 3.0195 3.3203 4.7031 4.7617l-0.71484 6.4141c-0.33203 2.9648 1.3633 5.8477 4.1172 7.0039l6.4453 2.7266c2.8203 1.1758 6.0039 0.37891 7.9219-1.9727l4.0977-5.0039c2.1875 0.20703 4.4258 0.21875 6.6758 0.035156l4.0312 5.0586c1.875 2.3828 5.1328 3.2227 7.9023 2.0547l6.5352-2.6602c2.7969-1.1797 4.4727-3.9883 4.168-6.9922l-0.67188-6.4141c1.6211-1.3672 3.3828-3.0742 4.75-4.6953l6.4219 0.71484c3.0469 0.35547 5.8477-1.3164 7.0312-4.1211l2.7227-6.4609c1.1602-2.7578 0.35156-6.0078-1.9727-7.9023l-5.0195-4.1094c0.19531-2.1992 0.25781-4.25 0.054688-6.7109l5.043-4.0156c2.3477-1.8789 3.1836-5.0312 2.0664-7.875zm-4.3945 4.957-5.832 4.6406c-0.5 0.39844-0.76172 1.0234-0.69141 1.6602 0.21094 1.9297 0.25391 3.7969 0.13672 5.707-0.046875 0.73047-0.11719 1.4805-0.19141 2.2812-0.054687 0.61719 0.19531 1.2227 0.67578 1.6133l5.7891 4.7422c1.0664 0.87109 1.4258 2.3008 0.89453 3.5625l-2.7188 6.4609c-0.53516 1.2617-1.793 2.0273-3.1797 1.8594l-7.6406-0.83594c-0.57031 0-1.1133 0.26172-1.4688 0.71484-1.5312 1.9453-3.6484 3.9766-5.6055 5.5547-0.49609 0.39844-0.75391 1.0195-0.6875 1.6484l0.77734 7.4023c0.13672 1.3359-0.64844 2.6406-1.8828 3.1602l-6.5352 2.6602c-1.2422 0.52734-2.7031 0.14844-3.5469-0.92578l-4.668-5.8555c-0.41016-0.51562-1.0469-0.76172-1.6562-0.69141-2.6719 0.28516-5.3242 0.26953-7.8867-0.046875-0.63672-0.066406-1.2656 0.17578-1.6719 0.66797l-4.7422 5.7891c-0.87109 1.0664-2.3125 1.4219-3.5859 0.89453l-6.4414-2.7227c-1.2461-0.52344-2.0078-1.8203-1.8594-3.1523l0.82812-7.4102c0.070313-0.63281-0.1875-1.2539-0.67969-1.6562-2.0312-1.6484-3.9062-3.5469-5.5742-5.6406-0.39453-0.49609-1.0039-0.75391-1.6406-0.69531l-7.4375 0.73047c-1.3359 0.16406-2.6562-0.64062-3.1641-1.8789l-2.6289-6.4961c-0.51172-1.2461-0.125-2.6992 0.94531-3.543l5.832-4.6406c0.5-0.39844 0.76172-1.0234 0.69141-1.6562-0.28125-2.6641-0.27344-5.3359 0.023438-7.9492 0.074219-0.62891-0.17969-1.2539-0.67188-1.6562l-5.7891-4.7422c-1.0664-0.87109-1.4258-2.3008-0.89062-3.5664l2.6953-6.4453c0.51953-1.2539 1.8203-2.0234 3.1758-1.875l7.4375 0.82422c0.65234 0.070312 1.2656-0.19141 1.6641-0.6875 1.5938-1.9961 3.5039-3.8633 5.668-5.5508 0.50781-0.39844 0.77734-1.0312 0.70703-1.6719l-0.80078-7.3672c-0.13672-1.375 0.62891-2.6602 1.8867-3.1875l6.4805-2.6484c1.2891-0.51563 2.7344-0.13672 3.5938 0.9375l4.6172 5.832c0.39453 0.5 1.0117 0.76562 1.6602 0.69531 2.6836-0.28125 5.2734-0.27344 7.9336 0.023438 0.61719 0.0625 1.25-0.18359 1.6523-0.67188l4.7578-5.7773c0.85547-1.0391 2.3242-1.4102 3.5703-0.87891l6.4414 2.7227c1.2773 0.54297 2.0273 1.8086 1.8594 3.1797l-0.82422 7.4102c-0.0625 0.55859 0.13281 1.1172 0.53125 1.5195l5.8555 5.9023c0.39453 0.39844 0.94531 0.58984 1.5117 0.54297l7.4336-0.75391c1.3438-0.13281 2.6445 0.62891 3.1641 1.9102l2.6406 6.4648c0.5 1.2812 0.12109 2.7148-0.9375 3.5625z"/> <path d="m455.35 422.51c-4.3594-1.832-9.1797-1.8516-13.566-0.054688-9.0859 3.7148-13.406 14.066-9.7148 23.125 2.8164 6.9141 9.4297 11.023 16.371 11.023 6.9453 0 13.562-4.0938 16.414-10.875 3.7734-8.9883-0.48828-19.402-9.5039-23.219zm6.0625 21.773c-2.9922 7.1172-11.234 10.484-18.355 7.5039-7.1211-2.9805-10.488-11.207-7.457-18.355 2.9805-7.125 11.207-10.461 18.301-7.4844 7.1211 3.0156 10.492 11.242 7.5117 18.336z"/> <path d="m203.04 492.28h0.28516c1.0312 0 1.7227-0.83594 1.7227-1.8672s-0.97656-1.8672-2.0078-1.8672-1.8672 0.83594-1.8672 1.8672 0.83594 1.8672 1.8672 1.8672z"/> <path d="m607.05 444.3h-7.2383l-0.003906-179.18c0-9.1758-7.4648-16.645-16.645-16.645h-374.16c-9.1797 0-16.645 7.4688-16.645 16.645v72.867c-8.1328 5.1836-13.172 14.176-13.172 23.859 0 9.7188 5.0195 18.773 13.172 23.938v115.2c-5.8203 3.6875-10.004 9.3711-11.945 15.855h-8.207c-1.0312 0-1.8672 0.83594-1.8672 1.8672v14.293c0 5.293 2.5156 9.9609 6.3594 13.035h-10.91c-1.0312 0-1.8672 0.83594-1.8672 1.8672s0.83594 1.8672 1.8672 1.8672l89.496-0.003907c5.9336 2.2617 12.438 2.3906 18.68 0h352.84c1.0312 0 1.8672-0.83594 1.8672-1.8672s-0.83594-1.8672-1.8672-1.8672h-9.2617c1.5977-1.2812 2.9844-2.8438 4.0391-4.6641l20.785-35.93c3.0195-5.1641 3.0234-11.605 0.003906-16.805l-20.793-35.941c-2.9766-5.1016-8.4297-8.3906-14.523-8.3906zm-398.05-192.09h374.16c7.1211 0 12.914 5.793 12.914 12.914v179.18h-15.973v-174.26c0-1.0312-0.83594-1.8672-1.8672-1.8672l-364.31 0.003906c-1.0312 0-1.8672 0.83594-1.8672 1.8672v92.062h-13.938c-1.0312 0-1.8711-0.83984-1.8711-1.8711v-21.367c0-0.21875-0.09375-0.41406-0.16406-0.61328l0.003906-73.141c0-7.1172 5.793-12.91 12.91-12.91zm13.625 248.66h15.742v15.934l-3.6836 0.003906c-1.957-6.5156-6.1797-12.23-12.059-15.906zm36.449-114.52-8.9805-15.125 8.7891-31.453h11.387l8.8359 31.449-9.0234 15.121c-0.17188 0.28906-0.26562 0.62109-0.26562 0.95703v51.613h-10.484l0.003907-51.609c0-0.33594-0.089844-0.66406-0.26172-0.95312zm15.199 56.312c1.4844 0 2.6914 1.207 2.6914 2.6914v11.496h-24.723v-11.496c0-1.4844 1.207-2.6914 2.6914-2.6914zm10.141 17.918c1.4844 0 2.6914 1.207 2.6914 2.6914v62.043c0 29.418-45.004 28.656-45.004 0v-62.043c0-1.4844 1.207-2.6914 2.6914-2.6914h39.621zm-48.867 59.992h2.8203v4.7422c0 8.4258 4.0156 15.914 10.23 20.711h-22.172c5.9375-5.3164 9.5-12.957 9.5-21.098-0.003906-1.4766-0.15625-2.9258-0.37891-4.3555zm-16.652 25.449h-22.641v-19.492c0-1.0312 0.83984-1.8711 1.8711-1.8711h18.902c1.0312 0 1.8711 0.83984 1.8711 1.8711zm61.727 0c6.1992-4.7969 10.215-12.285 10.215-20.711v-4.7422h55.023c0.96094 9.1445 8.625 16.324 18.023 16.324h64.398c9.3945 0 17.062-7.1797 18.023-16.324h92.688l12.023 20.789c1.043 1.8203 2.418 3.3789 4.0078 4.6602zm162.02-25.449c-0.92969 7.0977-7.0117 12.594-14.355 12.594h-64.398c-7.3438 0-13.426-5.4961-14.355-12.594zm-151.8-3.7695v-15.938h237.6c0.37109 1.582 0.95312 3.125 1.7969 4.5664l6.5781 11.371zm239.4-28.172c-1.5234 2.6289-2.2734 5.5703-2.2578 8.5039h-237.14v-33.863c0-3.5391-2.8828-6.4219-6.4219-6.4219h-3.7188v-11.496c0-3.543-2.8828-6.4219-6.4219-6.4219h-0.71875v-51.117l9.168-15.367c0.26172-0.44141 0.33203-0.96875 0.19531-1.4609l-9.4336-33.582c-0.22656-0.80469-0.96094-1.3594-1.7969-1.3594h-14.219c-0.83594 0-1.5742 0.55859-1.7969 1.3633l-9.3867 33.582c-0.13672 0.49219-0.066406 1.0156 0.19141 1.457l9.125 15.371v51.117l-0.67187-0.003906c-3.5391 0-6.4219 2.8828-6.4219 6.4219v11.496h-3.7188c-3.5391 0-6.4219 2.8828-6.4219 6.4219v33.863h-15.742v-111.26c8.2305-5.1484 13.297-14.258 13.297-24.031 0-10.141-5.4531-19.562-14.234-24.594-0.57812-0.32812-1.2852-0.32812-1.8633 0.003907-0.57422 0.33203-0.92969 0.94922-0.92969 1.6133v21.367c0 1.0312-0.83984 1.8711-1.8711 1.8711h-1.2305v-90.195h360.58v172.39h-10.82c-5.9961 0-11.562 3.2188-14.527 8.3945zm-334.96 14.938c0.0625-0.035157 0.09375-0.10938 0.15234-0.15234 0.066406-0.058594 0.12891-0.11719 0.1875-0.1875 0.34766-0.34766 0.59766-0.77734 0.59766-1.2812v-117.13c0-0.48828-0.23828-0.90625-0.56641-1.25-0.082032-0.10156-0.17188-0.1875-0.26953-0.26953-0.039062-0.027344-0.058594-0.074219-0.10156-0.10156-7.625-4.3672-12.359-12.547-12.359-21.352 0-7.6641 3.6094-14.867 9.6016-19.488v17.883c0 3.0898 2.5117 5.6016 5.6016 5.6016h15.777c0.007812 0 0.015624 0.003906 0.027343 0.003906 0.007813 0 0.015625-0.003906 0.027344-0.003906h3.0703c3.0898 0 5.6016-2.5117 5.6016-5.6016v-17.879c5.9688 4.6133 9.5664 11.816 9.5664 19.488 0 8.8047-4.7344 16.988-12.359 21.352-0.58203 0.33203-0.9375 0.95312-0.9375 1.6211v103.72h-7.4141c-1.0312 0-1.8672 0.83594-1.8672 1.8672s0.83594 1.8672 1.8672 1.8672h7.4141c0 0.14062 0-1.1211-0.003906 6.7266 0 0.007812 0.003906 0.011719 0.003906 0.019531v2.9336c0 0.66797 0.35547 1.2852 0.9375 1.6211 7.6211 4.3672 12.359 12.547 12.359 21.352 0 7.6719-3.5938 14.871-9.5664 19.488v-17.879c0-3.0898-2.5117-5.6016-5.6016-5.6016h-18.902c-3.0898 0-5.6016 2.5117-5.6016 5.6016v17.883c-5.9922-4.6211-9.6016-11.824-9.6016-19.488 0-8.8164 4.7344-17 12.359-21.367zm-21.207 29.43v-12.426h5.4922c-0.22266 1.4297-0.375 2.8789-0.375 4.3516 0 8.1367 3.5742 15.777 9.5312 21.098h-1.6211c-7.1836 0-13.027-5.8398-13.027-13.023zm465.06-29.438-20.789 35.938c-2.3398 4.0312-6.668 6.5352-11.297 6.5352h-1.9336c-61.152-0.015624-31.023-0.007812-39.703-0.007812-4.6094-0.046875-8.875-2.5312-11.16-6.5234l-20.793-35.945c-2.3438-4.0078-2.3438-9.0078 0.003907-13.051l20.793-35.945c2.3047-4.0234 6.6328-6.5273 11.293-6.5273h41.496c4.7461 0 8.9805 2.5625 11.297 6.5312l20.789 35.938c2.3516 4.043 2.3516 9.043 0.003906 13.059z"/> <path d="m600.76 478.21c-5.2891-4.0859-12.02-5.7148-18.961-4.5742-6.1836 1.0117-11.73 4.207-14.484 8.3359-5.0742 7.6016-6.2266 16.008-3.2422 23.664 2.8164 7.2305 8.9844 12.645 16.504 14.48 8.4688 2.2422 17.551-0.44141 23.645-7.1289 5.918-6.4922 7.5859-15.445 4.4766-23.922-1.5312-4.3438-4.2812-8.1016-7.9375-10.855zm0.69922 32.266c-5.1211 5.6211-12.766 7.9375-19.949 6.0312-0.011719-0.003906-0.023438-0.003906-0.035157-0.007812-6.3438-1.5469-11.551-6.1133-13.926-12.215-2.5273-6.4922-1.5117-13.676 2.8672-20.238 2.1953-3.293 6.7891-5.8711 11.98-6.7227 5.7148-0.94141 11.477 0.28906 16.098 3.8594 3.0859 2.3242 5.3945 5.4805 6.6875 9.1523 2.6719 7.2734 1.3125 14.617-3.7227 20.141z"/> </g> </g>
</svg>