<svg xmlns="http://www.w3.org/2000/svg" xmlns:xlink="http://www.w3.org/1999/xlink" width="500" zoomAndPan="magnify" viewBox="0 0 375 374.999991" height="500" preserveAspectRatio="xMidYMid meet" version="1.0"><defs><clipPath id="95f7608d9b"><path d="M 74.125 39 L 300.625 39 L 300.625 337.5 L 74.125 337.5 Z M 74.125 39 " clip-rule="nonzero"/></clipPath></defs><g clip-path="url(#95f7608d9b)"><path fill="#00406d" d="M 291.832031 235.5 L 272.003906 241.945312 C 270.535156 242.421875 269.410156 243.621094 269.027344 245.113281 C 267.066406 252.757812 264.023438 260.082031 259.992188 266.898438 C 259.203125 268.230469 259.152344 269.875 259.851562 271.253906 L 269.324219 289.839844 L 253.242188 305.921875 L 234.652344 296.449219 C 233.277344 295.75 231.636719 295.804688 230.304688 296.585938 C 223.492188 300.617188 216.164062 303.660156 208.519531 305.621094 C 207.023438 306.007812 205.824219 307.128906 205.347656 308.601562 L 198.902344 328.429688 L 176.160156 328.429688 L 169.71875 308.601562 C 169.238281 307.132812 168.042969 306.007812 166.546875 305.621094 C 158.910156 303.664062 151.578125 300.621094 144.761719 296.585938 C 143.429688 295.796875 141.785156 295.75 140.410156 296.449219 L 121.820312 305.921875 L 105.738281 289.839844 L 115.210938 271.253906 C 115.914062 269.875 115.863281 268.230469 115.074219 266.898438 C 111.042969 260.085938 108.003906 252.757812 106.042969 245.121094 C 105.65625 243.621094 104.53125 242.421875 103.0625 241.945312 L 83.230469 235.5 L 83.230469 228.644531 L 125.695312 228.644531 C 128.019531 260.730469 154.863281 286.128906 187.53125 286.128906 C 220.199219 286.128906 247.046875 260.730469 249.367188 228.644531 L 291.832031 228.644531 Z M 95.140625 212.8125 C 95.140625 195.980469 108.925781 182.503906 125.449219 182.503906 C 133.957031 182.503906 142.136719 186.195312 147.863281 192.496094 L 132.390625 220.269531 C 131.707031 219.851562 130.90625 219.609375 130.050781 219.609375 L 95.140625 219.609375 Z M 110.039062 161.078125 C 110.039062 154.179688 115.652344 148.566406 122.550781 148.566406 C 129.449219 148.566406 135.0625 154.183594 135.0625 161.078125 C 135.0625 167.503906 130.1875 172.8125 123.941406 173.503906 C 123.46875 173.523438 123.003906 173.550781 122.539062 173.585938 C 115.644531 173.574219 110.039062 167.96875 110.039062 161.078125 Z M 153.382812 264.578125 L 154.925781 242.511719 L 143.671875 253.785156 C 146.402344 257.816406 149.675781 261.441406 153.382812 264.578125 Z M 171.480469 183.441406 C 165.617188 185.5625 162.910156 186.539062 157.128906 194.429688 L 135.390625 233.445312 C 136.144531 237.679688 137.40625 241.746094 139.105469 245.570312 L 157.082031 227.5625 C 160.015625 224.621094 165.074219 226.917969 164.785156 231.066406 L 162.023438 270.53125 C 178.347656 279.542969 198.234375 279.257812 214.285156 269.820312 C 213.953125 260.523438 213.488281 252.417969 213.039062 244.566406 C 211.34375 215.039062 210.117188 193.710938 219.28125 152.921875 C 219.292969 152.863281 219.308594 152.796875 219.328125 152.734375 L 231.125 108.988281 C 231.25 108.519531 230.804688 107.816406 230.527344 107.4375 C 229.886719 106.558594 229.304688 106.433594 228.367188 106.292969 C 226.488281 105.988281 225.324219 108.617188 225.011719 109.421875 L 208.257812 152.917969 C 206.125 158.46875 205.164062 162.34375 201.078125 167.511719 C 199.625 169.46875 197.851562 171.171875 195.832031 172.539062 C 191.953125 175.78125 189.675781 176.636719 186.113281 177.785156 C 184.316406 178.363281 182.085938 179.082031 178.753906 180.570312 C 175.898438 181.847656 173.550781 182.695312 171.480469 183.441406 Z M 183.777344 142.183594 C 190.675781 142.183594 196.289062 147.789062 196.289062 154.691406 C 196.289062 157.820312 195.207031 160.824219 193.039062 162.902344 C 192.066406 163.832031 191.238281 164.589844 190.503906 165.222656 C 188.558594 166.46875 186.253906 167.203125 183.777344 167.203125 C 176.878906 167.203125 171.265625 161.589844 171.265625 154.691406 C 171.269531 147.789062 176.878906 142.183594 183.777344 142.183594 Z M 206.167969 102.03125 L 210.777344 87.945312 C 211.871094 84.601562 210.691406 80.976562 207.847656 78.917969 L 195.835938 70.230469 L 210.675781 70.257812 C 214.183594 70.257812 217.261719 68.019531 218.335938 64.679688 L 222.890625 50.570312 L 227.445312 64.683594 C 228.523438 68.027344 231.605469 70.257812 235.121094 70.257812 L 249.945312 70.230469 L 237.9375 78.917969 C 235.089844 80.976562 233.910156 84.601562 235.003906 87.945312 L 239.609375 102.03125 L 227.636719 93.300781 C 224.796875 91.226562 220.984375 91.226562 218.144531 93.300781 Z M 249.785156 182.503906 C 236.835938 182.503906 225.414062 190.675781 221.15625 202.90625 C 220.503906 216.890625 221.21875 229.441406 222.058594 244.046875 C 222.394531 249.914062 222.761719 256.351562 223.070312 263.363281 C 233.765625 253.667969 240.496094 239.667969 240.496094 224.128906 C 240.496094 221.636719 242.519531 219.613281 245.011719 219.613281 L 280.097656 219.613281 L 280.097656 212.8125 C 280.097656 195.980469 266.308594 182.503906 249.785156 182.503906 Z M 252.683594 148.566406 C 259.582031 148.566406 265.195312 154.183594 265.195312 161.078125 C 265.195312 167.96875 259.589844 173.574219 252.699219 173.589844 C 252.234375 173.550781 251.765625 173.523438 251.296875 173.503906 C 245.050781 172.8125 240.175781 167.503906 240.175781 161.078125 C 240.175781 154.183594 245.789062 148.566406 252.683594 148.566406 Z M 296.347656 219.609375 L 289.132812 219.609375 L 289.132812 212.8125 C 289.132812 197.203125 279.996094 183.695312 266.796875 177.335938 C 271.34375 173.382812 274.230469 167.566406 274.230469 161.078125 C 274.230469 149.195312 264.566406 139.535156 252.683594 139.535156 C 240.804688 139.535156 231.140625 149.195312 231.140625 161.078125 C 231.140625 166.691406 233.304688 171.816406 236.839844 175.65625 C 231.59375 177.480469 226.820312 180.390625 222.8125 184.171875 C 223.925781 175.511719 225.609375 165.976562 228.074219 154.996094 L 239.550781 112.441406 C 241.8125 113.003906 244.253906 112.574219 246.226562 111.140625 C 249.0625 109.074219 250.234375 105.457031 249.144531 102.125 L 243.8125 85.820312 L 257.710938 75.761719 C 264.011719 71.203125 260.757812 61.183594 252.976562 61.191406 L 235.820312 61.222656 L 230.550781 44.898438 C 228.160156 37.488281 217.621094 37.488281 215.230469 44.898438 L 209.960938 61.222656 L 192.789062 61.191406 C 185.019531 61.191406 181.777344 71.207031 188.070312 75.761719 L 201.96875 85.820312 L 196.636719 102.125 C 195.546875 105.457031 196.71875 109.074219 199.554688 111.140625 C 202.394531 113.199219 206.203125 113.195312 209.035156 111.128906 L 216.925781 105.371094 C 216.808594 105.636719 216.691406 105.898438 216.582031 106.175781 L 202.199219 143.527344 C 198.414062 137.3125 191.574219 133.148438 183.78125 133.148438 C 171.898438 133.148438 162.234375 142.8125 162.234375 154.695312 C 162.234375 162.589844 166.511719 169.503906 172.867188 173.257812 C 164.808594 176.550781 160.058594 176.914062 153.136719 184.925781 C 148.941406 180.773438 143.875 177.625 138.367188 175.691406 C 141.921875 171.847656 144.097656 166.710938 144.097656 161.078125 C 144.097656 149.195312 134.433594 139.535156 122.550781 139.535156 C 110.671875 139.535156 101.007812 149.195312 101.007812 161.078125 C 101.007812 167.566406 103.894531 173.382812 108.441406 177.335938 C 95.242188 183.695312 86.105469 197.207031 86.105469 212.8125 L 86.105469 219.613281 L 78.714844 219.613281 C 76.21875 219.613281 74.199219 221.636719 74.199219 224.128906 L 74.199219 238.78125 C 74.199219 240.738281 75.457031 242.472656 77.320312 243.078125 L 97.945312 249.78125 C 99.890625 256.582031 102.609375 263.132812 106.050781 269.324219 L 96.199219 288.660156 C 95.3125 290.40625 95.644531 292.519531 97.03125 293.90625 L 117.753906 314.632812 C 119.136719 316.015625 121.253906 316.347656 123 315.464844 L 142.332031 305.609375 C 148.53125 309.054688 155.085938 311.777344 161.878906 313.714844 L 168.582031 334.34375 C 169.1875 336.207031 170.921875 337.464844 172.878906 337.464844 L 202.183594 337.464844 C 204.144531 337.464844 205.875 336.207031 206.480469 334.34375 L 213.183594 313.714844 C 219.980469 311.769531 226.539062 309.054688 232.730469 305.609375 L 252.066406 315.464844 C 253.8125 316.347656 255.925781 316.015625 257.3125 314.632812 L 278.035156 293.90625 C 279.417969 292.519531 279.753906 290.40625 278.863281 288.660156 L 269.011719 269.324219 C 272.460938 263.132812 275.179688 256.574219 277.121094 249.78125 L 297.746094 243.078125 C 299.609375 242.472656 300.867188 240.738281 300.867188 238.78125 L 300.867188 224.128906 C 300.867188 221.632812 298.84375 219.609375 296.347656 219.609375 Z M 296.347656 219.609375 " fill-opacity="1" fill-rule="evenodd"/></g></svg>