<svg xmlns="http://www.w3.org/2000/svg" xmlns:xlink="http://www.w3.org/1999/xlink" width="500" zoomAndPan="magnify" viewBox="0 0 375 374.999991" height="500" preserveAspectRatio="xMidYMid meet" version="1.0"><defs><clipPath id="19d78e1a87"><path d="M 37.5 44.25 L 337.5 44.25 L 337.5 330.75 L 37.5 330.75 Z M 37.5 44.25 " clip-rule="nonzero"/></clipPath></defs><g clip-path="url(#19d78e1a87)"><path fill="#00406d" d="M 187.5 44.316406 C 180.574219 44.316406 173.636719 44.816406 166.765625 45.824219 C 164.128906 46.214844 161.964844 48.101562 161.214844 50.660156 L 155.871094 68.910156 C 145.417969 71.699219 135.367188 75.871094 126 81.300781 L 109.328125 72.148438 C 106.992188 70.867188 104.121094 71.066406 101.980469 72.65625 C 90.839844 80.953125 80.953125 90.839844 72.65625 101.980469 C 71.066406 104.121094 70.867188 106.992188 72.148438 109.328125 L 81.300781 126 C 75.871094 135.367188 71.699219 145.417969 68.910156 155.882812 C 68.910156 155.878906 50.660156 161.214844 50.660156 161.214844 C 48.101562 161.964844 46.214844 164.128906 45.824219 166.765625 C 43.8125 180.519531 43.8125 194.480469 45.824219 208.234375 C 46.371094 211.957031 49.828125 214.535156 53.558594 213.988281 C 57.28125 213.441406 59.855469 209.984375 59.3125 206.261719 C 57.703125 195.257812 57.523438 184.089844 58.765625 173.050781 L 76.492188 167.871094 C 78.859375 167.183594 80.664062 165.265625 81.21875 162.867188 C 83.933594 151.152344 88.574219 139.96875 94.9375 129.769531 C 96.238281 127.675781 96.308594 125.046875 95.121094 122.882812 L 86.25 106.675781 C 92.277344 99.128906 99.128906 92.269531 106.675781 86.25 C 106.675781 86.242188 122.882812 95.121094 122.882812 95.121094 C 125.046875 96.308594 127.675781 96.238281 129.769531 94.9375 C 139.96875 88.574219 151.152344 83.933594 162.867188 81.21875 C 165.265625 80.664062 167.183594 78.859375 167.871094 76.492188 L 173.050781 58.765625 C 182.652344 57.683594 192.347656 57.683594 201.949219 58.765625 L 207.128906 76.492188 C 207.816406 78.859375 209.734375 80.664062 212.132812 81.21875 C 223.847656 83.933594 235.03125 88.574219 245.230469 94.9375 C 247.324219 96.238281 249.953125 96.308594 252.117188 95.121094 L 268.324219 86.25 C 275.871094 92.277344 282.730469 99.128906 288.75 106.675781 C 288.757812 106.675781 279.878906 122.882812 279.878906 122.882812 C 278.691406 125.046875 278.761719 127.675781 280.0625 129.769531 C 286.425781 139.96875 291.066406 151.152344 293.78125 162.867188 C 294.335938 165.265625 296.140625 167.183594 298.507812 167.871094 L 316.234375 173.050781 C 317.476562 184.089844 317.296875 195.257812 315.6875 206.261719 C 315.144531 209.984375 317.71875 213.441406 321.441406 213.988281 C 325.171875 214.535156 328.628906 211.957031 329.175781 208.234375 C 331.1875 194.480469 331.1875 180.519531 329.175781 166.765625 C 328.785156 164.128906 326.898438 161.964844 324.339844 161.214844 L 306.089844 155.871094 C 303.300781 145.417969 299.128906 135.367188 293.699219 126 L 302.851562 109.328125 C 304.132812 106.992188 303.933594 104.121094 302.34375 101.980469 C 294.046875 90.839844 284.160156 80.953125 273.019531 72.65625 C 270.878906 71.066406 268.007812 70.867188 265.671875 72.148438 L 249 81.300781 C 239.632812 75.871094 229.582031 71.699219 219.117188 68.910156 C 219.121094 68.910156 213.785156 50.660156 213.785156 50.660156 C 213.035156 48.101562 210.871094 46.214844 208.234375 45.824219 C 201.363281 44.816406 194.425781 44.316406 187.5 44.316406 Z M 187.5 98.863281 C 139.808594 98.863281 100.234375 133.921875 93.164062 179.644531 C 92.589844 183.367188 95.148438 186.84375 98.863281 187.417969 C 102.585938 187.996094 106.070312 185.433594 106.644531 181.71875 C 112.703125 142.527344 146.625 112.5 187.5 112.5 C 228.375 112.5 262.296875 142.527344 268.355469 181.71875 C 268.929688 185.433594 272.414062 187.996094 276.136719 187.417969 C 279.851562 186.84375 282.410156 183.367188 281.835938 179.644531 C 274.765625 133.921875 235.191406 98.863281 187.5 98.863281 Z M 98.863281 207.953125 C 64.996094 207.953125 37.5 235.453125 37.5 269.316406 C 37.5 303.183594 64.996094 330.683594 98.863281 330.683594 C 107.699219 330.683594 120.191406 325.574219 133.179688 317.964844 C 161.039062 301.636719 192 274.433594 192 274.433594 C 192 274.433594 221.835938 248.175781 248.707031 232.433594 C 259.171875 226.296875 269.019531 221.589844 276.136719 221.589844 C 302.476562 221.589844 323.863281 242.972656 323.863281 269.316406 C 323.863281 295.664062 302.476562 317.046875 276.136719 317.046875 C 266.46875 317.046875 254.6875 311.855469 243.949219 305.898438 C 226.78125 296.394531 212.285156 284.503906 212.285156 284.503906 C 209.371094 282.117188 205.070312 282.539062 202.683594 285.457031 C 200.296875 288.367188 200.714844 292.664062 203.625 295.042969 C 203.625 295.042969 219.066406 307.703125 237.347656 317.828125 C 250.234375 324.96875 264.53125 330.683594 276.136719 330.683594 C 310.003906 330.683594 337.5 303.183594 337.5 269.316406 C 337.5 235.453125 310.003906 207.953125 276.136719 207.953125 C 267.300781 207.953125 254.808594 213.0625 241.820312 220.671875 C 213.960938 237 183 264.191406 183 264.191406 C 183 264.191406 153.164062 290.449219 126.292969 306.191406 C 115.828125 312.328125 105.980469 317.046875 98.863281 317.046875 C 72.523438 317.046875 51.136719 295.664062 51.136719 269.316406 C 51.136719 242.972656 72.523438 221.589844 98.863281 221.589844 C 108.53125 221.589844 120.3125 226.78125 131.050781 232.738281 C 148.21875 242.242188 162.714844 254.132812 162.714844 254.132812 C 165.628906 256.519531 169.929688 256.097656 172.316406 253.179688 C 174.703125 250.269531 174.285156 245.972656 171.375 243.59375 C 171.375 243.59375 155.933594 230.933594 137.652344 220.808594 C 124.765625 213.667969 110.46875 207.953125 98.863281 207.953125 Z M 98.863281 235.226562 C 80.050781 235.226562 64.773438 250.507812 64.773438 269.316406 C 64.773438 288.128906 80.050781 303.410156 98.863281 303.410156 C 102.628906 303.410156 105.683594 300.355469 105.683594 296.589844 C 105.683594 292.828125 102.628906 289.773438 98.863281 289.773438 C 87.578125 289.773438 78.410156 280.609375 78.410156 269.316406 C 78.410156 258.027344 87.578125 248.863281 98.863281 248.863281 C 104.453125 248.863281 111.953125 252.949219 119.121094 257.425781 C 131.230469 265.003906 142.117188 274.460938 142.117188 274.460938 C 144.953125 276.925781 149.261719 276.632812 151.730469 273.789062 C 154.199219 270.953125 153.90625 266.644531 151.0625 264.175781 C 151.0625 264.175781 135.066406 250.28125 119.636719 241.9375 C 112.132812 237.886719 104.660156 235.226562 98.863281 235.226562 Z M 276.136719 235.226562 C 272.371094 235.226562 269.316406 238.28125 269.316406 242.046875 C 269.316406 245.808594 272.371094 248.863281 276.136719 248.863281 C 287.425781 248.863281 296.589844 258.027344 296.589844 269.316406 C 296.589844 280.609375 287.425781 289.773438 276.136719 289.773438 C 270.546875 289.773438 263.046875 285.6875 255.878906 281.210938 C 243.769531 273.632812 232.882812 264.175781 232.882812 264.175781 C 230.046875 261.710938 225.738281 262.003906 223.269531 264.84375 C 220.800781 267.683594 221.09375 271.992188 223.9375 274.460938 C 223.9375 274.460938 239.933594 288.355469 255.363281 296.699219 C 262.867188 300.75 270.339844 303.410156 276.136719 303.410156 C 294.953125 303.410156 310.226562 288.128906 310.226562 269.316406 C 310.226562 250.507812 294.953125 235.226562 276.136719 235.226562 Z M 276.136719 235.226562 " fill-opacity="1" fill-rule="evenodd"/></g></svg>