<?xml version="1.0" encoding="UTF-8"?>
<!-- Uploaded to: SVG Find, www.svgrepo.com, Generator: SVG Find Mixer Tools -->
<svg width="800px" height="800px" version="1.1" viewBox="144 144 512 512" xmlns="http://www.w3.org/2000/svg">
 <defs>
  <clipPath id="a">
   <path d="m148.09 148.09h503.81v503.81h-503.81z"/>
  </clipPath>
 </defs>
 <g clip-path="url(#a)">
  <path d="m562.52 473.13c-2.7383 0-5.4492 0.13281-8.125 0.37109l-0.003906-207.81c0-23.793-12.332-45.344-32.504-57.395v-27.703c0-11.371-12.629-19.375-39.742-25.184-22.031-4.7188-51.203-7.3203-82.145-7.3203s-60.117 2.6016-82.145 7.3203c-27.117 5.8086-39.746 13.812-39.746 25.184v27.703c-20.172 12.051-32.504 33.602-32.504 57.395v207.81c-2.6758-0.24219-5.3867-0.37109-8.125-0.37109-49.285 0-89.387 40.098-89.387 89.387 0 49.285 40.098 89.387 89.387 89.387 36.012 0 67.117-21.41 81.258-52.168 14.145 30.758 45.246 52.168 81.258 52.168 36.012 0 67.117-21.41 81.258-52.168 14.145 30.758 45.246 52.168 81.258 52.168 49.285 0 89.387-40.098 89.387-89.387 0.003906-49.293-40.094-89.391-89.379-89.391zm-268.16-274.43c6.0586 2.6719 13.855 5.0156 23.492 7.0781 22.031 4.7188 51.203 7.3203 82.148 7.3203 30.941 0 60.117-2.6016 82.145-7.3203 9.6367-2.0664 17.434-4.4102 23.492-7.0781v13.66c-1.6562 1.9141-9.7266 6.832-31.766 11.016-20.32 3.8516-46.555 5.9727-73.871 5.9727-27.32 0-53.555-2.1211-73.871-5.9766-22.039-4.1836-30.113-9.0977-31.766-11.016zm31.77-28.379c20.316-3.8555 46.551-5.9805 73.871-5.9805s53.555 2.1211 73.871 5.9766c19.602 3.7188 28.156 8.0195 30.973 10.273-2.8164 2.2539-11.371 6.5547-30.973 10.273-20.32 3.8594-46.555 5.9805-73.871 5.9805-27.32 0-53.555-2.1211-73.871-5.9766-19.602-3.7188-28.156-8.0195-30.973-10.273 2.8164-2.2539 11.371-6.5547 30.973-10.273zm-64.273 95.371c0-16.73 8.0547-31.992 21.438-41.395 6.0195 5.7422 17.379 10.305 34.559 13.984 22.031 4.7188 51.203 7.3203 82.148 7.3203 30.941 0 60.117-2.6016 82.145-7.3203 17.18-3.6836 28.539-8.2461 34.559-13.984 13.379 9.3984 21.438 24.66 21.438 41.395v28.664c0 3.6836-7.7109 12.793-36.891 20.898-26.938 7.4844-62.895 11.605-101.25 11.605s-74.312-4.1211-101.25-11.605c-29.184-8.1016-36.895-17.211-36.895-20.898zm0 52.02c7.957 4.9805 18.805 9.3906 32.539 13.207 28.316 7.8633 65.82 12.195 105.61 12.195s77.285-4.332 105.6-12.195c13.734-3.8164 24.586-8.2266 32.539-13.207v25.402h-32.504v16.25h32.504v16.25h-16.25v16.25h16.25v16.25h-32.504v16.25h32.504v16.25h-16.25v16.25h16.25v19.633c-25.297 7.1797-46.055 25.246-56.883 48.789-14.145-30.746-45.246-52.156-81.258-52.156s-67.117 21.41-81.258 52.168c-10.824-23.543-31.586-41.609-56.883-48.789zm-24.375 317.94c-40.324 0-73.133-32.809-73.133-73.133s32.809-73.133 73.133-73.133 73.133 32.809 73.133 73.133-32.809 73.133-73.133 73.133zm162.52 0c-40.324 0-73.133-32.809-73.133-73.133s32.809-73.133 73.133-73.133 73.133 32.809 73.133 73.133-32.809 73.133-73.133 73.133zm162.52 0c-40.324 0-73.133-32.809-73.133-73.133s32.809-73.133 73.133-73.133 73.133 32.809 73.133 73.133-32.809 73.133-73.133 73.133z"/>
 </g>
 <path d="m442.51 532.94-14.074 16.887-1.9336-2.3203c-9.2617-11.117-22.875-17.492-37.344-17.492-16.293 0-31.41 8.0938-40.445 21.648l-7.2383 10.859 7.2383 10.855c9.0352 13.555 24.156 21.648 40.449 21.648 14.469 0 28.082-6.375 37.344-17.492l1.9336-2.3203 14.07 16.887 12.484-10.402-15.98-19.176 15.98-19.176zm-28.492 34.188c-6.1641 7.3984-15.227 11.645-24.859 11.645-10.844 0-20.91-5.3867-26.926-14.41l-1.2266-1.8398 1.2266-1.8398c6.0156-9.0234 16.082-14.41 26.926-14.41 9.6328 0 18.691 4.2422 24.859 11.645l3.8398 4.6094z"/>
 <path d="m592.1 522.45c-6.1875-10.43-17.305-16.809-29.578-16.809-12.273 0-23.391 6.3789-29.578 16.812-10.953 2.3867-19.18 12.16-19.18 23.816 0 13.441 10.934 24.379 24.379 24.379v32.504c0 8.9609 7.293 16.25 16.25 16.25h16.25c8.9609 0 16.25-7.293 16.25-16.25v-32.504c13.441 0 24.379-10.938 24.379-24.379 0.003907-11.656-8.2227-21.43-19.172-23.82zm-21.453 80.703h-16.25v-35.746c0.9375-0.38672 1.8672-0.79688 2.7773-1.25l5.3516-2.6758 5.3477 2.6758c0.90625 0.45312 1.8359 0.86328 2.7773 1.25zm16.25-48.758c-4.0625 0-8.1289-0.96094-11.762-2.7773l-12.613-6.3047-12.617 6.3086c-3.6328 1.8164-7.6992 2.7734-11.762 2.7734-4.4805 0-8.125-3.6445-8.125-8.125s3.6445-8.125 8.125-8.125h5.0234l3.1055-6.207c3.0977-6.1953 9.3242-10.043 16.25-10.043s13.152 3.8477 16.25 10.043l3.1055 6.207h5.0195c4.4805 0 8.125 3.6445 8.125 8.125 0.003907 4.4805-3.6445 8.125-8.125 8.125z"/>
 <path d="m196.85 530.02c-8.9609 0-16.25 7.293-16.25 16.25v8.125c0 31.363 25.516 56.883 56.883 56.883 31.363 0 56.883-25.516 56.883-56.883v-8.125c0-8.9609-7.293-16.25-16.25-16.25zm0 24.375v-8.125h30.863l-22.148 33.223c-5.4492-6.9141-8.7148-15.629-8.7148-25.098zm21.199 35.672 19.434-29.148 19.434 29.148c-5.7773 3.1602-12.398 4.9609-19.434 4.9609-7.0352 0-13.656-1.8008-19.434-4.9609zm60.062-35.672c0 9.4688-3.2656 18.184-8.7148 25.098l-22.148-33.223h30.863z"/>
 <path d="m359.37 440.63h81.258c17.922 0 32.504-14.582 32.504-32.504s-14.582-32.504-32.504-32.504h-81.258c-17.922 0-32.504 14.582-32.504 32.504s14.582 32.504 32.504 32.504zm97.512-32.504c0 8.9609-7.293 16.25-16.25 16.25h-32.504v-32.504h32.504c8.9609 0 16.25 7.293 16.25 16.254zm-97.512-16.254h32.504v32.504h-32.504c-8.9609 0-16.25-7.293-16.25-16.25 0-8.9609 7.2891-16.254 16.25-16.254z"/>
</svg>