<svg xmlns="http://www.w3.org/2000/svg" xmlns:xlink="http://www.w3.org/1999/xlink" width="500" zoomAndPan="magnify" viewBox="0 0 375 374.999991" height="500" preserveAspectRatio="xMidYMid meet" version="1.0"><defs><clipPath id="a50768c423"><path d="M 105 188 L 270 188 L 270 337.5 L 105 337.5 Z M 105 188 " clip-rule="nonzero"/></clipPath><clipPath id="0e36554c3b"><path d="M 39.1875 124 L 114 124 L 114 155 L 39.1875 155 Z M 39.1875 124 " clip-rule="nonzero"/></clipPath></defs><path fill="#00406d" d="M 247.996094 154.980469 C 250.21875 154.4375 251.75 152.457031 251.75 150.183594 L 251.75 128.636719 C 251.75 126.363281 250.21875 124.386719 247.996094 123.84375 L 237.761719 121.273438 C 237.21875 119.691406 236.578125 118.160156 235.835938 116.675781 L 241.273438 107.632812 C 242.457031 105.703125 242.113281 103.183594 240.53125 101.601562 L 225.257812 86.332031 C 223.679688 84.75 221.15625 84.402344 219.230469 85.589844 L 210.183594 91.027344 C 208.703125 90.332031 207.121094 89.691406 205.589844 89.097656 L 203.019531 78.867188 C 202.476562 76.644531 200.5 75.109375 198.226562 75.109375 L 176.675781 75.109375 C 174.402344 75.109375 172.425781 76.644531 171.882812 78.867188 L 169.3125 89.097656 C 167.730469 89.640625 166.199219 90.285156 164.714844 91.027344 L 155.671875 85.589844 C 153.742188 84.402344 151.222656 84.75 149.640625 86.332031 L 134.371094 101.601562 C 132.789062 103.183594 132.441406 105.703125 133.628906 107.632812 L 139.066406 116.675781 C 138.375 118.160156 137.730469 119.742188 137.136719 121.273438 L 126.90625 123.84375 C 124.683594 124.386719 123.152344 126.363281 123.152344 128.636719 L 123.152344 150.183594 C 123.152344 152.457031 124.683594 154.4375 126.90625 154.980469 L 137.136719 157.550781 C 137.679688 159.132812 138.324219 160.664062 139.066406 162.144531 L 133.628906 171.191406 C 132.441406 173.117188 132.789062 175.636719 134.371094 177.21875 L 149.640625 192.492188 C 151.222656 194.074219 153.742188 194.417969 155.671875 193.234375 L 164.714844 187.796875 C 166.199219 188.488281 167.78125 189.132812 169.3125 189.722656 L 171.882812 199.953125 C 172.425781 202.179688 174.402344 203.710938 176.675781 203.710938 L 198.226562 203.710938 C 200.5 203.710938 202.476562 202.179688 203.019531 199.953125 L 205.589844 189.722656 C 207.171875 189.179688 208.703125 188.539062 210.183594 187.796875 L 219.230469 193.234375 C 221.15625 194.417969 223.679688 194.074219 225.257812 192.492188 L 240.53125 177.21875 C 242.113281 175.636719 242.457031 173.117188 241.273438 171.191406 L 235.835938 162.144531 C 236.527344 160.664062 237.171875 159.082031 237.761719 157.550781 Z M 232.773438 148.605469 C 231.089844 149 229.757812 150.285156 229.214844 151.964844 C 228.375 154.78125 227.238281 157.5 225.902344 160.019531 C 225.0625 161.550781 225.109375 163.429688 226 164.914062 L 230.84375 172.96875 L 221.058594 182.753906 L 213.003906 177.910156 C 211.519531 177.023438 209.640625 176.972656 208.109375 177.8125 C 205.589844 179.195312 202.871094 180.285156 200.054688 181.125 C 198.375 181.617188 197.089844 182.953125 196.691406 184.683594 L 194.417969 193.777344 L 180.582031 193.777344 L 178.308594 184.683594 C 177.910156 183.003906 176.625 181.667969 174.945312 181.125 C 172.128906 180.285156 169.410156 179.148438 166.890625 177.8125 C 165.359375 176.972656 163.480469 177.023438 161.996094 177.910156 L 153.941406 182.753906 L 144.15625 172.96875 L 149 164.914062 C 149.890625 163.429688 149.9375 161.550781 149.097656 160.019531 C 147.714844 157.5 146.625 154.78125 145.785156 151.964844 C 145.292969 150.285156 143.957031 149 142.226562 148.605469 L 133.132812 146.332031 L 133.132812 132.492188 L 142.226562 130.21875 C 143.910156 129.824219 145.242188 128.539062 145.785156 126.859375 C 146.625 124.039062 147.761719 121.320312 149.097656 118.800781 C 149.9375 117.269531 149.890625 115.390625 149 113.910156 L 144.15625 105.851562 L 153.941406 96.066406 L 161.996094 100.910156 C 163.480469 101.800781 165.359375 101.847656 166.890625 101.007812 C 169.410156 99.625 172.128906 98.539062 174.945312 97.699219 C 176.625 97.203125 177.910156 95.867188 178.308594 94.140625 L 180.582031 85.046875 L 194.417969 85.046875 L 196.691406 94.140625 C 197.089844 95.820312 198.375 97.152344 200.054688 97.699219 C 202.871094 98.539062 205.589844 99.675781 208.109375 101.007812 C 209.640625 101.847656 211.519531 101.800781 213.003906 100.910156 L 221.058594 96.066406 L 230.84375 105.851562 L 226 113.910156 C 225.109375 115.390625 225.0625 117.269531 225.902344 118.800781 C 227.285156 121.320312 228.375 124.039062 229.214844 126.859375 C 229.707031 128.539062 231.042969 129.824219 232.773438 130.21875 L 241.867188 132.492188 L 241.867188 146.332031 Z M 232.773438 148.605469 " fill-opacity="1" fill-rule="nonzero"/><path fill="#00406d" d="M 187.5 109.757812 C 171.140625 109.757812 157.847656 123.050781 157.847656 139.410156 C 157.847656 155.769531 171.140625 169.066406 187.5 169.066406 C 203.859375 169.066406 217.152344 155.769531 217.152344 139.410156 C 217.152344 123.050781 203.859375 109.757812 187.5 109.757812 Z M 187.5 159.179688 C 176.578125 159.179688 167.730469 150.332031 167.730469 139.410156 C 167.730469 128.488281 176.578125 119.640625 187.5 119.640625 C 198.421875 119.640625 207.269531 128.488281 207.269531 139.410156 C 207.269531 150.332031 198.421875 159.179688 187.5 159.179688 Z M 187.5 159.179688 " fill-opacity="1" fill-rule="nonzero"/><g clip-path="url(#a50768c423)"><path fill="#00406d" d="M 260.203125 190.960938 C 254.964844 198.421875 248.636719 204.996094 241.371094 210.480469 C 230.5 218.785156 223.726562 230.648438 222.34375 243.59375 L 152.605469 243.59375 C 151.222656 230.648438 144.453125 218.785156 133.53125 210.433594 C 126.3125 204.945312 119.988281 198.375 114.75 190.960938 C 113.167969 188.734375 110.101562 188.191406 107.878906 189.773438 C 105.65625 191.355469 105.109375 194.417969 106.691406 196.644531 C 112.476562 204.898438 119.492188 212.164062 127.550781 218.289062 C 136 224.765625 141.289062 233.808594 142.625 243.644531 C 134.617188 243.84375 128.140625 250.367188 128.140625 258.421875 C 128.140625 266.480469 134.816406 273.25 142.96875 273.25 L 142.96875 283.132812 L 138.027344 283.132812 C 135.308594 283.132812 133.085938 285.359375 133.085938 288.078125 C 133.085938 290.792969 135.308594 293.019531 138.027344 293.019531 L 142.96875 293.019531 L 142.96875 297.960938 C 142.96875 306.117188 149.640625 312.789062 157.796875 312.789062 L 162.738281 312.789062 C 162.738281 326.429688 173.808594 337.5 187.449219 337.5 C 201.089844 337.5 212.164062 326.429688 212.164062 312.789062 L 217.105469 312.789062 C 225.257812 312.789062 231.929688 306.117188 231.929688 297.960938 L 231.929688 293.019531 L 236.875 293.019531 C 239.59375 293.019531 241.816406 290.792969 241.816406 288.078125 C 241.816406 285.359375 239.59375 283.132812 236.875 283.132812 L 231.929688 283.132812 L 231.929688 273.25 C 240.085938 273.25 246.757812 266.578125 246.757812 258.421875 C 246.757812 250.269531 240.285156 243.84375 232.277344 243.644531 C 233.613281 233.808594 238.898438 224.765625 247.300781 218.339844 C 255.359375 212.210938 262.375 204.945312 268.207031 196.644531 C 269.789062 194.417969 269.246094 191.304688 267.023438 189.773438 C 264.796875 188.191406 261.683594 188.734375 260.152344 190.960938 Z M 187.5 327.617188 C 179.34375 327.617188 172.671875 320.941406 172.671875 312.789062 L 202.328125 312.789062 C 202.328125 320.941406 195.65625 327.617188 187.5 327.617188 Z M 222.097656 297.960938 C 222.097656 300.679688 219.871094 302.902344 217.152344 302.902344 L 157.847656 302.902344 C 155.128906 302.902344 152.902344 300.679688 152.902344 297.960938 L 152.902344 293.019531 L 222.097656 293.019531 Z M 222.097656 283.132812 L 152.902344 283.132812 L 152.902344 273.25 L 222.097656 273.25 Z M 236.921875 258.421875 C 236.921875 261.140625 234.699219 263.363281 231.980469 263.363281 L 143.019531 263.363281 C 140.300781 263.363281 138.078125 261.140625 138.078125 258.421875 C 138.078125 255.703125 140.300781 253.480469 143.019531 253.480469 L 147.863281 253.480469 C 147.863281 253.480469 147.960938 253.480469 147.960938 253.480469 L 227.039062 253.480469 C 227.039062 253.480469 227.136719 253.480469 227.136719 253.480469 L 231.980469 253.480469 C 234.699219 253.480469 236.921875 255.703125 236.921875 258.421875 Z M 236.921875 258.421875 " fill-opacity="1" fill-rule="nonzero"/></g><path fill="#00406d" d="M 115.292969 87.910156 C 130.019531 67.449219 152.65625 54.105469 177.320312 51.386719 C 209.394531 47.78125 240.976562 61.765625 259.757812 87.910156 C 260.746094 89.246094 262.226562 89.988281 263.761719 89.988281 C 264.75 89.988281 265.785156 89.691406 266.625 89.046875 C 268.851562 87.46875 269.34375 84.351562 267.761719 82.128906 C 246.957031 53.117188 211.914062 37.550781 176.230469 41.550781 C 148.800781 44.566406 123.644531 59.394531 107.285156 82.128906 C 105.703125 84.351562 106.199219 87.417969 108.421875 89.046875 C 110.648438 90.628906 113.710938 90.136719 115.34375 87.910156 Z M 115.292969 87.910156 " fill-opacity="1" fill-rule="nonzero"/><path fill="#00406d" d="M 320.941406 124.585938 C 314.519531 124.585938 309.082031 128.734375 307.003906 134.46875 L 266.578125 134.46875 C 263.859375 134.46875 261.636719 136.691406 261.636719 139.410156 C 261.636719 142.128906 263.859375 144.351562 266.578125 144.351562 L 307.003906 144.351562 C 309.03125 150.085938 314.46875 154.238281 320.941406 154.238281 C 329.097656 154.238281 335.769531 147.566406 335.769531 139.410156 C 335.769531 131.257812 329.097656 124.585938 320.941406 124.585938 Z M 320.941406 144.351562 C 318.226562 144.351562 316 142.128906 316 139.410156 C 316 136.691406 318.226562 134.46875 320.941406 134.46875 C 323.660156 134.46875 325.886719 136.691406 325.886719 139.410156 C 325.886719 142.128906 323.660156 144.351562 320.941406 144.351562 Z M 320.941406 144.351562 " fill-opacity="1" fill-rule="nonzero"/><path fill="#00406d" d="M 256.691406 99.871094 C 253.972656 99.871094 251.75 102.097656 251.75 104.816406 C 251.75 107.53125 253.972656 109.757812 256.691406 109.757812 L 291.289062 109.757812 C 293.019531 109.757812 294.648438 108.867188 295.539062 107.335938 L 303.152344 94.632812 C 304.089844 94.832031 305.078125 94.929688 306.117188 94.929688 C 314.269531 94.929688 320.941406 88.257812 320.941406 80.101562 C 320.941406 71.949219 314.269531 65.277344 306.117188 65.277344 C 297.960938 65.277344 291.289062 71.949219 291.289062 80.101562 C 291.289062 83.660156 292.625 86.921875 294.699219 89.445312 L 288.472656 99.871094 Z M 306.117188 75.160156 C 308.835938 75.160156 311.058594 77.382812 311.058594 80.101562 C 311.058594 82.820312 308.835938 85.046875 306.117188 85.046875 C 303.398438 85.046875 301.171875 82.820312 301.171875 80.101562 C 301.171875 77.382812 303.398438 75.160156 306.117188 75.160156 Z M 306.117188 75.160156 " fill-opacity="1" fill-rule="nonzero"/><path fill="#00406d" d="M 306.117188 183.890625 C 305.078125 183.890625 304.089844 183.992188 303.152344 184.1875 L 295.539062 171.488281 C 294.648438 170.003906 293.019531 169.066406 291.289062 169.066406 L 256.691406 169.066406 C 253.972656 169.066406 251.75 171.289062 251.75 174.007812 C 251.75 176.726562 253.972656 178.949219 256.691406 178.949219 L 288.472656 178.949219 L 294.699219 189.378906 C 292.574219 191.949219 291.289062 195.160156 291.289062 198.71875 C 291.289062 206.875 297.960938 213.546875 306.117188 213.546875 C 314.269531 213.546875 320.941406 206.875 320.941406 198.71875 C 320.941406 190.5625 314.269531 183.890625 306.117188 183.890625 Z M 306.117188 203.660156 C 303.398438 203.660156 301.171875 201.4375 301.171875 198.71875 C 301.171875 196 303.398438 193.777344 306.117188 193.777344 C 308.835938 193.777344 311.058594 196 311.058594 198.71875 C 311.058594 201.4375 308.835938 203.660156 306.117188 203.660156 Z M 306.117188 203.660156 " fill-opacity="1" fill-rule="nonzero"/><g clip-path="url(#0e36554c3b)"><path fill="#00406d" d="M 67.996094 144.351562 L 108.421875 144.351562 C 111.140625 144.351562 113.363281 142.128906 113.363281 139.410156 C 113.363281 136.691406 111.140625 134.46875 108.421875 134.46875 L 67.996094 134.46875 C 65.96875 128.734375 60.53125 124.585938 54.058594 124.585938 C 45.902344 124.585938 39.230469 131.257812 39.230469 139.410156 C 39.230469 147.566406 45.902344 154.238281 54.058594 154.238281 C 60.480469 154.238281 65.917969 150.085938 67.996094 144.351562 Z M 49.113281 139.410156 C 49.113281 136.691406 51.339844 134.46875 54.058594 134.46875 C 56.773438 134.46875 59 136.691406 59 139.410156 C 59 142.128906 56.773438 144.351562 54.058594 144.351562 C 51.339844 144.351562 49.113281 142.128906 49.113281 139.410156 Z M 49.113281 139.410156 " fill-opacity="1" fill-rule="nonzero"/></g><path fill="#00406d" d="M 118.308594 178.949219 C 121.027344 178.949219 123.25 176.726562 123.25 174.007812 C 123.25 171.289062 121.027344 169.066406 118.308594 169.066406 L 83.710938 169.066406 C 81.980469 169.066406 80.351562 169.953125 79.460938 171.488281 L 71.847656 184.1875 C 70.910156 183.992188 69.921875 183.890625 68.882812 183.890625 C 60.730469 183.890625 54.058594 190.5625 54.058594 198.71875 C 54.058594 206.875 60.730469 213.546875 68.882812 213.546875 C 77.039062 213.546875 83.710938 206.875 83.710938 198.71875 C 83.710938 195.160156 82.375 191.898438 80.300781 189.378906 L 86.527344 178.949219 Z M 68.882812 203.660156 C 66.164062 203.660156 63.941406 201.4375 63.941406 198.71875 C 63.941406 196 66.164062 193.777344 68.882812 193.777344 C 71.601562 193.777344 73.828125 196 73.828125 198.71875 C 73.828125 201.4375 71.601562 203.660156 68.882812 203.660156 Z M 68.882812 203.660156 " fill-opacity="1" fill-rule="nonzero"/><path fill="#00406d" d="M 68.882812 94.929688 C 69.921875 94.929688 70.910156 94.832031 71.847656 94.632812 L 79.460938 107.335938 C 80.351562 108.816406 81.980469 109.757812 83.710938 109.757812 L 118.308594 109.757812 C 121.027344 109.757812 123.25 107.53125 123.25 104.816406 C 123.25 102.097656 121.027344 99.871094 118.308594 99.871094 L 86.527344 99.871094 L 80.300781 89.445312 C 82.425781 86.875 83.710938 83.660156 83.710938 80.101562 C 83.710938 71.949219 77.039062 65.277344 68.882812 65.277344 C 60.730469 65.277344 54.058594 71.949219 54.058594 80.101562 C 54.058594 88.257812 60.730469 94.929688 68.882812 94.929688 Z M 68.882812 75.160156 C 71.601562 75.160156 73.828125 77.382812 73.828125 80.101562 C 73.828125 82.820312 71.601562 85.046875 68.882812 85.046875 C 66.164062 85.046875 63.941406 82.820312 63.941406 80.101562 C 63.941406 77.382812 66.164062 75.160156 68.882812 75.160156 Z M 68.882812 75.160156 " fill-opacity="1" fill-rule="nonzero"/></svg>