<?xml version="1.0" encoding="UTF-8"?>
<!-- Uploaded to: SVG Find, www.svgrepo.com, Generator: SVG Find Mixer Tools -->
<svg fill="#00406d" width="800px" height="800px" version="1.1" viewBox="144 144 512 512" xmlns="http://www.w3.org/2000/svg">
 <defs>
  <clipPath id="a">
   <path d="m148.09 148.09h503.81v503.81h-503.81z"/>
  </clipPath>
 </defs>
 <path d="m359.37 196.85h-130.02c-8.9609 0-16.25 7.2891-16.25 16.254v16.25c0 8.9648 7.2891 16.25 16.25 16.25h130.02c8.9648 0 16.25-7.2891 16.25-16.25l0.003906-16.25c0-8.9648-7.2891-16.254-16.254-16.254zm-56.879 16.254h24.379v16.25h-24.379zm-16.254 16.25h-24.379v-16.25h24.379zm-56.883-16.25h16.25v16.25h-16.25zm113.77 16.25v-16.25h16.25l0.007812 16.25z"/>
 <g clip-path="url(#a)">
  <path d="m568.33 424.67c-1.9102-0.19531-3.8516-0.29297-5.8086-0.29297s-3.9023 0.097656-5.8086 0.29297c-43.879 2.8438-79.211 37.395-83.168 80.969h-16.664v-60.66c0-5.4453-2.707-10.5-7.2383-13.523l-9.0117-6.0039v-147.34h32.918c4.1211 45.488 42.426 81.258 88.973 81.258 49.285 0 89.387-40.102 89.387-89.387 0-44.969-33.414-82.188-76.699-88.379-3.0664-0.64453-6.2305-1.0039-9.4805-1.0039h-6.4102c-3.25 0-6.418 0.35938-9.4766 1.0078-40.652 5.8086-72.555 38.98-76.293 80.25h-32.918v-81.258c0-8.9648-7.2891-16.25-16.25-16.25h-16.25c0-8.9648-7.2891-16.25-16.25-16.25l-227.54-0.003906c-8.9609 0-16.25 7.2891-16.25 16.25v471.3c0 8.9648 7.2891 16.25 16.25 16.25h276.28c8.9648 0 16.25-7.2891 16.25-16.25l0.003906-113.76h16.668c4.1211 45.492 42.426 81.262 88.973 81.262 49.285 0 89.387-40.102 89.387-89.387-0.003906-47.324-37-86.078-83.578-89.094zm-44.094-92.488 0.83594-4.1914c2.0195-10.07 10.934-17.375 21.195-17.375h5.0234l4.4375-8.8672c2.1914 0.47266 4.4609 0.74219 6.793 0.74219s4.5977-0.26953 6.793-0.73828l4.4336 8.8633h5.0234c10.262 0 19.176 7.3047 21.191 17.375l0.83594 4.1914c-11.148 6.8906-24.238 10.938-38.277 10.938-14.043 0-27.133-4.0469-38.285-10.938zm29.809-134.8c0.66797-0.12109 1.3633-0.12891 2.0391-0.20312 2.1289-0.1875 4.2656-0.32812 6.4375-0.32812 2.168 0 4.3086 0.13672 6.4258 0.32422 0.68359 0.074219 1.3828 0.082031 2.0391 0.20312 0.28516 0.03125 0.5625 0.089844 0.83594 0.12891 13.238 2.8242 23.203 14.582 23.203 28.641 0 4.8672-1.2695 9.5742-3.5508 13.82-1.0469-1.332-2.2344-2.5664-3.6875-3.543l-25.266-16.836-25.262 16.844c-1.4531 0.96875-2.6406 2.2031-3.6875 3.543-2.2891-4.25-3.5547-8.9609-3.5547-13.828 0-14.059 9.9609-25.816 23.191-28.637 0.28125-0.03125 0.55859-0.089843 0.83594-0.12891zm-7.7773 72.605v-20.031l16.25-10.832 16.25 10.832 0.003906 20.031c0 8.9648-7.2891 16.25-16.25 16.25-8.9648 0-16.254-7.2891-16.254-16.25zm89.387 0c0 19.836-7.9648 37.828-20.836 51.016-4.3633-13.977-16.414-24.273-30.848-26.281l-0.17578-0.35938c6.8242-5.9609 11.23-14.625 11.23-24.375v-5.6641l8.6055-12.902c4.9961-7.5117 7.6445-16.246 7.6445-25.273 0-4.168-0.60938-8.1914-1.6641-12.035 15.902 13.434 26.043 33.48 26.043 55.875zm-120.22-55.867c-1.0586 3.8359-1.668 7.8594-1.668 12.027 0 9.0195 2.6484 17.762 7.6484 25.262l8.6055 12.914v5.6641c0 9.75 4.4023 18.414 11.23 24.379l-0.17969 0.35938c-14.434 2.0078-26.484 12.312-30.848 26.281-12.871-13.195-20.836-31.184-20.836-51.02 0-22.395 10.141-42.441 26.047-55.867zm-91.055-33.52v234.01l-16.25-10.832v-223.18zm-260.03-16.254h16.25v471.3l-16.25 0.003906zm276.29 471.31h-243.78v-471.31h195.02v239.43c0 5.4453 2.707 10.5 7.2383 13.523l41.52 27.68zm162.52-154.39v42.027c0 7.1914-1.6641 14.133-4.7305 20.492-4.3633-2.6641-9.2227-4.5586-14.441-5.2812l-0.18359-0.35547c6.8242-5.9648 11.23-14.629 11.23-24.379v-20.031c0-5.4453-2.707-10.5-7.2383-13.523l-25.266-16.844-25.262 16.844c-4.5391 3.0273-7.2422 8.0781-7.2422 13.523v20.031c0 9.75 4.4023 18.414 11.23 24.379l-0.17969 0.35938c-5.2188 0.72266-10.086 2.6172-14.441 5.2812-3.0703-6.3633-4.7383-13.305-4.7383-20.496v-42.027c0-22.402 18.227-40.629 40.629-40.629 22.406 0 40.633 18.227 40.633 40.629zm-56.883 32.504v-20.031l16.25-10.832 16.25 10.832 0.003906 20.031c0 8.9648-7.2891 16.25-16.25 16.25-8.9648 0.003906-16.254-7.2852-16.254-16.25zm-56.883 0c0-18.641 7.0703-35.625 18.602-48.551-1.5039 5.0938-2.3477 10.473-2.3477 16.047v42.027c0 11.465 3.1953 22.426 8.9531 32.195-1.8594 2.8516-3.332 5.9648-4.3789 9.3047-12.863-13.195-20.828-31.188-20.828-51.023zm34.852 62.195 0.83594-4.1914c2.0195-10.07 10.934-17.375 21.195-17.375h5.0234l4.4375-8.8672c2.1914 0.47266 4.4609 0.74219 6.793 0.74219s4.5977-0.26953 6.793-0.73828l4.4336 8.8633h5.0234c10.262 0 19.176 7.3047 21.191 17.375l0.83594 4.1914c-11.148 6.8906-24.238 10.938-38.277 10.938-14.043 0-27.133-4.0469-38.285-10.938zm90.582-11.18c-1.0391-3.3398-2.5195-6.4531-4.3789-9.3047 5.7695-9.7578 8.9648-20.723 8.9648-32.188l-0.003906-42.027c0-5.5742-0.84375-10.953-2.3477-16.047 11.531 12.926 18.602 29.91 18.602 48.551 0 19.836-7.9648 37.828-20.836 51.016z"/>
 </g>
 <path d="m294.36 278.11c-44.805 0-81.258 36.453-81.258 81.258 0 44.805 36.453 81.258 81.258 81.258s81.258-36.453 81.258-81.258c0.003906-44.805-36.449-81.258-81.258-81.258zm-38.621 133.43 3.543-10.637c5.0469-15.125 19.145-25.281 35.078-25.281s30.035 10.156 35.07 25.281l3.543 10.637c-10.805 8.0273-24.141 12.836-38.613 12.836-14.469 0-27.805-4.8086-38.621-12.836zm22.371-68.422c0-8.9648 7.2891-16.25 16.25-16.25 8.9648 0 16.25 7.2891 16.25 16.25 0 8.9648-7.2891 16.25-16.25 16.25s-16.25-7.2891-16.25-16.25zm67.777 55.734-1.0312-3.0859c-4.5742-13.707-14.324-24.566-26.637-30.742 5.3164-5.793 8.6445-13.438 8.6445-21.906 0-17.926-14.578-32.504-32.504-32.504s-32.504 14.578-32.504 32.504c0 8.4688 3.332 16.113 8.6523 21.906-12.32 6.1758-22.07 17.031-26.637 30.742l-1.0312 3.0859c-8.4258-10.961-13.488-24.629-13.488-39.484 0-35.844 29.164-65.008 65.008-65.008s65.008 29.164 65.008 65.008c0 14.855-5.0625 28.523-13.48 39.484z"/>
 <path d="m221.23 489.38h16.25v16.25h-16.25z"/>
 <path d="m253.73 489.38h105.64v16.25h-105.64z"/>
 <path d="m221.23 521.89h16.25v16.25h-16.25z"/>
 <path d="m253.73 521.89h105.64v16.25h-105.64z"/>
 <path d="m221.23 554.39h16.25v16.25h-16.25z"/>
 <path d="m253.73 554.39h105.64v16.25h-105.64z"/>
 <path d="m221.23 586.89h16.25v16.25h-16.25z"/>
 <path d="m253.73 586.89h105.64v16.25h-105.64z"/>
 <path d="m408.12 473.13h16.25v48.754h-16.25z"/>
 <path d="m408.12 538.14h16.25v81.258h-16.25z"/>
</svg>
