<?xml version="1.0" encoding="UTF-8"?>
<!-- Uploaded to: SVG Find, www.svgrepo.com, Generator: SVG Find Mixer Tools -->
<svg fill="#00406d" width="800px" height="800px" version="1.1" viewBox="144 144 512 512" xmlns="http://www.w3.org/2000/svg">
 <defs>
  <clipPath id="a">
   <path d="m148.09 179h503.81v442h-503.81z"/>
  </clipPath>
 </defs>
 <g clip-path="url(#a)">
  <path d="m628.29 179.58h-456.58c-6.2656 0-12.27 2.4883-16.699 6.918-4.4297 4.4258-6.918 10.434-6.918 16.699v330.62c0 6.2617 2.4883 12.27 6.918 16.699 4.4297 4.4258 10.434 6.9141 16.699 6.9141h220.41v47.23l-122.02 0.003906c-4.3477 0-7.8711 3.5234-7.8711 7.8711 0 4.3477 3.5234 7.8711 7.8711 7.8711h259.78c4.3477 0 7.8711-3.5234 7.8711-7.8711 0-4.3477-3.5234-7.8711-7.8711-7.8711h-122.02v-47.234h220.42c6.2617 0 12.27-2.4883 16.695-6.9141 4.4297-4.4297 6.918-10.438 6.918-16.699v-330.62c0-6.2656-2.4883-12.273-6.918-16.699-4.4258-4.4297-10.434-6.918-16.695-6.918zm7.8711 354.24c0 2.0859-0.83203 4.0898-2.3047 5.5664-1.4766 1.4766-3.4805 2.3047-5.5664 2.3047h-456.58c-4.3477 0-7.875-3.5234-7.875-7.8711v-330.62c0-4.3477 3.5273-7.875 7.875-7.875h456.58c2.0859 0 4.0898 0.83203 5.5664 2.3086 1.4727 1.4766 2.3047 3.4766 2.3047 5.5664z"/>
 </g>
 <path d="m254.37 211.07c-19.836 0-38.855 7.8789-52.883 21.902-14.023 14.027-21.902 33.047-21.902 52.883 0 19.832 7.8789 38.855 21.902 52.879 14.027 14.023 33.047 21.902 52.883 21.902 19.832 0 38.855-7.8789 52.879-21.902 14.023-14.023 21.902-33.047 21.902-52.879 0-19.836-7.8789-38.855-21.902-52.883-14.023-14.023-33.047-21.902-52.879-21.902zm-34.164 122.84c1.2188-11.34 7.9805-21.336 18.055-26.68 10.074-5.3477 22.145-5.3477 32.215 0 10.074 5.3438 16.84 15.34 18.059 26.68-9.9609 7.1367-21.91 10.977-34.164 10.977-12.258 0-24.203-3.8398-34.164-10.977zm18.656-61.875c0-4.1133 1.6328-8.0586 4.5391-10.965 2.9102-2.9102 6.8555-4.543 10.969-4.543 4.1133 0 8.0547 1.6328 10.965 4.543 2.9062 2.9062 4.543 6.8516 4.543 10.965 0 4.1133-1.6367 8.0586-4.543 10.965-2.9102 2.9102-6.8516 4.543-10.965 4.543-4.1094-0.011719-8.0508-1.6484-10.957-4.5547s-4.543-6.8438-4.5508-10.953zm62.738 49.238c-4.2344-12.07-12.922-22.07-24.285-27.945 5.5312-5.9805 8.5078-13.887 8.293-22.031-0.21094-8.1445-3.5938-15.883-9.4297-21.57-5.8359-5.6836-13.664-8.8672-21.809-8.8672-8.1484 0-15.973 3.1836-21.809 8.8672-5.8359 5.6875-9.2227 13.426-9.4336 21.57-0.21484 8.1445 2.7617 16.051 8.293 22.031-11.363 5.875-20.051 15.875-24.285 27.945-8.8164-11.754-12.93-26.371-11.543-41 1.3867-14.629 8.1797-28.211 19.051-38.098 10.867-9.8867 25.031-15.367 39.727-15.367 14.691 0 28.855 5.4805 39.727 15.367 10.867 9.8867 17.66 23.469 19.047 38.098 1.3906 14.629-2.7266 29.246-11.543 41z"/>
 <path d="m321.28 392.12h-133.82c-4.3477 0-7.8711 3.5273-7.8711 7.875s3.5234 7.8711 7.8711 7.8711h133.82c4.3477 0 7.8711-3.5234 7.8711-7.8711s-3.5234-7.875-7.8711-7.875z"/>
 <path d="m187.45 447.23h84.742c4.3477 0 7.8711-3.5234 7.8711-7.8711s-3.5234-7.8711-7.8711-7.8711h-84.742c-4.3477 0-7.8711 3.5234-7.8711 7.8711s3.5234 7.8711 7.8711 7.8711z"/>
 <path d="m352.77 211.07c-4.3477 0-7.8711 3.5234-7.8711 7.8711v299.14c0 4.3477 3.5234 7.8711 7.8711 7.8711s7.8711-3.5234 7.8711-7.8711v-299.14c0-2.0859-0.82812-4.0898-2.3047-5.5664-1.4766-1.4766-3.4766-2.3047-5.5664-2.3047z"/>
 <path d="m612.54 211.07h-228.29c-4.3477 0-7.8711 3.5234-7.8711 7.8711v129.89c0 2.0859 0.82813 4.0898 2.3047 5.5664 1.4766 1.4727 3.4805 2.3047 5.5664 2.3047h228.29c2.0898 0 4.0898-0.83203 5.5664-2.3047 1.4766-1.4766 2.3047-3.4805 2.3047-5.5664v-129.89c0-2.0859-0.82812-4.0898-2.3047-5.5664s-3.4766-2.3047-5.5664-2.3047zm-7.8711 129.89h-212.55v-114.14h212.54z"/>
 <path d="m384.25 407.87h133.82c4.3477 0 7.8711-3.5234 7.8711-7.8711s-3.5234-7.875-7.8711-7.875h-133.82c-4.3477 0-7.8711 3.5273-7.8711 7.875s3.5234 7.8711 7.8711 7.8711z"/>
 <path d="m384.25 447.23h82.656c4.3477 0 7.8711-3.5234 7.8711-7.8711s-3.5234-7.8711-7.8711-7.8711h-82.656c-4.3477 0-7.8711 3.5234-7.8711 7.8711s3.5234 7.8711 7.8711 7.8711z"/>
 <path d="m384.25 486.59h133.82c4.3477 0 7.8711-3.5234 7.8711-7.8711s-3.5234-7.8711-7.8711-7.8711h-133.82c-4.3477 0-7.8711 3.5234-7.8711 7.8711s3.5234 7.8711 7.8711 7.8711z"/>
 <path d="m612.54 392.12h-62.977c-4.3477 0-7.8711 3.5273-7.8711 7.875s3.5234 7.8711 7.8711 7.8711h62.977c4.3477 0 7.8711-3.5234 7.8711-7.8711s-3.5234-7.875-7.8711-7.875z"/>
 <path d="m612.54 431.49h-114.14c-4.3477 0-7.8711 3.5234-7.8711 7.8711s3.5234 7.8711 7.8711 7.8711h114.14c4.3477 0 7.8711-3.5234 7.8711-7.8711s-3.5234-7.8711-7.8711-7.8711z"/>
 <path d="m612.54 470.85h-62.977c-4.3477 0-7.8711 3.5234-7.8711 7.8711s3.5234 7.8711 7.8711 7.8711h62.977c4.3477 0 7.8711-3.5234 7.8711-7.8711s-3.5234-7.8711-7.8711-7.8711z"/>
 <path d="m466.91 510.21h-82.656c-4.3477 0-7.8711 3.5234-7.8711 7.8711s3.5234 7.8711 7.8711 7.8711h82.656c4.3477 0 7.8711-3.5234 7.8711-7.8711s-3.5234-7.8711-7.8711-7.8711z"/>
 <path d="m612.54 510.21h-114.14c-4.3477 0-7.8711 3.5234-7.8711 7.8711s3.5234 7.8711 7.8711 7.8711h114.14c4.3477 0 7.8711-3.5234 7.8711-7.8711s-3.5234-7.8711-7.8711-7.8711z"/>
 <path d="m321.28 470.85h-133.82c-4.3477 0-7.8711 3.5234-7.8711 7.8711v39.359c0 2.0898 0.82812 4.0898 2.3047 5.5664 1.4766 1.4766 3.4805 2.3047 5.5664 2.3047h133.82c2.0898 0 4.0898-0.82812 5.5664-2.3047 1.4766-1.4766 2.3047-3.4766 2.3047-5.5664v-39.359c0-2.0859-0.82813-4.0898-2.3047-5.5664-1.4766-1.4766-3.4766-2.3047-5.5664-2.3047zm-7.8711 39.359h-118.08v-23.617h118.08z"/>
</svg>
