<svg xmlns="http://www.w3.org/2000/svg" xmlns:xlink="http://www.w3.org/1999/xlink" width="200" zoomAndPan="magnify" viewBox="0 0 150 157.92" height="200" preserveAspectRatio="xMidYMid meet" version="1.0"><defs><clipPath id="e3f148cdc7"><path d="M 0.0390625 0 L 132.722656 0 L 132.722656 149.925781 L 0.0390625 149.925781 Z M 0.0390625 0 " clip-rule="nonzero"/></clipPath></defs><g clip-path="url(#e3f148cdc7)"><path fill="#00406d" d="M 71.855469 0.15625 C 71.5 0.15625 71.160156 0.222656 70.832031 0.359375 C 70.507812 0.496094 70.21875 0.6875 69.96875 0.9375 C 69.71875 1.1875 69.523438 1.476562 69.386719 1.800781 C 69.253906 2.128906 69.183594 2.46875 69.183594 2.824219 L 69.183594 51.054688 L 56.191406 35.449219 C 55.738281 34.90625 55.199219 34.46875 54.574219 34.140625 C 53.949219 33.808594 53.285156 33.609375 52.582031 33.546875 C 52.179688 33.511719 51.78125 33.519531 51.386719 33.574219 L 26.683594 33.574219 C 26.5 33.566406 26.3125 33.566406 26.125 33.574219 L 25.535156 33.574219 L 25.535156 33.636719 C 24.550781 33.796875 23.679688 34.199219 22.921875 34.847656 L 22.921875 34.839844 L 2.589844 52.214844 C 2.324219 52.441406 2.085938 52.6875 1.867188 52.960938 C 1.652344 53.234375 1.464844 53.523438 1.304688 53.832031 C 1.144531 54.140625 1.019531 54.460938 0.921875 54.792969 C 0.824219 55.125 0.761719 55.464844 0.730469 55.8125 C 0.699219 56.15625 0.699219 56.5 0.738281 56.847656 C 0.773438 57.191406 0.84375 57.53125 0.945312 57.863281 C 1.046875 58.191406 1.179688 58.511719 1.34375 58.816406 C 1.507812 59.121094 1.703125 59.410156 1.921875 59.679688 L 21.46875 83.449219 C 21.984375 84.074219 22.613281 84.554688 23.347656 84.894531 C 24.085938 85.230469 24.859375 85.394531 25.667969 85.378906 L 25.667969 142.4375 C 25.667969 142.875 25.707031 143.308594 25.792969 143.742188 C 25.878906 144.171875 26.003906 144.589844 26.171875 144.996094 C 26.339844 145.402344 26.542969 145.789062 26.785156 146.152344 C 27.03125 146.519531 27.308594 146.855469 27.617188 147.167969 C 27.925781 147.476562 28.265625 147.757812 28.628906 148 C 28.992188 148.246094 29.378906 148.449219 29.785156 148.621094 C 30.1875 148.789062 30.605469 148.914062 31.039062 149 C 31.46875 149.085938 31.902344 149.128906 32.339844 149.128906 C 32.78125 149.132812 33.21875 149.089844 33.648438 149.003906 C 34.078125 148.917969 34.5 148.792969 34.90625 148.625 C 35.3125 148.457031 35.699219 148.25 36.0625 148.007812 C 36.429688 147.761719 36.769531 147.484375 37.078125 147.175781 C 37.390625 146.863281 37.667969 146.527344 37.910156 146.160156 C 38.15625 145.792969 38.363281 145.40625 38.53125 145 C 38.699219 144.59375 38.824219 144.175781 38.910156 143.742188 C 38.996094 143.3125 39.035156 142.875 39.035156 142.4375 L 39.035156 88.820312 L 47.734375 143.476562 C 47.804688 143.90625 47.914062 144.328125 48.066406 144.738281 C 48.21875 145.148438 48.410156 145.539062 48.640625 145.914062 C 48.867188 146.285156 49.132812 146.632812 49.429688 146.953125 C 49.726562 147.273438 50.050781 147.5625 50.40625 147.820312 C 50.761719 148.078125 51.136719 148.296875 51.535156 148.480469 C 51.933594 148.664062 52.34375 148.804688 52.769531 148.90625 C 53.195312 149.011719 53.625 149.070312 54.0625 149.085938 C 54.5 149.105469 54.933594 149.078125 55.367188 149.011719 C 55.800781 148.941406 56.222656 148.832031 56.632812 148.679688 C 57.042969 148.527344 57.4375 148.339844 57.808594 148.109375 C 58.183594 147.878906 58.53125 147.617188 58.851562 147.320312 C 59.175781 147.023438 59.464844 146.695312 59.722656 146.34375 C 59.980469 145.988281 60.199219 145.613281 60.382812 145.214844 C 60.566406 144.816406 60.710938 144.40625 60.8125 143.980469 C 60.917969 143.554688 60.976562 143.121094 60.996094 142.683594 C 61.011719 142.246094 60.988281 141.808594 60.917969 141.378906 L 51.996094 85.269531 L 52.085938 85.269531 L 52.085938 47.210938 L 65.101562 62.835938 C 65.605469 63.441406 66.214844 63.914062 66.925781 64.25 C 67.640625 64.585938 68.390625 64.757812 69.179688 64.761719 L 69.179688 107.828125 C 69.179688 108.179688 69.25 108.523438 69.382812 108.847656 C 69.519531 109.175781 69.710938 109.464844 69.964844 109.714844 C 70.214844 109.964844 70.503906 110.160156 70.828125 110.296875 C 71.15625 110.429688 71.496094 110.5 71.851562 110.5 L 87.671875 110.5 L 87.671875 133.167969 L 78.070312 133.167969 C 77.71875 133.171875 77.382812 133.238281 77.058594 133.371094 C 76.734375 133.507812 76.449219 133.699219 76.199219 133.949219 C 75.949219 134.195312 75.757812 134.480469 75.625 134.808594 C 75.488281 135.132812 75.421875 135.46875 75.421875 135.820312 L 75.421875 147.085938 C 75.417969 147.4375 75.484375 147.777344 75.617188 148.105469 C 75.75 148.433594 75.941406 148.722656 76.191406 148.972656 C 76.441406 149.222656 76.726562 149.414062 77.054688 149.550781 C 77.378906 149.6875 77.71875 149.757812 78.070312 149.757812 L 122.882812 149.757812 C 123.234375 149.757812 123.574219 149.6875 123.898438 149.550781 C 124.226562 149.414062 124.511719 149.222656 124.761719 148.972656 C 125.011719 148.722656 125.203125 148.433594 125.335938 148.105469 C 125.46875 147.777344 125.535156 147.4375 125.53125 147.085938 L 125.53125 135.820312 C 125.53125 135.46875 125.464844 135.132812 125.328125 134.808594 C 125.195312 134.480469 125.003906 134.195312 124.753906 133.949219 C 124.507812 133.699219 124.21875 133.507812 123.894531 133.371094 C 123.570312 133.238281 123.234375 133.171875 122.882812 133.167969 L 113.933594 133.167969 L 113.933594 110.5 L 129.753906 110.5 C 130.105469 110.496094 130.449219 110.429688 130.773438 110.292969 C 131.101562 110.15625 131.390625 109.964844 131.640625 109.714844 C 131.890625 109.464844 132.082031 109.175781 132.214844 108.847656 C 132.351562 108.519531 132.417969 108.179688 132.417969 107.828125 L 132.417969 2.824219 C 132.417969 2.472656 132.351562 2.132812 132.214844 1.804688 C 132.078125 1.480469 131.886719 1.191406 131.636719 0.941406 C 131.386719 0.691406 131.097656 0.5 130.773438 0.363281 C 130.445312 0.226562 130.105469 0.160156 129.753906 0.160156 Z M 74.519531 5.496094 L 127.085938 5.496094 L 127.085938 105.152344 L 74.519531 105.152344 L 74.519531 62.011719 L 77.71875 59.453125 L 77.71875 72.53125 C 77.71875 72.886719 77.789062 73.226562 77.925781 73.554688 C 78.058594 73.878906 78.253906 74.167969 78.503906 74.417969 C 78.753906 74.667969 79.042969 74.859375 79.371094 74.996094 C 79.695312 75.128906 80.039062 75.199219 80.390625 75.199219 L 121.214844 75.199219 C 121.570312 75.199219 121.910156 75.128906 122.234375 74.996094 C 122.5625 74.859375 122.851562 74.667969 123.101562 74.417969 C 123.351562 74.167969 123.546875 73.878906 123.679688 73.554688 C 123.816406 73.226562 123.886719 72.886719 123.886719 72.53125 L 123.886719 11.875 C 123.890625 11.519531 123.824219 11.175781 123.6875 10.847656 C 123.554688 10.515625 123.363281 10.226562 123.109375 9.972656 C 122.859375 9.71875 122.570312 9.527344 122.242188 9.390625 C 121.914062 9.25 121.570312 9.183594 121.214844 9.183594 L 80.390625 9.183594 C 80.035156 9.183594 79.691406 9.25 79.363281 9.390625 C 79.035156 9.527344 78.746094 9.71875 78.496094 9.972656 C 78.242188 10.226562 78.050781 10.515625 77.917969 10.847656 C 77.78125 11.175781 77.714844 11.519531 77.71875 11.875 L 77.71875 45.761719 L 74.519531 48.320312 Z M 38.816406 7.425781 C 38.105469 7.425781 37.402344 7.496094 36.707031 7.632812 C 36.011719 7.769531 35.335938 7.976562 34.679688 8.246094 C 34.023438 8.519531 33.398438 8.851562 32.808594 9.246094 C 32.21875 9.640625 31.671875 10.089844 31.171875 10.589844 C 30.667969 11.09375 30.222656 11.640625 29.828125 12.230469 C 29.433594 12.820312 29.101562 13.441406 28.828125 14.097656 C 28.554688 14.753906 28.351562 15.429688 28.210938 16.128906 C 28.074219 16.824219 28.003906 17.527344 28.003906 18.234375 C 28.003906 18.945312 28.074219 19.648438 28.210938 20.34375 C 28.351562 21.042969 28.554688 21.71875 28.828125 22.375 C 29.101562 23.03125 29.433594 23.652344 29.828125 24.242188 C 30.222656 24.832031 30.667969 25.378906 31.171875 25.882812 C 31.671875 26.382812 32.21875 26.832031 32.808594 27.226562 C 33.398438 27.621094 34.023438 27.953125 34.679688 28.222656 C 35.335938 28.496094 36.011719 28.703125 36.707031 28.839844 C 37.402344 28.976562 38.105469 29.046875 38.816406 29.046875 C 39.527344 29.046875 40.230469 28.976562 40.925781 28.839844 C 41.621094 28.703125 42.296875 28.496094 42.953125 28.222656 C 43.609375 27.953125 44.230469 27.621094 44.820312 27.226562 C 45.414062 26.832031 45.957031 26.382812 46.460938 25.882812 C 46.960938 25.378906 47.410156 24.832031 47.804688 24.242188 C 48.199219 23.652344 48.53125 23.03125 48.804688 22.375 C 49.074219 21.71875 49.28125 21.042969 49.417969 20.34375 C 49.558594 19.648438 49.628906 18.945312 49.628906 18.234375 C 49.628906 17.527344 49.558594 16.824219 49.417969 16.128906 C 49.28125 15.429688 49.074219 14.753906 48.804688 14.097656 C 48.53125 13.441406 48.199219 12.820312 47.804688 12.230469 C 47.410156 11.640625 46.960938 11.09375 46.460938 10.589844 C 45.957031 10.089844 45.414062 9.640625 44.820312 9.246094 C 44.230469 8.851562 43.609375 8.519531 42.953125 8.246094 C 42.296875 7.976562 41.621094 7.769531 40.925781 7.632812 C 40.230469 7.496094 39.527344 7.425781 38.816406 7.425781 Z M 83.0625 14.542969 L 118.546875 14.542969 L 118.546875 69.859375 L 83.0625 69.859375 L 83.0625 55.171875 L 93.503906 46.8125 L 98.507812 46.8125 C 98.683594 46.8125 98.855469 46.78125 99.019531 46.710938 C 99.183594 46.644531 99.328125 46.546875 99.453125 46.421875 C 99.578125 46.296875 99.671875 46.152344 99.742188 45.988281 C 99.808594 45.824219 99.84375 45.65625 99.84375 45.476562 L 99.84375 34.902344 C 99.84375 34.722656 99.808594 34.554688 99.742188 34.390625 C 99.671875 34.226562 99.578125 34.082031 99.453125 33.957031 C 99.328125 33.832031 99.183594 33.734375 99.019531 33.667969 C 98.855469 33.601562 98.683594 33.566406 98.507812 33.566406 L 87.945312 33.566406 C 87.769531 33.566406 87.601562 33.601562 87.4375 33.667969 C 87.273438 33.738281 87.128906 33.832031 87.003906 33.957031 C 86.878906 34.085938 86.785156 34.226562 86.71875 34.390625 C 86.648438 34.554688 86.617188 34.726562 86.617188 34.902344 L 86.617188 38.644531 L 83.0625 41.488281 Z M 87.945312 17.625 C 87.769531 17.625 87.601562 17.660156 87.4375 17.730469 C 87.273438 17.796875 87.128906 17.894531 87.003906 18.019531 C 86.878906 18.144531 86.785156 18.289062 86.71875 18.453125 C 86.648438 18.613281 86.617188 18.785156 86.617188 18.960938 L 86.617188 29.542969 C 86.617188 29.71875 86.652344 29.886719 86.71875 30.050781 C 86.785156 30.214844 86.882812 30.359375 87.007812 30.480469 C 87.132812 30.605469 87.273438 30.703125 87.4375 30.769531 C 87.601562 30.839844 87.769531 30.871094 87.945312 30.875 L 98.507812 30.875 C 98.683594 30.875 98.855469 30.839844 99.015625 30.773438 C 99.179688 30.703125 99.324219 30.609375 99.449219 30.484375 C 99.574219 30.359375 99.671875 30.214844 99.738281 30.050781 C 99.808594 29.890625 99.84375 29.71875 99.84375 29.542969 L 99.84375 18.960938 C 99.84375 18.785156 99.808594 18.613281 99.742188 18.449219 C 99.671875 18.285156 99.578125 18.140625 99.453125 18.015625 C 99.328125 17.890625 99.183594 17.796875 99.019531 17.726562 C 98.855469 17.660156 98.683594 17.625 98.507812 17.625 Z M 103.550781 17.625 C 103.375 17.625 103.207031 17.660156 103.042969 17.726562 C 102.878906 17.796875 102.734375 17.890625 102.609375 18.015625 C 102.484375 18.140625 102.386719 18.285156 102.320312 18.449219 C 102.25 18.613281 102.21875 18.785156 102.21875 18.960938 L 102.21875 29.542969 C 102.21875 29.71875 102.253906 29.890625 102.320312 30.050781 C 102.386719 30.214844 102.484375 30.359375 102.609375 30.484375 C 102.734375 30.609375 102.878906 30.703125 103.042969 30.773438 C 103.207031 30.839844 103.375 30.875 103.550781 30.875 L 114.128906 30.875 C 114.304688 30.875 114.476562 30.839844 114.640625 30.773438 C 114.800781 30.703125 114.945312 30.609375 115.070312 30.484375 C 115.195312 30.359375 115.292969 30.214844 115.363281 30.050781 C 115.429688 29.890625 115.464844 29.71875 115.464844 29.542969 L 115.464844 18.960938 C 115.464844 18.785156 115.429688 18.613281 115.363281 18.449219 C 115.296875 18.285156 115.199219 18.140625 115.074219 18.015625 C 114.949219 17.890625 114.804688 17.796875 114.640625 17.726562 C 114.476562 17.660156 114.304688 17.625 114.128906 17.625 Z M 89.28125 20.296875 L 97.171875 20.296875 L 97.171875 28.1875 L 89.28125 28.1875 Z M 104.886719 20.296875 L 112.796875 20.296875 L 112.796875 28.1875 L 104.886719 28.1875 Z M 103.550781 33.566406 C 103.375 33.566406 103.207031 33.601562 103.042969 33.667969 C 102.878906 33.734375 102.734375 33.832031 102.609375 33.957031 C 102.484375 34.082031 102.386719 34.226562 102.320312 34.390625 C 102.25 34.554688 102.21875 34.722656 102.21875 34.902344 L 102.21875 45.476562 C 102.21875 45.65625 102.25 45.824219 102.320312 45.988281 C 102.386719 46.152344 102.484375 46.296875 102.609375 46.421875 C 102.734375 46.546875 102.878906 46.644531 103.042969 46.710938 C 103.207031 46.78125 103.375 46.8125 103.550781 46.8125 L 114.128906 46.8125 C 114.304688 46.8125 114.476562 46.78125 114.640625 46.710938 C 114.804688 46.644531 114.949219 46.546875 115.074219 46.421875 C 115.199219 46.296875 115.296875 46.152344 115.363281 45.988281 C 115.429688 45.824219 115.464844 45.65625 115.464844 45.476562 L 115.464844 34.902344 C 115.464844 34.722656 115.429688 34.554688 115.363281 34.390625 C 115.296875 34.226562 115.199219 34.082031 115.074219 33.957031 C 114.949219 33.832031 114.804688 33.734375 114.640625 33.667969 C 114.476562 33.601562 114.304688 33.566406 114.128906 33.566406 Z M 104.886719 36.230469 L 112.796875 36.230469 L 112.796875 44.148438 L 104.886719 44.148438 Z M 97.171875 43.792969 L 97.171875 44.148438 L 96.8125 44.148438 C 96.9375 44.035156 97.054688 43.917969 97.171875 43.792969 Z M 25.535156 46.652344 L 25.535156 71.570312 L 13.5 56.925781 Z M 79.585938 79.496094 C 79.410156 79.496094 79.238281 79.53125 79.078125 79.597656 C 78.914062 79.667969 78.769531 79.765625 78.644531 79.890625 C 78.519531 80.015625 78.421875 80.160156 78.351562 80.324219 C 78.285156 80.484375 78.25 80.65625 78.25 80.832031 L 78.25 95.65625 C 78.253906 95.832031 78.285156 96.003906 78.355469 96.167969 C 78.421875 96.328125 78.519531 96.472656 78.644531 96.597656 C 78.769531 96.722656 78.914062 96.820312 79.078125 96.886719 C 79.242188 96.953125 79.410156 96.988281 79.585938 96.988281 L 93.324219 96.988281 C 93.503906 96.992188 93.675781 96.957031 93.84375 96.890625 C 94.007812 96.828125 94.15625 96.730469 94.28125 96.605469 C 94.410156 96.480469 94.507812 96.335938 94.578125 96.171875 C 94.648438 96.007812 94.683594 95.835938 94.683594 95.65625 L 94.683594 80.832031 C 94.683594 80.65625 94.648438 80.484375 94.578125 80.316406 C 94.507812 80.152344 94.410156 80.007812 94.285156 79.882812 C 94.15625 79.757812 94.007812 79.660156 93.84375 79.59375 C 93.675781 79.527344 93.503906 79.496094 93.324219 79.496094 Z M 98.707031 79.496094 C 98.527344 79.496094 98.359375 79.53125 98.195312 79.597656 C 98.03125 79.667969 97.886719 79.765625 97.761719 79.890625 C 97.636719 80.015625 97.539062 80.160156 97.472656 80.324219 C 97.402344 80.484375 97.371094 80.65625 97.371094 80.832031 L 97.371094 95.324219 C 97.371094 95.5 97.40625 95.667969 97.472656 95.832031 C 97.539062 95.996094 97.636719 96.140625 97.761719 96.265625 C 97.886719 96.390625 98.03125 96.484375 98.195312 96.550781 C 98.359375 96.621094 98.527344 96.652344 98.707031 96.652344 L 106.296875 96.652344 C 106.472656 96.652344 106.644531 96.621094 106.808594 96.550781 C 106.96875 96.484375 107.113281 96.390625 107.238281 96.265625 C 107.363281 96.140625 107.460938 95.996094 107.53125 95.832031 C 107.597656 95.667969 107.632812 95.5 107.632812 95.324219 L 107.632812 80.832031 C 107.632812 80.65625 107.597656 80.484375 107.53125 80.324219 C 107.464844 80.160156 107.367188 80.015625 107.242188 79.890625 C 107.117188 79.765625 106.972656 79.667969 106.808594 79.597656 C 106.644531 79.53125 106.472656 79.496094 106.296875 79.496094 Z M 111.675781 79.496094 C 111.5 79.496094 111.328125 79.53125 111.164062 79.597656 C 111 79.667969 110.859375 79.765625 110.730469 79.890625 C 110.605469 80.015625 110.511719 80.160156 110.441406 80.324219 C 110.375 80.484375 110.339844 80.65625 110.339844 80.832031 C 110.339844 81.011719 110.375 81.179688 110.441406 81.34375 C 110.511719 81.507812 110.605469 81.652344 110.730469 81.777344 C 110.859375 81.902344 111.003906 82 111.164062 82.066406 C 111.328125 82.136719 111.5 82.167969 111.675781 82.167969 L 122.117188 82.167969 C 122.292969 82.167969 122.464844 82.136719 122.628906 82.066406 C 122.792969 82 122.9375 81.902344 123.0625 81.777344 C 123.1875 81.652344 123.285156 81.507812 123.351562 81.34375 C 123.417969 81.179688 123.453125 81.011719 123.453125 80.832031 C 123.453125 80.65625 123.417969 80.484375 123.351562 80.324219 C 123.285156 80.160156 123.1875 80.015625 123.0625 79.890625 C 122.9375 79.765625 122.792969 79.667969 122.628906 79.597656 C 122.464844 79.53125 122.292969 79.496094 122.117188 79.496094 Z M 80.921875 82.167969 L 91.988281 82.167969 L 91.988281 94.320312 L 80.921875 94.320312 Z M 100.042969 82.167969 L 104.964844 82.167969 L 104.964844 93.988281 L 100.042969 93.988281 Z M 111.675781 85.269531 C 111.5 85.269531 111.328125 85.300781 111.164062 85.371094 C 111 85.4375 110.859375 85.535156 110.730469 85.660156 C 110.605469 85.785156 110.511719 85.929688 110.441406 86.09375 C 110.375 86.257812 110.339844 86.425781 110.339844 86.605469 L 110.339844 95.65625 C 110.339844 95.832031 110.375 96.003906 110.445312 96.167969 C 110.511719 96.328125 110.609375 96.472656 110.734375 96.597656 C 110.859375 96.722656 111.003906 96.820312 111.167969 96.886719 C 111.328125 96.953125 111.5 96.988281 111.675781 96.988281 L 122.117188 96.988281 C 122.292969 96.988281 122.464844 96.953125 122.628906 96.886719 C 122.789062 96.820312 122.933594 96.722656 123.058594 96.597656 C 123.183594 96.472656 123.28125 96.328125 123.351562 96.167969 C 123.417969 96.003906 123.453125 95.832031 123.453125 95.65625 L 123.453125 86.605469 C 123.453125 86.425781 123.417969 86.257812 123.351562 86.09375 C 123.285156 85.929688 123.1875 85.785156 123.0625 85.660156 C 122.9375 85.535156 122.792969 85.4375 122.628906 85.371094 C 122.464844 85.300781 122.292969 85.269531 122.117188 85.269531 Z M 113.011719 87.941406 L 120.785156 87.941406 L 120.785156 89.785156 L 113.011719 89.785156 Z M 93.035156 110.496094 L 108.597656 110.496094 L 108.597656 133.148438 L 93.035156 133.148438 Z M 80.726562 138.46875 L 90.105469 138.46875 C 90.183594 138.480469 90.261719 138.484375 90.339844 138.488281 L 111.265625 138.488281 C 111.34375 138.484375 111.421875 138.480469 111.5 138.46875 L 120.21875 138.46875 L 120.21875 144.4375 L 80.726562 144.4375 Z M 80.726562 138.46875 " fill-opacity="1" fill-rule="nonzero"/></g></svg>