<!DOCTYPE svg PUBLIC "-//W3C//DTD SVG 1.1//EN" "http://www.w3.org/Graphics/SVG/1.1/DTD/svg11.dtd">
<!-- Uploaded to: SVG Find, www.svgrepo.com, Transformed by: SVG Find Mixer Tools -->
<svg fill="#0a4773" width="800px" height="800px" version="1.1" viewBox="144 144 512 512" xmlns="http://www.w3.org/2000/svg">
<g id="SVGRepo_bgCarrier" stroke-width="0"/>
<g id="SVGRepo_tracerCarrier" stroke-linecap="round" stroke-linejoin="round"/>
<g id="SVGRepo_iconCarrier"> <g> <path d="m234.69 612.54h62.977c2.0859 0 4.0898-0.82812 5.5664-2.3047 1.4727-1.4766 2.3047-3.4805 2.3047-5.5664v-31.488c-0.027344-6.6797-2.1758-13.18-6.1406-18.555-3.9609-5.3789-9.5312-9.3555-15.902-11.359 5.9453-4.8047 9.6289-11.863 10.164-19.488 0.53906-7.625-2.1133-15.133-7.3242-20.723-5.2148-5.5938-12.516-8.7695-20.156-8.7695-7.6445 0-14.945 3.1758-20.156 8.7695-5.2148 5.5898-7.8672 13.098-7.3281 20.723 0.53516 7.625 4.2188 14.684 10.164 19.488-6.3711 2.0039-11.941 5.9805-15.902 11.359-3.9648 5.375-6.1133 11.875-6.1406 18.555v31.488c0 2.0859 0.83203 4.0898 2.3086 5.5664 1.4766 1.4766 3.4766 2.3047 5.5664 2.3047zm31.488-102.34c4.7734 0 9.0781 2.875 10.906 7.2891 1.8281 4.4141 0.82031 9.4922-2.5586 12.867-3.375 3.3789-8.457 4.3867-12.867 2.5625-4.4141-1.8281-7.2891-6.1367-7.2891-10.91 0-6.5234 5.2852-11.809 11.809-11.809zm-23.617 62.977c0-4.1758 1.6562-8.1797 4.6094-11.133s6.957-4.6133 11.133-4.6133h15.746c4.1758 0 8.1797 1.6602 11.133 4.6133 2.9531 2.9531 4.6094 6.957 4.6094 11.133v23.617h-47.23z"/> <path d="m155.96 520.2c0.98047 3.5078 4.2344 5.8828 7.8711 5.7461h23.617v110.21c0 2.0859 0.83203 4.0898 2.3047 5.5664 1.4766 1.4766 3.4805 2.3047 5.5664 2.3047h141.7c2.0859 0 4.0898-0.82812 5.5664-2.3047 1.4766-1.4766 2.3047-3.4805 2.3047-5.5664v-110.21h23.617c3.6367 0.13672 6.8906-2.2383 7.8711-5.7461 0.94141-3.3828-0.47266-6.9766-3.4648-8.8164l-102.34-62.977c-2.4336-1.4062-5.4375-1.4062-7.8711 0l-102.34 62.977c-3.3555 1.543-5.1875 5.207-4.4102 8.8164zm110.21-55.891 74.551 45.895h-3.6992c-4.3477 0-7.875 3.5234-7.875 7.8711v110.21h-125.95v-110.21c0-2.0859-0.83203-4.0898-2.3086-5.5664-1.4766-1.4766-3.4766-2.3047-5.5664-2.3047h-3.6992z"/> <path d="m636.16 447.23h-125.95c-4.3477 0-7.8711 3.5234-7.8711 7.8711v70.848h-62.977c-4.3477 0-7.8711 3.5273-7.8711 7.875v102.34c0 2.0859 0.82812 4.0898 2.3047 5.5664 1.4766 1.4766 3.4766 2.3047 5.5664 2.3047h196.8c2.0859 0 4.0898-0.82812 5.5664-2.3047 1.4766-1.4766 2.3047-3.4805 2.3047-5.5664v-181.06c0-2.0859-0.82812-4.0898-2.3047-5.5664-1.4766-1.4766-3.4805-2.3047-5.5664-2.3047zm-133.82 181.06h-55.105v-86.594h55.105zm125.95 0h-110.21v-165.31h110.21z"/> <path d="m541.7 604.67h62.977c2.0859 0 4.0898-0.83203 5.5664-2.3047 1.4766-1.4766 2.3047-3.4805 2.3047-5.5664v-31.488c-0.027344-6.6797-2.1758-13.18-6.1367-18.555-3.9648-5.3789-9.5312-9.3555-15.906-11.359 5.9453-4.8047 9.6289-11.863 10.168-19.488 0.53516-7.6289-2.1172-15.133-7.3281-20.727-5.2109-5.5898-12.512-8.7656-20.156-8.7656-7.6445 0-14.945 3.1758-20.156 8.7656-5.2109 5.5938-7.8672 13.098-7.3281 20.727 0.53906 7.625 4.2188 14.684 10.164 19.488-6.3711 2.0039-11.941 5.9805-15.902 11.359-3.9609 5.375-6.1133 11.875-6.1367 18.555v31.488c0 2.0859 0.82812 4.0898 2.3047 5.5664 1.4766 1.4727 3.4766 2.3047 5.5664 2.3047zm31.488-102.34c4.7734 0 9.082 2.875 10.91 7.2891 1.8242 4.4102 0.81641 9.4922-2.5625 12.867-3.375 3.3789-8.4531 4.3867-12.867 2.5586-4.4141-1.8281-7.2891-6.1328-7.2891-10.906 0-6.5234 5.2852-11.809 11.809-11.809zm-23.617 62.977c0-4.1758 1.6602-8.1797 4.6133-11.133 2.9531-2.9531 6.957-4.6133 11.133-4.6133h15.742c4.1758 0 8.1797 1.6602 11.133 4.6133 2.9531 2.9531 4.6133 6.957 4.6133 11.133v23.617l-47.234-0.003907z"/> <path d="m565.31 415.74v-251.91c0-2.0859-0.83203-4.0898-2.3086-5.5664-1.4766-1.4727-3.4766-2.3047-5.5664-2.3047h-314.88c-4.3477 0-7.8711 3.5234-7.8711 7.8711v251.91c0 2.0898 0.82812 4.0898 2.3047 5.5664 1.4766 1.4766 3.4766 2.3047 5.5664 2.3047h314.88c2.0898 0 4.0898-0.82812 5.5664-2.3047 1.4766-1.4766 2.3086-3.4766 2.3086-5.5664zm-173.19-7.8711h-141.7v-110.21h141.7zm0-125.95h-141.7v-110.21h141.7zm157.44 125.95h-141.7v-110.21h141.7zm0-125.95h-141.7v-110.21h141.7z"/> <path d="m455.1 274.05h47.234c2.0859 0 4.0898-0.83203 5.5664-2.3047 1.4766-1.4766 2.3047-3.4805 2.3047-5.5664v-23.617c-0.03125-4.8594-1.5586-9.5898-4.375-13.551-2.8164-3.957-6.7891-6.9492-11.371-8.5703 4.918-4.3945 7.7734-10.645 7.875-17.238 0-8.4375-4.5039-16.234-11.809-20.453-7.3086-4.2188-16.309-4.2188-23.617 0-7.3047 4.2188-11.809 12.016-11.809 20.453 0.10156 6.5938 2.957 12.844 7.875 17.238-4.582 1.6211-8.5547 4.6133-11.371 8.5703-2.8164 3.9609-4.3438 8.6914-4.375 13.551v23.617c0 2.0859 0.82812 4.0898 2.3047 5.5664 1.4766 1.4727 3.4805 2.3047 5.5664 2.3047zm23.617-78.723c3.1836 0 6.0547 1.918 7.2734 4.8594 1.2188 2.9453 0.54297 6.3281-1.707 8.582-2.25 2.25-5.6367 2.9219-8.5781 1.707-2.9414-1.2188-4.8594-4.0898-4.8594-7.2734 0-4.3477 3.5234-7.875 7.8711-7.875zm-15.742 47.23v0.003906c0-4.3477 3.5234-7.8711 7.8711-7.8711h15.742c2.0898 0 4.0898 0.82812 5.5664 2.3047 1.4766 1.4766 2.3047 3.4766 2.3047 5.5664v15.742h-31.484z"/> <path d="m455.1 400h47.234c2.0859 0 4.0898-0.83203 5.5664-2.3086 1.4766-1.4766 2.3047-3.4766 2.3047-5.5664v-23.613c-0.03125-4.8594-1.5586-9.5898-4.375-13.551-2.8164-3.957-6.7891-6.9531-11.371-8.5703 4.918-4.3945 7.7734-10.648 7.875-17.242 0-8.4336-4.5039-16.23-11.809-20.449-7.3086-4.2188-16.309-4.2188-23.617 0-7.3047 4.2188-11.809 12.016-11.809 20.449 0.10156 6.5938 2.957 12.848 7.875 17.242-4.582 1.6172-8.5547 4.6133-11.371 8.5703-2.8164 3.9609-4.3438 8.6914-4.375 13.551v23.617-0.003906c0 2.0898 0.82812 4.0898 2.3047 5.5664 1.4766 1.4766 3.4805 2.3086 5.5664 2.3086zm23.617-78.719v-0.003906c3.1836 0 6.0547 1.918 7.2734 4.8594 1.2188 2.9414 0.54297 6.3281-1.707 8.5781-2.25 2.2539-5.6367 2.9258-8.5781 1.707-2.9414-1.2188-4.8594-4.0859-4.8594-7.2734 0-4.3477 3.5234-7.8711 7.8711-7.8711zm-15.742 47.23c0-4.3477 3.5234-7.875 7.8711-7.875h15.742c2.0898 0 4.0898 0.83203 5.5664 2.3086 1.4766 1.4766 2.3047 3.4766 2.3047 5.5664v15.742h-31.484z"/> <path d="m297.66 274.05h47.23c2.0859 0 4.0898-0.83203 5.5664-2.3047 1.4766-1.4766 2.3047-3.4805 2.3047-5.5664v-23.617c-0.027344-4.8594-1.5586-9.5898-4.375-13.551-2.8164-3.957-6.7891-6.9492-11.367-8.5703 4.9141-4.3945 7.7695-10.645 7.8711-17.238 0-8.4375-4.5-16.234-11.809-20.453-7.3047-4.2188-16.309-4.2188-23.617 0-7.3047 4.2188-11.805 12.016-11.805 20.453 0.10156 6.5938 2.9531 12.844 7.8711 17.238-4.582 1.6211-8.5508 4.6133-11.371 8.5703-2.8164 3.9609-4.3438 8.6914-4.375 13.551v23.617c0 2.0859 0.83203 4.0898 2.3086 5.5664 1.4727 1.4727 3.4766 2.3047 5.5664 2.3047zm23.613-78.723c3.1836 0 6.0547 1.918 7.2734 4.8594 1.2188 2.9453 0.54688 6.3281-1.707 8.582-2.25 2.25-5.6367 2.9219-8.5781 1.707-2.9414-1.2188-4.8594-4.0898-4.8594-7.2734 0-4.3477 3.5234-7.875 7.8711-7.875zm-15.742 47.23v0.003906c0-4.3477 3.5234-7.8711 7.8711-7.8711h15.742c2.0898 0 4.0938 0.82812 5.5664 2.3047 1.4766 1.4766 2.3086 3.4766 2.3086 5.5664v15.742h-31.488z"/> <path d="m297.66 400h47.23c2.0859 0 4.0898-0.83203 5.5664-2.3086 1.4766-1.4766 2.3047-3.4766 2.3047-5.5664v-23.613c-0.027344-4.8594-1.5586-9.5898-4.375-13.551-2.8164-3.957-6.7891-6.9531-11.367-8.5703 4.9141-4.3945 7.7695-10.648 7.8711-17.242 0-8.4336-4.5-16.23-11.809-20.449-7.3047-4.2188-16.309-4.2188-23.617 0-7.3047 4.2188-11.805 12.016-11.805 20.449 0.10156 6.5938 2.9531 12.848 7.8711 17.242-4.582 1.6172-8.5508 4.6133-11.371 8.5703-2.8164 3.9609-4.3438 8.6914-4.375 13.551v23.617-0.003906c0 2.0898 0.83203 4.0898 2.3086 5.5664 1.4727 1.4766 3.4766 2.3086 5.5664 2.3086zm23.617-78.719-0.003906-0.003906c3.1836 0 6.0547 1.918 7.2734 4.8594 1.2188 2.9414 0.54688 6.3281-1.707 8.5781-2.25 2.2539-5.6367 2.9258-8.5781 1.707s-4.8594-4.0859-4.8594-7.2734c0-4.3477 3.5234-7.8711 7.8711-7.8711zm-15.742 47.23h-0.003906c0-4.3477 3.5234-7.875 7.8711-7.875h15.742c2.0898 0 4.0938 0.83203 5.5664 2.3086 1.4766 1.4766 2.3086 3.4766 2.3086 5.5664v15.742h-31.488z"/> <path d="m588.93 281.92h15.742v15.742h-15.742z"/> <path d="m620.41 281.92h15.742v15.742h-15.742z"/> <path d="m620.41 313.41h15.742v15.742h-15.742z"/> <path d="m620.41 344.89h15.742v15.742h-15.742z"/> <path d="m620.41 376.38h15.742v15.742h-15.742z"/> <path d="m620.41 407.87h15.742v15.742h-15.742z"/> <path d="m195.32 281.92h15.742v15.742h-15.742z"/> <path d="m163.84 281.92h15.742v15.742h-15.742z"/> <path d="m163.84 313.41h15.742v15.742h-15.742z"/> <path d="m163.84 344.89h15.742v15.742h-15.742z"/> <path d="m163.84 376.38h15.742v15.742h-15.742z"/> <path d="m163.84 407.87h15.742v15.742h-15.742z"/> <path d="m163.84 439.36h15.742v15.742h-15.742z"/> </g> </g>
</svg>