<svg xmlns="http://www.w3.org/2000/svg" xmlns:xlink="http://www.w3.org/1999/xlink" width="500" zoomAndPan="magnify" viewBox="0 0 375 374.999991" height="500" preserveAspectRatio="xMidYMid meet" version="1.0"><defs><clipPath id="be40d353d3"><path d="M 131 37.5 L 246 37.5 L 246 154 L 131 154 Z M 131 37.5 " clip-rule="nonzero"/></clipPath><clipPath id="99b13b6d31"><path d="M 53 170 L 205 170 L 205 337.5 L 53 337.5 Z M 53 170 " clip-rule="nonzero"/></clipPath><clipPath id="ea43b0d6ac"><path d="M 116 253 L 129 253 L 129 337.5 L 116 337.5 Z M 116 253 " clip-rule="nonzero"/></clipPath><clipPath id="350376689c"><path d="M 94 276 L 106 276 L 106 337.5 L 94 337.5 Z M 94 276 " clip-rule="nonzero"/></clipPath><clipPath id="3f5a189617"><path d="M 71 286 L 84 286 L 84 337.5 L 71 337.5 Z M 71 286 " clip-rule="nonzero"/></clipPath></defs><rect x="-37.5" width="450" fill="#ffffff" y="-37.499999" height="449.999989" fill-opacity="1"/><rect x="-37.5" width="450" fill="#ffffff" y="-37.499999" height="449.999989" fill-opacity="1"/><g clip-path="url(#be40d353d3)"><path fill="#00406d" d="M 151.09375 138.597656 C 154.253906 141.441406 157.679688 143.914062 161.371094 146.019531 C 165.0625 148.125 168.9375 149.816406 172.992188 151.089844 C 177.320312 152.320312 181.738281 153.023438 186.234375 153.199219 C 190.734375 153.375 195.191406 153.019531 199.605469 152.132812 C 203.652344 151.125 207.558594 149.71875 211.320312 147.914062 C 215.082031 146.109375 218.621094 143.941406 221.941406 141.414062 C 225.257812 138.882812 228.285156 136.046875 231.023438 132.898438 C 233.761719 129.75 236.152344 126.355469 238.199219 122.71875 C 242.019531 115.816406 244.351562 108.445312 245.195312 100.601562 C 245.546875 96.359375 245.441406 92.132812 244.878906 87.914062 C 244.320312 83.695312 243.3125 79.585938 241.867188 75.585938 C 239.824219 70.402344 237.179688 65.542969 233.9375 61.011719 C 230.542969 56.542969 226.585938 52.644531 222.066406 49.320312 C 217.542969 45.992188 212.644531 43.371094 207.371094 41.460938 C 203.332031 39.898438 199.164062 38.851562 194.867188 38.320312 C 190.570312 37.789062 186.273438 37.789062 181.976562 38.324219 C 179.898438 38.605469 177.835938 39 175.796875 39.5 C 173.757812 40 171.75 40.605469 169.773438 41.316406 C 167.796875 42.027344 165.863281 42.839844 163.972656 43.753906 C 162.082031 44.667969 160.242188 45.675781 158.457031 46.78125 C 156.671875 47.890625 154.949219 49.085938 153.289062 50.371094 C 151.628906 51.660156 150.039062 53.027344 148.523438 54.480469 C 147.007812 55.933594 145.570312 57.460938 144.214844 59.066406 C 142.859375 60.667969 141.589844 62.339844 140.40625 64.074219 C 137.613281 68.441406 135.441406 73.097656 133.882812 78.042969 C 132.328125 82.984375 131.441406 88.046875 131.230469 93.226562 C 131.128906 98.992188 131.863281 104.648438 133.429688 110.195312 C 134.996094 115.746094 137.332031 120.949219 140.433594 125.808594 C 143.382812 130.574219 146.9375 134.839844 151.09375 138.597656 Z M 151.09375 138.597656 " fill-opacity="1" fill-rule="nonzero"/></g><g clip-path="url(#99b13b6d31)"><path fill="#00406d" d="M 193.605469 247.195312 C 195.0625 245.671875 196.765625 244.503906 198.710938 243.691406 C 200.65625 242.878906 202.683594 242.492188 204.792969 242.53125 C 202.984375 235.007812 200.921875 227.546875 198.976562 220.058594 C 196.90625 212.953125 194.804688 205.851562 192.789062 198.734375 C 192.53125 197.925781 193.175781 197.242188 193.476562 196.5625 C 196.0625 191.90625 199.191406 187.582031 201.875 182.988281 C 197.449219 178.660156 193 174.351562 188.25 170.375 C 183.648438 174.492188 179.144531 178.734375 174.816406 183.136719 C 177.625 187.667969 180.507812 192.160156 183.320312 196.691406 C 183.558594 197.21875 184.113281 197.726562 183.925781 198.359375 C 180.574219 209.132812 177.78125 220.074219 174.734375 230.941406 C 172.675781 238.351562 170.980469 245.878906 168.574219 253.195312 C 163.003906 234.132812 158.167969 214.871094 152.6875 195.78125 C 150.199219 187.34375 148.082031 178.800781 145.523438 170.378906 C 143.507812 171.984375 141.996094 173.96875 140.988281 176.339844 C 137.789062 177.410156 134.410156 178.046875 131.207031 179.1875 C 120.28125 182.757812 109.488281 186.726562 98.550781 190.257812 C 92.074219 192.457031 85.539062 194.511719 79.210938 197.113281 C 76.449219 198.246094 73.847656 199.675781 71.410156 201.398438 C 68.96875 203.121094 66.753906 205.097656 64.765625 207.324219 C 62.777344 209.554688 61.0625 211.976562 59.625 214.59375 C 58.1875 217.210938 57.058594 219.957031 56.246094 222.832031 C 55.191406 228.539062 54.714844 234.296875 54.820312 240.101562 C 54.695312 246.90625 54.484375 253.710938 54.449219 260.515625 C 54.390625 271.835938 53.945312 283.148438 53.78125 294.464844 C 53.652344 304.738281 53.507812 315.011719 53.441406 325.285156 C 53.429688 327.859375 54.164062 330.199219 55.648438 332.300781 C 56.292969 333.378906 57.101562 334.304688 58.082031 335.085938 C 59.0625 335.863281 60.152344 336.445312 61.34375 336.828125 C 61.121094 319.5 61.304688 302.164062 61.265625 284.835938 C 61.246094 284.292969 61.28125 283.753906 61.363281 283.214844 C 61.445312 282.679688 61.578125 282.15625 61.757812 281.644531 C 61.9375 281.132812 62.164062 280.640625 62.4375 280.171875 C 62.710938 279.703125 63.023438 279.261719 63.378906 278.851562 C 63.734375 278.441406 64.121094 278.066406 64.546875 277.726562 C 64.972656 277.386719 65.421875 277.09375 65.902344 276.839844 C 66.382812 276.585938 66.882812 276.378906 67.398438 276.214844 C 67.917969 276.054688 68.449219 275.945312 68.988281 275.882812 C 73.992188 275.753906 79.003906 275.875 84.015625 275.816406 C 83.882812 273.988281 84.183594 272.234375 84.914062 270.550781 C 85.253906 269.816406 85.691406 269.140625 86.222656 268.53125 C 86.757812 267.921875 87.367188 267.402344 88.050781 266.964844 C 88.734375 266.53125 89.464844 266.203125 90.242188 265.980469 C 91.023438 265.757812 91.816406 265.648438 92.628906 265.652344 C 97.019531 265.632812 101.414062 265.625 105.804688 265.636719 C 106.121094 260.734375 105.652344 255.800781 106.046875 250.90625 C 106.105469 250.441406 106.207031 249.988281 106.34375 249.539062 C 106.480469 249.089844 106.652344 248.65625 106.863281 248.238281 C 107.074219 247.820312 107.320312 247.421875 107.597656 247.046875 C 107.875 246.667969 108.183594 246.316406 108.519531 245.992188 C 108.855469 245.667969 109.21875 245.371094 109.605469 245.109375 C 109.992188 244.84375 110.398438 244.613281 110.824219 244.417969 C 111.25 244.222656 111.691406 244.066406 112.140625 243.945312 C 112.59375 243.824219 113.054688 243.742188 113.519531 243.699219 C 118.878906 243.65625 124.238281 243.703125 129.59375 243.683594 C 130.402344 243.640625 131.199219 243.714844 131.984375 243.902344 C 132.769531 244.089844 133.511719 244.386719 134.210938 244.792969 C 134.910156 245.199219 135.535156 245.695312 136.089844 246.285156 C 136.640625 246.875 137.097656 247.53125 137.460938 248.253906 C 138.289062 250.683594 138.59375 253.175781 138.371094 255.734375 C 138.453125 282.800781 138.371094 309.867188 138.414062 336.933594 C 155.847656 337.167969 173.296875 337.007812 190.734375 337.070312 C 189.609375 334.703125 189.0625 332.210938 189.09375 329.589844 C 189.066406 306.128906 189.070312 282.664062 189.109375 259.195312 C 189.074219 256.984375 189.445312 254.839844 190.222656 252.769531 C 190.996094 250.699219 192.125 248.839844 193.605469 247.195312 Z M 193.605469 247.195312 " fill-opacity="1" fill-rule="nonzero"/></g><path fill="#00406d" d="M 317.433594 216.496094 C 315.941406 213.445312 314.085938 210.640625 311.859375 208.082031 C 309.632812 205.519531 307.117188 203.289062 304.304688 201.390625 C 300.558594 198.914062 296.546875 197.011719 292.261719 195.675781 C 286.167969 193.457031 280.003906 191.464844 273.863281 189.382812 C 265.488281 186.277344 256.941406 183.675781 248.511719 180.730469 C 244.238281 179.117188 239.828125 177.828125 235.527344 176.347656 C 235.101562 175.125 234.488281 174.003906 233.683594 172.988281 C 232.882812 171.96875 231.9375 171.109375 230.851562 170.410156 C 229.335938 175.667969 227.941406 180.953125 226.492188 186.226562 C 223.746094 196.394531 220.625 206.457031 217.878906 216.625 C 215.542969 225.230469 213.042969 233.785156 210.925781 242.453125 C 217.121094 242.441406 223.320312 242.476562 229.511719 242.433594 C 229.359375 240.207031 229.300781 237.976562 229.328125 235.746094 C 229.34375 235.140625 229.414062 234.539062 229.542969 233.949219 C 229.675781 233.355469 229.859375 232.78125 230.101562 232.222656 C 230.339844 231.667969 230.632812 231.140625 230.972656 230.636719 C 231.316406 230.136719 231.703125 229.675781 232.136719 229.25 C 232.566406 228.824219 233.035156 228.441406 233.539062 228.105469 C 234.042969 227.769531 234.578125 227.484375 235.136719 227.25 C 235.695312 227.019531 236.273438 226.839844 236.867188 226.71875 C 237.460938 226.597656 238.0625 226.53125 238.667969 226.523438 C 251.695312 226.578125 264.722656 226.507812 277.757812 226.578125 C 278.292969 226.589844 278.828125 226.652344 279.355469 226.757812 C 279.882812 226.867188 280.398438 227.019531 280.898438 227.214844 C 281.402344 227.410156 281.882812 227.648438 282.34375 227.929688 C 282.800781 228.210938 283.234375 228.527344 283.640625 228.882812 C 284.042969 229.238281 284.414062 229.628906 284.753906 230.046875 C 285.089844 230.46875 285.390625 230.914062 285.648438 231.386719 C 285.90625 231.855469 286.125 232.347656 286.300781 232.859375 C 286.472656 233.367188 286.601562 233.886719 286.6875 234.421875 C 286.914062 237.089844 286.695312 239.773438 286.757812 242.453125 C 298.035156 242.425781 309.316406 242.453125 320.589844 242.464844 C 320.867188 240.820312 320.996094 239.167969 320.984375 237.5 C 321.292969 233.90625 321.144531 230.328125 320.542969 226.773438 C 319.945312 223.214844 318.90625 219.789062 317.433594 216.496094 Z M 317.433594 216.496094 " fill-opacity="1" fill-rule="nonzero"/><path fill="#00406d" d="M 239.484375 236.4375 C 239.441406 238.4375 239.460938 240.4375 239.460938 242.4375 C 251.917969 242.355469 264.371094 242.453125 276.832031 242.441406 C 276.796875 240.464844 276.816406 238.492188 276.8125 236.523438 C 264.375 236.34375 251.925781 236.507812 239.484375 236.4375 Z M 239.484375 236.4375 " fill-opacity="1" fill-rule="nonzero"/><path fill="#00406d" d="M 314.304688 252.582031 C 277.796875 252.527344 241.285156 252.527344 204.777344 252.574219 C 204.066406 252.601562 203.386719 252.753906 202.734375 253.03125 C 202.078125 253.304688 201.496094 253.6875 200.976562 254.171875 C 200.460938 254.65625 200.042969 255.214844 199.730469 255.851562 C 199.414062 256.484375 199.21875 257.15625 199.144531 257.859375 C 198.851562 260.527344 199.097656 263.226562 199 265.914062 C 200.996094 266.808594 203.050781 267.53125 205.167969 268.085938 C 219.523438 272.460938 233.925781 276.726562 248.25 281.191406 C 250.015625 280.519531 251.335938 278.480469 253.417969 278.464844 C 256.855469 278.476562 260.304688 278.371094 263.738281 278.523438 C 265.628906 278.746094 266.792969 280.414062 268.261719 281.316406 C 272.605469 280.433594 276.796875 278.8125 281.082031 277.65625 C 293.90625 273.714844 306.789062 269.984375 319.539062 265.8125 C 319.527344 263.019531 319.59375 260.226562 319.523438 257.433594 C 319.496094 257.109375 319.441406 256.789062 319.359375 256.472656 C 319.273438 256.15625 319.160156 255.851562 319.015625 255.554688 C 318.875 255.261719 318.707031 254.980469 318.511719 254.71875 C 318.320312 254.453125 318.101562 254.210938 317.863281 253.988281 C 317.621094 253.765625 317.363281 253.566406 317.085938 253.390625 C 316.808594 253.21875 316.519531 253.070312 316.214844 252.949219 C 315.910156 252.828125 315.597656 252.738281 315.277344 252.675781 C 314.957031 252.613281 314.632812 252.582031 314.304688 252.582031 Z M 314.304688 252.582031 " fill-opacity="1" fill-rule="nonzero"/><g clip-path="url(#ea43b0d6ac)"><path fill="#00406d" d="M 128.421875 254.3125 C 126.519531 253.875 124.59375 253.746094 122.652344 253.921875 C 120.53125 253.792969 118.421875 253.882812 116.320312 254.191406 C 116.335938 271.070312 116.351562 287.953125 116.363281 304.832031 C 116.398438 315.589844 116.234375 326.34375 116.390625 337.09375 C 120.398438 336.917969 124.414062 337.136719 128.429688 336.949219 C 128.40625 309.402344 128.402344 281.855469 128.421875 254.3125 Z M 128.421875 254.3125 " fill-opacity="1" fill-rule="nonzero"/></g><g clip-path="url(#350376689c)"><path fill="#00406d" d="M 105.980469 278.753906 C 105.921875 277.917969 106.203125 276.59375 105.082031 276.378906 C 101.972656 276.167969 98.839844 276.328125 95.726562 276.289062 C 95.515625 276.28125 95.3125 276.316406 95.117188 276.394531 C 94.921875 276.472656 94.75 276.585938 94.601562 276.734375 C 94.457031 276.886719 94.347656 277.058594 94.273438 277.257812 C 94.203125 277.453125 94.171875 277.660156 94.1875 277.867188 C 94.160156 297.59375 94.148438 317.316406 94.148438 337.042969 C 98.097656 337.074219 102.042969 337.046875 105.992188 337.042969 C 105.972656 317.613281 106.015625 298.183594 105.980469 278.753906 Z M 105.980469 278.753906 " fill-opacity="1" fill-rule="nonzero"/></g><path fill="#00406d" d="M 309.054688 280.089844 C 295.351562 284.113281 281.703125 288.3125 268.023438 292.394531 C 267.929688 296.078125 268.054688 299.765625 267.949219 303.445312 C 267.84375 304.078125 267.632812 304.675781 267.3125 305.230469 C 266.996094 305.789062 266.585938 306.269531 266.09375 306.679688 C 265.597656 307.085938 265.046875 307.394531 264.441406 307.601562 C 263.835938 307.8125 263.210938 307.90625 262.570312 307.886719 C 259.523438 307.902344 256.476562 307.914062 253.429688 307.902344 C 252.816406 307.890625 252.222656 307.78125 251.648438 307.566406 C 251.074219 307.351562 250.550781 307.046875 250.082031 306.652344 C 249.613281 306.257812 249.226562 305.792969 248.914062 305.261719 C 248.605469 304.734375 248.398438 304.167969 248.285156 303.5625 C 248.175781 299.6875 248.433594 295.796875 248.179688 291.929688 C 236.054688 288.136719 223.847656 284.625 211.710938 280.878906 C 207.484375 279.683594 203.339844 278.144531 199.03125 277.265625 C 199.035156 295.003906 198.988281 312.742188 199.027344 330.480469 C 199.015625 330.894531 199.042969 331.304688 199.113281 331.714844 C 199.183594 332.121094 199.292969 332.519531 199.441406 332.90625 C 199.589844 333.292969 199.777344 333.660156 200 334.007812 C 200.222656 334.359375 200.476562 334.683594 200.761719 334.980469 C 201.046875 335.28125 201.363281 335.546875 201.703125 335.785156 C 202.039062 336.019531 202.402344 336.222656 202.78125 336.386719 C 203.160156 336.550781 203.550781 336.675781 203.957031 336.765625 C 204.359375 336.851562 204.769531 336.898438 205.183594 336.902344 C 241.261719 336.9375 277.339844 336.941406 313.417969 336.910156 C 313.8125 336.90625 314.199219 336.867188 314.585938 336.789062 C 314.972656 336.710938 315.347656 336.597656 315.710938 336.445312 C 316.074219 336.296875 316.421875 336.109375 316.75 335.894531 C 317.078125 335.675781 317.378906 335.429688 317.660156 335.152344 C 317.941406 334.875 318.191406 334.574219 318.414062 334.25 C 318.632812 333.921875 318.824219 333.578125 318.976562 333.21875 C 319.132812 332.855469 319.25 332.480469 319.332031 332.097656 C 319.414062 331.710938 319.460938 331.324219 319.464844 330.929688 C 319.449219 312.964844 319.554688 295.003906 319.519531 277.042969 C 315.988281 277.902344 312.542969 279.082031 309.054688 280.089844 Z M 309.054688 280.089844 " fill-opacity="1" fill-rule="nonzero"/><g clip-path="url(#3f5a189617)"><path fill="#00406d" d="M 82.253906 286.394531 C 79.351562 286.363281 76.445312 286.371094 73.539062 286.351562 C 72.832031 286.289062 72.179688 286.457031 71.589844 286.855469 C 71.628906 303.589844 71.617188 320.324219 71.636719 337.0625 C 75.652344 336.96875 79.675781 337.207031 83.683594 336.917969 C 83.632812 320.210938 83.578125 303.503906 83.683594 286.804688 C 83.253906 286.5 82.777344 286.363281 82.253906 286.394531 Z M 82.253906 286.394531 " fill-opacity="1" fill-rule="nonzero"/></g><path fill="#00406d" d="M 259.714844 298.519531 C 259.710938 295 259.710938 291.480469 259.714844 287.964844 C 258.441406 287.929688 257.171875 287.929688 255.902344 287.949219 C 255.917969 291.480469 255.90625 295.011719 255.894531 298.546875 C 257.164062 298.5 258.4375 298.496094 259.714844 298.519531 Z M 259.714844 298.519531 " fill-opacity="1" fill-rule="nonzero"/></svg>