<svg xmlns="http://www.w3.org/2000/svg" xmlns:xlink="http://www.w3.org/1999/xlink" width="200" zoomAndPan="magnify" viewBox="0 0 150 157.92" height="200" preserveAspectRatio="xMidYMid meet" version="1.0"><defs><clipPath id="31c7850b90"><path d="M 0.0390625 100 L 149.960938 100 L 149.960938 149.925781 L 0.0390625 149.925781 Z M 0.0390625 100 " clip-rule="nonzero"/></clipPath><clipPath id="08260ff665"><path d="M 0.0390625 0 L 149.960938 0 L 149.960938 50 L 0.0390625 50 Z M 0.0390625 0 " clip-rule="nonzero"/></clipPath></defs><g clip-path="url(#31c7850b90)"><path fill="#00406d" d="M 149.027344 118.992188 C 148.207031 117.707031 146.804688 116.652344 145.402344 116.066406 C 143.296875 115.25 140.957031 115.132812 138.734375 115.132812 C 127.742188 115.132812 110.082031 119.925781 103.769531 121.796875 C 102.367188 118.523438 98.507812 115.484375 89.152344 115.484375 C 83.535156 115.484375 78.273438 116.652344 78.039062 116.652344 C 76.285156 117.003906 74.765625 116.886719 72.660156 116.300781 C 68.449219 115.132812 64.941406 112.558594 61.199219 109.988281 C 57.339844 107.296875 53.480469 104.609375 48.6875 103.085938 C 40.851562 100.75 33.484375 100.164062 26.933594 101.449219 C 23.777344 102.035156 20.738281 103.203125 17.695312 104.257812 C 15.007812 105.308594 12.433594 106.246094 9.746094 106.828125 C 9.160156 106.945312 8.574219 107.179688 7.875 107.296875 C 6.46875 107.648438 4.949219 108.117188 3.898438 108.117188 C 3.546875 108.117188 3.429688 108.117188 3.3125 108 L 0.15625 107.0625 C 0.15625 107.0625 0.15625 130.570312 0.15625 138.40625 C 0.15625 140.277344 1.792969 141.5625 3.78125 141.5625 C 4.714844 141.5625 5.769531 141.210938 6.703125 140.976562 C 7.171875 140.859375 7.757812 140.625 7.992188 140.625 L 8.457031 140.511719 C 12.433594 139.925781 16.410156 139.339844 20.269531 139.339844 C 25.765625 139.339844 53.132812 146.355469 63.1875 149.046875 L 63.304688 149.046875 C 65.527344 149.515625 67.632812 149.75 69.738281 149.75 C 74.179688 149.75 76.636719 148.695312 76.871094 148.578125 C 80.261719 147.058594 86.578125 145.304688 86.578125 145.304688 C 97.453125 142.265625 139.90625 128.933594 140.253906 128.816406 C 146.101562 127.179688 149.144531 125.074219 149.726562 122.5 C 149.960938 121.214844 149.609375 120.042969 149.027344 118.992188 Z M 138.851562 124.253906 C 138.382812 124.371094 96.050781 137.703125 85.175781 140.742188 C 84.941406 140.859375 78.507812 142.613281 74.765625 144.367188 C 74.765625 144.367188 73.011719 145.1875 69.621094 145.1875 C 67.984375 145.1875 66.113281 144.953125 64.242188 144.601562 C 60.148438 143.550781 27.285156 134.78125 20.269531 134.78125 C 16.058594 134.78125 11.847656 135.363281 7.757812 136.066406 L 7.289062 136.183594 C 6.585938 136.300781 6.003906 136.535156 5.300781 136.652344 L 5.183594 136.652344 C 5.183594 126.710938 5.183594 117.355469 5.066406 112.910156 C 6.46875 112.792969 7.875 112.324219 9.160156 111.976562 C 9.746094 111.859375 10.328125 111.625 10.796875 111.507812 C 13.835938 110.804688 16.644531 109.753906 19.449219 108.816406 C 22.375 107.765625 25.0625 106.710938 27.871094 106.246094 C 33.601562 105.074219 40.265625 105.660156 47.285156 107.765625 C 51.378906 108.933594 54.769531 111.390625 58.394531 113.964844 C 62.253906 116.652344 66.347656 119.460938 71.257812 120.980469 C 74.0625 121.796875 76.402344 121.914062 78.859375 121.332031 C 79.09375 121.332031 83.886719 120.277344 88.917969 120.277344 C 93.476562 120.277344 99.089844 121.097656 99.558594 125.074219 L 99.675781 126.476562 C 99.324219 126.59375 98.855469 126.828125 98.507812 126.945312 C 96.285156 127.761719 94.0625 128.230469 91.722656 128.816406 C 89.382812 129.28125 87.046875 129.867188 84.707031 130.453125 C 82.484375 131.152344 80.261719 131.621094 78.15625 131.269531 C 76.050781 130.921875 73.597656 130.21875 71.257812 129.867188 C 68.917969 129.515625 66.464844 129.167969 64.125 129.050781 C 61.785156 128.933594 59.328125 128.933594 56.875 129.050781 C 54.535156 129.28125 52.195312 129.398438 49.738281 129.167969 C 51.960938 129.984375 54.417969 130.101562 56.875 130.21875 C 59.210938 130.335938 61.550781 130.570312 63.890625 130.804688 C 66.230469 131.15625 68.566406 131.503906 70.789062 132.089844 C 71.960938 132.324219 73.128906 132.558594 74.179688 132.910156 C 75.351562 133.140625 76.519531 133.492188 77.808594 133.726562 C 80.378906 134.078125 83.070312 133.492188 85.292969 132.675781 C 87.511719 131.972656 89.734375 131.386719 92.074219 130.6875 C 94.414062 129.984375 96.636719 129.167969 98.855469 128.113281 C 99.089844 127.996094 99.441406 128.230469 99.675781 127.996094 L 102.367188 127.179688 C 102.597656 127.0625 125.636719 120.042969 138.265625 120.042969 C 142.710938 120.042969 144.113281 120.980469 144.347656 121.449219 L 144.464844 121.796875 C 144.464844 122.265625 142.945312 123.085938 138.851562 124.253906 Z M 138.851562 124.253906 " fill-opacity="1" fill-rule="nonzero"/></g><path fill="#00406d" d="M 75 49.292969 C 60.734375 49.292969 49.273438 60.753906 49.273438 75.019531 C 49.273438 89.289062 60.734375 100.75 75 100.75 C 89.265625 100.75 100.726562 89.289062 100.726562 75.019531 C 100.726562 60.753906 89.265625 49.292969 75 49.292969 Z M 75 96.070312 C 63.421875 96.070312 53.949219 86.597656 53.949219 75.019531 C 53.949219 63.441406 63.421875 53.96875 75 53.96875 C 86.578125 53.96875 96.050781 63.441406 96.050781 75.019531 C 96.050781 86.597656 86.578125 96.070312 75 96.070312 Z M 75 96.070312 " fill-opacity="1" fill-rule="nonzero"/><path fill="#00406d" d="M 77.339844 73.03125 C 74.648438 71.980469 73.597656 71.277344 73.714844 70.226562 C 73.832031 69.289062 74.53125 68.472656 76.519531 68.589844 C 78.859375 68.824219 80.261719 69.523438 80.964844 69.992188 L 82.132812 66.601562 C 81.082031 66.015625 79.679688 65.546875 77.691406 65.3125 L 77.808594 62.625 L 74.765625 62.390625 L 74.648438 65.3125 C 71.257812 65.664062 69.152344 67.652344 69.035156 70.460938 C 68.917969 73.382812 71.023438 75.136719 74.296875 76.425781 C 76.636719 77.359375 77.574219 78.179688 77.457031 79.347656 C 77.339844 80.515625 76.050781 81.21875 74.296875 81.101562 C 72.308594 80.984375 70.554688 80.28125 69.269531 79.464844 L 68.101562 82.972656 C 69.152344 83.675781 71.140625 84.375 73.246094 84.609375 L 73.011719 87.535156 L 76.050781 87.652344 L 76.285156 84.492188 C 79.910156 84.140625 82.015625 81.921875 82.132812 79.113281 C 82.25 76.308594 80.964844 74.550781 77.339844 73.03125 Z M 77.339844 73.03125 " fill-opacity="1" fill-rule="nonzero"/><g clip-path="url(#08260ff665)"><path fill="#00406d" d="M 0.972656 30.933594 C 1.792969 32.21875 3.195312 33.269531 4.597656 33.855469 C 6.703125 34.675781 9.042969 34.792969 11.265625 34.792969 C 22.257812 34.792969 39.917969 29.996094 46.230469 28.125 C 47.636719 31.398438 51.492188 34.441406 60.847656 34.441406 C 66.464844 34.441406 71.726562 33.269531 71.960938 33.269531 C 73.714844 32.921875 75.234375 33.035156 77.339844 33.621094 C 81.550781 34.792969 85.058594 37.363281 88.800781 39.9375 C 92.660156 42.625 96.519531 45.316406 101.3125 46.835938 C 109.148438 49.175781 116.515625 49.761719 123.066406 48.472656 C 126.222656 47.890625 129.261719 46.71875 132.304688 45.667969 C 134.992188 44.613281 137.566406 43.679688 140.253906 43.09375 C 140.839844 42.976562 141.425781 42.742188 142.125 42.625 C 143.53125 42.277344 145.050781 41.808594 146.101562 41.808594 C 146.453125 41.808594 146.570312 41.808594 146.6875 41.925781 L 149.726562 42.859375 C 149.726562 42.859375 149.726562 19.355469 149.726562 11.519531 C 149.726562 9.648438 148.089844 8.363281 146.101562 8.363281 C 145.167969 8.363281 144.113281 8.710938 143.179688 8.945312 C 142.710938 9.0625 142.125 9.296875 141.894531 9.296875 L 141.425781 9.414062 C 137.449219 10 133.472656 10.582031 129.613281 10.582031 C 124.117188 10.582031 96.75 3.566406 86.695312 0.878906 C 84.472656 0.410156 82.367188 0.175781 80.261719 0.175781 C 75.820312 0.175781 73.363281 1.226562 73.128906 1.34375 C 69.738281 2.863281 63.421875 4.621094 63.421875 4.621094 C 52.546875 7.660156 10.09375 20.992188 9.746094 21.109375 C 3.898438 22.746094 0.855469 24.851562 0.273438 27.421875 C 0.0390625 28.710938 0.390625 29.878906 0.972656 30.933594 Z M 11.148438 25.667969 C 11.617188 25.550781 53.949219 12.222656 64.824219 9.179688 C 65.058594 9.0625 71.492188 7.308594 75.234375 5.554688 C 75.234375 5.554688 76.988281 4.734375 80.378906 4.734375 C 82.015625 4.734375 83.886719 4.96875 85.757812 5.320312 C 89.851562 6.375 122.714844 15.144531 129.730469 15.144531 C 133.941406 15.144531 138.152344 14.558594 142.242188 13.859375 L 142.710938 13.742188 C 143.414062 13.625 143.996094 13.390625 144.699219 13.273438 L 144.816406 13.273438 C 144.816406 23.214844 144.816406 32.570312 144.933594 37.011719 C 143.53125 37.128906 142.125 37.597656 140.839844 37.949219 C 140.253906 38.066406 139.671875 38.300781 139.203125 38.417969 C 136.164062 39.117188 133.355469 40.171875 130.550781 41.105469 C 127.625 42.160156 124.9375 43.210938 122.128906 43.679688 C 116.398438 44.847656 109.734375 44.265625 102.714844 42.160156 C 98.621094 40.988281 95.230469 38.535156 91.605469 35.960938 C 87.746094 33.269531 83.652344 30.464844 78.742188 28.945312 C 75.933594 28.125 73.597656 28.007812 71.140625 28.59375 C 70.90625 28.59375 66.113281 29.644531 61.082031 29.644531 C 56.523438 29.644531 50.910156 28.828125 50.441406 24.851562 L 50.324219 23.449219 C 50.675781 23.332031 51.144531 23.097656 51.492188 22.980469 C 53.714844 22.160156 55.9375 21.695312 58.277344 21.109375 C 60.617188 20.640625 62.953125 20.054688 65.292969 19.472656 C 67.515625 18.769531 69.738281 18.300781 71.84375 18.652344 C 73.949219 19.003906 76.402344 19.707031 78.742188 20.054688 C 81.082031 20.40625 83.535156 20.757812 85.875 20.875 C 88.214844 20.992188 90.671875 20.992188 93.125 20.875 C 95.464844 20.640625 97.804688 20.523438 100.261719 20.757812 C 98.039062 19.9375 95.582031 19.820312 93.125 19.707031 C 90.789062 19.589844 88.449219 19.355469 86.109375 19.121094 C 83.769531 18.769531 81.433594 18.417969 79.210938 17.835938 C 78.039062 17.601562 76.871094 17.367188 75.820312 17.015625 C 74.648438 16.78125 73.480469 16.429688 72.191406 16.195312 C 69.621094 15.847656 66.929688 16.429688 64.707031 17.25 C 62.488281 17.949219 60.265625 18.535156 57.925781 19.238281 C 55.585938 19.9375 53.363281 20.757812 51.144531 21.808594 C 50.910156 21.925781 50.558594 21.695312 50.324219 21.925781 L 47.632812 22.746094 C 47.402344 22.863281 24.363281 29.878906 11.734375 29.878906 C 7.289062 29.878906 5.886719 28.945312 5.652344 28.476562 L 5.535156 28.125 C 5.535156 27.65625 7.054688 26.839844 11.148438 25.667969 Z M 11.148438 25.667969 " fill-opacity="1" fill-rule="nonzero"/></g></svg>