<svg xmlns="http://www.w3.org/2000/svg" xmlns:xlink="http://www.w3.org/1999/xlink" width="500" zoomAndPan="magnify" viewBox="0 0 375 374.999991" height="500" preserveAspectRatio="xMidYMid meet" version="1.0"><defs><clipPath id="c9b7ee3cde"><path d="M 55.1875 38 L 354.4375 38 L 354.4375 337.5 L 55.1875 337.5 Z M 55.1875 38 " clip-rule="nonzero"/></clipPath></defs><path fill="#00406d" d="M 266.902344 228.625 L 266.902344 230.863281 C 256.023438 232.742188 247.816406 240.855469 247.816406 250.542969 C 247.816406 262.390625 257.667969 266.5625 266.902344 269.375 L 266.902344 291.027344 C 259.296875 289.484375 254.34375 284.828125 254.214844 284.703125 C 252.316406 282.847656 249.273438 282.871094 247.40625 284.761719 C 245.535156 286.660156 245.554688 289.710938 247.453125 291.582031 C 247.800781 291.929688 255.242188 299.140625 266.902344 300.816406 L 266.902344 302.996094 C 266.902344 305.660156 269.0625 307.820312 271.726562 307.820312 C 274.390625 307.820312 276.550781 305.660156 276.550781 302.996094 L 276.550781 300.753906 C 287.429688 298.875 295.632812 290.765625 295.632812 281.078125 C 295.632812 269.183594 285.796875 264.988281 276.550781 262.160156 L 276.550781 240.589844 C 284.210938 242.144531 289.175781 246.859375 289.222656 246.902344 C 291.117188 248.773438 294.171875 248.753906 296.042969 246.855469 C 297.914062 244.960938 297.894531 241.90625 296 240.035156 C 295.648438 239.6875 288.207031 232.480469 276.550781 230.804688 L 276.550781 228.625 C 276.550781 225.960938 274.390625 223.800781 271.726562 223.800781 C 269.0625 223.800781 266.902344 225.960938 266.902344 228.625 Z M 257.464844 250.542969 C 257.464844 246.113281 261.460938 242.226562 266.902344 240.742188 L 266.902344 259.21875 C 260.523438 257.011719 257.464844 254.832031 257.464844 250.542969 Z M 285.988281 281.078125 C 285.988281 285.503906 281.988281 289.394531 276.550781 290.878906 L 276.550781 272.324219 C 282.925781 274.539062 285.988281 276.742188 285.988281 281.078125 Z M 285.988281 281.078125 " fill-opacity="1" fill-rule="nonzero"/><path fill="#00406d" d="M 259.421875 132.457031 L 169.484375 132.457031 C 166.820312 132.457031 164.660156 134.617188 164.660156 137.28125 L 164.660156 162.28125 C 164.660156 164.945312 166.820312 167.105469 169.484375 167.105469 L 259.421875 167.105469 C 262.085938 167.105469 264.246094 164.945312 264.246094 162.28125 L 264.246094 137.28125 C 264.246094 134.617188 262.085938 132.457031 259.421875 132.457031 Z M 254.597656 157.457031 L 174.308594 157.457031 L 174.308594 142.105469 L 254.597656 142.105469 Z M 254.597656 157.457031 " fill-opacity="1" fill-rule="nonzero"/><path fill="#00406d" d="M 89.75 100.058594 L 199.703125 100.058594 C 202.367188 100.058594 204.527344 97.898438 204.527344 95.234375 C 204.527344 92.570312 202.367188 90.410156 199.703125 90.410156 L 89.75 90.410156 C 87.085938 90.410156 84.925781 92.570312 84.925781 95.234375 C 84.925781 97.898438 87.085938 100.058594 89.75 100.058594 Z M 89.75 100.058594 " fill-opacity="1" fill-rule="nonzero"/><g clip-path="url(#c9b7ee3cde)"><path fill="#00406d" d="M 354.242188 148.304688 C 354.046875 142.863281 351.738281 137.820312 347.75 134.109375 L 340.871094 127.707031 L 343.8125 124.546875 C 346.105469 122.082031 347.300781 118.867188 347.179688 115.503906 C 347.058594 112.136719 345.632812 109.019531 343.167969 106.722656 L 315.648438 81.128906 C 313.699219 79.3125 310.644531 79.425781 308.832031 81.375 C 307.015625 83.324219 307.128906 86.378906 309.078125 88.191406 L 336.59375 113.789062 C 337.175781 114.328125 337.511719 115.058594 337.539062 115.851562 C 337.566406 116.640625 337.285156 117.398438 336.746094 117.976562 L 333.804688 121.136719 L 260.425781 52.882812 C 259.949219 52.4375 259.386719 52.09375 258.777344 51.875 L 221.457031 38.433594 C 219.636719 37.777344 217.605469 38.269531 216.289062 39.6875 C 214.972656 41.101562 214.628906 43.164062 215.414062 44.929688 L 220.375 56.097656 L 60.011719 56.097656 C 57.347656 56.097656 55.1875 58.257812 55.1875 60.921875 L 55.1875 332.390625 C 55.1875 335.054688 57.347656 337.214844 60.011719 337.214844 L 229.441406 337.214844 C 232.105469 337.214844 234.265625 335.054688 234.265625 332.390625 L 234.265625 311.277344 C 244.457031 319.6875 257.511719 324.746094 271.726562 324.746094 C 304.222656 324.746094 330.660156 298.304688 330.660156 265.808594 C 330.660156 237.597656 310.730469 213.957031 284.214844 208.210938 L 284.214844 130.722656 L 319.964844 163.980469 C 324.597656 167.359375 329.40625 169.613281 334.59375 169.429688 C 340.039062 169.230469 345.082031 166.925781 348.792969 162.9375 C 352.503906 158.945312 354.441406 153.75 354.242188 148.304688 Z M 248.636719 58.476562 L 237.371094 70.585938 L 228.816406 51.339844 Z M 259.421875 176.304688 L 169.484375 176.304688 C 166.820312 176.304688 164.660156 178.460938 164.660156 181.125 L 164.660156 268.816406 C 164.660156 271.480469 166.820312 273.640625 169.484375 273.640625 L 213.3125 273.640625 C 213.726562 276.742188 214.382812 279.769531 215.261719 282.699219 L 160.5625 282.699219 C 157.132812 282.699219 154.339844 279.90625 154.339844 276.476562 L 154.339844 129.621094 C 154.339844 126.191406 157.132812 123.398438 160.5625 123.398438 L 268.34375 123.398438 C 271.773438 123.398438 274.566406 126.191406 274.566406 129.621094 L 274.566406 206.945312 C 273.625 206.902344 272.679688 206.875 271.726562 206.875 C 269.191406 206.875 266.695312 207.035156 264.246094 207.347656 L 264.246094 181.125 C 264.246094 178.460938 262.085938 176.304688 259.421875 176.304688 Z M 234.265625 198.226562 L 234.265625 185.949219 L 254.597656 185.949219 L 254.597656 198.226562 Z M 254.597656 207.871094 C 246.46875 211.238281 239.460938 215.171875 234.511719 220.148438 L 234.265625 220.148438 L 234.265625 207.871094 Z M 204.285156 242.070312 L 204.285156 229.796875 L 224.617188 229.796875 C 221.96875 233.304688 219.691406 237.394531 217.789062 242.070312 Z M 214.496094 251.71875 C 213.523438 255.667969 212.949219 259.773438 212.820312 263.992188 L 204.285156 263.992188 L 204.285156 251.71875 Z M 204.285156 220.148438 L 204.285156 207.871094 L 224.617188 207.871094 L 224.617188 220.148438 Z M 204.285156 198.226562 L 204.285156 185.949219 L 224.617188 185.949219 L 224.617188 198.226562 Z M 174.308594 242.070312 L 174.308594 229.796875 L 194.640625 229.796875 L 194.640625 242.070312 Z M 194.640625 251.71875 L 194.640625 263.992188 L 174.304688 263.992188 L 174.304688 251.71875 Z M 174.308594 220.148438 L 174.308594 207.871094 L 194.640625 207.871094 L 194.640625 220.148438 Z M 174.308594 198.226562 L 174.308594 185.949219 L 194.640625 185.949219 L 194.640625 198.226562 Z M 234.265625 113.75 L 234.265625 84.265625 L 265.964844 113.75 Z M 224.617188 327.570312 L 64.835938 327.570312 L 64.835938 65.746094 L 224.617188 65.746094 L 224.617188 113.75 L 160.5625 113.75 C 151.8125 113.75 144.691406 120.871094 144.691406 129.621094 L 144.691406 134.910156 L 89.75 134.910156 C 87.085938 134.910156 84.925781 137.070312 84.925781 139.734375 C 84.925781 142.398438 87.085938 144.558594 89.75 144.558594 L 144.691406 144.558594 L 144.691406 179.414062 L 89.75 179.414062 C 87.085938 179.414062 84.925781 181.574219 84.925781 184.238281 C 84.925781 186.902344 87.085938 189.0625 89.75 189.0625 L 144.691406 189.0625 L 144.691406 223.917969 L 89.75 223.917969 C 87.085938 223.917969 84.925781 226.078125 84.925781 228.742188 C 84.925781 231.40625 87.085938 233.566406 89.75 233.566406 L 144.691406 233.566406 L 144.691406 268.417969 L 89.75 268.417969 C 87.085938 268.417969 84.925781 270.578125 84.925781 273.242188 C 84.925781 275.90625 87.085938 278.066406 89.75 278.066406 L 144.773438 278.066406 C 145.574219 286.074219 152.347656 292.347656 160.5625 292.347656 L 219.113281 292.347656 C 220.691406 295.460938 222.535156 298.417969 224.617188 301.1875 Z M 321.011719 265.808594 C 321.011719 292.988281 298.902344 315.097656 271.726562 315.097656 C 244.546875 315.097656 222.4375 292.988281 222.4375 265.808594 C 222.4375 238.632812 244.546875 216.523438 271.726562 216.523438 C 298.902344 216.523438 321.011719 238.632812 321.011719 265.808594 Z M 242.742188 78.972656 L 257.386719 63.230469 L 316.453125 118.171875 L 301.808594 133.914062 Z M 341.730469 156.363281 C 339.773438 158.46875 337.117188 159.683594 334.246094 159.789062 C 331.390625 159.890625 328.636719 158.871094 326.535156 156.914062 L 308.871094 140.484375 L 323.515625 124.742188 L 341.179688 141.171875 C 343.28125 143.128906 344.496094 145.785156 344.601562 148.65625 C 344.703125 151.523438 343.683594 154.261719 341.730469 156.363281 Z M 341.730469 156.363281 " fill-opacity="1" fill-rule="nonzero"/></g></svg>