<svg xmlns="http://www.w3.org/2000/svg" xmlns:xlink="http://www.w3.org/1999/xlink" width="200" zoomAndPan="magnify" viewBox="0 0 150 157.92" height="200" preserveAspectRatio="xMidYMid meet" version="1.0"><defs><clipPath id="875f5b16c6"><path d="M 0.0390625 0 L 149.960938 0 L 149.960938 149.925781 L 0.0390625 149.925781 Z M 0.0390625 0 " clip-rule="nonzero"/></clipPath></defs><g clip-path="url(#875f5b16c6)"><path fill="#ffffff" d="M 159.007812 74.960938 C 159.007812 76.335938 158.972656 77.707031 158.90625 79.082031 C 158.839844 80.453125 158.738281 81.824219 158.601562 83.195312 C 158.46875 84.5625 158.300781 85.925781 158.097656 87.285156 C 157.894531 88.644531 157.660156 90 157.394531 91.347656 C 157.125 92.695312 156.824219 94.039062 156.488281 95.371094 C 156.15625 96.707031 155.789062 98.03125 155.390625 99.347656 C 154.992188 100.660156 154.558594 101.964844 154.097656 103.261719 C 153.632812 104.554688 153.136719 105.839844 152.613281 107.109375 C 152.085938 108.378906 151.527344 109.636719 150.941406 110.878906 C 150.351562 112.121094 149.734375 113.347656 149.085938 114.5625 C 148.4375 115.773438 147.761719 116.96875 147.054688 118.148438 C 146.347656 119.328125 145.613281 120.488281 144.847656 121.632812 C 144.085938 122.777344 143.292969 123.898438 142.476562 125.003906 C 141.65625 126.109375 140.808594 127.191406 139.9375 128.253906 C 139.066406 129.316406 138.167969 130.359375 137.246094 131.375 C 136.320312 132.394531 135.375 133.390625 134.402344 134.363281 C 133.429688 135.335938 132.433594 136.285156 131.414062 137.207031 C 130.394531 138.128906 129.355469 139.027344 128.292969 139.898438 C 127.230469 140.773438 126.144531 141.617188 125.042969 142.4375 C 123.9375 143.253906 122.8125 144.046875 121.671875 144.8125 C 120.527344 145.574219 119.367188 146.308594 118.1875 147.015625 C 117.007812 147.722656 115.8125 148.402344 114.597656 149.050781 C 113.386719 149.699219 112.160156 150.316406 110.917969 150.902344 C 109.671875 151.492188 108.417969 152.046875 107.144531 152.574219 C 105.875 153.101562 104.59375 153.59375 103.300781 154.058594 C 102.003906 154.523438 100.699219 154.953125 99.382812 155.351562 C 98.066406 155.75 96.742188 156.117188 95.410156 156.453125 C 94.078125 156.785156 92.734375 157.085938 91.386719 157.355469 C 90.039062 157.625 88.683594 157.859375 87.324219 158.058594 C 85.964844 158.261719 84.601562 158.429688 83.230469 158.566406 C 81.863281 158.699219 80.492188 158.800781 79.121094 158.867188 C 77.746094 158.933594 76.371094 158.96875 74.996094 158.96875 C 73.621094 158.96875 72.25 158.933594 70.875 158.867188 C 69.5 158.800781 68.132812 158.699219 66.761719 158.566406 C 65.394531 158.429688 64.03125 158.261719 62.671875 158.058594 C 61.308594 157.859375 59.957031 157.625 58.609375 157.355469 C 57.257812 157.085938 55.917969 156.785156 54.585938 156.453125 C 53.25 156.117188 51.925781 155.75 50.609375 155.351562 C 49.292969 154.953125 47.988281 154.523438 46.695312 154.058594 C 45.398438 153.59375 44.117188 153.101562 42.847656 152.574219 C 41.578125 152.046875 40.320312 151.492188 39.078125 150.902344 C 37.835938 150.316406 36.609375 149.699219 35.394531 149.050781 C 34.183594 148.402344 32.988281 147.722656 31.808594 147.015625 C 30.628906 146.308594 29.464844 145.574219 28.324219 144.8125 C 27.179688 144.046875 26.054688 143.253906 24.953125 142.4375 C 23.847656 141.617188 22.765625 140.773438 21.703125 139.898438 C 20.640625 139.027344 19.597656 138.128906 18.578125 137.207031 C 17.5625 136.285156 16.566406 135.335938 15.59375 134.363281 C 14.621094 133.390625 13.671875 132.394531 12.75 131.375 C 11.828125 130.359375 10.929688 129.316406 10.054688 128.253906 C 9.183594 127.191406 8.339844 126.109375 7.519531 125.003906 C 6.699219 123.898438 5.910156 122.777344 5.144531 121.632812 C 4.382812 120.488281 3.644531 119.328125 2.9375 118.148438 C 2.230469 116.96875 1.554688 115.773438 0.90625 114.5625 C 0.257812 113.347656 -0.359375 112.121094 -0.945312 110.878906 C -1.535156 109.636719 -2.09375 108.378906 -2.617188 107.109375 C -3.144531 105.839844 -3.640625 104.554688 -4.101562 103.261719 C -4.566406 101.964844 -4.996094 100.660156 -5.394531 99.347656 C -5.792969 98.03125 -6.160156 96.707031 -6.496094 95.371094 C -6.828125 94.039062 -7.128906 92.695312 -7.398438 91.347656 C -7.667969 90 -7.902344 88.644531 -8.105469 87.285156 C -8.304688 85.925781 -8.472656 84.5625 -8.609375 83.195312 C -8.742188 81.824219 -8.84375 80.453125 -8.910156 79.082031 C -8.980469 77.707031 -9.011719 76.335938 -9.011719 74.960938 C -9.011719 73.585938 -8.980469 72.210938 -8.910156 70.835938 C -8.84375 69.464844 -8.742188 68.09375 -8.609375 66.726562 C -8.472656 65.355469 -8.304688 63.992188 -8.105469 62.632812 C -7.902344 61.273438 -7.667969 59.917969 -7.398438 58.570312 C -7.128906 57.222656 -6.828125 55.878906 -6.496094 54.546875 C -6.160156 53.210938 -5.792969 51.886719 -5.394531 50.570312 C -4.996094 49.257812 -4.566406 47.953125 -4.101562 46.65625 C -3.640625 45.363281 -3.144531 44.078125 -2.617188 42.808594 C -2.09375 41.539062 -1.535156 40.28125 -0.945312 39.039062 C -0.359375 37.796875 0.257812 36.570312 0.90625 35.355469 C 1.554688 34.144531 2.230469 32.949219 2.9375 31.769531 C 3.644531 30.589844 4.382812 29.429688 5.144531 28.285156 C 5.910156 27.140625 6.699219 26.019531 7.519531 24.914062 C 8.339844 23.808594 9.183594 22.726562 10.054688 21.664062 C 10.929688 20.601562 11.828125 19.558594 12.75 18.542969 C 13.671875 17.523438 14.621094 16.527344 15.59375 15.554688 C 16.566406 14.582031 17.5625 13.636719 18.578125 12.710938 C 19.597656 11.789062 20.640625 10.890625 21.703125 10.019531 C 22.765625 9.144531 23.847656 8.300781 24.953125 7.480469 C 26.054688 6.664062 27.179688 5.871094 28.324219 5.105469 C 29.464844 4.34375 30.628906 3.609375 31.808594 2.902344 C 32.988281 2.195312 34.183594 1.515625 35.394531 0.867188 C 36.609375 0.21875 37.835938 -0.398438 39.078125 -0.984375 C 40.320312 -1.574219 41.578125 -2.128906 42.847656 -2.65625 C 44.117188 -3.183594 45.398438 -3.675781 46.695312 -4.140625 C 47.988281 -4.601562 49.292969 -5.035156 50.609375 -5.433594 C 51.925781 -5.832031 53.25 -6.199219 54.585938 -6.535156 C 55.917969 -6.867188 57.257812 -7.167969 58.609375 -7.4375 C 59.957031 -7.703125 61.308594 -7.941406 62.671875 -8.140625 C 64.03125 -8.34375 65.394531 -8.511719 66.761719 -8.648438 C 68.132812 -8.78125 69.5 -8.882812 70.875 -8.949219 C 72.25 -9.015625 73.621094 -9.050781 74.996094 -9.050781 C 76.371094 -9.050781 77.746094 -9.015625 79.121094 -8.949219 C 80.492188 -8.882812 81.863281 -8.78125 83.230469 -8.648438 C 84.601562 -8.511719 85.964844 -8.34375 87.324219 -8.140625 C 88.683594 -7.941406 90.039062 -7.703125 91.386719 -7.4375 C 92.734375 -7.167969 94.078125 -6.867188 95.410156 -6.535156 C 96.742188 -6.199219 98.066406 -5.832031 99.382812 -5.433594 C 100.699219 -5.035156 102.003906 -4.601562 103.300781 -4.140625 C 104.59375 -3.675781 105.875 -3.183594 107.144531 -2.65625 C 108.417969 -2.128906 109.671875 -1.574219 110.917969 -0.984375 C 112.160156 -0.398438 113.386719 0.21875 114.597656 0.867188 C 115.8125 1.515625 117.007812 2.195312 118.1875 2.902344 C 119.367188 3.609375 120.527344 4.34375 121.671875 5.105469 C 122.8125 5.871094 123.9375 6.664062 125.042969 7.480469 C 126.144531 8.300781 127.230469 9.144531 128.292969 10.019531 C 129.355469 10.890625 130.394531 11.789062 131.414062 12.710938 C 132.433594 13.636719 133.429688 14.582031 134.402344 15.554688 C 135.375 16.527344 136.320312 17.523438 137.246094 18.542969 C 138.167969 19.558594 139.066406 20.601562 139.9375 21.664062 C 140.808594 22.726562 141.65625 23.808594 142.476562 24.914062 C 143.292969 26.019531 144.085938 27.140625 144.847656 28.285156 C 145.613281 29.429688 146.347656 30.589844 147.054688 31.769531 C 147.761719 32.949219 148.4375 34.144531 149.085938 35.355469 C 149.734375 36.570312 150.355469 37.796875 150.941406 39.039062 C 151.527344 40.28125 152.085938 41.539062 152.613281 42.808594 C 153.136719 44.078125 153.632812 45.363281 154.097656 46.65625 C 154.558594 47.953125 154.992188 49.257812 155.390625 50.570312 C 155.789062 51.886719 156.15625 53.210938 156.488281 54.546875 C 156.824219 55.878906 157.125 57.222656 157.394531 58.570312 C 157.660156 59.917969 157.894531 61.273438 158.097656 62.632812 C 158.300781 63.992188 158.46875 65.355469 158.601562 66.726562 C 158.738281 68.09375 158.839844 69.464844 158.90625 70.835938 C 158.972656 72.210938 159.007812 73.585938 159.007812 74.960938 Z M 159.007812 74.960938 " fill-opacity="1" fill-rule="nonzero"/></g><path fill="#00406d" d="M 80.542969 43.132812 L 81.171875 42.566406 L 82.496094 38.089844 L 82.875 35.820312 L 78.335938 34.5 C 78.273438 34.5 78.273438 34.5 78.273438 34.5 L 73.359375 32.039062 L 72.035156 34.183594 C 72.035156 34.183594 71.972656 34.246094 71.972656 34.246094 L 68.253906 35.507812 L 66.929688 36.828125 L 67.6875 40.234375 L 69.136719 43.574219 C 68.632812 44.140625 68.316406 44.898438 68.316406 45.714844 L 68.316406 48.363281 C 67.6875 48.992188 64.851562 49.875 64.15625 50.066406 C 62.390625 50.632812 60.5 51.324219 58.863281 52.207031 C 62.078125 49.054688 61.824219 43.886719 61.511719 38.46875 C 61.445312 36.957031 61.382812 35.445312 61.382812 33.992188 C 61.382812 26.117188 66.171875 21.578125 74.933594 21.199219 C 74.996094 21.199219 74.996094 21.199219 75.058594 21.199219 C 83.820312 21.578125 88.609375 26.117188 88.609375 33.992188 C 88.609375 35.445312 88.546875 36.957031 88.484375 38.46875 C 88.167969 43.886719 87.917969 49.054688 91.066406 52.144531 C 89.429688 51.261719 87.601562 50.632812 85.898438 50.066406 C 85.207031 49.875 82.371094 48.992188 81.675781 48.363281 L 81.675781 45.652344 C 81.675781 44.644531 81.238281 43.761719 80.542969 43.132812 Z M 80.542969 43.132812 " fill-opacity="1" fill-rule="evenodd"/><path fill="#00406d" d="M 74.996094 47.921875 C 66.992188 47.671875 65.355469 37.019531 65.164062 35.757812 C 65.101562 35.445312 65.226562 35.066406 65.480469 34.8125 C 65.734375 34.5 66.046875 34.371094 66.425781 34.371094 C 66.488281 34.371094 66.488281 34.371094 66.550781 34.371094 C 70.964844 34.371094 72.285156 30.589844 72.285156 30.589844 C 72.414062 30.148438 72.792969 29.835938 73.234375 29.707031 C 73.609375 29.644531 74.113281 29.769531 74.367188 30.148438 C 77.960938 34.058594 83.441406 34.246094 83.503906 34.246094 C 83.882812 34.246094 84.199219 34.433594 84.449219 34.6875 C 84.703125 34.9375 84.765625 35.316406 84.765625 35.632812 C 84.703125 36.136719 83.316406 47.671875 74.996094 47.921875 Z M 67.9375 36.765625 C 68.503906 39.539062 70.269531 45.210938 74.996094 45.402344 C 79.722656 45.210938 81.488281 39.289062 82.054688 36.640625 C 80.164062 36.324219 76.699219 35.507812 73.800781 33.046875 C 72.726562 34.625 70.835938 36.324219 67.9375 36.765625 Z M 67.9375 36.765625 " fill-opacity="1" fill-rule="evenodd"/><path fill="#00406d" d="M 55.964844 67.207031 L 55.964844 59.707031 C 55.964844 54.917969 60.878906 53.34375 64.789062 52.082031 C 68.191406 51.011719 70.460938 50.128906 70.460938 48.617188 L 70.460938 45.714844 C 70.460938 45.023438 71.027344 44.457031 71.71875 44.457031 C 72.414062 44.457031 72.980469 45.023438 72.980469 45.714844 L 72.980469 48.617188 C 72.980469 50.632812 71.71875 51.890625 69.957031 52.773438 C 71.53125 53.59375 73.234375 53.972656 74.996094 53.972656 C 76.824219 53.972656 78.527344 53.59375 80.039062 52.773438 C 78.273438 51.890625 77.078125 50.632812 77.078125 48.617188 L 77.078125 45.652344 C 77.078125 44.960938 77.644531 44.394531 78.335938 44.394531 C 79.03125 44.394531 79.597656 44.960938 79.597656 45.652344 L 79.597656 48.617188 C 79.597656 50.128906 81.804688 51.011719 85.207031 52.082031 C 89.175781 53.34375 94.03125 54.917969 94.03125 59.707031 L 94.03125 67.207031 L 87.789062 67.207031 L 87.789062 61.789062 C 87.789062 61.09375 87.222656 60.527344 86.53125 60.527344 C 85.835938 60.527344 85.269531 61.09375 85.269531 61.789062 L 85.269531 67.207031 L 64.789062 67.207031 L 64.789062 61.789062 C 64.789062 61.09375 64.21875 60.527344 63.527344 60.527344 C 62.832031 60.527344 62.265625 61.09375 62.265625 61.789062 L 62.265625 67.207031 Z M 55.964844 67.207031 " fill-opacity="1" fill-rule="evenodd"/><path fill="#00406d" d="M 112.875 79.496094 L 37.183594 79.496094 C 34.347656 79.496094 32.078125 77.226562 32.078125 74.390625 C 32.078125 71.617188 34.347656 69.285156 37.183594 69.285156 L 112.875 69.285156 C 115.710938 69.285156 117.980469 71.617188 117.980469 74.390625 C 117.980469 77.226562 115.710938 79.496094 112.875 79.496094 Z M 112.875 79.496094 " fill-opacity="1" fill-rule="evenodd"/><path fill="#00406d" d="M 109.28125 128.78125 L 40.773438 128.78125 C 40.019531 128.78125 39.515625 128.214844 39.515625 127.519531 L 39.515625 81.578125 L 110.542969 81.578125 L 110.542969 127.519531 C 110.542969 128.214844 109.976562 128.78125 109.28125 128.78125 Z M 74.492188 121.847656 L 69.136719 121.847656 C 68.378906 121.847656 67.875 121.28125 67.875 120.589844 L 67.875 109.117188 C 67.875 108.425781 68.378906 107.855469 69.136719 107.855469 L 74.492188 107.855469 C 75.125 107.855469 75.753906 108.425781 75.753906 109.117188 C 75.753906 109.8125 75.125 110.378906 74.492188 110.378906 L 70.394531 110.378906 L 70.394531 113.71875 L 74.492188 113.71875 C 75.125 113.71875 75.753906 114.285156 75.753906 114.980469 C 75.753906 115.671875 75.125 116.238281 74.492188 116.238281 L 70.394531 116.238281 L 70.394531 119.328125 L 74.492188 119.328125 C 75.125 119.328125 75.753906 119.894531 75.753906 120.589844 C 75.753906 121.28125 75.125 121.847656 74.492188 121.847656 Z M 94.410156 121.722656 C 94.03125 121.722656 93.652344 121.535156 93.398438 121.21875 L 91.507812 118.699219 L 91.507812 120.589844 C 91.507812 121.28125 90.941406 121.847656 90.25 121.847656 C 89.554688 121.847656 88.988281 121.28125 88.988281 120.589844 L 88.988281 114.980469 C 88.988281 114.914062 88.988281 114.789062 88.988281 114.726562 L 88.988281 109.117188 C 88.988281 108.425781 89.554688 107.855469 90.25 107.855469 C 90.941406 107.855469 91.507812 108.425781 91.507812 109.117188 L 91.507812 111.070312 L 93.398438 108.488281 C 93.839844 107.921875 94.660156 107.792969 95.164062 108.234375 C 95.730469 108.613281 95.859375 109.433594 95.417969 110 L 91.824219 114.851562 L 95.417969 119.707031 C 95.859375 120.273438 95.730469 121.027344 95.164062 121.46875 C 94.976562 121.660156 94.722656 121.722656 94.410156 121.722656 Z M 81.675781 121.847656 C 79.410156 121.847656 77.582031 120.019531 77.582031 117.6875 C 77.582031 116.996094 78.148438 116.429688 78.839844 116.429688 C 79.535156 116.429688 80.101562 116.996094 80.101562 117.6875 C 80.101562 118.570312 80.796875 119.328125 81.675781 119.328125 C 82.558594 119.328125 83.253906 118.570312 83.253906 117.6875 C 83.253906 116.804688 82.558594 116.113281 81.675781 116.113281 C 79.410156 116.113281 77.582031 114.285156 77.582031 112.015625 C 77.582031 109.746094 79.410156 107.855469 81.675781 107.855469 C 83.945312 107.855469 85.773438 109.746094 85.773438 112.015625 C 85.773438 112.710938 85.207031 113.277344 84.511719 113.277344 C 83.820312 113.277344 83.253906 112.710938 83.253906 112.015625 C 83.253906 111.132812 82.558594 110.378906 81.675781 110.378906 C 80.796875 110.378906 80.101562 111.132812 80.101562 112.015625 C 80.101562 112.898438 80.796875 113.59375 81.675781 113.59375 C 83.945312 113.59375 85.773438 115.421875 85.773438 117.6875 C 85.773438 119.957031 83.945312 121.847656 81.675781 121.847656 Z M 60.566406 121.847656 L 55.710938 121.847656 C 55.019531 121.847656 54.453125 121.28125 54.453125 120.589844 L 54.453125 109.117188 C 54.453125 108.425781 55.019531 107.855469 55.710938 107.855469 L 60.566406 107.855469 C 63.96875 107.855469 66.679688 110.628906 66.679688 113.96875 L 66.679688 115.734375 C 66.679688 119.074219 63.96875 121.847656 60.566406 121.847656 Z M 56.972656 119.328125 L 60.566406 119.328125 C 62.582031 119.328125 64.15625 117.6875 64.15625 115.734375 L 64.15625 113.96875 C 64.15625 112.015625 62.582031 110.378906 60.566406 110.378906 L 56.972656 110.378906 Z M 90.058594 96.828125 L 87.917969 96.828125 L 87.917969 100.863281 C 87.917969 101.554688 87.351562 102.121094 86.65625 102.121094 C 85.964844 102.121094 85.394531 101.554688 85.394531 100.863281 L 85.394531 89.390625 C 85.394531 88.699219 85.964844 88.132812 86.65625 88.132812 L 90.058594 88.132812 C 92.453125 88.132812 94.410156 90.085938 94.410156 92.480469 C 94.410156 94.875 92.453125 96.828125 90.058594 96.828125 Z M 87.917969 94.308594 L 90.058594 94.308594 C 91.066406 94.308594 91.824219 93.488281 91.824219 92.480469 C 91.824219 91.472656 91.003906 90.652344 90.058594 90.652344 L 87.917969 90.652344 Z M 83 102.058594 L 77.644531 102.058594 C 76.949219 102.058594 76.382812 101.492188 76.382812 100.796875 L 76.382812 89.390625 C 76.382812 88.699219 76.949219 88.132812 77.644531 88.132812 C 78.335938 88.132812 78.90625 88.699219 78.90625 89.390625 L 78.90625 99.539062 L 83 99.539062 C 83.695312 99.539062 84.261719 100.105469 84.261719 100.796875 C 84.261719 101.492188 83.695312 102.058594 83 102.058594 Z M 73.546875 102.058594 L 68.191406 102.058594 C 67.496094 102.058594 66.929688 101.492188 66.929688 100.796875 L 66.929688 89.390625 C 66.929688 88.699219 67.496094 88.132812 68.191406 88.132812 L 73.546875 88.132812 C 74.242188 88.132812 74.808594 88.699219 74.808594 89.390625 C 74.808594 90.085938 74.242188 90.652344 73.546875 90.652344 L 69.449219 90.652344 L 69.449219 93.929688 L 73.546875 93.929688 C 74.242188 93.929688 74.808594 94.496094 74.808594 95.191406 C 74.808594 95.882812 74.242188 96.449219 73.546875 96.449219 L 69.449219 96.449219 L 69.449219 99.539062 L 73.546875 99.539062 C 74.242188 99.539062 74.808594 100.105469 74.808594 100.796875 C 74.808594 101.492188 74.242188 102.058594 73.546875 102.058594 Z M 64.28125 102.183594 C 63.589844 102.183594 63.023438 101.617188 63.023438 100.925781 L 63.023438 96.449219 L 58.167969 96.449219 L 58.167969 100.925781 C 58.167969 101.679688 57.601562 102.183594 56.910156 102.183594 C 56.214844 102.183594 55.648438 101.617188 55.648438 100.925781 L 55.648438 89.453125 C 55.648438 88.761719 56.214844 88.195312 56.910156 88.195312 C 57.601562 88.195312 58.167969 88.761719 58.167969 89.453125 L 58.167969 93.929688 L 63.023438 93.929688 L 63.023438 89.453125 C 63.023438 88.761719 63.589844 88.195312 64.28125 88.195312 C 64.976562 88.195312 65.542969 88.761719 65.542969 89.453125 L 65.542969 100.925781 C 65.542969 101.679688 64.976562 102.183594 64.28125 102.183594 Z M 64.28125 102.183594 " fill-opacity="1" fill-rule="evenodd"/></svg>