<svg xmlns="http://www.w3.org/2000/svg" xmlns:xlink="http://www.w3.org/1999/xlink" width="500" zoomAndPan="magnify" viewBox="0 0 375 374.999991" height="500" preserveAspectRatio="xMidYMid meet" version="1.0"><defs><clipPath id="abf67f601f"><path d="M 42.628906 41.625 L 337.378906 41.625 L 337.378906 328.125 L 42.628906 328.125 Z M 42.628906 41.625 " clip-rule="nonzero"/></clipPath><clipPath id="4c71a3deaa"><path d="M 133.8125 154.128906 L 246.3125 154.128906 L 246.3125 271.09375 L 133.8125 271.09375 Z M 133.8125 154.128906 " clip-rule="nonzero"/></clipPath></defs><g clip-path="url(#abf67f601f)"><path fill="#00406d" d="M 277.335938 287.707031 C 255.59375 313.523438 223.78125 328.328125 190.0625 328.328125 C 156.34375 328.328125 124.53125 313.523438 102.789062 287.707031 C 101.484375 286.15625 101.679688 283.839844 103.230469 282.535156 C 104.777344 281.234375 107.09375 281.429688 108.398438 282.976562 C 128.746094 307.128906 158.507812 320.984375 190.054688 320.984375 C 221.605469 320.984375 251.371094 307.136719 271.714844 282.976562 C 273.023438 281.421875 275.335938 281.226562 276.882812 282.535156 C 278.441406 283.84375 278.644531 286.15625 277.335938 287.707031 Z M 84.3125 182.261719 C 84.707031 182.398438 85.101562 182.457031 85.496094 182.457031 C 87.023438 182.457031 88.449219 181.492188 88.96875 179.96875 C 98.015625 153.285156 117.753906 130.84375 143.105469 118.402344 C 144.921875 117.507812 145.671875 115.3125 144.78125 113.488281 C 143.886719 111.667969 141.683594 110.914062 139.867188 111.8125 C 112.773438 125.105469 91.683594 149.09375 82.011719 177.609375 C 81.371094 179.527344 82.398438 181.609375 84.3125 182.261719 Z M 237.015625 118.402344 C 262.367188 130.84375 282.101562 153.285156 291.148438 179.96875 C 291.667969 181.5 293.09375 182.457031 294.625 182.457031 C 295.015625 182.457031 295.414062 182.398438 295.804688 182.261719 C 297.726562 181.613281 298.753906 179.527344 298.097656 177.609375 C 288.425781 149.085938 267.339844 125.105469 240.246094 111.8125 C 238.425781 110.921875 236.226562 111.671875 235.332031 113.488281 C 234.445312 115.304688 235.199219 117.507812 237.015625 118.402344 Z M 150.652344 125.839844 L 150.652344 112.851562 C 150.652344 96.054688 163.761719 81.8125 180.5 80.429688 C 181.773438 80.324219 183.015625 80.890625 183.773438 81.929688 L 190.0625 90.566406 L 196.355469 81.929688 C 197.109375 80.894531 198.351562 80.324219 199.628906 80.429688 C 216.367188 81.820312 229.476562 96.058594 229.476562 112.851562 L 229.476562 125.839844 C 229.476562 127.867188 227.832031 129.511719 225.808594 129.511719 L 154.324219 129.511719 C 152.296875 129.511719 150.652344 127.871094 150.652344 125.839844 Z M 157.992188 122.171875 L 165.804688 122.171875 L 165.804688 109.878906 C 165.804688 107.855469 167.453125 106.210938 169.476562 106.210938 C 171.5 106.210938 173.148438 107.855469 173.148438 109.878906 L 173.148438 122.171875 L 206.976562 122.171875 L 206.976562 109.878906 C 206.976562 107.855469 208.621094 106.210938 210.648438 106.210938 C 212.671875 106.210938 214.316406 107.855469 214.316406 109.878906 L 214.316406 122.171875 L 222.128906 122.171875 L 222.128906 112.851562 C 222.128906 100.527344 213.007812 89.972656 201.019531 87.992188 L 193.027344 98.960938 C 192.335938 99.910156 191.238281 100.472656 190.0625 100.472656 C 188.886719 100.472656 187.785156 99.910156 187.09375 98.960938 L 179.105469 87.992188 C 167.113281 89.972656 157.992188 100.527344 157.992188 112.851562 Z M 337.496094 259.527344 L 337.496094 272.515625 C 337.496094 274.539062 335.851562 276.1875 333.824219 276.1875 L 262.347656 276.1875 C 260.324219 276.1875 258.675781 274.539062 258.675781 272.515625 L 258.675781 259.527344 C 258.675781 242.730469 271.785156 228.488281 288.523438 227.105469 C 289.804688 227 291.039062 227.570312 291.796875 228.605469 L 298.09375 237.242188 L 304.382812 228.605469 C 305.132812 227.570312 306.375 227 307.652344 227.105469 C 324.386719 228.488281 337.496094 242.730469 337.496094 259.527344 Z M 330.15625 259.527344 C 330.15625 247.203125 321.035156 236.648438 309.042969 234.667969 L 301.054688 245.636719 C 300.363281 246.582031 299.261719 247.144531 298.085938 247.144531 C 296.910156 247.144531 295.808594 246.582031 295.121094 245.636719 L 287.128906 234.667969 C 275.140625 236.648438 266.019531 247.195312 266.019531 259.527344 L 266.019531 268.84375 L 273.828125 268.84375 L 273.828125 256.550781 C 273.828125 254.523438 275.476562 252.878906 277.5 252.878906 C 279.527344 252.878906 281.171875 254.523438 281.171875 256.550781 L 281.171875 268.839844 L 315 268.839844 L 315 256.550781 C 315 254.523438 316.648438 252.878906 318.671875 252.878906 C 320.695312 252.878906 322.34375 254.523438 322.34375 256.550781 L 322.34375 268.839844 L 330.15625 268.839844 Z M 298.085938 188.289062 C 308.253906 188.289062 316.523438 196.558594 316.523438 206.726562 C 316.523438 216.894531 308.253906 225.164062 298.085938 225.164062 C 287.917969 225.164062 279.648438 216.894531 279.648438 206.726562 C 279.648438 196.558594 287.917969 188.289062 298.085938 188.289062 Z M 298.085938 195.628906 C 291.96875 195.628906 286.988281 200.609375 286.988281 206.726562 C 286.988281 212.84375 291.96875 217.824219 298.085938 217.824219 C 304.203125 217.824219 309.183594 212.84375 309.183594 206.726562 C 309.183594 200.609375 304.203125 195.628906 298.085938 195.628906 Z M 117.777344 276.1875 L 46.300781 276.1875 C 44.273438 276.1875 42.628906 274.539062 42.628906 272.515625 L 42.628906 259.527344 C 42.628906 242.730469 55.738281 228.488281 72.476562 227.105469 C 73.753906 227 74.992188 227.570312 75.75 228.605469 L 82.039062 237.242188 L 88.332031 228.605469 C 89.085938 227.570312 90.328125 227 91.605469 227.105469 C 108.34375 228.488281 121.453125 242.734375 121.453125 259.527344 L 121.453125 272.515625 C 121.449219 274.539062 119.800781 276.1875 117.777344 276.1875 Z M 114.105469 259.527344 C 114.105469 247.203125 104.984375 236.648438 92.996094 234.667969 L 85.003906 245.636719 C 84.3125 246.582031 83.210938 247.144531 82.039062 247.144531 C 80.863281 247.144531 79.761719 246.582031 79.070312 245.636719 L 71.082031 234.667969 C 59.089844 236.640625 49.96875 247.195312 49.96875 259.527344 L 49.96875 268.84375 L 57.78125 268.84375 L 57.78125 256.550781 C 57.78125 254.523438 59.425781 252.878906 61.453125 252.878906 C 63.476562 252.878906 65.121094 254.523438 65.121094 256.550781 L 65.121094 268.839844 L 98.953125 268.839844 L 98.953125 256.550781 C 98.953125 254.523438 100.597656 252.878906 102.625 252.878906 C 104.648438 252.878906 106.292969 254.523438 106.292969 256.550781 L 106.292969 268.839844 L 114.105469 268.839844 Z M 63.597656 206.726562 C 63.597656 196.558594 71.871094 188.289062 82.039062 188.289062 C 92.207031 188.289062 100.476562 196.558594 100.476562 206.726562 C 100.476562 216.894531 92.207031 225.164062 82.039062 225.164062 C 71.871094 225.164062 63.597656 216.894531 63.597656 206.726562 Z M 70.941406 206.726562 C 70.941406 212.84375 75.921875 217.824219 82.039062 217.824219 C 88.15625 217.824219 93.136719 212.84375 93.136719 206.726562 C 93.136719 200.609375 88.15625 195.628906 82.039062 195.628906 C 75.921875 195.628906 70.941406 200.609375 70.941406 206.726562 Z M 171.625 60.058594 C 171.625 49.890625 179.894531 41.621094 190.0625 41.621094 C 200.230469 41.621094 208.5 49.890625 208.5 60.058594 C 208.5 70.226562 200.230469 78.496094 190.0625 78.496094 C 179.894531 78.496094 171.625 70.226562 171.625 60.058594 Z M 178.964844 60.058594 C 178.964844 66.175781 183.945312 71.15625 190.0625 71.15625 C 196.179688 71.15625 201.160156 66.175781 201.160156 60.058594 C 201.160156 53.941406 196.179688 48.960938 190.0625 48.960938 C 183.945312 48.960938 178.964844 53.941406 178.964844 60.058594 Z M 145.886719 180.152344 L 155.949219 170.089844 C 158.074219 167.964844 161.320312 167.625 163.84375 169.25 L 171.398438 174.132812 C 172.542969 173.601562 173.703125 173.117188 174.882812 172.683594 L 176.773438 163.890625 C 177.40625 160.957031 179.945312 158.90625 182.949219 158.90625 L 197.183594 158.90625 C 200.1875 158.90625 202.726562 160.957031 203.355469 163.890625 L 205.246094 172.683594 C 206.421875 173.109375 207.589844 173.601562 208.734375 174.132812 L 216.289062 169.25 C 218.808594 167.625 222.058594 167.964844 224.179688 170.089844 L 234.242188 180.152344 C 236.367188 182.277344 236.714844 185.523438 235.082031 188.042969 L 230.199219 195.597656 C 230.730469 196.738281 231.214844 197.90625 231.644531 199.085938 L 240.433594 200.976562 C 243.371094 201.605469 245.421875 204.144531 245.421875 207.148438 L 245.421875 221.386719 C 245.421875 224.390625 243.371094 226.925781 240.433594 227.558594 L 231.644531 229.449219 C 231.214844 230.621094 230.730469 231.792969 230.195312 232.933594 L 235.074219 240.492188 C 236.707031 243.011719 236.359375 246.257812 234.238281 248.382812 L 224.171875 258.445312 C 222.050781 260.566406 218.800781 260.917969 216.28125 259.285156 L 208.726562 254.402344 C 207.589844 254.933594 206.421875 255.417969 205.238281 255.851562 L 203.347656 264.640625 C 202.71875 267.578125 200.179688 269.628906 197.175781 269.628906 L 182.941406 269.628906 C 179.9375 269.628906 177.398438 267.578125 176.769531 264.640625 L 174.878906 255.851562 C 173.703125 255.421875 172.535156 254.933594 171.390625 254.402344 L 163.835938 259.285156 C 161.316406 260.917969 158.066406 260.566406 155.945312 258.445312 L 145.882812 248.382812 C 143.757812 246.257812 143.410156 243.011719 145.042969 240.492188 L 149.925781 232.933594 C 149.390625 231.796875 148.910156 230.628906 148.476562 229.449219 L 139.683594 227.558594 C 136.746094 226.925781 134.699219 224.390625 134.699219 221.386719 L 134.699219 207.148438 C 134.699219 204.144531 136.746094 201.605469 139.691406 200.976562 L 148.480469 199.085938 C 148.910156 197.910156 149.398438 196.742188 149.929688 195.597656 L 145.050781 188.042969 C 143.414062 185.523438 143.765625 182.28125 145.886719 180.152344 Z M 156.789062 198.265625 C 156.195312 199.496094 155.664062 200.773438 155.214844 202.058594 C 154.480469 204.152344 152.75 205.675781 150.585938 206.140625 L 142.046875 207.976562 L 142.046875 220.554688 L 150.585938 222.386719 C 152.75 222.851562 154.480469 224.382812 155.214844 226.476562 C 155.667969 227.757812 156.195312 229.039062 156.789062 230.269531 C 157.753906 232.269531 157.609375 234.574219 156.402344 236.441406 L 151.660156 243.777344 L 160.558594 252.671875 L 167.890625 247.929688 C 169.757812 246.722656 172.0625 246.578125 174.058594 247.542969 C 175.292969 248.136719 176.566406 248.667969 177.851562 249.121094 C 179.945312 249.855469 181.472656 251.585938 181.9375 253.753906 L 183.773438 262.289062 L 196.351562 262.289062 L 198.1875 253.746094 C 198.652344 251.582031 200.179688 249.84375 202.273438 249.117188 C 203.558594 248.664062 204.835938 248.136719 206.066406 247.542969 C 208.066406 246.578125 210.371094 246.722656 212.238281 247.929688 L 219.574219 252.671875 L 228.46875 243.777344 L 223.726562 236.441406 C 222.523438 234.574219 222.382812 232.269531 223.339844 230.269531 C 223.933594 229.03125 224.46875 227.757812 224.914062 226.476562 C 225.648438 224.382812 227.378906 222.851562 229.546875 222.386719 L 238.078125 220.554688 L 238.078125 207.976562 L 229.539062 206.140625 C 227.375 205.675781 225.640625 204.144531 224.90625 202.054688 C 224.457031 200.769531 223.929688 199.492188 223.335938 198.261719 C 222.367188 196.261719 222.515625 193.953125 223.722656 192.09375 L 228.460938 184.757812 L 219.566406 175.863281 L 212.230469 180.605469 C 210.367188 181.808594 208.058594 181.953125 206.058594 180.992188 C 204.824219 180.398438 203.550781 179.863281 202.265625 179.417969 C 200.175781 178.683594 198.644531 176.953125 198.179688 174.789062 L 196.34375 166.253906 L 183.765625 166.253906 L 181.933594 174.792969 C 181.46875 176.960938 179.9375 178.691406 177.84375 179.425781 C 176.5625 179.871094 175.289062 180.402344 174.050781 180.996094 C 172.050781 181.964844 169.746094 181.816406 167.886719 180.613281 L 160.550781 175.871094 L 151.65625 184.765625 L 156.398438 192.101562 C 157.609375 193.960938 157.753906 196.265625 156.789062 198.265625 Z M 163.445312 214.265625 C 163.445312 199.589844 175.386719 187.648438 190.0625 187.648438 C 204.738281 187.648438 216.679688 199.589844 216.679688 214.265625 C 216.679688 228.941406 204.738281 240.882812 190.0625 240.882812 C 175.386719 240.882812 163.445312 228.941406 163.445312 214.265625 Z M 170.785156 214.265625 C 170.785156 224.898438 179.4375 233.539062 190.0625 233.539062 C 200.6875 233.539062 209.339844 224.890625 209.339844 214.265625 C 209.339844 203.636719 200.6875 194.988281 190.0625 194.988281 C 179.4375 194.988281 170.785156 203.636719 170.785156 214.265625 Z M 170.785156 214.265625 " fill-opacity="1" fill-rule="nonzero"/></g><g clip-path="url(#4c71a3deaa)"><path fill="#ffffff" d="M 133.8125 154.128906 L 246.3125 154.128906 L 246.3125 271.023438 L 133.8125 271.023438 Z M 133.8125 154.128906 " fill-opacity="1" fill-rule="nonzero"/></g></svg>
