<!DOCTYPE svg PUBLIC "-//W3C//DTD SVG 1.1//EN" "http://www.w3.org/Graphics/SVG/1.1/DTD/svg11.dtd">
<!-- Uploaded to: SVG Find, www.svgrepo.com, Transformed by: SVG Find Mixer Tools -->
<svg fill="#0a4773" width="800px" height="800px" version="1.1" viewBox="144 144 512 512" xmlns="http://www.w3.org/2000/svg">
<g id="SVGRepo_bgCarrier" stroke-width="0"/>
<g id="SVGRepo_tracerCarrier" stroke-linecap="round" stroke-linejoin="round"/>
<g id="SVGRepo_iconCarrier"> <path d="m626.12 498.32-22.945-47.434c-0.83984-1.7383-2.6016-2.8438-4.5352-2.8477h-106.64v-93.637h16.379c1.3359 0 2.6172-0.53125 3.5625-1.4766 0.94531-0.94531 1.4766-2.2266 1.4766-3.5625v-35.77c0-1.3359-0.53125-2.6172-1.4766-3.5625-0.94531-0.94531-2.2266-1.4766-3.5625-1.4766h-216.77c-2.7812 0-5.0391 2.2578-5.0391 5.0391v35.77c0 1.3359 0.53125 2.6172 1.4766 3.5625 0.94531 0.94531 2.2266 1.4766 3.5625 1.4766h16.379v93.648h-106.64c-1.9297 0-3.6914 1.1055-4.5352 2.8477l-22.945 47.422c-0.75391 1.5625-0.65234 3.4023 0.26562 4.8672 0.92188 1.4688 2.5352 2.3633 4.2656 2.3633h17.914v91.34c0 1.3359 0.52734 2.6172 1.4727 3.5625 0.94531 0.94531 2.2266 1.4766 3.5625 1.4766h397.29c1.3359 0 2.6172-0.53125 3.5625-1.4766 0.94531-0.94531 1.4766-2.2266 1.4766-3.5625v-91.34h17.91c1.7344 0 3.3438-0.89453 4.2656-2.3633 0.92188-1.4648 1.0234-3.3047 0.26953-4.8672zm-329.49-179.7h206.71v25.695h-206.69zm-92.113 139.51h103.47v37.348h-121.55zm1.8789 47.422 101.59 0.003906v86.301h-27.398v-27.547c0.09375-6.2656-2.332-12.305-6.7266-16.766-4.3984-4.4609-10.402-6.9727-16.664-6.9727-6.2656 0-12.27 2.5117-16.668 6.9727-4.3945 4.4609-6.8203 10.5-6.7266 16.766v27.547h-27.414zm37.477 86.301 0.003906-27.543c-0.070312-3.5781 1.3008-7.0312 3.8086-9.5859 2.5039-2.5547 5.9297-3.9922 9.5078-3.9922 3.5781 0 7.0078 1.4375 9.5117 3.9922 2.5039 2.5547 3.8789 6.0078 3.8086 9.5859v27.547zm74.195-237.45h163.86v237.45h-53.402l-0.003906-44.906c0-10.191-5.4336-19.605-14.258-24.703-8.8242-5.0938-19.699-5.0938-28.523 0-8.8242 5.0977-14.258 14.512-14.258 24.703v44.906h-53.402zm63.48 237.45v-44.906c0-6.5898 3.5156-12.68 9.2188-15.977 5.707-3.293 12.738-3.293 18.445 0 5.707 3.2969 9.2227 9.3867 9.2227 15.977v44.906zm147.93 0v-27.547c-0.070313-3.5781 1.3008-7.0312 3.8047-9.5859 2.5078-2.5547 5.9336-3.9922 9.5117-3.9922s7.0039 1.4375 9.5117 3.9922c2.5039 2.5547 3.875 6.0078 3.8047 9.5859v27.547zm64.113 0h-27.398v-27.547c0.09375-6.2656-2.332-12.305-6.7266-16.766-4.3984-4.4609-10.402-6.9727-16.668-6.9727-6.2617 0-12.266 2.5117-16.664 6.9727-4.3984 4.4609-6.8203 10.5-6.7305 16.766v27.547h-27.406v-86.301h101.6zm5.0391-96.379h-106.63v-37.348h103.47l18.07 37.348zm-232.29-130.03h-34.422c-2.7812 0-5.0352 2.2539-5.0352 5.0391v46.652c0 1.3359 0.53125 2.6172 1.4727 3.5625 0.94531 0.94531 2.2266 1.4766 3.5625 1.4766h34.422c1.3359 0 2.6172-0.53125 3.5625-1.4766 0.94531-0.94531 1.4766-2.2266 1.4766-3.5625v-46.652c0-1.3359-0.53125-2.6172-1.4766-3.5625-0.94531-0.94531-2.2266-1.4766-3.5625-1.4766zm-5.0391 46.656h-24.344v-36.582h24.344zm72.348 10.078h34.422c1.3359 0 2.6172-0.53125 3.5625-1.4766 0.94531-0.94531 1.4766-2.2266 1.4766-3.5625v-46.656c0-1.3359-0.53125-2.6172-1.4766-3.5625-0.94531-0.94531-2.2266-1.4766-3.5625-1.4766h-34.422c-2.7812 0-5.0391 2.2539-5.0391 5.0391v46.652c0 1.3359 0.53125 2.6172 1.4766 3.5625 0.94531 0.94531 2.2266 1.4766 3.5625 1.4766zm5.0391-46.656h24.344v36.574h-24.344zm-55.902 46.652h34.422-0.003907c1.3359 0 2.6211-0.53125 3.5625-1.4766 0.94531-0.94531 1.4766-2.2266 1.4766-3.5625v-46.652c0-1.3359-0.53125-2.6172-1.4766-3.5625-0.94141-0.94531-2.2266-1.4766-3.5625-1.4766h-34.418c-2.7812 0-5.0391 2.2539-5.0391 5.0391v46.652c0 1.3359 0.53125 2.6172 1.4766 3.5625 0.94531 0.94531 2.2266 1.4766 3.5625 1.4766zm5.0391-46.656h24.344v36.578h-24.344zm-21.484 66.418h-34.422c-2.7812 0-5.0352 2.2578-5.0352 5.0391v46.652c0 1.3359 0.53125 2.6172 1.4727 3.5625 0.94531 0.94531 2.2266 1.4766 3.5625 1.4766h34.422c1.3359 0 2.6172-0.53125 3.5625-1.4766 0.94531-0.94531 1.4766-2.2266 1.4766-3.5625v-46.652c0-1.3359-0.53125-2.6172-1.4766-3.5625s-2.2266-1.4766-3.5625-1.4766zm-5.0391 46.652h-24.344v-36.578l24.344 0.003906zm72.348 10.078h34.422c1.3359 0 2.6172-0.53125 3.5625-1.4766 0.94531-0.94531 1.4766-2.2266 1.4766-3.5625v-46.652c0-1.3359-0.53125-2.6172-1.4766-3.5625-0.94531-0.94531-2.2266-1.4766-3.5625-1.4766h-34.422c-2.7812 0-5.0391 2.2578-5.0391 5.0391v46.652c0 1.3359 0.53125 2.6172 1.4766 3.5625 0.94531 0.94531 2.2266 1.4766 3.5625 1.4766zm5.0391-46.652h24.344v36.578l-24.344-0.003907zm-55.922 46.652h34.422-0.003906c1.3359 0 2.6172-0.53125 3.5625-1.4766 0.94531-0.94531 1.4766-2.2266 1.4766-3.5625v-46.652c0-1.3359-0.53125-2.6172-1.4766-3.5625s-2.2266-1.4766-3.5625-1.4766h-34.398c-2.7812 0-5.0391 2.2578-5.0391 5.0391v46.652c0 1.3359 0.53125 2.6172 1.4766 3.5625 0.94531 0.94531 2.2266 1.4766 3.5625 1.4766zm5.0391-46.652h24.344v36.578l-24.324-0.003907zm-186.89-206.68-3.4883 20.324c-0.32422 1.8906 0.45312 3.8047 2.0078 4.9297 1.5508 1.1289 3.6094 1.2773 5.3086 0.37891l18.246-9.5977 18.254 9.5977c1.6992 0.89453 3.7539 0.74609 5.3047-0.38281 1.5547-1.125 2.332-3.0352 2.0078-4.9258l-3.4883-20.324 14.766-14.395c1.375-1.3359 1.8711-3.3398 1.2773-5.1641-0.59375-1.8281-2.1719-3.1562-4.0703-3.4297l-20.402-2.9609-9.125-18.488-0.003907-0.003906c-0.94141-1.5977-2.6602-2.582-4.5195-2.582-1.8555 0-3.5742 0.98437-4.5156 2.582l-9.125 18.488-20.402 2.9609-0.003906 0.003906c-1.8984 0.27344-3.4766 1.6016-4.0703 3.4297-0.59375 1.8242-0.097656 3.8281 1.2734 5.1641zm12.504-16.359c1.6406-0.23828 3.0625-1.2695 3.793-2.7578l5.7773-11.707 5.7812 11.68c0.73438 1.4922 2.1523 2.5234 3.7969 2.7617l12.922 1.875-9.3555 9.1133c-1.1875 1.1562-1.7305 2.8281-1.4492 4.4648l2.2109 12.871-11.559-6.082c-1.4648-0.76953-3.2188-0.76953-4.6875 0l-11.562 6.082 2.207-12.871c0.28125-1.6367-0.25781-3.3047-1.4492-4.4648l-9.3555-9.0938zm76 16.359-3.4883 20.324c-0.32422 1.8906 0.45312 3.8047 2.0078 4.9297 1.5508 1.1289 3.6094 1.2773 5.3086 0.37891l18.246-9.5977 18.254 9.5977c1.6992 0.89453 3.7539 0.74609 5.3086-0.38281 1.5508-1.125 2.3281-3.0352 2.0039-4.9258l-3.4883-20.324 14.766-14.395c1.375-1.3359 1.8711-3.3398 1.2773-5.1641-0.59375-1.8281-2.1719-3.1562-4.0703-3.4297l-20.402-2.9609-9.125-18.488-0.003906-0.003906c-0.94141-1.5977-2.6602-2.582-4.5156-2.582-1.8594 0-3.5781 0.98437-4.5195 2.582l-9.125 18.488-20.402 2.9609-0.003907 0.003906c-1.8984 0.27734-3.4727 1.6055-4.0664 3.4297s-0.097656 3.8281 1.2773 5.1641zm12.504-16.359c1.6406-0.23828 3.0625-1.2695 3.793-2.7578l5.7773-11.707 5.7812 11.68c0.73047 1.4883 2.1523 2.5234 3.793 2.7617l12.922 1.875-9.3516 9.1133h0.003906c-1.1914 1.1562-1.7344 2.8281-1.4531 4.4648l2.2109 12.871-11.551-6.0625c-1.4688-0.76562-3.2188-0.76562-4.6875 0l-11.586 6.082 2.2109-12.871c0.28125-1.6367-0.26172-3.3047-1.4492-4.4648l-9.3516-9.1133zm76 16.359-3.4883 20.324c-0.32031 1.8906 0.45312 3.8008 2.0078 4.9258 1.5508 1.1289 3.6055 1.2773 5.3047 0.38281l18.254-9.6016 18.254 9.5977h-0.003906c1.6992 0.89453 3.7539 0.74609 5.3086-0.38281 1.5508-1.125 2.3281-3.0352 2.0039-4.9258l-3.4883-20.32 14.762-14.395c1.375-1.3359 1.8711-3.3398 1.2773-5.1641s-2.168-3.1523-4.0664-3.4297l-20.402-2.9609-9.1133-18.496c-0.94141-1.6016-2.6602-2.582-4.5195-2.582-1.8555 0-3.5742 0.98047-4.5156 2.582l-9.125 18.488-20.402 2.9609-0.003906 0.003907c-1.8984 0.27344-3.4766 1.6016-4.0703 3.4258s-0.097656 3.8281 1.2773 5.168zm12.504-16.363c1.6406-0.23828 3.0625-1.2734 3.793-2.7617l5.7812-11.707 5.7773 11.688c0.73438 1.4883 2.1523 2.5234 3.793 2.7617l12.922 1.875-9.3516 9.1133h0.003906c-1.1914 1.1562-1.7344 2.8281-1.4531 4.4648l2.2109 12.871-11.562-6.082c-1.4648-0.76562-3.2148-0.76562-4.6836 0l-11.562 6.1016 2.2109-12.871c0.28125-1.6367-0.26172-3.3047-1.4492-4.4648l-9.3516-9.1133zm76 16.363-3.4883 20.324c-0.32031 1.8906 0.45703 3.8008 2.0078 4.9258 1.5508 1.1289 3.6055 1.2773 5.3047 0.38281l18.254-9.5977 18.246 9.5977c1.6992 0.89844 3.7578 0.75 5.3086-0.37891 1.5547-1.125 2.332-3.0391 2.0078-4.9297l-3.4883-20.324 14.762-14.395c1.375-1.3359 1.8711-3.3398 1.2773-5.1641-0.58984-1.8242-2.168-3.1523-4.0664-3.4297l-20.402-2.9609-9.125-18.488v-0.003906c-0.94531-1.5977-2.6641-2.582-4.5195-2.582-1.8594 0-3.5781 0.98437-4.5195 2.582l-9.125 18.488-20.402 2.9609v0.003906c-1.9023 0.27344-3.4805 1.6016-4.0742 3.4297-0.59375 1.8242-0.097656 3.8281 1.2773 5.1641zm12.504-16.359c1.6445-0.23828 3.0625-1.2695 3.793-2.7578l5.7773-11.707 5.7812 11.68c0.73438 1.4883 2.1523 2.5234 3.793 2.7617l12.922 1.875-9.3516 9.1133h0.003907c-1.1914 1.1562-1.7344 2.8281-1.4531 4.4648l2.2109 12.871-11.586-6.082c-1.4688-0.76562-3.2188-0.76562-4.6836 0l-11.586 6.082 2.2109-12.871h-0.003907c0.28125-1.6367-0.26172-3.3086-1.4492-4.4648l-9.3125-9.0938zm76 16.359-3.4883 20.324h0.003906c-0.32422 1.8906 0.45313 3.8008 2.0039 4.9258 1.5508 1.1289 3.6055 1.2773 5.3047 0.38281l18.254-9.5977 18.246 9.5977c1.6992 0.89844 3.7578 0.75 5.3125-0.37891 1.5508-1.125 2.3281-3.0391 2.0039-4.9297l-3.4883-20.324 14.766-14.395h0.003906c1.375-1.3359 1.8672-3.3398 1.2734-5.1641-0.59375-1.8281-2.1719-3.1562-4.0703-3.4297l-20.402-2.9609-9.125-18.488v-0.003906c-0.94531-1.5977-2.6641-2.582-4.5195-2.582-1.8594 0-3.5781 0.98437-4.5195 2.582l-9.125 18.488-20.402 2.9609v0.003906c-1.9023 0.27344-3.4805 1.6016-4.0742 3.4297-0.59375 1.8242-0.097657 3.8281 1.2773 5.1641zm12.5-16.359c1.6445-0.23438 3.0664-1.2695 3.7969-2.7578l5.7773-11.707 5.7812 11.68c0.73438 1.4883 2.1523 2.5234 3.793 2.7617l12.93 1.875-9.3555 9.1133c-1.1875 1.1602-1.7305 2.8281-1.4453 4.4648l2.207 12.871-11.586-6.082h-0.003906c-1.4688-0.76562-3.2188-0.76562-4.6914 0l-11.559 6.082 2.207-12.871h0.003906c0.28125-1.6367-0.26172-3.3047-1.4492-4.4648l-9.3555-9.1133z"/> </g>
</svg>