<svg xmlns="http://www.w3.org/2000/svg" xmlns:xlink="http://www.w3.org/1999/xlink" width="500" zoomAndPan="magnify" viewBox="0 0 375 374.999991" height="500" preserveAspectRatio="xMidYMid meet" version="1.0"><defs><clipPath id="ab5ab8d20d"><path d="M 0 0 L 374.691406 0 L 374.691406 375 L 0 375 Z M 0 0 " clip-rule="nonzero"/></clipPath></defs><g clip-path="url(#ab5ab8d20d)"><path fill="#00406d" d="M 85.195312 337.570312 L 89.625 345.394531 C 89.625 345.402344 89.628906 345.40625 89.632812 345.410156 C 93.558594 352.390625 91.066406 361.300781 84.125 365.222656 L 67.96875 374.378906 C 67.964844 374.382812 67.957031 374.386719 67.953125 374.390625 C 60.96875 378.316406 52.058594 375.828125 48.136719 368.878906 L 0.628906 284.933594 C -3.332031 277.945312 -0.84375 269.027344 6.109375 265.097656 L 22.28125 255.941406 L 22.289062 255.9375 C 29.234375 252.015625 38.148438 254.480469 42.105469 261.429688 L 42.113281 261.441406 L 45.675781 267.738281 L 87.683594 243.417969 C 100.492188 236.011719 113.582031 231.199219 127.648438 235.765625 C 141.238281 240.175781 163.429688 249.675781 186.074219 253.769531 C 186.34375 253.816406 186.605469 253.882812 186.863281 253.96875 C 198.476562 257.726562 205.527344 269.472656 202.359375 281.261719 C 201.941406 282.808594 201.414062 284.261719 200.773438 285.613281 C 202.960938 284.933594 205.105469 283.988281 207.214844 282.757812 L 264.824219 249.207031 C 285.808594 236.980469 299.804688 238.355469 307.726562 243.671875 C 314.582031 248.269531 317.765625 256.121094 317.5625 263.832031 C 317.355469 271.625 313.628906 279.066406 307.519531 282.828125 L 202.988281 347.1875 C 191.90625 354.027344 179.773438 355.632812 167.199219 352.277344 L 167.191406 352.277344 L 93.792969 332.605469 Z M 79.054688 351.359375 L 31.554688 267.433594 C 30.894531 266.277344 29.414062 265.855469 28.257812 266.507812 L 12.085938 275.660156 L 12.082031 275.664062 C 10.929688 276.3125 10.53125 277.792969 11.1875 278.945312 L 11.1875 278.949219 L 58.699219 362.902344 L 58.703125 362.90625 C 59.355469 364.0625 60.839844 364.460938 62 363.8125 L 78.140625 354.664062 L 78.148438 354.660156 C 79.304688 354.007812 79.707031 352.523438 79.054688 351.359375 Z M 79.21875 327.007812 L 89.902344 320.835938 C 91.296875 320.03125 92.953125 319.8125 94.507812 320.230469 L 170.328125 340.550781 C 179.5625 343.011719 188.476562 341.878906 196.613281 336.859375 L 196.617188 336.855469 L 301.152344 272.492188 C 303.984375 270.75 305.332031 267.117188 305.425781 263.511719 C 305.539062 259.238281 303.757812 254.710938 299.238281 252.828125 C 293.296875 250.355469 284.179688 251.976562 270.933594 259.695312 L 213.328125 293.242188 C 204.015625 298.667969 194.261719 300.171875 183.628906 298.476562 C 183.621094 298.476562 183.613281 298.476562 183.605469 298.476562 L 176.464844 297.3125 C 176.464844 297.3125 151.132812 290.664062 137.746094 287.070312 C 134.511719 286.199219 132.59375 282.867188 133.460938 279.632812 C 134.332031 276.398438 137.664062 274.476562 140.898438 275.347656 C 153.953125 278.855469 165.722656 282.703125 178.398438 285.324219 C 184.628906 286.007812 189.203125 283.453125 190.636719 278.113281 L 190.636719 278.109375 C 192.085938 272.71875 188.703125 267.5 183.46875 265.632812 C 160.375 261.386719 137.769531 251.808594 123.902344 247.3125 L 123.898438 247.3125 C 113.234375 243.847656 103.472656 248.304688 93.761719 253.921875 L 51.652344 278.300781 Z M 25.792969 276.09375 C 29.460938 275.546875 32.863281 278.078125 33.410156 281.746094 C 33.933594 285.414062 31.402344 288.839844 27.734375 289.363281 C 24.070312 289.910156 20.664062 287.355469 20.117188 283.6875 C 19.59375 280.019531 22.125 276.617188 25.792969 276.09375 Z M 62.242188 78.628906 C 97.316406 78.628906 125.746094 107.058594 125.746094 142.132812 C 125.746094 177.207031 97.316406 205.636719 62.242188 205.636719 C 27.164062 205.636719 -1.261719 177.207031 -1.261719 142.132812 C -1.261719 107.058594 27.164062 78.628906 62.242188 78.628906 Z M 105.0625 170.515625 C 110.460938 162.382812 113.605469 152.625 113.605469 142.132812 C 113.605469 113.761719 90.613281 90.765625 62.242188 90.765625 C 33.871094 90.765625 10.875 113.761719 10.875 142.132812 C 10.875 152.625 14.019531 162.382812 19.417969 170.515625 C 23.878906 159.472656 32.480469 150.546875 43.292969 145.667969 C 38.714844 140.921875 35.890625 134.472656 35.890625 127.394531 C 35.890625 112.894531 47.742188 101.042969 62.242188 101.042969 C 76.738281 101.042969 88.59375 112.894531 88.59375 127.394531 C 88.59375 134.472656 85.769531 140.921875 81.1875 145.667969 C 92.003906 150.546875 100.605469 159.472656 105.0625 170.515625 Z M 28.855469 181.171875 C 37.835938 188.859375 49.496094 193.5 62.242188 193.5 C 74.988281 193.5 86.648438 188.859375 95.625 181.171875 C 92.550781 165.539062 78.769531 153.746094 62.242188 153.746094 C 45.714844 153.746094 31.933594 165.539062 28.855469 181.171875 Z M 62.242188 141.609375 C 70.0625 141.609375 76.457031 135.214844 76.457031 127.394531 C 76.457031 119.574219 70.0625 113.179688 62.242188 113.179688 C 54.421875 113.179688 48.027344 119.574219 48.027344 127.394531 C 48.027344 135.214844 54.421875 141.609375 62.242188 141.609375 Z M 202.863281 10.542969 C 206.375 11.601562 209.769531 13.007812 213.003906 14.746094 L 219.511719 11.851562 C 221.808594 10.832031 224.492188 11.332031 226.269531 13.105469 L 237.253906 24.089844 C 239.027344 25.863281 239.527344 28.546875 238.511719 30.839844 C 238.511719 30.839844 235.628906 37.351562 235.625 37.351562 C 237.367188 40.589844 238.777344 43.992188 239.835938 47.515625 L 246.46875 50.070312 C 248.8125 50.96875 250.359375 53.222656 250.359375 55.730469 L 250.359375 71.269531 C 250.359375 73.78125 248.8125 76.03125 246.46875 76.933594 C 246.46875 76.933594 239.832031 79.488281 239.832031 79.488281 C 238.769531 83 237.359375 86.394531 235.625 89.628906 L 238.511719 96.148438 C 239.527344 98.441406 239.027344 101.121094 237.253906 102.894531 L 226.269531 113.878906 C 224.496094 115.652344 221.8125 116.152344 219.519531 115.136719 C 219.519531 115.136719 213.011719 112.253906 213.011719 112.253906 C 209.78125 113.992188 206.378906 115.402344 202.859375 116.460938 L 200.308594 123.097656 C 199.40625 125.441406 197.152344 126.988281 194.640625 126.988281 L 179.105469 126.988281 C 176.59375 126.988281 174.34375 125.441406 173.441406 123.097656 C 173.441406 123.097656 170.886719 116.460938 170.886719 116.460938 C 167.367188 115.398438 163.964844 113.984375 160.730469 112.25 L 154.210938 115.136719 C 151.917969 116.152344 149.238281 115.652344 147.464844 113.878906 L 136.480469 102.894531 C 134.703125 101.121094 134.203125 98.433594 135.226562 96.140625 C 135.226562 96.140625 138.117188 89.632812 138.117188 89.632812 C 136.378906 86.40625 134.972656 83.003906 133.90625 79.492188 L 127.261719 76.933594 C 124.917969 76.03125 123.371094 73.78125 123.371094 71.269531 L 123.371094 55.730469 C 123.371094 53.222656 124.917969 50.96875 127.261719 50.070312 C 127.261719 50.070312 133.90625 47.511719 133.90625 47.511719 C 134.972656 43.992188 136.378906 40.589844 138.117188 37.355469 L 135.226562 30.847656 C 134.203125 28.550781 134.703125 25.867188 136.480469 24.089844 L 147.464844 13.105469 C 149.238281 11.332031 151.925781 10.832031 154.21875 11.851562 C 154.21875 11.851562 160.730469 14.746094 160.726562 14.746094 C 163.964844 13.007812 167.359375 11.601562 170.875 10.542969 L 173.445312 3.882812 C 174.347656 1.542969 176.597656 0 179.105469 0 L 194.640625 0 C 197.15625 0 199.40625 1.546875 200.308594 3.890625 Z M 192.640625 17.773438 C 192.640625 17.773438 190.472656 12.136719 190.472656 12.136719 L 183.269531 12.136719 L 181.089844 17.78125 C 180.371094 19.648438 178.777344 21.039062 176.832031 21.503906 C 172.390625 22.558594 168.15625 24.3125 164.261719 26.710938 C 162.558594 27.761719 160.445312 27.902344 158.613281 27.089844 C 158.613281 27.089844 153.097656 24.636719 153.097656 24.636719 L 148.007812 29.726562 L 150.460938 35.242188 C 151.277344 37.070312 151.132812 39.183594 150.082031 40.890625 C 147.683594 44.789062 145.925781 49.027344 144.855469 53.488281 C 144.390625 55.429688 143 57.015625 141.136719 57.734375 L 135.511719 59.898438 L 135.511719 67.101562 L 141.136719 69.269531 C 142.996094 69.984375 144.386719 71.570312 144.855469 73.511719 C 145.925781 77.953125 147.679688 82.207031 150.078125 86.085938 C 151.132812 87.792969 151.277344 89.910156 150.460938 91.746094 L 148.007812 97.261719 L 153.101562 102.355469 L 158.621094 99.910156 C 160.445312 99.101562 162.550781 99.242188 164.25 100.285156 C 168.148438 102.671875 172.382812 104.441406 176.84375 105.5 C 178.792969 105.960938 180.386719 107.355469 181.109375 109.222656 L 183.273438 114.847656 L 190.476562 114.847656 L 192.640625 109.222656 C 193.359375 107.355469 194.953125 105.964844 196.902344 105.5 C 201.339844 104.445312 205.585938 102.695312 209.460938 100.296875 C 211.164062 99.242188 213.277344 99.097656 215.109375 99.910156 L 220.628906 102.355469 L 225.726562 97.257812 L 223.28125 91.738281 C 222.476562 89.914062 222.613281 87.808594 223.65625 86.109375 C 226.042969 82.210938 227.816406 77.972656 228.875 73.527344 C 229.335938 71.582031 230.730469 69.988281 232.597656 69.269531 L 238.222656 67.101562 L 238.222656 59.898438 L 232.597656 57.734375 C 230.726562 57.015625 229.332031 55.417969 228.871094 53.46875 C 227.816406 49.015625 226.0625 44.78125 223.664062 40.890625 C 222.617188 39.1875 222.472656 37.078125 223.28125 35.25 L 225.726562 29.730469 L 220.632812 24.636719 L 215.117188 27.089844 C 213.289062 27.902344 211.175781 27.761719 209.46875 26.710938 C 205.578125 24.3125 201.339844 22.558594 196.902344 21.503906 C 194.953125 21.039062 193.359375 19.644531 192.640625 17.773438 Z M 186.867188 30.324219 C 205.191406 30.324219 220.050781 45.167969 220.050781 63.492188 C 220.050781 81.820312 205.191406 96.679688 186.867188 96.679688 C 168.539062 96.679688 153.695312 81.820312 153.695312 63.492188 C 153.695312 45.164062 168.539062 30.324219 186.867188 30.324219 Z M 186.867188 42.460938 C 175.246094 42.460938 165.835938 51.871094 165.835938 63.492188 C 165.835938 75.117188 175.242188 84.539062 186.867188 84.539062 C 198.488281 84.539062 207.914062 75.117188 207.914062 63.492188 C 207.914062 51.871094 198.488281 42.460938 186.867188 42.460938 Z M 311.5 205.636719 C 276.53125 205.636719 248.007812 177.113281 248.007812 142.144531 C 248.007812 107.171875 276.53125 78.648438 311.5 78.648438 C 346.472656 78.648438 374.996094 107.171875 374.996094 142.144531 C 374.996094 177.113281 346.472656 205.636719 311.5 205.636719 Z M 311.5 193.5 C 339.785156 193.5 362.855469 170.429688 362.855469 142.144531 C 362.855469 113.859375 339.785156 90.785156 311.5 90.785156 C 283.214844 90.785156 260.144531 113.859375 260.144531 142.144531 C 260.144531 170.429688 283.214844 193.5 311.5 193.5 Z M 305.433594 108.609375 L 305.433594 105.816406 C 305.433594 102.46875 308.152344 99.746094 311.5 99.746094 C 314.851562 99.746094 317.570312 102.46875 317.570312 105.816406 L 317.570312 108.539062 C 324.433594 110.121094 330.742188 114.566406 334.011719 122.359375 C 335.308594 125.449219 333.855469 129.007812 330.765625 130.304688 C 327.679688 131.601562 324.117188 130.144531 322.824219 127.054688 C 319.914062 120.128906 312.136719 118.75 306.5625 120.945312 C 303.433594 122.175781 300.886719 124.667969 301.066406 128.339844 L 301.070312 128.355469 C 301.203125 131.183594 303.074219 132.777344 305.261719 133.84375 C 307.5 134.9375 310.089844 135.542969 312.535156 135.941406 L 312.546875 135.945312 C 322.972656 137.660156 334.351562 142.46875 335.84375 154.859375 C 337.296875 166.882812 327.738281 173.917969 317.570312 175.867188 L 317.570312 178.488281 C 317.570312 181.839844 314.851562 184.558594 311.5 184.558594 C 308.152344 184.558594 305.433594 181.839844 305.433594 178.488281 L 305.433594 175.777344 C 296.847656 173.9375 289.480469 168.230469 287.199219 159.066406 C 286.390625 155.816406 288.371094 152.523438 291.621094 151.714844 C 294.875 150.902344 298.167969 152.886719 298.976562 156.136719 C 300.433594 161.980469 306.382812 164.433594 312.097656 164.289062 L 312.113281 164.289062 C 315.222656 164.21875 318.6875 163.460938 321.234375 161.703125 C 322.929688 160.53125 324.09375 158.785156 323.792969 156.320312 L 323.792969 156.3125 C 323.402344 153.050781 321.152344 151.285156 318.570312 150.117188 C 316.070312 148.980469 313.230469 148.355469 310.582031 147.921875 C 300.359375 146.257812 289.515625 141.050781 288.945312 128.929688 C 288.488281 119.625 294.191406 112.769531 302.121094 109.648438 C 303.191406 109.230469 304.296875 108.878906 305.433594 108.609375 Z M 192.933594 189.847656 C 192.933594 193.199219 190.214844 195.917969 186.867188 195.917969 C 183.515625 195.917969 180.796875 193.199219 180.796875 189.847656 L 180.796875 148.570312 C 180.796875 145.222656 183.515625 142.5 186.867188 142.5 C 190.214844 142.5 192.933594 145.222656 192.933594 148.570312 Z M 208.921875 212.433594 C 206.296875 214.511719 202.476562 214.066406 200.398438 211.441406 C 198.320312 208.8125 198.765625 204.992188 201.390625 202.914062 L 236.863281 174.851562 C 239.488281 172.773438 243.308594 173.21875 245.386719 175.84375 C 247.464844 178.472656 247.019531 182.289062 244.390625 184.367188 Z M 172.339844 202.914062 C 174.96875 204.992188 175.414062 208.8125 173.335938 211.441406 C 171.257812 214.066406 167.4375 214.511719 164.8125 212.433594 L 129.339844 184.367188 C 126.714844 182.289062 126.269531 178.472656 128.347656 175.84375 C 130.425781 173.21875 134.246094 172.773438 136.871094 174.851562 Z M 172.339844 202.914062 " fill-opacity="1" fill-rule="evenodd"/></g></svg>