<svg xmlns="http://www.w3.org/2000/svg" xmlns:xlink="http://www.w3.org/1999/xlink" width="200" zoomAndPan="magnify" viewBox="0 0 150 157.92" height="200" preserveAspectRatio="xMidYMid meet" version="1.0"><defs><clipPath id="0f0654c559"><path d="M 0.0390625 0.84375 L 149 0.84375 L 149 149 L 0.0390625 149 Z M 0.0390625 0.84375 " clip-rule="nonzero"/></clipPath></defs><g clip-path="url(#0f0654c559)"><path fill="#00406d" d="M 12.277344 106.101562 C 13.523438 106.101562 16.175781 106.003906 17.359375 106.222656 C 17.742188 105.523438 18.484375 105.039062 19.339844 105.039062 L 27.089844 105.039062 C 28.261719 105.039062 29.222656 105.945312 29.324219 107.09375 L 35.117188 103.824219 C 37.816406 102.296875 40.863281 102.144531 43.6875 103.398438 L 47.417969 105.042969 L 53.734375 105.042969 L 50.355469 98.171875 C 49.101562 95.628906 50.148438 92.546875 52.683594 91.296875 L 56.398438 89.46875 L 43.359375 89.46875 C 42.117188 89.46875 41.117188 88.457031 41.117188 87.226562 C 41.117188 85.980469 42.117188 84.980469 43.359375 84.980469 L 65.492188 84.980469 L 73.613281 80.976562 C 70.453125 78.796875 70.023438 73.082031 70.550781 69.402344 L 62.128906 69.402344 C 60.890625 69.402344 59.882812 68.402344 59.882812 67.167969 C 59.882812 65.921875 60.894531 64.921875 62.128906 64.921875 L 71.75 64.921875 C 72.765625 62.386719 74.394531 60.007812 76.78125 58.199219 C 76.835938 58.164062 76.882812 58.125 76.9375 58.101562 C 79.332031 56.574219 81.769531 55.066406 84.230469 53.574219 L 84.230469 47.171875 C 79.960938 50.351562 74.664062 52.230469 68.921875 52.230469 C 64.652344 52.230469 60.628906 51.1875 57.078125 49.34375 L 48.257812 49.34375 C 47.019531 49.34375 46.011719 48.34375 46.011719 47.101562 C 46.011719 45.863281 47.023438 44.855469 48.257812 44.855469 L 50.910156 44.855469 C 47.394531 41.386719 44.878906 36.933594 43.804688 31.925781 L 15.070312 31.925781 C 13.542969 31.925781 12.28125 33.179688 12.28125 34.707031 L 12.28125 106.101562 Z M 22.320312 109.53125 C 22.566406 109.902344 22.777344 110.28125 22.953125 110.691406 L 25.015625 109.53125 Z M 23.589844 115.460938 L 23.671875 138.503906 L 30.105469 139.496094 L 30.105469 139.503906 L 56.78125 144.28125 C 58.054688 144.511719 59.253906 144.464844 60.40625 143.855469 L 97.175781 124.667969 C 100.28125 123.046875 101.800781 121.207031 102.082031 119.652344 C 102.246094 118.695312 101.882812 117.921875 101.066406 117.417969 C 99.730469 116.589844 97.414062 116.480469 94.363281 117.644531 L 64.34375 129.136719 C 63.851562 129.332031 63.296875 129.335938 62.773438 129.148438 L 40.847656 121.0625 C 39.6875 120.636719 39.085938 119.351562 39.511719 118.191406 C 39.9375 117.027344 41.230469 116.425781 42.394531 116.851562 L 63.335938 124.574219 C 65.917969 122.941406 66.667969 121.011719 64.480469 118.597656 C 63.402344 117.398438 61.726562 116.261719 59.527344 115.296875 L 41.882812 107.492188 C 40.339844 106.8125 38.777344 106.886719 37.3125 107.710938 Z M 23.164062 142.964844 C 22.042969 145.851562 19.246094 147.84375 16.046875 147.851562 L 8.007812 147.878906 C 3.800781 147.898438 0.355469 144.472656 0.347656 140.257812 L 0.246094 113.792969 C 0.238281 109.613281 3.609375 106.1875 7.789062 106.125 L 7.789062 34.703125 C 7.789062 30.695312 11.058594 27.433594 15.066406 27.433594 L 43.257812 27.433594 C 42.757812 12.898438 54.40625 0.859375 68.925781 0.859375 C 83.117188 0.859375 94.613281 12.363281 94.613281 26.546875 C 94.613281 32.769531 92.402344 38.464844 88.722656 42.917969 L 88.722656 50.902344 C 96.519531 46.332031 105.632812 41.328125 113.507812 37.46875 L 113.527344 37.457031 C 115.207031 36.503906 116.882812 35.585938 118.554688 34.707031 C 119.847656 34.023438 121.117188 33.367188 122.363281 32.753906 C 122.4375 30.609375 123.660156 28.609375 125.671875 27.617188 L 130.929688 25.027344 C 133.867188 23.582031 137.4375 24.792969 138.878906 27.726562 L 148.355469 46.980469 C 149.800781 49.917969 148.582031 53.488281 145.648438 54.929688 L 140.386719 57.519531 C 137.953125 58.71875 135.046875 58.101562 133.300781 56.101562 C 132.472656 56.867188 131.746094 57.726562 131.113281 58.65625 C 130.121094 60.117188 129.378906 61.773438 128.933594 63.546875 C 129.242188 66.082031 128.96875 68.332031 128.132812 70.324219 C 127.21875 72.457031 125.671875 74.210938 123.492188 75.566406 C 123.347656 75.65625 123.199219 75.730469 123.046875 75.785156 C 121.273438 76.558594 119.746094 77.375 118.464844 78.222656 L 126.453125 94.429688 C 127.707031 96.964844 126.660156 100.046875 124.125 101.296875 L 101.113281 112.65625 C 108.125 114.453125 109.332031 123.375 99.25 128.636719 L 62.480469 147.824219 C 60.382812 148.921875 58.28125 149.097656 55.992188 148.6875 L 29.445312 143.925781 L 29.4375 143.9375 Z M 15.921875 110.566406 L 7.882812 110.589844 C 6.152344 110.589844 4.722656 112.035156 4.722656 113.789062 L 4.8125 140.253906 C 4.820312 141.980469 6.265625 143.414062 8.007812 143.40625 L 16.050781 143.378906 C 17.792969 143.378906 19.210938 141.917969 19.210938 140.179688 L 19.121094 113.726562 C 19.121094 112 17.6875 110.566406 15.921875 110.566406 Z M 61.894531 111.445312 C 66.246094 113.5 70.761719 117.242188 70.207031 122.082031 L 77.488281 119.304688 L 85.347656 115.425781 C 85.445312 115.371094 85.539062 115.328125 85.636719 115.28125 L 122.144531 97.277344 C 122.460938 97.121094 122.597656 96.722656 122.4375 96.40625 L 114.980469 81.292969 C 114.117188 82.410156 113.617188 83.570312 113.492188 84.789062 C 113.480469 84.90625 113.464844 85.015625 113.425781 85.125 C 111.835938 91.15625 108.722656 96.707031 102.8125 98.035156 C 102.714844 98.054688 102.605469 98.070312 102.496094 98.082031 L 102.507812 98.089844 C 102.460938 98.089844 102.421875 98.089844 102.386719 98.101562 C 101.496094 107.058594 92.648438 112.925781 84.015625 109.800781 C 80.597656 108.566406 77.648438 106.039062 75.875 102.46875 C 72.394531 95.472656 74.96875 86.824219 82.007812 83.34375 C 85.269531 81.734375 88.867188 81.5625 92.136719 82.570312 C 93.683594 83.042969 95.152344 83.789062 96.480469 84.78125 C 96.917969 81.609375 97.714844 77.835938 98.878906 73.492188 L 87.613281 79.054688 C 87.523438 79.109375 87.417969 79.15625 87.320312 79.199219 L 67.132812 89.15625 C 67.042969 89.210938 66.9375 89.257812 66.839844 89.300781 L 54.65625 95.308594 C 54.339844 95.472656 54.203125 95.871094 54.355469 96.191406 Z M 63.304688 36.902344 C 62.332031 36.136719 62.167969 34.730469 62.933594 33.746094 C 63.695312 32.777344 65.101562 32.613281 66.078125 33.375 C 68.527344 35.300781 72.800781 33.941406 72.800781 31.539062 C 72.800781 26.742188 60.582031 31.230469 60.582031 21.546875 C 60.582031 18.046875 63.332031 15.394531 66.65625 14.578125 L 66.65625 13.230469 C 66.65625 11.976562 67.636719 10.988281 68.964844 10.988281 L 68.964844 10.996094 C 70.226562 10.996094 71.226562 12.03125 71.199219 13.269531 L 71.171875 14.578125 C 72.90625 14.992188 74.496094 15.902344 75.632812 17.230469 C 76.433594 18.167969 76.324219 19.574219 75.386719 20.386719 C 74.453125 21.183594 73.035156 21.074219 72.234375 20.136719 C 70.132812 17.6875 65.0625 18.875 65.0625 21.546875 C 65.0625 26.34375 77.285156 21.851562 77.285156 31.539062 C 77.285156 35.054688 74.507812 37.71875 71.160156 38.515625 L 71.140625 39.851562 C 71.140625 41.097656 70.132812 42.097656 68.898438 42.097656 C 67.652344 42.097656 66.652344 41.097656 66.652344 39.851562 L 66.652344 38.507812 C 65.417969 38.199219 64.277344 37.652344 63.304688 36.902344 Z M 68.925781 5.347656 C 57.222656 5.347656 47.730469 14.832031 47.730469 26.542969 C 47.730469 38.253906 57.222656 47.738281 68.925781 47.738281 C 80.664062 47.738281 90.132812 38.226562 90.132812 26.542969 C 90.132812 14.832031 80.636719 5.347656 68.925781 5.347656 Z M 131.089844 52.082031 L 123.710938 37.082031 C 122.65625 37.609375 121.632812 38.148438 120.632812 38.664062 C 118.96875 39.546875 117.332031 40.4375 115.734375 41.34375 C 115.660156 41.386719 115.589844 41.433594 115.507812 41.480469 C 109.203125 44.625 103.078125 47.867188 97.152344 51.210938 C 94.027344 52.976562 90.902344 54.792969 87.769531 56.671875 C 87.6875 56.738281 87.585938 56.792969 87.496094 56.847656 C 84.796875 58.464844 82.109375 60.125 79.410156 61.832031 C 77.457031 63.34375 76.210938 65.433594 75.523438 67.621094 C 75.496094 67.75 75.457031 67.875 75.414062 67.992188 C 74.921875 69.722656 74.757812 71.5 74.859375 73.089844 C 74.933594 74.34375 75.292969 76.398438 76.011719 77.171875 L 85.363281 72.628906 C 85.453125 72.574219 85.554688 72.53125 85.652344 72.484375 L 102.242188 64.425781 C 104.097656 63.480469 106.011719 65.21875 105.433594 67.070312 C 101.9375 78.207031 100.273438 86.296875 100.644531 90.855469 C 100.734375 91.855469 100.960938 93.78125 102.027344 93.628906 C 103.535156 93.246094 104.851562 92.347656 105.957031 90.941406 C 107.242188 89.332031 108.265625 87.066406 109.0625 84.144531 C 109.382812 81.554688 110.628906 79.191406 112.789062 77.046875 L 114.296875 75.722656 C 116.117188 74.265625 118.421875 72.933594 121.210938 71.707031 C 122.546875 70.851562 123.472656 69.808594 124 68.570312 C 124.5625 67.242188 124.707031 65.644531 124.4375 63.757812 L 124.445312 63.757812 C 124.410156 63.503906 124.410156 63.230469 124.472656 62.964844 C 125.421875 58.679688 127.765625 54.863281 131.089844 52.082031 Z M 132.90625 29.042969 L 127.648438 31.632812 C 126.929688 31.988281 126.632812 32.875 126.972656 33.582031 L 136.453125 52.835938 C 136.808594 53.546875 137.695312 53.851562 138.402344 53.5 L 143.664062 50.910156 C 144.382812 50.554688 144.679688 49.671875 144.335938 48.957031 L 134.859375 29.707031 C 134.507812 28.996094 133.617188 28.6875 132.90625 29.042969 Z M 97.984375 96.335938 C 96.15625 94.222656 96.230469 91.023438 96.148438 90.796875 C 94.820312 88.859375 92.921875 87.496094 90.824219 86.84375 C 85.917969 85.328125 80.839844 88.007812 79.285156 92.90625 C 77.652344 98.054688 80.457031 103.761719 85.542969 105.597656 C 91.859375 107.886719 98.203125 103.117188 97.984375 96.335938 Z M 88.742188 103.726562 C 87.507812 103.652344 86.574219 102.601562 86.644531 101.363281 C 86.71875 100.128906 87.769531 99.183594 89.007812 99.253906 C 89.960938 99.308594 90.597656 98.40625 90.515625 98.238281 C 90.425781 98.074219 89.707031 98.265625 88.992188 98.464844 C 86.492188 99.136719 83.992188 99.816406 82.277344 96.332031 C 81.367188 94.476562 81.867188 92.359375 83.222656 90.867188 C 82.667969 89.707031 83.203125 88.378906 84.332031 87.863281 C 85.429688 87.351562 86.722656 87.808594 87.265625 88.871094 C 87.667969 88.847656 88.074219 88.851562 88.464844 88.90625 C 89.691406 89.070312 90.554688 90.199219 90.390625 91.421875 C 90.226562 92.652344 89.097656 93.503906 87.875 93.339844 C 86.957031 93.210938 86.195312 94.148438 86.292969 94.351562 C 86.378906 94.523438 87.101562 94.332031 87.820312 94.132812 C 90.320312 93.449219 92.816406 92.78125 94.527344 96.257812 C 95.441406 98.128906 94.9375 100.253906 93.5625 101.753906 L 93.574219 101.761719 C 94.082031 102.863281 93.617188 104.171875 92.527344 104.707031 C 91.429688 105.25 90.101562 104.804688 89.546875 103.714844 C 89.269531 103.742188 89.007812 103.742188 88.742188 103.726562 Z M 19.339844 49.339844 C 18.105469 49.339844 17.097656 48.339844 17.097656 47.097656 C 17.097656 45.859375 18.105469 44.851562 19.339844 44.851562 L 37.382812 44.851562 C 38.628906 44.851562 39.628906 45.863281 39.628906 47.097656 C 39.628906 48.339844 38.628906 49.339844 37.382812 49.339844 Z M 19.339844 69.398438 C 18.105469 69.398438 17.097656 68.398438 17.097656 67.164062 C 17.097656 65.921875 18.105469 64.921875 19.339844 64.921875 L 55.082031 64.921875 C 56.324219 64.921875 57.324219 65.921875 57.324219 67.164062 C 57.324219 68.402344 56.324219 69.398438 55.082031 69.398438 Z M 35.765625 84.980469 C 37.007812 84.980469 38.007812 85.980469 38.007812 87.226562 C 38.007812 88.457031 37.007812 89.46875 35.765625 89.46875 L 19.339844 89.46875 C 18.105469 89.46875 17.097656 88.457031 17.097656 87.226562 C 17.097656 85.980469 18.105469 84.980469 19.339844 84.980469 Z M 35.765625 84.980469 " fill-opacity="1" fill-rule="nonzero"/></g></svg>