<svg xmlns="http://www.w3.org/2000/svg" xmlns:xlink="http://www.w3.org/1999/xlink" width="500" zoomAndPan="magnify" viewBox="0 0 375 374.999991" height="500" preserveAspectRatio="xMidYMid meet" version="1.0"><defs><clipPath id="62abb83996"><path d="M 3.785156 6.855469 L 283 6.855469 L 283 307 L 3.785156 307 Z M 3.785156 6.855469 " clip-rule="nonzero"/></clipPath><clipPath id="bd83287ef0"><path d="M 130 99 L 368.285156 99 L 368.285156 371.355469 L 130 371.355469 Z M 130 99 " clip-rule="nonzero"/></clipPath></defs><g clip-path="url(#62abb83996)"><path fill="#00406d" d="M 120.015625 16.4375 C 126.152344 10.300781 134.472656 6.855469 143.148438 6.855469 C 151.824219 6.855469 160.144531 10.300781 166.277344 16.4375 C 187.457031 37.617188 216.183594 49.515625 246.136719 49.515625 L 249.796875 49.515625 C 267.859375 49.515625 282.507812 64.160156 282.507812 82.226562 L 282.507812 116.671875 C 282.507812 199.421875 232.128906 273.835938 155.296875 304.566406 C 147.496094 307.6875 138.796875 307.6875 130.996094 304.566406 C 54.167969 273.835938 3.785156 199.421875 3.785156 116.671875 L 3.785156 82.226562 C 3.785156 64.160156 18.433594 49.515625 36.5 49.515625 L 40.160156 49.515625 C 70.109375 49.515625 98.835938 37.617188 120.015625 16.4375 Z M 143.148438 28.289062 C 140.15625 28.289062 137.285156 29.476562 135.171875 31.589844 C 109.972656 56.789062 75.792969 70.945312 40.160156 70.945312 L 36.5 70.945312 C 30.269531 70.945312 25.21875 75.996094 25.21875 82.226562 L 25.21875 116.671875 C 25.21875 190.65625 70.261719 257.191406 138.957031 284.667969 C 141.648438 285.742188 144.648438 285.742188 147.335938 284.667969 C 216.03125 257.191406 261.074219 190.65625 261.074219 116.671875 L 261.074219 82.226562 C 261.074219 75.996094 256.023438 70.945312 249.796875 70.945312 L 246.136719 70.945312 C 210.5 70.945312 176.320312 56.789062 151.125 31.589844 C 149.007812 29.476562 146.140625 28.289062 143.148438 28.289062 Z M 136.5625 60.402344 C 140.433594 57.390625 145.859375 57.390625 149.730469 60.402344 C 172.640625 78.242188 200.078125 89.386719 228.96875 92.566406 C 234.402344 93.164062 238.515625 97.753906 238.515625 103.21875 L 238.515625 116.671875 C 238.515625 178.230469 202.886719 233.894531 147.714844 259.90625 C 144.824219 261.273438 141.472656 261.273438 138.578125 259.90625 C 83.40625 233.894531 47.777344 178.230469 47.777344 116.671875 L 47.777344 103.21875 C 47.777344 97.753906 51.890625 93.164062 57.324219 92.566406 C 86.214844 89.386719 113.652344 78.242188 136.5625 60.402344 Z M 69.210938 112.558594 L 69.210938 116.671875 C 69.210938 168.179688 98.058594 214.917969 143.148438 238.261719 C 188.234375 214.917969 217.082031 168.179688 217.082031 116.671875 L 217.082031 112.558594 C 190.457031 108.164062 165.171875 97.777344 143.148438 82.203125 C 121.121094 97.777344 95.835938 108.164062 69.210938 112.558594 Z M 69.210938 112.558594 " fill-opacity="1" fill-rule="evenodd"/></g><path fill="#00406d" d="M 179.226562 122.796875 C 184.300781 125.84375 185.945312 132.425781 182.902344 137.5 L 152.335938 188.441406 C 150.746094 191.09375 148.085938 192.929688 145.042969 193.472656 C 142 194.019531 138.867188 193.226562 136.453125 191.292969 L 108.957031 169.296875 C 104.335938 165.601562 103.585938 158.859375 107.285156 154.234375 C 110.980469 149.617188 117.726562 148.867188 122.347656 152.5625 L 140.265625 166.902344 L 164.523438 126.472656 C 167.566406 121.398438 174.152344 119.753906 179.226562 122.796875 Z M 179.226562 122.796875 " fill-opacity="1" fill-rule="evenodd"/><g clip-path="url(#bd83287ef0)"><path fill="#00406d" d="M 277.554688 99.894531 C 294.054688 108.945312 312.707031 113.808594 331.863281 113.808594 L 335.523438 113.808594 C 353.589844 113.808594 368.238281 128.457031 368.238281 146.523438 L 368.238281 180.964844 C 368.238281 263.714844 317.855469 338.128906 241.027344 368.863281 C 233.226562 371.980469 224.523438 371.980469 216.726562 368.863281 C 181.574219 354.800781 151.957031 331.59375 130.171875 302.628906 L 147.296875 289.746094 C 166.777344 315.648438 193.253906 336.390625 224.6875 348.960938 C 227.375 350.039062 230.375 350.039062 233.066406 348.960938 C 301.761719 321.484375 346.804688 254.953125 346.804688 180.964844 L 346.804688 146.523438 C 346.804688 140.292969 341.753906 135.242188 335.523438 135.242188 L 331.863281 135.242188 C 309.074219 135.242188 286.878906 129.453125 267.25 118.6875 Z M 302.8125 176.855469 C 288.976562 174.570312 275.5 170.667969 262.65625 165.261719 L 270.972656 145.507812 C 284.855469 151.355469 299.582031 155.199219 314.699219 156.863281 C 320.132812 157.460938 324.246094 162.046875 324.246094 167.511719 L 324.246094 180.964844 C 324.246094 242.527344 288.617188 298.191406 233.445312 324.203125 C 230.550781 325.566406 227.199219 325.566406 224.304688 324.203125 C 204.902344 315.054688 187.914062 302.238281 174.046875 286.789062 L 189.996094 272.472656 C 200.886719 284.601562 213.996094 294.855469 228.875 302.558594 C 273.964844 279.214844 302.8125 232.472656 302.8125 180.964844 Z M 302.8125 176.855469 " fill-opacity="1" fill-rule="evenodd"/></g></svg>