<svg xmlns="http://www.w3.org/2000/svg" xmlns:xlink="http://www.w3.org/1999/xlink" width="500" zoomAndPan="magnify" viewBox="0 0 375 374.999991" height="500" preserveAspectRatio="xMidYMid meet" version="1.0"><defs><clipPath id="a3d5fb62db"><path d="M 37.5 84 L 337.5 84 L 337.5 243 L 37.5 243 Z M 37.5 84 " clip-rule="nonzero"/></clipPath></defs><path fill="#00406d" d="M 249.007812 324.535156 C 249.007812 330.84375 243.882812 335.972656 237.5625 335.972656 L 137.4375 335.972656 C 131.136719 335.972656 126.007812 330.84375 126.007812 324.535156 L 126.007812 276.167969 C 126.007812 269.851562 131.136719 264.730469 137.4375 264.730469 L 237.5625 264.730469 C 243.882812 264.730469 249.007812 269.851562 249.007812 276.167969 Z M 249.007812 324.535156 " fill-opacity="1" fill-rule="nonzero"/><path fill="#00406d" d="M 212.398438 193.574219 C 212.671875 191.832031 212.820312 190.125 212.820312 188.511719 C 212.820312 173.757812 201.46875 161.746094 187.5 161.746094 C 173.550781 161.746094 162.179688 173.757812 162.179688 188.511719 C 162.179688 190.125 162.347656 191.832031 162.601562 193.574219 C 160.96875 195.542969 160.585938 198.945312 161.867188 202.199219 C 162.984375 204.984375 165.054688 206.90625 167.15625 207.488281 C 171.648438 216.328125 178.855469 223.59375 187.5 223.59375 C 196.144531 223.59375 203.371094 216.335938 207.84375 207.488281 C 209.972656 206.898438 212.015625 204.976562 213.132812 202.199219 C 214.414062 198.945312 214.050781 195.542969 212.398438 193.574219 Z M 212.398438 193.574219 " fill-opacity="1" fill-rule="nonzero"/><path fill="#00406d" d="M 169.773438 67.359375 C 170.539062 69.28125 171.964844 70.613281 173.4375 71.023438 C 176.53125 77.128906 181.507812 82.164062 187.5 82.164062 C 193.492188 82.164062 198.46875 77.136719 201.582031 71.023438 C 203.042969 70.613281 204.460938 69.28125 205.226562 67.359375 C 206.128906 65.109375 205.847656 62.757812 204.730469 61.386719 C 204.917969 60.1875 205.023438 59.007812 205.023438 57.890625 C 205.023438 47.691406 197.164062 39.375 187.5 39.375 C 177.851562 39.375 169.976562 47.691406 169.976562 57.898438 C 169.976562 59.015625 170.089844 60.195312 170.269531 61.398438 C 169.152344 62.757812 168.898438 65.109375 169.773438 67.359375 Z M 169.773438 67.359375 " fill-opacity="1" fill-rule="nonzero"/><path fill="#00406d" d="M 90.039062 67.359375 C 90.804688 69.28125 92.210938 70.613281 93.675781 71.023438 C 96.769531 77.128906 101.765625 82.164062 107.757812 82.164062 C 113.726562 82.164062 118.726562 77.136719 121.820312 71.023438 C 123.28125 70.613281 124.714844 69.28125 125.484375 67.359375 C 126.382812 65.109375 126.101562 62.757812 124.988281 61.386719 C 125.175781 60.1875 125.257812 59.007812 125.257812 57.890625 C 125.257812 47.691406 117.402344 39.375 107.757812 39.375 C 98.089844 39.375 90.234375 47.691406 90.234375 57.898438 C 90.234375 59.015625 90.347656 60.195312 90.523438 61.398438 C 89.390625 62.757812 89.136719 65.109375 90.039062 67.359375 Z M 90.039062 67.359375 " fill-opacity="1" fill-rule="nonzero"/><path fill="#00406d" d="M 249.535156 67.359375 C 250.304688 69.28125 251.710938 70.613281 253.179688 71.023438 C 256.292969 77.128906 261.273438 82.164062 267.261719 82.164062 C 273.234375 82.164062 278.230469 77.136719 281.324219 71.023438 C 282.789062 70.613281 284.222656 69.28125 284.992188 67.359375 C 285.871094 65.109375 285.609375 62.757812 284.492188 61.386719 C 284.679688 60.1875 284.765625 59.007812 284.765625 57.890625 C 284.765625 47.691406 276.910156 39.375 267.261719 39.375 C 257.597656 39.375 249.742188 47.691406 249.742188 57.898438 C 249.742188 59.015625 249.851562 60.195312 250.03125 61.398438 C 248.898438 62.757812 248.632812 65.109375 249.535156 67.359375 Z M 249.535156 67.359375 " fill-opacity="1" fill-rule="nonzero"/><g clip-path="url(#a3d5fb62db)"><path fill="#00406d" d="M 321.347656 130.941406 L 302.464844 130.941406 C 302.023438 109.003906 298.714844 96.992188 298.714844 96.992188 C 297.601562 90.167969 278.222656 84.882812 278.222656 84.882812 L 271.761719 104.664062 C 271.050781 98.757812 270.421875 93.648438 270.335938 92.839844 C 274.492188 91.855469 274.425781 88.800781 273.929688 87.214844 C 273.328125 85.3125 270.085938 84.769531 267.261719 84.882812 C 264.421875 84.769531 261.207031 85.3125 260.597656 87.214844 C 260.082031 88.800781 260.007812 91.847656 264.167969 92.839844 C 264.054688 93.648438 263.457031 98.746094 262.761719 104.664062 L 256.304688 84.882812 C 256.304688 84.882812 236.933594 90.167969 235.789062 96.992188 C 235.789062 96.992188 232.492188 109.003906 232.039062 130.941406 L 222.742188 130.941406 C 222.28125 109.003906 218.992188 96.992188 218.992188 96.992188 C 217.855469 90.167969 198.476562 84.882812 198.476562 84.882812 L 192.019531 104.664062 C 191.324219 98.757812 190.695312 93.648438 190.613281 92.839844 C 194.746094 91.855469 194.679688 88.800781 194.183594 87.214844 C 193.554688 85.3125 190.339844 84.777344 187.5 84.882812 C 184.679688 84.769531 181.445312 85.3125 180.835938 87.214844 C 180.335938 88.800781 180.261719 91.847656 184.40625 92.839844 C 184.3125 93.648438 183.710938 98.746094 183 104.652344 L 176.53125 84.882812 C 176.53125 84.882812 157.164062 90.167969 156.039062 96.992188 C 156.039062 96.992188 152.71875 109.003906 152.269531 130.941406 L 142.96875 130.941406 C 142.527344 109.003906 139.21875 96.992188 139.21875 96.992188 C 138.09375 90.167969 118.726562 84.882812 118.726562 84.882812 L 112.265625 104.664062 C 111.554688 98.757812 110.945312 93.648438 110.859375 92.839844 C 114.992188 91.855469 114.929688 88.800781 114.429688 87.214844 C 113.820312 85.3125 110.578125 84.777344 107.757812 84.882812 C 104.914062 84.777344 101.699219 85.3125 101.089844 87.226562 C 100.574219 88.808594 100.5 91.855469 104.664062 92.851562 C 104.570312 93.65625 103.949219 98.765625 103.238281 104.671875 L 96.777344 84.890625 C 96.777344 84.890625 77.429688 90.179688 76.285156 97.003906 C 76.285156 97.003906 72.984375 109.011719 72.535156 130.949219 L 53.652344 130.949219 C 44.726562 130.941406 37.5 138.179688 37.5 147.074219 L 37.5 226.398438 C 37.5 235.292969 44.726562 242.539062 53.652344 242.539062 L 134.398438 242.539062 C 135.789062 239.90625 138.609375 236.644531 143.992188 233.117188 L 53.652344 233.117188 C 49.941406 233.117188 46.914062 230.109375 46.914062 226.398438 L 46.914062 147.074219 C 46.914062 143.363281 49.929688 140.351562 53.652344 140.351562 L 321.355469 140.351562 C 325.070312 140.351562 328.097656 143.363281 328.097656 147.074219 L 328.097656 226.398438 C 328.097656 230.109375 325.078125 233.117188 321.355469 233.117188 L 231.027344 233.117188 C 236.410156 236.632812 239.210938 239.90625 240.617188 242.539062 L 321.347656 242.539062 C 330.242188 242.539062 337.5 235.304688 337.5 226.398438 L 337.5 147.074219 C 337.5 138.179688 330.253906 130.941406 321.347656 130.941406 Z M 321.347656 130.941406 " fill-opacity="1" fill-rule="nonzero"/></g><path fill="#00406d" d="M 235.238281 259.960938 C 234.046875 252.757812 233.007812 249.007812 233.007812 249.007812 C 231.757812 241.5 215.277344 235.285156 207.460938 232.742188 C 206.230469 229.714844 203.289062 227.570312 199.828125 227.570312 L 175.179688 227.570312 C 171.722656 227.570312 168.789062 229.714844 167.550781 232.742188 C 159.75 235.285156 143.25 241.507812 142.023438 249.007812 C 142.023438 249.007812 140.960938 252.757812 139.789062 259.960938 Z M 235.238281 259.960938 " fill-opacity="1" fill-rule="nonzero"/></svg>