<svg xmlns="http://www.w3.org/2000/svg" xmlns:xlink="http://www.w3.org/1999/xlink" width="500" zoomAndPan="magnify" viewBox="0 0 375 374.999991" height="500" preserveAspectRatio="xMidYMid meet" version="1.0"><defs><clipPath id="3c64e1ab0a"><path d="M 8.4375 3 L 366.9375 3 L 366.9375 375 L 8.4375 375 Z M 8.4375 3 " clip-rule="nonzero"/></clipPath></defs><g clip-path="url(#3c64e1ab0a)"><path fill="#00406d" d="M 351.019531 34.859375 L 301.679688 34.859375 C 299.644531 23.796875 289.964844 15.355469 278.320312 15.355469 L 270.679688 15.355469 C 262.238281 0 238.660156 0 230.144531 15.355469 L 222.503906 15.355469 C 210.859375 15.355469 201.109375 23.796875 199.144531 34.859375 L 149.804688 34.859375 C 141.433594 34.859375 134.59375 41.988281 134.59375 50.722656 L 134.59375 196.050781 C 130.082031 193.429688 104.175781 178.511719 99.082031 175.527344 C 97.261719 174.511719 95.078125 174.511719 93.257812 175.527344 L 11.535156 222.6875 C 9.714844 223.703125 8.625 225.667969 8.625 227.707031 L 8.625 322.019531 C 8.625 324.132812 9.714844 326.023438 11.535156 327.042969 L 93.1875 374.199219 C 94.058594 374.707031 95.078125 375 96.097656 375 C 97.117188 375 98.132812 374.707031 99.007812 374.199219 L 138.816406 351.203125 C 141.582031 354.1875 145.511719 355.933594 149.730469 355.933594 L 351.019531 355.933594 C 359.464844 355.933594 366.304688 348.875 366.304688 340.140625 L 366.304688 50.722656 C 366.375 41.988281 359.464844 34.859375 351.019531 34.859375 Z M 222.503906 27 L 233.855469 27 C 236.332031 27 238.515625 25.46875 239.316406 23.140625 C 241.0625 18.410156 245.425781 15.28125 250.449219 15.28125 C 255.46875 15.28125 259.835938 18.339844 261.582031 23.140625 C 262.457031 25.46875 264.640625 27 267.042969 27 L 278.394531 27 C 285.089844 27 290.472656 32.382812 290.472656 39.078125 L 290.472656 56.253906 L 210.421875 56.253906 C 210.421875 55.527344 210.421875 39.152344 210.421875 39.078125 C 210.421875 32.457031 215.882812 27 222.503906 27 Z M 334.574219 67.898438 L 334.574219 322.894531 L 183.570312 322.894531 C 183.789062 321.65625 183.570312 228.871094 183.644531 227.707031 C 183.644531 225.597656 182.550781 223.703125 180.730469 222.6875 L 166.394531 214.390625 L 166.394531 67.898438 Z M 146.238281 50.722656 C 146.238281 48.394531 147.839844 46.503906 149.804688 46.503906 L 198.78125 46.503906 L 198.78125 56.253906 L 163.628906 56.253906 C 158.753906 56.253906 154.753906 60.328125 154.753906 65.351562 L 154.753906 207.695312 C 153.003906 206.675781 147.910156 203.765625 146.238281 202.820312 Z M 129.425781 206.53125 C 114.363281 216.136719 77.683594 239.714844 63.058594 249.03125 L 58.546875 246.410156 L 124.914062 203.910156 Z M 96.167969 187.316406 L 113.636719 197.433594 L 47.265625 239.933594 L 26.160156 227.78125 Z M 57.601562 259.363281 L 57.601562 282.285156 L 52.941406 279.59375 L 52.941406 256.671875 Z M 90.347656 359.0625 L 20.339844 318.671875 L 20.339844 237.824219 L 41.371094 249.976562 L 41.371094 283.015625 C 41.371094 285.125 42.464844 287.015625 44.28125 288.035156 L 60.582031 297.421875 C 64.296875 299.679688 69.460938 296.695312 69.316406 292.402344 C 69.316406 292.402344 69.316406 266.132812 69.316406 266.132812 L 90.347656 278.285156 Z M 96.167969 268.167969 C 92.605469 266.132812 77.757812 257.542969 74.484375 255.652344 L 140.78125 213.152344 C 144.855469 215.480469 153.515625 220.503906 157.589844 222.902344 C 157.589844 222.902344 166.105469 227.78125 166.105469 227.78125 Z M 101.992188 359.0625 L 101.992188 278.210938 C 111.523438 272.679688 161.375 243.9375 172 237.824219 L 172 318.671875 C 154.605469 328.644531 119.675781 348.875 101.992188 359.0625 Z M 354.734375 340.140625 C 354.734375 342.398438 353.058594 344.289062 351.09375 344.289062 L 150.824219 344.289062 L 152.058594 343.5625 L 167.707031 334.539062 L 337.265625 334.539062 C 342.144531 334.539062 346.144531 330.460938 346.144531 325.515625 L 346.144531 65.351562 C 346.144531 60.328125 342.144531 56.253906 337.265625 56.253906 L 302.042969 56.253906 L 302.042969 46.503906 L 350.949219 46.503906 C 352.914062 46.503906 354.585938 48.394531 354.585938 50.722656 L 354.585938 340.140625 Z M 240.1875 110.542969 L 290.183594 110.542969 C 293.386719 110.542969 296.003906 113.164062 296.003906 116.363281 C 296.003906 119.566406 293.386719 122.1875 290.183594 122.1875 L 240.1875 122.1875 C 236.984375 122.1875 234.367188 119.566406 234.367188 116.363281 C 234.367188 113.164062 236.984375 110.542969 240.1875 110.542969 Z M 240.1875 130.117188 L 310.488281 130.117188 C 313.6875 130.117188 316.308594 132.738281 316.308594 135.941406 C 316.308594 139.140625 313.6875 141.761719 310.488281 141.761719 L 240.1875 141.761719 C 236.984375 141.761719 234.367188 139.140625 234.367188 135.941406 C 234.367188 132.738281 236.984375 130.117188 240.1875 130.117188 Z M 240.1875 179.75 L 290.183594 179.75 C 293.386719 179.75 296.003906 182.371094 296.003906 185.570312 C 296.003906 188.773438 293.386719 191.394531 290.183594 191.394531 L 240.1875 191.394531 C 236.984375 191.394531 234.367188 188.773438 234.367188 185.570312 C 234.367188 182.371094 236.984375 179.75 240.1875 179.75 Z M 310.488281 211.042969 L 240.1875 211.042969 C 236.984375 211.042969 234.367188 208.421875 234.367188 205.21875 C 234.367188 202.019531 236.984375 199.398438 240.1875 199.398438 L 310.488281 199.398438 C 318.199219 199.542969 318.128906 210.96875 310.488281 211.042969 Z M 178.402344 115.636719 C 178.402344 115.855469 178.332031 116 178.332031 116.21875 L 178.332031 136.085938 C 178.332031 143.070312 184.007812 148.75 190.992188 148.75 L 210.859375 148.75 C 217.847656 148.75 223.523438 143.070312 223.523438 136.085938 L 223.523438 116.21875 C 223.523438 115.925781 223.449219 115.636719 223.449219 115.34375 L 240.769531 98.027344 C 246.082031 92.496094 238.003906 84.488281 232.546875 89.800781 C 232.546875 89.800781 217.046875 105.304688 217.046875 105.304688 C 215.226562 104.285156 213.117188 103.628906 210.859375 103.628906 L 190.992188 103.628906 C 188.445312 103.628906 186.117188 104.355469 184.152344 105.667969 C 177.964844 103.121094 173.164062 111.414062 178.402344 115.636719 Z M 207.074219 115.199219 L 200.746094 121.53125 L 194.414062 115.199219 Z M 189.972656 127.28125 C 193.175781 130.046875 197.179688 135.941406 200.746094 135.648438 C 202.273438 135.648438 203.800781 135.066406 204.894531 133.976562 L 211.878906 126.988281 L 211.878906 136.230469 C 211.878906 136.8125 211.441406 137.25 210.859375 137.25 L 190.992188 137.25 C 190.410156 137.25 189.972656 136.8125 189.972656 136.230469 Z M 240.84375 166.722656 C 246.15625 161.191406 238.078125 153.1875 232.621094 158.5 C 232.621094 158.5 216.828125 174.292969 216.828125 174.292969 C 215.082031 173.34375 213.117188 172.761719 210.933594 172.761719 L 191.066406 172.761719 C 188.738281 172.761719 186.554688 173.417969 184.660156 174.582031 C 178.332031 171.453125 173.089844 179.96875 178.550781 184.40625 C 178.550781 184.769531 178.476562 185.0625 178.476562 185.425781 L 178.476562 205.292969 C 178.476562 212.277344 184.152344 217.957031 191.136719 217.957031 L 211.003906 217.957031 C 217.992188 217.957031 223.667969 212.277344 223.667969 205.292969 L 223.667969 185.425781 C 223.667969 184.988281 223.59375 184.550781 223.523438 184.042969 Z M 206.566406 184.480469 L 200.746094 190.300781 L 194.921875 184.480469 Z M 211.878906 205.367188 C 211.878906 205.949219 211.441406 206.382812 210.859375 206.382812 L 190.992188 206.382812 C 190.410156 206.382812 189.972656 205.949219 189.972656 205.367188 L 189.972656 196.050781 C 193.175781 198.816406 197.179688 204.710938 200.746094 204.417969 C 202.273438 204.417969 203.800781 203.835938 204.894531 202.746094 L 211.878906 195.757812 Z M 211.878906 205.367188 " fill-opacity="1" fill-rule="nonzero"/></g></svg>