<svg xmlns="http://www.w3.org/2000/svg" xmlns:xlink="http://www.w3.org/1999/xlink" width="500" zoomAndPan="magnify" viewBox="0 0 375 374.999991" height="500" preserveAspectRatio="xMidYMid meet" version="1.0"><defs><clipPath id="179ef8aeab"><path d="M 117 3.4375 L 254 3.4375 L 254 139 L 117 139 Z M 117 3.4375 " clip-rule="nonzero"/></clipPath></defs><path fill="#00406d" d="M 339.136719 219.28125 L 339.136719 211.777344 C 339.136719 188.410156 320.195312 169.472656 296.828125 169.472656 L 135.46875 169.472656 C 114.253906 169.472656 96.730469 185.152344 93.714844 205.507812 L 45.011719 160.371094 C 44.398438 159.816406 44.027344 158.957031 44.027344 158.09375 L 44.027344 135.648438 C 44.027344 129.871094 41.816406 124.457031 37.757812 120.398438 C 31.546875 114.1875 22.382812 112.464844 14.265625 115.910156 C 6.210938 119.355469 0.984375 127.59375 0.984375 136.878906 L 0.984375 350.9375 C 0.984375 356.71875 3.199219 362.128906 7.257812 366.1875 C 13.46875 372.398438 22.628906 374.183594 30.746094 370.675781 C 38.800781 367.234375 44.027344 358.992188 44.027344 349.707031 L 44.027344 314.042969 C 44.027344 312.320312 45.382812 310.96875 47.105469 310.96875 L 323.761719 310.96875 C 325.484375 310.96875 326.835938 312.320312 326.835938 314.042969 L 326.835938 350.9375 C 326.835938 356.71875 329.050781 362.128906 333.109375 366.1875 C 337.167969 370.246094 342.578125 372.460938 348.113281 372.460938 C 350.941406 372.460938 353.832031 371.90625 356.601562 370.738281 C 364.65625 367.296875 369.882812 359.054688 369.882812 349.769531 L 369.882812 255.808594 C 369.882812 237.542969 356.539062 222.355469 339.136719 219.34375 Z M 357.582031 349.648438 C 357.582031 353.949219 355.246094 357.824219 351.804688 359.363281 C 347.621094 361.144531 343.933594 359.546875 341.839844 357.457031 C 340.121094 355.734375 339.136719 353.398438 339.136719 350.9375 L 339.136719 314.042969 C 339.136719 305.554688 332.25 298.667969 323.761719 298.667969 L 47.042969 298.667969 C 38.554688 298.667969 31.667969 305.554688 31.667969 314.042969 L 31.667969 349.707031 C 31.667969 354.011719 29.332031 357.886719 25.890625 359.425781 C 21.707031 361.207031 18.015625 359.609375 15.925781 357.519531 C 14.203125 355.796875 13.222656 353.460938 13.222656 351 L 13.222656 136.941406 C 13.222656 132.636719 15.558594 128.761719 19 127.226562 C 23.183594 125.441406 26.871094 127.039062 28.964844 129.132812 C 30.683594 130.851562 31.667969 133.191406 31.667969 135.648438 L 31.667969 158.09375 C 31.667969 162.335938 33.453125 166.457031 36.589844 169.347656 L 93.164062 221.742188 L 93.164062 267.800781 L 339.136719 267.800781 L 339.136719 231.824219 C 349.710938 234.59375 357.582031 244.183594 357.582031 255.625 Z M 357.582031 349.648438 " fill-opacity="1" fill-rule="nonzero"/><g clip-path="url(#179ef8aeab)"><path fill="#00406d" d="M 117.757812 71.082031 C 117.757812 108.410156 148.074219 138.722656 185.402344 138.722656 C 222.730469 138.722656 253.046875 108.410156 253.046875 71.082031 C 253.046875 33.753906 222.730469 3.4375 185.402344 3.4375 C 148.074219 3.4375 117.757812 33.816406 117.757812 71.082031 Z M 185.402344 15.738281 C 215.902344 15.738281 240.746094 40.582031 240.746094 71.082031 C 240.746094 101.582031 215.902344 126.425781 185.402344 126.425781 C 154.902344 126.425781 130.058594 101.582031 130.058594 71.082031 C 130.058594 40.582031 154.902344 15.738281 185.402344 15.738281 Z M 185.402344 15.738281 " fill-opacity="1" fill-rule="nonzero"/></g><path fill="#00406d" d="M 173.105469 107.976562 L 197.699219 107.976562 L 197.699219 83.378906 L 222.296875 83.378906 L 222.296875 58.78125 L 197.699219 58.78125 L 197.699219 34.1875 L 173.105469 34.1875 L 173.105469 58.78125 L 148.507812 58.78125 L 148.507812 83.378906 L 173.105469 83.378906 Z M 173.105469 107.976562 " fill-opacity="1" fill-rule="nonzero"/><path fill="#00406d" d="M 111.609375 144.875 C 111.609375 145.679688 111.570312 146.484375 111.492188 147.285156 C 111.414062 148.085938 111.292969 148.882812 111.136719 149.671875 C 110.980469 150.460938 110.785156 151.242188 110.550781 152.015625 C 110.316406 152.785156 110.046875 153.542969 109.738281 154.285156 C 109.429688 155.03125 109.085938 155.757812 108.707031 156.46875 C 108.324219 157.179688 107.914062 157.871094 107.464844 158.539062 C 107.015625 159.210938 106.539062 159.855469 106.027344 160.476562 C 105.515625 161.101562 104.976562 161.695312 104.40625 162.265625 C 103.835938 162.835938 103.238281 163.375 102.617188 163.886719 C 101.996094 164.398438 101.347656 164.878906 100.679688 165.324219 C 100.007812 165.773438 99.320312 166.1875 98.609375 166.566406 C 97.898438 166.945312 97.171875 167.289062 96.425781 167.597656 C 95.683594 167.90625 94.925781 168.179688 94.152344 168.410156 C 93.382812 168.644531 92.601562 168.839844 91.8125 169 C 91.023438 169.15625 90.226562 169.273438 89.425781 169.351562 C 88.621094 169.429688 87.820312 169.472656 87.011719 169.472656 C 86.207031 169.472656 85.402344 169.429688 84.601562 169.351562 C 83.800781 169.273438 83.003906 169.15625 82.214844 169 C 81.425781 168.839844 80.644531 168.644531 79.871094 168.410156 C 79.101562 168.179688 78.34375 167.90625 77.601562 167.597656 C 76.855469 167.289062 76.128906 166.945312 75.417969 166.566406 C 74.707031 166.1875 74.015625 165.773438 73.347656 165.324219 C 72.675781 164.878906 72.03125 164.398438 71.410156 163.886719 C 70.785156 163.375 70.191406 162.835938 69.621094 162.265625 C 69.050781 161.695312 68.511719 161.101562 68 160.476562 C 67.488281 159.855469 67.007812 159.210938 66.5625 158.539062 C 66.113281 157.871094 65.699219 157.179688 65.320312 156.46875 C 64.941406 155.757812 64.597656 155.03125 64.289062 154.285156 C 63.980469 153.542969 63.707031 152.785156 63.476562 152.015625 C 63.242188 151.242188 63.046875 150.460938 62.886719 149.671875 C 62.730469 148.882812 62.613281 148.085938 62.535156 147.285156 C 62.457031 146.484375 62.414062 145.679688 62.414062 144.875 C 62.414062 144.066406 62.457031 143.265625 62.535156 142.460938 C 62.613281 141.660156 62.730469 140.863281 62.886719 140.074219 C 63.046875 139.285156 63.242188 138.503906 63.476562 137.734375 C 63.707031 136.960938 63.980469 136.203125 64.289062 135.460938 C 64.597656 134.714844 64.941406 133.988281 65.320312 133.277344 C 65.699219 132.566406 66.113281 131.878906 66.5625 131.207031 C 67.007812 130.539062 67.488281 129.890625 68 129.269531 C 68.511719 128.648438 69.050781 128.050781 69.621094 127.480469 C 70.191406 126.910156 70.785156 126.371094 71.410156 125.859375 C 72.03125 125.347656 72.675781 124.871094 73.347656 124.421875 C 74.015625 123.972656 74.707031 123.5625 75.417969 123.179688 C 76.128906 122.800781 76.855469 122.457031 77.601562 122.148438 C 78.34375 121.839844 79.101562 121.570312 79.871094 121.335938 C 80.644531 121.101562 81.425781 120.90625 82.214844 120.75 C 83.003906 120.59375 83.800781 120.472656 84.601562 120.394531 C 85.402344 120.316406 86.207031 120.277344 87.011719 120.277344 C 87.820312 120.277344 88.621094 120.316406 89.425781 120.394531 C 90.226562 120.472656 91.023438 120.59375 91.8125 120.75 C 92.601562 120.90625 93.382812 121.101562 94.152344 121.335938 C 94.925781 121.570312 95.683594 121.839844 96.425781 122.148438 C 97.171875 122.457031 97.898438 122.800781 98.609375 123.179688 C 99.320312 123.5625 100.007812 123.972656 100.679688 124.421875 C 101.347656 124.871094 101.996094 125.347656 102.617188 125.859375 C 103.238281 126.371094 103.835938 126.910156 104.40625 127.480469 C 104.976562 128.050781 105.515625 128.648438 106.027344 129.269531 C 106.539062 129.890625 107.015625 130.539062 107.464844 131.207031 C 107.914062 131.878906 108.324219 132.566406 108.707031 133.277344 C 109.085938 133.988281 109.429688 134.714844 109.738281 135.460938 C 110.046875 136.203125 110.316406 136.960938 110.550781 137.734375 C 110.785156 138.503906 110.980469 139.285156 111.136719 140.074219 C 111.292969 140.863281 111.414062 141.660156 111.492188 142.460938 C 111.570312 143.265625 111.609375 144.066406 111.609375 144.875 Z M 111.609375 144.875 " fill-opacity="1" fill-rule="nonzero"/></svg>