<svg xmlns="http://www.w3.org/2000/svg" xmlns:xlink="http://www.w3.org/1999/xlink" width="500" zoomAndPan="magnify" viewBox="0 0 375 374.999991" height="500" preserveAspectRatio="xMidYMid meet" version="1.0"><defs><clipPath id="f454169993"><path d="M 53.671875 107 L 313 107 L 313 375 L 53.671875 375 Z M 53.671875 107 " clip-rule="nonzero"/></clipPath></defs><path fill="#00406d" d="M 261.53125 88.832031 C 257.507812 95.195312 253.460938 101.53125 249.390625 107.847656 C 243.824219 104.269531 237.296875 102.257812 230.492188 102.257812 C 226.933594 102.257812 223.378906 102.820312 219.964844 103.917969 C 202.820312 109.390625 192.714844 125.742188 195.382812 143.679688 C 196.855469 153.667969 202.914062 162.160156 211.359375 167.421875 C 205.882812 175.914062 200.433594 184.355469 194.9375 192.777344 C 192.832031 196.003906 189.839844 196.378906 186.609375 194.320312 C 173.046875 185.644531 159.457031 176.964844 145.9375 168.195312 C 142.148438 165.738281 141.84375 163.070312 144.554688 158.882812 C 161.910156 131.730469 179.335938 104.597656 196.714844 77.488281 C 201.324219 70.308594 205.835938 63.101562 210.492188 55.96875 C 213.417969 51.5 215.871094 51.035156 220.386719 53.933594 C 233.320312 62.167969 246.253906 70.445312 259.167969 78.75 C 264.03125 81.863281 264.59375 84.011719 261.53125 88.832031 " fill-opacity="1" fill-rule="nonzero"/><path fill="#00406d" d="M 226.820312 44.554688 C 232.597656 35.691406 238.746094 26.308594 244.851562 16.929688 C 247.425781 12.976562 249.882812 8.976562 252.5 5.070312 C 255.308594 0.839844 257.484375 0.207031 261.597656 2.78125 C 270.746094 8.511719 279.773438 14.382812 288.824219 20.230469 C 292.265625 22.449219 292.894531 25.398438 290.71875 28.8125 C 282.113281 42.378906 273.433594 55.921875 264.898438 69.277344 C 252.242188 61.042969 239.847656 53 226.820312 44.554688 " fill-opacity="1" fill-rule="nonzero"/><path fill="#00406d" d="M 141.398438 178.367188 C 154.308594 186.625 166.683594 194.53125 179.617188 202.789062 C 175.335938 209.265625 170.988281 216.003906 166.472656 222.621094 C 164.554688 225.429688 161.699219 225.945312 158.871094 224.167969 C 149.351562 218.203125 139.878906 212.167969 130.5 206.015625 C 127.550781 204.074219 126.875 201.242188 128.839844 198.109375 C 133.023438 191.46875 137.28125 184.824219 141.398438 178.367188 " fill-opacity="1" fill-rule="nonzero"/><g clip-path="url(#f454169993)"><path fill="#00406d" d="M 230.910156 152.617188 C 222.210938 152.757812 215.449219 146.464844 215.3125 138.089844 C 215.125 129.484375 221.273438 122.910156 229.835938 122.699219 C 238.605469 122.511719 244.78125 128.40625 244.96875 137.296875 C 245.179688 145.597656 238.792969 152.5 230.910156 152.617188 Z M 290.953125 354.777344 C 285.316406 349.792969 279.210938 345.351562 272.757812 341.375 C 269.109375 339.105469 265.273438 337.046875 261.414062 335.128906 C 260.21875 334.542969 259.027344 333.933594 257.761719 333.351562 C 265.410156 326.707031 273.363281 320.789062 279.65625 313.515625 C 312.824219 275.296875 321.265625 232.164062 303.210938 184.402344 C 294.859375 162.441406 281.058594 144.59375 262.019531 130.722656 C 260.101562 129.34375 258.441406 127.074219 257.367188 124.898438 C 250.933594 111.496094 235.753906 104.738281 221.625 109.179688 C 207.078125 113.8125 198.585938 127.613281 200.855469 142.863281 C 202.984375 157.058594 216.105469 167.5625 231.308594 167.492188 C 234.023438 167.421875 237.671875 167.492188 239.449219 169.082031 C 262.417969 189.640625 272.96875 215.113281 266.464844 245.777344 C 257.25 289.425781 218.375 315.292969 174.378906 307.925781 C 161.699219 305.75 150.238281 300.558594 140.484375 291.085938 C 144.53125 291.085938 148.507812 291.203125 152.554688 291.015625 C 160.789062 290.757812 165.628906 286.242188 165.628906 279.085938 C 165.558594 271.578125 160.578125 267.0625 152.15625 267.0625 C 140.160156 266.992188 128.136719 266.992188 116.136719 266.992188 C 99.671875 266.992188 83.226562 266.921875 66.785156 267.0625 C 59.277344 267.132812 53.5 272.558594 53.5 279.203125 C 53.5 285.914062 58.550781 290.617188 66.316406 291.015625 C 70.363281 291.203125 74.480469 290.828125 78.457031 291.273438 C 80.304688 291.484375 82.621094 292.792969 83.554688 294.265625 C 92.328125 309 103.925781 320.929688 117.867188 330.683594 C 118.734375 331.339844 119.574219 331.945312 120.582031 332.742188 C 119.132812 333.398438 117.65625 334.144531 116.253906 334.800781 C 110.289062 337.769531 104.582031 341.09375 99.085938 344.8125 C 96.417969 346.660156 93.777344 348.601562 91.25 350.589844 C 89.871094 351.710938 88.398438 353.046875 86.945312 354.308594 C 85.894531 355.21875 84.421875 355.96875 84.234375 357.417969 C 84.023438 359.21875 84.28125 361.253906 84.234375 363.125 C 84.234375 367.03125 84.164062 370.960938 84.164062 374.9375 L 294.25 374.9375 L 294.25 358.214844 C 294.207031 358.097656 294.207031 357.957031 294.136719 357.886719 C 293.386719 356.554688 292.078125 355.828125 290.953125 354.777344 " fill-opacity="1" fill-rule="nonzero"/></g></svg>