<svg xmlns="http://www.w3.org/2000/svg" xmlns:xlink="http://www.w3.org/1999/xlink" width="500" zoomAndPan="magnify" viewBox="0 0 375 374.999991" height="500" preserveAspectRatio="xMidYMid meet" version="1.0"><defs><clipPath id="b360898da9"><path d="M 37.5 37.5 L 337.5 37.5 L 337.5 337.5 L 37.5 337.5 Z M 37.5 37.5 " clip-rule="nonzero"/></clipPath></defs><g clip-path="url(#b360898da9)"><path fill="#3b5998" d="M 92.972656 37.5 C 92.15625 37.5 91.339844 37.539062 90.527344 37.621094 C 89.714844 37.699219 88.90625 37.820312 88.105469 37.980469 C 87.304688 38.140625 86.511719 38.335938 85.730469 38.574219 C 84.949219 38.8125 84.179688 39.085938 83.425781 39.398438 C 82.671875 39.710938 81.933594 40.058594 81.214844 40.445312 C 80.492188 40.832031 79.792969 41.25 79.113281 41.703125 C 78.433594 42.15625 77.777344 42.644531 77.148438 43.164062 C 76.515625 43.679688 75.910156 44.230469 75.332031 44.804688 C 74.753906 45.382812 74.207031 45.988281 73.691406 46.621094 C 73.171875 47.253906 72.683594 47.90625 72.230469 48.585938 C 71.777344 49.265625 71.359375 49.964844 70.972656 50.6875 C 70.585938 51.40625 70.238281 52.144531 69.925781 52.898438 C 69.613281 53.65625 69.339844 54.421875 69.101562 55.203125 C 68.863281 55.988281 68.664062 56.777344 68.507812 57.578125 C 68.347656 58.378906 68.226562 59.1875 68.148438 60 C 68.066406 60.8125 68.027344 61.628906 68.027344 62.445312 C 68.027344 63.261719 68.066406 64.078125 68.148438 64.890625 C 68.226562 65.703125 68.347656 66.511719 68.507812 67.3125 C 68.664062 68.113281 68.863281 68.90625 69.101562 69.6875 C 69.339844 70.46875 69.613281 71.238281 69.925781 71.992188 C 70.238281 72.746094 70.585938 73.484375 70.972656 74.207031 C 71.359375 74.925781 71.777344 75.625 72.230469 76.304688 C 72.683594 76.984375 73.171875 77.640625 73.691406 78.273438 C 74.207031 78.902344 74.753906 79.507812 75.332031 80.085938 C 75.910156 80.664062 76.515625 81.210938 77.148438 81.730469 C 77.777344 82.25 78.433594 82.734375 79.113281 83.1875 C 79.792969 83.640625 80.492188 84.0625 81.214844 84.445312 C 81.933594 84.832031 82.671875 85.179688 83.425781 85.492188 C 84.179688 85.804688 84.949219 86.082031 85.730469 86.320312 C 86.511719 86.554688 87.304688 86.753906 88.105469 86.914062 C 88.90625 87.074219 89.714844 87.191406 90.527344 87.273438 C 91.339844 87.351562 92.15625 87.394531 92.972656 87.394531 C 93.789062 87.394531 94.605469 87.351562 95.417969 87.273438 C 96.230469 87.191406 97.039062 87.074219 97.839844 86.914062 C 98.640625 86.753906 99.433594 86.554688 100.214844 86.320312 C 100.996094 86.082031 101.765625 85.804688 102.519531 85.492188 C 103.273438 85.179688 104.011719 84.832031 104.734375 84.445312 C 105.453125 84.0625 106.152344 83.640625 106.832031 83.1875 C 107.511719 82.734375 108.167969 82.25 108.800781 81.730469 C 109.429688 81.210938 110.035156 80.664062 110.613281 80.085938 C 111.191406 79.507812 111.738281 78.902344 112.257812 78.273438 C 112.773438 77.640625 113.261719 76.984375 113.714844 76.304688 C 114.167969 75.625 114.589844 74.925781 114.972656 74.207031 C 115.359375 73.484375 115.707031 72.746094 116.019531 71.992188 C 116.332031 71.238281 116.609375 70.46875 116.84375 69.6875 C 117.082031 68.90625 117.28125 68.113281 117.441406 67.3125 C 117.601562 66.511719 117.71875 65.703125 117.800781 64.890625 C 117.878906 64.078125 117.917969 63.261719 117.917969 62.445312 C 117.917969 61.628906 117.878906 60.8125 117.800781 60 C 117.71875 59.1875 117.601562 58.378906 117.441406 57.578125 C 117.28125 56.777344 117.082031 55.988281 116.84375 55.203125 C 116.609375 54.421875 116.332031 53.65625 116.019531 52.898438 C 115.707031 52.144531 115.359375 51.40625 114.972656 50.6875 C 114.589844 49.964844 114.167969 49.265625 113.714844 48.585938 C 113.261719 47.90625 112.773438 47.253906 112.257812 46.621094 C 111.738281 45.988281 111.191406 45.382812 110.613281 44.804688 C 110.035156 44.230469 109.429688 43.679688 108.800781 43.164062 C 108.167969 42.644531 107.511719 42.15625 106.832031 41.703125 C 106.152344 41.25 105.453125 40.832031 104.734375 40.445312 C 104.011719 40.058594 103.273438 39.710938 102.519531 39.398438 C 101.765625 39.085938 100.996094 38.8125 100.214844 38.574219 C 99.433594 38.335938 98.640625 38.140625 97.839844 37.980469 C 97.039062 37.820312 96.230469 37.699219 95.417969 37.621094 C 94.605469 37.539062 93.789062 37.5 92.972656 37.5 Z M 261.523438 291.324219 C 259.160156 292.261719 256.875 293.351562 254.660156 294.601562 C 252.445312 295.851562 250.328125 297.242188 248.304688 298.78125 C 246.28125 300.316406 244.371094 301.984375 242.574219 303.785156 C 240.78125 305.582031 239.113281 307.496094 237.582031 309.519531 C 236.046875 311.546875 234.65625 313.667969 233.410156 315.882812 C 232.167969 318.097656 231.078125 320.390625 230.148438 322.753906 C 229.214844 325.117188 228.449219 327.535156 227.847656 330.003906 C 227.246094 332.472656 226.8125 334.972656 226.554688 337.5 L 337.5 337.5 C 337.238281 334.972656 336.808594 332.472656 336.207031 330.003906 C 335.605469 327.535156 334.839844 325.117188 333.90625 322.753906 C 332.976562 320.390625 331.886719 318.097656 330.640625 315.882812 C 329.398438 313.667969 328.007812 311.546875 326.472656 309.519531 C 324.9375 307.496094 323.273438 305.582031 321.476562 303.785156 C 319.683594 301.984375 317.773438 300.316406 315.75 298.78125 C 313.726562 297.242188 311.605469 295.851562 309.394531 294.601562 C 307.179688 293.351562 304.890625 292.261719 302.527344 291.324219 C 301.039062 292.382812 299.480469 293.320312 297.847656 294.136719 C 296.214844 294.953125 294.527344 295.640625 292.789062 296.195312 C 291.046875 296.75 289.277344 297.167969 287.472656 297.449219 C 285.667969 297.730469 283.851562 297.871094 282.027344 297.871094 C 280.199219 297.871094 278.386719 297.730469 276.582031 297.449219 C 274.777344 297.167969 273.003906 296.75 271.265625 296.195312 C 269.527344 295.640625 267.839844 294.953125 266.207031 294.136719 C 264.574219 293.320312 263.011719 292.382812 261.523438 291.324219 Z M 282.027344 237.542969 C 281.210938 237.542969 280.394531 237.582031 279.582031 237.664062 C 278.769531 237.742188 277.960938 237.863281 277.160156 238.023438 C 276.359375 238.183594 275.566406 238.378906 274.785156 238.617188 C 274.003906 238.855469 273.234375 239.128906 272.480469 239.441406 C 271.726562 239.753906 270.988281 240.105469 270.265625 240.488281 C 269.546875 240.875 268.847656 241.292969 268.167969 241.746094 C 267.488281 242.203125 266.832031 242.6875 266.199219 243.207031 C 265.570312 243.722656 264.964844 244.273438 264.386719 244.851562 C 263.808594 245.425781 263.261719 246.03125 262.742188 246.664062 C 262.226562 247.296875 261.738281 247.949219 261.285156 248.628906 C 260.832031 249.308594 260.410156 250.007812 260.027344 250.730469 C 259.640625 251.449219 259.292969 252.1875 258.980469 252.941406 C 258.667969 253.699219 258.390625 254.464844 258.15625 255.246094 C 257.917969 256.03125 257.71875 256.820312 257.558594 257.621094 C 257.398438 258.425781 257.28125 259.230469 257.199219 260.042969 C 257.121094 260.859375 257.082031 261.671875 257.082031 262.488281 C 257.082031 263.304688 257.121094 264.121094 257.199219 264.933594 C 257.28125 265.746094 257.398438 266.554688 257.558594 267.355469 C 257.71875 268.15625 257.917969 268.949219 258.15625 269.730469 C 258.390625 270.511719 258.667969 271.28125 258.980469 272.035156 C 259.292969 272.789062 259.640625 273.527344 260.027344 274.25 C 260.410156 274.96875 260.832031 275.667969 261.285156 276.347656 C 261.738281 277.027344 262.226562 277.683594 262.742188 278.316406 C 263.261719 278.945312 263.808594 279.550781 264.386719 280.128906 C 264.964844 280.707031 265.570312 281.253906 266.199219 281.773438 C 266.832031 282.292969 267.488281 282.777344 268.167969 283.230469 C 268.847656 283.683594 269.546875 284.105469 270.265625 284.488281 C 270.988281 284.875 271.726562 285.222656 272.480469 285.535156 C 273.234375 285.847656 274.003906 286.125 274.785156 286.363281 C 275.566406 286.597656 276.359375 286.796875 277.160156 286.957031 C 277.960938 287.117188 278.769531 287.234375 279.582031 287.316406 C 280.394531 287.394531 281.210938 287.4375 282.027344 287.4375 C 282.84375 287.4375 283.660156 287.394531 284.472656 287.316406 C 285.285156 287.234375 286.09375 287.117188 286.894531 286.957031 C 287.695312 286.796875 288.488281 286.597656 289.269531 286.363281 C 290.050781 286.125 290.820312 285.847656 291.574219 285.535156 C 292.328125 285.222656 293.066406 284.875 293.785156 284.488281 C 294.507812 284.105469 295.207031 283.683594 295.886719 283.230469 C 296.566406 282.777344 297.222656 282.292969 297.851562 281.773438 C 298.484375 281.253906 299.089844 280.707031 299.667969 280.128906 C 300.242188 279.550781 300.792969 278.945312 301.308594 278.316406 C 301.828125 277.683594 302.316406 277.027344 302.769531 276.347656 C 303.222656 275.667969 303.640625 274.96875 304.027344 274.25 C 304.414062 273.527344 304.761719 272.789062 305.074219 272.035156 C 305.386719 271.28125 305.660156 270.511719 305.898438 269.730469 C 306.136719 268.949219 306.335938 268.15625 306.492188 267.355469 C 306.652344 266.554688 306.773438 265.746094 306.851562 264.933594 C 306.933594 264.121094 306.972656 263.304688 306.972656 262.488281 C 306.972656 261.671875 306.933594 260.859375 306.851562 260.042969 C 306.773438 259.230469 306.652344 258.425781 306.492188 257.621094 C 306.335938 256.820312 306.136719 256.03125 305.898438 255.246094 C 305.660156 254.464844 305.386719 253.699219 305.074219 252.941406 C 304.761719 252.1875 304.414062 251.449219 304.027344 250.730469 C 303.640625 250.007812 303.222656 249.308594 302.769531 248.628906 C 302.316406 247.949219 301.828125 247.296875 301.3125 246.664062 C 300.792969 246.03125 300.246094 245.425781 299.667969 244.851562 C 299.089844 244.273438 298.484375 243.722656 297.851562 243.207031 C 297.222656 242.6875 296.566406 242.199219 295.886719 241.746094 C 295.207031 241.292969 294.507812 240.875 293.785156 240.488281 C 293.066406 240.105469 292.328125 239.753906 291.574219 239.441406 C 290.820312 239.128906 290.050781 238.855469 289.269531 238.617188 C 288.488281 238.378906 287.695312 238.183594 286.894531 238.023438 C 286.09375 237.863281 285.285156 237.742188 284.472656 237.664062 C 283.660156 237.582031 282.84375 237.542969 282.027344 237.542969 Z M 187.5 226.554688 C 188.777344 226.554688 190.054688 226.492188 191.328125 226.367188 C 192.601562 226.242188 193.863281 226.054688 195.121094 225.804688 C 196.375 225.554688 197.613281 225.242188 198.835938 224.871094 C 200.0625 224.5 201.265625 224.070312 202.445312 223.582031 C 203.628906 223.09375 204.78125 222.546875 205.910156 221.941406 C 207.039062 221.339844 208.132812 220.683594 209.199219 219.972656 C 210.261719 219.261719 211.289062 218.5 212.277344 217.6875 C 213.265625 216.878906 214.210938 216.019531 215.117188 215.117188 C 216.019531 214.210938 216.878906 213.265625 217.691406 212.277344 C 218.5 211.285156 219.261719 210.261719 219.972656 209.199219 C 220.683594 208.132812 221.339844 207.039062 221.941406 205.910156 C 222.546875 204.78125 223.09375 203.628906 223.582031 202.445312 C 224.070312 201.265625 224.5 200.0625 224.875 198.835938 C 225.246094 197.613281 225.554688 196.375 225.804688 195.117188 C 226.054688 193.863281 226.242188 192.601562 226.367188 191.328125 C 226.492188 190.054688 226.554688 188.777344 226.554688 187.5 C 226.554688 186.222656 226.492188 184.945312 226.367188 183.671875 C 226.242188 182.398438 226.054688 181.136719 225.804688 179.882812 C 225.554688 178.625 225.246094 177.386719 224.875 176.164062 C 224.5 174.9375 224.070312 173.738281 223.582031 172.554688 C 223.09375 171.371094 222.546875 170.21875 221.945312 169.089844 C 221.339844 167.960938 220.683594 166.867188 219.972656 165.800781 C 219.261719 164.738281 218.5 163.714844 217.691406 162.722656 C 216.878906 161.734375 216.019531 160.789062 215.117188 159.882812 C 214.210938 158.980469 213.265625 158.121094 212.277344 157.3125 C 211.289062 156.5 210.261719 155.738281 209.199219 155.027344 C 208.132812 154.316406 207.039062 153.660156 205.910156 153.058594 C 204.78125 152.453125 203.628906 151.90625 202.445312 151.417969 C 201.265625 150.929688 200.0625 150.5 198.835938 150.128906 C 197.613281 149.757812 196.375 149.445312 195.121094 149.195312 C 193.867188 148.945312 192.601562 148.757812 191.328125 148.632812 C 190.054688 148.507812 188.78125 148.445312 187.5 148.445312 C 186.222656 148.445312 184.945312 148.507812 183.671875 148.632812 C 182.398438 148.757812 181.136719 148.945312 179.882812 149.195312 C 178.628906 149.445312 177.386719 149.757812 176.164062 150.128906 C 174.941406 150.5 173.738281 150.929688 172.554688 151.417969 C 171.375 151.90625 170.21875 152.453125 169.089844 153.058594 C 167.960938 153.660156 166.867188 154.316406 165.804688 155.027344 C 164.738281 155.738281 163.714844 156.5 162.726562 157.3125 C 161.734375 158.121094 160.789062 158.980469 159.886719 159.882812 C 158.980469 160.789062 158.121094 161.734375 157.3125 162.722656 C 156.5 163.714844 155.738281 164.738281 155.027344 165.800781 C 154.316406 166.867188 153.660156 167.960938 153.058594 169.089844 C 152.453125 170.21875 151.910156 171.371094 151.417969 172.554688 C 150.929688 173.734375 150.5 174.9375 150.128906 176.164062 C 149.757812 177.386719 149.445312 178.625 149.195312 179.882812 C 148.949219 181.136719 148.761719 182.398438 148.632812 183.671875 C 148.507812 184.945312 148.445312 186.222656 148.445312 187.5 C 148.445312 188.777344 148.507812 190.054688 148.632812 191.328125 C 148.761719 192.601562 148.949219 193.863281 149.195312 195.117188 C 149.445312 196.375 149.757812 197.613281 150.128906 198.835938 C 150.5 200.0625 150.929688 201.261719 151.417969 202.445312 C 151.910156 203.625 152.453125 204.78125 153.058594 205.910156 C 153.660156 207.039062 154.316406 208.132812 155.027344 209.195312 C 155.738281 210.261719 156.5 211.285156 157.3125 212.277344 C 158.121094 213.265625 158.980469 214.210938 159.886719 215.113281 C 160.789062 216.019531 161.734375 216.878906 162.726562 217.6875 C 163.714844 218.5 164.738281 219.261719 165.804688 219.972656 C 166.867188 220.683594 167.960938 221.339844 169.089844 221.941406 C 170.21875 222.546875 171.375 223.089844 172.554688 223.582031 C 173.738281 224.070312 174.9375 224.5 176.164062 224.871094 C 177.386719 225.242188 178.625 225.554688 179.882812 225.804688 C 181.136719 226.054688 182.398438 226.242188 183.671875 226.367188 C 184.945312 226.492188 186.222656 226.554688 187.5 226.554688 Z M 164.734375 191.1875 C 164.5 190.945312 164.292969 190.679688 164.109375 190.394531 C 163.925781 190.113281 163.773438 189.8125 163.648438 189.5 C 163.523438 189.183594 163.433594 188.859375 163.371094 188.527344 C 163.308594 188.195312 163.28125 187.863281 163.285156 187.523438 C 163.289062 187.1875 163.324219 186.851562 163.390625 186.519531 C 163.460938 186.191406 163.5625 185.871094 163.691406 185.558594 C 163.824219 185.246094 163.984375 184.949219 164.171875 184.671875 C 164.359375 184.390625 164.574219 184.128906 164.8125 183.890625 C 165.050781 183.652344 165.308594 183.4375 165.589844 183.25 C 165.871094 183.0625 166.167969 182.902344 166.476562 182.773438 C 166.789062 182.640625 167.109375 182.539062 167.441406 182.472656 C 167.773438 182.402344 168.105469 182.367188 168.445312 182.363281 C 168.78125 182.359375 169.117188 182.386719 169.449219 182.449219 C 169.78125 182.511719 170.105469 182.605469 170.417969 182.726562 C 170.730469 182.851562 171.03125 183.003906 171.316406 183.1875 C 171.601562 183.371094 171.863281 183.578125 172.109375 183.8125 L 181.140625 192.839844 L 202.890625 171.09375 C 203.132812 170.84375 203.394531 170.621094 203.679688 170.421875 C 203.964844 170.226562 204.265625 170.058594 204.585938 169.921875 C 204.902344 169.785156 205.230469 169.683594 205.570312 169.613281 C 205.910156 169.539062 206.253906 169.503906 206.597656 169.5 C 206.945312 169.496094 207.289062 169.527344 207.628906 169.59375 C 207.96875 169.660156 208.300781 169.757812 208.621094 169.886719 C 208.941406 170.019531 209.246094 170.179688 209.53125 170.371094 C 209.820312 170.566406 210.089844 170.78125 210.332031 171.027344 C 210.578125 171.273438 210.796875 171.539062 210.988281 171.828125 C 211.179688 172.117188 211.339844 172.421875 211.472656 172.742188 C 211.605469 173.0625 211.703125 173.390625 211.769531 173.734375 C 211.832031 174.074219 211.863281 174.417969 211.859375 174.761719 C 211.859375 175.109375 211.820312 175.453125 211.75 175.789062 C 211.679688 176.128906 211.574219 176.457031 211.4375 176.777344 C 211.300781 177.09375 211.132812 177.394531 210.9375 177.679688 C 210.742188 177.964844 210.519531 178.230469 210.269531 178.46875 L 184.832031 203.90625 C 184.589844 204.148438 184.324219 204.363281 184.039062 204.554688 C 183.753906 204.742188 183.453125 204.902344 183.136719 205.035156 C 182.820312 205.167969 182.496094 205.265625 182.160156 205.332031 C 181.824219 205.398438 181.484375 205.433594 181.140625 205.433594 C 180.800781 205.433594 180.460938 205.398438 180.125 205.332031 C 179.789062 205.265625 179.460938 205.167969 179.144531 205.035156 C 178.828125 204.902344 178.527344 204.742188 178.242188 204.554688 C 177.960938 204.363281 177.695312 204.148438 177.453125 203.90625 Z M 268.804688 200.761719 L 250.75 200.761719 C 249.09375 208.699219 246.039062 216.058594 241.597656 222.84375 L 254.367188 235.613281 L 235.613281 254.367188 L 222.84375 241.597656 C 216.058594 246.042969 208.699219 249.09375 200.761719 250.75 L 200.761719 268.804688 L 174.238281 268.804688 L 174.238281 250.75 C 166.300781 249.09375 158.941406 246.039062 152.15625 241.597656 L 139.386719 254.367188 L 120.632812 235.613281 L 133.402344 222.84375 C 128.957031 216.058594 125.90625 208.699219 124.25 200.761719 L 106.195312 200.761719 L 106.195312 174.238281 L 124.25 174.238281 C 125.90625 166.300781 128.960938 158.941406 133.402344 152.15625 L 120.632812 139.386719 L 139.386719 120.632812 L 152.15625 133.402344 C 158.941406 128.960938 166.300781 125.90625 174.238281 124.25 L 174.238281 106.195312 L 200.761719 106.195312 L 200.761719 124.25 C 208.699219 125.90625 216.058594 128.957031 222.84375 133.402344 L 235.613281 120.632812 L 254.367188 139.386719 L 241.597656 152.15625 C 246.039062 158.941406 249.09375 166.300781 250.75 174.238281 L 268.804688 174.238281 Z M 187.5 236.988281 C 185.878906 236.988281 184.261719 236.910156 182.648438 236.75 C 181.035156 236.589844 179.433594 236.355469 177.84375 236.039062 C 176.253906 235.722656 174.683594 235.328125 173.132812 234.859375 C 171.582031 234.386719 170.058594 233.84375 168.5625 233.222656 C 167.0625 232.601562 165.601562 231.910156 164.171875 231.144531 C 162.742188 230.382812 161.351562 229.550781 160.003906 228.648438 C 158.65625 227.746094 157.359375 226.785156 156.105469 225.753906 C 154.851562 224.726562 153.652344 223.640625 152.507812 222.492188 C 151.359375 221.347656 150.273438 220.148438 149.246094 218.894531 C 148.214844 217.640625 147.253906 216.34375 146.351562 214.996094 C 145.449219 213.648438 144.617188 212.257812 143.855469 210.828125 C 143.089844 209.398438 142.398438 207.9375 141.777344 206.4375 C 141.15625 204.941406 140.613281 203.417969 140.140625 201.867188 C 139.671875 200.316406 139.277344 198.746094 138.960938 197.15625 C 138.644531 195.566406 138.410156 193.964844 138.25 192.351562 C 138.089844 190.738281 138.011719 189.121094 138.011719 187.5 C 138.011719 185.878906 138.089844 184.261719 138.25 182.648438 C 138.410156 181.035156 138.644531 179.433594 138.960938 177.84375 C 139.277344 176.253906 139.671875 174.683594 140.140625 173.132812 C 140.613281 171.582031 141.15625 170.058594 141.777344 168.5625 C 142.398438 167.0625 143.089844 165.601562 143.855469 164.171875 C 144.617188 162.742188 145.449219 161.351562 146.351562 160.003906 C 147.25 158.65625 148.214844 157.359375 149.246094 156.105469 C 150.273438 154.851562 151.359375 153.652344 152.507812 152.507812 C 153.652344 151.359375 154.851562 150.273438 156.105469 149.246094 C 157.359375 148.214844 158.65625 147.25 160.003906 146.351562 C 161.351562 145.449219 162.742188 144.617188 164.171875 143.855469 C 165.601562 143.089844 167.0625 142.398438 168.5625 141.777344 C 170.058594 141.15625 171.582031 140.613281 173.132812 140.140625 C 174.683594 139.671875 176.253906 139.277344 177.84375 138.960938 C 179.433594 138.644531 181.035156 138.410156 182.648438 138.25 C 184.261719 138.089844 185.878906 138.011719 187.5 138.011719 C 189.121094 138.011719 190.738281 138.089844 192.351562 138.25 C 193.964844 138.410156 195.566406 138.644531 197.15625 138.960938 C 198.746094 139.277344 200.316406 139.671875 201.867188 140.140625 C 203.417969 140.613281 204.941406 141.15625 206.4375 141.777344 C 207.9375 142.398438 209.398438 143.089844 210.828125 143.855469 C 212.257812 144.617188 213.648438 145.449219 214.996094 146.351562 C 216.34375 147.25 217.640625 148.214844 218.894531 149.246094 C 220.148438 150.273438 221.347656 151.359375 222.492188 152.507812 C 223.640625 153.652344 224.726562 154.851562 225.753906 156.105469 C 226.785156 157.359375 227.746094 158.65625 228.648438 160.003906 C 229.550781 161.351562 230.382812 162.742188 231.144531 164.171875 C 231.910156 165.601562 232.601562 167.0625 233.222656 168.5625 C 233.84375 170.058594 234.386719 171.582031 234.859375 173.132812 C 235.328125 174.683594 235.722656 176.253906 236.039062 177.84375 C 236.355469 179.433594 236.589844 181.035156 236.75 182.648438 C 236.910156 184.261719 236.988281 185.878906 236.988281 187.5 C 236.988281 189.121094 236.910156 190.738281 236.75 192.351562 C 236.589844 193.964844 236.355469 195.566406 236.039062 197.15625 C 235.722656 198.742188 235.328125 200.3125 234.855469 201.867188 C 234.386719 203.417969 233.839844 204.941406 233.21875 206.4375 C 232.601562 207.933594 231.90625 209.398438 231.144531 210.828125 C 230.378906 212.257812 229.546875 213.644531 228.648438 214.992188 C 227.746094 216.339844 226.78125 217.640625 225.753906 218.894531 C 224.726562 220.148438 223.636719 221.347656 222.492188 222.492188 C 221.347656 223.636719 220.148438 224.726562 218.894531 225.753906 C 217.640625 226.78125 216.339844 227.746094 214.992188 228.648438 C 213.644531 229.546875 212.257812 230.378906 210.828125 231.144531 C 209.398438 231.90625 207.933594 232.601562 206.4375 233.21875 C 204.941406 233.839844 203.417969 234.386719 201.867188 234.855469 C 200.3125 235.328125 198.742188 235.722656 197.15625 236.039062 C 195.566406 236.355469 193.964844 236.589844 192.351562 236.75 C 190.738281 236.910156 189.121094 236.988281 187.5 236.988281 Z M 302.859375 173.664062 C 302.632812 171.785156 302.363281 169.917969 302.046875 168.054688 C 301.730469 166.191406 301.367188 164.339844 300.960938 162.492188 C 300.554688 160.648438 300.101562 158.816406 299.605469 156.992188 C 299.109375 155.167969 298.566406 153.359375 297.980469 151.5625 C 297.398438 149.765625 296.769531 147.984375 296.097656 146.21875 C 295.425781 144.453125 294.710938 142.703125 293.953125 140.972656 C 293.195312 139.242188 292.398438 137.53125 291.554688 135.839844 C 290.714844 134.144531 289.835938 132.476562 288.910156 130.828125 C 287.988281 129.175781 287.027344 127.550781 286.027344 125.949219 C 285.023438 124.347656 283.984375 122.769531 282.90625 121.21875 C 281.828125 119.667969 280.714844 118.144531 279.558594 116.644531 C 278.40625 115.148438 277.21875 113.679688 275.996094 112.242188 C 274.769531 110.800781 273.511719 109.394531 272.21875 108.015625 C 270.925781 106.636719 269.601562 105.292969 268.242188 103.980469 C 266.882812 102.667969 265.492188 101.386719 264.074219 100.144531 C 262.652344 98.898438 261.203125 97.6875 259.722656 96.511719 C 258.242188 95.339844 256.734375 94.199219 255.199219 93.097656 C 253.664062 92 252.101562 90.9375 250.515625 89.910156 C 248.925781 88.886719 247.316406 87.898438 245.679688 86.953125 C 244.042969 86.007812 242.386719 85.101562 240.707031 84.238281 C 239.027344 83.371094 237.328125 82.546875 235.609375 81.765625 C 233.886719 80.980469 232.152344 80.242188 230.394531 79.542969 C 228.640625 78.847656 226.867188 78.191406 225.078125 77.582031 C 223.292969 76.96875 221.488281 76.402344 219.675781 75.878906 C 217.859375 75.355469 216.03125 74.875 214.191406 74.441406 C 212.355469 74.007812 210.507812 73.617188 208.648438 73.273438 C 206.789062 72.929688 204.925781 72.628906 203.054688 72.378906 C 201.179688 72.125 199.304688 71.917969 197.421875 71.753906 C 195.539062 71.59375 193.652344 71.476562 191.765625 71.40625 C 189.875 71.335938 187.988281 71.3125 186.097656 71.335938 C 184.210938 71.359375 182.320312 71.425781 180.4375 71.542969 C 178.550781 71.65625 176.667969 71.816406 174.789062 72.023438 C 174.449219 72.058594 174.109375 72.0625 173.769531 72.03125 C 173.429688 72 173.09375 71.9375 172.765625 71.839844 C 172.441406 71.742188 172.125 71.613281 171.820312 71.457031 C 171.519531 71.296875 171.234375 71.109375 170.96875 70.894531 C 170.703125 70.679688 170.460938 70.441406 170.242188 70.179688 C 170.023438 69.917969 169.832031 69.636719 169.667969 69.335938 C 169.503906 69.035156 169.371094 68.722656 169.269531 68.394531 C 169.167969 68.070312 169.101562 67.734375 169.066406 67.394531 C 169.027344 67.054688 169.027344 66.714844 169.054688 66.375 C 169.085938 66.035156 169.152344 65.703125 169.246094 65.375 C 169.34375 65.046875 169.472656 64.730469 169.628906 64.429688 C 169.789062 64.125 169.976562 63.839844 170.191406 63.574219 C 170.40625 63.308594 170.644531 63.066406 170.90625 62.847656 C 171.167969 62.628906 171.449219 62.4375 171.75 62.273438 C 172.050781 62.109375 172.363281 61.980469 172.691406 61.875 C 173.015625 61.773438 173.347656 61.707031 173.6875 61.667969 C 175.722656 61.445312 177.757812 61.269531 179.800781 61.144531 C 181.839844 61.019531 183.882812 60.945312 185.929688 60.921875 C 187.972656 60.894531 190.015625 60.917969 192.058594 60.992188 C 194.105469 61.0625 196.144531 61.1875 198.183594 61.359375 C 200.21875 61.53125 202.253906 61.75 204.277344 62.023438 C 206.304688 62.292969 208.324219 62.613281 210.335938 62.980469 C 212.347656 63.347656 214.347656 63.765625 216.339844 64.230469 C 218.332031 64.699219 220.308594 65.210938 222.277344 65.773438 C 224.242188 66.332031 226.195312 66.941406 228.132812 67.597656 C 230.066406 68.253906 231.988281 68.957031 233.890625 69.707031 C 235.792969 70.457031 237.675781 71.25 239.539062 72.089844 C 241.40625 72.929688 243.246094 73.816406 245.070312 74.746094 C 246.890625 75.675781 248.6875 76.648438 250.460938 77.664062 C 252.238281 78.683594 253.984375 79.742188 255.707031 80.84375 C 257.429688 81.945312 259.125 83.085938 260.792969 84.269531 C 262.460938 85.457031 264.097656 86.679688 265.707031 87.941406 C 267.3125 89.203125 268.890625 90.507812 270.4375 91.847656 C 271.980469 93.1875 273.492188 94.5625 274.96875 95.976562 C 276.449219 97.386719 277.890625 98.835938 279.300781 100.320312 C 280.707031 101.800781 282.078125 103.316406 283.414062 104.867188 C 284.75 106.417969 286.042969 107.996094 287.300781 109.609375 C 288.558594 111.222656 289.777344 112.863281 290.957031 114.535156 C 292.136719 116.207031 293.273438 117.902344 294.367188 119.628906 C 295.464844 121.355469 296.519531 123.109375 297.527344 124.886719 C 298.539062 126.664062 299.507812 128.464844 300.429688 130.289062 C 301.355469 132.113281 302.234375 133.957031 303.066406 135.824219 C 303.902344 137.691406 304.691406 139.578125 305.433594 141.484375 C 306.175781 143.390625 306.875 145.3125 307.523438 147.25 C 308.171875 149.1875 308.773438 151.144531 309.328125 153.109375 C 309.882812 155.078125 310.390625 157.058594 310.851562 159.050781 C 311.308594 161.042969 311.71875 163.046875 312.082031 165.058594 C 312.445312 167.074219 312.757812 169.09375 313.019531 171.121094 L 322.25 156.890625 C 322.433594 156.601562 322.644531 156.332031 322.882812 156.082031 C 323.121094 155.835938 323.378906 155.613281 323.660156 155.414062 C 323.945312 155.21875 324.242188 155.050781 324.558594 154.914062 C 324.871094 154.773438 325.199219 154.667969 325.535156 154.597656 C 325.871094 154.523438 326.210938 154.484375 326.554688 154.476562 C 326.898438 154.472656 327.238281 154.5 327.578125 154.5625 C 327.914062 154.621094 328.246094 154.71875 328.5625 154.84375 C 328.882812 154.972656 329.1875 155.128906 329.476562 155.316406 C 329.765625 155.503906 330.03125 155.71875 330.277344 155.957031 C 330.523438 156.199219 330.742188 156.460938 330.9375 156.742188 C 331.132812 157.027344 331.296875 157.328125 331.429688 157.644531 C 331.5625 157.960938 331.667969 158.289062 331.734375 158.625 C 331.804688 158.960938 331.839844 159.300781 331.84375 159.644531 C 331.84375 159.988281 331.8125 160.332031 331.75 160.667969 C 331.683594 161.003906 331.585938 161.332031 331.453125 161.652344 C 331.324219 161.96875 331.164062 162.273438 330.972656 162.558594 L 313.472656 189.539062 C 313.28125 189.894531 313.050781 190.226562 312.777344 190.53125 C 312.507812 190.835938 312.207031 191.105469 311.875 191.339844 C 311.542969 191.574219 311.1875 191.765625 310.808594 191.917969 C 310.429688 192.066406 310.039062 192.171875 309.636719 192.230469 C 309.234375 192.289062 308.828125 192.300781 308.425781 192.265625 C 308.019531 192.230469 307.621094 192.148438 307.238281 192.019531 C 306.851562 191.890625 306.484375 191.71875 306.136719 191.503906 C 305.792969 191.289062 305.476562 191.039062 305.1875 190.75 L 286.5 172.058594 C 286.261719 171.816406 286.050781 171.550781 285.863281 171.265625 C 285.679688 170.980469 285.519531 170.679688 285.394531 170.367188 C 285.265625 170.050781 285.171875 169.726562 285.105469 169.390625 C 285.042969 169.058594 285.011719 168.722656 285.011719 168.382812 C 285.015625 168.039062 285.050781 167.703125 285.117188 167.371094 C 285.183594 167.039062 285.285156 166.714844 285.414062 166.398438 C 285.546875 166.085938 285.707031 165.789062 285.894531 165.503906 C 286.085938 165.222656 286.300781 164.960938 286.542969 164.722656 C 286.78125 164.480469 287.042969 164.265625 287.324219 164.078125 C 287.609375 163.886719 287.90625 163.726562 288.21875 163.59375 C 288.535156 163.464844 288.859375 163.363281 289.191406 163.296875 C 289.523438 163.230469 289.859375 163.195312 290.199219 163.191406 C 290.542969 163.191406 290.878906 163.222656 291.210938 163.285156 C 291.546875 163.351562 291.871094 163.445312 292.1875 163.574219 C 292.5 163.699219 292.800781 163.859375 293.085938 164.042969 C 293.371094 164.230469 293.636719 164.441406 293.878906 164.679688 L 302.863281 173.664062 Z M 72.140625 201.335938 C 72.367188 203.210938 72.636719 205.082031 72.953125 206.941406 C 73.269531 208.804688 73.632812 210.660156 74.039062 212.503906 C 74.445312 214.351562 74.898438 216.183594 75.394531 218.007812 C 75.890625 219.828125 76.433594 221.640625 77.019531 223.4375 C 77.601562 225.234375 78.230469 227.015625 78.902344 228.78125 C 79.574219 230.546875 80.289062 232.292969 81.046875 234.027344 C 81.804688 235.757812 82.601562 237.46875 83.445312 239.160156 C 84.285156 240.851562 85.164062 242.523438 86.085938 244.171875 C 87.007812 245.820312 87.972656 247.445312 88.972656 249.050781 C 89.972656 250.652344 91.015625 252.226562 92.09375 253.78125 C 93.171875 255.332031 94.285156 256.855469 95.4375 258.351562 C 96.589844 259.851562 97.78125 261.316406 99.003906 262.757812 C 100.226562 264.195312 101.488281 265.605469 102.78125 266.984375 C 104.074219 268.359375 105.398438 269.707031 106.757812 271.019531 C 108.117188 272.332031 109.503906 273.609375 110.925781 274.855469 C 112.347656 276.101562 113.796875 277.3125 115.277344 278.488281 C 116.757812 279.660156 118.265625 280.796875 119.800781 281.898438 C 121.335938 283 122.898438 284.0625 124.484375 285.089844 C 126.074219 286.113281 127.683594 287.097656 129.320312 288.046875 C 130.953125 288.992188 132.613281 289.898438 134.292969 290.761719 C 135.972656 291.628906 137.671875 292.453125 139.390625 293.234375 C 141.109375 294.019531 142.847656 294.757812 144.605469 295.457031 C 146.359375 296.152344 148.132812 296.808594 149.921875 297.417969 C 151.707031 298.03125 153.507812 298.597656 155.324219 299.121094 C 157.140625 299.644531 158.96875 300.125 160.804688 300.558594 C 162.644531 300.992188 164.492188 301.382812 166.351562 301.726562 C 168.210938 302.070312 170.074219 302.371094 171.945312 302.621094 C 173.820312 302.875 175.695312 303.082031 177.578125 303.246094 C 179.460938 303.40625 181.347656 303.523438 183.234375 303.59375 C 185.125 303.660156 187.011719 303.6875 188.902344 303.664062 C 190.789062 303.640625 192.679688 303.574219 194.5625 303.457031 C 196.449219 303.34375 198.332031 303.183594 200.210938 302.976562 C 200.550781 302.941406 200.890625 302.9375 201.230469 302.96875 C 201.570312 303 201.90625 303.0625 202.234375 303.160156 C 202.5625 303.257812 202.875 303.386719 203.179688 303.542969 C 203.480469 303.703125 203.765625 303.890625 204.03125 304.105469 C 204.296875 304.320312 204.539062 304.558594 204.757812 304.820312 C 204.976562 305.082031 205.167969 305.363281 205.332031 305.664062 C 205.496094 305.964844 205.628906 306.277344 205.730469 306.605469 C 205.832031 306.929688 205.902344 307.261719 205.9375 307.601562 C 205.972656 307.941406 205.976562 308.285156 205.945312 308.625 C 205.914062 308.964844 205.851562 309.296875 205.753906 309.625 C 205.65625 309.953125 205.53125 310.269531 205.371094 310.570312 C 205.210938 310.875 205.023438 311.160156 204.808594 311.425781 C 204.59375 311.691406 204.355469 311.933594 204.09375 312.152344 C 203.832031 312.371094 203.550781 312.5625 203.25 312.726562 C 202.949219 312.890625 202.636719 313.023438 202.308594 313.125 C 201.984375 313.226562 201.652344 313.292969 201.3125 313.332031 C 199.277344 313.554688 197.242188 313.730469 195.199219 313.855469 C 193.160156 313.980469 191.117188 314.054688 189.070312 314.078125 C 187.027344 314.105469 184.984375 314.082031 182.941406 314.007812 C 180.894531 313.9375 178.855469 313.8125 176.816406 313.640625 C 174.78125 313.46875 172.746094 313.25 170.722656 312.976562 C 168.695312 312.707031 166.675781 312.386719 164.664062 312.019531 C 162.652344 311.652344 160.652344 311.234375 158.660156 310.769531 C 156.667969 310.300781 154.691406 309.789062 152.722656 309.226562 C 150.757812 308.667969 148.804688 308.058594 146.867188 307.402344 C 144.933594 306.746094 143.011719 306.042969 141.109375 305.292969 C 139.207031 304.546875 137.324219 303.75 135.460938 302.910156 C 133.59375 302.070312 131.753906 301.183594 129.929688 300.253906 C 128.109375 299.324219 126.3125 298.351562 124.539062 297.335938 C 122.761719 296.316406 121.015625 295.257812 119.292969 294.15625 C 117.570312 293.054688 115.875 291.914062 114.207031 290.730469 C 112.539062 289.546875 110.902344 288.320312 109.292969 287.058594 C 107.6875 285.796875 106.109375 284.492188 104.566406 283.152344 C 103.019531 281.816406 101.507812 280.4375 100.03125 279.023438 C 98.550781 277.613281 97.109375 276.164062 95.699219 274.679688 C 94.292969 273.199219 92.921875 271.683594 91.585938 270.132812 C 90.25 268.582031 88.957031 267.003906 87.699219 265.390625 C 86.441406 263.777344 85.222656 262.136719 84.042969 260.464844 C 82.863281 258.792969 81.726562 257.097656 80.632812 255.371094 C 79.535156 253.644531 78.480469 251.890625 77.472656 250.113281 C 76.460938 248.335938 75.492188 246.535156 74.570312 244.710938 C 73.644531 242.886719 72.765625 241.042969 71.933594 239.175781 C 71.097656 237.308594 70.308594 235.421875 69.566406 233.515625 C 68.824219 231.609375 68.128906 229.6875 67.476562 227.75 C 66.828125 225.8125 66.226562 223.855469 65.671875 221.890625 C 65.117188 219.921875 64.609375 217.941406 64.148438 215.949219 C 63.691406 213.957031 63.28125 211.953125 62.917969 209.941406 C 62.558594 207.925781 62.242188 205.90625 61.980469 203.878906 L 52.75 218.105469 C 52.5625 218.394531 52.351562 218.660156 52.113281 218.902344 C 51.875 219.148438 51.617188 219.367188 51.335938 219.5625 C 51.054688 219.753906 50.753906 219.917969 50.441406 220.054688 C 50.128906 220.1875 49.804688 220.289062 49.46875 220.363281 C 49.136719 220.433594 48.796875 220.46875 48.457031 220.472656 C 48.117188 220.480469 47.777344 220.449219 47.441406 220.386719 C 47.105469 220.324219 46.777344 220.230469 46.460938 220.105469 C 46.144531 219.976562 45.84375 219.820312 45.554688 219.636719 C 45.269531 219.449219 45.003906 219.238281 44.761719 219 C 44.515625 218.761719 44.296875 218.5 44.101562 218.21875 C 43.910156 217.9375 43.746094 217.640625 43.609375 217.328125 C 43.476562 217.011719 43.371094 216.6875 43.300781 216.355469 C 43.230469 216.019531 43.191406 215.683594 43.1875 215.34375 C 43.183594 215 43.214844 214.664062 43.277344 214.328125 C 43.335938 213.992188 43.433594 213.664062 43.558594 213.347656 C 43.683594 213.03125 43.839844 212.726562 44.027344 212.441406 L 61.527344 185.460938 C 61.71875 185.105469 61.949219 184.773438 62.222656 184.46875 C 62.492188 184.164062 62.792969 183.894531 63.125 183.660156 C 63.457031 183.425781 63.8125 183.234375 64.191406 183.082031 C 64.570312 182.933594 64.960938 182.828125 65.363281 182.769531 C 65.765625 182.707031 66.171875 182.699219 66.574219 182.734375 C 66.980469 182.769531 67.378906 182.851562 67.761719 182.980469 C 68.148438 183.109375 68.515625 183.28125 68.863281 183.496094 C 69.207031 183.710938 69.523438 183.960938 69.8125 184.25 L 88.5 202.941406 C 88.75 203.183594 88.972656 203.445312 89.171875 203.730469 C 89.371094 204.015625 89.539062 204.316406 89.675781 204.636719 C 89.8125 204.953125 89.917969 205.28125 89.988281 205.621094 C 90.0625 205.960938 90.097656 206.304688 90.101562 206.652344 C 90.105469 207 90.074219 207.34375 90.007812 207.683594 C 89.945312 208.023438 89.847656 208.355469 89.714844 208.675781 C 89.585938 208.996094 89.421875 209.300781 89.230469 209.589844 C 89.039062 209.878906 88.820312 210.148438 88.574219 210.390625 C 88.328125 210.636719 88.0625 210.855469 87.773438 211.046875 C 87.484375 211.242188 87.179688 211.402344 86.859375 211.535156 C 86.539062 211.664062 86.207031 211.761719 85.867188 211.828125 C 85.523438 211.894531 85.179688 211.925781 84.835938 211.921875 C 84.488281 211.917969 84.144531 211.878906 83.804688 211.808594 C 83.464844 211.734375 83.136719 211.632812 82.816406 211.492188 C 82.5 211.355469 82.199219 211.1875 81.914062 210.992188 C 81.628906 210.792969 81.363281 210.570312 81.125 210.320312 Z M 72.472656 91.28125 C 70.109375 92.21875 67.820312 93.308594 65.605469 94.558594 C 63.390625 95.804688 61.273438 97.199219 59.25 98.738281 C 57.226562 100.273438 55.316406 101.941406 53.519531 103.742188 C 51.726562 105.539062 50.058594 107.453125 48.527344 109.476562 C 46.992188 111.503906 45.601562 113.625 44.355469 115.839844 C 43.113281 118.054688 42.023438 120.347656 41.09375 122.710938 C 40.160156 125.074219 39.394531 127.492188 38.792969 129.960938 C 38.191406 132.429688 37.761719 134.929688 37.5 137.457031 L 107.804688 137.457031 L 136.707031 108.558594 C 133.660156 104.707031 130.167969 101.320312 126.226562 98.390625 C 122.289062 95.460938 118.039062 93.09375 113.472656 91.28125 C 111.984375 92.339844 110.425781 93.277344 108.792969 94.09375 C 107.160156 94.910156 105.472656 95.597656 103.734375 96.152344 C 101.992188 96.707031 100.222656 97.125 98.417969 97.40625 C 96.613281 97.6875 94.796875 97.828125 92.972656 97.828125 C 91.148438 97.828125 89.332031 97.6875 87.527344 97.40625 C 85.722656 97.125 83.953125 96.707031 82.210938 96.152344 C 80.472656 95.597656 78.785156 94.910156 77.152344 94.09375 C 75.519531 93.277344 73.960938 92.339844 72.472656 91.28125 Z M 72.472656 91.28125 " fill-opacity="1" fill-rule="evenodd"/></g></svg>