<?xml version="1.0" encoding="UTF-8"?>
<!-- Uploaded to: SVG Find, www.svgrepo.com, Generator: SVG Find Mixer Tools -->
<svg fill="#00406d" width="800px" height="800px" version="1.1" viewBox="144 144 512 512" xmlns="http://www.w3.org/2000/svg">
 <path d="m196.8 420.57c0-4.6484 3.8125-8.4648 8.4688-8.4648s8.4648 3.8125 8.4648 8.4648c0 4.6562-3.8086 8.4688-8.4648 8.4688-4.6602 0-8.4688-3.8164-8.4688-8.4688zm406.4-172.97v313.27c0 18.711-15.156 33.867-33.867 33.867l-338.67-0.003906c-18.711 0-33.871-15.156-33.871-33.867v-106.43c0-4.6562 3.8125-8.4688 8.4688-8.4688s8.4648 3.8125 8.4648 8.4688v106.43c0 9.3086 7.6172 16.934 16.938 16.934h338.67c9.3086 0 16.934-7.6211 16.934-16.934l-0.003906-262.47h-372.54v88.301c0 4.6562-3.8086 8.4688-8.4648 8.4688s-8.4688-3.8125-8.4688-8.4688v-139.1c0-18.676 15.191-33.867 33.871-33.867h16.934c0-4.6797 3.7852-8.4688 8.4648-8.4688 4.6797 0 8.4688 3.7891 8.4688 8.4688h16.934c0-4.6797 3.7891-8.4688 8.4648-8.4688 4.6797 0 8.4688 3.7891 8.4688 8.4688h16.934c0-4.6797 3.7891-8.4688 8.4688-8.4688 4.6797 0 8.4648 3.7891 8.4648 8.4688h16.934c0-4.6797 3.7891-8.4688 8.4688-8.4688s8.4648 3.7891 8.4648 8.4688h67.738c0-4.6797 3.7891-8.4688 8.4648-8.4688 4.6797 0 8.4688 3.7891 8.4688 8.4688h16.934c0-4.6797 3.7891-8.4688 8.4688-8.4688 4.6797 0 8.4648 3.7891 8.4648 8.4688h16.934c0-4.6797 3.7891-8.4688 8.4688-8.4688s8.4648 3.7891 8.4648 8.4688h16.938c0-4.6797 3.7852-8.4688 8.4648-8.4688 4.6797 0 8.4688 3.7891 8.4688 8.4688h16.934c18.664 0 33.852 15.188 33.852 33.867zm-389.47 33.871h372.54v-33.871c0-9.3359-7.5977-16.934-16.934-16.934h-16.938v8.4688c0 4.6797-3.7891 8.4648-8.4688 8.4648-4.6797 0-8.4648-3.7852-8.4648-8.4648v-8.4688h-16.938v8.4688c0 4.6797-3.7852 8.4648-8.4648 8.4648-4.6797 0-8.4688-3.7852-8.4688-8.4648v-8.4688h-16.934v8.4688c0 4.6797-3.7852 8.4648-8.4648 8.4648-4.6797 0-8.4688-3.7852-8.4688-8.4648v-8.4688h-16.934v8.4688c0 4.6797-3.7891 8.4648-8.4688 8.4648-4.6758 0-8.4648-3.7852-8.4648-8.4648v-8.4688h-67.73v8.4688c0 4.6797-3.7852 8.4648-8.4648 8.4648-4.6797 0-8.4688-3.7852-8.4688-8.4648v-8.4688h-16.934v8.4688c0 4.6797-3.7852 8.4648-8.4648 8.4648-4.6797 0-8.4688-3.7852-8.4688-8.4648v-8.4688h-16.934v8.4688c0 4.6797-3.7891 8.4648-8.4688 8.4648-4.6758 0-8.4648-3.7852-8.4648-8.4648v-8.4688h-16.934v8.4688c0 4.6797-3.7891 8.4648-8.4688 8.4648s-8.4648-3.7852-8.4648-8.4648v-8.4688h-16.934c-9.3359 0-16.938 7.5977-16.938 16.934zm228.6 143.93c0-14.008 11.395-25.402 25.402-25.402h33.867c14.008 0 25.402 11.395 25.402 25.402v8.4688h16.934c14.008 0 25.402 11.391 25.402 25.398v76.203c0 14.008-11.395 25.402-25.402 25.402l-118.54-0.003906c-14.008 0-25.398-11.395-25.398-25.402v-76.203c0-14.008 11.395-25.398 25.398-25.398h16.934zm16.934 8.4688h50.801v-8.4688c0-4.6719-3.793-8.4648-8.4688-8.4648h-33.867c-4.6719 0-8.4648 3.793-8.4648 8.4648zm84.672 16.93h-118.54c-4.6719 0-8.4648 3.793-8.4648 8.4648v8.4688h135.47v-8.4688c0-4.668-3.7969-8.4648-8.4648-8.4648zm8.4648 33.867h-16.934v8.4688c0 4.6758-3.7891 8.4648-8.4688 8.4648s-8.4688-3.7891-8.4688-8.4648v-8.4688h-67.734v8.4688c0 4.6758-3.7891 8.4648-8.4688 8.4648-4.6758 0-8.4648-3.7891-8.4648-8.4648v-8.4688h-16.934v50.801c0 4.6719 3.793 8.4688 8.4648 8.4688h118.54c4.6719 0 8.4688-3.7969 8.4688-8.4688v-50.801zm-304.8-143.93c4.6562 0 8.4648-3.8125 8.4648-8.4688s-3.8086-8.4688-8.4648-8.4688-8.4688 3.8125-8.4688 8.4688 3.8125 8.4688 8.4688 8.4688zm50.797 0c4.6562 0 8.4688-3.8125 8.4688-8.4688s-3.8125-8.4688-8.4688-8.4688-8.4688 3.8125-8.4688 8.4688 3.8125 8.4688 8.4688 8.4688zm50.805 0c4.6562 0 8.4688-3.8125 8.4688-8.4688s-3.8125-8.4688-8.4688-8.4688-8.4648 3.8125-8.4648 8.4688 3.8086 8.4688 8.4648 8.4688zm50.801 0c4.6562 0 8.4648-3.8125 8.4648-8.4688s-3.8086-8.4688-8.4648-8.4688-8.4688 3.8125-8.4688 8.4688 3.8125 8.4688 8.4688 8.4688zm50.797 0c4.6562 0 8.4688-3.8125 8.4688-8.4688s-3.8125-8.4688-8.4688-8.4688-8.4688 3.8125-8.4688 8.4688 3.8125 8.4688 8.4688 8.4688zm50.805 0c4.6562 0 8.4688-3.8125 8.4688-8.4688s-3.8125-8.4688-8.4688-8.4688-8.4648 3.8125-8.4648 8.4688 3.8086 8.4688 8.4648 8.4688zm50.801 0c4.6562 0 8.4648-3.8125 8.4648-8.4688s-3.8086-8.4688-8.4648-8.4688-8.4688 3.8125-8.4688 8.4688 3.8125 8.4688 8.4688 8.4688zm-304.8 42.332c4.6562 0 8.4648-3.8086 8.4648-8.4648s-3.8086-8.4688-8.4648-8.4688-8.4688 3.8125-8.4688 8.4688 3.8125 8.4648 8.4688 8.4648zm50.797 0c4.6562 0 8.4688-3.8086 8.4688-8.4648s-3.8125-8.4688-8.4688-8.4688-8.4688 3.8125-8.4688 8.4688c0.003907 4.6562 3.8125 8.4648 8.4688 8.4648zm50.805 0c4.6562 0 8.4688-3.8086 8.4688-8.4648s-3.8125-8.4688-8.4688-8.4688-8.4648 3.8125-8.4648 8.4688c-0.003906 4.6562 3.8086 8.4648 8.4648 8.4648zm50.801 0c4.6562 0 8.4648-3.8086 8.4648-8.4648s-3.8086-8.4688-8.4648-8.4688-8.4688 3.8125-8.4688 8.4688 3.8125 8.4648 8.4688 8.4648zm50.797 0c4.6562 0 8.4688-3.8086 8.4688-8.4648s-3.8125-8.4688-8.4688-8.4688-8.4688 3.8125-8.4688 8.4688c0.003906 4.6562 3.8125 8.4648 8.4688 8.4648zm50.805 0c4.6562 0 8.4688-3.8086 8.4688-8.4648s-3.8125-8.4688-8.4688-8.4688-8.4648 3.8125-8.4648 8.4688c-0.003907 4.6562 3.8086 8.4648 8.4648 8.4648zm50.801 0c4.6562 0 8.4648-3.8086 8.4648-8.4648s-3.8086-8.4688-8.4648-8.4688-8.4688 3.8125-8.4688 8.4688c0.003906 4.6562 3.8125 8.4648 8.4688 8.4648zm-304.8 42.336c4.6562 0 8.4648-3.8125 8.4648-8.4648 0-4.6562-3.8086-8.4688-8.4648-8.4688s-8.4688 3.8125-8.4688 8.4688c0 4.6484 3.8125 8.4648 8.4688 8.4648zm50.797 0c4.6562 0 8.4688-3.8125 8.4688-8.4648 0-4.6562-3.8125-8.4688-8.4688-8.4688s-8.4688 3.8125-8.4688 8.4688c0.003907 4.6484 3.8125 8.4648 8.4688 8.4648zm50.805 0c4.6562 0 8.4688-3.8125 8.4688-8.4648 0-4.6562-3.8125-8.4688-8.4688-8.4688s-8.4648 3.8125-8.4648 8.4688c-0.003906 4.6484 3.8086 8.4648 8.4648 8.4648zm50.801 0c4.6562 0 8.4648-3.8125 8.4648-8.4648 0-4.6562-3.8086-8.4688-8.4648-8.4688s-8.4688 3.8125-8.4688 8.4688c0 4.6484 3.8125 8.4648 8.4688 8.4648zm-152.4 50.797c4.6562 0 8.4648-3.8086 8.4648-8.4648s-3.8086-8.4688-8.4648-8.4688-8.4688 3.8125-8.4688 8.4688 3.8125 8.4648 8.4688 8.4648zm50.797 0c4.6562 0 8.4688-3.8086 8.4688-8.4648s-3.8125-8.4688-8.4688-8.4688-8.4688 3.8125-8.4688 8.4688 3.8125 8.4648 8.4688 8.4648zm50.805 0c4.6562 0 8.4688-3.8086 8.4688-8.4648s-3.8125-8.4688-8.4688-8.4688-8.4648 3.8125-8.4648 8.4688 3.8086 8.4648 8.4648 8.4648zm-101.6 42.336c0 4.6797 3.7852 8.4688 8.4648 8.4688h84.672c4.6797 0 8.4648-3.7891 8.4648-8.4688 0-4.6797-3.7852-8.4648-8.4648-8.4648h-84.668c-4.6797 0-8.4688 3.7852-8.4688 8.4648zm8.4688 25.402c-4.6797 0-8.4648 3.7852-8.4648 8.4648 0 4.6797 3.7852 8.4688 8.4648 8.4688h50.805c4.6758 0 8.4648-3.7891 8.4648-8.4688 0-4.6797-3.7891-8.4648-8.4648-8.4648z"/>
</svg>
