<svg xmlns="http://www.w3.org/2000/svg" xmlns:xlink="http://www.w3.org/1999/xlink" width="200" zoomAndPan="magnify" viewBox="0 0 150 157.92" height="200" preserveAspectRatio="xMidYMid meet" version="1.0"><defs><clipPath id="4a1b3fe756"><path d="M 23.652344 104 L 118 104 L 118 149.925781 L 23.652344 149.925781 Z M 23.652344 104 " clip-rule="nonzero"/></clipPath><clipPath id="4a37af6398"><path d="M 43 2 L 126.347656 2 L 126.347656 104 L 43 104 Z M 43 2 " clip-rule="nonzero"/></clipPath></defs><g clip-path="url(#4a1b3fe756)"><path fill="#00406d" d="M 38.554688 148.519531 C 38.765625 148.800781 39.023438 149.035156 39.324219 149.214844 C 39.628906 149.398438 39.957031 149.515625 40.304688 149.566406 C 40.65625 149.617188 41 149.597656 41.34375 149.511719 C 41.6875 149.425781 42 149.277344 42.285156 149.066406 L 51.5625 142.164062 C 55.492188 142.621094 69.070312 144.191406 72.875 144.523438 C 73.65625 144.589844 74.414062 144.625 75.148438 144.625 C 77.222656 144.605469 79.25 144.296875 81.238281 143.703125 C 83.222656 143.105469 85.085938 142.246094 86.828125 141.125 C 91.480469 138.40625 113.699219 119.550781 115.296875 117.722656 L 115.445312 117.550781 C 115.992188 117.0625 116.453125 116.507812 116.824219 115.878906 C 117.199219 115.25 117.472656 114.582031 117.640625 113.871094 C 117.8125 113.160156 117.871094 112.441406 117.820312 111.710938 C 117.769531 110.984375 117.613281 110.277344 117.34375 109.597656 C 117.042969 108.632812 116.546875 107.78125 115.851562 107.046875 C 115.15625 106.3125 114.332031 105.769531 113.386719 105.417969 C 111.625 104.765625 108.652344 104.515625 104.492188 107.011719 C 101.945312 108.539062 97.191406 112.039062 92.59375 115.425781 C 91.136719 116.5 89.527344 117.683594 88.089844 118.722656 C 87.679688 112.714844 80.484375 111.605469 78.066406 111.234375 C 76.121094 110.96875 74.171875 110.859375 72.207031 110.90625 C 69.457031 110.984375 66.738281 110.746094 64.042969 110.1875 L 62.78125 109.90625 C 57.222656 108.671875 51.96875 107.503906 45.71875 110.230469 C 43.070312 111.582031 40.707031 113.320312 38.625 115.4375 L 25.375 121.246094 C 25.050781 121.390625 24.769531 121.585938 24.523438 121.84375 C 24.277344 122.097656 24.089844 122.390625 23.964844 122.71875 C 23.835938 123.050781 23.773438 123.390625 23.78125 123.742188 C 23.789062 124.097656 23.863281 124.4375 24.003906 124.761719 C 24.148438 125.082031 24.347656 125.367188 24.601562 125.613281 C 24.855469 125.859375 25.148438 126.042969 25.476562 126.171875 C 25.808594 126.300781 26.148438 126.363281 26.503906 126.355469 C 26.855469 126.347656 27.195312 126.273438 27.519531 126.128906 L 37.269531 121.855469 C 37.355469 123.558594 37.621094 125.230469 38.058594 126.875 C 38.5 128.519531 39.109375 130.101562 39.886719 131.617188 C 40.664062 133.132812 41.589844 134.550781 42.667969 135.871094 C 43.742188 137.191406 44.945312 138.382812 46.277344 139.449219 L 39.101562 144.789062 C 38.816406 145 38.585938 145.257812 38.402344 145.558594 C 38.222656 145.863281 38.105469 146.191406 38.054688 146.539062 C 38.003906 146.890625 38.019531 147.234375 38.105469 147.578125 C 38.195312 147.921875 38.34375 148.234375 38.554688 148.519531 Z M 42.667969 118.945312 C 44.207031 117.410156 45.933594 116.136719 47.851562 115.121094 C 52.507812 113.085938 56.332031 113.9375 61.625 115.113281 L 62.902344 115.398438 C 65.972656 116.039062 69.070312 116.320312 72.203125 116.238281 C 73.894531 116.195312 75.578125 116.285156 77.253906 116.503906 C 82.136719 117.257812 82.785156 118.34375 82.777344 119.304688 C 82.765625 120.363281 81.289062 121.570312 80.347656 122.152344 C 74.417969 122.742188 68.578125 122.242188 62.832031 120.648438 C 62.492188 120.535156 62.148438 120.492188 61.792969 120.519531 C 61.4375 120.546875 61.101562 120.640625 60.785156 120.800781 C 60.46875 120.960938 60.195312 121.175781 59.964844 121.449219 C 59.734375 121.71875 59.5625 122.023438 59.453125 122.359375 C 59.34375 122.699219 59.304688 123.042969 59.335938 123.398438 C 59.363281 123.753906 59.460938 124.089844 59.625 124.402344 C 59.785156 124.71875 60.003906 124.992188 60.277344 125.21875 C 60.546875 125.449219 60.855469 125.617188 61.191406 125.722656 C 67.800781 127.589844 74.519531 128.144531 81.347656 127.390625 C 81.453125 127.386719 81.5625 127.375 81.667969 127.355469 C 83.222656 127.234375 84.734375 126.914062 86.207031 126.390625 C 89.527344 124.367188 92.710938 122.144531 95.753906 119.722656 C 100.042969 116.5625 104.90625 112.984375 107.234375 111.585938 C 109.871094 110.003906 111.191406 110.296875 111.535156 110.417969 C 111.9375 110.574219 112.1875 110.863281 112.285156 111.285156 C 112.714844 112.578125 112.59375 112.714844 111.441406 114.03125 L 111.296875 114.195312 C 110 115.597656 88.472656 133.988281 84.140625 136.515625 C 82.546875 137.574219 80.824219 138.335938 78.972656 138.796875 C 77.117188 139.257812 75.238281 139.398438 73.335938 139.210938 C 69.484375 138.875 54.816406 137.171875 51.707031 136.808594 C 50.949219 136.359375 50.226562 135.859375 49.535156 135.308594 C 48.847656 134.757812 48.203125 134.15625 47.597656 133.515625 C 46.996094 132.871094 46.441406 132.1875 45.933594 131.464844 C 45.429688 130.742188 44.976562 129.984375 44.578125 129.199219 C 44.179688 128.410156 43.839844 127.597656 43.558594 126.761719 C 43.273438 125.925781 43.050781 125.074219 42.890625 124.207031 C 42.730469 123.339844 42.628906 122.464844 42.59375 121.582031 C 42.554688 120.703125 42.582031 119.824219 42.667969 118.945312 Z M 42.667969 118.945312 " fill-opacity="1" fill-rule="nonzero"/></g><g clip-path="url(#4a37af6398)"><path fill="#00406d" d="M 125.980469 26.40625 C 125.921875 26.058594 125.800781 25.734375 125.613281 25.433594 C 125.425781 25.132812 125.1875 24.882812 124.898438 24.675781 C 124.613281 24.46875 124.296875 24.328125 123.953125 24.25 C 123.605469 24.167969 123.261719 24.15625 122.910156 24.214844 L 106.15625 27.011719 C 105.695312 27.09375 105.285156 27.28125 104.925781 27.578125 C 101.8125 25.128906 98.488281 23.003906 94.957031 21.207031 C 94.652344 21.097656 94.339844 21.019531 94.019531 20.96875 C 95.050781 18.808594 96.234375 16.835938 97.1875 15.25 C 99.082031 12.09375 100.332031 10.011719 98.554688 8.164062 C 90.574219 -0.0429688 75.953125 2.949219 65.648438 5.917969 C 60.382812 7.4375 57.519531 9.546875 56.894531 12.359375 C 56.707031 13.304688 56.765625 14.234375 57.070312 15.148438 C 57.375 16.0625 57.882812 16.84375 58.597656 17.492188 C 61.550781 20.410156 63.734375 23.824219 65.148438 27.730469 C 64.46875 27.667969 63.800781 27.722656 63.144531 27.890625 C 62.484375 28.058594 61.875 28.335938 61.3125 28.71875 C 60.746094 29.097656 60.265625 29.5625 59.863281 30.113281 C 59.460938 30.660156 59.164062 31.261719 58.972656 31.914062 L 58.90625 32.15625 C 58.644531 33.03125 58.597656 33.917969 58.757812 34.820312 C 58.183594 34.957031 57.640625 35.171875 57.121094 35.453125 C 56.605469 35.734375 56.132812 36.078125 55.703125 36.484375 C 55.277344 36.890625 54.90625 37.34375 54.597656 37.84375 C 54.289062 38.347656 54.046875 38.878906 53.878906 39.445312 L 53.835938 39.578125 C 53.601562 40.367188 53.515625 41.175781 53.578125 41.996094 C 53.636719 42.816406 53.84375 43.601562 54.191406 44.347656 C 53.03125 45.167969 52.242188 46.261719 51.828125 47.625 L 51.710938 48.011719 C 51.425781 48.992188 51.386719 49.976562 51.585938 50.976562 C 51.441406 51.039062 51.292969 51.082031 51.15625 51.15625 C 50.484375 51.515625 49.914062 51.988281 49.433594 52.578125 C 48.953125 53.164062 48.605469 53.820312 48.390625 54.550781 L 47.941406 56.054688 C 47.722656 56.78125 47.648438 57.519531 47.726562 58.277344 C 47.804688 59.03125 48.023438 59.742188 48.386719 60.40625 C 48.472656 60.570312 48.589844 60.710938 48.691406 60.863281 C 42.746094 72.875 41.816406 82.675781 45.964844 90 C 50.523438 98.046875 61.074219 102.589844 77.316406 103.5 C 77.949219 103.535156 78.78125 103.546875 79.613281 103.546875 C 81.195312 103.546875 82.765625 103.503906 82.914062 103.5 C 99.429688 102.550781 110.058594 97.917969 114.507812 89.722656 C 118.28125 82.773438 117.519531 73.683594 112.257812 62.652344 C 112.726562 62.824219 113.203125 62.851562 113.691406 62.742188 L 121.851562 60.914062 C 122.191406 60.835938 122.507812 60.691406 122.792969 60.488281 C 123.078125 60.28125 123.3125 60.03125 123.5 59.734375 C 123.6875 59.4375 123.808594 59.117188 123.867188 58.769531 C 123.925781 58.421875 123.917969 58.078125 123.84375 57.738281 C 123.765625 57.394531 123.625 57.078125 123.425781 56.792969 C 123.226562 56.503906 122.976562 56.265625 122.679688 56.074219 C 122.386719 55.886719 122.066406 55.757812 121.71875 55.695312 C 121.375 55.632812 121.03125 55.636719 120.6875 55.710938 L 115.152344 56.949219 L 109.785156 31.8125 L 123.789062 29.476562 C 124.136719 29.417969 124.460938 29.296875 124.761719 29.109375 C 125.0625 28.921875 125.316406 28.683594 125.519531 28.394531 C 125.726562 28.109375 125.867188 27.792969 125.949219 27.445312 C 126.027344 27.101562 126.039062 26.757812 125.980469 26.40625 Z M 104.835938 34.179688 L 109.113281 54.191406 C 108.8125 54.523438 108.492188 54.832031 108.144531 55.113281 C 106.378906 52.222656 104.402344 49.296875 102.226562 46.382812 C 99.226562 42.34375 96.5625 39.242188 95.152344 37.652344 C 95.238281 37.585938 95.320312 37.515625 95.398438 37.441406 C 95.640625 37.1875 95.828125 36.894531 95.957031 36.566406 C 96.085938 36.234375 96.148438 35.894531 96.140625 35.542969 C 96.132812 35.1875 96.058594 34.847656 95.917969 34.523438 C 95.777344 34.199219 95.578125 33.917969 95.324219 33.671875 C 94.539062 33.039062 93.65625 32.605469 92.679688 32.371094 C 91.699219 32.136719 90.71875 32.125 89.730469 32.332031 C 89.191406 32.382812 88.601562 32.449219 87.960938 32.527344 C 84.308594 33.066406 80.65625 33.074219 77 32.554688 C 75.734375 32.414062 74.527344 32.054688 73.390625 31.476562 C 73.0625 31.324219 72.804688 31.097656 72.617188 30.792969 C 72.453125 30.4375 72.789062 29.785156 72.960938 29.554688 C 78.628906 27.996094 84.390625 26.902344 90.238281 26.277344 L 90.269531 26.273438 C 91.21875 26.152344 92.167969 26.132812 93.125 26.214844 C 94.886719 26.859375 100.90625 31.167969 104.835938 34.179688 Z M 53.308594 58.058594 C 53.207031 58.03125 53.128906 57.96875 53.082031 57.875 C 53.03125 57.78125 53.019531 57.683594 53.050781 57.585938 L 53.503906 56.078125 C 53.53125 55.976562 53.59375 55.902344 53.6875 55.851562 C 53.78125 55.800781 53.875 55.789062 53.976562 55.820312 L 55.109375 56.160156 C 55.148438 56.171875 55.183594 56.183594 55.21875 56.191406 L 56.519531 56.582031 C 56.621094 56.613281 56.699219 56.675781 56.75 56.765625 C 56.796875 56.859375 56.808594 56.957031 56.777344 57.058594 L 56.328125 58.5625 C 56.296875 58.664062 56.234375 58.738281 56.140625 58.789062 C 56.046875 58.839844 55.953125 58.851562 55.851562 58.820312 Z M 60.398438 39.921875 C 60.542969 39.921875 60.683594 39.941406 60.820312 39.984375 L 67.3125 41.925781 C 67.5 41.984375 67.671875 42.074219 67.820312 42.195312 C 67.972656 42.320312 68.09375 42.46875 68.1875 42.640625 C 68.28125 42.8125 68.335938 42.996094 68.355469 43.191406 C 68.375 43.386719 68.359375 43.574219 68.300781 43.761719 L 68.261719 43.898438 C 68.207031 44.085938 68.117188 44.253906 67.992188 44.40625 C 67.867188 44.554688 67.722656 44.679688 67.550781 44.769531 C 67.378906 44.863281 67.195312 44.921875 67 44.941406 C 66.804688 44.960938 66.617188 44.941406 66.429688 44.886719 L 59.933594 42.945312 C 59.746094 42.886719 59.578125 42.796875 59.425781 42.675781 C 59.273438 42.550781 59.152344 42.402344 59.0625 42.230469 C 58.96875 42.058594 58.910156 41.875 58.890625 41.679688 C 58.871094 41.488281 58.890625 41.296875 58.949219 41.109375 L 58.988281 40.972656 C 59.082031 40.660156 59.257812 40.410156 59.519531 40.214844 C 59.78125 40.019531 60.074219 39.921875 60.398438 39.921875 Z M 57.472656 50.742188 C 57.214844 50.667969 57.023438 50.511719 56.898438 50.277344 C 56.773438 50.042969 56.746094 49.796875 56.824219 49.539062 L 56.941406 49.152344 C 57.015625 48.898438 57.171875 48.707031 57.40625 48.578125 C 57.640625 48.453125 57.886719 48.425781 58.140625 48.503906 L 59.921875 49.035156 L 64.03125 50.265625 C 64.285156 50.34375 64.476562 50.5 64.601562 50.730469 C 64.730469 50.964844 64.753906 51.210938 64.679688 51.464844 L 64.5625 51.859375 C 64.484375 52.113281 64.328125 52.304688 64.09375 52.429688 C 63.859375 52.558594 63.617188 52.582031 63.359375 52.503906 Z M 62.203125 13.5625 C 62.203125 13.5625 62.171875 13.511719 62.144531 13.460938 C 62.351562 13.179688 63.332031 12.136719 67.128906 11.042969 C 75.574219 8.609375 87.25 6.050781 93.582031 10.867188 C 93.292969 11.371094 92.933594 11.972656 92.617188 12.5 C 90.878906 15.257812 89.378906 18.136719 88.121094 21.140625 C 82.136719 21.859375 71.777344 23.898438 70.019531 25.082031 C 69.976562 25.113281 69.9375 25.148438 69.894531 25.175781 C 68.183594 20.828125 65.675781 17.007812 62.363281 13.714844 C 62.3125 13.664062 62.257812 13.613281 62.203125 13.5625 Z M 64.03125 33.636719 L 64.09375 33.394531 C 64.167969 33.152344 64.328125 33.03125 64.578125 33.03125 C 64.625 33.03125 64.671875 33.039062 64.714844 33.050781 L 68.5 34.179688 C 68.800781 34.566406 69.136719 34.917969 69.511719 35.230469 L 69.480469 35.335938 C 69.441406 35.46875 69.363281 35.566406 69.242188 35.632812 C 69.121094 35.695312 68.992188 35.707031 68.863281 35.667969 L 64.332031 34.3125 C 64.203125 34.273438 64.105469 34.195312 64.042969 34.078125 C 63.972656 33.933594 63.96875 33.785156 64.027344 33.636719 Z M 109.824219 87.175781 C 106.3125 93.640625 97.15625 97.339844 82.691406 98.171875 C 82.660156 98.171875 79.21875 98.261719 77.617188 98.171875 C 63.300781 97.375 54.214844 93.738281 50.609375 87.371094 C 46.738281 80.539062 49.675781 71.035156 53.277344 63.617188 L 54.320312 63.929688 L 54.324219 63.929688 C 54.683594 64.039062 55.046875 64.109375 55.421875 64.144531 C 55.796875 64.179688 56.167969 64.179688 56.542969 64.140625 C 56.917969 64.105469 57.28125 64.03125 57.640625 63.917969 C 58 63.808594 58.34375 63.664062 58.675781 63.484375 C 59.003906 63.308594 59.3125 63.097656 59.605469 62.859375 C 59.894531 62.621094 60.15625 62.355469 60.394531 62.066406 C 60.628906 61.773438 60.835938 61.460938 61.011719 61.128906 C 61.1875 60.800781 61.328125 60.453125 61.4375 60.09375 L 61.886719 58.589844 C 61.972656 58.285156 62.03125 57.980469 62.066406 57.667969 C 62.457031 57.773438 62.851562 57.839844 63.257812 57.867188 C 63.660156 57.894531 64.0625 57.882812 64.460938 57.832031 C 64.863281 57.78125 65.253906 57.691406 65.636719 57.566406 C 66.019531 57.441406 66.386719 57.277344 66.742188 57.078125 C 67.09375 56.882812 67.421875 56.652344 67.730469 56.390625 C 68.035156 56.128906 68.316406 55.839844 68.566406 55.523438 C 68.816406 55.207031 69.035156 54.867188 69.222656 54.511719 C 69.40625 54.152344 69.558594 53.777344 69.667969 53.390625 L 69.789062 52.996094 C 70.125 51.863281 70.136719 50.726562 69.828125 49.585938 C 69.910156 49.542969 69.996094 49.511719 70.082031 49.46875 C 70.878906 49.039062 71.558594 48.476562 72.132812 47.777344 C 72.703125 47.074219 73.113281 46.292969 73.371094 45.425781 L 73.414062 45.292969 C 73.691406 44.351562 73.761719 43.398438 73.625 42.429688 C 73.488281 41.460938 73.15625 40.5625 72.628906 39.738281 C 73.398438 39.125 73.976562 38.367188 74.355469 37.460938 C 74.933594 37.597656 75.535156 37.722656 76.191406 37.824219 C 78.160156 38.128906 80.140625 38.28125 82.136719 38.28125 C 84.261719 38.265625 86.375 38.113281 88.480469 37.835938 C 88.972656 38.632812 89.527344 39.378906 90.148438 40.078125 C 92.914062 43.109375 95.511719 46.269531 97.949219 49.566406 C 100.484375 52.941406 102.804688 56.457031 104.914062 60.113281 C 109.496094 68.144531 114.070312 79.359375 109.824219 87.175781 Z M 109.824219 87.175781 " fill-opacity="1" fill-rule="nonzero"/></g></svg>