<svg xmlns="http://www.w3.org/2000/svg" xmlns:xlink="http://www.w3.org/1999/xlink" width="500" zoomAndPan="magnify" viewBox="0 0 375 374.999991" height="500" preserveAspectRatio="xMidYMid meet" version="1.0"><defs><clipPath id="beffc911ce"><path d="M 166 318 L 177 318 L 177 337.6875 L 166 337.6875 Z M 166 318 " clip-rule="nonzero"/></clipPath><clipPath id="1d83acd30d"><path d="M 199 318 L 209 318 L 209 337.6875 L 199 337.6875 Z M 199 318 " clip-rule="nonzero"/></clipPath><clipPath id="5910134827"><path d="M 204 289 L 233 289 L 233 337.6875 L 204 337.6875 Z M 204 289 " clip-rule="nonzero"/></clipPath><clipPath id="4cbbd23c8f"><path d="M 143 289 L 172 289 L 172 337.6875 L 143 337.6875 Z M 143 289 " clip-rule="nonzero"/></clipPath><clipPath id="1d3d991fe3"><path d="M 108 37.6875 L 268 37.6875 L 268 125 L 108 125 Z M 108 37.6875 " clip-rule="nonzero"/></clipPath><clipPath id="4445f5f8a6"><path d="M 37.5 161 L 123 161 L 123 258 L 37.5 258 Z M 37.5 161 " clip-rule="nonzero"/></clipPath><clipPath id="2d1a6262a7"><path d="M 253 166 L 337.5 166 L 337.5 258 L 253 258 Z M 253 166 " clip-rule="nonzero"/></clipPath></defs><g clip-path="url(#beffc911ce)"><path fill="#00406d" d="M 171.351562 318.546875 C 168.777344 318.546875 166.671875 320.652344 166.671875 323.226562 L 166.671875 332.585938 C 166.671875 335.160156 168.777344 337.265625 171.351562 337.265625 C 173.925781 337.265625 176.035156 335.160156 176.035156 332.585938 L 176.035156 323.226562 C 176.035156 320.652344 173.925781 318.546875 171.351562 318.546875 Z M 171.351562 318.546875 " fill-opacity="1" fill-rule="nonzero"/></g><g clip-path="url(#1d83acd30d)"><path fill="#00406d" d="M 204.113281 318.546875 C 201.539062 318.546875 199.433594 320.652344 199.433594 323.226562 L 199.433594 332.585938 C 199.433594 335.160156 201.539062 337.265625 204.113281 337.265625 C 206.6875 337.265625 208.792969 335.160156 208.792969 332.585938 L 208.792969 323.226562 C 208.792969 320.652344 206.6875 318.546875 204.113281 318.546875 Z M 204.113281 318.546875 " fill-opacity="1" fill-rule="nonzero"/></g><g clip-path="url(#5910134827)"><path fill="#00406d" d="M 220.261719 293.738281 C 220.261719 293.738281 211.367188 289.996094 211.367188 289.996094 C 209.261719 292.804688 206.921875 295.144531 204.113281 297.015625 L 216.28125 301.929688 C 216.984375 302.398438 222.367188 305.441406 222.835938 311.058594 L 222.835938 332.351562 C 222.835938 334.925781 224.941406 337.03125 227.515625 337.03125 C 230.089844 337.03125 232.195312 334.925781 232.195312 332.351562 C 232.195312 332.351562 232.195312 310.824219 232.195312 310.589844 C 231.492188 299.121094 220.730469 293.972656 220.261719 293.738281 Z M 220.261719 293.738281 " fill-opacity="1" fill-rule="nonzero"/></g><g clip-path="url(#4cbbd23c8f)"><path fill="#00406d" d="M 164.097656 289.996094 C 164.097656 289.996094 155.207031 293.507812 155.207031 293.738281 C 154.738281 293.972656 143.972656 299.355469 143.273438 310.824219 C 143.273438 310.824219 143.273438 332.585938 143.273438 332.585938 C 143.273438 335.160156 145.378906 337.265625 147.953125 337.265625 C 150.527344 337.265625 152.632812 335.160156 152.632812 332.585938 L 152.632812 311.289062 C 153.101562 305.675781 158.484375 302.632812 159.183594 302.164062 L 171.351562 297.015625 C 168.546875 295.144531 165.972656 292.804688 164.097656 289.996094 Z M 164.097656 289.996094 " fill-opacity="1" fill-rule="nonzero"/></g><path fill="#00406d" d="M 207.625 272.914062 L 207.625 261.214844 C 207.625 250.214844 198.734375 241.320312 187.734375 241.320312 C 176.734375 241.320312 167.84375 250.214844 167.84375 261.214844 L 167.84375 272.914062 C 167.84375 283.910156 176.734375 292.804688 187.734375 292.804688 C 198.734375 292.804688 207.625 283.910156 207.625 272.914062 Z M 198.265625 272.914062 C 198.265625 278.761719 193.585938 283.445312 187.734375 283.445312 C 181.882812 283.445312 177.203125 278.761719 177.203125 272.914062 L 177.203125 261.214844 C 177.203125 255.363281 181.882812 250.683594 187.734375 250.683594 C 193.585938 250.683594 198.265625 255.363281 198.265625 261.214844 Z M 198.265625 272.914062 " fill-opacity="1" fill-rule="nonzero"/><g clip-path="url(#1d3d991fe3)"><path fill="#00406d" d="M 252.320312 115.191406 L 255.597656 115.191406 C 261.914062 115.191406 267.296875 110.042969 267.296875 103.957031 L 267.296875 84.066406 C 267.296875 82.195312 266.828125 80.558594 265.660156 78.917969 C 265.660156 78.917969 253.023438 60.667969 252.554688 60.199219 C 250.214844 56.6875 246.703125 51.539062 241.089844 51.539062 L 217.6875 51.539062 L 217.6875 49.199219 C 217.921875 42.882812 212.773438 37.734375 206.453125 37.734375 L 118.703125 37.734375 C 112.851562 37.734375 108.171875 42.414062 108.171875 48.03125 L 108.171875 104.660156 C 108.171875 110.277344 112.851562 114.957031 118.703125 114.957031 L 127.828125 114.957031 C 129.699219 120.339844 134.847656 124.082031 140.933594 124.082031 C 147.015625 124.082031 152.164062 120.339844 154.035156 114.957031 L 225.878906 114.957031 C 227.75 120.339844 232.898438 124.082031 238.980469 124.082031 C 245.300781 124.316406 250.449219 120.574219 252.320312 115.191406 Z M 140.933594 114.957031 C 138.359375 114.957031 136.25 112.851562 136.25 110.277344 C 136.25 107.703125 138.359375 105.597656 140.933594 105.597656 C 143.507812 105.597656 145.613281 107.703125 145.613281 110.277344 C 145.613281 112.851562 143.507812 114.957031 140.933594 114.957031 Z M 208.5625 105.832031 L 154.269531 105.832031 C 152.398438 100.214844 147.25 96.238281 140.933594 96.238281 C 134.847656 96.238281 129.464844 100.214844 127.59375 105.832031 L 118.703125 105.832031 C 118 105.832031 117.53125 105.363281 117.53125 104.894531 L 117.53125 48.03125 C 117.53125 47.5625 118 47.09375 118.703125 47.09375 L 206.453125 47.09375 C 207.859375 47.09375 208.5625 48.265625 208.5625 49.199219 Z M 217.921875 60.667969 L 241.320312 60.667969 C 242.257812 60.902344 258.171875 83.832031 258.171875 83.832031 L 258.171875 103.726562 C 258.171875 104.894531 257.234375 105.597656 255.832031 105.597656 L 252.554688 105.597656 C 250.683594 99.980469 245.535156 96.003906 239.214844 96.003906 C 233.132812 96.003906 227.75 99.980469 225.878906 105.597656 L 217.921875 105.597656 Z M 239.214844 114.957031 C 236.640625 114.957031 234.535156 112.851562 234.535156 110.277344 C 234.535156 107.703125 236.640625 105.597656 239.214844 105.597656 C 241.789062 105.597656 243.894531 107.703125 243.894531 110.277344 C 243.894531 112.851562 241.789062 114.957031 239.214844 114.957031 Z M 239.214844 114.957031 " fill-opacity="1" fill-rule="nonzero"/></g><g clip-path="url(#4445f5f8a6)"><path fill="#00406d" d="M 108.171875 257.703125 C 113.320312 257.703125 117.53125 253.492188 117.53125 248.34375 L 117.53125 208.5625 C 118.703125 208.5625 119.871094 208.09375 120.808594 207.15625 C 122.679688 205.285156 122.679688 202.476562 120.808594 200.605469 L 83.367188 163.164062 C 82.429688 162.226562 81.257812 161.757812 80.089844 161.757812 C 78.917969 161.757812 77.75 162.226562 76.8125 163.164062 L 39.371094 200.605469 C 37.5 202.476562 37.5 205.285156 39.371094 207.15625 C 40.308594 208.09375 41.476562 208.5625 42.648438 208.5625 L 42.648438 248.34375 C 42.648438 253.492188 46.859375 257.703125 52.007812 257.703125 Z M 91.789062 248.34375 L 68.390625 248.34375 L 68.390625 224.941406 L 91.789062 224.941406 Z M 52.007812 201.074219 L 80.089844 172.992188 L 108.171875 201.074219 C 108.171875 201.304688 108.171875 248.34375 108.171875 248.34375 L 101.152344 248.34375 L 101.152344 224.941406 C 101.152344 219.792969 96.9375 215.582031 91.789062 215.582031 L 68.390625 215.582031 C 63.242188 215.582031 59.027344 219.792969 59.027344 224.941406 L 59.027344 248.34375 L 52.007812 248.34375 C 52.007812 248.34375 52.007812 201.304688 52.007812 201.074219 Z M 52.007812 201.074219 " fill-opacity="1" fill-rule="nonzero"/></g><path fill="#00406d" d="M 223.070312 168.078125 C 224.238281 165.972656 224.707031 163.632812 224.472656 161.289062 C 224.238281 158.015625 222.835938 154.972656 220.496094 152.632812 L 217.6875 150.058594 C 215.113281 147.484375 211.601562 146.082031 208.09375 146.082031 C 205.988281 146.082031 203.878906 146.546875 202.242188 147.484375 C 200.605469 142.335938 195.457031 138.359375 189.605469 138.359375 L 185.628906 138.359375 C 179.542969 138.359375 174.628906 142.101562 172.992188 147.484375 C 171.121094 146.546875 169.246094 146.082031 167.140625 146.082031 C 163.632812 146.082031 160.121094 147.484375 157.546875 150.058594 L 154.972656 152.867188 C 150.761719 157.078125 149.824219 163.398438 152.398438 168.3125 C 147.015625 169.949219 143.273438 175.097656 143.273438 180.949219 L 143.273438 184.925781 C 143.273438 191.011719 147.015625 195.925781 152.398438 197.5625 C 149.824219 202.476562 150.761719 208.792969 154.972656 213.007812 L 157.78125 215.816406 C 160.355469 218.390625 163.863281 219.792969 167.375 219.792969 C 169.480469 219.792969 171.585938 219.324219 173.226562 218.390625 C 174.863281 223.539062 180.011719 227.515625 185.863281 227.515625 L 189.839844 227.515625 C 195.925781 227.515625 200.839844 223.769531 202.476562 218.390625 C 204.347656 219.324219 206.222656 219.792969 208.328125 219.792969 C 211.835938 219.792969 215.347656 218.390625 217.921875 215.816406 L 220.730469 213.007812 C 223.304688 210.433594 224.707031 206.921875 224.707031 203.414062 C 224.707031 201.304688 224.238281 199.199219 223.304688 197.5625 C 228.453125 195.925781 232.429688 190.777344 232.429688 184.925781 L 232.429688 180.949219 C 232.195312 174.863281 228.453125 169.714844 223.070312 168.078125 Z M 222.835938 184.691406 C 222.835938 186.796875 221.199219 188.671875 219.324219 188.671875 L 215.816406 188.671875 C 214.878906 188.671875 214.175781 189.371094 213.941406 190.074219 C 213.242188 192.179688 212.539062 194.285156 211.367188 196.160156 C 210.902344 196.859375 211.136719 197.796875 211.601562 198.5 L 213.941406 200.839844 C 215.347656 202.242188 215.113281 204.582031 213.710938 205.988281 L 211.136719 209.027344 C 210.199219 209.730469 209.261719 210.199219 208.328125 210.199219 C 207.390625 210.199219 206.6875 209.964844 205.988281 209.261719 C 205.988281 209.261719 203.648438 206.921875 203.648438 206.921875 C 202.945312 206.222656 202.007812 206.222656 201.304688 206.6875 C 199.433594 207.859375 197.328125 208.5625 195.222656 209.261719 C 194.285156 209.496094 193.816406 210.199219 193.816406 211.136719 L 193.816406 214.644531 C 193.816406 216.515625 192.179688 218.15625 189.839844 218.15625 L 185.863281 218.15625 C 183.753906 218.15625 181.882812 216.515625 181.882812 214.644531 L 181.882812 210.902344 C 181.882812 209.964844 181.183594 209.261719 180.480469 209.027344 C 178.375 208.328125 176.265625 207.625 174.394531 206.453125 C 173.695312 205.988281 172.757812 206.222656 172.054688 206.6875 L 169.714844 209.027344 C 169.011719 209.730469 168.3125 209.964844 167.375 209.964844 C 166.4375 209.964844 165.269531 209.496094 164.566406 208.792969 L 161.523438 206.222656 C 159.886719 204.582031 159.886719 202.476562 161.289062 201.074219 L 163.632812 198.734375 C 164.332031 198.03125 164.332031 197.09375 163.863281 196.390625 C 162.695312 194.519531 161.992188 192.414062 161.289062 190.308594 C 161.058594 189.371094 160.355469 188.902344 159.417969 188.902344 L 155.910156 188.902344 C 154.035156 188.902344 152.398438 187.265625 152.398438 184.925781 L 152.398438 180.949219 C 152.398438 178.839844 154.035156 176.96875 155.910156 176.96875 L 159.652344 176.96875 C 160.589844 176.96875 161.289062 176.265625 161.523438 175.566406 C 162.226562 173.460938 162.929688 171.351562 164.097656 169.480469 C 164.566406 168.777344 164.332031 167.84375 163.863281 167.140625 L 161.523438 164.800781 C 160.121094 163.398438 160.355469 161.058594 161.757812 159.652344 L 164.566406 156.84375 C 165.972656 155.441406 168.3125 154.972656 169.714844 156.609375 C 169.714844 156.609375 172.054688 158.949219 172.054688 158.949219 C 172.757812 159.652344 173.695312 159.652344 174.394531 159.183594 C 176.265625 158.015625 178.375 157.3125 180.480469 156.609375 C 181.414062 156.375 181.882812 155.675781 181.882812 154.738281 L 181.882812 151.230469 C 181.882812 149.355469 183.523438 147.71875 185.863281 147.71875 L 189.839844 147.71875 C 191.945312 147.71875 193.816406 149.355469 193.816406 151.230469 L 193.816406 154.738281 C 193.816406 155.675781 194.519531 156.375 195.222656 156.609375 C 197.328125 157.3125 199.433594 158.015625 201.304688 159.183594 C 202.007812 159.652344 202.945312 159.417969 203.648438 158.949219 C 203.648438 158.949219 205.988281 156.609375 205.988281 156.609375 C 207.390625 155.207031 209.964844 155.675781 211.136719 156.84375 L 213.941406 159.652344 C 215.582031 161.289062 215.582031 163.398438 214.175781 164.800781 L 211.835938 167.140625 C 211.136719 167.84375 211.136719 168.777344 211.601562 169.480469 C 212.773438 171.351562 213.476562 173.460938 214.175781 175.566406 C 214.410156 176.5 215.113281 176.96875 216.050781 176.96875 L 219.558594 176.96875 C 221.429688 176.96875 223.070312 178.609375 223.070312 180.949219 L 223.070312 184.691406 Z M 222.835938 184.691406 " fill-opacity="1" fill-rule="nonzero"/><path fill="#00406d" d="M 187.734375 166.4375 C 178.609375 166.4375 171.351562 173.695312 171.351562 182.820312 C 171.351562 191.945312 178.609375 199.199219 187.734375 199.199219 C 196.859375 199.199219 204.113281 191.945312 204.113281 182.820312 C 204.113281 173.695312 196.859375 166.4375 187.734375 166.4375 Z M 187.734375 189.839844 C 183.753906 189.839844 180.714844 186.796875 180.714844 182.820312 C 180.714844 178.839844 183.753906 175.800781 187.734375 175.800781 C 191.710938 175.800781 194.753906 178.839844 194.753906 182.820312 C 194.753906 186.796875 191.710938 189.839844 187.734375 189.839844 Z M 187.734375 189.839844 " fill-opacity="1" fill-rule="nonzero"/><g clip-path="url(#2d1a6262a7)"><path fill="#00406d" d="M 332.585938 185.863281 L 299.824219 167.609375 C 297.015625 165.972656 293.507812 165.972656 290.699219 167.609375 L 257.9375 185.863281 C 254.894531 187.5 253.023438 190.542969 253.023438 194.050781 L 253.023438 230.089844 C 253.023438 233.601562 254.894531 236.640625 257.9375 238.28125 C 257.9375 238.28125 290.699219 256.53125 290.699219 256.53125 C 293.273438 257.9375 297.015625 258.171875 299.824219 256.53125 L 332.585938 238.28125 C 335.628906 236.640625 337.5 233.601562 337.5 230.089844 L 337.5 194.050781 C 337.5 190.542969 335.628906 187.5 332.585938 185.863281 Z M 295.378906 175.800781 L 323.226562 191.242188 L 295.378906 206.6875 L 267.53125 191.242188 Z M 262.617188 199.199219 L 290.699219 214.878906 L 290.699219 245.769531 L 262.617188 230.089844 Z M 300.058594 245.769531 L 300.058594 214.878906 L 328.140625 199.199219 L 328.140625 230.089844 Z M 300.058594 245.769531 " fill-opacity="1" fill-rule="nonzero"/></g><path fill="#00406d" d="M 293.972656 275.957031 C 291.632812 274.785156 288.824219 275.722656 287.65625 278.0625 C 281.335938 290.699219 270.105469 296.546875 264.488281 298.886719 C 264.488281 297.71875 264.019531 296.3125 263.085938 295.378906 C 261.214844 293.507812 258.171875 293.742188 256.53125 295.613281 L 248.578125 304.035156 C 247.40625 305.207031 246.9375 307.078125 247.40625 308.484375 C 247.875 310.121094 249.277344 311.289062 250.683594 311.757812 C 250.683594 311.757812 261.914062 314.566406 261.914062 314.566406 C 264.253906 315.269531 267.0625 313.632812 267.53125 311.058594 C 267.765625 309.886719 267.53125 308.949219 267.296875 308.015625 C 274.316406 305.207031 288.125 298.1875 296.082031 282.273438 C 297.25 279.933594 296.3125 277.125 293.972656 275.957031 Z M 293.972656 275.957031 " fill-opacity="1" fill-rule="nonzero"/><path fill="#00406d" d="M 123.148438 312.929688 C 110.277344 306.609375 104.191406 295.613281 101.617188 289.761719 C 103.023438 289.761719 104.191406 289.292969 105.128906 288.359375 C 107 286.484375 106.765625 283.445312 104.894531 281.804688 L 96.46875 273.847656 C 95.300781 272.679688 93.429688 272.210938 92.023438 272.679688 C 90.386719 273.148438 89.214844 274.550781 88.75 275.957031 C 88.75 275.957031 85.941406 287.1875 85.941406 287.1875 C 85.238281 289.996094 87.578125 293.039062 90.386719 293.039062 C 91.089844 293.039062 91.789062 292.804688 92.492188 292.570312 C 95.300781 299.589844 102.554688 313.398438 118.703125 321.351562 C 121.042969 322.523438 123.847656 321.585938 125.019531 319.246094 C 126.421875 316.90625 125.488281 314.097656 123.148438 312.929688 Z M 123.148438 312.929688 " fill-opacity="1" fill-rule="nonzero"/><path fill="#00406d" d="M 60.433594 158.015625 C 63.007812 158.25 65.347656 156.375 65.582031 154.035156 C 67.21875 139.996094 75.878906 130.636719 80.558594 126.65625 C 81.027344 127.828125 81.726562 128.996094 83.132812 129.464844 C 85.472656 130.402344 88.28125 129.464844 89.214844 127.125 L 93.894531 116.59375 C 94.597656 114.957031 94.363281 113.320312 93.429688 111.914062 C 92.492188 110.511719 90.855469 109.808594 89.214844 110.042969 L 77.75 110.980469 C 75.175781 111.214844 73.304688 113.554688 73.539062 116.128906 C 73.539062 117.296875 74.238281 118.234375 74.941406 118.933594 C 69.324219 123.847656 58.5625 135.082031 56.222656 152.867188 C 55.988281 155.207031 57.859375 157.546875 60.433594 158.015625 Z M 60.433594 158.015625 " fill-opacity="1" fill-rule="nonzero"/><path fill="#00406d" d="M 284.613281 114.722656 C 284.847656 114.722656 298.65625 124.316406 302.164062 141.867188 C 300.996094 141.867188 299.824219 142.101562 298.65625 143.039062 C 296.78125 144.675781 296.546875 147.71875 298.1875 149.589844 C 298.1875 149.589844 305.910156 158.25 305.910156 158.25 C 307.078125 159.417969 308.71875 160.121094 310.355469 159.652344 C 311.992188 159.417969 313.398438 158.25 313.863281 156.609375 L 317.609375 145.613281 C 318.546875 143.273438 317.140625 140.464844 314.566406 139.761719 C 313.398438 139.292969 312.226562 139.527344 311.289062 139.996094 C 307.078125 118.46875 290.464844 107.46875 289.761719 107 C 287.65625 105.597656 284.613281 106.296875 283.210938 108.40625 C 282.039062 110.277344 282.507812 113.085938 284.613281 114.722656 Z M 284.613281 114.722656 " fill-opacity="1" fill-rule="nonzero"/><path fill="#00406d" d="M 84.769531 201.539062 C 84.769531 201.847656 84.738281 202.152344 84.679688 202.453125 C 84.621094 202.753906 84.53125 203.046875 84.414062 203.332031 C 84.296875 203.617188 84.152344 203.886719 83.980469 204.140625 C 83.808594 204.394531 83.617188 204.632812 83.398438 204.851562 C 83.183594 205.066406 82.945312 205.261719 82.691406 205.433594 C 82.433594 205.601562 82.164062 205.746094 81.878906 205.863281 C 81.597656 205.980469 81.304688 206.070312 81.003906 206.128906 C 80.703125 206.191406 80.398438 206.222656 80.089844 206.222656 C 79.78125 206.222656 79.476562 206.191406 79.175781 206.128906 C 78.875 206.070312 78.582031 205.980469 78.296875 205.863281 C 78.015625 205.746094 77.746094 205.601562 77.488281 205.433594 C 77.234375 205.261719 76.996094 205.066406 76.78125 204.851562 C 76.5625 204.632812 76.367188 204.394531 76.199219 204.140625 C 76.027344 203.886719 75.882812 203.617188 75.765625 203.332031 C 75.648438 203.046875 75.558594 202.753906 75.5 202.453125 C 75.441406 202.152344 75.410156 201.847656 75.410156 201.539062 C 75.410156 201.234375 75.441406 200.929688 75.5 200.628906 C 75.558594 200.324219 75.648438 200.035156 75.765625 199.75 C 75.882812 199.464844 76.027344 199.195312 76.199219 198.941406 C 76.367188 198.683594 76.5625 198.449219 76.78125 198.230469 C 76.996094 198.015625 77.234375 197.820312 77.488281 197.648438 C 77.746094 197.476562 78.015625 197.335938 78.296875 197.214844 C 78.582031 197.097656 78.875 197.011719 79.175781 196.949219 C 79.476562 196.890625 79.78125 196.859375 80.089844 196.859375 C 80.398438 196.859375 80.703125 196.890625 81.003906 196.949219 C 81.304688 197.011719 81.597656 197.097656 81.878906 197.214844 C 82.164062 197.335938 82.433594 197.476562 82.691406 197.648438 C 82.945312 197.820312 83.183594 198.015625 83.398438 198.230469 C 83.617188 198.449219 83.808594 198.683594 83.980469 198.941406 C 84.152344 199.195312 84.296875 199.464844 84.414062 199.75 C 84.53125 200.035156 84.621094 200.324219 84.679688 200.628906 C 84.738281 200.929688 84.769531 201.234375 84.769531 201.539062 Z M 84.769531 201.539062 " fill-opacity="1" fill-rule="nonzero"/></svg>