<svg xmlns="http://www.w3.org/2000/svg" xmlns:xlink="http://www.w3.org/1999/xlink" width="500" zoomAndPan="magnify" viewBox="0 0 375 374.999991" height="500" preserveAspectRatio="xMidYMid meet" version="1.0"><defs><clipPath id="38806d0981"><path d="M 124.273438 52.65625 L 235.589844 52.65625 L 235.589844 163.949219 L 124.273438 163.949219 Z M 124.273438 52.65625 " clip-rule="nonzero"/></clipPath><clipPath id="ae996bbaaa"><path d="M 170.003906 37.5 L 250.722656 37.5 L 250.722656 118.242188 L 170.003906 118.242188 Z M 170.003906 37.5 " clip-rule="nonzero"/></clipPath><clipPath id="46890118b9"><path d="M 49 161 L 327.359375 161 L 327.359375 337.207031 L 49 337.207031 Z M 49 161 " clip-rule="nonzero"/></clipPath></defs><g clip-path="url(#38806d0981)"><path fill="#3b5998" d="M 211.59375 140.082031 C 194.113281 157.5625 165.675781 157.574219 148.175781 140.117188 C 130.828125 122.808594 130.632812 94.558594 147.753906 77.023438 C 161.722656 62.707031 182.925781 59.765625 199.871094 68.191406 C 200.550781 68.527344 201.371094 68.398438 201.90625 67.863281 L 207.25 62.515625 C 208.074219 61.691406 207.886719 60.300781 206.871094 59.734375 C 198.703125 55.183594 189.472656 52.761719 179.867188 52.761719 C 165.019531 52.761719 151.058594 58.542969 140.558594 69.042969 C 130.058594 79.542969 124.273438 93.503906 124.273438 108.355469 C 124.273438 123.132812 130.003906 137.035156 140.410156 147.519531 C 150.605469 157.785156 164.445312 163.699219 178.914062 163.941406 C 194.414062 164.199219 209.007812 158.164062 219.796875 147.039062 C 229.855469 136.667969 235.480469 122.726562 235.460938 108.277344 C 235.449219 98.699219 233.027344 89.496094 228.488281 81.351562 C 227.917969 80.332031 226.53125 80.148438 225.707031 80.972656 L 220.359375 86.316406 C 219.824219 86.851562 219.695312 87.671875 220.035156 88.351562 C 228.375 105.140625 225.566406 126.109375 211.59375 140.082031 " fill-opacity="1" fill-rule="nonzero"/></g><path fill="#3b5998" d="M 156.230469 84.71875 C 143.316406 97.632812 143.199219 118.574219 155.882812 131.636719 C 168.753906 144.890625 190.117188 145.148438 203.296875 132.199219 C 212.503906 123.148438 215.34375 110.066406 211.8125 98.527344 C 211.425781 97.253906 209.820312 96.855469 208.878906 97.796875 L 202.855469 103.824219 C 202.464844 104.214844 202.28125 104.765625 202.355469 105.3125 C 203.253906 112.015625 201.167969 119.050781 196.09375 124.234375 C 187.339844 133.171875 172.855469 133.3125 163.941406 124.53125 C 154.964844 115.691406 154.921875 101.195312 163.816406 92.300781 C 169.015625 87.101562 176.132812 84.957031 182.914062 85.867188 C 183.460938 85.941406 184.007812 85.757812 184.398438 85.367188 L 190.425781 79.34375 C 191.363281 78.40625 190.96875 76.796875 189.703125 76.410156 C 178.25 72.90625 165.273438 75.675781 156.230469 84.71875 " fill-opacity="1" fill-rule="nonzero"/><g clip-path="url(#ae996bbaaa)"><path fill="#3b5998" d="M 239.425781 51.429688 C 237.992188 51.382812 236.839844 50.230469 236.792969 48.796875 L 236.472656 38.824219 C 236.433594 37.628906 234.984375 37.058594 234.140625 37.902344 L 221.140625 50.902344 C 219.082031 52.960938 217.96875 55.777344 218.0625 58.6875 C 218.125 60.621094 217.382812 62.496094 216.015625 63.867188 L 183.011719 96.871094 C 181.921875 97.957031 180.480469 98.601562 178.949219 98.746094 C 176.792969 98.949219 174.695312 99.878906 173.042969 101.527344 C 172.949219 101.625 172.855469 101.71875 172.761719 101.820312 C 169.378906 105.492188 169.382812 111.234375 172.773438 114.902344 C 176.515625 118.949219 182.832031 119.039062 186.695312 115.179688 C 188.34375 113.53125 189.269531 111.433594 189.476562 109.28125 C 189.621094 107.746094 190.261719 106.300781 191.351562 105.210938 L 224.355469 72.207031 C 225.726562 70.839844 227.601562 70.097656 229.535156 70.160156 C 232.445312 70.253906 235.261719 69.140625 237.320312 67.082031 L 250.320312 54.082031 C 251.164062 53.238281 250.59375 51.789062 249.398438 51.75 L 239.425781 51.429688 " fill-opacity="1" fill-rule="nonzero"/></g><path fill="#ffffff" d="M 60.367188 299.847656 C 60.398438 299.726562 60.640625 299.597656 60.785156 299.59375 C 62.59375 299.417969 64.863281 299.84375 66.613281 299.589844 C 67.78125 299.417969 67.566406 298.101562 67.539062 297.175781 C 67.257812 287.574219 70.308594 279.617188 73.960938 270.917969 C 79.21875 258.402344 85.226562 246.109375 93.082031 235.011719 C 96.167969 230.652344 98.140625 228.308594 103.109375 226.03125 C 110.808594 222.496094 119.378906 220.570312 127.113281 217.351562 C 130.113281 216.101562 126.6875 215.582031 125.570312 215.136719 C 125.207031 214.992188 123.53125 214.164062 123.390625 213.941406 C 123.121094 213.511719 123.1875 210.058594 123.230469 209.300781 C 123.734375 200.332031 126.464844 193.058594 135.179688 189.398438 C 141.898438 186.578125 155.355469 187.351562 159.445312 194.265625 C 161.921875 198.449219 161.296875 204.007812 159.449219 208.332031 C 158.898438 209.617188 157.761719 211.199219 157.367188 212.421875 C 156.113281 216.296875 156.109375 221.414062 153.945312 225.007812 C 152.976562 226.609375 152.332031 226.285156 151.019531 227.082031 C 149.976562 227.714844 150.945312 228.75 151.210938 229.515625 C 153.085938 234.964844 150.839844 241.621094 148.554688 246.628906 C 146.5 251.136719 143.960938 255.4375 141.40625 259.667969 C 141.34375 260.105469 141.578125 260.4375 141.773438 260.792969 C 142.089844 261.371094 143.191406 262.878906 143.824219 262.925781 C 144.53125 262.976562 146.734375 262.066406 147.472656 261.722656 C 156.097656 257.65625 159.046875 245.75 164.753906 238.652344 C 165.5 237.730469 167.214844 236.332031 167.410156 235.300781 C 167.824219 233.082031 167.921875 230.738281 168.277344 228.5 C 169.171875 222.839844 170.34375 215.996094 172.007812 210.550781 C 173.136719 206.847656 174.378906 206.359375 177.882812 205.089844 C 184.96875 202.527344 193.316406 201.242188 200.148438 198.175781 C 202.746094 197.007812 200.34375 196.183594 199.191406 195.207031 C 195.46875 192.074219 194.746094 188.546875 194.058594 183.996094 C 193.984375 183.503906 193.644531 182.265625 192.957031 182.734375 C 192.773438 182.859375 191.566406 186.199219 191.1875 186.878906 C 189.523438 189.851562 186.492188 192.007812 183.019531 192.21875 C 178.734375 192.480469 174.507812 189.238281 174.925781 184.707031 C 175.511719 184.808594 175.6875 185.363281 176.257812 185.625 C 178.921875 186.84375 180.046875 183.074219 180.261719 181.121094 C 180.820312 176.046875 179.722656 171.71875 183.023438 167.210938 C 186.160156 162.929688 194.722656 160.546875 197.691406 166.027344 C 198.011719 166.621094 198.132812 167.710938 198.855469 167.6875 C 199.335938 167.667969 200.695312 166.40625 201.21875 166.058594 C 208.632812 161.144531 221.664062 159.714844 229.171875 165.058594 C 233.859375 168.394531 235.027344 173.929688 233.710938 179.375 C 233.222656 181.402344 231.945312 180.535156 231.53125 181.699219 C 230.519531 186.375 229.570312 191.085938 228.371094 195.714844 C 227.546875 198.898438 226.753906 202.378906 222.867188 202.714844 C 222.105469 202.78125 220.222656 202.4375 219.78125 202.796875 C 218.902344 203.515625 221.40625 204.6875 221.945312 204.96875 C 225.785156 206.996094 230.320312 208.359375 234.007812 210.585938 C 238.472656 213.28125 238.175781 220.324219 238.621094 224.980469 C 238.953125 228.464844 239.289062 231.972656 239.625 235.480469 C 240.070312 240.113281 240.304688 245.433594 241.140625 249.972656 C 241.382812 251.292969 242.078125 252.390625 242.675781 250.539062 C 243.871094 246.824219 244.515625 242.691406 245.710938 238.898438 C 246.097656 237.664062 246.820312 235.269531 247.652344 234.339844 C 248.839844 233.007812 253.449219 232.695312 255.222656 232.070312 C 257.261719 231.351562 254.785156 230.253906 254.128906 229.648438 C 251.917969 227.609375 251.003906 224.191406 250.644531 221.292969 C 249.976562 215.828125 250.441406 210.152344 250.292969 204.632812 C 250.1875 204.019531 248.421875 203.039062 247.878906 202.546875 C 247.242188 201.96875 245.28125 199.746094 245.28125 198.964844 C 245.28125 197.933594 247.578125 196.195312 248.40625 195.574219 C 256.171875 189.761719 271.023438 185.203125 279.980469 190.289062 C 281.871094 191.363281 283.417969 192.832031 284.179688 194.929688 C 284.453125 195.6875 284.394531 197.21875 285.390625 197.222656 C 286.167969 197.226562 288.011719 196.304688 288.65625 197.324219 C 289.339844 198.414062 287.566406 199.621094 287.667969 200.109375 C 287.847656 200.941406 290.472656 200.953125 289.152344 202.632812 C 288.449219 203.527344 286.378906 203.65625 286.175781 204.328125 C 286.007812 204.882812 286.59375 207.15625 286.648438 207.964844 C 286.941406 212.375 285.769531 218.046875 283.144531 221.640625 C 282.941406 221.917969 282.589844 222.109375 282.40625 222.402344 C 281.8125 223.367188 282.796875 223.730469 283.53125 224.089844 C 288.140625 226.34375 293.242188 228.152344 297.933594 230.363281 C 300.863281 231.746094 308.160156 235.015625 309.988281 237.316406 C 312.550781 240.539062 311.289062 247.226562 310.808594 251.140625 C 309.957031 258.050781 308.65625 264.875 307.148438 271.664062 C 312.539062 288.375 314.671875 305.703125 316.003906 323.183594 C 315.964844 323.542969 316.652344 324.277344 316.914062 324.277344 L 326.25 324.277344 C 326.269531 324.277344 326.5 324.507812 326.5 324.527344 L 326.5 336.363281 C 326.5 336.382812 326.269531 336.613281 326.25 336.613281 L 53.949219 336.613281 C 53.929688 336.613281 53.699219 336.382812 53.699219 336.363281 L 53.699219 324.527344 C 53.699219 324.507812 53.929688 324.277344 53.949219 324.277344 L 57.949219 324.277344 C 58.050781 324.277344 58.585938 323.855469 58.671875 323.695312 C 58.703125 323.136719 56.644531 322.375 56.148438 322.074219 C 53.457031 320.449219 51.25 317.6875 50.410156 314.640625 C 48.734375 308.566406 53.070312 304.964844 58.359375 303.339844 C 58.808594 303.203125 60.367188 303.128906 60.367188 302.347656 C 60.367188 301.742188 60.25 300.304688 60.367188 299.847656 Z M 230.25 276.714844 C 230.371094 276.59375 230.398438 276.328125 230.445312 276.15625 C 229.566406 270.632812 227.855469 265.207031 227.136719 259.640625 C 226.652344 255.898438 227.070312 252.105469 226.492188 248.445312 C 226.28125 247.121094 225.976562 243.433594 225.425781 242.507812 C 224.824219 241.496094 224.367188 242.71875 224.164062 243.367188 C 222.804688 247.636719 222.328125 252.546875 220.988281 256.867188 C 220.726562 258.832031 222.289062 260.925781 222.953125 262.824219 C 224.128906 266.1875 224.960938 270.613281 225.285156 274.164062 C 225.386719 275.273438 224.820312 276.765625 226.363281 276.921875 C 226.949219 276.984375 229.960938 277.003906 230.25 276.714844 Z M 120.277344 283.800781 L 114.882812 290.832031 C 114.695312 291.109375 114.667969 291.511719 114.730469 291.839844 C 114.785156 292.15625 115.925781 293.578125 116.199219 294.042969 C 120.777344 301.851562 125.460938 312.921875 128.410156 321.515625 C 128.746094 322.5 128.734375 324.242188 129.980469 324.28125 C 133.402344 324.066406 137.117188 324.546875 140.5 324.285156 C 141.238281 324.226562 141.703125 324.035156 141.734375 323.210938 C 140.40625 318.082031 139.566406 312.816406 138.21875 307.707031 C 137.792969 307.015625 137.230469 307.199219 136.609375 306.980469 C 127.355469 303.769531 123.253906 294.9375 121.75 285.824219 C 121.667969 285.324219 121.773438 283.648438 120.980469 283.578125 C 120.78125 283.5625 120.429688 283.664062 120.277344 283.800781 Z M 59.324219 306.960938 C 58.046875 307.167969 56.042969 308.367188 55.203125 309.355469 C 52.277344 312.785156 54.589844 316.925781 57.878906 319.007812 C 58.78125 319.578125 60.027344 320.421875 60.378906 318.867188 C 60.089844 315.402344 60.730469 311.410156 60.375 308.011719 C 60.308594 307.382812 60.019531 306.851562 59.324219 306.960938 Z M 98.652344 312.613281 C 98.316406 312.714844 98.367188 313.246094 98.382812 313.519531 C 98.488281 315.398438 99.09375 317.769531 99.371094 319.707031 C 99.546875 320.945312 99.605469 322.214844 99.796875 323.453125 C 100.074219 324.523438 102.613281 324.449219 103.398438 324.199219 C 104.4375 323.871094 103.585938 322.328125 103.304688 321.609375 C 102.1875 318.757812 100.773438 315.980469 99.585938 313.15625 C 99.414062 312.769531 99.101562 312.484375 98.652344 312.613281 Z M 98.652344 312.613281 " fill-opacity="1" fill-rule="nonzero"/><path fill="#3b5998" d="M 173.585938 318.277344 C 173.902344 318.527344 172.300781 323.144531 172.101562 323.871094 L 141.914062 323.9375 C 140.398438 316.324219 138.492188 308.777344 137.121094 301.132812 C 136.304688 296.558594 134.851562 289.398438 136.445312 285.046875 C 136.621094 284.578125 137.3125 282.90625 137.820312 282.914062 C 138.21875 282.921875 141.839844 286.222656 142.496094 286.753906 C 147.824219 291.09375 153.550781 294.789062 159.066406 298.863281 C 160.808594 300.148438 162.648438 301.476562 164.191406 302.996094 C 164.480469 303.28125 165.257812 303.984375 165.257812 304.347656 C 165.257812 304.496094 164.59375 305.523438 164.457031 305.886719 C 163.074219 309.605469 167.203125 314.476562 170.007812 316.601562 C 171.003906 317.359375 172.320312 318.171875 173.585938 318.277344 Z M 61.367188 299.761719 C 61.355469 300.679688 62.132812 301.664062 62.707031 302.34375 C 67.128906 307.613281 74.683594 307.453125 78.949219 302.085938 C 79.195312 301.777344 80.363281 300.046875 80.046875 299.761719 Z M 134.648438 250.078125 C 131.324219 245.226562 128.1875 240.175781 124.320312 235.726562 C 121.917969 232.964844 119.792969 230.929688 116.394531 229.472656 C 116.132812 229.359375 115.988281 229.488281 116.0625 229.0625 C 116.757812 229.03125 117.417969 229.378906 118.007812 229.699219 C 122.125 231.933594 126.210938 237.3125 128.96875 241.082031 C 133.257812 246.949219 136.929688 253.246094 141.007812 259.253906 L 141.65625 259.074219 C 143.054688 256.839844 144.421875 254.574219 145.664062 252.242188 C 149.011719 245.96875 153.496094 236.785156 151.128906 229.597656 C 150.988281 229.179688 150.316406 227.703125 149.96875 227.585938 C 149.46875 227.421875 148.554688 227.472656 148.011719 227.375 C 146.222656 227.0625 142.886719 225.917969 141.289062 226.691406 C 139.53125 227.539062 139.359375 230.714844 138.859375 232.433594 C 138.082031 235.105469 135.78125 240.648438 132.484375 236.902344 C 129.5 233.503906 129.113281 224.996094 129.402344 220.640625 C 129.492188 219.292969 129.902344 217.894531 130.070312 216.554688 C 129.90625 216.394531 128.011719 217.097656 127.648438 217.21875 C 119.839844 219.851562 110.714844 222.675781 103.277344 226.03125 C 97.910156 228.449219 95.851562 231.152344 92.582031 235.84375 C 85.226562 246.398438 79.515625 257.96875 74.511719 269.800781 C 72.757812 273.949219 70.761719 278.550781 69.585938 282.882812 C 69.433594 283.445312 68.871094 285.273438 68.878906 285.683594 C 68.890625 286.179688 70.613281 286.898438 71.09375 287.121094 C 83.191406 292.753906 96.90625 293.105469 109.980469 291.929688 C 111.277344 291.585938 112.832031 291.6875 114.109375 291.390625 C 114.316406 291.34375 114.5 291.246094 114.632812 291.082031 L 127.476562 274.410156 C 127.585938 274.242188 127.742188 274.03125 127.734375 273.828125 C 127.730469 273.550781 126.539062 272.449219 126.238281 272.164062 C 124.410156 270.417969 122.246094 268.558594 120.3125 266.917969 C 119.394531 266.136719 118.148438 265.359375 117.3125 264.578125 C 117.195312 264.46875 117.027344 264.375 117.070312 264.175781 L 134.753906 250.492188 Z M 194.046875 271.886719 C 193.25 271.457031 190.003906 269.714844 189.371094 269.757812 C 188.148438 269.835938 187.800781 270.183594 186.390625 269.875 C 184.730469 269.507812 182.65625 268.101562 181.164062 267.925781 C 179.265625 267.695312 178.820312 270.214844 177.996094 271.570312 C 176.683594 273.734375 174.359375 275.539062 171.6875 275.234375 C 167.890625 274.804688 165.246094 269.351562 165.085938 265.914062 C 164.941406 265.742188 162.574219 266.734375 162.121094 266.867188 C 160.4375 267.371094 150.894531 269.425781 150.320312 270.246094 C 150.203125 270.414062 150.234375 270.585938 150.316406 270.757812 C 155.089844 276.460938 160.0625 282.019531 165.007812 287.585938 C 166.046875 288.757812 167.757812 291.171875 168.914062 292.015625 C 169.804688 292.667969 171.921875 293.347656 173.078125 294.023438 C 174.277344 294.726562 175.957031 295.867188 177.007812 296.765625 C 177.4375 297.132812 179 298.929688 179.34375 298.9375 C 179.574219 298.945312 179.648438 298.84375 179.726562 298.644531 L 186.257812 276.996094 C 186.332031 276.898438 186.757812 276.605469 186.847656 276.585938 L 199.769531 276.585938 C 199.777344 276.402344 199.792969 276.21875 199.734375 276.039062 C 199.324219 274.714844 195.347656 272.585938 194.046875 271.886719 Z M 307.488281 273.082031 L 306.992188 273.082031 C 306.03125 278.148438 304.523438 283.128906 303.703125 288.222656 C 303.441406 289.871094 303.503906 290.777344 303.503906 292.34375 C 303.503906 292.753906 303.011719 294.632812 303.15625 294.761719 L 312.496094 294.09375 C 311.378906 286.964844 309.390625 280.023438 307.488281 273.082031 Z M 240.609375 246.464844 L 239.453125 236.152344 C 239.285156 232.925781 238.921875 229.6875 238.621094 226.480469 C 238.277344 222.804688 238.179688 215.03125 235.875 212.21875 C 234.308594 210.300781 229.457031 208.351562 227.066406 207.351562 C 226.675781 207.191406 225.6875 206.699219 225.363281 206.703125 C 224.792969 206.707031 224.601562 207.238281 224.195312 207.546875 C 214.128906 215.28125 194.808594 213.601562 185.925781 204.636719 C 185.589844 204.296875 184.996094 203.234375 184.523438 203.222656 C 181.558594 204.226562 178.117188 204.808594 175.308594 206.183594 C 172.8125 207.410156 172.480469 209.160156 171.800781 211.683594 C 170.890625 215.066406 170.128906 218.898438 169.46875 222.355469 C 168.675781 226.503906 168.046875 230.695312 167.589844 234.898438 C 167.832031 234.917969 168.023438 234.914062 168.25 234.8125 C 168.714844 234.601562 169.632812 233.765625 170.203125 233.429688 C 176.347656 229.828125 185.089844 229.527344 191.320312 233.09375 C 194.816406 235.097656 197.671875 238.929688 197.269531 243.152344 C 197.207031 243.800781 196.851562 244.320312 196.777344 244.828125 C 196.695312 245.351562 196.824219 245.953125 196.769531 246.488281 C 196.382812 250.320312 195.75 254.117188 195.101562 257.910156 L 220.53125 257.910156 L 224.949219 239.066406 L 225.449219 239.066406 L 226.617188 248.152344 L 226.890625 248.554688 L 240.351562 246.714844 Z M 309.804688 257.472656 C 310.476562 253.125 311.058594 248.707031 311.324219 244.316406 C 311.65625 238.800781 310.78125 237.21875 306.105469 234.535156 C 303.367188 232.964844 300.300781 231.53125 297.433594 230.199219 C 292.886719 228.085938 287.476562 225.488281 282.8125 223.808594 C 282.023438 223.527344 281.074219 223.253906 280.234375 223.21875 C 279.441406 223.183594 278.761719 223.464844 277.976562 223.390625 C 278.089844 227.996094 277.304688 233.027344 273.722656 236.230469 C 271.675781 238.0625 268.324219 239.527344 265.835938 237.703125 C 265.738281 236.398438 266.402344 233.089844 265.300781 232.148438 C 264.285156 231.285156 261.496094 232.011719 260.226562 232.070312 C 259.019531 232.125 257.929688 231.8125 256.734375 231.914062 C 254.8125 232.078125 251.640625 232.867188 249.757812 233.445312 C 248.246094 233.910156 247.730469 234.039062 247.007812 235.527344 C 245.613281 238.390625 244.667969 243.023438 243.839844 246.199219 C 241.226562 256.234375 239.042969 266.390625 237.121094 276.585938 L 255.890625 276.621094 L 256.140625 277 L 245.292969 313.601562 C 245.5625 313.652344 245.675781 313.582031 245.882812 313.445312 C 246.597656 312.964844 247.324219 312.175781 248.074219 311.632812 C 252.226562 308.636719 257.96875 306.308594 262.757812 304.472656 C 270.605469 301.464844 278.351562 299.183594 286.519531 297.210938 C 287.058594 297.082031 287.113281 297.039062 286.890625 296.433594 C 280.730469 287.167969 275.683594 277.085938 268.875 268.261719 C 267.558594 266.558594 265.042969 263.273438 263.386719 262.078125 C 262.40625 261.367188 260.785156 260.878906 259.578125 260.046875 C 256.035156 257.601562 251.914062 251.449219 249.824219 247.625 C 249.519531 247.074219 248.757812 245.410156 249.457031 244.980469 C 250.542969 244.320312 252.828125 247.15625 253.707031 247.746094 C 253.859375 247.84375 254.191406 248.011719 254.296875 247.902344 C 254.449219 247.75 253.320312 244.359375 253.207031 243.742188 C 253.027344 242.789062 252.683594 241.046875 253.222656 240.242188 C 254.125 238.886719 254.984375 241.238281 255.464844 240.734375 C 255.753906 240.425781 255.496094 239.113281 256.519531 238.6875 C 256.976562 238.496094 257.347656 239.125 257.878906 239.074219 C 258.324219 239.03125 258.445312 238.296875 259.132812 238.648438 C 259.96875 239.074219 261.230469 242.214844 261.773438 243.183594 C 262.726562 244.890625 264.359375 247.355469 265.714844 248.746094 C 265.976562 249.011719 266.277344 249.238281 266.644531 248.996094 C 267.136719 248.667969 267.503906 245.210938 267.71875 244.398438 C 267.960938 243.476562 268.714844 241.398438 269.917969 242.621094 C 272.402344 245.140625 271.746094 253.136719 273.226562 256.574219 C 274.003906 258.386719 277.410156 260.730469 278.980469 262.15625 C 286.097656 268.617188 293.207031 275.484375 298.886719 283.269531 C 300.226562 285.109375 301.730469 287.078125 302.644531 289.15625 C 302.734375 289.355469 302.976562 289.234375 303.15625 289.257812 C 304.941406 278.570312 308.148438 268.195312 309.804688 257.472656 Z M 215.707031 297.324219 C 213.945312 297.324219 212.515625 298.75 212.515625 300.515625 C 212.515625 302.277344 213.945312 303.703125 215.707031 303.703125 C 217.46875 303.703125 218.898438 302.277344 218.898438 300.515625 C 218.898438 298.75 217.46875 297.324219 215.707031 297.324219 Z M 176.839844 246.03125 L 170.992188 237.65625 L 165.070312 241.480469 L 168.03125 247.765625 Z M 176.839844 246.03125 " fill-opacity="1" fill-rule="nonzero"/><g clip-path="url(#46890118b9)"><path fill="#000000" d="M 277.191406 219.59375 C 277.191406 219.09375 277.597656 218.6875 278.097656 218.6875 C 278.601562 218.6875 279.007812 219.09375 279.007812 219.59375 C 279.007812 220.09375 278.601562 220.5 278.097656 220.5 C 277.597656 220.5 277.191406 220.09375 277.191406 219.59375 Z M 203.15625 188.210938 C 202.160156 187.542969 201.164062 187.285156 200.929688 187.632812 C 200.695312 187.984375 201.3125 188.808594 202.308594 189.476562 C 203.304688 190.144531 204.304688 190.402344 204.539062 190.050781 C 204.773438 189.699219 204.152344 188.875 203.15625 188.210938 Z M 219.398438 300.515625 C 219.375 302.246094 218.140625 303.824219 216.410156 304.136719 C 214.890625 304.410156 213.332031 303.734375 212.535156 302.402344 C 211.734375 301.0625 211.894531 299.347656 212.875 298.152344 C 213.84375 296.96875 215.550781 296.507812 216.984375 297.050781 C 218.429688 297.601562 219.375 298.96875 219.398438 300.515625 Z M 218.398438 300.515625 C 218.378906 299.222656 217.464844 298.101562 216.183594 297.863281 C 215.097656 297.660156 213.964844 298.183594 213.398438 299.132812 C 212.828125 300.085938 212.90625 301.335938 213.609375 302.203125 C 214.332031 303.09375 215.558594 303.429688 216.640625 303.039062 C 217.699219 302.65625 218.382812 301.625 218.398438 300.515625 Z M 327.085938 336.949219 L 326.382812 337.414062 L 53.945312 337.453125 C 53.789062 337.4375 53.273438 337.339844 53.222656 337.257812 C 53.183594 337.199219 53.035156 336.078125 53.023438 335.871094 C 52.792969 332.117188 53.21875 328.132812 53.023438 324.351562 C 52.945312 324.136719 53.320312 323.609375 53.449219 323.609375 L 57.535156 323.609375 L 55.648438 322.578125 C 52.914062 320.777344 50.707031 318.125 49.78125 314.9375 C 47.753906 307.972656 53.425781 303.433594 59.6875 302.417969 C 59.730469 301.929688 59.546875 298.929688 60.117188 298.929688 L 66.871094 298.929688 C 66.746094 297.675781 66.65625 296.4375 66.695312 295.171875 C 67.070312 283.4375 73.261719 270.203125 78.179688 259.628906 C 82.453125 250.441406 88.808594 238.464844 95.386719 230.816406 C 100.289062 225.117188 110.109375 222.535156 117.144531 220.054688 C 120.597656 218.835938 124.085938 217.667969 127.566406 216.554688 L 125.023438 215.683594 C 124.214844 215.261719 122.695312 214.671875 122.472656 213.730469 C 122.21875 212.648438 122.511719 211.648438 122.566406 210.636719 C 123.027344 202.128906 124.261719 195.023438 132.019531 190.242188 C 138.46875 186.265625 148.546875 186.183594 155.257812 189.617188 C 163.894531 194.042969 162.683594 203.949219 158.78125 211.332031 C 158.578125 211.71875 158.109375 212.1875 157.992188 212.546875 C 157.570312 213.832031 157.328125 215.753906 157.019531 217.347656 C 157.148438 217.53125 157.269531 217.71875 157.375 217.910156 C 157.644531 218.394531 157.214844 218.921875 156.699219 218.832031 C 155.910156 222.332031 155.101562 226.960938 151.082031 227.730469 C 151.605469 228.460938 151.960938 229.503906 152.171875 230.386719 C 153.636719 236.558594 150.898438 243.476562 148.222656 248.964844 C 146.414062 252.664062 144.289062 256.230469 142.140625 259.738281 C 141.960938 260.273438 143.507812 261.878906 143.84375 262.402344 C 147.042969 261.34375 149.964844 259.863281 152.246094 257.324219 C 157.988281 250.9375 160.214844 241.503906 166.671875 235.5625 C 167.339844 229.554688 168.371094 223.59375 169.640625 217.6875 C 170.214844 215.015625 171.222656 209.179688 172.757812 207.132812 C 174.050781 205.40625 178.179688 204.289062 180.261719 203.632812 C 187.089844 201.476562 194.132812 199.949219 200.769531 197.210938 L 199.355469 196.210938 C 195.816406 193.464844 194.175781 189.796875 193.449219 185.441406 C 193.367188 184.933594 193.507812 184.386719 193.265625 183.875 L 191.832031 187.191406 C 188.835938 193.523438 178.011719 195.40625 174.894531 188.320312 C 174.382812 187.160156 173.953125 184.902344 174.332031 183.699219 C 174.554688 183.007812 175.296875 183.023438 175.550781 183.664062 C 175.832031 184.371094 175.746094 184.707031 176.640625 185.074219 C 178.726562 185.933594 179.460938 182.371094 179.578125 180.9375 C 180.078125 174.746094 179.089844 169.28125 184.425781 164.777344 C 188.660156 161.203125 196.914062 160.800781 198.851562 167.03125 C 202.226562 164.066406 206.519531 162.410156 210.90625 161.574219 C 222.070312 159.441406 236.359375 163.148438 234.789062 177.121094 C 234.710938 177.824219 234.265625 180.5 233.960938 180.960938 C 233.476562 181.699219 232.359375 181.453125 232.269531 181.632812 L 228.738281 197.082031 C 228.105469 199.347656 227.25 201.921875 224.898438 202.914062 C 224.632812 203.027344 223.5625 203.382812 223.367188 203.382812 L 220.78125 203.382812 C 220.796875 203.589844 221.015625 203.660156 221.167969 203.75 C 225.300781 206.183594 230.53125 207.527344 234.507812 210.082031 C 237.988281 212.324219 238.46875 216.113281 238.941406 219.988281 C 240.148438 229.847656 240.503906 239.777344 241.789062 249.660156 C 241.820312 249.914062 241.804688 250.167969 242.125 250.238281 C 243.003906 246.394531 243.871094 242.5 245.042969 238.734375 C 245.488281 237.300781 246.277344 234.625 247.347656 233.617188 C 248.066406 232.941406 250.695312 232.371094 251.757812 232.109375 C 252.917969 231.820312 254.121094 231.597656 255.296875 231.394531 L 254.296875 230.648438 C 250.453125 227.335938 250.121094 223.25 249.796875 218.472656 C 249.511719 214.253906 249.53125 209.875 249.621094 205.625 C 249.625 205.335938 249.722656 205.089844 249.773438 204.816406 C 248.054688 203.5625 245.574219 201.554688 244.652344 199.605469 C 244.308594 198.871094 244.652344 198.261719 245.125 197.628906 C 246.699219 195.535156 250.605469 193.160156 252.960938 191.957031 C 259.582031 188.566406 268.113281 186.367188 275.511719 187.921875 C 279.957031 188.855469 284.746094 191.558594 285.148438 196.546875 C 285.648438 196.558594 286.09375 196.285156 286.578125 196.226562 C 289.726562 195.847656 290.425781 198.003906 288.316406 200.046875 C 292.171875 201.011719 289.589844 204.320312 286.816406 204.386719 C 288.03125 210.660156 287.144531 218.140625 282.8125 223.058594 C 287.710938 225.085938 292.625 227.128906 297.433594 229.363281 C 300.855469 230.953125 306.839844 233.523438 309.578125 235.894531 C 313.21875 239.042969 312.292969 244.527344 311.8125 248.804688 C 310.945312 256.492188 309.515625 264.113281 307.832031 271.644531 C 309.136719 276.21875 310.503906 280.78125 311.578125 285.417969 C 314.46875 297.882812 315.644531 310.589844 316.683594 323.335938 C 316.773438 323.613281 316.988281 323.597656 317.238281 323.617188 C 320.148438 323.855469 323.574219 323.289062 326.425781 323.601562 C 326.71875 323.632812 326.921875 323.667969 327.085938 323.941406 C 327.222656 328.25 327.222656 332.640625 327.085938 336.949219 Z M 307.160156 273.917969 C 306.234375 278.757812 304.828125 283.523438 304.039062 288.390625 C 303.90625 289.210938 303.671875 290.390625 303.644531 291.179688 C 303.628906 291.65625 303.855469 292.09375 303.828125 292.675781 C 303.796875 293.210938 303.558594 293.878906 303.488281 294.425781 L 312.160156 293.757812 C 311.011719 287.75 309.570312 281.804688 307.910156 275.917969 Z M 260.550781 231.230469 C 262.058594 231.15625 263.445312 230.585938 264.96875 231.148438 C 267.40625 232.054688 266.707031 235.332031 266.65625 237.378906 C 270.089844 238.710938 273.703125 235.851562 275.339844 233.011719 C 276.433594 231.105469 277.019531 228.34375 277.152344 226.152344 C 277.230469 224.8125 276.941406 223.339844 277.308594 222.058594 C 276.585938 222.503906 274.929688 221.167969 275.890625 220.890625 C 276.296875 220.773438 277.820312 220.890625 278.394531 220.890625 C 278.644531 220.890625 279.867188 220.320312 280.136719 220.132812 C 280.828125 219.640625 281.90625 218.089844 282.109375 217.269531 C 282.785156 214.558594 280.972656 212.09375 278.070312 212.734375 C 277.621094 212.832031 276.726562 213.476562 276.328125 213.199219 C 275.863281 212.867188 274.941406 205.894531 274.804688 204.800781 C 274.777344 204.554688 274.824219 204.296875 274.808594 204.050781 C 272.707031 205.835938 270.054688 206.886719 267.339844 207.335938 C 262.941406 208.0625 257.511719 207.707031 253.257812 206.339844 C 252.425781 206.070312 251.628906 205.652344 250.796875 205.382812 C 250.9375 209.378906 250.613281 213.496094 250.789062 217.480469 C 251.074219 223.9375 252.367188 231.648438 260.550781 231.230469 Z M 239.167969 267.875 C 238.589844 270.671875 238.164062 273.492188 237.457031 276.25 C 241.652344 276.3125 245.859375 276.175781 250.054688 276.242188 C 250.988281 276.257812 252.09375 276.40625 253.039062 276.425781 C 254.035156 276.449219 255.066406 276.464844 256.054688 276.324219 C 256.339844 276.367188 256.621094 276.523438 256.644531 276.839844 L 245.796875 312.9375 C 251.558594 308.273438 258.820312 305.472656 265.761719 302.972656 C 270.414062 301.292969 275.367188 299.625 280.144531 298.34375 C 282.070312 297.828125 284.417969 297.515625 286.230469 296.925781 C 286.402344 296.871094 286.535156 296.855469 286.644531 296.679688 C 280.375 287.425781 275.394531 277.289062 268.542969 268.425781 C 267.308594 266.832031 264.75 263.515625 263.222656 262.410156 C 262.667969 262.011719 261.933594 261.914062 261.351562 261.609375 C 257.53125 259.625 255 256.296875 252.660156 252.792969 C 251.765625 251.457031 249.523438 248.203125 249.082031 246.867188 C 248.851562 246.167969 248.492188 244.753906 249.546875 244.570312 C 251.078125 244.304688 252.644531 246.445312 253.796875 247.238281 C 253.273438 245.183594 252.316406 242.816406 252.636719 240.660156 C 252.867188 239.125 254.042969 239.128906 254.96875 240.128906 C 255.390625 240.582031 255.308594 239.515625 255.558594 239.078125 C 256.464844 237.5 257.261719 238.746094 257.875 238.742188 C 257.9375 238.742188 258.148438 238.027344 258.859375 238.105469 C 260.066406 238.238281 261.511719 241.964844 262.105469 243.015625 C 263.25 245.046875 264.734375 247.105469 266.386719 248.738281 C 267.207031 247.324219 267.011719 242.121094 269.066406 241.902344 C 270.488281 241.75 271.292969 244.273438 271.59375 245.367188 C 272.691406 249.375 272.179688 253.816406 274.164062 257.46875 C 284.140625 266.398438 294.96875 275.730469 302.128906 287.199219 C 302.367188 287.585938 302.503906 288.042969 302.738281 288.425781 C 302.976562 288.273438 302.9375 288.070312 302.996094 287.847656 C 303.867188 284.417969 304.414062 280.839844 305.203125 277.378906 C 307.613281 266.792969 310.066406 256.554688 310.996094 245.65625 C 311.226562 242.925781 311.34375 239.199219 309.273438 237.117188 C 307.160156 235 300.226562 231.914062 297.265625 230.53125 C 292.722656 228.410156 287.3125 225.835938 282.644531 224.144531 C 281.929688 223.882812 280.988281 223.574219 280.230469 223.546875 C 279.558594 223.523438 278.980469 223.789062 278.308594 223.726562 C 278.621094 229.265625 276.644531 236.363281 270.894531 238.40625 C 269.078125 239.050781 266.5 239.328125 265.3125 237.492188 C 265.578125 236.253906 266.046875 233.222656 264.890625 232.390625 C 263.914062 231.691406 261.601562 232.351562 260.390625 232.40625 C 259.195312 232.457031 258.019531 232.152344 256.898438 232.246094 C 254.957031 232.414062 251.121094 233.300781 249.257812 233.941406 C 247.777344 234.449219 247.503906 235.277344 246.957031 236.644531 C 246.011719 239.007812 245.335938 241.882812 244.671875 244.363281 C 242.601562 252.121094 240.792969 260.011719 239.167969 267.875 Z M 258.398438 253.738281 C 258.480469 254.644531 257.738281 254.734375 257.222656 254.070312 C 256.28125 252.859375 255.535156 250.910156 254.707031 249.582031 C 253.546875 248.765625 252.605469 247.65625 251.542969 246.738281 C 251.3125 246.539062 250.410156 245.796875 250.210938 245.738281 C 249.976562 245.667969 249.917969 245.746094 249.972656 245.976562 C 250.058594 246.351562 250.40625 246.988281 250.601562 247.351562 C 252.371094 250.640625 256.257812 256.582031 259.148438 258.8125 C 260.613281 259.945312 261.800781 260.332031 263.347656 261.113281 C 264.914062 261.90625 268.5 266.507812 269.710938 268.09375 C 276.640625 277.1875 281.9375 287.589844 288.144531 297.183594 C 291.726562 300.402344 298.667969 301.648438 301.390625 296.75 C 302.246094 295.214844 302.679688 292.765625 302.472656 291.023438 C 302.148438 288.28125 296.597656 281.367188 294.648438 279.003906 C 288.507812 271.566406 281.296875 265.679688 274.304688 259.164062 C 272.757812 257.722656 272.277344 256.691406 271.851562 254.613281 C 271.246094 251.652344 271.265625 245.871094 269.613281 243.511719 C 269.453125 243.28125 269.308594 243.011719 268.972656 243.070312 C 268.265625 244.785156 268.253906 246.675781 267.761719 248.445312 C 267.667969 248.78125 267.371094 249.101562 267.324219 249.359375 C 267.265625 249.683594 268.144531 250.675781 267.21875 250.75 C 266.675781 250.792969 265.128906 249.203125 264.714844 248.742188 C 263.519531 247.40625 262.15625 245.414062 261.273438 243.847656 C 260.503906 242.492188 259.964844 240.984375 259.109375 239.671875 C 258.992188 239.488281 258.878906 239.273438 258.714844 239.566406 C 258.3125 240.289062 258.855469 242.5 259.128906 243.320312 C 259.867188 245.519531 261.234375 247.476562 262.226562 249.554688 C 262.066406 250.589844 261.46875 250.335938 260.996094 249.628906 C 259.617188 247.570312 257.824219 243.746094 257.464844 241.320312 C 257.339844 240.472656 257.683594 239.929688 256.632812 239.398438 C 255.605469 242.652344 257.261719 246.316406 258.769531 249.183594 C 259.230469 250.058594 260.085938 250.851562 259.96875 251.90625 C 259.023438 252.121094 258.65625 251.261719 258.230469 250.558594 C 257.121094 248.746094 256.195312 246.566406 255.585938 244.535156 C 255.167969 243.148438 255.15625 241.503906 253.800781 240.566406 C 253.691406 245.308594 255.890625 249.84375 258.398438 253.738281 Z M 142.253906 323.59375 L 171.917969 323.605469 L 173.257812 318.605469 C 170.890625 318.09375 168.65625 316.144531 167.089844 314.351562 C 164.746094 311.671875 162.289062 307.695312 164.898438 304.347656 C 160.660156 299.960938 155.277344 296.804688 150.359375 293.230469 C 146.386719 290.347656 142.492188 287.355469 138.820312 284.089844 L 137.738281 283.335938 C 137.234375 284.164062 136.773438 285.011719 136.523438 285.957031 C 135.558594 289.660156 136.355469 294.371094 136.953125 298.132812 C 138.300781 306.65625 140.507812 315.148438 142.253906 323.59375 Z M 137.710938 307.964844 C 127.089844 305.53125 121.867188 294.242188 120.898438 284.253906 L 115.265625 291.511719 C 116.109375 292.515625 116.777344 293.671875 117.425781 294.8125 C 121.257812 301.5625 124.960938 310.265625 127.695312 317.5625 C 128.421875 319.507812 129.210938 321.566406 129.570312 323.609375 L 141.074219 323.609375 Z M 173.089844 323.609375 L 241.457031 323.609375 L 255.132812 277.417969 L 187.015625 277.417969 Z M 226.121094 250.324219 C 226.183594 249.289062 225.394531 245.042969 225.117188 243.820312 C 225.0625 243.582031 225.121094 243.304688 224.785156 243.234375 C 224.808594 243.523438 224.773438 243.796875 224.707031 244.078125 C 223.667969 248.671875 222.546875 253.253906 221.457031 257.835938 C 222.996094 260.550781 224.003906 263.535156 224.703125 266.578125 C 225.421875 269.710938 226 273.035156 225.949219 276.25 L 229.785156 276.25 C 229.808594 276.011719 229.78125 275.78125 229.742188 275.542969 C 228.375 266.609375 225.527344 259.804688 226.121094 250.324219 Z M 240.457031 247.570312 L 227.304688 249.425781 C 227.273438 250.746094 227.070312 251.992188 227.117188 253.324219 C 227.355469 260.054688 228.878906 266.6875 230.367188 273.253906 C 230.535156 274.003906 230.722656 275.339844 230.984375 275.972656 C 231.035156 276.097656 231.074219 276.199219 231.222656 276.230469 L 236.300781 276.179688 C 237.226562 272.125 237.96875 267.96875 238.839844 263.878906 C 239.40625 261.214844 241.261719 255.324219 241.125 252.988281 C 241.046875 251.589844 240.648438 249.90625 240.472656 248.472656 C 240.4375 248.171875 240.457031 247.871094 240.457031 247.570312 Z M 185.765625 203.296875 C 189.558594 207.527344 195.207031 209.96875 200.738281 211.003906 C 207.644531 212.296875 217.289062 211.863281 223.101562 207.453125 C 223.285156 207.316406 224.308594 206.550781 224.117188 206.386719 C 222.722656 205.800781 221.335938 205.121094 220 204.414062 C 218.339844 203.53125 217.476562 202.414062 215.371094 202.722656 C 214.554688 202.84375 214.320312 203.246094 214.121094 203.976562 C 213.859375 204.921875 214.121094 206.425781 212.878906 206.226562 C 212.367188 206.140625 212.894531 203.945312 213.03125 203.550781 C 214.199219 200.152344 218.417969 202.027344 221.03125 202.214844 C 225 202.503906 226.300781 201.21875 227.40625 197.582031 L 231.121094 181.707031 L 218.488281 183.25 C 217.683594 182.863281 217.917969 180.648438 217.945312 179.785156 C 217.953125 179.46875 218.113281 179.15625 218.121094 178.792969 C 218.152344 177.269531 218.148438 175.71875 218.03125 174.203125 C 215.863281 176.867188 213.570312 179.433594 210.761719 181.4375 C 209.785156 182.132812 207.335938 183.710938 206.191406 183.710938 C 205.210938 183.714844 204.878906 182.847656 204.058594 182.503906 C 201.835938 181.582031 199.425781 183.132812 199.117188 185.46875 C 198.753906 188.160156 200.214844 190.246094 202.773438 190.960938 C 205.300781 191.664062 206.28125 191.003906 204.671875 194.191406 C 204.277344 194.976562 202.804688 197.167969 202.195312 197.71875 C 201.457031 198.378906 197.753906 199.5625 196.597656 199.960938 C 193.027344 201.195312 189.359375 202.144531 185.765625 203.296875 Z M 167.921875 234.5625 C 174.296875 229.558594 184.148438 228.785156 191.269531 232.644531 C 195.144531 234.738281 198.03125 238.738281 197.605469 243.320312 C 197.542969 243.972656 197.1875 244.585938 197.113281 245.164062 C 197.050781 245.65625 197.15625 246.175781 197.105469 246.65625 C 196.703125 250.3125 196.238281 253.988281 195.433594 257.574219 L 220.449219 257.574219 L 224.949219 238.644531 C 225.304688 238.433594 225.617188 238.683594 225.746094 239.023438 C 226.15625 242.089844 226.679688 245.160156 226.953125 248.238281 L 240.289062 246.402344 C 239.074219 237.222656 238.566406 228.011719 237.605469 218.824219 C 236.9375 214.082031 236.421875 212.234375 232.066406 210.023438 C 229.898438 208.917969 227.550781 208.121094 225.363281 207.050781 L 222.101562 209.457031 C 214.375 213.628906 204.75 213.671875 196.472656 211.097656 C 191.945312 209.6875 187.542969 207.304688 184.519531 203.59375 C 182.746094 204.1875 180.90625 204.589844 179.132812 205.171875 C 176.664062 205.980469 174.03125 206.574219 172.964844 209.171875 C 171.675781 212.304688 170.820312 217.425781 170.136719 220.851562 C 169.230469 225.394531 168.542969 229.972656 167.921875 234.5625 Z M 172.585938 240.90625 C 171.234375 239.554688 169.742188 238.851562 169.261719 239.332031 C 168.777344 239.816406 169.480469 241.308594 170.835938 242.660156 C 172.1875 244.015625 173.675781 244.71875 174.160156 244.234375 C 174.644531 243.75 173.941406 242.261719 172.585938 240.90625 Z M 168.113281 244.960938 C 169.46875 246.3125 170.957031 247.015625 171.441406 246.53125 C 171.925781 246.050781 171.21875 244.558594 169.867188 243.207031 C 168.511719 241.851562 167.023438 241.148438 166.539062 241.632812 C 166.054688 242.117188 166.761719 243.605469 168.113281 244.960938 Z M 167.585938 258.160156 C 169.09375 258.6875 169.414062 258.070312 169.046875 260.117188 C 168.699219 262.066406 167.835938 263.796875 166.425781 265.171875 C 166.28125 265.3125 165.992188 265.386719 165.953125 265.441406 C 165.40625 266.222656 166.890625 269.976562 167.390625 270.863281 C 169.742188 275.035156 174.089844 275.90625 176.992188 271.734375 C 177.757812 270.636719 178.421875 268.5625 179.191406 267.761719 C 180.9375 265.949219 184.125 268.535156 186.089844 269.007812 C 187.945312 269.453125 189.589844 269.277344 190.851562 267.75 C 193.4375 264.628906 195.082031 254.175781 195.585938 249.972656 C 195.667969 249.285156 196.097656 245.179688 195.917969 244.921875 C 192.664062 244.183594 189.507812 243.277344 187.347656 240.570312 C 186.433594 241.726562 185.660156 242.980469 184.761719 244.148438 C 180.976562 249.046875 174.910156 255.375 168.050781 253.03125 L 166.253906 252.152344 C 164.980469 254.289062 164.847656 257.210938 167.585938 258.160156 Z M 150.578125 270.417969 C 152.101562 272.289062 153.667969 274.167969 155.25 276 C 159.808594 281.269531 164.503906 286.429688 169.082031 291.683594 C 172.945312 293.277344 176.582031 295.527344 179.425781 298.597656 C 181.355469 291.40625 183.734375 284.332031 185.753906 277.160156 C 185.78125 276.882812 186.503906 276.25 186.679688 276.25 L 199.4375 276.25 C 198.726562 275.148438 197.53125 274.375 196.421875 273.679688 C 195.488281 273.09375 190.058594 270.082031 189.398438 270.117188 C 188.125 270.183594 187.75 270.550781 186.222656 270.207031 C 184.894531 269.910156 181.328125 267.984375 180.375 268.273438 C 179.863281 268.429688 178.992188 270.636719 178.65625 271.226562 C 177.164062 273.855469 174.746094 275.941406 171.523438 275.570312 C 167.675781 275.125 165.027344 269.722656 164.753906 266.246094 C 160.207031 268.132812 155.171875 268.609375 150.578125 270.417969 Z M 135.074219 251.480469 L 118.308594 264.074219 C 118.136719 264.25 118.164062 264.273438 118.335938 264.417969 C 118.660156 264.691406 119.144531 264.96875 119.480469 265.246094 C 129.023438 273.246094 137.636719 282.304688 147.589844 289.828125 C 152.898438 293.839844 159.445312 297.546875 164.257812 302.011719 C 167.011719 304.566406 168.902344 307.898438 170.890625 311.054688 C 171.152344 311.835938 170.601562 312.09375 169.96875 311.722656 L 165.671875 305.269531 C 163.828125 307.914062 165.863281 311.183594 167.667969 313.273438 C 169.128906 314.960938 171.460938 317.273438 173.75 317.429688 L 178.847656 299.769531 C 176.605469 297.007812 173.398438 294.914062 170.203125 293.394531 C 169.53125 293.078125 168.738281 293.011719 168.183594 292.414062 C 160.589844 283.464844 152.480469 274.9375 145.078125 265.828125 C 141.394531 261.296875 138.117188 256.464844 135.074219 251.480469 Z M 128.59375 213.613281 C 128.972656 214.257812 130.097656 214.925781 130.832031 215.042969 C 131.21875 215.105469 134.316406 215.109375 133.238281 216.140625 C 132.597656 216.75 131.402344 216.015625 131.085938 216.238281 C 131.011719 216.289062 130.667969 217.753906 130.617188 218.019531 C 129.765625 222.3125 129.972656 233.390625 133.238281 236.648438 C 135.074219 238.484375 136.511719 236.324219 137.273438 234.679688 C 138.269531 232.523438 138.582031 228.171875 139.984375 226.71875 C 142.082031 224.550781 145.347656 226.179688 147.84375 226.542969 C 148.894531 226.699219 150.261719 226.742188 151.296875 226.527344 C 152.445312 226.285156 153.433594 225.183594 153.945312 224.175781 C 154.605469 222.875 155.179688 220.679688 155.640625 218.605469 C 154.972656 218.460938 154.304688 218.316406 153.636719 218.171875 L 151.914062 217.800781 C 151.742188 217.765625 151.570312 217.734375 151.398438 217.691406 C 151.386719 217.6875 151.386719 217.6875 151.378906 217.683594 C 150.628906 217.75 149.878906 217.8125 149.128906 217.875 C 147.203125 218.042969 145.277344 218.207031 143.351562 218.371094 C 143.039062 218.394531 142.851562 218.21875 142.785156 217.992188 C 142.652344 217.78125 142.648438 217.511719 142.910156 217.300781 C 145.074219 215.578125 147.957031 214.046875 150.78125 214.066406 C 152.691406 214.082031 154.699219 214.929688 156.125 216.300781 C 156.210938 215.863281 156.292969 215.449219 156.367188 215.089844 C 157.183594 211.007812 158.160156 204.808594 156.664062 200.882812 C 155.4375 197.65625 152.042969 195.679688 149.414062 193.710938 C 149.398438 193.988281 149.203125 194.214844 149.050781 194.429688 C 145.914062 198.824219 140.605469 206.851562 135.277344 208.507812 C 133.566406 209.039062 133.773438 208.332031 132.621094 208.085938 C 129.632812 207.445312 127.015625 210.9375 128.59375 213.613281 Z M 151.359375 217.683594 C 151.261719 217.660156 151.285156 217.679688 151.359375 217.683594 Z M 69.277344 285.761719 C 73.847656 288.105469 78.957031 289.871094 84.007812 290.878906 C 92.738281 292.621094 103.832031 292.519531 112.628906 291.242188 C 113.441406 291.125 113.917969 291.199219 114.480469 290.59375 C 116.25 288.691406 118.15625 285.867188 119.800781 283.742188 C 120.386719 282.980469 121 282.199219 121.566406 281.460938 C 123.515625 278.929688 125.433594 276.367188 127.378906 273.832031 C 125.121094 271.589844 122.644531 269.585938 120.3125 267.417969 C 119.386719 266.457031 117.8125 265.679688 116.90625 264.820312 C 116.714844 264.640625 116.527344 264.386719 116.683594 264.132812 L 134.238281 250.324219 C 132.675781 247.738281 130.972656 245.152344 129.207031 242.679688 C 126.566406 238.984375 121.421875 232.082031 117.347656 230.195312 C 116.804688 229.945312 115.035156 229.753906 115.636719 228.882812 C 115.917969 228.476562 117 228.839844 117.394531 228.980469 C 122.320312 230.765625 129.128906 240.523438 132.140625 244.914062 C 135.300781 249.515625 138.058594 254.390625 141.324219 258.910156 C 143.820312 254.796875 146.296875 250.582031 148.277344 246.183594 C 150.734375 240.722656 153.050781 233.523438 149.882812 227.925781 C 149.242188 227.808594 148.46875 227.820312 147.847656 227.710938 C 146.324219 227.441406 144.472656 226.804688 142.972656 226.734375 C 139.753906 226.585938 139.832031 230.457031 139.160156 232.730469 C 138.269531 235.738281 135.71875 241.105469 132.234375 237.152344 C 129.160156 233.667969 128.957031 226.527344 129.070312 222.144531 C 129.117188 220.394531 129.25 218.78125 129.570312 217.054688 L 129.058594 217.128906 C 121.074219 220.191406 112.59375 222.492188 104.726562 225.8125 C 99.199219 228.140625 97.207031 230.058594 93.746094 234.84375 C 85.582031 246.128906 79.28125 259.234375 73.960938 272.085938 C 72.121094 276.53125 70.269531 281.035156 69.277344 285.761719 Z M 99.304688 314.101562 L 100.386719 323.609375 L 103.390625 323.609375 Z M 61.703125 300.097656 C 64.378906 305.25 70.507812 307.515625 75.695312 304.503906 C 77.355469 303.539062 78.855469 301.800781 79.710938 300.097656 Z M 60.867188 323.609375 L 80.210938 323.609375 L 80.210938 301.765625 C 79.398438 302.492188 78.871094 303.457031 78.046875 304.1875 C 73.398438 308.300781 67.027344 307.785156 62.699219 303.515625 L 60.867188 301.097656 Z M 59.703125 322.941406 L 59.703125 320.441406 C 57.089844 319.417969 54.316406 317.132812 53.578125 314.308594 C 52.53125 310.292969 56.023438 307.0625 59.703125 306.433594 L 59.703125 303.597656 C 55.824219 304.136719 50.984375 306.933594 50.546875 311.203125 C 50.011719 316.441406 54.589844 322.015625 59.703125 322.941406 Z M 56.035156 316.519531 C 56.933594 317.597656 58.355469 318.664062 59.703125 319.105469 L 59.703125 307.601562 C 55.257812 308.570312 52.78125 312.605469 56.035156 316.519531 Z M 326 324.777344 L 54.199219 324.777344 L 54.199219 336.28125 L 326 336.28125 Z M 326 324.777344 " fill-opacity="1" fill-rule="nonzero"/></g></svg>