<svg xmlns="http://www.w3.org/2000/svg" xmlns:xlink="http://www.w3.org/1999/xlink" width="500" zoomAndPan="magnify" viewBox="0 0 375 374.999991" height="500" preserveAspectRatio="xMidYMid meet" version="1.0"><defs><clipPath id="e949ac21ca"><path d="M 93.75 37.5 L 263 37.5 L 263 337.5 L 93.75 337.5 Z M 93.75 37.5 " clip-rule="nonzero"/></clipPath><clipPath id="f55375090d"><path d="M 168 168 L 281.25 168 L 281.25 282 L 168 282 Z M 168 168 " clip-rule="nonzero"/></clipPath></defs><path fill="#00406d" d="M 159.375 318.75 L 196.875 318.75 C 199.464844 318.75 201.5625 316.652344 201.5625 314.0625 C 201.5625 311.472656 199.464844 309.375 196.875 309.375 L 159.375 309.375 C 156.785156 309.375 154.6875 311.472656 154.6875 314.0625 C 154.6875 316.652344 156.785156 318.75 159.375 318.75 Z M 159.375 318.75 " fill-opacity="1" fill-rule="nonzero"/><path fill="#00406d" d="M 164.0625 60.9375 C 164.0625 61.246094 164.03125 61.550781 163.972656 61.851562 C 163.914062 62.152344 163.824219 62.445312 163.707031 62.730469 C 163.585938 63.015625 163.445312 63.285156 163.273438 63.542969 C 163.101562 63.796875 162.90625 64.035156 162.691406 64.253906 C 162.472656 64.46875 162.234375 64.664062 161.980469 64.835938 C 161.722656 65.007812 161.453125 65.152344 161.167969 65.269531 C 160.882812 65.386719 160.589844 65.476562 160.289062 65.535156 C 159.988281 65.59375 159.683594 65.625 159.375 65.625 C 159.066406 65.625 158.761719 65.59375 158.460938 65.535156 C 158.160156 65.476562 157.867188 65.386719 157.582031 65.269531 C 157.296875 65.152344 157.027344 65.007812 156.769531 64.835938 C 156.515625 64.664062 156.277344 64.46875 156.058594 64.253906 C 155.84375 64.035156 155.648438 63.796875 155.476562 63.542969 C 155.304688 63.285156 155.160156 63.015625 155.042969 62.730469 C 154.925781 62.445312 154.835938 62.152344 154.777344 61.851562 C 154.71875 61.550781 154.6875 61.246094 154.6875 60.9375 C 154.6875 60.628906 154.71875 60.324219 154.777344 60.023438 C 154.835938 59.722656 154.925781 59.429688 155.042969 59.144531 C 155.160156 58.859375 155.304688 58.589844 155.476562 58.332031 C 155.648438 58.078125 155.84375 57.839844 156.058594 57.621094 C 156.277344 57.40625 156.515625 57.210938 156.769531 57.039062 C 157.027344 56.867188 157.296875 56.722656 157.582031 56.605469 C 157.867188 56.488281 158.160156 56.398438 158.460938 56.339844 C 158.761719 56.28125 159.066406 56.25 159.375 56.25 C 159.683594 56.25 159.988281 56.28125 160.289062 56.339844 C 160.589844 56.398438 160.882812 56.488281 161.167969 56.605469 C 161.453125 56.722656 161.722656 56.867188 161.980469 57.039062 C 162.234375 57.210938 162.472656 57.40625 162.691406 57.621094 C 162.90625 57.839844 163.101562 58.078125 163.273438 58.332031 C 163.445312 58.589844 163.585938 58.859375 163.707031 59.144531 C 163.824219 59.429688 163.914062 59.722656 163.972656 60.023438 C 164.03125 60.324219 164.0625 60.628906 164.0625 60.9375 Z M 164.0625 60.9375 " fill-opacity="1" fill-rule="nonzero"/><path fill="#00406d" d="M 182.8125 60.9375 C 182.8125 61.246094 182.78125 61.550781 182.722656 61.851562 C 182.664062 62.152344 182.574219 62.445312 182.457031 62.730469 C 182.335938 63.015625 182.195312 63.285156 182.023438 63.542969 C 181.851562 63.796875 181.65625 64.035156 181.441406 64.253906 C 181.222656 64.46875 180.984375 64.664062 180.730469 64.835938 C 180.472656 65.007812 180.203125 65.152344 179.917969 65.269531 C 179.632812 65.386719 179.339844 65.476562 179.039062 65.535156 C 178.738281 65.59375 178.433594 65.625 178.125 65.625 C 177.816406 65.625 177.511719 65.59375 177.210938 65.535156 C 176.910156 65.476562 176.617188 65.386719 176.332031 65.269531 C 176.046875 65.152344 175.777344 65.007812 175.519531 64.835938 C 175.265625 64.664062 175.027344 64.46875 174.808594 64.253906 C 174.59375 64.035156 174.398438 63.796875 174.226562 63.542969 C 174.054688 63.285156 173.910156 63.015625 173.792969 62.730469 C 173.675781 62.445312 173.585938 62.152344 173.527344 61.851562 C 173.46875 61.550781 173.4375 61.246094 173.4375 60.9375 C 173.4375 60.628906 173.46875 60.324219 173.527344 60.023438 C 173.585938 59.722656 173.675781 59.429688 173.792969 59.144531 C 173.910156 58.859375 174.054688 58.589844 174.226562 58.332031 C 174.398438 58.078125 174.59375 57.839844 174.808594 57.621094 C 175.027344 57.40625 175.265625 57.210938 175.519531 57.039062 C 175.777344 56.867188 176.046875 56.722656 176.332031 56.605469 C 176.617188 56.488281 176.910156 56.398438 177.210938 56.339844 C 177.511719 56.28125 177.816406 56.25 178.125 56.25 C 178.433594 56.25 178.738281 56.28125 179.039062 56.339844 C 179.339844 56.398438 179.632812 56.488281 179.917969 56.605469 C 180.203125 56.722656 180.472656 56.867188 180.730469 57.039062 C 180.984375 57.210938 181.222656 57.40625 181.441406 57.621094 C 181.65625 57.839844 181.851562 58.078125 182.023438 58.332031 C 182.195312 58.589844 182.335938 58.859375 182.457031 59.144531 C 182.574219 59.429688 182.664062 59.722656 182.722656 60.023438 C 182.78125 60.324219 182.8125 60.628906 182.8125 60.9375 Z M 182.8125 60.9375 " fill-opacity="1" fill-rule="nonzero"/><path fill="#00406d" d="M 201.5625 60.9375 C 201.5625 61.246094 201.53125 61.550781 201.472656 61.851562 C 201.414062 62.152344 201.324219 62.445312 201.207031 62.730469 C 201.085938 63.015625 200.945312 63.285156 200.773438 63.542969 C 200.601562 63.796875 200.40625 64.035156 200.191406 64.253906 C 199.972656 64.46875 199.734375 64.664062 199.480469 64.835938 C 199.222656 65.007812 198.953125 65.152344 198.667969 65.269531 C 198.382812 65.386719 198.089844 65.476562 197.789062 65.535156 C 197.488281 65.59375 197.183594 65.625 196.875 65.625 C 196.566406 65.625 196.261719 65.59375 195.960938 65.535156 C 195.660156 65.476562 195.367188 65.386719 195.082031 65.269531 C 194.796875 65.152344 194.527344 65.007812 194.269531 64.835938 C 194.015625 64.664062 193.777344 64.46875 193.558594 64.253906 C 193.34375 64.035156 193.148438 63.796875 192.976562 63.542969 C 192.804688 63.285156 192.660156 63.015625 192.542969 62.730469 C 192.425781 62.445312 192.335938 62.152344 192.277344 61.851562 C 192.21875 61.550781 192.1875 61.246094 192.1875 60.9375 C 192.1875 60.628906 192.21875 60.324219 192.277344 60.023438 C 192.335938 59.722656 192.425781 59.429688 192.542969 59.144531 C 192.660156 58.859375 192.804688 58.589844 192.976562 58.332031 C 193.148438 58.078125 193.34375 57.839844 193.558594 57.621094 C 193.777344 57.40625 194.015625 57.210938 194.269531 57.039062 C 194.527344 56.867188 194.796875 56.722656 195.082031 56.605469 C 195.367188 56.488281 195.660156 56.398438 195.960938 56.339844 C 196.261719 56.28125 196.566406 56.25 196.875 56.25 C 197.183594 56.25 197.488281 56.28125 197.789062 56.339844 C 198.089844 56.398438 198.382812 56.488281 198.667969 56.605469 C 198.953125 56.722656 199.222656 56.867188 199.480469 57.039062 C 199.734375 57.210938 199.972656 57.40625 200.191406 57.621094 C 200.40625 57.839844 200.601562 58.078125 200.773438 58.332031 C 200.945312 58.589844 201.085938 58.859375 201.207031 59.144531 C 201.324219 59.429688 201.414062 59.722656 201.472656 60.023438 C 201.53125 60.324219 201.5625 60.628906 201.5625 60.9375 Z M 201.5625 60.9375 " fill-opacity="1" fill-rule="nonzero"/><g clip-path="url(#e949ac21ca)"><path fill="#00406d" d="M 243.914062 37.5 L 112.335938 37.5 C 102.070312 37.5 93.75 45.894531 93.75 56.25 L 93.75 318.75 C 93.75 329.105469 102.070312 337.5 112.335938 337.5 L 243.914062 337.5 C 254.175781 337.5 262.5 329.105469 262.5 318.75 L 262.5 290.625 L 103.125 290.625 L 103.125 84.375 L 253.125 84.375 L 253.125 159.375 L 262.5 159.375 L 262.5 56.25 C 262.5 45.894531 254.175781 37.5 243.914062 37.5 Z M 253.125 300 L 253.125 318.75 C 253.125 323.921875 248.992188 328.125 243.914062 328.125 L 112.335938 328.125 C 107.257812 328.125 103.125 323.921875 103.125 318.75 L 103.125 300 Z M 253.125 75 L 103.125 75 L 103.125 56.25 C 103.125 51.078125 107.257812 46.875 112.335938 46.875 L 243.914062 46.875 C 248.992188 46.875 253.125 51.078125 253.125 56.25 Z M 253.125 75 " fill-opacity="1" fill-rule="nonzero"/></g><g clip-path="url(#f55375090d)"><path fill="#00406d" d="M 281.25 187.5 C 281.25 177.144531 272.855469 168.75 262.5 168.75 L 187.5 168.75 C 177.144531 168.75 168.75 177.144531 168.75 187.5 L 168.75 262.5 C 168.75 272.855469 177.144531 281.25 187.5 281.25 L 262.5 281.25 C 272.855469 281.25 281.25 272.855469 281.25 262.5 Z M 271.875 262.5 C 271.875 267.671875 267.671875 271.875 262.5 271.875 L 187.5 271.875 C 182.328125 271.875 178.125 267.671875 178.125 262.5 L 178.125 187.5 C 178.125 182.328125 182.328125 178.125 187.5 178.125 L 262.5 178.125 C 267.671875 178.125 271.875 182.328125 271.875 187.5 Z M 271.875 262.5 " fill-opacity="1" fill-rule="nonzero"/></g><path fill="#00406d" d="M 215.953125 159.375 C 226.125 159.375 234.375 151.125 234.375 140.953125 L 234.375 112.171875 C 234.375 102 226.125 93.75 215.953125 93.75 L 187.171875 93.75 C 177 93.75 168.75 102 168.75 112.171875 L 168.75 140.953125 C 168.75 151.125 177 159.375 187.171875 159.375 Z M 178.125 140.953125 L 178.125 112.171875 C 178.125 107.183594 182.183594 103.125 187.171875 103.125 L 215.953125 103.125 C 220.941406 103.125 225 107.183594 225 112.171875 L 225 140.953125 C 225 145.941406 220.941406 150 215.953125 150 L 187.171875 150 C 182.183594 150 178.125 145.941406 178.125 140.953125 Z M 178.125 140.953125 " fill-opacity="1" fill-rule="nonzero"/><path fill="#00406d" d="M 125.65625 168.75 C 118.390625 168.75 112.5 174.640625 112.5 181.910156 L 112.5 202.464844 C 112.5 209.734375 118.390625 215.625 125.65625 215.625 L 146.21875 215.625 C 153.484375 215.625 159.375 209.734375 159.375 202.464844 L 159.375 181.910156 C 159.375 174.640625 153.484375 168.75 146.21875 168.75 Z M 150 181.910156 L 150 202.464844 C 150 204.550781 148.304688 206.25 146.21875 206.25 L 125.65625 206.25 C 123.570312 206.25 121.875 204.550781 121.875 202.464844 L 121.875 181.910156 C 121.875 179.824219 123.570312 178.125 125.65625 178.125 L 146.21875 178.125 C 148.304688 178.125 150 179.824219 150 181.910156 Z M 150 181.910156 " fill-opacity="1" fill-rule="nonzero"/><path fill="#00406d" d="M 256.039062 201.910156 C 246.992188 205.613281 238.726562 211.664062 232.542969 216.523438 C 223.972656 223.253906 216.5625 230.78125 212.082031 235.636719 C 206.945312 226.515625 202.839844 221.300781 195.183594 214.9375 C 193.191406 213.285156 190.238281 213.558594 188.582031 215.546875 C 186.929688 217.539062 187.199219 220.496094 189.191406 222.148438 C 197.277344 228.863281 200.570312 233.738281 207.007812 245.9375 C 207.734375 247.320312 209.109375 248.246094 210.664062 248.414062 C 210.828125 248.429688 210.988281 248.4375 211.152344 248.4375 C 212.535156 248.4375 213.859375 247.824219 214.753906 246.75 C 214.859375 246.625 225.367188 234.078125 238.332031 223.894531 C 244.039062 219.414062 251.613281 213.851562 259.585938 210.589844 C 261.984375 209.609375 263.132812 206.871094 262.152344 204.476562 C 261.171875 202.082031 258.433594 200.941406 256.039062 201.910156 Z M 256.039062 201.910156 " fill-opacity="1" fill-rule="nonzero"/></svg>