<svg xmlns="http://www.w3.org/2000/svg" xmlns:xlink="http://www.w3.org/1999/xlink" width="500" zoomAndPan="magnify" viewBox="0 0 375 374.999991" height="500" preserveAspectRatio="xMidYMid meet" version="1.0"><defs><clipPath id="874b5a8931"><path d="M 37.5 179 L 88 179 L 88 255 L 37.5 255 Z M 37.5 179 " clip-rule="nonzero"/></clipPath><clipPath id="f9ae6d26ed"><path d="M 117 104.625 L 185 104.625 L 185 153 L 117 153 Z M 117 104.625 " clip-rule="nonzero"/></clipPath><clipPath id="1e575c582c"><path d="M 190 104.625 L 258 104.625 L 258 153 L 190 153 Z M 190 104.625 " clip-rule="nonzero"/></clipPath><clipPath id="f767a9d856"><path d="M 287 179 L 337.5 179 L 337.5 255 L 287 255 Z M 287 179 " clip-rule="nonzero"/></clipPath></defs><path fill="#00406d" d="M 201.273438 256.632812 C 200.628906 260.769531 198.15625 264.414062 194.484375 266.535156 C 187.84375 270.371094 179.320312 268.085938 175.484375 261.445312 C 171.652344 254.804688 173.933594 246.28125 180.574219 242.449219 C 184.246094 240.328125 188.644531 240.011719 192.546875 241.519531 L 277.425781 199.894531 L 279.757812 203.9375 Z M 201.273438 256.632812 " fill-opacity="1" fill-rule="evenodd"/><g clip-path="url(#874b5a8931)"><path fill="#00406d" d="M 72.589844 254.472656 C 72.589844 233.539062 78.1875 213.914062 87.964844 197.007812 L 57.679688 179.523438 C 44.921875 201.570312 37.621094 227.167969 37.621094 254.472656 Z M 72.589844 254.472656 " fill-opacity="1" fill-rule="evenodd"/></g><path fill="#00406d" d="M 90.757812 192.4375 C 100.660156 177.027344 114.144531 164.136719 130.035156 154.941406 L 112.546875 124.652344 C 91.351562 136.917969 73.433594 154.226562 60.445312 174.9375 Z M 90.757812 192.4375 " fill-opacity="1" fill-rule="evenodd"/><g clip-path="url(#f9ae6d26ed)"><path fill="#00406d" d="M 184.824219 104.621094 C 162.21875 105.015625 140.835938 110.414062 121.734375 119.757812 C 120.21875 120.5 118.714844 121.265625 117.230469 122.054688 L 134.730469 152.371094 C 135.507812 151.96875 136.289062 151.574219 137.078125 151.1875 C 151.546875 144.109375 167.722656 139.984375 184.824219 139.59375 Z M 184.824219 104.621094 " fill-opacity="1" fill-rule="evenodd"/></g><g clip-path="url(#1e575c582c)"><path fill="#00406d" d="M 257.773438 122.054688 C 256.285156 121.265625 254.78125 120.5 253.265625 119.757812 C 234.164062 110.414062 212.78125 105.015625 190.175781 104.621094 L 190.175781 139.59375 C 207.277344 139.984375 223.453125 144.109375 237.921875 151.1875 C 238.710938 151.574219 239.492188 151.964844 240.269531 152.371094 Z M 257.773438 122.054688 " fill-opacity="1" fill-rule="evenodd"/></g><path fill="#00406d" d="M 314.554688 174.9375 C 301.5625 154.226562 283.648438 136.917969 262.453125 124.652344 L 244.964844 154.941406 C 260.855469 164.136719 274.339844 177.027344 284.242188 192.4375 Z M 314.554688 174.9375 " fill-opacity="1" fill-rule="evenodd"/><g clip-path="url(#f767a9d856)"><path fill="#00406d" d="M 337.378906 254.472656 C 337.378906 227.167969 330.078125 201.570312 317.320312 179.523438 L 287.03125 197.007812 C 296.8125 213.914062 302.410156 233.539062 302.410156 254.472656 Z M 337.378906 254.472656 " fill-opacity="1" fill-rule="evenodd"/></g></svg>