<?xml version="1.0" encoding="UTF-8"?>
<!-- Uploaded to: SVG Find, www.svgrepo.com, Generator: SVG Find Mixer Tools -->
<svg fill="#000000" width="800px" height="800px" version="1.1" viewBox="144 144 512 512" xmlns="http://www.w3.org/2000/svg">
 <g>
  <path d="m245.07 212.06c-1.4297 1.5234-2.1914 3.5547-2.1211 5.6406 0.066406 2.0898 0.96484 4.0625 2.4883 5.4883l57.465 53.797 0.003906 0.003907c3.1719 2.9688 8.1523 2.8047 11.125-0.36719 2.9727-3.1758 2.8086-8.1562-0.36328-11.129l-57.465-53.797h-0.003906c-1.5234-1.4297-3.5508-2.1914-5.6406-2.125-2.0859 0.066406-4.0625 0.96094-5.4883 2.4883z"/>
  <path d="m581.05 263.02c2.9727 3.1719 7.9531 3.3359 11.125 0.36328 7.6094-7.1406 12.074-17.004 12.422-27.434 0.34375-10.43-3.4609-20.57-10.582-28.199-2.9844-3.125-7.9336-3.2578-11.082-0.29688-3.1523 2.9648-3.3242 7.9102-0.38672 11.082 4.2812 4.5742 6.5703 10.66 6.3633 16.922-0.20703 6.2617-2.8906 12.184-7.4648 16.465-3.1641 2.9609-3.3398 7.9219-0.39453 11.098z"/>
  <path d="m329.15 503.12 6.8086 3.9375h0.003907c5.4258 3.1328 11.879 3.9844 17.93 2.3594 6.0547-1.625 11.215-5.5898 14.344-11.02l23.617-40.934c3.1328-5.4297 3.9844-11.879 2.3594-17.934s-5.5898-11.215-11.02-14.344l-6.8086-3.9375v0.003906c-7.2344-4.168-15.828-5.293-23.895-3.1328-8.0625 2.1602-14.941 7.4336-19.125 14.656l-15.742 27.277h-0.003906c-4.1914 7.2383-5.332 15.848-3.168 23.926 2.1641 8.0781 7.4531 14.969 14.699 19.141zm31.488-70.281c2.7656-0.003906 5.4805 0.71875 7.875 2.1016l6.8086 3.9375c3.7656 2.1719 5.0547 6.9883 2.8789 10.754l-23.617 40.934h0.003907c-1.043 1.8086-2.7617 3.1289-4.7773 3.6719-2.0195 0.54297-4.168 0.26172-5.9766-0.78125l-6.8086-3.9375c-2.4102-1.3516-4.4102-3.3281-5.7852-5.7227-1.3789-2.3945-2.0781-5.1172-2.0312-7.8789l4.9375 2.8516-0.003906-0.003906c1.8086 1.0625 3.9648 1.3555 5.9922 0.82031 2.0273-0.53516 3.7578-1.8594 4.8086-3.6758 1.0469-1.8164 1.3281-3.9727 0.77734-5.9961-0.54688-2.0234-1.8828-3.7461-3.707-4.7812l-6.8164-3.9375 7.8711-13.633 6.8242 3.9375 0.003906-0.003906c3.7656 2.1758 8.582 0.88281 10.754-2.8828 2.1758-3.7695 0.88281-8.5859-2.8828-10.758l-5-2.9141c2.3945-1.3789 5.1094-2.1094 7.8711-2.1172z"/>
  <path d="m411.8 396.35 6.8164 3.9375 0.003906-0.003906c-5.2188 9.043-6.6328 19.785-3.9297 29.867 2.7031 10.086 9.3008 18.68 18.344 23.898 1.8086 1.0625 3.9648 1.3555 5.9922 0.82031 2.0273-0.53516 3.7578-1.8594 4.8047-3.6758 1.0469-1.8125 1.3281-3.9727 0.78125-5.9961-0.55078-2.0234-1.8867-3.7461-3.707-4.7812-5.4336-3.1289-9.3945-8.2891-11.02-14.344-1.625-6.0547-0.77734-12.504 2.3594-17.934l5.9023-10.234 1.9688-3.4102 6.8164 3.9375v0.003906c9.043 5.2188 19.785 6.6328 29.867 3.9297 10.086-2.6992 18.68-9.2969 23.902-18.336 1.043-1.8086 1.3281-3.9609 0.78906-5.9805-0.54297-2.0156-1.8633-3.7383-3.6719-4.7812l-20.469-11.809c-5.6562-3.2305-12.18-4.6289-18.664-3.9961-6.4883 0.63281-12.617 3.2617-17.547 7.5234-2.7305-5.6641-7.1055-10.371-12.555-13.508l-20.469-11.809c-1.8086-1.043-3.957-1.3242-5.9727-0.78516-2.0195 0.54297-3.7383 1.8633-4.7773 3.6719-5.2148 9.0508-6.6211 19.797-3.9141 29.883s9.3086 18.684 18.348 23.91zm57.703-21.254 12.461 7.1953v-0.003906c-3.7109 3.1758-8.3125 5.1172-13.176 5.5664-4.8633 0.44922-9.7461-0.62109-13.973-3.0625l-6.8164-3.9375v0.003907c2.0898-3.6133 5.5352-6.2461 9.5703-7.3242 4.0312-1.0742 8.3281-0.5 11.941 1.5898zm-61.246-17.184 12.469 7.1953 0.003906-0.003907c3.6172 2.0898 6.2539 5.5312 7.332 9.5664 1.082 4.0352 0.51172 8.332-1.5781 11.949l-6.8086-3.9375c-4.2188-2.4453-7.582-6.1367-9.6211-10.562-2.043-4.4297-2.668-9.3828-1.7852-14.18z"/>
  <path d="m352.77 392.12c6.2656 0 12.27-2.4883 16.699-6.9141 4.4297-4.4297 6.918-10.438 6.918-16.699 0-9.1719-7.3672-39.359-23.617-39.359-16.246 0-23.617 30.188-23.617 39.359 0 6.2617 2.4883 12.27 6.918 16.699 4.4297 4.4258 10.438 6.9141 16.699 6.9141zm0-46.57c4.5156 6.8672 7.2227 14.762 7.8711 22.957 0 4.3477-3.5234 7.8711-7.8711 7.8711s-7.8711-3.5234-7.8711-7.8711c0.64844-8.1953 3.3555-16.09 7.8711-22.957z"/>
  <path d="m439.36 321.28c0 4.3477-3.5234 7.8711-7.8711 7.8711-4.3477 0-7.875-3.5234-7.875-7.8711s3.5273-7.8711 7.875-7.8711c4.3477 0 7.8711 3.5234 7.8711 7.8711"/>
  <path d="m392.12 313.41c0 4.3477-3.5234 7.8711-7.8711 7.8711s-7.8711-3.5234-7.8711-7.8711 3.5234-7.8711 7.8711-7.8711 7.8711 3.5234 7.8711 7.8711"/>
  <path d="m486.59 447.23c0 4.3477-3.5234 7.8711-7.8711 7.8711s-7.8711-3.5234-7.8711-7.8711c0-4.3477 3.5234-7.8711 7.8711-7.8711s7.8711 3.5234 7.8711 7.8711"/>
  <path d="m321.28 415.74c0 4.3477-3.5234 7.8711-7.8711 7.8711s-7.8711-3.5234-7.8711-7.8711c0-4.3477 3.5234-7.8711 7.8711-7.8711s7.8711 3.5234 7.8711 7.8711"/>
  <path d="m407.87 494.46c0 4.3477-3.5234 7.875-7.8711 7.875s-7.875-3.5273-7.875-7.875c0-4.3477 3.5273-7.8711 7.875-7.8711s7.8711 3.5234 7.8711 7.8711"/>
  <path d="m475.31 511.78c-6.2266-10.828-10.41-22.711-12.332-35.055-0.42578-2.5586-2.0781-4.7422-4.4258-5.8438-2.3477-1.1016-5.0859-0.97656-7.3203 0.33203-23.23 13.664-39.516 36.602-44.762 63.031-27.949-9.5664-58.77-5.4688-83.246 11.078-24.477 16.547-39.77 43.621-41.305 73.121-0.16797 3.1172 1.5156 6.0391 4.2969 7.4492 23.984 12.242 52.062 13.629 77.137 3.8125 25.074-9.8164 44.746-29.898 54.043-55.172 1.5039-4.0781-0.58594-8.6055-4.668-10.105-4.0781-1.5039-8.6055 0.58594-10.105 4.668-4.8984 13.262-13.285 24.957-24.277 33.848-5.8633-19.723-16.285-37.793-30.426-52.742 19.969-7.6484 42.188-6.8633 61.566 2.1836 2.3281 1.0859 5.0391 0.96484 7.2617-0.31641 2.2266-1.2852 3.6836-3.5742 3.9102-6.1328 1.8555-21.5 12.43-41.305 29.258-54.812 5.293 20.062 15.859 38.336 30.605 52.93-13.668 5.3594-28.57 6.7695-43.004 4.0703-4.2734-0.79688-8.3867 2.0156-9.1875 6.293-0.79688 4.2734 2.0195 8.3867 6.293 9.1836 21.848 4.0625 44.434 0.27344 63.762-10.695 2.2578-1.2891 3.7344-3.6055 3.9453-6.1953 0.21484-2.5898-0.86719-5.1172-2.8828-6.7539-9.7031-7.8359-17.883-17.387-24.137-28.176zm-110.85 100.05c-20.691 10.543-44.992 11.363-66.348 2.2422 2.7773-23.055 15.637-43.691 35.109-56.34 15.227 14.789 26.039 33.52 31.238 54.098z"/>
  <path d="m317.45 584.72c-2.7578 1.5938-4.2852 4.6875-3.8711 7.8438 0.41797 3.1602 2.6953 5.7539 5.7695 6.5781 3.0742 0.82422 6.3438-0.28516 8.2812-2.8125 1.9375-2.5234 2.1641-5.9688 0.57422-8.7266-2.1758-3.7656-6.9883-5.0547-10.754-2.8828z"/>
  <path d="m617.03 186.27c-12.84-13.715-30.605-21.77-49.383-22.391-18.777-0.61719-37.031 6.2461-50.75 19.086l-91.961 86.07c-3.1719 2.9688-3.3398 7.9492-0.37109 11.125l86.082 91.953c1.4336 1.5273 3.4141 2.4219 5.5078 2.4844h0.26172c2 0.003907 3.9258-0.75781 5.3828-2.125l29.125-27.254 0.003907 0.003906c3.1719-2.9727 3.3359-7.9531 0.36328-11.129-2.9688-3.1719-7.9531-3.3359-11.125-0.36719l-23.363 21.867-75.32-80.453 86.176-80.684c10.621-10.242 24.906-15.797 39.66-15.422 14.75 0.37891 28.734 6.6602 38.82 17.43 10.082 10.773 15.426 25.145 14.828 39.887-0.59766 14.746-7.082 28.633-18.004 38.555l-39.832 37.297-0.003906 0.003907c-3.1719 2.9688-3.3359 7.9531-0.36328 11.125 2.9688 3.1758 7.9531 3.3398 11.125 0.36719l39.832-37.297c13.699-12.852 21.742-30.609 22.359-49.383 0.62109-18.773-6.2305-37.023-19.051-50.75z"/>
  <path d="m283.86 374.6c2.0938-0.0625 4.0781-0.95703 5.5078-2.4844l86.059-91.953c2.9688-3.1758 2.8008-8.1562-0.37109-11.125l-30.164-28.211c-3.1758-2.9727-8.1562-2.8086-11.129 0.36328-2.9688 3.1758-2.8047 8.1562 0.36719 11.129l24.402 22.828-75.32 80.453-86.18-80.691c-10.922-9.9219-17.41-23.809-18.004-38.555-0.59766-14.742 4.7422-29.113 14.828-39.887 10.082-10.77 24.066-17.051 38.816-17.43 14.754-0.375 29.039 5.1797 39.664 15.422l38.816 36.289c3.1719 2.9727 8.1523 2.8086 11.125-0.36719 2.9727-3.1719 2.8086-8.1562-0.36719-11.125l-38.816-36.289c-13.664-13.117-32.016-20.215-50.953-19.711-18.938 0.50781-36.883 8.5781-49.828 22.406-12.945 13.832-19.812 32.27-19.07 51.199 0.74609 18.926 9.0352 36.77 23.027 49.543l91.945 86.078c1.4609 1.3672 3.3828 2.1289 5.3828 2.125z"/>
 </g>
</svg>