<svg xmlns="http://www.w3.org/2000/svg" xmlns:xlink="http://www.w3.org/1999/xlink" width="500" zoomAndPan="magnify" viewBox="0 0 375 374.999991" height="500" preserveAspectRatio="xMidYMid meet" version="1.0"><defs><clipPath id="92ffa83402"><path d="M 38 114.132812 L 337 114.132812 L 337 331 L 38 331 Z M 38 114.132812 " clip-rule="nonzero"/></clipPath></defs><g clip-path="url(#92ffa83402)"><path fill="#3b5998" d="M 336.726562 241.671875 C 336.429688 239.402344 335.984375 237.164062 335.386719 234.953125 C 334.792969 232.742188 334.054688 230.582031 333.171875 228.472656 C 332.292969 226.359375 331.273438 224.316406 330.121094 222.339844 C 328.96875 220.363281 327.6875 218.472656 326.285156 216.667969 C 324.878906 214.859375 323.359375 213.15625 321.730469 211.550781 C 320.097656 209.945312 318.367188 208.457031 316.539062 207.082031 C 314.707031 205.707031 312.796875 204.460938 310.800781 203.339844 C 308.804688 202.21875 306.746094 201.234375 304.621094 200.390625 C 305.460938 199.730469 306.265625 199.035156 307.03125 198.292969 C 307.800781 197.554688 308.527344 196.777344 309.214844 195.960938 C 309.90625 195.144531 310.546875 194.296875 311.148438 193.414062 C 311.75 192.535156 312.300781 191.625 312.808594 190.683594 C 313.3125 189.746094 313.769531 188.785156 314.175781 187.796875 C 314.582031 186.8125 314.9375 185.808594 315.242188 184.785156 C 315.542969 183.761719 315.792969 182.726562 315.988281 181.675781 C 316.183594 180.628906 316.324219 179.574219 316.410156 178.511719 C 316.5 177.445312 316.53125 176.382812 316.507812 175.316406 C 316.484375 174.25 316.40625 173.1875 316.273438 172.128906 C 316.136719 171.070312 315.949219 170.023438 315.710938 168.984375 C 315.46875 167.945312 315.171875 166.921875 314.824219 165.914062 C 314.480469 164.902344 314.082031 163.917969 313.632812 162.949219 C 313.179688 161.980469 312.683594 161.039062 312.136719 160.125 C 311.589844 159.207031 310.996094 158.324219 310.359375 157.46875 C 309.722656 156.613281 309.039062 155.796875 308.316406 155.011719 C 307.59375 154.226562 306.832031 153.480469 306.035156 152.777344 C 305.234375 152.070312 304.398438 151.410156 303.53125 150.789062 C 302.664062 150.167969 301.765625 149.597656 300.835938 149.070312 C 299.910156 148.542969 298.957031 148.066406 297.980469 147.636719 C 297.003906 147.210938 296.007812 146.832031 294.992188 146.507812 C 293.976562 146.183594 292.945312 145.910156 291.902344 145.691406 C 290.859375 145.472656 289.804688 145.308594 288.746094 145.199219 C 287.683594 145.089844 286.621094 145.035156 285.554688 145.035156 C 284.488281 145.035156 283.421875 145.089844 282.363281 145.199219 C 281.300781 145.308594 280.25 145.472656 279.203125 145.691406 C 278.160156 145.910156 277.132812 146.183594 276.113281 146.507812 C 275.097656 146.832031 274.101562 147.210938 273.125 147.636719 C 272.148438 148.066406 271.195312 148.542969 270.269531 149.070312 C 269.339844 149.597656 268.445312 150.167969 267.574219 150.789062 C 266.707031 151.410156 265.871094 152.070312 265.074219 152.777344 C 264.273438 153.480469 263.511719 154.226562 262.789062 155.011719 C 262.066406 155.796875 261.386719 156.613281 260.746094 157.46875 C 260.109375 158.324219 259.515625 159.207031 258.96875 160.125 C 258.421875 161.039062 257.925781 161.980469 257.476562 162.949219 C 257.027344 163.917969 256.628906 164.902344 256.28125 165.914062 C 255.933594 166.921875 255.636719 167.945312 255.398438 168.984375 C 255.15625 170.023438 254.96875 171.070312 254.835938 172.128906 C 254.703125 173.1875 254.625 174.25 254.601562 175.316406 C 254.578125 176.382812 254.609375 177.445312 254.695312 178.511719 C 254.78125 179.574219 254.921875 180.628906 255.117188 181.675781 C 255.3125 182.726562 255.5625 183.761719 255.867188 184.785156 C 256.167969 185.808594 256.523438 186.8125 256.929688 187.796875 C 257.335938 188.785156 257.792969 189.746094 258.296875 190.683594 C 258.804688 191.625 259.359375 192.535156 259.957031 193.414062 C 260.558594 194.296875 261.203125 195.144531 261.890625 195.960938 C 262.578125 196.777344 263.304688 197.554688 264.074219 198.292969 C 264.839844 199.035156 265.644531 199.730469 266.488281 200.390625 C 261.820312 202.230469 257.519531 204.699219 253.578125 207.800781 C 249.640625 210.90625 246.226562 214.507812 243.34375 218.609375 C 238.789062 214.390625 233.824219 210.730469 228.445312 207.632812 C 223.066406 204.535156 217.410156 202.074219 211.472656 200.253906 C 212.191406 199.820312 212.898438 199.371094 213.589844 198.898438 C 214.285156 198.429688 214.964844 197.9375 215.632812 197.429688 C 216.300781 196.921875 216.953125 196.398438 217.589844 195.855469 C 218.230469 195.308594 218.851562 194.75 219.460938 194.171875 C 220.070312 193.597656 220.664062 193.003906 221.238281 192.394531 C 221.816406 191.785156 222.375 191.160156 222.917969 190.519531 C 223.457031 189.882812 223.984375 189.226562 224.492188 188.558594 C 224.996094 187.894531 225.484375 187.210938 225.957031 186.515625 C 226.425781 185.824219 226.875 185.117188 227.308594 184.398438 C 227.742188 183.679688 228.152344 182.949219 228.542969 182.207031 C 228.9375 181.46875 229.308594 180.714844 229.660156 179.953125 C 230.011719 179.195312 230.34375 178.421875 230.652344 177.644531 C 230.960938 176.867188 231.25 176.078125 231.519531 175.285156 C 231.785156 174.488281 232.03125 173.6875 232.253906 172.878906 C 232.480469 172.070312 232.679688 171.257812 232.859375 170.4375 C 233.039062 169.621094 233.199219 168.796875 233.332031 167.96875 C 233.46875 167.140625 233.582031 166.3125 233.671875 165.476562 C 233.761719 164.644531 233.828125 163.808594 233.875 162.972656 C 233.917969 162.132812 233.941406 161.296875 233.941406 160.457031 C 233.941406 159.621094 233.917969 158.78125 233.871094 157.945312 C 233.828125 157.105469 233.757812 156.273438 233.667969 155.4375 C 233.574219 154.605469 233.460938 153.773438 233.328125 152.945312 C 233.191406 152.121094 233.03125 151.296875 232.851562 150.476562 C 232.671875 149.660156 232.46875 148.847656 232.242188 148.039062 C 232.019531 147.230469 231.773438 146.429688 231.503906 145.632812 C 231.238281 144.839844 230.949219 144.054688 230.636719 143.273438 C 230.324219 142.496094 229.996094 141.726562 229.640625 140.964844 C 229.289062 140.203125 228.917969 139.453125 228.523438 138.714844 C 228.132812 137.972656 227.71875 137.242188 227.285156 136.523438 C 226.855469 135.804688 226.402344 135.101562 225.929688 134.40625 C 225.460938 133.710938 224.972656 133.03125 224.464844 132.363281 C 223.957031 131.699219 223.429688 131.042969 222.886719 130.40625 C 222.34375 129.765625 221.785156 129.144531 221.207031 128.535156 C 220.632812 127.925781 220.039062 127.332031 219.429688 126.757812 C 218.820312 126.179688 218.195312 125.621094 217.558594 125.078125 C 216.917969 124.535156 216.265625 124.011719 215.597656 123.503906 C 214.929688 122.996094 214.25 122.507812 213.554688 122.035156 C 212.863281 121.566406 212.15625 121.113281 211.4375 120.683594 C 210.71875 120.25 209.988281 119.839844 209.246094 119.445312 C 208.507812 119.050781 207.753906 118.679688 206.996094 118.328125 C 206.234375 117.976562 205.464844 117.644531 204.683594 117.335938 C 203.90625 117.023438 203.117188 116.734375 202.324219 116.46875 C 201.53125 116.199219 200.730469 115.953125 199.921875 115.730469 C 199.113281 115.507812 198.300781 115.304688 197.480469 115.125 C 196.660156 114.945312 195.839844 114.785156 195.011719 114.648438 C 194.183594 114.515625 193.351562 114.402344 192.519531 114.3125 C 191.6875 114.21875 190.851562 114.152344 190.011719 114.105469 C 189.175781 114.0625 188.339844 114.039062 187.5 114.039062 C 186.660156 114.039062 185.824219 114.0625 184.988281 114.105469 C 184.148438 114.152344 183.3125 114.21875 182.480469 114.3125 C 181.648438 114.402344 180.816406 114.515625 179.988281 114.648438 C 179.160156 114.785156 178.339844 114.945312 177.519531 115.125 C 176.699219 115.304688 175.886719 115.507812 175.078125 115.730469 C 174.269531 115.953125 173.46875 116.199219 172.675781 116.46875 C 171.882812 116.734375 171.09375 117.023438 170.316406 117.335938 C 169.535156 117.644531 168.765625 117.976562 168.003906 118.328125 C 167.246094 118.679688 166.492188 119.050781 165.753906 119.445312 C 165.011719 119.839844 164.28125 120.25 163.5625 120.683594 C 162.84375 121.113281 162.140625 121.566406 161.445312 122.035156 C 160.75 122.507812 160.070312 122.996094 159.402344 123.503906 C 158.734375 124.011719 158.082031 124.535156 157.441406 125.078125 C 156.804688 125.621094 156.179688 126.179688 155.570312 126.757812 C 154.960938 127.332031 154.367188 127.925781 153.792969 128.535156 C 153.214844 129.144531 152.65625 129.765625 152.113281 130.40625 C 151.570312 131.042969 151.042969 131.699219 150.535156 132.363281 C 150.027344 133.03125 149.539062 133.710938 149.070312 134.40625 C 148.597656 135.101562 148.144531 135.804688 147.714844 136.523438 C 147.28125 137.242188 146.867188 137.972656 146.476562 138.714844 C 146.082031 139.453125 145.710938 140.203125 145.359375 140.964844 C 145.003906 141.726562 144.675781 142.496094 144.363281 143.273438 C 144.050781 144.054688 143.761719 144.839844 143.496094 145.632812 C 143.226562 146.429688 142.980469 147.230469 142.757812 148.039062 C 142.53125 148.847656 142.328125 149.660156 142.148438 150.476562 C 141.96875 151.296875 141.808594 152.121094 141.671875 152.945312 C 141.539062 153.773438 141.425781 154.605469 141.332031 155.4375 C 141.242188 156.273438 141.171875 157.105469 141.128906 157.945312 C 141.082031 158.78125 141.058594 159.621094 141.058594 160.457031 C 141.058594 161.296875 141.082031 162.132812 141.125 162.972656 C 141.171875 163.808594 141.238281 164.644531 141.328125 165.476562 C 141.417969 166.3125 141.53125 167.140625 141.667969 167.96875 C 141.800781 168.796875 141.960938 169.621094 142.140625 170.4375 C 142.320312 171.257812 142.519531 172.070312 142.746094 172.878906 C 142.96875 173.6875 143.214844 174.488281 143.480469 175.285156 C 143.75 176.078125 144.039062 176.867188 144.347656 177.644531 C 144.65625 178.421875 144.988281 179.195312 145.339844 179.953125 C 145.691406 180.714844 146.0625 181.46875 146.457031 182.207031 C 146.847656 182.949219 147.257812 183.679688 147.691406 184.398438 C 148.125 185.117188 148.574219 185.824219 149.042969 186.515625 C 149.515625 187.210938 150.003906 187.894531 150.507812 188.558594 C 151.015625 189.226562 151.542969 189.882812 152.082031 190.519531 C 152.625 191.160156 153.183594 191.785156 153.761719 192.394531 C 154.335938 193.003906 154.929688 193.597656 155.539062 194.171875 C 156.148438 194.75 156.769531 195.308594 157.410156 195.855469 C 158.046875 196.398438 158.699219 196.921875 159.367188 197.429688 C 160.035156 197.9375 160.714844 198.429688 161.410156 198.898438 C 162.101562 199.371094 162.808594 199.820312 163.527344 200.253906 C 157.589844 202.074219 151.933594 204.535156 146.554688 207.632812 C 141.175781 210.730469 136.210938 214.390625 131.65625 218.609375 C 128.773438 214.507812 125.359375 210.90625 121.421875 207.800781 C 117.480469 204.699219 113.179688 202.230469 108.511719 200.390625 C 109.355469 199.730469 110.160156 199.035156 110.925781 198.292969 C 111.695312 197.554688 112.421875 196.777344 113.109375 195.960938 C 113.796875 195.144531 114.441406 194.296875 115.042969 193.414062 C 115.640625 192.535156 116.195312 191.625 116.703125 190.683594 C 117.207031 189.746094 117.664062 188.785156 118.070312 187.796875 C 118.476562 186.8125 118.832031 185.808594 119.132812 184.785156 C 119.4375 183.761719 119.6875 182.726562 119.882812 181.675781 C 120.078125 180.628906 120.21875 179.574219 120.304688 178.511719 C 120.390625 177.445312 120.421875 176.382812 120.398438 175.316406 C 120.375 174.25 120.296875 173.1875 120.164062 172.128906 C 120.03125 171.070312 119.84375 170.023438 119.601562 168.984375 C 119.363281 167.945312 119.066406 166.921875 118.71875 165.914062 C 118.371094 164.902344 117.972656 163.917969 117.523438 162.949219 C 117.074219 161.980469 116.578125 161.039062 116.03125 160.125 C 115.484375 159.207031 114.890625 158.324219 114.253906 157.46875 C 113.613281 156.613281 112.933594 155.796875 112.210938 155.011719 C 111.488281 154.226562 110.726562 153.480469 109.925781 152.777344 C 109.128906 152.070312 108.292969 151.410156 107.425781 150.789062 C 106.554688 150.167969 105.660156 149.597656 104.730469 149.070312 C 103.804688 148.542969 102.851562 148.066406 101.875 147.636719 C 100.898438 147.210938 99.902344 146.832031 98.886719 146.507812 C 97.867188 146.183594 96.839844 145.910156 95.796875 145.691406 C 94.75 145.472656 93.699219 145.308594 92.636719 145.199219 C 91.578125 145.089844 90.511719 145.035156 89.445312 145.035156 C 88.378906 145.035156 87.316406 145.089844 86.253906 145.199219 C 85.195312 145.308594 84.140625 145.472656 83.097656 145.691406 C 82.054688 145.910156 81.023438 146.183594 80.007812 146.507812 C 78.992188 146.832031 77.996094 147.210938 77.019531 147.636719 C 76.042969 148.066406 75.089844 148.542969 74.164062 149.070312 C 73.234375 149.597656 72.335938 150.167969 71.46875 150.789062 C 70.601562 151.410156 69.765625 152.070312 68.96875 152.777344 C 68.167969 153.480469 67.40625 154.226562 66.683594 155.011719 C 65.960938 155.796875 65.277344 156.613281 64.640625 157.46875 C 64.003906 158.324219 63.410156 159.207031 62.863281 160.125 C 62.316406 161.039062 61.820312 161.980469 61.367188 162.949219 C 60.917969 163.917969 60.519531 164.902344 60.175781 165.914062 C 59.828125 166.921875 59.53125 167.945312 59.289062 168.984375 C 59.050781 170.023438 58.863281 171.070312 58.726562 172.128906 C 58.59375 173.1875 58.515625 174.25 58.492188 175.316406 C 58.46875 176.382812 58.5 177.445312 58.589844 178.511719 C 58.675781 179.574219 58.816406 180.628906 59.011719 181.675781 C 59.207031 182.726562 59.457031 183.761719 59.757812 184.785156 C 60.0625 185.808594 60.417969 186.8125 60.824219 187.796875 C 61.230469 188.785156 61.6875 189.746094 62.191406 190.683594 C 62.699219 191.625 63.25 192.535156 63.851562 193.414062 C 64.453125 194.296875 65.09375 195.144531 65.785156 195.960938 C 66.472656 196.777344 67.199219 197.554688 67.96875 198.292969 C 68.734375 199.035156 69.539062 199.730469 70.378906 200.390625 C 68.253906 201.234375 66.195312 202.21875 64.199219 203.339844 C 62.203125 204.460938 60.292969 205.707031 58.460938 207.082031 C 56.632812 208.457031 54.902344 209.945312 53.269531 211.550781 C 51.640625 213.15625 50.121094 214.859375 48.714844 216.667969 C 47.3125 218.472656 46.03125 220.363281 44.878906 222.339844 C 43.726562 224.316406 42.707031 226.359375 41.828125 228.472656 C 40.945312 230.582031 40.207031 232.742188 39.613281 234.953125 C 39.015625 237.164062 38.570312 239.402344 38.273438 241.671875 C 38.183594 242.40625 38.171875 243.148438 38.238281 243.886719 C 38.300781 244.628906 38.445312 245.355469 38.664062 246.0625 C 38.886719 246.773438 39.179688 247.453125 39.542969 248.101562 C 39.90625 248.75 40.335938 249.351562 40.828125 249.910156 C 41.320312 250.46875 41.867188 250.964844 42.464844 251.40625 C 43.0625 251.847656 43.703125 252.222656 44.378906 252.527344 C 45.058594 252.832031 45.757812 253.0625 46.484375 253.222656 C 47.214844 253.378906 47.949219 253.457031 48.691406 253.457031 L 109.121094 253.457031 C 106.339844 261.832031 104.945312 270.429688 104.9375 279.257812 L 104.9375 284.417969 C 104.9375 285.09375 105.003906 285.765625 105.136719 286.429688 C 105.269531 287.09375 105.464844 287.738281 105.722656 288.367188 C 105.984375 288.992188 106.300781 289.585938 106.675781 290.152344 C 107.054688 290.714844 107.480469 291.234375 107.960938 291.714844 C 108.441406 292.195312 108.960938 292.621094 109.523438 292.996094 C 110.085938 293.375 110.683594 293.691406 111.308594 293.953125 C 111.933594 294.210938 112.578125 294.40625 113.246094 294.539062 C 113.910156 294.671875 114.582031 294.738281 115.257812 294.738281 L 157.21875 294.738281 L 152.058594 324.832031 C 151.980469 325.304688 151.964844 325.78125 152.019531 326.257812 C 152.070312 326.738281 152.1875 327.199219 152.371094 327.644531 C 152.550781 328.089844 152.789062 328.5 153.085938 328.878906 C 153.382812 329.257812 153.726562 329.585938 154.117188 329.871094 C 154.503906 330.152344 154.925781 330.375 155.375 330.539062 C 155.828125 330.707031 156.292969 330.804688 156.773438 330.839844 C 157.25 330.875 157.726562 330.84375 158.199219 330.746094 C 158.667969 330.648438 159.117188 330.488281 159.542969 330.265625 L 187.5 315.585938 L 215.441406 330.265625 C 215.867188 330.488281 216.316406 330.648438 216.785156 330.746094 C 217.257812 330.84375 217.734375 330.875 218.210938 330.839844 C 218.691406 330.804688 219.15625 330.707031 219.609375 330.539062 C 220.058594 330.375 220.480469 330.152344 220.867188 329.871094 C 221.257812 329.585938 221.601562 329.257812 221.898438 328.878906 C 222.195312 328.5 222.433594 328.089844 222.613281 327.644531 C 222.796875 327.199219 222.914062 326.738281 222.964844 326.257812 C 223.019531 325.78125 223.003906 325.304688 222.925781 324.832031 L 217.765625 294.738281 L 259.742188 294.738281 C 260.417969 294.738281 261.089844 294.671875 261.753906 294.539062 C 262.421875 294.40625 263.066406 294.210938 263.691406 293.953125 C 264.316406 293.691406 264.914062 293.375 265.476562 292.996094 C 266.039062 292.621094 266.558594 292.195312 267.039062 291.714844 C 267.519531 291.234375 267.945312 290.714844 268.324219 290.152344 C 268.699219 289.585938 269.015625 288.992188 269.277344 288.367188 C 269.535156 287.738281 269.730469 287.09375 269.863281 286.429688 C 269.996094 285.765625 270.0625 285.09375 270.0625 284.417969 L 270.0625 279.257812 C 270.054688 270.429688 268.660156 261.832031 265.878906 253.457031 L 326.308594 253.457031 C 327.050781 253.457031 327.789062 253.378906 328.515625 253.222656 C 329.242188 253.066406 329.945312 252.835938 330.625 252.53125 C 331.304688 252.226562 331.945312 251.855469 332.542969 251.414062 C 333.140625 250.972656 333.6875 250.472656 334.183594 249.914062 C 334.675781 249.359375 335.105469 248.753906 335.46875 248.105469 C 335.835938 247.457031 336.128906 246.777344 336.347656 246.066406 C 336.570312 245.355469 336.710938 244.632812 336.777344 243.890625 C 336.84375 243.148438 336.832031 242.410156 336.742188 241.671875 Z M 264.902344 176.054688 C 264.902344 175.378906 264.933594 174.703125 265 174.03125 C 265.066406 173.359375 265.167969 172.691406 265.296875 172.027344 C 265.429688 171.363281 265.59375 170.710938 265.789062 170.0625 C 265.988281 169.414062 266.214844 168.78125 266.472656 168.15625 C 266.730469 167.53125 267.019531 166.921875 267.339844 166.324219 C 267.65625 165.726562 268.003906 165.148438 268.378906 164.585938 C 268.757812 164.023438 269.160156 163.480469 269.585938 162.960938 C 270.015625 162.4375 270.46875 161.9375 270.949219 161.457031 C 271.425781 160.980469 271.925781 160.527344 272.449219 160.097656 C 272.972656 159.667969 273.511719 159.265625 274.074219 158.890625 C 274.636719 158.515625 275.214844 158.167969 275.8125 157.851562 C 276.410156 157.53125 277.019531 157.242188 277.644531 156.984375 C 278.269531 156.726562 278.902344 156.5 279.550781 156.300781 C 280.199219 156.105469 280.851562 155.941406 281.515625 155.808594 C 282.179688 155.679688 282.847656 155.578125 283.519531 155.511719 C 284.191406 155.445312 284.867188 155.414062 285.542969 155.414062 C 286.21875 155.414062 286.894531 155.445312 287.566406 155.511719 C 288.238281 155.578125 288.90625 155.679688 289.570312 155.808594 C 290.234375 155.941406 290.886719 156.105469 291.535156 156.300781 C 292.179688 156.5 292.816406 156.726562 293.441406 156.984375 C 294.066406 157.242188 294.675781 157.53125 295.273438 157.851562 C 295.867188 158.167969 296.449219 158.515625 297.011719 158.890625 C 297.570312 159.265625 298.113281 159.667969 298.636719 160.097656 C 299.160156 160.527344 299.660156 160.980469 300.136719 161.457031 C 300.617188 161.9375 301.070312 162.4375 301.5 162.960938 C 301.925781 163.480469 302.328125 164.023438 302.703125 164.585938 C 303.082031 165.148438 303.425781 165.726562 303.746094 166.324219 C 304.066406 166.921875 304.351562 167.53125 304.613281 168.15625 C 304.871094 168.78125 305.097656 169.414062 305.292969 170.0625 C 305.492188 170.710938 305.65625 171.363281 305.785156 172.027344 C 305.917969 172.691406 306.019531 173.359375 306.082031 174.03125 C 306.148438 174.703125 306.183594 175.378906 306.183594 176.054688 C 306.183594 176.730469 306.148438 177.402344 306.082031 178.078125 C 306.019531 178.75 305.917969 179.417969 305.785156 180.082031 C 305.65625 180.742188 305.492188 181.398438 305.292969 182.046875 C 305.097656 182.691406 304.871094 183.328125 304.613281 183.953125 C 304.351562 184.578125 304.066406 185.1875 303.746094 185.785156 C 303.425781 186.378906 303.082031 186.957031 302.703125 187.519531 C 302.328125 188.082031 301.925781 188.625 301.5 189.148438 C 301.070312 189.671875 300.617188 190.171875 300.136719 190.648438 C 299.660156 191.125 299.160156 191.582031 298.636719 192.007812 C 298.113281 192.4375 297.570312 192.839844 297.011719 193.214844 C 296.449219 193.589844 295.867188 193.9375 295.273438 194.257812 C 294.675781 194.574219 294.066406 194.863281 293.441406 195.125 C 292.816406 195.382812 292.179688 195.609375 291.535156 195.804688 C 290.886719 196 290.234375 196.164062 289.570312 196.296875 C 288.90625 196.429688 288.238281 196.527344 287.566406 196.59375 C 286.894531 196.660156 286.21875 196.695312 285.542969 196.695312 C 284.867188 196.695312 284.191406 196.660156 283.519531 196.59375 C 282.847656 196.527344 282.179688 196.429688 281.515625 196.296875 C 280.851562 196.164062 280.199219 196 279.550781 195.804688 C 278.902344 195.609375 278.269531 195.382812 277.644531 195.125 C 277.019531 194.863281 276.410156 194.574219 275.8125 194.257812 C 275.214844 193.9375 274.636719 193.589844 274.074219 193.214844 C 273.511719 192.839844 272.972656 192.4375 272.449219 192.007812 C 271.925781 191.582031 271.425781 191.125 270.949219 190.648438 C 270.46875 190.171875 270.015625 189.671875 269.585938 189.148438 C 269.160156 188.625 268.757812 188.082031 268.378906 187.519531 C 268.003906 186.957031 267.65625 186.378906 267.339844 185.785156 C 267.019531 185.1875 266.730469 184.578125 266.472656 183.953125 C 266.214844 183.328125 265.988281 182.691406 265.789062 182.046875 C 265.59375 181.398438 265.429688 180.742188 265.296875 180.082031 C 265.167969 179.417969 265.066406 178.75 265 178.078125 C 264.933594 177.402344 264.902344 176.730469 264.902344 176.054688 Z M 151.378906 160.574219 C 151.378906 159.390625 151.4375 158.210938 151.554688 157.03125 C 151.667969 155.855469 151.84375 154.6875 152.074219 153.527344 C 152.304688 152.367188 152.589844 151.21875 152.933594 150.089844 C 153.277344 148.957031 153.675781 147.84375 154.128906 146.75 C 154.582031 145.65625 155.085938 144.589844 155.644531 143.546875 C 156.203125 142.503906 156.808594 141.488281 157.464844 140.503906 C 158.125 139.523438 158.828125 138.574219 159.578125 137.660156 C 160.328125 136.742188 161.121094 135.867188 161.957031 135.03125 C 162.796875 134.195312 163.671875 133.402344 164.585938 132.652344 C 165.5 131.902344 166.449219 131.195312 167.433594 130.539062 C 168.414062 129.882812 169.429688 129.273438 170.472656 128.71875 C 171.515625 128.160156 172.585938 127.65625 173.675781 127.203125 C 174.769531 126.75 175.882812 126.351562 177.015625 126.007812 C 178.148438 125.664062 179.292969 125.378906 180.453125 125.144531 C 181.613281 124.914062 182.78125 124.742188 183.960938 124.625 C 185.136719 124.511719 186.316406 124.453125 187.5 124.453125 C 188.683594 124.453125 189.863281 124.511719 191.039062 124.625 C 192.21875 124.742188 193.386719 124.914062 194.546875 125.144531 C 195.707031 125.378906 196.851562 125.664062 197.984375 126.007812 C 199.117188 126.351562 200.230469 126.75 201.324219 127.203125 C 202.414062 127.65625 203.484375 128.160156 204.527344 128.71875 C 205.570312 129.273438 206.585938 129.882812 207.566406 130.539062 C 208.550781 131.195312 209.5 131.902344 210.414062 132.652344 C 211.328125 133.402344 212.203125 134.195312 213.042969 135.03125 C 213.878906 135.867188 214.671875 136.742188 215.421875 137.660156 C 216.171875 138.574219 216.875 139.523438 217.535156 140.503906 C 218.191406 141.488281 218.796875 142.503906 219.355469 143.546875 C 219.914062 144.589844 220.417969 145.65625 220.871094 146.75 C 221.324219 147.84375 221.722656 148.957031 222.066406 150.089844 C 222.410156 151.21875 222.695312 152.367188 222.925781 153.527344 C 223.15625 154.6875 223.332031 155.855469 223.445312 157.03125 C 223.5625 158.210938 223.621094 159.390625 223.621094 160.574219 C 223.621094 161.757812 223.5625 162.9375 223.445312 164.113281 C 223.332031 165.292969 223.15625 166.460938 222.925781 167.621094 C 222.695312 168.78125 222.410156 169.925781 222.066406 171.058594 C 221.722656 172.191406 221.324219 173.304688 220.871094 174.394531 C 220.417969 175.488281 219.914062 176.558594 219.355469 177.601562 C 218.796875 178.644531 218.191406 179.65625 217.535156 180.640625 C 216.875 181.625 216.171875 182.574219 215.421875 183.488281 C 214.671875 184.402344 213.878906 185.277344 213.042969 186.113281 C 212.203125 186.953125 211.328125 187.746094 210.414062 188.496094 C 209.5 189.246094 208.550781 189.949219 207.566406 190.605469 C 206.585938 191.265625 205.570312 191.871094 204.527344 192.429688 C 203.484375 192.988281 202.414062 193.492188 201.324219 193.945312 C 200.230469 194.398438 199.117188 194.796875 197.984375 195.140625 C 196.851562 195.480469 195.707031 195.769531 194.546875 196 C 193.386719 196.230469 192.21875 196.40625 191.039062 196.519531 C 189.863281 196.636719 188.683594 196.695312 187.5 196.695312 C 186.316406 196.691406 185.136719 196.632812 183.960938 196.515625 C 182.785156 196.398438 181.617188 196.226562 180.457031 195.992188 C 179.296875 195.761719 178.152344 195.472656 177.019531 195.128906 C 175.886719 194.785156 174.777344 194.386719 173.683594 193.933594 C 172.589844 193.480469 171.523438 192.976562 170.480469 192.417969 C 169.4375 191.859375 168.425781 191.25 167.441406 190.59375 C 166.457031 189.9375 165.511719 189.234375 164.597656 188.484375 C 163.683594 187.730469 162.808594 186.9375 161.96875 186.101562 C 161.132812 185.265625 160.339844 184.390625 159.589844 183.476562 C 158.839844 182.5625 158.136719 181.613281 157.480469 180.632812 C 156.820312 179.648438 156.214844 178.636719 155.65625 177.59375 C 155.097656 176.550781 154.59375 175.480469 154.140625 174.390625 C 153.6875 173.296875 153.289062 172.1875 152.945312 171.054688 C 152.597656 169.921875 152.3125 168.777344 152.078125 167.617188 C 151.847656 166.457031 151.671875 165.289062 151.554688 164.113281 C 151.441406 162.9375 151.378906 161.757812 151.378906 160.574219 Z M 68.816406 176.054688 C 68.816406 175.378906 68.851562 174.703125 68.914062 174.03125 C 68.980469 173.359375 69.082031 172.691406 69.214844 172.027344 C 69.34375 171.363281 69.507812 170.710938 69.707031 170.0625 C 69.902344 169.414062 70.128906 168.78125 70.386719 168.15625 C 70.644531 167.53125 70.933594 166.921875 71.253906 166.324219 C 71.574219 165.726562 71.917969 165.148438 72.296875 164.585938 C 72.671875 164.023438 73.074219 163.480469 73.5 162.960938 C 73.929688 162.4375 74.382812 161.9375 74.863281 161.457031 C 75.339844 160.980469 75.839844 160.527344 76.363281 160.097656 C 76.886719 159.667969 77.429688 159.265625 77.988281 158.890625 C 78.550781 158.515625 79.132812 158.167969 79.726562 157.851562 C 80.324219 157.53125 80.933594 157.242188 81.558594 156.984375 C 82.183594 156.726562 82.820312 156.5 83.464844 156.300781 C 84.113281 156.105469 84.765625 155.941406 85.429688 155.808594 C 86.09375 155.679688 86.761719 155.578125 87.433594 155.511719 C 88.105469 155.445312 88.78125 155.414062 89.457031 155.414062 C 90.132812 155.414062 90.808594 155.445312 91.480469 155.511719 C 92.152344 155.578125 92.820312 155.679688 93.484375 155.808594 C 94.148438 155.941406 94.800781 156.105469 95.449219 156.300781 C 96.097656 156.5 96.730469 156.726562 97.355469 156.984375 C 97.980469 157.242188 98.589844 157.53125 99.1875 157.851562 C 99.785156 158.167969 100.363281 158.515625 100.925781 158.890625 C 101.488281 159.265625 102.027344 159.667969 102.550781 160.097656 C 103.074219 160.527344 103.574219 160.980469 104.050781 161.457031 C 104.53125 161.9375 104.984375 162.4375 105.414062 162.960938 C 105.839844 163.480469 106.242188 164.023438 106.621094 164.585938 C 106.996094 165.148438 107.34375 165.726562 107.660156 166.324219 C 107.980469 166.921875 108.269531 167.53125 108.527344 168.15625 C 108.785156 168.78125 109.011719 169.414062 109.210938 170.0625 C 109.40625 170.710938 109.570312 171.363281 109.699219 172.027344 C 109.832031 172.691406 109.933594 173.359375 110 174.03125 C 110.066406 174.703125 110.097656 175.378906 110.097656 176.054688 C 110.097656 176.730469 110.066406 177.402344 110 178.078125 C 109.933594 178.75 109.832031 179.417969 109.699219 180.082031 C 109.570312 180.742188 109.40625 181.398438 109.210938 182.046875 C 109.011719 182.691406 108.785156 183.328125 108.527344 183.953125 C 108.269531 184.578125 107.980469 185.1875 107.660156 185.785156 C 107.34375 186.378906 106.996094 186.957031 106.621094 187.519531 C 106.242188 188.082031 105.839844 188.625 105.414062 189.148438 C 104.984375 189.671875 104.53125 190.171875 104.050781 190.648438 C 103.574219 191.125 103.074219 191.582031 102.550781 192.007812 C 102.027344 192.4375 101.488281 192.839844 100.925781 193.214844 C 100.363281 193.589844 99.785156 193.9375 99.1875 194.257812 C 98.589844 194.574219 97.980469 194.863281 97.355469 195.125 C 96.730469 195.382812 96.097656 195.609375 95.449219 195.804688 C 94.800781 196 94.148438 196.164062 93.484375 196.296875 C 92.820312 196.429688 92.152344 196.527344 91.480469 196.59375 C 90.808594 196.660156 90.132812 196.695312 89.457031 196.695312 C 88.78125 196.695312 88.105469 196.660156 87.433594 196.59375 C 86.761719 196.527344 86.09375 196.429688 85.429688 196.296875 C 84.765625 196.164062 84.113281 196 83.464844 195.804688 C 82.820312 195.609375 82.183594 195.382812 81.558594 195.125 C 80.933594 194.863281 80.324219 194.574219 79.726562 194.257812 C 79.132812 193.9375 78.550781 193.589844 77.988281 193.214844 C 77.429688 192.839844 76.886719 192.4375 76.363281 192.007812 C 75.839844 191.582031 75.339844 191.125 74.863281 190.648438 C 74.382812 190.171875 73.929688 189.671875 73.5 189.148438 C 73.074219 188.625 72.671875 188.082031 72.296875 187.519531 C 71.917969 186.957031 71.574219 186.378906 71.253906 185.785156 C 70.933594 185.1875 70.644531 184.578125 70.386719 183.953125 C 70.128906 183.328125 69.902344 182.691406 69.707031 182.046875 C 69.507812 181.398438 69.34375 180.742188 69.214844 180.082031 C 69.082031 179.417969 68.980469 178.75 68.914062 178.078125 C 68.851562 177.402344 68.816406 176.730469 68.816406 176.054688 Z M 113.246094 243.136719 L 48.511719 242.984375 C 48.78125 240.894531 49.210938 238.835938 49.796875 236.808594 C 50.382812 234.78125 51.121094 232.8125 52.007812 230.898438 C 52.898438 228.984375 53.925781 227.152344 55.097656 225.394531 C 56.265625 223.640625 57.5625 221.984375 58.984375 220.425781 C 60.410156 218.871094 61.941406 217.429688 63.585938 216.109375 C 65.230469 214.789062 66.964844 213.597656 68.792969 212.542969 C 70.617188 211.488281 72.515625 210.578125 74.480469 209.8125 C 76.445312 209.046875 78.460938 208.4375 80.519531 207.980469 C 82.578125 207.523438 84.660156 207.226562 86.765625 207.089844 C 88.871094 206.953125 90.972656 206.976562 93.074219 207.160156 C 95.175781 207.347656 97.25 207.691406 99.300781 208.195312 C 101.347656 208.699219 103.347656 209.355469 105.292969 210.164062 C 107.242188 210.972656 109.117188 211.925781 110.917969 213.023438 C 112.722656 214.121094 114.429688 215.347656 116.042969 216.707031 C 117.65625 218.066406 119.15625 219.539062 120.542969 221.128906 C 121.929688 222.71875 123.191406 224.402344 124.320312 226.183594 C 120.023438 231.441406 116.332031 237.089844 113.246094 243.136719 Z M 189.898438 305.1875 C 189.148438 304.792969 188.347656 304.59375 187.5 304.59375 C 186.652344 304.59375 185.851562 304.792969 185.101562 305.1875 L 164.003906 316.269531 L 168.027344 292.769531 C 168.167969 291.933594 168.109375 291.113281 167.847656 290.304688 C 167.582031 289.496094 167.148438 288.796875 166.539062 288.203125 L 165.5625 287.253906 L 164.207031 285.929688 L 164.171875 285.882812 L 149.515625 271.605469 L 173.070312 268.15625 C 173.910156 268.035156 174.671875 267.726562 175.359375 267.226562 C 176.046875 266.730469 176.578125 266.097656 176.953125 265.339844 L 187.5 243.996094 L 198.046875 265.324219 C 198.421875 266.085938 198.953125 266.714844 199.640625 267.210938 C 200.328125 267.710938 201.089844 268.019531 201.929688 268.140625 L 225.484375 271.589844 L 210.828125 285.867188 L 210.796875 285.914062 C 209.601562 287.078125 208.734375 287.90625 208.480469 288.164062 L 208.480469 288.1875 L 208.441406 288.230469 C 207.789062 288.882812 207.339844 289.652344 207.089844 290.539062 C 206.839844 291.421875 206.820312 292.3125 207.03125 293.210938 C 207.078125 293.378906 207.128906 293.546875 207.191406 293.726562 L 211.039062 316.246094 Z M 259.742188 284.417969 L 227.171875 284.417969 C 230.511719 281.175781 234.605469 277.15625 239.742188 272.125 L 240.175781 271.703125 C 240.195312 271.667969 240.21875 271.636719 240.246094 271.609375 C 240.558594 271.296875 240.824219 270.953125 241.050781 270.578125 C 241.128906 270.410156 241.195312 270.238281 241.253906 270.0625 C 241.382812 269.804688 241.488281 269.539062 241.574219 269.265625 C 241.679688 268.820312 241.726562 268.363281 241.710938 267.90625 L 241.710938 267.863281 C 241.695312 267.375 241.613281 266.898438 241.464844 266.433594 C 241.320312 266 241.121094 265.59375 240.867188 265.210938 L 240.832031 265.144531 C 240.515625 264.796875 240.199219 264.453125 239.878906 264.113281 C 239.757812 264.007812 239.601562 263.945312 239.46875 263.855469 C 237.257812 262.304688 239.148438 263.667969 206.082031 258.390625 L 192.144531 230.066406 C 192.027344 229.863281 191.894531 229.671875 191.753906 229.492188 C 191.609375 229.308594 191.453125 229.132812 191.289062 228.972656 C 191.125 228.808594 190.949219 228.65625 190.761719 228.515625 C 190.578125 228.375 190.382812 228.25 190.183594 228.132812 C 189.980469 228.019531 189.773438 227.917969 189.558594 227.828125 C 189.339844 227.742188 189.121094 227.667969 188.898438 227.605469 C 188.671875 227.546875 188.445312 227.503906 188.214844 227.472656 C 187.984375 227.441406 187.753906 227.429688 187.519531 227.429688 C 187.289062 227.429688 187.058594 227.441406 186.828125 227.472656 C 186.597656 227.503906 186.367188 227.546875 186.144531 227.605469 C 185.917969 227.667969 185.699219 227.742188 185.484375 227.828125 C 185.269531 227.917969 185.0625 228.019531 184.859375 228.132812 C 184.65625 228.25 184.464844 228.375 184.277344 228.515625 C 184.09375 228.65625 183.917969 228.808594 183.753906 228.972656 C 183.585938 229.132812 183.433594 229.308594 183.289062 229.492188 C 183.144531 229.671875 183.015625 229.863281 182.898438 230.066406 L 168.921875 258.335938 C 150.347656 262.265625 130.15625 260.078125 133.433594 269.171875 C 133.652344 270.160156 134.125 271.007812 134.847656 271.71875 L 137.140625 273.953125 L 137.21875 274.035156 L 147.871094 284.417969 L 115.257812 284.417969 L 115.257812 279.257812 C 115.257812 278.074219 115.285156 276.894531 115.34375 275.710938 C 115.402344 274.53125 115.488281 273.351562 115.605469 272.175781 C 115.722656 271 115.867188 269.824219 116.039062 268.65625 C 116.214844 267.488281 116.414062 266.324219 116.644531 265.164062 C 116.875 264.003906 117.136719 262.851562 117.421875 261.703125 C 117.710938 260.554688 118.027344 259.417969 118.367188 258.285156 C 118.710938 257.15625 119.082031 256.03125 119.480469 254.917969 C 119.878906 253.804688 120.304688 252.703125 120.757812 251.609375 C 121.210938 250.519531 121.6875 249.4375 122.195312 248.371094 C 122.699219 247.300781 123.230469 246.246094 123.789062 245.203125 C 124.34375 244.160156 124.929688 243.132812 125.535156 242.117188 C 126.144531 241.101562 126.777344 240.105469 127.433594 239.121094 C 128.089844 238.136719 128.769531 237.171875 129.472656 236.222656 C 130.179688 235.273438 130.90625 234.339844 131.65625 233.425781 C 132.40625 232.511719 133.179688 231.617188 133.972656 230.742188 C 134.765625 229.867188 135.582031 229.011719 136.417969 228.175781 C 137.253906 227.335938 138.109375 226.523438 138.984375 225.730469 C 139.859375 224.933594 140.757812 224.164062 141.671875 223.414062 C 142.585938 222.664062 143.515625 221.9375 144.464844 221.230469 C 145.414062 220.527344 146.382812 219.847656 147.363281 219.191406 C 148.347656 218.53125 149.347656 217.902344 150.359375 217.292969 C 151.375 216.683594 152.402344 216.101562 153.445312 215.542969 C 154.488281 214.988281 155.542969 214.457031 156.613281 213.949219 C 157.679688 213.445312 158.761719 212.964844 159.855469 212.515625 C 160.945312 212.0625 162.050781 211.636719 163.164062 211.238281 C 164.277344 210.839844 165.398438 210.46875 166.527344 210.125 C 167.660156 209.78125 168.800781 209.46875 169.945312 209.179688 C 171.09375 208.890625 172.246094 208.632812 173.40625 208.402344 C 174.566406 208.171875 175.730469 207.96875 176.898438 207.796875 C 178.070312 207.625 179.242188 207.476562 180.417969 207.363281 C 181.59375 207.246094 182.773438 207.160156 183.957031 207.101562 C 185.136719 207.042969 186.316406 207.015625 187.5 207.015625 C 188.683594 207.015625 189.863281 207.042969 191.042969 207.101562 C 192.226562 207.160156 193.40625 207.246094 194.582031 207.363281 C 195.757812 207.476562 196.929688 207.625 198.101562 207.796875 C 199.269531 207.96875 200.433594 208.171875 201.59375 208.402344 C 202.753906 208.632812 203.90625 208.890625 205.054688 209.179688 C 206.199219 209.46875 207.339844 209.78125 208.472656 210.125 C 209.601562 210.46875 210.722656 210.839844 211.835938 211.238281 C 212.949219 211.636719 214.054688 212.0625 215.144531 212.515625 C 216.238281 212.964844 217.320312 213.445312 218.386719 213.949219 C 219.457031 214.457031 220.511719 214.988281 221.554688 215.542969 C 222.597656 216.101562 223.625 216.683594 224.640625 217.292969 C 225.652344 217.902344 226.652344 218.53125 227.636719 219.191406 C 228.617188 219.847656 229.585938 220.527344 230.535156 221.230469 C 231.484375 221.9375 232.414062 222.664062 233.328125 223.414062 C 234.242188 224.164062 235.140625 224.933594 236.015625 225.730469 C 236.890625 226.523438 237.746094 227.335938 238.582031 228.175781 C 239.417969 229.011719 240.234375 229.867188 241.027344 230.742188 C 241.820312 231.617188 242.59375 232.511719 243.34375 233.425781 C 244.09375 234.339844 244.820312 235.273438 245.523438 236.222656 C 246.230469 237.171875 246.910156 238.136719 247.566406 239.121094 C 248.222656 240.105469 248.855469 241.101562 249.464844 242.117188 C 250.070312 243.132812 250.65625 244.160156 251.210938 245.203125 C 251.769531 246.246094 252.300781 247.300781 252.804688 248.371094 C 253.3125 249.4375 253.789062 250.519531 254.242188 251.609375 C 254.695312 252.703125 255.121094 253.804688 255.519531 254.917969 C 255.917969 256.03125 256.289062 257.15625 256.632812 258.285156 C 256.972656 259.417969 257.289062 260.554688 257.578125 261.703125 C 257.863281 262.851562 258.125 264.003906 258.355469 265.164062 C 258.585938 266.324219 258.785156 267.488281 258.960938 268.65625 C 259.132812 269.824219 259.277344 271 259.394531 272.175781 C 259.511719 273.351562 259.597656 274.53125 259.65625 275.710938 C 259.714844 276.894531 259.742188 278.074219 259.742188 279.257812 Z M 326.308594 243.136719 L 261.753906 243.136719 C 258.675781 237.085938 254.984375 231.4375 250.679688 226.183594 C 251.8125 224.40625 253.074219 222.722656 254.460938 221.136719 C 255.851562 219.550781 257.355469 218.082031 258.96875 216.726562 C 260.582031 215.371094 262.292969 214.144531 264.09375 213.050781 C 265.894531 211.957031 267.773438 211.007812 269.71875 210.203125 C 271.667969 209.394531 273.664062 208.742188 275.714844 208.242188 C 277.761719 207.742188 279.835938 207.398438 281.9375 207.21875 C 284.035156 207.035156 286.136719 207.011719 288.242188 207.152344 C 290.34375 207.292969 292.425781 207.589844 294.484375 208.050781 C 296.542969 208.507812 298.554688 209.121094 300.515625 209.886719 C 302.480469 210.652344 304.375 211.5625 306.199219 212.621094 C 308.023438 213.675781 309.757812 214.867188 311.398438 216.1875 C 313.042969 217.511719 314.574219 218.949219 315.996094 220.507812 C 317.417969 222.0625 318.710938 223.71875 319.878906 225.476562 C 321.046875 227.230469 322.074219 229.0625 322.960938 230.976562 C 323.847656 232.890625 324.585938 234.859375 325.167969 236.882812 C 325.753906 238.910156 326.183594 240.96875 326.453125 243.058594 C 326.414062 243.105469 326.367188 243.132812 326.308594 243.136719 Z M 326.308594 243.136719 " fill-opacity="1" fill-rule="nonzero"/></g></svg>