<svg xmlns="http://www.w3.org/2000/svg" xmlns:xlink="http://www.w3.org/1999/xlink" width="500" zoomAndPan="magnify" viewBox="0 0 375 374.999991" height="500" preserveAspectRatio="xMidYMid meet" version="1.0"><defs><clipPath id="53fb332b52"><path d="M 217 300 L 247 300 L 247 328.253906 L 217 328.253906 Z M 217 300 " clip-rule="nonzero"/></clipPath><clipPath id="826b7e0ef3"><path d="M 251 300 L 281 300 L 281 328.253906 L 251 328.253906 Z M 251 300 " clip-rule="nonzero"/></clipPath></defs><g clip-path="url(#53fb332b52)"><path fill="#00406d" d="M 217.558594 313.609375 C 217.558594 321.59375 224.03125 328.058594 232.007812 328.058594 C 239.992188 328.058594 246.460938 321.59375 246.460938 313.609375 L 246.460938 300.984375 L 217.558594 300.984375 Z M 217.558594 313.609375 " fill-opacity="1" fill-rule="nonzero"/></g><g clip-path="url(#826b7e0ef3)"><path fill="#00406d" d="M 251.878906 313.609375 C 251.878906 321.59375 258.351562 328.058594 266.332031 328.058594 C 274.3125 328.058594 280.785156 321.59375 280.785156 313.609375 L 280.785156 300.984375 L 251.878906 300.984375 Z M 251.878906 313.609375 " fill-opacity="1" fill-rule="nonzero"/></g><path fill="#00406d" d="M 187.164062 181.179688 L 196.898438 174.507812 C 198.179688 173.628906 199.582031 172.984375 201.050781 172.574219 C 201.351562 171.570312 201.488281 170.507812 201.433594 169.417969 C 201.273438 166.320312 201.253906 163.515625 201.335938 160.964844 L 201.078125 159.480469 L 182.890625 155.933594 C 182.714844 158.160156 182.609375 160.519531 182.589844 163.023438 L 163.996094 168.710938 C 169.46875 173.585938 175.375 178.539062 181.566406 182.890625 Z M 187.164062 181.179688 " fill-opacity="1" fill-rule="nonzero"/><path fill="#00406d" d="M 270.707031 145.25 C 271.792969 147.355469 272.890625 149.707031 273.996094 152.324219 L 272.800781 152.734375 L 240.90625 163.746094 C 236.042969 165.425781 233.457031 170.71875 235.105469 175.585938 L 236.199219 175.125 C 238.585938 174.121094 241.105469 173.609375 243.691406 173.609375 C 245.492188 173.609375 247.28125 173.863281 249.011719 174.359375 L 259.089844 177.253906 L 277.84375 170.777344 L 289.214844 166.851562 C 289.214844 166.851562 289.21875 166.851562 289.21875 166.851562 C 289.246094 166.839844 289.269531 166.828125 289.292969 166.820312 C 289.570312 166.722656 289.84375 166.613281 290.105469 166.492188 C 294.40625 164.503906 296.585938 159.535156 295.007812 154.960938 C 295.007812 154.957031 295.007812 154.957031 295.003906 154.957031 C 292.050781 146.394531 288.777344 139.007812 285.207031 132.8125 L 270.3125 143.835938 Z M 270.707031 145.25 " fill-opacity="1" fill-rule="nonzero"/><path fill="#00406d" d="M 287.515625 127.761719 C 268.152344 100.371094 248.910156 104.25 248.714844 104.296875 L 245.855469 104.941406 C 248.355469 109.679688 250.972656 116.28125 252.164062 124.457031 C 254.554688 124.824219 256.816406 126.203125 258.679688 128.492188 C 260.898438 131.21875 262.308594 134.9375 262.644531 138.96875 C 262.761719 140.34375 262.746094 141.71875 262.605469 143.0625 L 262.539062 143.683594 L 260.03125 146.15625 C 259.847656 146.335938 259.628906 146.46875 259.398438 146.554688 C 258.773438 146.78125 258.050781 146.640625 257.550781 146.136719 C 256.871094 145.449219 256.878906 144.339844 257.570312 143.65625 L 259.171875 142.078125 C 259.238281 141.152344 259.230469 140.207031 259.152344 139.261719 C 258.871094 135.925781 257.738281 132.886719 255.960938 130.703125 C 254.339844 128.714844 252.386719 127.707031 250.464844 127.867188 C 248.542969 128.023438 246.785156 129.34375 245.515625 131.578125 C 244.128906 134.027344 243.515625 137.214844 243.792969 140.546875 C 243.882812 141.578125 244.050781 142.589844 244.300781 143.5625 L 246.050781 145.058594 C 246.789062 145.6875 246.875 146.796875 246.246094 147.53125 C 245.617188 148.269531 244.511719 148.355469 243.777344 147.726562 L 241.214844 145.539062 L 241.070312 145.035156 C 240.679688 143.691406 240.421875 142.277344 240.300781 140.839844 C 239.960938 136.808594 240.734375 132.90625 242.46875 129.847656 C 244.011719 127.125 246.175781 125.339844 248.648438 124.660156 C 247.433594 116.636719 244.722656 110.199219 242.277344 105.75 L 239.085938 106.472656 L 230.019531 126.535156 L 213.203125 112.320312 L 209.679688 113.117188 C 210.335938 117.691406 212.136719 128.613281 215.316406 137.226562 C 214.109375 137.347656 212.984375 137.746094 211.996094 138.359375 C 208.746094 129.539062 206.941406 118.738281 206.242188 113.894531 L 203.570312 114.496094 C 203.382812 114.542969 184.316406 119.445312 178.632812 152.363281 L 203.410156 157.195312 L 206.003906 172.121094 C 210.179688 172.472656 214.003906 174.65625 216.398438 178.144531 C 217.359375 179.546875 218.011719 181.066406 218.40625 182.625 L 232.625 176.632812 C 232.609375 176.59375 232.59375 176.554688 232.578125 176.515625 C 231.53125 173.476562 231.726562 170.210938 233.132812 167.316406 C 234.542969 164.425781 236.992188 162.253906 240.03125 161.207031 L 269.527344 151.023438 L 267.222656 142.777344 Z M 226.007812 145.492188 C 225.882812 148.070312 224 150.128906 221.582031 150.605469 C 223.28125 148.945312 224.246094 146.515625 223.867188 143.84375 C 223.660156 142.398438 223.027344 141.070312 222.113281 139.980469 C 224.464844 140.699219 226.132812 142.925781 226.007812 145.492188 Z M 216.378906 139.519531 C 219.414062 139.664062 221.753906 142.246094 221.605469 145.28125 C 221.457031 148.316406 218.878906 150.65625 215.84375 150.507812 C 212.808594 150.359375 210.46875 147.78125 210.617188 144.746094 C 210.765625 141.710938 213.34375 139.371094 216.378906 139.519531 Z M 216.378906 139.519531 " fill-opacity="1" fill-rule="nonzero"/><path fill="#00406d" d="M 278.414062 182.800781 L 276.023438 174.25 L 263.585938 178.542969 Z M 278.414062 182.800781 " fill-opacity="1" fill-rule="nonzero"/><path fill="#00406d" d="M 224.367188 101.53125 C 226.769531 100.988281 229.015625 100.128906 231.078125 99.011719 C 241.199219 93.550781 246.882812 81.851562 244.222656 70.082031 C 241.023438 55.914062 226.941406 47.023438 212.773438 50.226562 C 198.605469 53.429688 189.71875 67.507812 192.917969 81.675781 C 195.578125 93.441406 205.742188 101.5625 217.226562 102.144531 C 219.570312 102.261719 221.964844 102.074219 224.367188 101.53125 Z M 224.367188 101.53125 " fill-opacity="1" fill-rule="nonzero"/><path fill="#00406d" d="M 52.148438 168.214844 L 136.289062 246.449219 L 14.300781 246.449219 L 14.300781 209.839844 C 14.300781 206.25 11.390625 203.339844 7.800781 203.339844 L 4.585938 203.339844 C 0.996094 203.339844 -1.914062 206.25 -1.914062 209.839844 L -1.914062 266.652344 C -1.914062 268.425781 -0.472656 269.867188 1.304688 269.867188 L 11.082031 269.867188 C 12.859375 269.867188 14.300781 268.425781 14.300781 266.652344 L 14.300781 265.105469 L 75.582031 265.105469 L 75.582031 272.394531 L 44.226562 272.394531 C 41.644531 272.394531 39.554688 274.488281 39.554688 277.070312 L 39.554688 286.082031 L 14.75 286.082031 L 14.75 296.890625 L 360.257812 296.890625 L 360.257812 286.082031 L 298.882812 286.082031 L 298.882812 281.746094 L 330.238281 281.746094 C 332.820312 281.746094 334.914062 279.652344 334.914062 277.070312 L 334.914062 265.105469 L 360.710938 265.105469 L 360.710938 266.652344 C 360.710938 268.425781 362.148438 269.867188 363.925781 269.867188 L 373.707031 269.867188 C 375.484375 269.867188 376.921875 268.425781 376.921875 266.652344 L 376.921875 209.839844 C 376.921875 206.25 374.011719 203.339844 370.425781 203.339844 L 367.207031 203.339844 C 363.617188 203.339844 360.710938 206.25 360.710938 209.839844 L 360.710938 246.449219 L 353.46875 246.449219 L 354.636719 242.355469 L 354.757812 241.9375 C 355.679688 238.695312 353.796875 235.304688 350.558594 234.378906 L 332.585938 229.246094 L 326.847656 227.605469 C 330.164062 225.800781 332.789062 222.722656 333.914062 218.804688 C 336.140625 211.050781 331.65625 202.957031 323.902344 200.730469 L 247.722656 178.851562 C 244.515625 177.933594 241.089844 178.136719 238.015625 179.433594 L 216.617188 188.453125 C 216.019531 191.417969 214.324219 194.164062 211.636719 196.007812 L 163.839844 228.773438 C 170.71875 233.648438 179.726562 234.640625 187.578125 231.175781 L 226.382812 214.070312 C 236.609375 209.5625 248.164062 208.769531 258.90625 211.839844 L 349.59375 237.75 C 350.976562 238.144531 351.777344 239.589844 351.382812 240.972656 L 347.355469 255.066406 C 347.164062 255.734375 346.726562 256.292969 346.117188 256.628906 C 345.507812 256.96875 344.804688 257.050781 344.136719 256.855469 L 253.449219 230.945312 C 250.925781 230.226562 248.332031 229.867188 245.738281 229.867188 C 241.859375 229.867188 237.988281 230.667969 234.398438 232.253906 L 195.59375 249.359375 C 179.574219 256.421875 160.894531 253.332031 148.003906 241.488281 L 53.378906 154.535156 C 52.867188 154.0625 52.570312 153.421875 52.539062 152.726562 C 52.507812 152.03125 52.753906 151.367188 53.222656 150.851562 L 63.144531 140.058594 C 63.613281 139.546875 64.257812 139.25 64.953125 139.21875 C 65.652344 139.191406 66.3125 139.433594 66.824219 139.902344 L 133.847656 201.492188 L 121.152344 178.039062 C 117.988281 172.203125 120.167969 164.882812 126.007812 161.71875 C 127.761719 160.769531 129.742188 160.265625 131.730469 160.265625 C 136.15625 160.265625 140.21875 162.683594 142.324219 166.574219 L 161.179688 201.402344 L 180.742188 187.988281 C 168.019531 179.367188 156.535156 168.1875 147.585938 160.050781 C 139.371094 151.15625 125.1875 147.699219 117.894531 154.945312 C 113.128906 159.675781 110.261719 167.789062 112.066406 176.714844 L 106.882812 171.953125 L 89.664062 156.128906 C 97.171875 159.03125 105.464844 158.265625 112.214844 154.398438 C 114.941406 152.835938 117.410156 150.769531 119.480469 148.234375 C 120.25 147.289062 120.964844 146.285156 121.617188 145.214844 C 129.140625 132.789062 125.164062 116.617188 112.738281 109.09375 C 100.316406 101.574219 84.144531 105.546875 76.621094 117.972656 C 71.828125 125.890625 71.710938 135.328125 75.46875 143.082031 L 69.195312 137.320312 C 67.996094 136.214844 66.429688 135.640625 64.804688 135.714844 C 63.171875 135.785156 61.664062 136.484375 60.5625 137.6875 L 50.640625 148.480469 C 49.539062 149.683594 48.964844 151.242188 49.035156 152.875 C 49.105469 154.503906 49.804688 156.011719 51.007812 157.117188 L 54.175781 160.027344 L 57.1875 162.796875 Z M 256.023438 241.167969 L 274.507812 246.449219 L 225.617188 246.449219 L 234.203125 242.664062 C 241.0625 239.636719 248.816406 239.105469 256.023438 241.167969 Z M 82.460938 277.238281 C 82.460938 278.652344 81.316406 279.796875 79.902344 279.796875 C 78.488281 279.796875 77.34375 278.652344 77.34375 277.238281 C 77.34375 275.828125 78.488281 274.683594 79.902344 274.683594 C 81.316406 274.683594 82.460938 275.828125 82.460938 277.238281 Z M 45.125 274.683594 C 46.539062 274.683594 47.683594 275.828125 47.683594 277.238281 C 47.683594 278.652344 46.539062 279.796875 45.125 279.796875 C 43.714844 279.796875 42.570312 278.652344 42.570312 277.238281 C 42.570312 275.828125 43.714844 274.683594 45.125 274.683594 Z M 292.550781 277.238281 C 292.550781 275.828125 293.695312 274.683594 295.105469 274.683594 C 296.519531 274.683594 297.664062 275.828125 297.664062 277.238281 C 297.664062 278.652344 296.519531 279.796875 295.105469 279.796875 C 293.695312 279.796875 292.550781 278.652344 292.550781 277.238281 Z M 329.882812 279.796875 C 328.46875 279.796875 327.324219 278.652344 327.324219 277.238281 C 327.324219 275.828125 328.46875 274.683594 329.882812 274.683594 C 331.296875 274.683594 332.441406 275.828125 332.441406 277.238281 C 332.441406 278.652344 331.296875 279.796875 329.882812 279.796875 Z M 325.5625 269.199219 L 325.5625 272.394531 L 294.207031 272.394531 C 291.625 272.394531 289.53125 274.488281 289.53125 277.070312 L 289.53125 286.082031 L 280.785156 286.082031 L 280.785156 269.199219 L 251.878906 269.199219 L 251.878906 286.082031 L 246.460938 286.082031 L 246.460938 269.199219 L 217.558594 269.199219 L 217.558594 286.082031 L 48.902344 286.082031 L 48.902344 281.746094 L 80.257812 281.746094 C 82.839844 281.746094 84.933594 279.652344 84.933594 277.070312 L 84.933594 265.105469 L 325.5625 265.105469 Z M 325.5625 269.199219 " fill-opacity="1" fill-rule="nonzero"/><path fill="#00406d" d="M 212.542969 180.789062 C 209.621094 176.53125 203.800781 175.441406 199.542969 178.363281 L 160.238281 205.304688 L 139.960938 167.855469 C 137.503906 163.3125 131.824219 161.625 127.285156 164.085938 C 122.742188 166.542969 121.054688 172.21875 123.515625 176.761719 L 148.734375 223.34375 C 150 225.671875 152.1875 227.359375 154.765625 227.980469 C 155.488281 228.15625 156.226562 228.242188 156.960938 228.242188 C 158.828125 228.242188 160.675781 227.679688 162.246094 226.601562 L 210.117188 193.789062 C 214.375 190.871094 215.460938 185.050781 212.542969 180.789062 Z M 212.542969 180.789062 " fill-opacity="1" fill-rule="nonzero"/><path fill="#00406d" d="M 347.132812 327.96875 C 354.523438 327.96875 360.515625 321.976562 360.515625 314.585938 C 360.515625 307.195312 354.523438 301.203125 347.132812 301.203125 C 339.742188 301.203125 333.75 307.195312 333.75 314.585938 C 333.75 321.976562 339.742188 327.96875 347.132812 327.96875 Z M 347.132812 306.921875 C 351.359375 306.921875 354.796875 310.359375 354.796875 314.585938 C 354.796875 318.8125 351.359375 322.246094 347.132812 322.246094 C 342.90625 322.246094 339.472656 318.8125 339.472656 314.585938 C 339.472656 310.359375 342.90625 306.921875 347.132812 306.921875 Z M 347.132812 306.921875 " fill-opacity="1" fill-rule="nonzero"/><path fill="#00406d" d="M 350.121094 314.585938 C 350.121094 314.980469 350.046875 315.363281 349.894531 315.726562 C 349.742188 316.09375 349.527344 316.417969 349.246094 316.699219 C 348.964844 316.976562 348.644531 317.195312 348.277344 317.34375 C 347.910156 317.496094 347.53125 317.574219 347.132812 317.574219 C 346.738281 317.574219 346.355469 317.496094 345.988281 317.34375 C 345.625 317.195312 345.300781 316.976562 345.019531 316.699219 C 344.742188 316.417969 344.523438 316.09375 344.375 315.726562 C 344.222656 315.363281 344.144531 314.980469 344.144531 314.585938 C 344.144531 314.1875 344.222656 313.808594 344.375 313.441406 C 344.523438 313.074219 344.742188 312.753906 345.019531 312.472656 C 345.300781 312.191406 345.625 311.976562 345.988281 311.824219 C 346.355469 311.671875 346.738281 311.597656 347.132812 311.597656 C 347.53125 311.597656 347.910156 311.671875 348.277344 311.824219 C 348.644531 311.976562 348.964844 312.191406 349.246094 312.472656 C 349.527344 312.753906 349.742188 313.074219 349.894531 313.441406 C 350.046875 313.808594 350.121094 314.1875 350.121094 314.585938 Z M 350.121094 314.585938 " fill-opacity="1" fill-rule="nonzero"/><path fill="#00406d" d="M 14.492188 314.585938 C 14.492188 321.976562 20.484375 327.96875 27.875 327.96875 C 35.265625 327.96875 41.257812 321.976562 41.257812 314.585938 C 41.257812 307.195312 35.265625 301.203125 27.875 301.203125 C 20.484375 301.203125 14.492188 307.195312 14.492188 314.585938 Z M 35.539062 314.585938 C 35.539062 318.8125 32.101562 322.246094 27.875 322.246094 C 23.648438 322.246094 20.214844 318.8125 20.214844 314.585938 C 20.214844 310.359375 23.648438 306.921875 27.875 306.921875 C 32.101562 306.921875 35.539062 310.359375 35.539062 314.585938 Z M 35.539062 314.585938 " fill-opacity="1" fill-rule="nonzero"/><path fill="#00406d" d="M 30.863281 314.585938 C 30.863281 314.980469 30.789062 315.363281 30.636719 315.726562 C 30.484375 316.09375 30.269531 316.417969 29.988281 316.699219 C 29.707031 316.976562 29.386719 317.195312 29.019531 317.34375 C 28.652344 317.496094 28.273438 317.574219 27.875 317.574219 C 27.480469 317.574219 27.097656 317.496094 26.734375 317.34375 C 26.367188 317.195312 26.042969 316.976562 25.765625 316.699219 C 25.484375 316.417969 25.269531 316.09375 25.117188 315.726562 C 24.964844 315.363281 24.890625 314.980469 24.890625 314.585938 C 24.890625 314.1875 24.964844 313.808594 25.117188 313.441406 C 25.269531 313.074219 25.484375 312.753906 25.765625 312.472656 C 26.042969 312.191406 26.367188 311.976562 26.734375 311.824219 C 27.097656 311.671875 27.480469 311.597656 27.875 311.597656 C 28.273438 311.597656 28.652344 311.671875 29.019531 311.824219 C 29.386719 311.976562 29.707031 312.191406 29.988281 312.472656 C 30.269531 312.753906 30.484375 313.074219 30.636719 313.441406 C 30.789062 313.808594 30.863281 314.1875 30.863281 314.585938 Z M 30.863281 314.585938 " fill-opacity="1" fill-rule="nonzero"/><path fill="#00406d" d="M 45.125 278.429688 C 45.785156 278.429688 46.316406 277.898438 46.316406 277.238281 C 46.316406 276.582031 45.785156 276.050781 45.125 276.050781 C 44.46875 276.050781 43.9375 276.582031 43.9375 277.238281 C 43.9375 277.898438 44.46875 278.429688 45.125 278.429688 Z M 45.125 278.429688 " fill-opacity="1" fill-rule="nonzero"/><path fill="#00406d" d="M 78.710938 277.238281 C 78.710938 277.898438 79.246094 278.429688 79.902344 278.429688 C 80.558594 278.429688 81.09375 277.898438 81.09375 277.238281 C 81.09375 276.582031 80.558594 276.050781 79.902344 276.050781 C 79.246094 276.050781 78.710938 276.582031 78.710938 277.238281 Z M 78.710938 277.238281 " fill-opacity="1" fill-rule="nonzero"/><path fill="#00406d" d="M 296.296875 277.238281 C 296.296875 276.582031 295.765625 276.050781 295.105469 276.050781 C 294.449219 276.050781 293.917969 276.582031 293.917969 277.238281 C 293.917969 277.898438 294.449219 278.429688 295.105469 278.429688 C 295.765625 278.429688 296.296875 277.898438 296.296875 277.238281 Z M 296.296875 277.238281 " fill-opacity="1" fill-rule="nonzero"/><path fill="#00406d" d="M 329.882812 276.050781 C 329.226562 276.050781 328.691406 276.582031 328.691406 277.238281 C 328.691406 277.898438 329.226562 278.429688 329.882812 278.429688 C 330.539062 278.429688 331.074219 277.898438 331.074219 277.238281 C 331.074219 276.582031 330.539062 276.050781 329.882812 276.050781 Z M 329.882812 276.050781 " fill-opacity="1" fill-rule="nonzero"/></svg>