<?xml version="1.0" encoding="UTF-8"?>
<!-- Uploaded to: SVG Find, www.svgrepo.com, Generator: SVG Find Mixer Tools -->
<svg fill="#00406d" width="800px" height="800px" version="1.1" viewBox="144 144 512 512" xmlns="http://www.w3.org/2000/svg">
 <g>
  <path d="m636.16 423.61h-24.082c-1.5039-13.203-6.6836-25.719-14.953-36.121-8.2656-10.402-19.289-18.277-31.812-22.723v-130.08c-0.015625-10.438-4.1641-20.441-11.543-27.82-7.3789-7.3789-17.383-11.527-27.82-11.543h-7.8711v-15.742c0-8.4375-4.5-16.234-11.809-20.453-7.3047-4.2188-16.309-4.2188-23.613 0-7.3086 4.2188-11.809 12.016-11.809 20.453v15.742h-47.234v-15.742c0-8.4375-4.5-16.234-11.809-20.453-7.3047-4.2188-16.309-4.2188-23.613 0-7.3086 4.2188-11.809 12.016-11.809 20.453v15.742h-47.234v-15.742c0-8.4375-4.5-16.234-11.805-20.453-7.3086-4.2188-16.312-4.2188-23.617 0-7.3086 4.2188-11.809 12.016-11.809 20.453v15.742h-7.8711c-10.438 0.015625-20.441 4.1641-27.82 11.543-7.3789 7.3789-11.527 17.383-11.539 27.82v188.93h-70.852c-4.3477 0-7.8711 3.5273-7.8711 7.875v204.67c0 2.0859 0.83203 4.0898 2.3047 5.5664 1.4766 1.4766 3.4805 2.3047 5.5664 2.3047h472.32c2.0859 0 4.0898-0.82812 5.5664-2.3047 1.4766-1.4766 2.3047-3.4805 2.3047-5.5664v-204.67c0-2.0898-0.82812-4.0898-2.3047-5.5664-1.4766-1.4766-3.4805-2.3086-5.5664-2.3086zm-39.359 7.8711v0.003906c0 18.098-8.8828 35.043-23.773 45.336-14.887 10.289-33.879 12.613-50.812 6.2188-16.93-6.3984-29.637-20.703-34-38.27-4.3633-17.566 0.17969-36.152 12.152-49.727 1.2695-1.4375 1.9688-3.293 1.9688-5.2109v-29.199l20.898 15.672v0.003906c1.8398 1.3789 4.1875 1.8906 6.4336 1.3906 16.324-3.6484 33.426 0.3125 46.48 10.773 13.055 10.457 20.652 26.281 20.652 43.012zm-86.594-86.59h-2.6211l-8.3984-6.2969c-2.3867-1.7891-5.5781-2.0781-8.2461-0.74609-2.6641 1.3359-4.3516 4.0625-4.3516 7.043h-7.8711v-31.488h31.488zm-23.617-165.31c0-4.3477 3.5234-7.8711 7.8711-7.8711 4.3477 0 7.875 3.5234 7.875 7.8711v47.23c0 4.3477-3.5273 7.875-7.875 7.875-4.3477 0-7.8711-3.5273-7.8711-7.875zm-94.465 0c0-4.3477 3.5273-7.8711 7.875-7.8711s7.8711 3.5234 7.8711 7.8711v47.23c0 4.3477-3.5234 7.875-7.8711 7.875s-7.875-3.5273-7.875-7.875zm-94.461 0c0-4.3477 3.5234-7.8711 7.8711-7.8711s7.8711 3.5234 7.8711 7.8711v47.23c0 4.3477-3.5234 7.875-7.8711 7.875s-7.8711-3.5273-7.8711-7.875zm-23.617 31.488h7.8711v15.742c0 8.4375 4.5 16.234 11.809 20.453 7.3047 4.2188 16.309 4.2188 23.617 0 7.3047-4.2188 11.805-12.016 11.805-20.453v-15.742h47.23v15.742h0.003906c0 8.4375 4.5 16.234 11.809 20.453 7.3047 4.2188 16.309 4.2188 23.613 0 7.3086-4.2188 11.809-12.016 11.809-20.453v-15.742h47.23v15.742h0.003906c0 8.4375 4.5 16.234 11.809 20.453 7.3047 4.2188 16.309 4.2188 23.613 0 7.3086-4.2188 11.809-12.016 11.809-20.453v-15.742h7.8711c6.2656 0 12.273 2.4883 16.699 6.918 4.4297 4.4258 6.918 10.434 6.918 16.699v31.488h-299.14v-31.488c0-6.2656 2.4883-12.273 6.918-16.699 4.4297-4.4297 10.434-6.918 16.699-6.918zm-23.617 70.848h299.14v79.184c-2.6133-0.30078-5.2422-0.45703-7.8711-0.46484-3.957 0.003906-7.9062 0.33203-11.809 0.98438l-5.6211-4.2109c1.0586-1.3203 1.6484-2.9531 1.6836-4.6445v-47.23c0-2.0898-0.82812-4.0898-2.3047-5.5664-1.4766-1.4766-3.4766-2.3047-5.5664-2.3047h-47.23c-4.3477 0-7.8711 3.5234-7.8711 7.8711v47.23c0 2.0898 0.82813 4.0898 2.3047 5.5664 1.4766 1.4766 3.4766 2.3047 5.5664 2.3047h15.742v26.324c-8.4805 10.512-13.773 23.23-15.254 36.652h-39.848v-39.359c0-2.0859-0.83203-4.0898-2.3086-5.5664-1.4766-1.4766-3.4766-2.3047-5.5664-2.3047h-47.23c-4.3477 0-7.8711 3.5234-7.8711 7.8711v39.359h-39.363v-39.359c0-2.0859-0.82813-4.0898-2.3047-5.5664s-3.4766-2.3047-5.5664-2.3047h-47.23c-4.3477 0-7.8711 3.5234-7.8711 7.8711v39.359h-15.746zm165.31 141.7h-31.488v-31.488h31.488zm-102.34 0h-31.488v-31.488h31.488zm314.88 204.68h-456.58v-188.93h299.6c1.8477 16.746 9.6172 32.281 21.906 43.809 12.293 11.527 28.293 18.285 45.125 19.055 16.832 0.77344 33.387-4.4922 46.68-14.844 3.4609 2.8281 7.4883 4.8867 11.809 6.0352v80.77c-5.4492 1.4102-10.422 4.25-14.406 8.2266-3.9805 3.9766-6.8281 8.9453-8.25 14.391h-79.715v15.742h86.594c2.0898 0 4.0898-0.82812 5.5664-2.3047 1.4766-1.4766 2.3047-3.4805 2.3047-5.5664 0-4.1758 1.6602-8.1797 4.6133-11.133 2.9531-2.9531 6.957-4.6133 11.133-4.6133 2.0859 0 4.0898-0.82812 5.5664-2.3047 1.4766-1.4766 2.3047-3.4766 2.3047-5.5664v-94.465c0-2.0859-0.82812-4.0898-2.3047-5.5664-1.4766-1.4766-3.4805-2.3047-5.5664-2.3047-2.8867-0.019531-5.7148-0.83594-8.1641-2.3633 8.6602-10.566 14.07-23.418 15.57-36.996h16.211z"/>
  <path d="m400 455.1c-20.879 0-40.902 8.293-55.664 23.059-14.766 14.762-23.059 34.785-23.059 55.664 0 20.875 8.293 40.898 23.059 55.664 14.762 14.762 34.785 23.055 55.664 23.055 20.875 0 40.898-8.293 55.664-23.055 14.762-14.766 23.055-34.789 23.055-55.664-0.023438-20.871-8.3242-40.883-23.082-55.641-14.758-14.758-34.766-23.059-55.637-23.082zm0 141.7v0.003906c-16.703 0-32.723-6.6367-44.531-18.445-11.812-11.812-18.445-27.832-18.445-44.531 0-16.703 6.6328-32.723 18.445-44.531 11.809-11.812 27.828-18.445 44.531-18.445 16.699 0 32.719 6.6328 44.531 18.445 11.809 11.809 18.445 27.828 18.445 44.531-0.019531 16.695-6.6602 32.703-18.469 44.508-11.805 11.809-27.812 18.449-44.508 18.469z"/>
  <path d="m407.87 486.59v-7.8711h-15.746v7.8711c-6.2617 0-12.27 2.4883-16.699 6.918-4.4258 4.4297-6.9141 10.438-6.9141 16.699v7.8711c0 6.2656 2.4883 12.27 6.9141 16.699 4.4297 4.4297 10.438 6.918 16.699 6.918v23.617c-4.3477 0-7.8711-3.5273-7.8711-7.875v-7.8711h-15.742v7.8711c0 6.2656 2.4883 12.273 6.9141 16.699 4.4297 4.4297 10.438 6.918 16.699 6.918v7.8711h15.742l0.003906-7.8711c6.2617 0 12.27-2.4883 16.699-6.918 4.4297-4.4258 6.918-10.434 6.918-16.699v-7.8711c0-6.2617-2.4883-12.27-6.918-16.699-4.4297-4.4297-10.438-6.918-16.699-6.918v-23.613c2.0859 0 4.0898 0.82812 5.5664 2.3047s2.3047 3.4766 2.3047 5.5664v7.8711h15.742l0.003906-7.8711c0-6.2617-2.4883-12.27-6.918-16.699-4.4297-4.4297-10.438-6.918-16.699-6.918zm7.8711 62.977v7.8711c0 2.0898-0.82813 4.0898-2.3047 5.5664-1.4766 1.4766-3.4805 2.3086-5.5664 2.3086v-23.617c2.0859 0 4.0898 0.82813 5.5664 2.3047s2.3047 3.4805 2.3047 5.5664zm-23.617-23.617c-4.3477 0-7.8711-3.5234-7.8711-7.8711v-7.8711c0-4.3477 3.5234-7.8711 7.8711-7.8711z"/>
  <path d="m211.07 462.98c0 4.1719-1.6602 8.1797-4.6133 11.133-2.9492 2.9492-6.957 4.6094-11.133 4.6094-4.3477 0-7.8711 3.5234-7.8711 7.8711v94.465c0 2.0898 0.83203 4.0898 2.3047 5.5664 1.4766 1.4766 3.4805 2.3047 5.5664 2.3047 4.1758 0 8.1836 1.6602 11.133 4.6133 2.9531 2.9531 4.6133 6.957 4.6133 11.133 0 2.0859 0.82813 4.0898 2.3047 5.5664 1.4766 1.4766 3.4805 2.3047 5.5664 2.3047h86.594v-15.742h-79.715c-1.418-5.4414-4.2617-10.406-8.2383-14.383-3.9766-3.9766-8.9414-6.8203-14.383-8.2344v-80.719c5.4414-1.418 10.406-4.2617 14.383-8.2344 3.9766-3.9766 6.8203-8.9414 8.2383-14.383h79.715v-15.746h-86.594c-4.3477 0-7.8711 3.5273-7.8711 7.875z"/>
  <path d="m297.66 510.21h-62.977c-4.3477 0-7.875 3.5234-7.875 7.8711v31.488c0 2.0898 0.83203 4.0898 2.3086 5.5664 1.4766 1.4766 3.4766 2.3047 5.5664 2.3047h62.977c2.0859 0 4.0898-0.82812 5.5664-2.3047 1.4727-1.4766 2.3047-3.4766 2.3047-5.5664v-31.488c0-2.0859-0.83203-4.0898-2.3047-5.5664-1.4766-1.4766-3.4805-2.3047-5.5664-2.3047zm-7.8711 31.488h-47.234v-15.746h47.23z"/>
  <path d="m502.34 557.44h62.977c2.0859 0 4.0898-0.82812 5.5664-2.3047 1.4766-1.4766 2.3047-3.4766 2.3047-5.5664v-31.488c0-2.0859-0.82812-4.0898-2.3047-5.5664-1.4766-1.4766-3.4805-2.3047-5.5664-2.3047h-62.977c-4.3477 0-7.875 3.5234-7.875 7.8711v31.488c0 2.0898 0.83203 4.0898 2.3086 5.5664 1.4766 1.4766 3.4766 2.3047 5.5664 2.3047zm7.8711-31.488h47.23v15.742l-47.23 0.003906z"/>
  <path d="m274.05 360.64h47.23c2.0898 0 4.0898-0.82812 5.5664-2.3047 1.4766-1.4766 2.3047-3.4766 2.3047-5.5664v-47.23c0-2.0898-0.82813-4.0898-2.3047-5.5664s-3.4766-2.3047-5.5664-2.3047h-47.23c-4.3477 0-7.8711 3.5234-7.8711 7.8711v47.23c0 2.0898 0.82812 4.0898 2.3047 5.5664 1.4766 1.4766 3.4766 2.3047 5.5664 2.3047zm7.8711-47.23h31.488v31.488h-31.488z"/>
  <path d="m376.38 360.64h47.23c2.0898 0 4.0898-0.82812 5.5664-2.3047 1.4766-1.4766 2.3086-3.4766 2.3086-5.5664v-47.23c0-2.0898-0.83203-4.0898-2.3086-5.5664-1.4766-1.4766-3.4766-2.3047-5.5664-2.3047h-47.23c-4.3477 0-7.8711 3.5234-7.8711 7.8711v47.23c0 2.0898 0.82812 4.0898 2.3047 5.5664 1.4766 1.4766 3.4766 2.3047 5.5664 2.3047zm7.8711-47.23h31.488v31.488h-31.488z"/>
  <path d="m533.82 384.25v7.8711c-8.4375 0-16.234 4.5039-20.453 11.809-4.2188 7.3086-4.2188 16.309 0 23.617 4.2188 7.3086 12.016 11.809 20.453 11.809v15.742c-4.3477 0-7.875-3.5234-7.875-7.8711h-15.742c0 6.2617 2.4883 12.27 6.918 16.699 4.4258 4.4297 10.434 6.918 16.699 6.918v7.8711h15.742v-7.8711c8.4375 0 16.234-4.5039 20.453-11.809 4.2188-7.3086 4.2188-16.309 0-23.617-4.2188-7.3047-12.016-11.809-20.453-11.809v-15.742c2.0898 0 4.0898 0.82812 5.5664 2.3047 1.4766 1.4766 2.3047 3.4805 2.3047 5.5664h15.746c0-6.2617-2.4883-12.27-6.918-16.699-4.4297-4.4297-10.434-6.918-16.699-6.918v-7.8711zm15.742 55.105c4.3477 0 7.8711 3.5234 7.8711 7.8711 0 4.3477-3.5234 7.8711-7.8711 7.8711zm-15.742-15.742v-0.003907c-4.3477 0-7.875-3.5234-7.875-7.8711 0-4.3477 3.5273-7.8711 7.875-7.8711z"/>
 </g>
</svg>
