<svg xmlns="http://www.w3.org/2000/svg" xmlns:xlink="http://www.w3.org/1999/xlink" width="200" zoomAndPan="magnify" viewBox="0 0 150 157.92" height="200" preserveAspectRatio="xMidYMid meet" version="1.0"><defs><clipPath id="deea6ca68b"><path d="M 43 72 L 106 72 L 106 133.902344 L 43 133.902344 Z M 43 72 " clip-rule="nonzero"/></clipPath><clipPath id="9d6817903e"><path d="M 0.0390625 16.210938 L 149.960938 16.210938 L 149.960938 94 L 0.0390625 94 Z M 0.0390625 16.210938 " clip-rule="nonzero"/></clipPath><clipPath id="906a983391"><path d="M 72 16.210938 L 77 16.210938 L 77 43 L 72 43 Z M 72 16.210938 " clip-rule="nonzero"/></clipPath></defs><g clip-path="url(#deea6ca68b)"><path fill="#00406d" d="M 74.691406 133.667969 C 57.78125 133.667969 43.9375 119.914062 43.9375 102.914062 C 43.9375 85.914062 57.78125 72.15625 74.691406 72.15625 C 91.691406 72.15625 105.449219 85.914062 105.449219 102.914062 C 105.449219 119.914062 91.691406 133.667969 74.691406 133.667969 Z M 74.691406 75.664062 C 59.710938 75.664062 47.53125 87.929688 47.53125 102.914062 C 47.53125 117.898438 59.710938 130.164062 74.691406 130.164062 C 89.765625 130.164062 101.945312 117.898438 101.945312 102.914062 C 101.945312 87.929688 89.765625 75.664062 74.691406 75.664062 Z M 74.691406 75.664062 " fill-opacity="1" fill-rule="evenodd"/></g><path fill="#00406d" d="M 79.777344 116.933594 C 78.8125 116.933594 78.023438 116.144531 78.023438 115.09375 L 78.023438 108.785156 C 78.023438 106.507812 81.527344 106.507812 81.527344 108.785156 L 81.527344 115.09375 C 81.527344 116.144531 80.738281 116.933594 79.777344 116.933594 Z M 69.699219 116.933594 C 68.734375 116.933594 67.945312 116.144531 67.945312 115.09375 L 67.945312 108.785156 C 67.945312 106.507812 71.453125 106.507812 71.453125 108.785156 L 71.453125 115.09375 C 71.453125 116.144531 70.664062 116.933594 69.699219 116.933594 Z M 69.699219 116.933594 " fill-opacity="1" fill-rule="evenodd"/><path fill="#00406d" d="M 56.03125 126.921875 C 53.925781 126.921875 54.277344 124.558594 54.277344 123.332031 C 54.277344 115.445312 71.453125 110.449219 71.453125 115.179688 C 71.453125 117.109375 69.347656 116.933594 68.296875 116.933594 C 64.179688 116.933594 57.871094 120.351562 57.78125 123.332031 C 57.78125 124.558594 58.132812 126.921875 56.03125 126.921875 Z M 93.355469 126.921875 C 91.167969 126.921875 91.691406 124.207031 91.605469 123.503906 C 90.992188 120.175781 85.03125 116.933594 81.089844 116.933594 C 80.125 116.933594 78.023438 117.109375 78.023438 115.09375 C 78.023438 110.363281 94.582031 115.53125 95.195312 123.332031 C 95.285156 124.730469 95.285156 126.921875 93.355469 126.921875 Z M 93.355469 126.921875 " fill-opacity="1" fill-rule="evenodd"/><path fill="#00406d" d="M 74.691406 112.203125 C 68.296875 112.203125 63.128906 106.332031 63.128906 99.144531 C 63.128906 97.21875 62.6875 94.503906 64.878906 94.503906 C 67.15625 94.503906 66.632812 97.21875 66.632812 99.144531 C 66.632812 104.402344 70.3125 108.609375 74.691406 108.609375 C 79.164062 108.609375 82.753906 104.402344 82.753906 99.144531 C 82.753906 97.042969 82.316406 94.152344 84.507812 94.152344 C 86.785156 94.152344 86.347656 97.042969 86.347656 99.144531 C 86.347656 106.332031 81.089844 112.203125 74.691406 112.203125 Z M 74.691406 112.203125 " fill-opacity="1" fill-rule="evenodd"/><path fill="#00406d" d="M 64.878906 98.007812 C 64.265625 98.007812 63.566406 97.65625 63.300781 97.042969 C 60.761719 91.785156 59.359375 81.710938 69.875 79.429688 C 70.222656 79.34375 77.671875 77.679688 82.140625 81.535156 C 83.980469 80.746094 86.171875 81.269531 86.699219 82.761719 C 90.203125 92.488281 85.472656 100.636719 83.105469 96.957031 C 81.703125 94.851562 80.039062 92.75 79.074219 91.785156 C 77.496094 92.835938 74.429688 93.976562 68.210938 93.976562 C 67.859375 95.203125 66.632812 98.007812 64.878906 98.007812 Z M 78.636719 87.84375 C 80.476562 87.84375 82.402344 89.945312 84.15625 92.3125 C 84.683594 89.421875 83.980469 86.179688 83.632812 84.777344 C 83.191406 84.949219 81.617188 86.351562 80.476562 84.863281 C 77.496094 81.183594 63.039062 80.570312 65.230469 91.699219 C 65.492188 90.910156 66.105469 90.472656 66.984375 90.472656 C 78.199219 90.648438 76.796875 87.84375 78.636719 87.84375 Z M 77.320312 88.71875 Z M 77.320312 88.71875 " fill-opacity="1" fill-rule="evenodd"/><path fill="#00406d" d="M 74.691406 123.59375 C 74.167969 123.59375 73.640625 123.332031 73.292969 122.890625 L 68.296875 116.234375 C 67.683594 115.445312 67.859375 114.304688 68.648438 113.691406 C 69.4375 113.078125 70.488281 113.253906 71.101562 114.042969 L 74.691406 118.863281 L 78.375 114.042969 C 79.777344 112.203125 82.578125 114.304688 81.175781 116.234375 L 76.183594 122.890625 C 75.832031 123.332031 75.308594 123.59375 74.691406 123.59375 Z M 74.691406 123.59375 " fill-opacity="1" fill-rule="evenodd"/><g clip-path="url(#9d6817903e)"><path fill="#00406d" d="M 147.683594 93.449219 L 125.515625 93.449219 C 124.550781 93.449219 123.761719 92.660156 123.761719 91.699219 C 123.675781 54.894531 85.03125 31.5 52.960938 47.625 C 50.859375 48.675781 49.28125 45.519531 51.386719 44.46875 C 86.171875 27.292969 125.953125 52.09375 127.265625 89.945312 L 145.84375 89.945312 C 145.40625 51.304688 112.898438 20.371094 74.691406 20.371094 C 35.964844 20.371094 4.417969 51.390625 3.542969 89.945312 L 22.117188 89.945312 C 22.558594 72.859375 31.40625 57.085938 46.128906 47.449219 C 48.054688 46.222656 49.984375 49.199219 48.054688 50.425781 C 33.773438 59.714844 25.449219 75.136719 25.710938 91.699219 C 25.710938 92.75 24.835938 93.539062 23.871094 93.539062 L 1.789062 93.539062 C 0.738281 93.539062 0.0390625 92.660156 0.0390625 91.523438 C 0.0390625 50.339844 33.511719 16.78125 74.691406 16.78125 C 115.4375 16.78125 149.960938 50.339844 149.4375 91.785156 C 149.4375 92.75 148.648438 93.449219 147.683594 93.449219 Z M 147.683594 93.449219 " fill-opacity="1" fill-rule="evenodd"/></g><g clip-path="url(#906a983391)"><path fill="#00406d" d="M 74.691406 42.453125 C 73.730469 42.453125 72.941406 41.664062 72.941406 40.703125 L 72.941406 18.621094 C 72.941406 16.253906 76.445312 16.253906 76.445312 18.621094 L 76.445312 40.703125 C 76.445312 41.664062 75.65625 42.453125 74.691406 42.453125 Z M 74.691406 42.453125 " fill-opacity="1" fill-rule="evenodd"/></g><path fill="#00406d" d="M 118.855469 67.953125 C 117.101562 67.953125 116.402344 65.585938 117.980469 64.710938 L 137.167969 53.582031 C 139.183594 52.441406 140.9375 55.507812 138.921875 56.648438 C 136.554688 58.050781 119.996094 67.953125 118.855469 67.953125 Z M 118.855469 67.953125 " fill-opacity="1" fill-rule="evenodd"/><path fill="#00406d" d="M 30.53125 67.953125 C 29.390625 67.953125 12.832031 58.050781 10.464844 56.648438 C 8.449219 55.507812 10.203125 52.441406 12.21875 53.582031 L 31.40625 64.710938 C 32.984375 65.585938 32.371094 67.953125 30.53125 67.953125 Z M 30.53125 67.953125 " fill-opacity="1" fill-rule="evenodd"/><path fill="#00406d" d="M 57.167969 81.621094 C 56.378906 81.621094 55.679688 81.09375 55.503906 80.394531 L 40.957031 35.96875 C 40.34375 34.128906 42.710938 32.726562 44.113281 34.480469 L 78.546875 72.859375 C 80.125 74.613281 77.496094 76.976562 75.921875 75.226562 L 46.917969 42.890625 L 58.832031 79.34375 C 59.183594 80.394531 58.394531 81.621094 57.167969 81.621094 Z M 57.167969 81.621094 " fill-opacity="1" fill-rule="evenodd"/></svg>