<svg xmlns="http://www.w3.org/2000/svg" xmlns:xlink="http://www.w3.org/1999/xlink" width="500" zoomAndPan="magnify" viewBox="0 0 375 374.999991" height="500" preserveAspectRatio="xMidYMid meet" version="1.0"><defs><clipPath id="b57ac154ba"><path d="M 101 33.871094 L 217 33.871094 L 217 150 L 101 150 Z M 101 33.871094 " clip-rule="nonzero"/></clipPath><clipPath id="fb195032a1"><path d="M 114 283 L 141 283 L 141 343.621094 L 114 343.621094 Z M 114 283 " clip-rule="nonzero"/></clipPath><clipPath id="8ba33bd66c"><path d="M 40.207031 240 L 91 240 L 91 287 L 40.207031 287 Z M 40.207031 240 " clip-rule="nonzero"/></clipPath><clipPath id="222bbf1aac"><path d="M 52 283 L 79 283 L 79 343.621094 L 52 343.621094 Z M 52 283 " clip-rule="nonzero"/></clipPath><clipPath id="905b7bb860"><path d="M 287 240 L 337.207031 240 L 337.207031 287 L 287 287 Z M 287 240 " clip-rule="nonzero"/></clipPath><clipPath id="7c0357cb4f"><path d="M 299 283 L 326 283 L 326 343.621094 L 299 343.621094 Z M 299 283 " clip-rule="nonzero"/></clipPath><clipPath id="50c8ccd329"><path d="M 237 283 L 265 283 L 265 343.621094 L 237 343.621094 Z M 237 283 " clip-rule="nonzero"/></clipPath><clipPath id="0fc81c2fec"><path d="M 113 283 L 141 283 L 141 343.621094 L 113 343.621094 Z M 113 283 " clip-rule="nonzero"/></clipPath></defs><rect x="-37.5" width="450" fill="#ffffff" y="-37.499999" height="449.999989" fill-opacity="1"/><rect x="-37.5" width="450" fill="#ffffff" y="-37.499999" height="449.999989" fill-opacity="1"/><g clip-path="url(#b57ac154ba)"><path class="hover-white" fill="#00406d" d="M 122.273438 33.871094 C 129.273438 41.046875 137.707031 44.636719 146.679688 48.585938 C 156.546875 52.890625 166.417969 56.839844 176.285156 60.785156 C 183.105469 63.476562 189.925781 65.8125 196.5625 68.683594 C 198.179688 69.398438 199.972656 69.9375 201.050781 71.375 C 202.664062 73.347656 203.382812 76.039062 204.816406 78.371094 C 206.792969 81.421875 207.6875 84.292969 208.585938 88.0625 C 211.636719 100.445312 217.917969 112.105469 216.125 125.027344 C 215.226562 131.847656 214.148438 141.714844 210.558594 147.816406 C 208.046875 152.125 203.023438 149.074219 201.769531 145.125 C 200.871094 142.433594 201.410156 139.203125 202.125 136.511719 C 202.664062 134.539062 204.460938 132.203125 204.640625 130.050781 C 204.816406 127 202.484375 123.949219 202.304688 120.71875 C 202.125 117.132812 203.023438 115.875 201.230469 112.824219 C 199.792969 110.492188 197.28125 108.878906 195.847656 106.363281 C 192.078125 100.265625 189.386719 94.878906 181.3125 97.929688 C 178.082031 99.1875 175.03125 100.800781 173.234375 103.671875 C 168.570312 111.210938 175.570312 120.003906 176.824219 127.898438 C 178.082031 136.332031 177.722656 146.023438 168.390625 149.609375 C 163.546875 151.046875 162.648438 147.097656 163.546875 143.6875 C 164.621094 139.742188 164.621094 136.511719 163.367188 132.382812 C 161.394531 126.820312 156.90625 123.234375 153.675781 118.566406 C 151.34375 115.15625 149.730469 111.210938 146.859375 108.339844 C 143.808594 105.289062 139.859375 102.777344 136.449219 100.085938 C 131.964844 96.316406 129.632812 93.265625 127.476562 87.703125 C 122.8125 76.21875 111.328125 70.65625 101.101562 64.554688 C 108.457031 54.328125 115.457031 44.097656 122.273438 33.871094 Z M 122.273438 33.871094 " fill-opacity="1" fill-rule="nonzero"/></g><path class="hover-white" fill="#00406d" d="M 199.972656 146.917969 C 199.972656 140.640625 195.128906 135.792969 188.847656 135.792969 C 182.746094 135.792969 177.722656 140.640625 177.722656 146.917969 C 177.722656 153.019531 182.746094 158.042969 189.027344 158.042969 C 194.949219 158.042969 199.972656 153.019531 199.972656 146.917969 Z M 199.972656 146.917969 " fill-opacity="1" fill-rule="nonzero"/><path class="hover-white" fill="#00406d" d="M 164.621094 171.503906 C 164.445312 165.761719 169.46875 162.53125 173.59375 162.710938 C 178.976562 162.710938 183.464844 162.710938 188.847656 162.710938 C 194.230469 162.710938 198.71875 162.710938 204.101562 162.710938 C 208.226562 162.710938 213.074219 165.761719 213.074219 171.503906 C 213.074219 174.914062 213.789062 181.011719 213.789062 195.546875 C 213.789062 198.238281 213.789062 201.109375 213.789062 203.804688 C 213.789062 205.417969 213.609375 207.210938 211.996094 207.929688 C 210.203125 208.828125 208.226562 208.828125 206.792969 207.210938 C 206.074219 206.496094 205.535156 205.058594 205.535156 203.980469 C 204.996094 166.121094 202.125 164.324219 202.125 202.90625 L 175.390625 202.90625 C 175.390625 189.089844 175.03125 180.296875 174.492188 176.707031 C 174.132812 174.195312 173.773438 174.015625 173.414062 176.527344 C 172.878906 180.296875 172.339844 189.449219 171.980469 203.804688 C 171.980469 204.878906 171.441406 206.136719 170.722656 207.03125 C 169.289062 208.648438 167.316406 208.46875 165.519531 207.75 C 163.90625 207.03125 163.726562 205.238281 163.726562 203.625 C 163.726562 200.933594 163.726562 198.0625 163.726562 195.367188 C 163.90625 181.011719 164.800781 174.914062 164.621094 171.503906 Z M 164.621094 171.503906 " fill-opacity="1" fill-rule="nonzero"/><path class="hover-white" fill="#00406d" d="M 202.125 205.597656 C 202.125 214.929688 202.125 224.257812 202.125 233.769531 C 202.125 242.742188 202.125 251.714844 202.125 260.6875 C 202.125 264.273438 200.152344 266.25 196.5625 266.25 C 192.796875 266.25 190.460938 264.097656 190.460938 260.6875 C 190.460938 245.433594 190.460938 230 190.460938 214.75 C 190.460938 212.773438 190.105469 212.417969 188.847656 212.417969 C 187.589844 212.417969 187.234375 212.953125 187.234375 214.75 C 187.234375 230 187.234375 245.433594 187.234375 260.6875 C 187.234375 264.097656 184.898438 266.25 181.132812 266.25 C 177.363281 266.25 175.570312 264.273438 175.570312 260.6875 C 175.570312 251.714844 175.570312 242.742188 175.570312 233.769531 C 175.570312 224.4375 175.570312 215.109375 175.570312 205.597656 Z M 202.125 205.597656 " fill-opacity="1" fill-rule="nonzero"/><g clip-path="url(#fb195032a1)"><path class="hover-white" fill="#00406d" d="M 140.757812 283.296875 C 140.757812 292.628906 140.757812 301.957031 140.757812 311.46875 C 140.757812 320.441406 140.757812 329.414062 140.757812 338.386719 C 140.757812 341.972656 138.78125 343.949219 135.195312 343.949219 C 131.425781 343.949219 129.09375 341.792969 129.09375 338.386719 C 129.09375 323.132812 129.09375 307.699219 129.09375 292.449219 C 129.09375 290.472656 128.734375 290.113281 127.476562 290.113281 C 126.222656 290.113281 125.863281 290.652344 125.863281 292.449219 C 125.863281 307.699219 125.863281 323.132812 125.863281 338.386719 C 125.863281 341.792969 123.53125 343.949219 119.761719 343.949219 C 115.992188 343.949219 114.199219 341.972656 114.199219 338.386719 C 114.199219 329.414062 114.199219 320.441406 114.199219 311.46875 C 114.199219 302.136719 114.199219 292.808594 114.199219 283.296875 Z M 140.757812 283.296875 " fill-opacity="1" fill-rule="nonzero"/></g><path class="hover-white" fill="#00406d" d="M 76.335938 224.4375 C 76.335938 218.160156 71.492188 213.3125 65.210938 213.3125 C 59.109375 213.3125 54.085938 218.160156 54.085938 224.4375 C 54.085938 230.539062 59.109375 235.5625 65.390625 235.5625 C 71.3125 235.5625 76.335938 230.539062 76.335938 224.4375 Z M 76.335938 224.4375 " fill-opacity="1" fill-rule="nonzero"/><g clip-path="url(#8ba33bd66c)"><path class="hover-white" fill="#00406d" d="M 40.988281 249.203125 C 40.808594 243.460938 45.832031 240.230469 49.957031 240.410156 C 55.34375 240.410156 59.828125 240.410156 65.210938 240.410156 C 70.59375 240.410156 75.082031 240.410156 80.464844 240.410156 C 84.589844 240.410156 89.4375 243.460938 89.4375 249.203125 C 89.4375 252.613281 90.152344 258.710938 90.152344 273.246094 C 90.152344 275.9375 90.152344 278.808594 90.152344 281.5 C 90.152344 283.117188 89.972656 284.910156 88.359375 285.628906 C 86.566406 286.527344 84.589844 286.527344 83.15625 284.910156 C 82.4375 284.195312 81.898438 282.757812 81.898438 281.679688 C 81.359375 243.820312 78.488281 242.023438 78.488281 280.605469 L 51.933594 280.605469 C 51.933594 266.789062 51.574219 257.996094 51.035156 254.40625 C 50.675781 251.894531 50.316406 251.714844 49.957031 254.226562 C 49.242188 257.816406 48.703125 267.144531 48.523438 281.5 C 48.523438 282.578125 47.984375 283.835938 47.265625 284.730469 C 45.832031 286.347656 43.859375 286.167969 42.0625 285.449219 C 40.449219 284.730469 40.269531 282.9375 40.269531 281.324219 C 40.269531 278.628906 40.269531 275.757812 40.269531 273.066406 C 40.269531 258.53125 41.164062 252.433594 40.988281 249.203125 Z M 40.988281 249.203125 " fill-opacity="1" fill-rule="nonzero"/></g><g clip-path="url(#222bbf1aac)"><path class="hover-white" fill="#00406d" d="M 78.667969 283.296875 C 78.667969 292.628906 78.667969 301.957031 78.667969 311.46875 C 78.667969 320.441406 78.667969 329.414062 78.667969 338.386719 C 78.667969 341.972656 76.695312 343.949219 73.105469 343.949219 C 69.339844 343.949219 67.003906 341.792969 67.003906 338.386719 C 67.003906 323.132812 67.003906 307.699219 67.003906 292.449219 C 67.003906 290.472656 66.648438 290.113281 65.390625 290.113281 C 64.132812 290.113281 63.777344 290.652344 63.777344 292.449219 C 63.777344 307.699219 63.777344 323.132812 63.777344 338.386719 C 63.777344 341.792969 61.441406 343.949219 57.675781 343.949219 C 53.90625 343.949219 52.113281 341.972656 52.113281 338.386719 C 52.113281 329.414062 52.113281 320.441406 52.113281 311.46875 C 52.113281 302.136719 52.113281 292.808594 52.113281 283.296875 Z M 78.667969 283.296875 " fill-opacity="1" fill-rule="nonzero"/></g><path class="hover-white" fill="#00406d" d="M 323.609375 224.4375 C 323.609375 218.160156 318.765625 213.3125 312.484375 213.3125 C 306.382812 213.3125 301.359375 218.160156 301.359375 224.4375 C 301.359375 230.539062 306.382812 235.5625 312.664062 235.5625 C 318.585938 235.5625 323.609375 230.539062 323.609375 224.4375 Z M 323.609375 224.4375 " fill-opacity="1" fill-rule="nonzero"/><g clip-path="url(#905b7bb860)"><path class="hover-white" fill="#00406d" d="M 288.257812 249.203125 C 288.078125 243.460938 293.105469 240.230469 297.230469 240.410156 C 302.613281 240.410156 307.101562 240.410156 312.484375 240.410156 C 317.867188 240.410156 322.355469 240.410156 327.738281 240.410156 C 331.863281 240.410156 336.710938 243.460938 336.710938 249.203125 C 336.710938 252.613281 337.425781 258.710938 337.425781 273.246094 C 337.425781 275.9375 337.425781 278.808594 337.425781 281.5 C 337.425781 283.117188 337.246094 284.910156 335.632812 285.628906 C 333.839844 286.527344 331.863281 286.527344 330.429688 284.910156 C 329.710938 284.195312 329.171875 282.757812 329.171875 281.679688 C 328.632812 243.820312 325.761719 242.023438 325.761719 280.605469 L 299.027344 280.605469 C 299.027344 266.789062 298.667969 257.996094 298.128906 254.40625 C 297.769531 251.894531 297.410156 251.714844 297.050781 254.226562 C 296.515625 257.996094 295.976562 267.144531 295.617188 281.5 C 295.617188 282.578125 295.078125 283.835938 294.359375 284.730469 C 292.925781 286.347656 290.949219 286.167969 289.15625 285.449219 C 287.542969 284.730469 287.363281 282.9375 287.363281 281.324219 C 287.363281 278.628906 287.363281 275.757812 287.363281 273.066406 C 287.542969 258.53125 288.4375 252.433594 288.257812 249.203125 Z M 288.257812 249.203125 " fill-opacity="1" fill-rule="nonzero"/></g><g clip-path="url(#7c0357cb4f)"><path class="hover-white" fill="#00406d" d="M 325.761719 283.296875 C 325.761719 292.628906 325.761719 301.957031 325.761719 311.46875 C 325.761719 320.441406 325.761719 329.414062 325.761719 338.386719 C 325.761719 341.972656 323.789062 343.949219 320.199219 343.949219 C 316.433594 343.949219 314.097656 341.792969 314.097656 338.386719 C 314.097656 323.132812 314.097656 307.699219 314.097656 292.449219 C 314.097656 290.472656 313.742188 290.113281 312.484375 290.113281 C 311.226562 290.113281 310.871094 290.652344 310.871094 292.449219 C 310.871094 307.699219 310.871094 323.132812 310.871094 338.386719 C 310.871094 341.792969 308.535156 343.949219 304.769531 343.949219 C 301 343.949219 299.207031 341.972656 299.207031 338.386719 C 299.207031 329.414062 299.207031 320.441406 299.207031 311.46875 C 299.207031 302.136719 299.207031 292.808594 299.207031 283.296875 Z M 325.761719 283.296875 " fill-opacity="1" fill-rule="nonzero"/></g><path class="hover-white" fill="#00406d" d="M 261.703125 224.4375 C 261.703125 218.160156 256.855469 213.3125 250.578125 213.3125 C 244.476562 213.3125 239.449219 218.160156 239.449219 224.4375 C 239.449219 230.539062 244.476562 235.5625 250.753906 235.5625 C 256.855469 235.5625 261.703125 230.539062 261.703125 224.4375 Z M 261.703125 224.4375 " fill-opacity="1" fill-rule="nonzero"/><g clip-path="url(#50c8ccd329)"><path class="hover-white" fill="#00406d" d="M 264.035156 283.296875 C 264.035156 292.628906 264.035156 301.957031 264.035156 311.46875 C 264.035156 320.441406 264.035156 329.414062 264.035156 338.386719 C 264.035156 341.972656 262.0625 343.949219 258.472656 343.949219 C 254.703125 343.949219 252.371094 341.792969 252.371094 338.386719 C 252.371094 323.132812 252.371094 307.699219 252.371094 292.449219 C 252.371094 290.472656 252.011719 290.113281 250.753906 290.113281 C 249.5 290.113281 249.140625 290.652344 249.140625 292.449219 C 249.140625 307.699219 249.140625 323.132812 249.140625 338.386719 C 249.140625 341.792969 246.808594 343.949219 243.039062 343.949219 C 239.269531 343.949219 237.476562 341.972656 237.476562 338.386719 C 237.476562 329.414062 237.476562 320.441406 237.476562 311.46875 C 237.476562 302.136719 237.476562 292.808594 237.476562 283.296875 Z M 264.035156 283.296875 " fill-opacity="1" fill-rule="nonzero"/></g><path class="hover-white" fill="#00406d" d="M 274.800781 220.671875 C 274.800781 217.980469 274.800781 215.109375 274.800781 212.417969 C 274.800781 210.800781 274.621094 209.007812 273.007812 208.289062 C 271.210938 207.390625 269.238281 207.390625 267.804688 209.007812 C 267.085938 209.722656 266.546875 211.160156 266.546875 212.238281 C 266.367188 227.667969 265.648438 237 265.109375 240.230469 C 265.109375 240.230469 265.109375 240.230469 265.109375 240.410156 C 260.085938 240.410156 255.78125 240.410156 250.753906 240.410156 C 245.730469 240.410156 241.425781 240.410156 236.398438 240.410156 C 236.398438 240.410156 236.398438 240.410156 236.398438 240.230469 C 235.863281 237 235.144531 227.667969 234.964844 212.238281 C 234.964844 211.160156 234.425781 209.902344 233.707031 209.007812 C 232.273438 207.390625 230.300781 207.570312 228.503906 208.289062 C 226.890625 209.007812 226.710938 210.800781 226.710938 212.417969 C 226.710938 215.109375 226.710938 217.980469 226.710938 220.671875 C 226.710938 238.613281 225.273438 253.6875 236.398438 253.507812 C 236.398438 253.507812 236.398438 253.507812 236.578125 253.507812 C 237.117188 256.378906 237.476562 265.351562 237.476562 280.605469 L 264.035156 280.605469 C 264.035156 265.351562 264.394531 256.558594 264.933594 253.507812 C 264.933594 253.507812 265.109375 253.507812 265.109375 253.507812 C 276.238281 253.507812 274.800781 238.613281 274.800781 220.671875 Z M 274.800781 220.671875 " fill-opacity="1" fill-rule="nonzero"/><path class="hover-white" fill="#00406d" d="M 115.992188 224.4375 C 115.992188 218.160156 120.839844 213.3125 127.121094 213.3125 C 133.21875 213.3125 138.246094 218.160156 138.246094 224.4375 C 138.246094 230.539062 133.21875 235.5625 126.941406 235.5625 C 120.839844 235.5625 115.992188 230.539062 115.992188 224.4375 Z M 115.992188 224.4375 " fill-opacity="1" fill-rule="nonzero"/><g clip-path="url(#0fc81c2fec)"><path class="hover-white" fill="#00406d" d="M 113.660156 283.296875 C 113.660156 292.628906 113.660156 301.957031 113.660156 311.46875 C 113.660156 320.441406 113.660156 329.414062 113.660156 338.386719 C 113.660156 341.972656 115.636719 343.949219 119.222656 343.949219 C 122.992188 343.949219 125.324219 341.792969 125.324219 338.386719 C 125.324219 323.132812 125.324219 307.699219 125.324219 292.449219 C 125.324219 290.472656 125.683594 290.113281 126.941406 290.113281 C 128.195312 290.113281 128.554688 290.652344 128.554688 292.449219 C 128.554688 307.699219 128.554688 323.132812 128.554688 338.386719 C 128.554688 341.792969 130.886719 343.949219 134.65625 343.949219 C 138.425781 343.949219 140.21875 341.972656 140.21875 338.386719 C 140.21875 329.414062 140.21875 320.441406 140.21875 311.46875 C 140.21875 302.136719 140.21875 292.808594 140.21875 283.296875 Z M 113.660156 283.296875 " fill-opacity="1" fill-rule="nonzero"/></g><path class="hover-white" fill="#00406d" d="M 102.894531 220.671875 C 102.894531 217.980469 102.894531 215.109375 102.894531 212.417969 C 102.894531 210.800781 103.074219 209.007812 104.6875 208.289062 C 106.484375 207.390625 108.457031 207.390625 109.894531 209.007812 C 110.609375 209.722656 111.148438 211.160156 111.148438 212.238281 C 111.328125 227.667969 112.046875 237 112.585938 240.230469 C 112.585938 240.230469 112.585938 240.230469 112.585938 240.410156 C 117.609375 240.410156 121.914062 240.410156 126.941406 240.410156 C 131.964844 240.410156 136.269531 240.410156 141.296875 240.410156 C 141.296875 240.410156 141.296875 240.410156 141.296875 240.230469 C 141.832031 237 142.550781 227.667969 142.730469 212.238281 C 142.730469 211.160156 143.269531 209.902344 143.988281 209.007812 C 145.421875 207.390625 147.394531 207.570312 149.191406 208.289062 C 150.804688 209.007812 150.984375 210.800781 150.984375 212.417969 C 150.984375 215.109375 150.984375 217.980469 150.984375 220.671875 C 150.984375 238.613281 152.421875 253.6875 141.296875 253.507812 C 141.296875 253.507812 141.296875 253.507812 141.117188 253.507812 C 140.578125 256.378906 140.21875 265.351562 140.21875 280.605469 L 113.660156 280.605469 C 113.660156 265.351562 113.300781 256.558594 112.765625 253.507812 C 112.765625 253.507812 112.585938 253.507812 112.585938 253.507812 C 101.457031 253.507812 102.894531 238.613281 102.894531 220.671875 Z M 102.894531 220.671875 " fill-opacity="1" fill-rule="nonzero"/></svg>