<svg xmlns="http://www.w3.org/2000/svg" xmlns:xlink="http://www.w3.org/1999/xlink" width="500" zoomAndPan="magnify" viewBox="0 0 375 374.999991" height="500" preserveAspectRatio="xMidYMid meet" version="1.0"><path fill="#00406d" d="M 347.742188 265.402344 C 347.707031 265.378906 347.707031 265.332031 347.683594 265.304688 C 346.070312 266.6875 344.398438 268.03125 342.628906 269.246094 C 342.230469 269.546875 341.816406 269.691406 341.417969 269.753906 C 327.808594 275 315.59375 273.8125 305.671875 261.683594 C 303.695312 259.285156 301.988281 256.761719 300.460938 254.132812 C 303.527344 264.144531 309.355469 272.625 318.964844 274.722656 C 330.402344 277.230469 338.742188 276.019531 346.703125 266.796875 C 347.101562 266.335938 347.40625 265.886719 347.742188 265.402344 Z M 367.921875 207.625 C 368.320312 197.011719 367.449219 182.894531 358.90625 175.160156 C 348.871094 166.0625 337.953125 160.960938 324.972656 168.230469 C 306.605469 178.46875 298.144531 203.152344 298.667969 223.535156 C 298.921875 233.824219 300.640625 244.960938 306.738281 253.574219 C 309.742188 257.816406 313.5 262.214844 318.199219 264.640625 C 326.816406 269.085938 331.894531 267.316406 339.746094 264.191406 C 357.160156 252.132812 367.144531 228.445312 367.921875 207.625 Z M 373.628906 197.75 C 374.667969 215.175781 370.390625 234.25 360.929688 249.589844 C 361.132812 250.242188 361.050781 251.007812 360.527344 251.78125 C 357.292969 256.667969 357.390625 263.28125 353.4375 267.851562 C 349.332031 272.601562 345.5625 277.230469 340.183594 280.5625 C 332.449219 285.359375 318.40625 280.769531 310.625 278.140625 C 292.863281 272.152344 290.414062 238.972656 292.886719 223.863281 C 292.910156 223.789062 292.933594 223.742188 292.960938 223.667969 C 292.886719 199.15625 302.253906 172.703125 325.09375 161.746094 C 349.574219 149.992188 372.246094 174.324219 373.628906 197.75 " fill-opacity="1" fill-rule="nonzero"/><path fill="#00406d" d="M 196.828125 179.125 C 196.984375 161.117188 200.949219 144.210938 204.304688 126.628906 C 192.746094 125.164062 181.148438 123.953125 169.296875 123.953125 C 161.285156 123.953125 145.945312 122.484375 141.171875 131.34375 C 140.566406 132.457031 140.007812 133.597656 139.472656 134.761719 C 139.472656 135.0625 139.460938 135.367188 139.328125 135.71875 C 138.070312 139.632812 136.445312 145.472656 135.4375 151.761719 C 135.511719 154.742188 136.070312 157.75 137.28125 160.679688 C 141.472656 170.910156 147.316406 172.761719 157.75 174.214844 C 166.253906 175.402344 174.90625 176.46875 183.414062 177.5625 C 187.886719 178.167969 192.355469 178.640625 196.828125 179.125 Z M 218.15625 128.421875 C 215.453125 128.058594 212.773438 127.707031 210.074219 127.355469 C 206.753906 144.820312 202.71875 161.769531 202.644531 179.65625 C 204.632812 179.828125 206.65625 180.03125 208.65625 180.214844 C 208.679688 180.167969 208.679688 180.105469 208.679688 180.058594 C 211.613281 170.8125 211.1875 160.027344 213.101562 150.367188 C 214.640625 142.722656 216.082031 135.765625 218.15625 128.421875 Z M 258.484375 274.320312 C 254.835938 266.519531 250.523438 257.878906 245.261719 251.105469 C 240.089844 244.425781 235.53125 235.871094 229.753906 229.847656 C 223.996094 223.863281 217.464844 219.5 210.847656 214.519531 C 208.253906 212.546875 205.445312 211.585938 202.621094 210.726562 C 212.570312 224.203125 225.511719 236.042969 236.222656 248.523438 C 243.699219 257.210938 251.273438 265.585938 258.484375 274.320312 Z M 250.847656 277.277344 C 252.921875 278.867188 255.234375 280.707031 257.636719 282.308594 C 247.796875 269.339844 236.804688 255.953125 225.003906 245.070312 C 217.695312 238.296875 212.617188 230.40625 206.050781 222.90625 C 204.691406 221.34375 203.300781 219.78125 201.882812 218.203125 C 208.582031 232.453125 221.015625 246.257812 230.808594 256.859375 C 237.324219 263.9375 243.214844 271.414062 250.847656 277.277344 Z M 259.769531 290.246094 C 254.15625 288.171875 248.691406 282.890625 244.558594 279.773438 C 236.648438 273.835938 230.832031 265.125 224.167969 257.855469 C 212.265625 244.910156 197.410156 227.777344 192.839844 210.375 C 180.785156 222.980469 173.390625 242.136719 178.082031 257.976562 C 180.457031 266.007812 188.007812 282.101562 194.585938 287.433594 C 204.558594 295.492188 222.09375 296.050781 234.222656 296.195312 C 243.421875 296.328125 252.316406 294.789062 259.769531 290.246094 Z M 270.128906 280.40625 C 278.003906 268.964844 279.542969 254.8125 279.375 241.324219 C 279.046875 215.355469 257.695312 200.148438 234.296875 197.242188 C 228.964844 197.265625 223.632812 197.265625 218.335938 197.132812 C 215.34375 197.496094 212.386719 198.050781 209.515625 198.804688 C 206.351562 200.015625 203.273438 201.761719 200.34375 203.855469 C 204.136719 205.152344 208.351562 205.371094 211.636719 207.855469 C 215.804688 211.007812 219.972656 214.167969 224.324219 217.066406 C 234.152344 223.644531 238.269531 234.128906 245.964844 242.585938 C 252.738281 250.039062 258.191406 260 262.421875 269.0625 C 264.566406 273.691406 267.34375 278.332031 267.828125 283.335938 C 268.625 282.429688 269.390625 281.445312 270.128906 280.40625 Z M 285.203125 254.535156 C 285.203125 253.429688 285.15625 252.414062 285.132812 251.382812 C 285.035156 251.40625 284.875 251.382812 284.78125 251.40625 C 282.332031 277.703125 268.554688 302.496094 238.015625 302.058594 C 231.824219 301.988281 223.464844 302.058594 215.273438 301.125 C 215.273438 301.40625 215.273438 301.660156 215.273438 301.828125 C 220.726562 303.925781 226.542969 305.089844 232.527344 305.089844 C 244.476562 305.089844 261.890625 301.660156 270.648438 292.4375 C 279.871094 282.730469 285.203125 267.597656 285.203125 254.535156 Z M 289.808594 184.710938 C 289.699219 184.527344 289.675781 184.324219 289.601562 184.152344 C 287.433594 186.394531 284.695312 187.921875 281.289062 188.273438 C 281.167969 188.320312 281.082031 188.371094 280.960938 188.371094 C 253.164062 188.371094 227.984375 188.671875 201.832031 185.691406 C 189.8125 184.324219 177.585938 182.6875 165.578125 181.125 C 157.335938 180.03125 148.476562 179.730469 140.890625 176.144531 C 139.125 175.28125 137.609375 174.09375 136.300781 172.675781 C 136.191406 172.90625 136.070312 173.113281 135.898438 173.320312 C 137.535156 178.3125 140.6875 182.152344 146.199219 183.621094 C 154.464844 185.789062 163.152344 183.546875 171.417969 185.621094 C 179.777344 187.714844 189.75 188.671875 198.378906 189.835938 C 205.238281 190.746094 212.242188 191.121094 219.234375 191.277344 C 224.238281 190.816406 229.472656 190.890625 234.671875 191.449219 C 243.238281 191.679688 252.0625 193.070312 260.445312 192.867188 C 271.644531 192.5625 283.738281 195.445312 289.808594 184.710938 Z M 280.5625 182.554688 C 289.394531 182.105469 292.378906 164.945312 292.097656 158.585938 C 291.746094 149.738281 285.433594 138.808594 275.835938 136.761719 C 262.894531 133.996094 249.082031 131.851562 235.910156 130.542969 C 231.921875 130.132812 227.960938 129.660156 223.996094 129.148438 C 221.535156 137.765625 219.972656 146.222656 218.082031 155.09375 C 216.253906 163.589844 216.917969 172.300781 214.542969 180.613281 C 236.441406 182.179688 258.375 182.554688 280.5625 182.554688 Z M 296.824219 149.738281 C 302.507812 163.78125 301.574219 198.476562 279.496094 198.476562 C 272.226562 198.476562 265.027344 198.125 257.839844 197.773438 C 268.601562 202.800781 277.546875 210.679688 281.945312 221.574219 C 289.929688 235.570312 291.625 246.449219 291.019531 262.957031 C 290.621094 274.699219 281.035156 291.503906 272.042969 298.75 C 248.5 317.703125 212.386719 314.117188 192.164062 293.226562 C 191.871094 292.910156 191.703125 292.609375 191.558594 292.304688 C 182.40625 283.871094 174.980469 268.6875 171.839844 257.1875 C 165.671875 234.660156 181.972656 207.296875 201.90625 196.078125 C 201.128906 195.980469 200.34375 195.894531 199.566406 195.796875 C 187.109375 194.125 173.984375 190.492188 161.382812 190.492188 C 152.863281 190.492188 142.054688 191.207031 135.972656 183.800781 C 128.242188 174.351562 127.78125 161.542969 129.878906 149.433594 C 130.109375 144.429688 131.066406 139.703125 132.457031 136.277344 C 134.785156 130.640625 137.160156 122.765625 143.753906 120.765625 C 152.441406 118.160156 160.292969 118.136719 169.273438 118.136719 C 187.132812 118.136719 204.367188 119.953125 221.9375 122.886719 C 231.644531 124.496094 241.699219 125.914062 251.480469 126.980469 C 259.332031 127.839844 269.875 128.191406 277.375 131.148438 C 286.089844 134.554688 292.933594 140.699219 296.097656 148.683594 C 296.402344 148.960938 296.628906 149.3125 296.824219 149.738281 " fill-opacity="1" fill-rule="nonzero"/><path fill="#00406d" d="M 138.84375 246.558594 C 151.023438 240.71875 156.789062 225.050781 149.179688 213.054688 C 142.6875 202.828125 126.570312 197.265625 115.832031 201.761719 C 105.824219 205.445312 96.359375 214.542969 95.195312 224.601562 C 95.246094 224.976562 95.246094 225.378906 95.109375 225.839844 C 95.085938 225.910156 95.085938 225.984375 95.0625 226.070312 C 94.917969 230.792969 96.625 235.691406 101.023438 240.296875 C 104.585938 243.980469 110.332031 250.621094 115.410156 251.734375 C 123.988281 253.601562 131.390625 250.121094 138.84375 246.558594 Z M 132.253906 258.398438 C 141.703125 254.484375 163.308594 246.148438 157.421875 231.375 C 155.265625 242.414062 147.109375 249.964844 134.15625 254.945312 C 124.703125 258.582031 116.414062 259.816406 107.59375 254.085938 C 104.867188 252.316406 101.8125 249.867188 99 247.058594 C 98.902344 247.214844 98.808594 247.359375 98.675781 247.492188 C 100.804688 250.621094 103.652344 253.273438 107.265625 255.019531 C 115.070312 258.8125 123.660156 261.960938 132.253906 258.398438 Z M 151.082031 205.46875 C 158.476562 211.988281 165.550781 228.589844 163.480469 237.617188 C 160.125 252.316406 147.617188 259.816406 133.828125 264.007812 C 109.035156 271.546875 83.164062 250.777344 89.453125 224.601562 C 90.421875 211.308594 101.535156 200.875 114.292969 196.148438 C 125.40625 191.507812 142.007812 195.824219 151.082031 205.46875 " fill-opacity="1" fill-rule="nonzero"/><path fill="#00406d" d="M 105.542969 142.1875 C 105.570312 142.007812 105.652344 141.863281 105.726562 141.679688 C 90.941406 130.871094 73.867188 122.351562 55.375 121.902344 C 55.328125 121.953125 55.304688 122.023438 55.242188 122.097656 C 54.796875 122.679688 54.238281 123.03125 53.65625 123.210938 C 46.785156 135.160156 43.246094 152.441406 39.539062 165.40625 C 36.957031 174.472656 31.226562 182.382812 31.648438 192.210938 C 32.027344 201.6875 41.527344 209.394531 50.625 209.515625 C 60.332031 209.671875 77.503906 210.726562 82.667969 200.425781 C 86.191406 193.328125 89.308594 186.152344 92.640625 178.941406 C 98.152344 167.175781 100.855469 154.1875 105.542969 142.1875 Z M 122.351562 96.273438 C 125.261719 87.488281 128.242188 71.046875 122.933594 62.320312 C 116.71875 52.09375 105.023438 48.226562 93.523438 50.578125 C 78.59375 53.632812 71.871094 73.773438 68.003906 86.460938 C 65.179688 95.824219 63.253906 107.070312 58.710938 116.246094 C 76.742188 117.503906 93.5 125.660156 108.078125 136.25 C 110.355469 129.78125 111.253906 122.859375 113.710938 116.414062 C 116.339844 109.566406 120.050781 103.253906 122.351562 96.273438 Z M 109.945312 45.402344 C 127.707031 52.421875 133.113281 65.714844 131.015625 84.410156 C 129.78125 95.339844 125.101562 104.671875 120.789062 114.621094 C 116.597656 124.242188 115.832031 134.882812 110.960938 144.128906 C 103.472656 162.703125 98.394531 181.921875 89.355469 199.992188 C 83.320312 212.074219 77.902344 212.097656 65.738281 214.800781 C 58.757812 216.363281 49.039062 216.496094 42.289062 213.964844 C 26.316406 207.976562 22.332031 191.328125 28.742188 176.847656 C 33.445312 166.292969 37.152344 154.902344 40.472656 143.859375 C 43.113281 135.015625 44.785156 126.195312 49.816406 118.316406 C 50.09375 117.855469 50.46875 117.554688 50.855469 117.324219 C 51.125 116.875 51.535156 116.488281 52.070312 116.269531 C 57.472656 107.046875 59.0625 94.796875 62.429688 84.90625 C 65.15625 76.824219 67.605469 69.554688 72.003906 62.320312 C 79.953125 49.246094 93.621094 38.957031 109.945312 45.402344 " fill-opacity="1" fill-rule="nonzero"/><path fill="#00406d" d="M 88.652344 316.769531 C 88.566406 316.613281 88.519531 316.46875 88.445312 316.285156 C 65.324219 333.796875 21.75 307.621094 7.667969 276.019531 C 8.40625 283.894531 11.011719 291.421875 16.746094 297.308594 C 22.753906 303.5 29.785156 308.738281 36.933594 313.511719 C 45.925781 319.496094 59.363281 327.203125 70.4375 326.742188 C 77.757812 326.417969 84.230469 322.429688 88.652344 316.769531 Z M 94.53125 296.703125 C 94.433594 295.953125 94.335938 295.214844 94.152344 294.460938 C 93.921875 293.492188 94.152344 292.691406 94.636719 292.085938 C 94.105469 273.132812 83.625 254.15625 70.003906 241.421875 C 55.351562 227.679688 21.847656 215.246094 12.066406 242.304688 C 3.683594 265.546875 20.164062 291.953125 39.355469 305.113281 C 48.070312 311.074219 58.539062 316.539062 69.445312 315.957031 C 83.550781 315.21875 90.519531 309.644531 94.53125 296.703125 Z M 63.253906 228.46875 C 84.53125 243.398438 101.957031 269.851562 100.394531 296.605469 C 100.417969 296.800781 100.417969 297.007812 100.394531 297.238281 C 101.230469 308.507812 95.972656 321.667969 86.191406 327.773438 C 72.886719 336.121094 59.691406 331.652344 46.675781 325.253906 C 32.605469 318.308594 18.867188 309.597656 9.148438 296.980469 C 0.242188 285.519531 0.445312 270.105469 3.210938 256.386719 C 3.210938 252.183594 3.863281 248.027344 5.304688 243.980469 C 14.117188 219.550781 42.433594 213.867188 63.253906 228.46875 " fill-opacity="1" fill-rule="nonzero"/></svg>