<svg xmlns="http://www.w3.org/2000/svg" xmlns:xlink="http://www.w3.org/1999/xlink" width="500" zoomAndPan="magnify" viewBox="0 0 375 374.999991" height="500" preserveAspectRatio="xMidYMid meet" version="1.0"><defs><clipPath id="b1de7189fd"><path d="M 21 0 L 354.65625 0 L 354.65625 375 L 21 375 Z M 21 0 " clip-rule="nonzero"/></clipPath></defs><g clip-path="url(#b1de7189fd)"><path fill="#00406d" d="M 344.058594 195.988281 C 350.941406 189.117188 354.734375 179.945312 354.734375 170.160156 C 354.734375 160.382812 350.945312 151.207031 344.0625 144.324219 C 331 131.261719 310.402344 130.1875 296.085938 141.097656 C 289.769531 136.277344 282.0625 133.664062 273.9375 133.664062 C 269.164062 133.664062 264.542969 134.570312 260.257812 136.289062 C 253.851562 133.191406 246.988281 131.050781 239.953125 129.949219 C 260.613281 117.828125 274.515625 95.378906 274.515625 69.742188 C 274.515625 31.285156 243.222656 0 204.753906 0 C 166.300781 0 135.011719 31.285156 135.011719 69.742188 C 135.011719 95.371094 148.902344 117.808594 169.542969 129.9375 C 134.851562 135.320312 108.214844 165.386719 108.214844 201.5625 L 108.214844 242.050781 L 75.054688 262.222656 L 72.113281 257.613281 C 71.371094 256.449219 70.195312 255.625 68.84375 255.328125 C 67.496094 255.027344 66.082031 255.277344 64.917969 256.023438 L 23.410156 282.503906 C 20.984375 284.054688 20.269531 287.277344 21.820312 289.703125 L 74.679688 372.589844 C 75.671875 374.148438 77.355469 375 79.078125 375 C 80.035156 375 81.007812 374.734375 81.875 374.179688 L 123.402344 347.699219 C 124.570312 346.953125 125.390625 345.78125 125.691406 344.429688 C 125.988281 343.078125 125.738281 341.667969 124.996094 340.5 L 118.8125 330.808594 L 134.652344 321.175781 L 201.808594 343.378906 C 206.332031 344.878906 210.855469 345.625 215.308594 345.625 C 223.070312 345.625 230.621094 343.359375 237.617188 338.871094 L 317.191406 287.871094 C 328.140625 280.851562 331.347656 266.21875 324.335938 255.234375 C 319.222656 247.28125 310.101562 243.425781 301.296875 244.601562 L 301.296875 238.773438 Z M 292.398438 151.691406 C 294.429688 153.726562 297.730469 153.730469 299.765625 151.695312 C 309.953125 141.523438 326.519531 141.523438 336.6875 151.691406 C 341.605469 156.609375 344.308594 163.167969 344.308594 170.160156 C 344.308594 177.15625 341.605469 183.707031 336.6875 188.617188 L 296.082031 229.242188 L 255.476562 188.613281 C 245.304688 178.445312 245.304688 161.878906 255.476562 151.691406 C 260.382812 146.789062 266.9375 144.089844 273.9375 144.089844 C 280.9375 144.089844 287.492188 146.789062 292.398438 151.691406 Z M 145.4375 69.742188 C 145.4375 37.035156 172.046875 10.421875 204.753906 10.421875 C 237.472656 10.421875 264.09375 37.035156 264.09375 69.742188 C 264.09375 102.460938 237.472656 129.078125 204.753906 129.078125 C 172.046875 129.078125 145.4375 102.460938 145.4375 69.742188 Z M 180.699219 139.503906 L 228.808594 139.503906 C 235.835938 139.503906 242.835938 140.71875 249.4375 143.054688 C 248.984375 143.464844 248.539062 143.886719 248.105469 144.324219 C 248.101562 144.324219 248.101562 144.324219 248.101562 144.324219 C 233.871094 158.582031 233.871094 181.753906 248.101562 195.984375 L 290.871094 238.773438 L 290.871094 248.652344 L 243.40625 279.082031 C 241.121094 272.140625 235.671875 266.46875 228.378906 264.058594 L 144.039062 236.160156 C 135.398438 233.300781 126.746094 233.453125 118.636719 236.519531 L 118.636719 201.566406 C 118.636719 167.34375 146.476562 139.503906 180.699219 139.503906 Z M 80.664062 362.589844 L 33.40625 288.492188 L 66.128906 267.613281 L 107.066406 331.785156 C 107.078125 331.800781 107.085938 331.816406 107.09375 331.832031 C 107.117188 331.871094 107.144531 331.90625 107.167969 331.941406 L 113.402344 341.714844 Z M 315.554688 260.859375 C 319.472656 266.992188 317.683594 275.171875 311.566406 279.09375 L 231.988281 330.097656 C 223.714844 335.402344 214.410156 336.574219 205.082031 333.480469 L 135.636719 310.523438 C 134.183594 310.042969 132.597656 310.222656 131.292969 311.015625 L 113.203125 322.015625 L 80.664062 271.011719 L 117.300781 248.722656 C 124.660156 244.234375 132.554688 243.335938 140.761719 246.054688 L 225.105469 273.953125 C 230.605469 275.773438 234.320312 281.160156 234.140625 286.910156 C 234.097656 287.101562 234.058594 287.296875 234.035156 287.5 C 233.527344 291.855469 231.125 295.894531 227.757812 298.039062 C 224.636719 300.03125 220.960938 300.347656 216.835938 298.980469 L 178.410156 286.277344 C 175.675781 285.371094 172.726562 286.855469 171.824219 289.589844 C 170.921875 292.320312 172.402344 295.269531 175.136719 296.171875 L 213.5625 308.875 C 216.265625 309.773438 218.972656 310.214844 221.601562 310.214844 C 225.816406 310.214844 229.835938 309.078125 233.363281 306.828125 C 238.75 303.394531 242.605469 297.625 243.992188 291.085938 L 297.332031 256.890625 C 303.453125 252.96875 311.632812 254.753906 315.554688 260.859375 Z M 274.683594 181.539062 C 274.683594 178.660156 277.019531 176.328125 279.898438 176.328125 L 290.871094 176.328125 L 290.871094 165.332031 C 290.871094 162.453125 293.203125 160.121094 296.082031 160.121094 C 298.960938 160.121094 301.292969 162.453125 301.292969 165.332031 L 301.292969 176.328125 L 312.289062 176.328125 C 315.164062 176.328125 317.5 178.660156 317.5 181.539062 C 317.5 184.417969 315.164062 186.75 312.289062 186.75 L 301.292969 186.75 L 301.292969 197.722656 C 301.292969 200.601562 298.960938 202.933594 296.082031 202.933594 C 293.203125 202.933594 290.871094 200.601562 290.871094 197.722656 L 290.871094 186.75 L 279.898438 186.75 C 277.019531 186.75 274.683594 184.417969 274.683594 181.539062 Z M 274.683594 181.539062 " fill-opacity="1" fill-rule="nonzero"/></g></svg>