<svg xmlns="http://www.w3.org/2000/svg" xmlns:xlink="http://www.w3.org/1999/xlink" width="500" zoomAndPan="magnify" viewBox="0 0 375 374.999991" height="500" preserveAspectRatio="xMidYMid meet" version="1.0"><defs><clipPath id="5c273721a6"><path d="M 175 241 L 196 241 L 196 337.523438 L 175 337.523438 Z M 175 241 " clip-rule="nonzero"/></clipPath><clipPath id="dccee7720f"><path d="M 41.25 190 L 106 190 L 106 294 L 41.25 294 Z M 41.25 190 " clip-rule="nonzero"/></clipPath><clipPath id="14e40bc5da"><path d="M 108 42.023438 L 228 42.023438 L 228 146 L 108 146 Z M 108 42.023438 " clip-rule="nonzero"/></clipPath></defs><path fill="#00406d" d="M 128.921875 235.972656 L 241.660156 235.972656 L 241.660156 250.398438 L 128.921875 250.398438 Z M 128.921875 235.972656 " fill-opacity="1" fill-rule="evenodd"/><g clip-path="url(#5c273721a6)"><path fill="#00406d" d="M 175.40625 241.851562 L 195.175781 241.851562 L 195.175781 337.488281 L 175.40625 337.488281 Z M 175.40625 241.851562 " fill-opacity="1" fill-rule="evenodd"/></g><path fill="#00406d" d="M 104.878906 257.878906 C 103.8125 269.097656 93.660156 277.113281 82.4375 275.511719 C 71.21875 274.441406 63.203125 264.289062 64.808594 253.070312 L 71.753906 194.832031 C 72.820312 183.613281 82.972656 175.597656 94.195312 177.199219 C 105.414062 178.269531 113.429688 188.421875 111.824219 199.640625 Z M 104.878906 257.878906 " fill-opacity="1" fill-rule="nonzero"/><path fill="#00406d" d="M 97.933594 125.375 C 109.6875 125.375 119.304688 134.992188 119.304688 146.746094 C 119.304688 158.5 109.6875 168.117188 97.933594 168.117188 C 86.179688 168.117188 76.5625 158.5 76.5625 146.746094 C 76.5625 134.992188 86.179688 125.375 97.933594 125.375 Z M 97.933594 125.375 " fill-opacity="1" fill-rule="evenodd"/><path fill="#00406d" d="M 93.125 195.902344 C 89.917969 192.160156 90.453125 186.816406 93.660156 184.148438 C 97.398438 180.941406 102.742188 181.476562 105.414062 184.679688 L 126.785156 209.257812 L 147.089844 209.257812 C 151.898438 209.257812 155.636719 213 155.636719 217.808594 C 155.636719 222.617188 151.898438 226.355469 147.089844 226.355469 L 123.046875 226.355469 C 120.910156 226.355469 118.238281 225.289062 116.632812 223.683594 L 92.589844 196.433594 Z M 93.125 195.902344 " fill-opacity="1" fill-rule="nonzero"/><path fill="#00406d" d="M 82.972656 275.511719 C 77.628906 274.441406 72.820312 263.222656 73.355469 257.878906 C 74.425781 252.535156 79.769531 248.796875 85.109375 249.863281 C 85.109375 249.863281 140.675781 258.949219 164.71875 320.390625 C 166.859375 325.734375 164.1875 331.613281 158.84375 333.214844 C 153.5 335.351562 147.625 332.679688 146.019531 327.335938 C 126.785156 276.578125 83.507812 275.511719 83.507812 275.511719 Z M 82.972656 275.511719 " fill-opacity="1" fill-rule="nonzero"/><g clip-path="url(#dccee7720f)"><path fill="#00406d" d="M 103.277344 286.730469 C 104.878906 287.265625 105.949219 289.402344 105.414062 291.003906 C 104.878906 292.609375 102.742188 293.675781 101.140625 293.144531 C 101.140625 293.144531 95.796875 291.539062 88.851562 289.9375 C 84.042969 288.867188 78.699219 288.867188 73.890625 288.867188 C 61.066406 288.867188 50.382812 288.867188 47.175781 273.90625 C 46.640625 271.238281 46.105469 268.03125 45.574219 264.289062 C 45.574219 261.085938 45.039062 257.34375 45.039062 253.605469 C 45.039062 248.796875 45.039062 244.523438 45.039062 240.78125 C 45.039062 225.289062 45.039062 213 41.832031 194.832031 C 41.296875 193.230469 42.902344 191.09375 44.503906 191.09375 C 46.105469 190.558594 48.246094 192.160156 48.246094 193.765625 C 51.449219 212.464844 51.449219 224.753906 51.449219 240.78125 C 51.449219 245.054688 51.449219 248.796875 51.449219 253.605469 C 51.449219 256.8125 51.449219 260.550781 51.984375 263.757812 C 51.984375 266.960938 52.519531 269.632812 53.054688 272.304688 C 55.191406 281.921875 63.738281 281.921875 73.355469 281.921875 C 78.699219 281.921875 84.042969 281.921875 89.386719 282.992188 C 96.867188 284.59375 102.207031 286.195312 102.207031 286.195312 Z M 103.277344 286.730469 " fill-opacity="1" fill-rule="nonzero"/></g><path fill="#00406d" d="M 70.152344 285.664062 L 78.699219 285.664062 L 78.699219 334.816406 L 70.152344 334.816406 Z M 70.152344 285.664062 " fill-opacity="1" fill-rule="nonzero"/><path fill="#00406d" d="M 89.917969 328.40625 C 92.054688 328.40625 94.195312 330.542969 94.195312 332.679688 C 94.195312 334.816406 92.054688 336.953125 89.917969 336.953125 L 58.929688 336.953125 C 56.792969 336.953125 54.65625 334.816406 54.65625 332.679688 C 54.65625 330.542969 56.792969 328.40625 58.929688 328.40625 Z M 89.917969 328.40625 " fill-opacity="1" fill-rule="nonzero"/><path fill="#00406d" d="M 265.703125 257.878906 C 266.769531 269.097656 276.921875 277.113281 288.144531 275.511719 C 299.363281 274.441406 307.378906 264.289062 305.773438 253.070312 L 298.828125 194.832031 C 297.761719 183.613281 287.609375 175.597656 276.386719 177.199219 C 265.167969 178.269531 257.152344 188.421875 258.757812 199.640625 Z M 265.703125 257.878906 " fill-opacity="1" fill-rule="nonzero"/><path fill="#00406d" d="M 272.648438 125.375 C 260.894531 125.375 251.277344 134.992188 251.277344 146.746094 C 251.277344 158.5 260.894531 168.117188 272.648438 168.117188 C 284.402344 168.117188 294.019531 158.5 294.019531 146.746094 C 294.019531 134.992188 284.402344 125.375 272.648438 125.375 Z M 272.648438 125.375 " fill-opacity="1" fill-rule="evenodd"/><path fill="#00406d" d="M 277.457031 195.902344 C 280.664062 192.160156 280.128906 186.816406 276.921875 184.148438 C 273.183594 180.941406 267.839844 181.476562 265.167969 184.679688 L 243.796875 209.257812 L 223.492188 209.257812 C 218.683594 209.257812 214.945312 213 214.945312 217.808594 C 214.945312 222.617188 218.683594 226.355469 223.492188 226.355469 L 247.535156 226.355469 C 249.671875 226.355469 252.34375 225.289062 253.949219 223.683594 L 277.992188 196.433594 Z M 277.457031 195.902344 " fill-opacity="1" fill-rule="nonzero"/><path fill="#00406d" d="M 288.144531 275.511719 C 293.484375 274.441406 298.292969 263.222656 297.761719 257.878906 C 296.691406 252.535156 291.347656 248.796875 286.003906 249.863281 C 286.003906 249.863281 230.4375 258.949219 206.394531 320.390625 C 204.257812 325.734375 206.929688 331.613281 212.273438 333.214844 C 217.617188 335.351562 223.492188 332.679688 225.097656 327.335938 C 244.332031 276.578125 287.609375 275.511719 287.609375 275.511719 Z M 288.144531 275.511719 " fill-opacity="1" fill-rule="nonzero"/><path fill="#00406d" d="M 267.304688 286.730469 C 265.703125 287.265625 264.632812 289.402344 265.167969 291.003906 C 265.703125 292.609375 267.839844 293.675781 269.441406 293.144531 C 269.441406 293.144531 274.785156 291.539062 281.730469 289.9375 C 286.539062 288.867188 291.882812 288.867188 296.691406 288.867188 C 309.515625 288.867188 320.199219 288.867188 323.40625 273.90625 C 323.941406 271.238281 324.476562 268.03125 325.007812 264.289062 C 325.007812 261.085938 325.542969 257.34375 325.542969 253.605469 C 325.542969 248.796875 325.542969 244.523438 325.542969 240.78125 C 325.542969 225.289062 325.542969 213 328.75 194.832031 C 329.285156 193.230469 327.679688 191.09375 326.078125 191.09375 C 324.476562 190.558594 322.335938 192.160156 322.335938 193.765625 C 319.132812 212.464844 319.132812 224.753906 319.132812 240.78125 C 319.132812 245.054688 319.132812 248.796875 319.132812 253.605469 C 319.132812 256.8125 319.132812 260.550781 318.597656 263.757812 C 318.597656 266.960938 318.0625 269.632812 317.527344 272.304688 C 315.390625 281.921875 306.84375 281.921875 297.226562 281.921875 C 291.882812 281.921875 286.539062 281.921875 281.195312 282.992188 C 273.714844 284.59375 268.375 286.195312 268.375 286.195312 Z M 267.304688 286.730469 " fill-opacity="1" fill-rule="nonzero"/><path fill="#00406d" d="M 291.882812 285.664062 L 291.882812 334.816406 L 300.429688 334.816406 L 300.429688 285.664062 Z M 291.882812 285.664062 " fill-opacity="1" fill-rule="nonzero"/><path fill="#00406d" d="M 280.664062 328.40625 C 278.523438 328.40625 276.386719 330.542969 276.386719 332.679688 C 276.386719 334.816406 278.523438 336.953125 280.664062 336.953125 L 311.652344 336.953125 C 313.789062 336.953125 315.925781 334.816406 315.925781 332.679688 C 315.925781 330.542969 313.789062 328.40625 311.652344 328.40625 Z M 280.664062 328.40625 " fill-opacity="1" fill-rule="nonzero"/><path fill="#00406d" d="M 148.15625 139.800781 C 149.761719 140.335938 151.363281 140.335938 152.433594 140.335938 L 199.449219 140.335938 L 224.5625 165.445312 L 224.5625 140.335938 C 237.382812 140.335938 248.070312 129.648438 248.070312 116.824219 L 248.070312 85.300781 C 248.070312 75.683594 242.195312 67.136719 234.179688 63.394531 C 234.179688 64.464844 234.179688 65 234.179688 66.066406 L 234.179688 73.546875 C 237.382812 76.21875 239.523438 80.492188 239.523438 85.300781 L 239.523438 116.824219 C 239.523438 125.375 232.574219 132.320312 224.027344 132.320312 L 215.480469 132.320312 L 215.480469 145.675781 L 202.121094 132.320312 L 155.101562 132.320312 L 147.089844 140.335938 Z M 148.15625 139.800781 " fill-opacity="1" fill-rule="evenodd"/><g clip-path="url(#14e40bc5da)"><path fill="#00406d" d="M 132.128906 42.023438 L 204.257812 42.023438 C 217.082031 42.023438 227.765625 52.710938 227.765625 65.535156 L 227.765625 97.058594 C 227.765625 109.878906 217.082031 120.566406 204.257812 120.566406 L 157.242188 120.566406 L 132.128906 145.675781 L 132.128906 120.566406 C 119.304688 120.566406 108.621094 109.878906 108.621094 97.058594 L 108.621094 65.535156 C 108.621094 52.710938 119.304688 42.023438 132.128906 42.023438 Z M 140.144531 72.480469 C 144.953125 72.480469 149.226562 76.753906 149.226562 81.5625 C 149.226562 86.371094 144.953125 90.644531 140.144531 90.644531 C 135.335938 90.644531 131.058594 86.371094 131.058594 81.5625 C 131.058594 76.753906 135.335938 72.480469 140.144531 72.480469 Z M 168.460938 72.480469 C 173.269531 72.480469 177.542969 76.753906 177.542969 81.5625 C 177.542969 86.371094 173.269531 90.644531 168.460938 90.644531 C 163.652344 90.644531 159.378906 86.371094 159.378906 81.5625 C 159.378906 76.753906 163.652344 72.480469 168.460938 72.480469 Z M 196.777344 72.480469 C 201.585938 72.480469 205.863281 76.753906 205.863281 81.5625 C 205.863281 86.371094 201.585938 90.644531 196.777344 90.644531 C 191.96875 90.644531 187.695312 86.371094 187.695312 81.5625 C 187.695312 76.753906 191.96875 72.480469 196.777344 72.480469 Z M 196.777344 72.480469 " fill-opacity="1" fill-rule="evenodd"/></g></svg>