<svg xmlns="http://www.w3.org/2000/svg" xmlns:xlink="http://www.w3.org/1999/xlink" width="200" zoomAndPan="magnify" viewBox="0 0 150 157.92" height="200" preserveAspectRatio="xMidYMid meet" version="1.0"><defs><clipPath id="e0f0dc6ed9"><path d="M 5.800781 2.882812 L 149.726562 2.882812 L 149.726562 146.808594 L 5.800781 146.808594 Z M 5.800781 2.882812 " clip-rule="nonzero"/></clipPath></defs><g clip-path="url(#e0f0dc6ed9)"><path fill="#00406d" d="M 101.898438 50.859375 C 88.652344 37.613281 67.101562 37.613281 53.855469 50.859375 C 40.609375 64.105469 40.609375 85.65625 53.855469 98.902344 C 60.476562 105.523438 69.175781 108.835938 77.875 108.835938 C 86.574219 108.835938 95.277344 105.527344 101.898438 98.902344 C 115.144531 85.65625 115.144531 64.105469 101.898438 50.859375 Z M 56.394531 53.398438 C 68.238281 41.550781 87.515625 41.550781 99.359375 53.398438 C 111.128906 65.164062 111.203125 84.265625 99.589844 96.128906 C 97.5 89.289062 91.832031 84.085938 84.890625 82.542969 C 88.707031 80.183594 91.253906 75.96875 91.253906 71.160156 C 91.253906 63.785156 85.253906 57.785156 77.875 57.785156 C 70.5 57.785156 64.5 63.785156 64.5 71.160156 C 64.5 75.964844 67.046875 80.183594 70.859375 82.542969 C 63.921875 84.082031 58.253906 89.289062 56.164062 96.128906 C 44.546875 84.265625 44.621094 65.164062 56.394531 53.398438 Z M 77.875 80.949219 C 72.480469 80.949219 68.085938 76.558594 68.085938 71.160156 C 68.085938 65.765625 72.476562 61.371094 77.875 61.371094 C 83.273438 61.371094 87.664062 65.761719 87.664062 71.160156 C 87.660156 76.558594 83.269531 80.949219 77.875 80.949219 Z M 59.183594 98.832031 C 60.644531 91.257812 67.332031 85.660156 75.140625 85.660156 L 80.613281 85.660156 C 88.417969 85.660156 95.109375 91.257812 96.566406 98.832031 C 91.097656 103.109375 84.488281 105.25 77.875 105.25 C 71.265625 105.25 64.65625 103.109375 59.183594 98.832031 Z M 124.28125 37.820312 C 129.390625 37.820312 133.546875 33.660156 133.546875 28.554688 C 133.546875 23.445312 129.390625 19.289062 124.28125 19.289062 C 119.175781 19.289062 115.015625 23.445312 115.015625 28.554688 C 115.015625 33.660156 119.171875 37.820312 124.28125 37.820312 Z M 124.28125 22.875 C 127.414062 22.875 129.957031 25.421875 129.957031 28.550781 C 129.957031 31.679688 127.410156 34.226562 124.28125 34.226562 C 121.152344 34.226562 118.605469 31.679688 118.605469 28.550781 C 118.605469 25.417969 121.152344 22.875 124.28125 22.875 Z M 105.941406 31.4375 C 105.941406 32.3125 106.570312 33.058594 107.425781 33.207031 L 109.351562 33.542969 C 109.585938 34.238281 109.867188 34.914062 110.195312 35.574219 L 109.070312 37.171875 C 108.570312 37.886719 108.652344 38.855469 109.273438 39.472656 L 113.355469 43.558594 C 113.972656 44.171875 114.945312 44.257812 115.65625 43.757812 L 117.257812 42.632812 C 117.914062 42.960938 118.59375 43.242188 119.289062 43.476562 L 119.621094 45.402344 C 119.773438 46.261719 120.519531 46.890625 121.390625 46.890625 L 127.167969 46.890625 C 128.042969 46.890625 128.785156 46.261719 128.933594 45.402344 L 129.269531 43.476562 C 129.96875 43.242188 130.644531 42.960938 131.300781 42.632812 L 132.902344 43.757812 C 133.617188 44.261719 134.585938 44.175781 135.199219 43.558594 L 139.285156 39.472656 C 139.902344 38.855469 139.984375 37.882812 139.488281 37.171875 L 138.363281 35.574219 C 138.691406 34.914062 138.972656 34.234375 139.207031 33.542969 L 141.132812 33.207031 C 141.988281 33.058594 142.617188 32.308594 142.617188 31.4375 L 142.617188 25.660156 C 142.617188 24.789062 141.988281 24.042969 141.132812 23.894531 L 139.207031 23.558594 C 138.972656 22.863281 138.691406 22.1875 138.363281 21.527344 L 139.488281 19.929688 C 139.988281 19.214844 139.90625 18.246094 139.285156 17.628906 L 135.207031 13.542969 C 134.589844 12.925781 133.617188 12.84375 132.90625 13.34375 L 131.308594 14.46875 C 130.648438 14.136719 129.96875 13.855469 129.277344 13.625 L 128.941406 11.699219 C 128.792969 10.839844 128.042969 10.210938 127.175781 10.210938 L 121.394531 10.210938 C 120.523438 10.210938 119.777344 10.839844 119.628906 11.699219 L 119.292969 13.625 C 118.597656 13.855469 117.917969 14.136719 117.261719 14.46875 L 115.664062 13.34375 C 114.949219 12.839844 113.980469 12.925781 113.363281 13.542969 L 109.273438 17.625 C 108.65625 18.242188 108.570312 19.214844 109.070312 19.925781 L 110.195312 21.523438 C 109.867188 22.183594 109.585938 22.863281 109.351562 23.554688 L 107.425781 23.890625 C 106.570312 24.039062 105.941406 24.789062 105.941406 25.660156 Z M 109.527344 27.171875 L 111.070312 26.902344 C 111.765625 26.78125 112.328125 26.257812 112.5 25.574219 C 112.789062 24.433594 113.242188 23.34375 113.847656 22.328125 C 114.210938 21.722656 114.183594 20.957031 113.777344 20.378906 L 112.875 19.097656 L 114.828125 17.144531 L 116.109375 18.042969 C 116.6875 18.449219 117.453125 18.480469 118.0625 18.117188 C 119.074219 17.511719 120.164062 17.058594 121.304688 16.769531 C 121.996094 16.597656 122.515625 16.039062 122.636719 15.335938 L 122.90625 13.796875 L 125.667969 13.796875 L 125.9375 15.335938 C 126.058594 16.035156 126.578125 16.597656 127.265625 16.769531 C 128.40625 17.058594 129.496094 17.507812 130.511719 18.117188 C 131.117188 18.480469 131.882812 18.449219 132.464844 18.042969 L 133.746094 17.144531 L 135.699219 19.097656 L 134.796875 20.378906 C 134.390625 20.957031 134.359375 21.722656 134.726562 22.328125 C 135.328125 23.34375 135.785156 24.433594 136.070312 25.574219 C 136.246094 26.261719 136.804688 26.78125 137.503906 26.902344 L 139.042969 27.171875 L 139.042969 29.933594 L 137.503906 30.203125 C 136.808594 30.324219 136.246094 30.84375 136.070312 31.527344 C 135.785156 32.667969 135.332031 33.761719 134.726562 34.773438 C 134.359375 35.382812 134.390625 36.148438 134.796875 36.726562 L 135.699219 38.007812 L 133.746094 39.960938 L 132.464844 39.058594 C 131.882812 38.652344 131.121094 38.621094 130.511719 38.988281 C 129.496094 39.59375 128.40625 40.046875 127.265625 40.332031 C 126.578125 40.507812 126.058594 41.066406 125.9375 41.765625 L 125.667969 43.304688 L 122.910156 43.304688 L 122.640625 41.765625 C 122.515625 41.070312 121.996094 40.507812 121.3125 40.332031 C 120.171875 40.046875 119.082031 39.59375 118.066406 38.988281 C 117.460938 38.621094 116.695312 38.652344 116.113281 39.058594 L 114.835938 39.960938 L 112.882812 38.007812 L 113.78125 36.726562 C 114.1875 36.148438 114.21875 35.382812 113.855469 34.773438 C 113.25 33.761719 112.792969 32.671875 112.507812 31.527344 C 112.335938 30.839844 111.773438 30.320312 111.074219 30.203125 L 109.535156 29.933594 L 109.535156 28.550781 Z M 149.589844 74.882812 C 149.589844 64.699219 147.5 54.878906 143.382812 45.675781 C 147.460938 41.128906 149.949219 35.125 149.949219 28.554688 C 149.949219 14.398438 138.4375 2.882812 124.28125 2.882812 C 117.722656 2.882812 111.734375 5.359375 107.191406 9.417969 C 97.957031 5.273438 88.101562 3.164062 77.875 3.164062 C 67.652344 3.164062 57.796875 5.273438 48.5625 9.417969 C 44.019531 5.359375 38.027344 2.882812 31.46875 2.882812 C 17.316406 2.882812 5.800781 14.398438 5.800781 28.550781 C 5.800781 35.125 8.285156 41.125 12.367188 45.671875 C 8.253906 54.878906 6.160156 64.695312 6.160156 74.878906 C 6.160156 85.101562 8.265625 94.953125 12.410156 104.183594 C 8.304688 108.738281 5.800781 114.761719 5.800781 121.363281 C 5.800781 135.515625 17.316406 147.03125 31.46875 147.03125 C 38.082031 147.03125 44.121094 144.515625 48.675781 140.394531 C 57.878906 144.507812 67.695312 146.59375 77.871094 146.59375 C 88.054688 146.59375 97.867188 144.503906 107.070312 140.394531 C 111.625 144.515625 117.664062 147.03125 124.277344 147.03125 C 138.429688 147.03125 149.945312 135.515625 149.945312 121.363281 C 149.945312 114.765625 147.441406 108.738281 143.335938 104.1875 C 147.484375 94.953125 149.589844 85.101562 149.589844 74.882812 Z M 124.28125 6.46875 C 136.457031 6.46875 146.363281 16.375 146.363281 28.550781 C 146.363281 40.726562 136.457031 50.628906 124.28125 50.628906 C 112.105469 50.628906 102.203125 40.726562 102.203125 28.550781 C 102.203125 16.375 112.105469 6.46875 124.28125 6.46875 Z M 29.675781 6.550781 L 29.675781 9.1875 C 29.675781 10.179688 30.480469 10.984375 31.46875 10.984375 C 32.460938 10.984375 33.265625 10.179688 33.265625 9.1875 L 33.265625 6.550781 C 44.011719 7.421875 52.601562 16.011719 53.472656 26.757812 L 50.832031 26.757812 C 49.839844 26.757812 49.039062 27.5625 49.039062 28.554688 C 49.039062 29.542969 49.839844 30.347656 50.832031 30.347656 L 53.472656 30.347656 C 52.601562 41.09375 44.011719 49.683594 33.265625 50.554688 L 33.265625 47.917969 C 33.265625 46.929688 32.460938 46.125 31.46875 46.125 C 30.480469 46.125 29.675781 46.929688 29.675781 47.917969 L 29.675781 50.554688 C 18.929688 49.683594 10.339844 41.09375 9.46875 30.347656 L 12.105469 30.347656 C 13.09375 30.347656 13.898438 29.542969 13.898438 28.554688 C 13.898438 27.5625 13.09375 26.757812 12.105469 26.757812 L 9.46875 26.757812 C 10.339844 16.011719 18.929688 7.417969 29.675781 6.550781 Z M 31.46875 143.441406 C 19.296875 143.441406 9.390625 133.539062 9.390625 121.363281 C 9.390625 109.1875 19.296875 99.28125 31.46875 99.28125 C 43.644531 99.28125 53.550781 109.1875 53.550781 121.363281 C 53.550781 133.539062 43.648438 143.441406 31.46875 143.441406 Z M 51.3125 137.628906 C 54.953125 133.195312 57.140625 127.527344 57.140625 121.363281 C 57.140625 107.207031 45.625 95.695312 31.472656 95.695312 C 25.289062 95.695312 19.609375 97.890625 15.175781 101.546875 C 11.578125 93.117188 9.753906 84.160156 9.753906 74.882812 C 9.753906 65.648438 11.5625 56.726562 15.128906 48.328125 C 19.574219 52.007812 25.269531 54.222656 31.476562 54.222656 C 45.628906 54.222656 57.144531 42.707031 57.144531 28.554688 C 57.144531 22.332031 54.917969 16.621094 51.222656 12.171875 C 59.652344 8.582031 68.605469 6.757812 77.878906 6.757812 C 87.152344 6.757812 96.105469 8.582031 104.535156 12.171875 C 100.839844 16.621094 98.613281 22.332031 98.613281 28.554688 C 98.613281 42.707031 110.128906 54.222656 124.28125 54.222656 C 130.488281 54.222656 136.183594 52.007812 140.628906 48.328125 C 144.191406 56.726562 146.003906 65.644531 146.003906 74.882812 C 146.003906 84.160156 144.179688 93.117188 140.585938 101.546875 C 136.148438 97.890625 130.464844 95.695312 124.285156 95.695312 C 110.128906 95.695312 98.617188 107.207031 98.617188 121.363281 C 98.617188 127.53125 100.804688 133.199219 104.445312 137.628906 C 96.042969 141.195312 87.125 143.003906 77.882812 143.003906 C 68.636719 143.003906 59.714844 141.195312 51.3125 137.628906 Z M 124.28125 143.441406 C 112.105469 143.441406 102.203125 133.539062 102.203125 121.363281 C 102.203125 109.1875 112.105469 99.28125 124.28125 99.28125 C 136.457031 99.28125 146.363281 109.183594 146.363281 121.363281 C 146.363281 133.539062 136.457031 143.441406 124.28125 143.441406 Z M 133.074219 127.714844 C 133.074219 131.546875 130.078125 134.765625 126.078125 135.578125 L 126.078125 137.851562 C 126.078125 138.839844 125.273438 139.644531 124.28125 139.644531 C 123.292969 139.644531 122.488281 138.839844 122.488281 137.851562 L 122.488281 135.640625 C 119.328125 135.121094 116.667969 133.109375 115.605469 130.304688 C 115.257812 129.378906 115.722656 128.34375 116.648438 127.988281 C 117.578125 127.640625 118.613281 128.105469 118.964844 129.035156 C 119.667969 130.890625 121.78125 132.1875 124.105469 132.1875 C 127.074219 132.1875 129.488281 130.183594 129.488281 127.71875 C 129.488281 127.167969 129.390625 125.328125 128.105469 124.816406 L 123.660156 123.046875 L 120.039062 121.804688 C 117.273438 120.855469 115.488281 118.1875 115.488281 115.011719 C 115.488281 111.175781 118.484375 107.957031 122.488281 107.148438 L 122.488281 104.875 C 122.488281 103.886719 123.292969 103.082031 124.28125 103.082031 C 125.273438 103.082031 126.078125 103.886719 126.078125 104.875 L 126.078125 107.085938 C 129.234375 107.605469 131.894531 109.613281 132.957031 112.421875 C 133.308594 113.347656 132.839844 114.382812 131.914062 114.734375 C 130.988281 115.085938 129.953125 114.617188 129.597656 113.691406 C 128.898438 111.835938 126.78125 110.535156 124.457031 110.535156 C 121.488281 110.535156 119.074219 112.542969 119.074219 115.007812 C 119.074219 116.300781 119.632812 117.871094 121.199219 118.40625 L 124.863281 119.664062 C 124.890625 119.671875 124.917969 119.683594 124.941406 119.695312 L 129.425781 121.480469 C 131.710938 122.390625 133.074219 124.722656 133.074219 127.714844 Z M 44.011719 106.972656 L 35.652344 106.972656 C 34.660156 106.972656 33.855469 107.777344 33.855469 108.769531 L 33.855469 113.992188 L 27.292969 113.992188 C 26.300781 113.992188 25.496094 114.796875 25.496094 115.785156 L 25.496094 121.566406 L 18.929688 121.566406 C 17.941406 121.566406 17.136719 122.371094 17.136719 123.359375 L 17.136719 133.957031 C 17.136719 134.945312 17.941406 135.75 18.929688 135.75 L 44.007812 135.75 C 44.996094 135.75 45.800781 134.945312 45.800781 133.957031 L 45.800781 108.773438 C 45.804688 107.777344 45.003906 106.972656 44.011719 106.972656 Z M 20.722656 125.15625 L 25.496094 125.15625 L 25.496094 132.160156 L 20.722656 132.160156 Z M 29.085938 117.578125 L 33.855469 117.578125 L 33.855469 132.160156 L 29.085938 132.160156 Z M 42.214844 132.160156 L 37.445312 132.160156 L 37.445312 110.5625 L 42.214844 110.5625 Z M 31.46875 34.652344 C 34.210938 34.652344 36.53125 32.835938 37.296875 30.347656 L 41.648438 30.347656 C 42.640625 30.347656 43.445312 29.542969 43.445312 28.554688 C 43.445312 27.5625 42.640625 26.757812 41.648438 26.757812 L 37.296875 26.757812 C 36.707031 24.835938 35.1875 23.316406 33.265625 22.726562 L 33.265625 15.90625 C 33.265625 14.917969 32.460938 14.113281 31.46875 14.113281 C 30.480469 14.113281 29.675781 14.917969 29.675781 15.90625 L 29.675781 22.722656 C 27.183594 23.488281 25.371094 25.8125 25.371094 28.550781 C 25.371094 31.914062 28.109375 34.652344 31.46875 34.652344 Z M 31.46875 26.042969 C 32.855469 26.042969 33.980469 27.167969 33.980469 28.550781 C 33.980469 29.933594 32.855469 31.058594 31.46875 31.058594 C 30.085938 31.058594 28.960938 29.933594 28.960938 28.550781 C 28.960938 27.167969 30.089844 26.042969 31.46875 26.042969 Z M 31.46875 26.042969 " fill-opacity="1" fill-rule="nonzero"/></g></svg>