<svg xmlns="http://www.w3.org/2000/svg" xmlns:xlink="http://www.w3.org/1999/xlink" width="500" zoomAndPan="magnify" viewBox="0 0 375 374.999991" height="500" preserveAspectRatio="xMidYMid meet" version="1.0"><defs><clipPath id="cde4ff3369"><path d="M 12 0 L 364.828125 0 L 364.828125 375 L 12 375 Z M 12 0 " clip-rule="nonzero"/></clipPath></defs><g clip-path="url(#cde4ff3369)"><path fill="#00406d" d="M 194.546875 36.621094 C 191.089844 33.160156 191.078125 27.546875 194.496094 24.082031 C 198.015625 20.613281 203.628906 20.621094 207.0625 24.054688 C 207.070312 24.0625 207.078125 24.074219 207.085938 24.082031 C 210.503906 27.546875 210.492188 33.160156 207.058594 36.59375 C 205.339844 38.316406 203.070312 39.175781 200.800781 39.175781 C 198.539062 39.175781 196.277344 38.324219 194.546875 36.621094 Z M 364.929688 190.414062 L 364.929688 369.773438 C 364.929688 372.601562 362.632812 374.898438 359.804688 374.898438 L 70.082031 374.898438 C 63.148438 374.898438 57.507812 369.246094 57.507812 362.300781 L 57.507812 236.855469 L 23.828125 189.382812 C 23.824219 189.378906 23.824219 189.378906 23.824219 189.378906 C 23.824219 189.375 23.820312 189.375 23.820312 189.371094 L 14.050781 175.597656 C 14.050781 175.597656 14.046875 175.597656 14.046875 175.59375 C 10.082031 169.992188 12.976562 161.34375 20.636719 155.902344 L 42.199219 140.609375 C 47.316406 136.992188 53.066406 135.859375 57.507812 137.152344 L 57.507812 52.910156 C 57.507812 45.976562 63.148438 40.335938 70.082031 40.335938 L 142.183594 40.335938 L 142.183594 35.542969 C 142.183594 29.84375 146.820312 25.210938 152.519531 25.210938 L 171.003906 25.210938 C 173.445312 10.972656 185.878906 0.101562 200.800781 0.101562 C 215.714844 0.101562 228.136719 10.972656 230.578125 25.210938 L 249.0625 25.210938 C 254.761719 25.210938 259.398438 29.84375 259.398438 35.542969 L 259.398438 40.335938 L 331.5 40.335938 C 338.433594 40.335938 344.074219 45.976562 344.074219 52.910156 L 344.074219 185.289062 L 359.800781 185.289062 C 362.632812 185.289062 364.929688 187.585938 364.929688 190.414062 Z M 259.398438 50.585938 L 259.398438 60.460938 L 317.722656 60.460938 C 320.554688 60.460938 322.847656 62.757812 322.847656 65.585938 L 322.847656 185.289062 L 333.824219 185.289062 L 333.824219 52.910156 C 333.824219 51.628906 332.78125 50.585938 331.5 50.585938 Z M 152.433594 71.460938 C 152.433594 71.492188 152.484375 71.542969 152.515625 71.542969 L 249.0625 71.542969 C 249.097656 71.542969 249.148438 71.492188 249.148438 71.460938 L 249.148438 35.542969 C 249.148438 35.507812 249.097656 35.460938 249.0625 35.460938 L 225.886719 35.460938 C 223.054688 35.460938 220.761719 33.164062 220.761719 30.335938 C 220.761719 19.316406 211.808594 10.351562 200.800781 10.351562 C 189.78125 10.351562 180.820312 19.316406 180.820312 30.335938 C 180.820312 33.164062 178.523438 35.460938 175.695312 35.460938 L 152.515625 35.460938 C 152.484375 35.460938 152.433594 35.511719 152.433594 35.542969 Z M 67.757812 52.910156 L 67.757812 147.683594 L 72.589844 154.496094 C 72.636719 154.550781 72.683594 154.605469 72.722656 154.664062 C 72.765625 154.726562 72.800781 154.789062 72.839844 154.847656 L 78.730469 163.152344 L 78.730469 65.585938 C 78.730469 62.757812 81.027344 60.460938 83.859375 60.460938 L 142.183594 60.460938 L 142.183594 50.585938 L 70.082031 50.585938 C 68.820312 50.585938 67.757812 51.648438 67.757812 52.910156 Z M 149.707031 280.910156 L 67.324219 164.785156 L 35.148438 187.625 L 117.527344 303.742188 Z M 128.09375 308.8125 L 149.492188 314.699219 L 151.003906 292.558594 Z M 22.5 169.796875 L 29.214844 179.261719 L 61.390625 156.421875 L 54.679688 146.960938 C 53.945312 146.660156 51.179688 146.808594 48.117188 148.972656 L 26.566406 164.261719 C 23.503906 166.4375 22.449219 169.007812 22.5 169.796875 Z M 70.082031 364.648438 L 180.257812 364.648438 L 180.257812 354.769531 L 83.859375 354.769531 C 81.027344 354.769531 78.734375 352.476562 78.734375 349.644531 L 78.734375 266.777344 L 67.757812 251.304688 L 67.757812 362.300781 C 67.757812 363.574219 68.820312 364.648438 70.082031 364.648438 Z M 185.382812 185.289062 L 312.597656 185.289062 L 312.597656 70.710938 L 259.398438 70.710938 L 259.398438 71.460938 C 259.398438 77.15625 254.761719 81.792969 249.0625 81.792969 L 152.515625 81.792969 C 146.820312 81.792969 142.183594 77.15625 142.183594 71.460938 L 142.183594 70.710938 L 88.984375 70.710938 L 88.984375 177.601562 L 161.035156 279.160156 C 161.71875 280.125 162.046875 281.296875 161.96875 282.476562 L 159.289062 321.652344 C 159.183594 323.1875 158.398438 324.589844 157.140625 325.480469 C 156.265625 326.101562 155.226562 326.425781 154.175781 326.425781 C 153.722656 326.425781 153.265625 326.367188 152.816406 326.242188 L 114.949219 315.824219 C 113.808594 315.511719 112.8125 314.8125 112.128906 313.851562 L 88.984375 281.222656 L 88.984375 344.519531 L 180.257812 344.519531 L 180.257812 190.414062 C 180.257812 187.585938 182.554688 185.289062 185.382812 185.289062 Z M 354.679688 195.539062 L 190.511719 195.539062 L 190.511719 364.648438 L 354.675781 364.648438 L 354.675781 195.539062 Z M 277.71875 318.957031 L 277.71875 256.417969 C 277.71875 253.589844 275.425781 251.292969 272.59375 251.292969 C 269.761719 251.292969 267.46875 253.589844 267.46875 256.417969 L 267.46875 318.957031 C 267.46875 321.789062 269.761719 324.082031 272.59375 324.082031 C 275.425781 324.082031 277.71875 321.789062 277.71875 318.957031 Z M 258.191406 261.488281 C 258.488281 261.539062 258.78125 261.566406 259.070312 261.566406 C 261.519531 261.566406 263.683594 259.804688 264.117188 257.3125 C 264.597656 254.523438 262.726562 251.871094 259.9375 251.390625 C 236.925781 247.410156 224.882812 237.808594 224.878906 233.777344 C 224.878906 232.640625 227.648438 230.359375 235.089844 229.054688 C 237.878906 228.570312 239.742188 225.914062 239.253906 223.125 C 238.765625 220.335938 236.113281 218.472656 233.324219 218.960938 C 217.046875 221.808594 214.625 229.472656 214.628906 233.785156 C 214.640625 245.472656 232.960938 257.125 258.191406 261.488281 Z M 258.425781 283.195312 C 258.679688 283.230469 258.929688 283.25 259.175781 283.25 C 261.675781 283.25 263.867188 281.414062 264.238281 278.867188 C 264.648438 276.066406 262.710938 273.460938 259.910156 273.050781 C 230.535156 268.746094 220.390625 261.9375 217.054688 256.984375 C 215.425781 254.5625 215.019531 251.996094 215.777344 248.902344 C 216.453125 246.15625 214.769531 243.378906 212.019531 242.707031 C 209.28125 242.035156 206.496094 243.714844 205.824219 246.464844 C 204.371094 252.394531 205.289062 257.859375 208.550781 262.707031 C 215.175781 272.546875 231.488281 279.246094 258.425781 283.195312 Z M 258.765625 300.972656 C 258.902344 300.984375 259.039062 300.988281 259.175781 300.988281 C 261.820312 300.988281 264.066406 298.949219 264.277344 296.265625 C 264.5 293.445312 262.394531 290.976562 259.574219 290.753906 C 222.3125 287.808594 211.773438 282.207031 209.492188 278.027344 C 209.191406 277.472656 208.390625 276.007812 210.1875 272.667969 C 211.53125 270.175781 210.597656 267.066406 208.105469 265.726562 C 205.613281 264.382812 202.503906 265.316406 201.164062 267.808594 C 197.503906 274.609375 198.777344 279.789062 200.492188 282.933594 C 205.859375 292.773438 223.285156 298.167969 258.765625 300.972656 Z M 222.570312 321.289062 C 232.773438 321.289062 245.695312 318.984375 260.675781 314.371094 C 263.382812 313.539062 264.898438 310.671875 264.066406 307.964844 C 263.234375 305.261719 260.371094 303.742188 257.660156 304.578125 C 224.699219 314.726562 210.914062 310.824219 208.230469 307.34375 C 206.578125 305.203125 208.441406 301.484375 209.699219 299.457031 C 211.191406 297.054688 210.453125 293.894531 208.046875 292.402344 C 205.644531 290.910156 202.484375 291.648438 200.992188 294.050781 C 194.800781 304.027344 197.785156 310.582031 200.113281 313.601562 C 204.0625 318.722656 211.800781 321.289062 222.570312 321.289062 Z M 285.25 251.390625 C 282.460938 251.871094 280.589844 254.523438 281.070312 257.3125 C 281.503906 259.804688 283.667969 261.566406 286.117188 261.566406 C 286.40625 261.566406 286.699219 261.539062 286.996094 261.488281 C 312.226562 257.125 330.546875 245.472656 330.558594 233.785156 C 330.5625 229.472656 328.140625 221.808594 311.863281 218.960938 C 309.074219 218.472656 306.417969 220.335938 305.933594 223.125 C 305.441406 225.914062 307.308594 228.566406 310.097656 229.054688 C 317.539062 230.359375 320.308594 232.640625 320.308594 233.773438 C 320.304688 237.808594 308.257812 247.410156 285.25 251.390625 Z M 329.40625 248.902344 C 330.164062 251.996094 329.757812 254.5625 328.128906 256.984375 C 324.792969 261.9375 314.648438 268.75 285.253906 273.050781 C 282.453125 273.460938 280.515625 276.066406 280.925781 278.867188 C 281.300781 281.414062 283.488281 283.25 285.992188 283.25 C 286.238281 283.25 286.488281 283.230469 286.738281 283.195312 C 313.691406 279.246094 330.007812 272.546875 336.632812 262.707031 C 339.898438 257.855469 340.816406 252.390625 339.363281 246.460938 C 338.6875 243.714844 335.910156 242.03125 333.164062 242.707031 C 330.414062 243.378906 328.734375 246.15625 329.40625 248.902344 Z M 337.085938 265.722656 C 334.59375 267.0625 333.65625 270.167969 334.996094 272.664062 C 336.789062 276.003906 335.988281 277.472656 335.683594 278.027344 C 333.402344 282.207031 322.859375 287.8125 285.59375 290.753906 C 282.773438 290.976562 280.664062 293.445312 280.886719 296.265625 C 281.097656 298.953125 283.34375 300.988281 285.992188 300.988281 C 286.125 300.988281 286.261719 300.984375 286.398438 300.972656 C 321.878906 298.171875 339.308594 292.777344 344.683594 282.9375 C 346.398438 279.792969 347.679688 274.617188 344.023438 267.8125 C 342.6875 265.320312 339.578125 264.382812 337.085938 265.722656 Z M 337.140625 292.402344 C 334.734375 293.894531 333.996094 297.054688 335.488281 299.457031 C 336.746094 301.484375 338.609375 305.203125 336.960938 307.339844 C 334.273438 310.820312 320.484375 314.726562 287.503906 304.574219 C 284.796875 303.742188 281.933594 305.261719 281.097656 307.964844 C 280.265625 310.671875 281.785156 313.539062 284.488281 314.371094 C 299.480469 318.984375 312.402344 321.289062 322.609375 321.289062 C 333.378906 321.289062 341.125 318.722656 345.074219 313.601562 C 347.40625 310.582031 350.386719 304.023438 344.195312 294.050781 C 342.703125 291.648438 339.546875 290.90625 337.140625 292.402344 Z M 266.242188 233.28125 L 278.941406 233.28125 C 281.773438 233.28125 284.066406 230.988281 284.066406 228.15625 C 284.066406 225.328125 281.773438 223.035156 278.941406 223.035156 L 266.242188 223.035156 C 263.414062 223.035156 261.117188 225.328125 261.117188 228.15625 C 261.117188 230.988281 263.414062 233.28125 266.242188 233.28125 Z M 266.242188 246.1875 L 278.941406 246.1875 C 281.773438 246.1875 284.066406 243.894531 284.066406 241.0625 C 284.066406 238.234375 281.773438 235.9375 278.941406 235.9375 L 266.242188 235.9375 C 263.414062 235.9375 261.117188 238.234375 261.117188 241.0625 C 261.117188 243.894531 263.414062 246.1875 266.242188 246.1875 Z M 266.242188 220.398438 L 278.941406 220.398438 C 281.773438 220.398438 284.066406 218.101562 284.066406 215.273438 C 284.066406 212.441406 281.773438 210.148438 278.941406 210.148438 L 266.242188 210.148438 C 263.414062 210.148438 261.117188 212.441406 261.117188 215.273438 C 261.117188 218.101562 263.414062 220.398438 266.242188 220.398438 Z M 278.941406 339.789062 L 266.242188 339.789062 C 263.414062 339.789062 261.117188 342.085938 261.117188 344.914062 C 261.117188 347.746094 263.414062 350.039062 266.242188 350.039062 L 278.941406 350.039062 C 281.773438 350.039062 284.066406 347.746094 284.066406 344.914062 C 284.066406 342.082031 281.773438 339.789062 278.941406 339.789062 Z M 278.941406 326.550781 L 266.242188 326.550781 C 263.414062 326.550781 261.117188 328.847656 261.117188 331.675781 C 261.117188 334.503906 263.414062 336.800781 266.242188 336.800781 L 278.941406 336.800781 C 281.773438 336.800781 284.066406 334.503906 284.066406 331.675781 C 284.066406 328.847656 281.773438 326.550781 278.941406 326.550781 Z M 180.09375 131.09375 L 180.09375 155.617188 C 180.09375 158.449219 177.796875 160.746094 174.96875 160.746094 L 158.058594 160.746094 L 158.058594 177.675781 C 158.058594 180.503906 155.761719 182.800781 152.933594 182.800781 L 128.40625 182.800781 C 125.578125 182.800781 123.28125 180.503906 123.28125 177.675781 L 123.28125 160.742188 L 106.371094 160.742188 C 103.542969 160.742188 101.246094 158.449219 101.246094 155.617188 L 101.246094 131.09375 C 101.246094 128.261719 103.542969 125.96875 106.371094 125.96875 L 123.28125 125.96875 L 123.28125 109.058594 C 123.28125 106.226562 125.578125 103.933594 128.40625 103.933594 L 152.933594 103.933594 C 155.761719 103.933594 158.058594 106.226562 158.058594 109.058594 L 158.058594 125.96875 L 174.96875 125.96875 C 177.796875 125.96875 180.09375 128.261719 180.09375 131.09375 Z M 169.84375 136.21875 L 152.933594 136.21875 C 150.101562 136.21875 147.808594 133.921875 147.808594 131.09375 L 147.808594 114.183594 L 133.53125 114.183594 L 133.53125 131.09375 C 133.53125 133.921875 131.238281 136.21875 128.40625 136.21875 L 111.496094 136.21875 L 111.496094 150.492188 L 128.40625 150.492188 C 131.238281 150.492188 133.53125 152.789062 133.53125 155.617188 L 133.53125 172.550781 L 147.808594 172.550781 L 147.808594 155.617188 C 147.808594 152.789062 150.101562 150.492188 152.933594 150.492188 L 169.84375 150.492188 Z M 198.601562 114.183594 L 294.484375 114.183594 C 297.316406 114.183594 299.609375 111.886719 299.609375 109.058594 C 299.609375 106.226562 297.316406 103.933594 294.484375 103.933594 L 198.601562 103.933594 C 195.773438 103.933594 193.476562 106.226562 193.476562 109.058594 C 193.476562 111.886719 195.769531 114.183594 198.601562 114.183594 Z M 198.601562 134.847656 L 249.273438 134.847656 C 252.101562 134.847656 254.398438 132.554688 254.398438 129.722656 C 254.398438 126.894531 252.101562 124.597656 249.273438 124.597656 L 198.601562 124.597656 C 195.773438 124.597656 193.476562 126.894531 193.476562 129.722656 C 193.476562 132.554688 195.769531 134.847656 198.601562 134.847656 Z M 294.484375 124.597656 L 268.320312 124.597656 C 265.488281 124.597656 263.195312 126.894531 263.195312 129.722656 C 263.195312 132.554688 265.488281 134.847656 268.320312 134.847656 L 294.484375 134.847656 C 297.316406 134.847656 299.609375 132.554688 299.609375 129.722656 C 299.609375 126.894531 297.316406 124.597656 294.484375 124.597656 Z M 294.484375 146.925781 L 198.601562 146.925781 C 195.773438 146.925781 193.476562 149.21875 193.476562 152.050781 C 193.476562 154.878906 195.773438 157.175781 198.601562 157.175781 L 294.484375 157.175781 C 297.316406 157.175781 299.609375 154.878906 299.609375 152.050781 C 299.609375 149.21875 297.316406 146.925781 294.484375 146.925781 Z M 294.484375 146.925781 " fill-opacity="1" fill-rule="nonzero"/></g></svg>