<?xml version="1.0" encoding="UTF-8"?>
<!-- Uploaded to: SVG Find, www.svgrepo.com, Generator: SVG Find Mixer Tools -->
<svg fill="#00406d" width="800px" height="800px" version="1.1" viewBox="144 144 512 512" xmlns="http://www.w3.org/2000/svg">
 <g>
  <path d="m248.07 296.79c1.8242-18.305 7.0898-35.68 15.125-51.473-3.7031-3.3789-8.6797-5.4922-14.016-5.4922-11.18 0-20.934 9.0781-20.223 20.223 0.30859 4.8008 1.457 14.379 2.4453 19.086 2.0195 9.6094 7.543 17.07 16.668 17.656z"/>
  <path d="m352.19 319.57c4.7422 22.637 18 40.184 40.184 40.184 22.207 0 36.746-18.887 40.184-40.184 1.7227-10.73 4.8398-32.285 5.5352-43.141 1.6055-25.195-20.469-45.723-45.715-45.723-25.258 0-47.324 20.523-45.707 45.723 0.68359 10.852 3.2891 32.488 5.5195 43.141z"/>
  <path d="m583.83 234.05-16.863-11.039-32.035 48.934-19.633-16.137-12.797 15.57 36.988 30.402z"/>
  <path d="m247.57 319.67c-0.125-2.2461-0.1875-4.4805-0.21094-6.707h-18.723c-14.801 0-27.156 10.555-29.785 24.445l-19.648 111.65 15.375 3.5312 21.625-78.473-9.6992 191.16h21.75l19.941-124.83 19.941 124.83h21.75l-8.1016-159.68c-19.754-23.426-32.355-53.16-34.215-85.934z"/>
  <path d="m314.53 434.45c-8.1719-5.2656-15.77-11.348-22.727-18.098l9.9258 36.242 15.359-3.5312z"/>
  <path d="m311.9 484.75 17.996 4.1367 11.281-40.945c-7.3008-2.8125-14.34-6.1562-21.027-10.055z"/>
  <path d="m444.29 448.61 11.027 40.273 17.98-4.1367-8.0352-45.867c-6.6797 3.7656-13.684 7.0312-20.973 9.7305z"/>
  <path d="m401.9 457.43c-2.8164 0.16016-5.6055 0.23828-8.3867 0.23828-14.246 0-28.035-2.0664-41.09-5.8945l-8.5742 169.01h25.461l23.34-146.12 23.34 146.12h25.469l-8.5547-168.52c-9.9336 2.7656-20.297 4.5508-31.004 5.1602z"/>
  <path d="m616.63 485.62-40.324-35.199-3.8828-76.492 21.543 78.676 15.359-3.5312-19.566-111.75c-0.74609-3.8555-2.3359-7.3711-4.4453-10.531 20.801-14.332 34.48-38.301 34.48-65.414 0-43.785-35.625-79.406-79.41-79.406-24.574 0-46.578 11.23-61.156 28.816-24.902-21.23-57.688-33.367-93.098-31.363-72.754 4.1328-128.6 66.684-124.48 139.45 3.9688 69.918 61.887 124.69 131.86 124.69 2.5156 0 5.043-0.070312 7.5859-0.21094 31.809-1.8086 60.371-14.801 82.109-34.918l9.4258 9.4258-2.2383 2.2305c-0.73047 0.73438-1.3203 1.5508-1.8398 2.4023-4.5586 3.8984-9.3359 7.5586-14.359 10.887l-2.7617 15.688 15.383 3.5312 3.8281-13.898 13.703 16.016-5.6055 110.57h21.75l12.344-77.27 18.688 21.844 8.8516 55.426h21.754l-1.4961-29.52c2.7617-0.28906 5.3398-1.4453 7.3438-3.4414l29.176-28.887c2.3945-2.3711 3.7148-5.6445 3.6289-8.9727-0.074219-3.3359-1.5625-6.5352-4.1445-8.8516zm-76.242-289.55c36.008 0 65.305 29.293 65.305 65.297 0 36.012-29.297 65.309-65.305 65.309s-65.305-29.297-65.305-65.309c0-36 29.297-65.297 65.305-65.297zm-153.46-2.5586c2.2773-0.13281 4.5352-0.19531 6.793-0.19531 29.578 0 56.715 11.004 77.496 29.18-6.4922 11.504-10.242 24.754-10.242 38.879 0 32.758 19.941 60.941 48.316 73.062-4.1875 20.98-13.898 40.094-27.738 55.582-16.914-7.3242-39.418-12.543-64.785-14.586l-12.812 19.352 10.395 32.738c-4.6055 0.82031-9.2656 1.4727-14.051 1.7422-9.332 0.53906-18.445-0.054687-27.246-1.5977l10.449-32.883-12.828-19.488c-25.566 1.9102-48.281 7.0586-65.441 14.328-17.023-19.234-27.93-44.082-29.492-71.551-3.6797-64.996 46.195-120.88 111.19-124.56zm106.06 204.74c14.637-16.746 25.055-37.129 29.805-59.5 4.5156 1.0273 9.1758 1.6289 13.941 1.8477-4.7773 23.484-15.07 45.098-29.789 63.141v0.035156c-0.40234 0.30859-0.82031 0.59375-1.1836 0.95312l-3.1445 3.1445zm86.52 122.61-78.348-91.586 13.742-13.738 90.867 79.32z"/>
 </g>
</svg>
