<svg xmlns="http://www.w3.org/2000/svg" xmlns:xlink="http://www.w3.org/1999/xlink" width="200" zoomAndPan="magnify" viewBox="0 0 150 157.92" height="200" preserveAspectRatio="xMidYMid meet" version="1.0"><defs><clipPath id="f355d5d30e"><path d="M 38 120 L 52 120 L 52 149.925781 L 38 149.925781 Z M 38 120 " clip-rule="nonzero"/></clipPath><clipPath id="97d1c233a4"><path d="M 3.128906 99 L 28 99 L 28 123 L 3.128906 123 Z M 3.128906 99 " clip-rule="nonzero"/></clipPath><clipPath id="8dc41da358"><path d="M 8 120 L 22 120 L 22 149.925781 L 8 149.925781 Z M 8 120 " clip-rule="nonzero"/></clipPath><clipPath id="95eb9c30f5"><path d="M 128 120 L 142 120 L 142 149.925781 L 128 149.925781 Z M 128 120 " clip-rule="nonzero"/></clipPath><clipPath id="e89a901972"><path d="M 98 120 L 112 120 L 112 149.925781 L 98 149.925781 Z M 98 120 " clip-rule="nonzero"/></clipPath><clipPath id="f285b2bed8"><path d="M 38 120 L 52 120 L 52 149.925781 L 38 149.925781 Z M 38 120 " clip-rule="nonzero"/></clipPath></defs><path fill="#00406d" d="M 42.8125 0 C 46.195312 3.46875 50.273438 5.207031 54.609375 7.113281 C 59.382812 9.195312 64.15625 11.105469 68.925781 13.015625 C 72.222656 14.316406 75.519531 15.445312 78.730469 16.832031 C 79.511719 17.179688 80.378906 17.4375 80.898438 18.132812 C 81.679688 19.085938 82.027344 20.390625 82.722656 21.515625 C 83.675781 22.992188 84.109375 24.378906 84.542969 26.203125 C 86.019531 32.1875 89.054688 37.828125 88.1875 44.074219 C 87.753906 47.371094 87.234375 52.144531 85.5 55.09375 C 84.285156 57.175781 81.855469 55.699219 81.246094 53.792969 C 80.8125 52.492188 81.074219 50.929688 81.421875 49.628906 C 81.679688 48.671875 82.546875 47.546875 82.636719 46.503906 C 82.722656 45.027344 81.59375 43.554688 81.507812 41.992188 C 81.421875 40.257812 81.855469 39.648438 80.988281 38.175781 C 80.292969 37.046875 79.078125 36.265625 78.382812 35.050781 C 76.5625 32.101562 75.261719 29.5 71.355469 30.972656 C 69.792969 31.582031 68.320312 32.363281 67.453125 33.75 C 65.195312 37.394531 68.578125 41.644531 69.1875 45.464844 C 69.792969 49.539062 69.621094 54.226562 65.109375 55.960938 C 62.765625 56.65625 62.332031 54.746094 62.765625 53.097656 C 63.289062 51.1875 63.289062 49.628906 62.679688 47.632812 C 61.726562 44.941406 59.554688 43.207031 57.996094 40.953125 C 56.867188 39.304688 56.085938 37.394531 54.699219 36.007812 C 53.222656 34.53125 51.3125 33.316406 49.664062 32.015625 C 47.496094 30.191406 46.367188 28.71875 45.328125 26.027344 C 43.070312 20.476562 37.519531 17.785156 32.574219 14.835938 C 36.128906 9.890625 39.515625 4.945312 42.8125 0 Z M 42.8125 0 " fill-opacity="1" fill-rule="nonzero"/><path fill="#00406d" d="M 80.378906 54.660156 C 80.378906 51.625 78.035156 49.28125 75 49.28125 C 72.050781 49.28125 69.621094 51.625 69.621094 54.660156 C 69.621094 57.609375 72.050781 60.039062 75.085938 60.039062 C 77.949219 60.039062 80.378906 57.609375 80.378906 54.660156 Z M 80.378906 54.660156 " fill-opacity="1" fill-rule="nonzero"/><path fill="#00406d" d="M 63.289062 66.546875 C 63.199219 63.769531 65.628906 62.207031 67.625 62.292969 C 70.226562 62.292969 72.398438 62.292969 75 62.292969 C 77.601562 62.292969 79.773438 62.292969 82.375 62.292969 C 84.371094 62.292969 86.710938 63.769531 86.710938 66.546875 C 86.710938 68.195312 87.058594 71.144531 87.058594 78.171875 C 87.058594 79.472656 87.058594 80.863281 87.058594 82.164062 C 87.058594 82.945312 86.972656 83.8125 86.191406 84.160156 C 85.324219 84.59375 84.371094 84.59375 83.675781 83.8125 C 83.328125 83.464844 83.070312 82.769531 83.070312 82.25 C 82.808594 63.941406 81.421875 63.074219 81.421875 81.730469 L 68.492188 81.730469 C 68.492188 75.046875 68.320312 70.796875 68.058594 69.0625 C 67.886719 67.847656 67.710938 67.761719 67.539062 68.976562 C 67.277344 70.796875 67.019531 75.222656 66.84375 82.164062 C 66.84375 82.683594 66.585938 83.292969 66.238281 83.726562 C 65.542969 84.503906 64.589844 84.417969 63.722656 84.070312 C 62.941406 83.726562 62.851562 82.855469 62.851562 82.078125 C 62.851562 80.773438 62.851562 79.386719 62.851562 78.085938 C 62.941406 71.144531 63.375 68.195312 63.289062 66.546875 Z M 63.289062 66.546875 " fill-opacity="1" fill-rule="nonzero"/><path fill="#00406d" d="M 81.421875 83.03125 C 81.421875 87.542969 81.421875 92.054688 81.421875 96.652344 C 81.421875 100.992188 81.421875 105.328125 81.421875 109.667969 C 81.421875 111.402344 80.464844 112.355469 78.730469 112.355469 C 76.910156 112.355469 75.78125 111.316406 75.78125 109.667969 C 75.78125 102.292969 75.78125 94.832031 75.78125 87.457031 C 75.78125 86.5 75.605469 86.328125 75 86.328125 C 74.394531 86.328125 74.21875 86.589844 74.21875 87.457031 C 74.21875 94.832031 74.21875 102.292969 74.21875 109.667969 C 74.21875 111.316406 73.089844 112.355469 71.269531 112.355469 C 69.445312 112.355469 68.578125 111.402344 68.578125 109.667969 C 68.578125 105.328125 68.578125 100.992188 68.578125 96.652344 C 68.578125 92.140625 68.578125 87.628906 68.578125 83.03125 Z M 81.421875 83.03125 " fill-opacity="1" fill-rule="nonzero"/><g clip-path="url(#f355d5d30e)"><path fill="#00406d" d="M 51.746094 120.597656 C 51.746094 125.109375 51.746094 129.621094 51.746094 134.21875 C 51.746094 138.558594 51.746094 142.894531 51.746094 147.234375 C 51.746094 148.96875 50.792969 149.925781 49.058594 149.925781 C 47.234375 149.925781 46.109375 148.882812 46.109375 147.234375 C 46.109375 139.859375 46.109375 132.398438 46.109375 125.023438 C 46.109375 124.070312 45.933594 123.894531 45.328125 123.894531 C 44.71875 123.894531 44.546875 124.15625 44.546875 125.023438 C 44.546875 132.398438 44.546875 139.859375 44.546875 147.234375 C 44.546875 148.882812 43.417969 149.925781 41.597656 149.925781 C 39.773438 149.925781 38.90625 148.96875 38.90625 147.234375 C 38.90625 142.894531 38.90625 138.558594 38.90625 134.21875 C 38.90625 129.707031 38.90625 125.195312 38.90625 120.597656 Z M 51.746094 120.597656 " fill-opacity="1" fill-rule="nonzero"/></g><path fill="#00406d" d="M 20.601562 92.140625 C 20.601562 89.105469 18.257812 86.761719 15.222656 86.761719 C 12.269531 86.761719 9.84375 89.105469 9.84375 92.140625 C 9.84375 95.089844 12.269531 97.519531 15.308594 97.519531 C 18.171875 97.519531 20.601562 95.089844 20.601562 92.140625 Z M 20.601562 92.140625 " fill-opacity="1" fill-rule="nonzero"/><g clip-path="url(#97d1c233a4)"><path fill="#00406d" d="M 3.507812 104.113281 C 3.421875 101.335938 5.851562 99.777344 7.847656 99.863281 C 10.449219 99.863281 12.617188 99.863281 15.222656 99.863281 C 17.824219 99.863281 19.992188 99.863281 22.597656 99.863281 C 24.589844 99.863281 26.933594 101.335938 26.933594 104.113281 C 26.933594 105.761719 27.28125 108.710938 27.28125 115.738281 C 27.28125 117.042969 27.28125 118.429688 27.28125 119.730469 C 27.28125 120.511719 27.195312 121.378906 26.414062 121.726562 C 25.546875 122.160156 24.589844 122.160156 23.898438 121.378906 C 23.550781 121.03125 23.289062 120.339844 23.289062 119.816406 C 23.03125 101.511719 21.640625 100.644531 21.640625 119.296875 L 8.800781 119.296875 C 8.800781 112.617188 8.628906 108.367188 8.367188 106.628906 C 8.195312 105.414062 8.019531 105.328125 7.847656 106.542969 C 7.5 108.277344 7.238281 112.789062 7.152344 119.730469 C 7.152344 120.25 6.890625 120.859375 6.546875 121.292969 C 5.851562 122.074219 4.898438 121.988281 4.027344 121.640625 C 3.25 121.292969 3.160156 120.425781 3.160156 119.644531 C 3.160156 118.34375 3.160156 116.953125 3.160156 115.652344 C 3.160156 108.625 3.59375 105.675781 3.507812 104.113281 Z M 3.507812 104.113281 " fill-opacity="1" fill-rule="nonzero"/></g><g clip-path="url(#8dc41da358)"><path fill="#00406d" d="M 21.726562 120.597656 C 21.726562 125.109375 21.726562 129.621094 21.726562 134.21875 C 21.726562 138.558594 21.726562 142.894531 21.726562 147.234375 C 21.726562 148.96875 20.773438 149.925781 19.039062 149.925781 C 17.214844 149.925781 16.089844 148.882812 16.089844 147.234375 C 16.089844 139.859375 16.089844 132.398438 16.089844 125.023438 C 16.089844 124.070312 15.914062 123.894531 15.308594 123.894531 C 14.699219 123.894531 14.527344 124.15625 14.527344 125.023438 C 14.527344 132.398438 14.527344 139.859375 14.527344 147.234375 C 14.527344 148.882812 13.398438 149.925781 11.578125 149.925781 C 9.753906 149.925781 8.886719 148.96875 8.886719 147.234375 C 8.886719 142.894531 8.886719 138.558594 8.886719 134.21875 C 8.886719 129.707031 8.886719 125.195312 8.886719 120.597656 Z M 21.726562 120.597656 " fill-opacity="1" fill-rule="nonzero"/></g><path fill="#00406d" d="M 140.15625 92.140625 C 140.15625 89.105469 137.816406 86.761719 134.777344 86.761719 C 131.828125 86.761719 129.398438 89.105469 129.398438 92.140625 C 129.398438 95.089844 131.828125 97.519531 134.867188 97.519531 C 137.730469 97.519531 140.15625 95.089844 140.15625 92.140625 Z M 140.15625 92.140625 " fill-opacity="1" fill-rule="nonzero"/><path fill="#00406d" d="M 123.066406 104.113281 C 122.980469 101.335938 125.410156 99.777344 127.402344 99.863281 C 130.007812 99.863281 132.175781 99.863281 134.777344 99.863281 C 137.382812 99.863281 139.550781 99.863281 142.152344 99.863281 C 144.148438 99.863281 146.492188 101.335938 146.492188 104.113281 C 146.492188 105.761719 146.839844 108.710938 146.839844 115.738281 C 146.839844 117.042969 146.839844 118.429688 146.839844 119.730469 C 146.839844 120.511719 146.75 121.378906 145.972656 121.726562 C 145.101562 122.160156 144.148438 122.160156 143.453125 121.378906 C 143.109375 121.03125 142.847656 120.339844 142.847656 119.816406 C 142.585938 101.511719 141.199219 100.644531 141.199219 119.296875 L 128.273438 119.296875 C 128.273438 112.617188 128.097656 108.367188 127.835938 106.628906 C 127.664062 105.414062 127.492188 105.328125 127.316406 106.542969 C 127.058594 108.367188 126.796875 112.789062 126.625 119.730469 C 126.625 120.25 126.363281 120.859375 126.015625 121.292969 C 125.320312 122.074219 124.367188 121.988281 123.5 121.640625 C 122.71875 121.292969 122.632812 120.425781 122.632812 119.644531 C 122.632812 118.34375 122.632812 116.953125 122.632812 115.652344 C 122.71875 108.625 123.152344 105.675781 123.066406 104.113281 Z M 123.066406 104.113281 " fill-opacity="1" fill-rule="nonzero"/><g clip-path="url(#95eb9c30f5)"><path fill="#00406d" d="M 141.199219 120.597656 C 141.199219 125.109375 141.199219 129.621094 141.199219 134.21875 C 141.199219 138.558594 141.199219 142.894531 141.199219 147.234375 C 141.199219 148.96875 140.246094 149.925781 138.507812 149.925781 C 136.6875 149.925781 135.558594 148.882812 135.558594 147.234375 C 135.558594 139.859375 135.558594 132.398438 135.558594 125.023438 C 135.558594 124.070312 135.386719 123.894531 134.777344 123.894531 C 134.171875 123.894531 133.996094 124.15625 133.996094 125.023438 C 133.996094 132.398438 133.996094 139.859375 133.996094 147.234375 C 133.996094 148.882812 132.871094 149.925781 131.046875 149.925781 C 129.226562 149.925781 128.359375 148.96875 128.359375 147.234375 C 128.359375 142.894531 128.359375 138.558594 128.359375 134.21875 C 128.359375 129.707031 128.359375 125.195312 128.359375 120.597656 Z M 141.199219 120.597656 " fill-opacity="1" fill-rule="nonzero"/></g><path fill="#00406d" d="M 110.226562 92.140625 C 110.226562 89.105469 107.882812 86.761719 104.847656 86.761719 C 101.894531 86.761719 99.464844 89.105469 99.464844 92.140625 C 99.464844 95.089844 101.894531 97.519531 104.933594 97.519531 C 107.882812 97.519531 110.226562 95.089844 110.226562 92.140625 Z M 110.226562 92.140625 " fill-opacity="1" fill-rule="nonzero"/><g clip-path="url(#e89a901972)"><path fill="#00406d" d="M 111.351562 120.597656 C 111.351562 125.109375 111.351562 129.621094 111.351562 134.21875 C 111.351562 138.558594 111.351562 142.894531 111.351562 147.234375 C 111.351562 148.96875 110.398438 149.925781 108.664062 149.925781 C 106.839844 149.925781 105.714844 148.882812 105.714844 147.234375 C 105.714844 139.859375 105.714844 132.398438 105.714844 125.023438 C 105.714844 124.070312 105.539062 123.894531 104.933594 123.894531 C 104.324219 123.894531 104.152344 124.15625 104.152344 125.023438 C 104.152344 132.398438 104.152344 139.859375 104.152344 147.234375 C 104.152344 148.882812 103.023438 149.925781 101.203125 149.925781 C 99.378906 149.925781 98.511719 148.96875 98.511719 147.234375 C 98.511719 142.894531 98.511719 138.558594 98.511719 134.21875 C 98.511719 129.707031 98.511719 125.195312 98.511719 120.597656 Z M 111.351562 120.597656 " fill-opacity="1" fill-rule="nonzero"/></g><path fill="#00406d" d="M 116.558594 90.320312 C 116.558594 89.015625 116.558594 87.628906 116.558594 86.328125 C 116.558594 85.546875 116.472656 84.679688 115.691406 84.332031 C 114.824219 83.898438 113.871094 83.898438 113.175781 84.679688 C 112.828125 85.027344 112.566406 85.71875 112.566406 86.242188 C 112.480469 93.703125 112.132812 98.214844 111.875 99.777344 C 111.875 99.777344 111.875 99.777344 111.875 99.863281 C 109.445312 99.863281 107.363281 99.863281 104.933594 99.863281 C 102.503906 99.863281 100.421875 99.863281 97.992188 99.863281 C 97.992188 99.863281 97.992188 99.863281 97.992188 99.777344 C 97.730469 98.214844 97.382812 93.703125 97.296875 86.242188 C 97.296875 85.71875 97.039062 85.113281 96.691406 84.679688 C 95.996094 83.898438 95.042969 83.984375 94.175781 84.332031 C 93.394531 84.679688 93.308594 85.546875 93.308594 86.328125 C 93.308594 87.628906 93.308594 89.015625 93.308594 90.320312 C 93.308594 98.996094 92.613281 106.28125 97.992188 106.195312 C 97.992188 106.195312 97.992188 106.195312 98.078125 106.195312 C 98.339844 107.585938 98.511719 111.921875 98.511719 119.296875 L 111.351562 119.296875 C 111.351562 111.921875 111.527344 107.671875 111.785156 106.195312 C 111.785156 106.195312 111.875 106.195312 111.875 106.195312 C 117.253906 106.195312 116.558594 98.996094 116.558594 90.320312 Z M 116.558594 90.320312 " fill-opacity="1" fill-rule="nonzero"/><path fill="#00406d" d="M 39.773438 92.140625 C 39.773438 89.105469 42.117188 86.761719 45.152344 86.761719 C 48.105469 86.761719 50.535156 89.105469 50.535156 92.140625 C 50.535156 95.089844 48.105469 97.519531 45.066406 97.519531 C 42.117188 97.519531 39.773438 95.089844 39.773438 92.140625 Z M 39.773438 92.140625 " fill-opacity="1" fill-rule="nonzero"/><g clip-path="url(#f285b2bed8)"><path fill="#00406d" d="M 38.648438 120.597656 C 38.648438 125.109375 38.648438 129.621094 38.648438 134.21875 C 38.648438 138.558594 38.648438 142.894531 38.648438 147.234375 C 38.648438 148.96875 39.601562 149.925781 41.335938 149.925781 C 43.160156 149.925781 44.285156 148.882812 44.285156 147.234375 C 44.285156 139.859375 44.285156 132.398438 44.285156 125.023438 C 44.285156 124.070312 44.460938 123.894531 45.066406 123.894531 C 45.675781 123.894531 45.847656 124.15625 45.847656 125.023438 C 45.847656 132.398438 45.847656 139.859375 45.847656 147.234375 C 45.847656 148.882812 46.976562 149.925781 48.796875 149.925781 C 50.621094 149.925781 51.488281 148.96875 51.488281 147.234375 C 51.488281 142.894531 51.488281 138.558594 51.488281 134.21875 C 51.488281 129.707031 51.488281 125.195312 51.488281 120.597656 Z M 38.648438 120.597656 " fill-opacity="1" fill-rule="nonzero"/></g><path fill="#00406d" d="M 33.441406 90.320312 C 33.441406 89.015625 33.441406 87.628906 33.441406 86.328125 C 33.441406 85.546875 33.527344 84.679688 34.308594 84.332031 C 35.175781 83.898438 36.128906 83.898438 36.824219 84.679688 C 37.171875 85.027344 37.433594 85.71875 37.433594 86.242188 C 37.519531 93.703125 37.867188 98.214844 38.125 99.777344 C 38.125 99.777344 38.125 99.777344 38.125 99.863281 C 40.554688 99.863281 42.636719 99.863281 45.066406 99.863281 C 47.496094 99.863281 49.578125 99.863281 52.007812 99.863281 C 52.007812 99.863281 52.007812 99.863281 52.007812 99.777344 C 52.269531 98.214844 52.617188 93.703125 52.703125 86.242188 C 52.703125 85.71875 52.960938 85.113281 53.308594 84.679688 C 54.003906 83.898438 54.957031 83.984375 55.824219 84.332031 C 56.605469 84.679688 56.691406 85.546875 56.691406 86.328125 C 56.691406 87.628906 56.691406 89.015625 56.691406 90.320312 C 56.691406 98.996094 57.386719 106.28125 52.007812 106.195312 C 52.007812 106.195312 52.007812 106.195312 51.921875 106.195312 C 51.660156 107.585938 51.488281 111.921875 51.488281 119.296875 L 38.648438 119.296875 C 38.648438 111.921875 38.472656 107.671875 38.214844 106.195312 C 38.214844 106.195312 38.125 106.195312 38.125 106.195312 C 32.746094 106.195312 33.441406 98.996094 33.441406 90.320312 Z M 33.441406 90.320312 " fill-opacity="1" fill-rule="nonzero"/></svg>