<svg xmlns="http://www.w3.org/2000/svg" xmlns:xlink="http://www.w3.org/1999/xlink" width="500" zoomAndPan="magnify" viewBox="0 0 375 374.999991" height="500" preserveAspectRatio="xMidYMid meet" version="1.0"><defs><clipPath id="ebd1fa9887"><path d="M 37.5 37.5 L 337.5 37.5 L 337.5 337.5 L 37.5 337.5 Z M 37.5 37.5 " clip-rule="nonzero"/></clipPath></defs><rect x="-37.5" width="450" fill="#ffffff" y="-37.499999" height="449.999989" fill-opacity="1"/><rect x="-37.5" width="450" fill="#ffffff" y="-37.499999" height="449.999989" fill-opacity="1"/><g clip-path="url(#ebd1fa9887)"><path fill="#00406d" d="M 97.625 145.1875 C 112.914062 146.960938 123.621094 151.042969 123.621094 155.792969 C 123.621094 162.167969 104.324219 167.34375 80.558594 167.34375 C 56.792969 167.34375 37.5 162.167969 37.5 155.792969 C 37.5 151.042969 48.207031 146.960938 63.496094 145.1875 C 65.988281 148.042969 68.394531 150.773438 70.621094 153.347656 C 73.113281 156.238281 76.742188 157.902344 80.558594 157.902344 C 84.375 157.902344 88.003906 156.242188 90.5 153.351562 C 92.722656 150.777344 95.128906 148.042969 97.625 145.1875 Z M 312.066406 193.621094 C 327.054688 195.429688 337.5 199.472656 337.5 204.160156 C 337.5 210.535156 318.207031 215.710938 294.441406 215.710938 C 270.675781 215.710938 251.378906 210.535156 251.378906 204.160156 C 251.378906 199.472656 261.828125 195.429688 276.816406 193.621094 C 279.511719 196.710938 282.109375 199.660156 284.5 202.425781 C 286.992188 205.316406 290.621094 206.980469 294.4375 206.980469 C 298.257812 206.980469 301.886719 205.320312 304.378906 202.429688 C 306.769531 199.660156 309.371094 196.710938 312.066406 193.621094 Z M 173.105469 290.140625 C 140.304688 290.140625 109.214844 290.140625 98.957031 290.136719 C 98.050781 290.136719 97.195312 289.742188 96.601562 289.0625 C 96.011719 288.378906 95.742188 287.476562 95.871094 286.582031 C 102.128906 244.644531 138.285156 212.472656 181.953125 212.472656 C 202.605469 212.472656 221.578125 219.664062 236.5 231.675781 L 191.574219 231.675781 C 184.140625 231.675781 177.929688 237.34375 177.253906 244.746094 Z M 181.953125 205.96875 C 159.578125 205.96875 141.339844 187.710938 141.339844 165.335938 C 141.339844 142.957031 159.578125 124.699219 181.953125 124.699219 C 204.347656 124.699219 222.589844 142.957031 222.589844 165.335938 C 222.589844 187.710938 204.347656 205.96875 181.953125 205.96875 Z M 169.921875 337.5 L 169.859375 337.5 L 151.613281 313.039062 C 151.1875 312.472656 151.121094 311.710938 151.4375 311.078125 C 151.757812 310.445312 152.40625 310.042969 153.117188 310.042969 L 171.285156 310.042969 L 169.296875 331.8125 C 169.121094 333.75 169.339844 335.683594 169.921875 337.5 Z M 296.121094 241.675781 C 297.351562 241.675781 298.523438 242.195312 299.355469 243.101562 C 300.183594 244.011719 300.59375 245.226562 300.480469 246.453125 L 292.523438 333.519531 C 292.316406 335.773438 290.425781 337.5 288.164062 337.5 L 183.617188 337.5 C 182.386719 337.5 181.210938 336.980469 180.382812 336.074219 C 179.550781 335.164062 179.144531 333.949219 179.253906 332.722656 L 187.214844 245.65625 C 187.417969 243.402344 189.308594 241.675781 191.574219 241.675781 Z M 239.867188 275.542969 C 232.117188 275.542969 225.820312 281.835938 225.820312 289.589844 C 225.820312 297.339844 232.117188 303.632812 239.867188 303.632812 C 247.621094 303.632812 253.914062 297.339844 253.914062 289.589844 C 253.914062 281.835938 247.621094 275.542969 239.867188 275.542969 Z M 82.933594 146.8125 C 82.339844 147.503906 81.472656 147.902344 80.558594 147.902344 C 79.648438 147.902344 78.78125 147.503906 78.1875 146.8125 C 62.527344 128.695312 37.5 102.605469 37.5 80.558594 C 37.5 56.785156 56.785156 37.5 80.558594 37.5 C 104.34375 37.5 123.621094 56.785156 123.621094 80.558594 C 123.621094 102.605469 98.597656 128.695312 82.933594 146.8125 Z M 80.558594 104.453125 C 93.71875 104.453125 104.453125 93.71875 104.453125 80.558594 C 104.453125 67.402344 93.71875 56.675781 80.558594 56.675781 C 67.402344 56.675781 56.675781 67.402344 56.675781 80.558594 C 56.675781 93.71875 67.402344 104.453125 80.558594 104.453125 Z M 296.8125 195.890625 C 296.21875 196.582031 295.351562 196.980469 294.441406 196.980469 C 293.527344 196.980469 292.664062 196.582031 292.070312 195.890625 C 276.410156 177.773438 251.378906 151.683594 251.378906 129.636719 C 251.378906 105.863281 270.664062 86.578125 294.441406 86.578125 C 318.222656 86.578125 337.5 105.863281 337.5 129.636719 C 337.5 151.683594 312.476562 177.773438 296.8125 195.890625 Z M 294.441406 153.53125 C 307.597656 153.53125 318.332031 142.796875 318.332031 129.636719 C 318.332031 116.480469 307.597656 105.753906 294.441406 105.753906 C 281.28125 105.753906 270.554688 116.480469 270.554688 129.636719 C 270.554688 142.796875 281.28125 153.53125 294.441406 153.53125 Z M 294.441406 153.53125 " fill-opacity="1" fill-rule="evenodd"/></g></svg>