<?xml version="1.0" encoding="UTF-8"?>
<!-- Uploaded to: SVG Find, www.svgrepo.com, Generator: SVG Find Mixer Tools -->
<svg fill="#00406d" width="800px" height="800px" version="1.1" viewBox="144 144 512 512" xmlns="http://www.w3.org/2000/svg">
 <g>
  <path d="m629.31 433.14-18.5-6.1406c1.1641-8.9531 1.7422-17.973 1.7305-27 0.007812-9.0547-0.57031-18.102-1.7305-27.082l18.5-6.0625c3.9648-1.2969 7.25-4.1133 9.1406-7.832s2.2266-8.0352 0.93359-12.004l-14.562-44.871c-1.293-3.9961-4.125-7.3125-7.8711-9.2109-3.7969-1.9688-8.2305-2.3086-12.281-0.94141l-18.266 5.668c-8.5664-15.887-19.148-30.598-31.484-43.77l11.414-15.742v-0.003906c2.4727-3.3789 3.4961-7.6016 2.8438-11.738-0.64844-4.1367-2.918-7.8438-6.3086-10.301l-38.574-27.395c-3.3711-2.4492-7.5781-3.457-11.695-2.8086-4.1172 0.64844-7.8086 2.9023-10.266 6.2695l-11.492 15.742-0.003906 0.003906c-16.355-7.8047-33.664-13.441-51.48-16.77v-19.441c0-4.1758-1.6602-8.1797-4.6133-11.133s-6.957-4.6133-11.133-4.6133h-47.23c-4.1758 0-8.1797 1.6602-11.133 4.6133s-4.6133 6.957-4.6133 11.133v19.441c-17.844 3.3086-35.18 8.9492-51.559 16.77l-11.414-15.746c-2.457-3.3672-6.1484-5.6211-10.266-6.2695-4.1172-0.64844-8.3242 0.35938-11.699 2.8086l-38.258 27.707c-3.3906 2.4609-5.6602 6.168-6.3125 10.301-0.64844 4.1367 0.375 8.3633 2.8477 11.742l11.336 15.742c-12.336 13.203-22.918 27.941-31.488 43.848l-18.5-6.0586c-3.9766-1.2891-8.3008-0.94141-12.023 0.96094-3.7227 1.9062-6.5312 5.2109-7.8125 9.1914l-14.562 44.871c-1.293 3.9688-0.95703 8.2852 0.93359 12.004s5.1758 6.5352 9.1406 7.832l18.5 6.1406c-1.2695 8.9492-1.9531 17.969-2.0469 27.004-0.007813 9.0547 0.57031 18.098 1.7344 27.078l-18.5 6.0625c-3.9648 1.2969-7.2539 4.1133-9.1445 7.832-1.8867 3.7188-2.2227 8.0391-0.93359 12.004l14.562 44.871c1.293 3.9961 4.125 7.3125 7.875 9.2109 3.793 1.9688 8.2266 2.3086 12.277 0.94531l18.266-5.668c8.5664 15.883 19.148 30.594 31.488 43.766l-11.414 15.742v0.003906c-2.4727 3.3789-3.5 7.6055-2.8477 11.738 0.64844 4.1367 2.9219 7.8438 6.3086 10.305l38.258 27.711v-0.003906c3.4375 2.5156 7.7422 3.5352 11.941 2.8242 4.1953-0.71094 7.9258-3.0938 10.34-6.6016l11.492-15.742v-0.003906c16.359 7.8047 33.664 13.441 51.48 16.77v19.445c0 4.1719 1.6602 8.1797 4.6133 11.133 2.9531 2.9492 6.957 4.6094 11.133 4.6094h47.23c4.1758 0 8.1797-1.6602 11.133-4.6094 2.9531-2.9531 4.6133-6.9609 4.6133-11.133v-19.445c17.82-3.3164 35.129-8.9531 51.48-16.77l11.414 15.742 0.003906 0.003906c2.457 3.3672 6.1484 5.6211 10.266 6.2695 4.1172 0.65234 8.3203-0.35938 11.695-2.8047l38.258-27.711c3.3906-2.457 5.6602-6.1641 6.3125-10.301 0.64844-4.1367-0.375-8.3633-2.8477-11.742l-11.336-15.742c12.336-13.203 22.918-27.941 31.488-43.848l18.578 6.0625c3.9766 1.2852 8.3008 0.94141 12.023-0.96484 3.7227-1.9062 6.5312-5.2109 7.8125-9.1914l14.562-44.871c1.3086-3.9258 1.0156-8.207-0.8125-11.918-1.8242-3.7148-5.0391-6.5586-8.9453-7.918zm-19.523 59.828-18.5-5.9844c-3.5391-1.0898-7.3516-0.90234-10.762 0.53906-3.4141 1.4375-6.207 4.0352-7.8945 7.332-8.0664 14.699-17.961 28.32-29.441 40.543-2.457 2.6172-3.9414 5.9961-4.2148 9.5742-0.27344 3.582 0.6875 7.1445 2.7188 10.105l11.414 15.742-38.18 27.711-11.414-15.742v-0.003906c-2.1758-2.9805-5.332-5.1055-8.9141-5.9961-3.582-0.89062-7.3672-0.49609-10.688 1.1172-15 7.2617-30.875 12.555-47.23 15.742-3.668 0.67187-6.9805 2.6211-9.3438 5.5078-2.3633 2.8828-3.6289 6.5117-3.5664 10.238v18.895h-47.391v-19.445c0.058594-3.7266-1.2031-7.3555-3.5664-10.238-2.3672-2.8867-5.6758-4.8359-9.3438-5.5078-16.488-3.1719-32.496-8.4648-47.625-15.742-3.3047-1.5742-7.0508-1.9453-10.602-1.0547-3.5469 0.89062-6.6758 2.9883-8.8438 5.9336l-11.492 15.742-38.18-27.156 11.414-15.742c2.1562-2.9766 3.1992-6.6133 2.957-10.277-0.24609-3.668-1.7656-7.1328-4.2969-9.7969-11.48-12.219-21.371-25.84-29.441-40.543-1.6836-3.2969-4.4805-5.8906-7.8945-7.332-3.4102-1.4375-7.2227-1.6289-10.762-0.53906l-18.5 6.0625-14.641-44.555 18.5-6.0625c3.4844-1.1445 6.4648-3.4688 8.418-6.5703 1.9531-3.1055 2.7656-6.7969 2.2891-10.434-2.1016-16.621-2.1016-33.441 0-50.066 0.47656-3.6367-0.33594-7.3281-2.2891-10.43-1.9531-3.1055-4.9336-5.4297-8.418-6.5742l-18.5-6.0625 14.641-44.871 18.5 6.3789c3.5391 1.0898 7.3516 0.90234 10.762-0.53906 3.4141-1.4375 6.2109-4.0352 7.8945-7.332 8.0703-14.699 17.961-28.32 29.441-40.543 2.5547-2.6445 4.1016-6.0977 4.375-9.7656 0.27344-3.668-0.74219-7.3125-2.8789-10.309l-11.414-15.742 38.18-27.711 11.414 15.742v0.003907c2.1758 2.9805 5.332 5.1055 8.9141 5.9961 3.5859 0.89453 7.3672 0.49609 10.688-1.1172 15-7.2617 30.875-12.555 47.234-15.742 3.668-0.67188 6.9766-2.6211 9.3398-5.5039 2.3672-2.8828 3.6289-6.5117 3.5703-10.242v-18.891h47.23v19.441c-0.0625 3.7305 1.2031 7.3594 3.5664 10.242 2.3672 2.8828 5.6758 4.832 9.3438 5.5039 16.352 3.207 32.227 8.4961 47.23 15.742 3.3047 1.5742 7.0508 1.9453 10.602 1.0547 3.5469-0.89062 6.6758-2.9883 8.8438-5.9336l11.492-15.742 38.18 27.789-11.02 15.109c-2.1562 2.9766-3.1992 6.6133-2.957 10.281 0.24609 3.6641 1.7656 7.1289 4.293 9.793 11.539 12.211 21.484 25.832 29.602 40.543 1.6875 3.2969 4.4805 5.8945 7.8945 7.332 3.4102 1.4414 7.2227 1.6289 10.762 0.53906l18.5-6.0625 14.641 44.949-18.5 6.0625c-3.4844 1.1445-6.4609 3.4688-8.418 6.5703-1.9531 3.1055-2.7617 6.7969-2.2852 10.434 2.0977 16.621 2.0977 33.441 0 50.066-0.47656 3.6367 0.33203 7.3281 2.2852 10.43 1.957 3.1055 4.9336 5.4297 8.418 6.5742l18.5 6.0625z"/>
  <path d="m294.2 294.2c25.168-24.934 58.328-40.184 93.641-43.062 35.309-2.8828 70.504 6.793 99.379 27.316h-21.883v15.742l48.02 0.003907c2.5664 0 4.9688-1.2539 6.4414-3.3516 1.4727-2.1016 1.832-4.7852 0.95703-7.1992l-16.375-45.184-14.801 5.4336 7.8711 22.75 0.003906-0.003907c-30.84-22.66-68.586-33.918-106.8-31.855-38.215 2.0664-74.531 17.324-102.75 43.176-28.223 25.852-46.598 60.691-51.996 98.582-5.3984 37.887 2.5195 76.473 22.395 109.18l13.461-7.8711v-0.003907c-17.402-28.691-24.656-62.402-20.586-95.711 4.0703-33.309 19.223-64.285 43.023-87.941z"/>
  <path d="m527.92 322.46c23.617 39.523 27.715 87.727 11.102 130.67-16.609 42.945-52.074 75.848-96.141 89.191-44.066 13.348-91.828 5.6562-129.47-20.855h21.805v-15.742h-48.02v-0.003906c-2.582-0.007812-5.0078 1.2539-6.4844 3.375-1.4766 2.1211-1.8203 4.832-0.91406 7.2539l16.375 45.105 14.801-5.3516-8.3438-22.906-0.003906-0.003906c30.836 22.547 68.527 33.719 106.67 31.617 38.141-2.0977 74.375-17.344 102.55-43.141 28.172-25.797 46.543-60.555 51.984-98.363 5.4453-37.809-2.375-76.336-22.125-109.03z"/>
  <path d="m289.79 415.74v39.359c0 2.0898 0.83203 4.0898 2.3086 5.5664 1.4727 1.4766 3.4766 2.3086 5.5664 2.3086h55.105-0.003906c0 2.0859 0.83203 4.0898 2.3047 5.5664 1.4766 1.4727 3.4805 2.3047 5.5664 2.3047h78.723c2.0859 0 4.0898-0.83203 5.5664-2.3047 1.4766-1.4766 2.3047-3.4805 2.3047-5.5664h55.105c2.0859 0 4.0898-0.83203 5.5664-2.3086 1.4766-1.4766 2.3047-3.4766 2.3047-5.5664v-39.359c-0.027343-6.6797-2.1758-13.176-6.1367-18.555-3.9648-5.375-9.5352-9.3555-15.906-11.359 5.9453-4.8047 9.6289-11.863 10.168-19.488 0.53516-7.625-2.1172-15.133-7.3281-20.723-5.2109-5.5938-12.512-8.7695-20.156-8.7695-7.6445 0-14.945 3.1758-20.156 8.7695-5.2109 5.5898-7.8672 13.098-7.3281 20.723 0.53906 7.625 4.2188 14.684 10.164 19.488-4.9336 1.5156-9.4219 4.2188-13.066 7.8711-5.2148-7.6602-12.965-13.234-21.883-15.742 7.1953-5.2578 11.828-13.324 12.742-22.191 0.91406-8.8633-1.9688-17.703-7.9414-24.324-5.9688-6.6172-14.465-10.395-23.379-10.395s-17.41 3.7773-23.383 10.395c-5.9688 6.6211-8.8555 15.461-7.9414 24.324 0.91797 8.8672 5.5469 16.934 12.746 22.191-8.9219 2.5078-16.672 8.082-21.887 15.742-3.6445-3.6523-8.1328-6.3555-13.066-7.8711 5.9453-4.8047 9.6289-11.863 10.164-19.488 0.53906-7.625-2.1133-15.133-7.3242-20.723-5.2148-5.5938-12.516-8.7695-20.16-8.7695-7.6406 0-14.941 3.1758-20.156 8.7695-5.2109 5.5898-7.8633 13.098-7.3242 20.723 0.53516 7.625 4.2188 14.684 10.164 19.488-6.3711 2.0039-11.941 5.9844-15.902 11.359-3.9648 5.3789-6.1133 11.875-6.1406 18.555zm181.05-62.977h0.003906c4.7734 0 9.082 2.8789 10.91 7.2891 1.8242 4.4141 0.81641 9.4922-2.5625 12.871-3.375 3.375-8.4531 4.3867-12.867 2.5586s-7.2891-6.1328-7.2891-10.91c0-6.5195 5.2852-11.809 11.809-11.809zm-23.617 62.977h0.003907c0-4.1758 1.6602-8.1797 4.6133-11.133 2.9492-2.9531 6.957-4.6094 11.133-4.6094h15.742c4.1758 0 8.1797 1.6562 11.133 4.6094 2.9531 2.9531 4.6094 6.957 4.6094 11.133v31.488h-47.23zm-47.227-78.719c4.1758 0 8.1797 1.6562 11.133 4.6094 2.9492 2.9531 4.6094 6.957 4.6094 11.133s-1.6602 8.1797-4.6094 11.133c-2.9531 2.9531-6.957 4.6133-11.133 4.6133s-8.1797-1.6602-11.133-4.6133c-2.9531-2.9531-4.6133-6.957-4.6133-11.133s1.6602-8.1797 4.6133-11.133c2.9531-2.9531 6.957-4.6094 11.133-4.6094zm-31.488 78.719c0-6.2617 2.4883-12.27 6.9141-16.699 4.4297-4.4297 10.438-6.918 16.699-6.918h15.746c6.2617 0 12.27 2.4883 16.699 6.918 4.4297 4.4297 6.918 10.438 6.918 16.699v39.359h-62.977zm-39.359-62.977h-0.003906c4.7773 0 9.082 2.8789 10.91 7.2891 1.8281 4.4141 0.81641 9.4922-2.5586 12.871-3.3789 3.375-8.457 4.3867-12.867 2.5586-4.4141-1.8281-7.2891-6.1328-7.2891-10.91 0-6.5195 5.2852-11.809 11.805-11.809zm-23.617 62.977c0-4.1758 1.6562-8.1797 4.6094-11.133s6.957-4.6094 11.133-4.6094h15.746c4.1758 0 8.1797 1.6562 11.133 4.6094s4.6094 6.957 4.6094 11.133v31.488h-47.23z"/>
 </g>
</svg>
