<!DOCTYPE svg PUBLIC "-//W3C//DTD SVG 1.1//EN" "http://www.w3.org/Graphics/SVG/1.1/DTD/svg11.dtd">
<!-- Uploaded to: SVG Find, www.svgrepo.com, Transformed by: SVG Find Mixer Tools -->
<svg fill="#00406d" width="250px" height="250px" version="1.1" viewBox="144 144 512 512" xmlns="http://www.w3.org/2000/svg" stroke="#00406d" stroke-width="5.12">
<g id="SVGRepo_bgCarrier" stroke-width="0"/>
<g id="SVGRepo_tracerCarrier" stroke-linecap="round" stroke-linejoin="round"/>
<g id="SVGRepo_iconCarrier"> <g> <path d="m162.92 632.5h-0.56641c-1.0312 0-1.8672 0.83594-1.8672 1.8672s0.83594 1.8672 1.8672 1.8672h0.56641c1.0312 0 1.8672-0.83594 1.8672-1.8672s-0.83594-1.8672-1.8672-1.8672z"/> <path d="m638.84 632.5h-0.78906c-1.0312 0-1.8672 0.83594-1.8672 1.8672s0.83594 1.8672 1.8672 1.8672l0.78906-0.003907c1.0312 0 1.8672-0.83594 1.8672-1.8672 0-1.0273-0.83594-1.8633-1.8672-1.8633z"/> <path d="m274.46 287.42c-6.1914 0-11.227 5-11.227 11.145 0 6.1914 5.0352 11.227 11.227 11.227 6.1914 0 11.227-5.0352 11.227-11.227 0-6.1445-5.0391-11.145-11.227-11.145zm0 18.641c-4.1328 0-7.4961-3.3633-7.4961-7.4961 0-4.0859 3.3633-7.4141 7.4961-7.4141 4.1328 0 7.4961 3.3242 7.4961 7.4141-0.003906 4.1328-3.3633 7.4961-7.4961 7.4961z"/> <path d="m311.5 287.42c-6.1914 0-11.227 5-11.227 11.145 0 6.1914 5.0352 11.227 11.227 11.227s11.227-5.0352 11.227-11.227c-0.003906-6.1445-5.0391-11.145-11.227-11.145zm0 18.641c-4.1328 0-7.4961-3.3633-7.4961-7.4961 0-4.0859 3.3633-7.4141 7.4961-7.4141s7.4922 3.3242 7.4922 7.4141c0 4.1328-3.3633 7.4961-7.4922 7.4961z"/> <path d="m348.54 287.42c-6.1914 0-11.227 5-11.227 11.145 0 6.1914 5.0352 11.227 11.227 11.227s11.227-5.0352 11.227-11.227c0-6.1445-5.0352-11.145-11.227-11.145zm0 18.641c-4.1328 0-7.4922-3.3633-7.4922-7.4961 0-4.0859 3.3633-7.4141 7.4922-7.4141 4.1328 0 7.4961 3.3242 7.4961 7.4141 0 4.1328-3.3633 7.4961-7.4961 7.4961z"/> <path d="m444.94 445.23c-1.0273-0.042969-1.9141 0.71484-1.9805 1.7461-0.0625 1.0273 0.71875 1.9141 1.7461 1.9805l7.6289 0.47656-14.613 11.848c-3.4883-2.6719-8.4062-2.0586-11.145 1.5078l-17.52-7.7344c-0.78125-3.8906-4.168-6.4219-7.8203-6.4219-4.3633 0-7.9922 3.5195-7.9922 7.9922 0 0.38672 0.0625 0.75781 0.11328 1.1328l-17.727 14.383c-4.1914-3.1406-10.031-1.4688-12.082 3.1523-0.44922 1.0234-0.67578 2.1094-0.67578 3.2305 0 4.4062 3.5859 7.9922 7.9922 7.9922 5.7891 0 9.8203-6.0742 7.1484-11.5l16.82-13.648c1.457 1.9609 3.7734 3.2539 6.3984 3.2539 3.5625 0 6.5508-2.3594 7.5781-5.582l16.219 7.1602c-0.085938 0.46875-0.14844 0.94531-0.14844 1.4258 0 4.4062 3.5859 7.9922 7.9922 7.9922 5.7188 0 9.793-5.9688 7.1836-11.422l15-12.164-0.55078 8.0859c-0.070312 1.0273 0.70703 1.918 1.7383 1.9883 0.042968 0 0.085937 0.003906 0.12891 0.003906 0.97266 0 1.793-0.75391 1.8594-1.7383 0.082031-1.1914 1.0117-14.938 0.96484-14.234zm-74.07 37.547c-2.3477 0-4.2578-1.9102-4.2578-4.2578 0-2.4102 1.957-4.2578 4.2578-4.2578 2.2969 0 4.2578 1.8867 4.2578 4.2578 0 2.3477-1.9062 4.2578-4.2578 4.2578zm30.367-21.895c-4.4609 0-5.9844-8.5156 0-8.5156 1.2734 0 2.4766 0.57812 3.3047 1.5859 2.0352 2.4648 0.41406 6.9297-3.3047 6.9297zm31.645 10.996c-2.3477 0-4.2578-1.9102-4.2578-4.2578 0-0.60938 0.11719-1.1719 0.35938-1.7227 0 0 0.003906 0 0.003906-0.003906v-0.003907c0.68359-1.5352 2.2109-2.5273 3.8984-2.5273 2.3008 0 4.2578 1.8867 4.2578 4.2578-0.003906 2.3477-1.9141 4.2578-4.2617 4.2578z"/> <path d="m296.62 423.64c26.758-0.16797 43.086-18.871 44.039-40.305 0.027344-0.46484 0.054688-0.19141 0.007812-3.7266-0.98828-22.305-19.492-40.27-42.156-40.402l-1.875-0.011719v0.10938c-22.504 0.93359-40.535 19.445-40.535 42.133 0 22.531 17.797 41.227 40.52 42.203zm40.238-45.324c0.035156 0.42578 0.046875 0.85938 0.066406 1.2891h-36.562v-36.551c19.148 1.0195 34.91 16.008 36.496 35.262zm-36.508 41.582v-36.559h36.574c-0.97266 19.781-16.602 35.562-36.574 36.559zm-3.7305 0.011718c-0.43359-0.019531-0.87109-0.03125-1.3008-0.0625-8.3125-0.65625-16.066-3.8203-22.707-9.8555l24.008-24.008zm0.011718-76.867v36.566h-0.011718v1.0938l-26.66 26.66c-6.5195-7.043-10.129-16.16-10.129-25.926 0.003906-20.59 16.297-37.406 36.801-38.395z"/> <path d="m588.84 287.54h-160.25c-6.1055 0-11.07 4.9688-11.07 11.086 0 6.1055 4.9688 11.074 11.07 11.074h160.25c6.1055 0 11.07-4.9688 11.07-11.074v-0.011719c0-6.1094-4.9648-11.074-11.07-11.074zm7.3398 11.082c0 4.0508-3.293 7.3398-7.3398 7.3398l-160.25 0.003906c-4.0469 0-7.3398-3.293-7.3398-7.3516 0-4.0508 3.293-7.3398 7.3398-7.3398h160.25c4.0469 0 7.3398 3.293 7.3398 7.3398z"/> <path d="m164.48 579.87v44.16c0 3.3281 1.3477 6.3438 3.5156 8.5469-0.84375 0.17969-1.4844 0.89453-1.4844 1.7891 0 1.0312 0.83594 1.8672 1.8672 1.8672h446.96 17.141c1.0312 0 1.8672-0.83594 1.8672-1.8672s-0.83594-1.8672-1.8672-1.8672h-5.5742c5.1094-3.6367 8.4727-9.5742 8.4727-16.309 0.007812-47.871 0.046875-257.39 0.058594-321.87 0-12.02-9.7773-21.797-21.797-21.797h-65.617l0.027344-5.7422c0.042969-5.8984-3.8828-11.199-9.5391-12.883l-15.754-4.75c-0.42969-1.418-0.88672-2.8242-1.3828-4.3516-1.5-4.2539-3.2656-8.2578-5.3789-12.207l7.9336-14.32c2.8945-5.1406 2.0039-11.672-2.1641-15.883l-11.488-11.637c-4.1367-4.2227-10.676-5.207-15.918-2.3906l-14.555 7.8633-16.301-6.8125-4.5664-15.859c-1.6328-5.6719-6.8945-9.6641-12.793-9.707-0.375 0 1.5703 0.007812-16.441-0.074219-5.8672 0-11.117 3.8945-12.785 9.5l-4.8125 15.754c-5.8359 1.7773-11.246 4-16.48 6.7656l-14.297-7.9375c-5.1641-2.8867-11.73-1.9766-15.961 2.2109l-11.609 11.535c-4.2344 4.2344-5.1719 10.621-2.3359 15.906l7.832 14.367c-3.0156 5.5195-5.3086 10.906-6.9844 16.41l-15.816 4.6055c-5.6719 1.6445-9.6289 6.9062-9.6289 12.793l-0.03125 6.8477h-65.641c-11.98 0-21.723 9.7773-21.723 21.797-0.042969 208.8-0.042969 206.82-0.042969 207.35h-17.18c-4.6523 0-8.4414 3.7852-8.4414 8.4375v11.254h-12.316v-2.3125c0-2.9297-2.3828-5.3164-5.3125-5.3164l-12.531 0.003906c-2.9297 0-5.3125 2.3867-5.3125 5.3164v2.3125h-6.7891c-6.7344-0.003906-12.207 5.4727-12.207 12.199v38.328c0 3.5469 2.1289 6.668 5.1875 7.9766zm17.539-60.816c0-0.87109 0.70703-1.582 1.582-1.582h12.531c0.87109 0 1.582 0.71094 1.582 1.582v2.3086l-15.695-0.003906zm-5.3359 113.45c-4.6719 0-8.4688-3.8008-8.4688-8.4688v-43.367h60.551v3.668c0 2.9297 2.3867 5.3164 5.3164 5.3164h12.527c2.9297 0 5.3164-2.3867 5.3164-5.3164v-3.668h62.434v35.746h-38.113c-1.0312 0-1.8672 0.83594-1.8672 1.8672s0.83594 1.8672 1.8672 1.8672h38.109v3.8867c0 4.6719-3.8164 8.4688-8.5078 8.4688h-129.16zm71.504-48.168c0 0.87109-0.71094 1.582-1.582 1.582h-12.527c-0.87109 0-1.582-0.71094-1.582-1.582v-11.07c0-0.87109 0.71094-1.582 1.582-1.582h12.527c0.87109 0 1.582 0.71094 1.582 1.582v11.07zm254.71-58.109-0.011719 0.011719c-1.582 1.8555-3.1367 3.5391-4.75 5.1562-1.8008 1.7969-3.457 3.3242-5.0938 4.6875-38.586 33.629-96.797 31.805-133.41-4.7266-38.156-38.156-38.156-100.27 0-138.46 17.258-17.223 40.094-27.355 64.316-28.527 1.7305-0.09375 3.457-0.13672 5.1836-0.13672 25.793 0 50.727 10.273 69.082 28.629 36.188 36.188 38.246 94.773 4.6797 133.37zm-2.1211 7.8047c1.2266-1.2266 2.418-2.5195 3.6133-3.8633l6.6602 6.6602-7.3984 7.3984-6.6562-6.6562c1.2148-1.0703 2.457-2.2148 3.7812-3.5391zm17.926 0.42578c1.2969-1.2969 2.9961-1.9414 4.6953-1.9414 1.7031 0 3.4023 0.64844 4.6992 1.9414l43.711 43.711c0.027343 0.03125 0.054687 0.058594 0.085937 0.085938l25.07 25.07 0.25781 0.30078c2.3945 2.6094 2.2969 6.6172-0.21875 9.1328l-17.5 17.5c-2.5898 2.5938-6.8008 2.5898-9.3945 0l-57.441-57.441 21.98-21.98c0.73047-0.73047 0.73047-1.9102 0-2.6367-0.73047-0.73047-1.9102-0.73047-2.6367 0l-21.98 21.98-8.8242-8.8242c-2.4883-2.4883-2.5898-6.5781 0-9.3906zm48.379 98.047h-252.46c2.1328-2.1953 3.4609-5.1758 3.4609-8.4688v-28.922h166.78c1.0312 0 1.8672-0.83594 1.8672-1.8672s-0.83594-1.8672-1.8672-1.8672h-166.78v-11.562c0.62891-0.27734 1.2031-0.62891 1.7266-1.0508h193.53zm-236.53-366.81c0-4.2422 2.8555-8.0312 6.9375-9.2188l16.793-4.8906c0.61328-0.17969 1.0938-0.65625 1.2695-1.2734 1.7031-5.8711 4.1406-11.605 7.4492-17.52 0.3125-0.55859 0.31641-1.2422 0.007812-1.8047l-8.3164-15.254c-2.0469-3.8125-1.3672-8.4336 1.6875-11.488l11.602-11.527c3.0508-3.0273 7.7852-3.6836 11.516-1.6016l15.188 8.4336c0.55859 0.3125 1.2383 0.31641 1.793 0.007812 5.5703-3.0195 11.336-5.3867 17.625-7.2383 0.60156-0.17578 1.0742-0.64453 1.2578-1.2422l5.1133-16.734c1.2031-4.0352 4.9844-6.8398 9.2188-6.8398 1.3125 0.007812 17.418 0.078125 16.414 0.074218 4.3203 0.03125 8.0312 2.8477 9.2305 7.0078l4.8125 16.719c0.15625 0.54297 0.55078 0.98828 1.0742 1.207l17.949 7.5039c0.51953 0.21484 1.1094 0.1875 1.6055-0.082031l15.336-8.2852c3.7812-2.0312 8.5-1.3203 11.484 1.7188l11.496 11.645c3.0039 3.0352 3.6484 7.7344 1.5586 11.445l-8.4336 15.227c-0.30859 0.5625-0.3125 1.2422 0 1.8008 2.2344 4.0664 4.0742 8.1758 5.6562 12.66 0.53906 1.6523 1.0781 3.3047 1.5781 5.0273 0.17578 0.60547 0.64844 1.082 1.2539 1.2656l16.723 5.0391c4.0781 1.2148 6.9062 5.0312 6.8789 9.2852l-0.027344 5.7656-68.152 0.003907c-1.6328-20.031-18.215-35.57-38.574-35.684h-0.15234c-20.5 0-37.145 15.516-38.742 35.684h-68.137zm141.84 6.8359h-69.992c1.582-18.082 16.566-31.953 35-31.953h0.13672c18.305 0.10547 33.234 13.992 34.855 31.953zm-229.23 21.797c0-9.9609 8.0703-18.062 17.992-18.062h352.49c9.9609 0 18.066 8.1016 18.066 18.062v26.637h-388.55zm-0.042969 30.379h388.53v291.49c0 8.9922-7.3164 16.309-16.309 16.309h-32.797l17.109-17.105c3.9297-3.9336 4.0742-10.211 0.27344-14.355l-22.262-22.273h41.633c1.0312 0 1.8672-0.83594 1.8672-1.8672s-0.83594-1.8672-1.8672-1.8672h-45.363l-43.195-43.215c-3.9258-3.9297-10.754-3.9258-14.672 0l-2.375 2.375-6.8633-6.8633c33.656-40.074 31.184-99.957-5.9766-137.12-20.332-20.332-48.453-31.09-77.094-29.578-25.137 1.2227-48.848 11.738-66.762 29.617-39.613 39.648-39.613 104.13 0 143.74 37.312 37.242 96.754 40.008 137.13 5.9883l6.8867 6.8867-2.4492 2.4492c-0.17188 0.17188-0.33594 0.34766-0.32031 0.36719-3.7812 4.0625-3.6406 10.344 0.32031 14.301l11.043 11.043h-186.98c0.37891-0.99219 0.60938-2.0469 0.60938-3.1328v-38.328c0-6.7305-5.4727-12.203-12.203-12.203h-6.7734v-2.3125c0-2.9297-2.3828-5.3164-5.3125-5.3164h-12.531c-2.9297 0-5.3125 2.3867-5.3125 5.3164v2.3125h-14.18v-11.254c0-4.6523-3.7852-8.4375-8.4414-8.4375h-15.371zm41.719 196.66v-2.3086c0-0.87109 0.70703-1.582 1.582-1.582h12.531c0.87109 0 1.582 0.71094 1.582 1.582v2.3086zm-67.34-11.25c0-2.5938 2.1133-4.707 4.707-4.707h36.281c2.5977 0 4.707 2.1133 4.707 4.707v11.25h-6.1953v-5.9844c0-3.1914-2.5977-5.793-5.793-5.793h-21.73c-3.1914 0-5.793 2.5977-5.793 5.793v5.9844h-6.1914zm9.9219 5.2656c0-1.1367 0.92578-2.0586 2.0586-2.0586h21.73c1.1367 0 2.0586 0.92578 2.0586 2.0586v5.9883h-25.852zm-64.391 18.191c0-4.6719 3.8008-8.4727 8.4727-8.4727h139.54c4.6719 0 8.4727 3.8008 8.4727 8.4727v38.328c0 2.8633-2.3945 5.0391-5 5.0391h-62.582v-3.6719c0-2.9297-2.3867-5.3164-5.3164-5.3164h-12.527c-2.9297 0-5.3164 2.3867-5.3164 5.3164v3.6719h-60.699c-0.54688 0-0.89062-0.082032-1.2656-0.20703-2.2188-0.55469-3.7734-2.543-3.7734-4.832z"/> <path d="m265.89 616.41h-3.4492c-1.0312 0-1.8672 0.83594-1.8672 1.8672s0.83594 1.8672 1.8672 1.8672h3.4492c1.0312 0 1.8672-0.83594 1.8672-1.8672s-0.83594-1.8672-1.8672-1.8672z"/> <path d="m171.91 544.22 8.9805-8.9805c0.73047-0.73047 0.73047-1.9102 0-2.6367-0.73047-0.73047-1.9102-0.73047-2.6367 0l-8.9844 8.9766c-0.73047 0.73047-0.73047 1.9102 0 2.6367 0.73047 0.73047 1.9102 0.73047 2.6406 0.003906z"/> <path d="m175.61 548.12c0.73047 0.73047 1.9102 0.73047 2.6367 0l6.5547-6.5508c0.73047-0.73047 0.73047-1.9102 0-2.6367-0.73047-0.73047-1.9102-0.73047-2.6367 0l-6.5547 6.5508c-0.73047 0.72656-0.73047 1.9102 0 2.6367z"/> <path d="m568.84 355.98h49.672c1.0312 0 1.8672-0.83594 1.8672-1.8672s-0.83594-1.8672-1.8672-1.8672h-49.672c-1.0312 0-1.8672 0.83594-1.8672 1.8672s0.83594 1.8672 1.8672 1.8672z"/> <path d="m568.84 369.55h49.672c1.0312 0 1.8672-0.83594 1.8672-1.8672s-0.83594-1.8672-1.8672-1.8672h-49.672c-1.0312 0-1.8672 0.83594-1.8672 1.8672 0 1.0352 0.83594 1.8672 1.8672 1.8672z"/> <path d="m568.84 383.12h49.672c1.0312 0 1.8672-0.83594 1.8672-1.8672s-0.83594-1.8672-1.8672-1.8672h-49.672c-1.0312 0-1.8672 0.83594-1.8672 1.8672s0.83594 1.8672 1.8672 1.8672z"/> <path d="m568.84 396.69h49.672c1.0312 0 1.8672-0.83594 1.8672-1.8672s-0.83594-1.8672-1.8672-1.8672h-49.672c-1.0312 0-1.8672 0.83594-1.8672 1.8672 0 1.0352 0.83594 1.8672 1.8672 1.8672z"/> <path d="m549.1 355.98h8.7266c1.0312 0 1.8672-0.83594 1.8672-1.8672s-0.83594-1.8672-1.8672-1.8672h-8.7266c-1.0312 0-1.8672 0.83594-1.8672 1.8672s0.83594 1.8672 1.8672 1.8672z"/> <path d="m549.1 369.55h8.7266c1.0312 0 1.8672-0.83594 1.8672-1.8672s-0.83594-1.8672-1.8672-1.8672h-8.7266c-1.0312 0-1.8672 0.83594-1.8672 1.8672 0 1.0352 0.83594 1.8672 1.8672 1.8672z"/> <path d="m549.1 383.12h8.7266c1.0312 0 1.8672-0.83594 1.8672-1.8672s-0.83594-1.8672-1.8672-1.8672h-8.7266c-1.0312 0-1.8672 0.83594-1.8672 1.8672s0.83594 1.8672 1.8672 1.8672z"/> <path d="m549.1 396.69h8.7266c1.0312 0 1.8672-0.83594 1.8672-1.8672s-0.83594-1.8672-1.8672-1.8672h-8.7266c-1.0312 0-1.8672 0.83594-1.8672 1.8672 0 1.0352 0.83594 1.8672 1.8672 1.8672z"/> <path d="m511.24 454.21v-0.015625c-3.8633-41.465-38.668-74.727-82.254-74.727h-0.14062c-22.121 0.035156-42.863 8.6172-58.414 24.172-31.543 31.582-32.52 81.93-2.2617 114.57 0.027343 0.03125 0.0625 0.058593 0.089843 0.09375 0.007813 0.007812 0.011719 0.015624 0.019532 0.019531 14.691 17.051 41.168 26.375 55.367 26.281 44.406 3.9141 86.258-32.332 87.863-79.797 0.11719-3.582 0.027344-7.1445-0.26953-10.594zm-3.4609 10.469c-0.74219 21.887-10.5 41.566-25.566 55.488v-98.691l9.582 9.582c0.73047 0.73047 1.9102 0.73047 2.6367 0 0.73047-0.73047 0.73047-1.9102 0-2.6367l-14.09-14.09-14.086 14.09c-0.73047 0.73047-0.73047 1.9102 0 2.6367 0.73047 0.73047 1.9102 0.73047 2.6367 0l9.5859-9.5898v101.97c-3.7617 3.0664-7.8047 5.7812-12.09 8.1133l0.003906-71.398c0-1.0312-0.83594-1.8672-1.8672-1.8672s-1.8672 0.83594-1.8672 1.8672v73.312c-3.8672 1.8438-7.9141 3.3438-12.094 4.5352l0.003906-71.727c0-1.0312-0.83594-1.8672-1.8672-1.8672s-1.8672 0.83594-1.8672 1.8672v72.742c-3.9258 0.90625-7.9688 1.4766-12.09 1.7578v-56.137c0-1.0312-0.83594-1.8672-1.8672-1.8672s-1.8672 0.83594-1.8672 1.8672v56.398c-2.8242 0.070313-5.0352 0.023438-7.2031-0.15625-2.2969 0-3.7539-0.35937-4.8906-0.51953l0.003907-61.844c0-1.0312-0.83594-1.8672-1.8672-1.8672s-1.8672 0.83594-1.8672 1.8672v61.27c-4.1367-0.76172-8.168-1.8516-12.09-3.1914l0.003906-45.84c0-1.0312-0.83594-1.8672-1.8672-1.8672s-1.8672 0.83594-1.8672 1.8672v44.535c-4.25-1.6758-8.3008-3.6875-12.094-5.9805l0.003907-44.672c0-1.0312-0.83594-1.8672-1.8672-1.8672s-1.8672 0.83594-1.8672 1.8672v42.195c-4.5352-3.1289-8.6367-6.6562-12.09-10.59v-13.207c0-1.0312-0.83594-1.8672-1.8672-1.8672s-1.8672 0.83594-1.8672 1.8672v8.8398c-25.496-31.207-23.57-76.641 5.3516-105.59 14.848-14.848 34.656-23.047 55.781-23.082h0.13672c21.121 0 40.93 8.1797 55.793 23.043 12.969 12.934 21.047 30.082 22.746 48.293 0.28125 3.3008 0.36719 6.7148 0.25391 10.145z"/> </g> </g>
</svg>