<svg xmlns="http://www.w3.org/2000/svg" xmlns:xlink="http://www.w3.org/1999/xlink" width="500" zoomAndPan="magnify" viewBox="0 0 375 374.999991" height="500" preserveAspectRatio="xMidYMid meet" version="1.0"><defs><clipPath id="9b2159953a"><path d="M 37.5 287 L 248 287 L 248 337.5 L 37.5 337.5 Z M 37.5 287 " clip-rule="nonzero"/></clipPath><clipPath id="acb60faa7d"><path d="M 257 37.5 L 337.5 37.5 L 337.5 118 L 257 118 Z M 257 37.5 " clip-rule="nonzero"/></clipPath></defs><path fill="#00406d" d="M 169.894531 181.03125 C 170.324219 182.226562 170.804688 183.390625 171.339844 184.523438 C 172.273438 186.511719 172.011719 188.84375 170.453125 190.398438 L 165.070312 195.785156 L 179.210938 209.925781 L 184.59375 204.539062 C 186.144531 202.988281 188.484375 202.71875 190.46875 203.65625 C 191.605469 204.191406 192.773438 204.675781 193.964844 205.101562 C 196.035156 205.84375 197.5 207.683594 197.5 209.878906 L 197.5 217.5 L 217.5 217.5 L 217.5 209.878906 C 217.5 207.683594 218.964844 205.84375 221.03125 205.105469 C 222.226562 204.675781 223.390625 204.195312 224.523438 203.660156 C 226.511719 202.726562 228.84375 202.988281 230.398438 204.546875 L 235.785156 209.929688 L 249.925781 195.789062 L 244.539062 190.40625 C 242.988281 188.855469 242.71875 186.515625 243.65625 184.53125 C 244.191406 183.394531 244.675781 182.226562 245.101562 181.035156 C 245.84375 178.964844 247.683594 177.5 249.878906 177.5 L 257.5 177.5 L 257.5 157.5 L 249.878906 157.5 C 247.683594 157.5 245.84375 156.035156 245.105469 153.96875 C 244.675781 152.773438 244.195312 151.609375 243.660156 150.476562 C 242.726562 148.488281 242.988281 146.15625 244.546875 144.601562 L 249.929688 139.214844 L 235.789062 125.074219 L 230.40625 130.460938 C 228.855469 132.011719 226.515625 132.28125 224.53125 131.34375 C 223.394531 130.808594 222.226562 130.324219 221.035156 129.898438 C 218.964844 129.15625 217.5 127.316406 217.5 125.121094 L 217.5 117.5 L 197.5 117.5 L 197.5 125.121094 C 197.5 127.316406 196.035156 129.15625 193.96875 129.894531 C 192.773438 130.324219 191.609375 130.804688 190.476562 131.339844 C 188.488281 132.273438 186.15625 132.011719 184.601562 130.453125 L 179.214844 125.070312 L 165.074219 139.210938 L 170.460938 144.59375 C 172.011719 146.144531 172.28125 148.484375 171.34375 150.46875 C 170.808594 151.605469 170.324219 152.773438 169.898438 153.964844 C 169.15625 156.035156 167.316406 157.5 165.121094 157.5 L 157.5 157.5 L 157.5 177.5 L 165.121094 177.5 C 167.316406 177.5 169.15625 178.964844 169.894531 181.03125 Z M 207.5 147.5 C 218.546875 147.5 227.5 156.453125 227.5 167.5 C 227.5 178.546875 218.546875 187.5 207.5 187.5 C 196.453125 187.5 187.5 178.546875 187.5 167.5 C 187.5 156.453125 196.453125 147.5 207.5 147.5 Z M 207.5 147.5 " fill-opacity="1" fill-rule="nonzero"/><path fill="#00406d" d="M 162.5 267.5 C 162.5 268.15625 162.46875 268.808594 162.402344 269.460938 C 162.339844 270.113281 162.242188 270.757812 162.117188 271.402344 C 161.988281 272.042969 161.828125 272.679688 161.640625 273.304688 C 161.449219 273.933594 161.226562 274.546875 160.976562 275.152344 C 160.726562 275.757812 160.445312 276.351562 160.136719 276.929688 C 159.828125 277.503906 159.492188 278.066406 159.128906 278.609375 C 158.765625 279.15625 158.375 279.679688 157.960938 280.1875 C 157.542969 280.695312 157.105469 281.179688 156.640625 281.640625 C 156.179688 282.105469 155.695312 282.542969 155.1875 282.960938 C 154.679688 283.375 154.15625 283.765625 153.613281 284.128906 C 153.066406 284.492188 152.503906 284.828125 151.929688 285.136719 C 151.351562 285.445312 150.757812 285.726562 150.152344 285.976562 C 149.546875 286.226562 148.933594 286.449219 148.304688 286.640625 C 147.679688 286.828125 147.042969 286.988281 146.402344 287.117188 C 145.757812 287.242188 145.113281 287.339844 144.460938 287.402344 C 143.808594 287.46875 143.15625 287.5 142.5 287.5 C 141.84375 287.5 141.191406 287.46875 140.539062 287.402344 C 139.886719 287.339844 139.242188 287.242188 138.597656 287.117188 C 137.957031 286.988281 137.320312 286.828125 136.695312 286.640625 C 136.066406 286.449219 135.453125 286.226562 134.847656 285.976562 C 134.242188 285.726562 133.648438 285.445312 133.070312 285.136719 C 132.496094 284.828125 131.933594 284.492188 131.386719 284.128906 C 130.84375 283.765625 130.320312 283.375 129.8125 282.960938 C 129.304688 282.542969 128.820312 282.105469 128.359375 281.640625 C 127.894531 281.179688 127.457031 280.695312 127.039062 280.1875 C 126.625 279.679688 126.234375 279.15625 125.871094 278.609375 C 125.507812 278.066406 125.171875 277.503906 124.863281 276.929688 C 124.554688 276.351562 124.273438 275.757812 124.023438 275.152344 C 123.773438 274.546875 123.550781 273.933594 123.359375 273.304688 C 123.171875 272.679688 123.011719 272.042969 122.882812 271.402344 C 122.757812 270.757812 122.660156 270.113281 122.597656 269.460938 C 122.53125 268.808594 122.5 268.15625 122.5 267.5 C 122.5 266.84375 122.53125 266.191406 122.597656 265.539062 C 122.660156 264.886719 122.757812 264.242188 122.882812 263.597656 C 123.011719 262.957031 123.171875 262.320312 123.359375 261.695312 C 123.550781 261.066406 123.773438 260.453125 124.023438 259.847656 C 124.273438 259.242188 124.554688 258.648438 124.863281 258.070312 C 125.171875 257.496094 125.507812 256.933594 125.871094 256.386719 C 126.234375 255.84375 126.625 255.320312 127.039062 254.8125 C 127.457031 254.304688 127.894531 253.820312 128.359375 253.359375 C 128.820312 252.894531 129.304688 252.457031 129.8125 252.039062 C 130.320312 251.625 130.84375 251.234375 131.386719 250.871094 C 131.933594 250.507812 132.496094 250.171875 133.070312 249.863281 C 133.648438 249.554688 134.242188 249.273438 134.847656 249.023438 C 135.453125 248.773438 136.066406 248.550781 136.695312 248.359375 C 137.320312 248.171875 137.957031 248.011719 138.597656 247.882812 C 139.242188 247.757812 139.886719 247.660156 140.539062 247.597656 C 141.191406 247.53125 141.84375 247.5 142.5 247.5 C 143.15625 247.5 143.808594 247.53125 144.460938 247.597656 C 145.113281 247.660156 145.757812 247.757812 146.402344 247.882812 C 147.042969 248.011719 147.679688 248.171875 148.304688 248.359375 C 148.933594 248.550781 149.546875 248.773438 150.152344 249.023438 C 150.757812 249.273438 151.351562 249.554688 151.929688 249.863281 C 152.503906 250.171875 153.066406 250.507812 153.613281 250.871094 C 154.15625 251.234375 154.679688 251.625 155.1875 252.039062 C 155.695312 252.457031 156.179688 252.894531 156.640625 253.359375 C 157.105469 253.820312 157.542969 254.304688 157.960938 254.8125 C 158.375 255.320312 158.765625 255.84375 159.128906 256.386719 C 159.492188 256.933594 159.828125 257.496094 160.136719 258.070312 C 160.445312 258.648438 160.726562 259.242188 160.976562 259.847656 C 161.226562 260.453125 161.449219 261.066406 161.640625 261.695312 C 161.828125 262.320312 161.988281 262.957031 162.117188 263.597656 C 162.242188 264.242188 162.339844 264.886719 162.402344 265.539062 C 162.46875 266.191406 162.5 266.84375 162.5 267.5 Z M 162.5 267.5 " fill-opacity="1" fill-rule="nonzero"/><path fill="#00406d" d="M 232.5 267.5 C 232.5 268.15625 232.46875 268.808594 232.402344 269.460938 C 232.339844 270.113281 232.242188 270.757812 232.117188 271.402344 C 231.988281 272.042969 231.828125 272.679688 231.640625 273.304688 C 231.449219 273.933594 231.226562 274.546875 230.976562 275.152344 C 230.726562 275.757812 230.445312 276.351562 230.136719 276.929688 C 229.828125 277.503906 229.492188 278.066406 229.128906 278.609375 C 228.765625 279.15625 228.375 279.679688 227.960938 280.1875 C 227.542969 280.695312 227.105469 281.179688 226.640625 281.640625 C 226.179688 282.105469 225.695312 282.542969 225.1875 282.960938 C 224.679688 283.375 224.15625 283.765625 223.613281 284.128906 C 223.066406 284.492188 222.503906 284.828125 221.929688 285.136719 C 221.351562 285.445312 220.757812 285.726562 220.152344 285.976562 C 219.546875 286.226562 218.933594 286.449219 218.304688 286.640625 C 217.679688 286.828125 217.042969 286.988281 216.402344 287.117188 C 215.757812 287.242188 215.113281 287.339844 214.460938 287.402344 C 213.808594 287.46875 213.15625 287.5 212.5 287.5 C 211.84375 287.5 211.191406 287.46875 210.539062 287.402344 C 209.886719 287.339844 209.242188 287.242188 208.597656 287.117188 C 207.957031 286.988281 207.320312 286.828125 206.695312 286.640625 C 206.066406 286.449219 205.453125 286.226562 204.847656 285.976562 C 204.242188 285.726562 203.648438 285.445312 203.070312 285.136719 C 202.496094 284.828125 201.933594 284.492188 201.386719 284.128906 C 200.84375 283.765625 200.320312 283.375 199.8125 282.960938 C 199.304688 282.542969 198.820312 282.105469 198.359375 281.640625 C 197.894531 281.179688 197.457031 280.695312 197.039062 280.1875 C 196.625 279.679688 196.234375 279.15625 195.871094 278.609375 C 195.507812 278.066406 195.171875 277.503906 194.863281 276.929688 C 194.554688 276.351562 194.273438 275.757812 194.023438 275.152344 C 193.773438 274.546875 193.550781 273.933594 193.359375 273.304688 C 193.171875 272.679688 193.011719 272.042969 192.882812 271.402344 C 192.757812 270.757812 192.660156 270.113281 192.597656 269.460938 C 192.53125 268.808594 192.5 268.15625 192.5 267.5 C 192.5 266.84375 192.53125 266.191406 192.597656 265.539062 C 192.660156 264.886719 192.757812 264.242188 192.882812 263.597656 C 193.011719 262.957031 193.171875 262.320312 193.359375 261.695312 C 193.550781 261.066406 193.773438 260.453125 194.023438 259.847656 C 194.273438 259.242188 194.554688 258.648438 194.863281 258.070312 C 195.171875 257.496094 195.507812 256.933594 195.871094 256.386719 C 196.234375 255.84375 196.625 255.320312 197.039062 254.8125 C 197.457031 254.304688 197.894531 253.820312 198.359375 253.359375 C 198.820312 252.894531 199.304688 252.457031 199.8125 252.039062 C 200.320312 251.625 200.84375 251.234375 201.386719 250.871094 C 201.933594 250.507812 202.496094 250.171875 203.070312 249.863281 C 203.648438 249.554688 204.242188 249.273438 204.847656 249.023438 C 205.453125 248.773438 206.066406 248.550781 206.695312 248.359375 C 207.320312 248.171875 207.957031 248.011719 208.597656 247.882812 C 209.242188 247.757812 209.886719 247.660156 210.539062 247.597656 C 211.191406 247.53125 211.84375 247.5 212.5 247.5 C 213.15625 247.5 213.808594 247.53125 214.460938 247.597656 C 215.113281 247.660156 215.757812 247.757812 216.402344 247.882812 C 217.042969 248.011719 217.679688 248.171875 218.304688 248.359375 C 218.933594 248.550781 219.546875 248.773438 220.152344 249.023438 C 220.757812 249.273438 221.351562 249.554688 221.929688 249.863281 C 222.503906 250.171875 223.066406 250.507812 223.613281 250.871094 C 224.15625 251.234375 224.679688 251.625 225.1875 252.039062 C 225.695312 252.457031 226.179688 252.894531 226.640625 253.359375 C 227.105469 253.820312 227.542969 254.304688 227.960938 254.8125 C 228.375 255.320312 228.765625 255.84375 229.128906 256.386719 C 229.492188 256.933594 229.828125 257.496094 230.136719 258.070312 C 230.445312 258.648438 230.726562 259.242188 230.976562 259.847656 C 231.226562 260.453125 231.449219 261.066406 231.640625 261.695312 C 231.828125 262.320312 231.988281 262.957031 232.117188 263.597656 C 232.242188 264.242188 232.339844 264.886719 232.402344 265.539062 C 232.46875 266.191406 232.5 266.84375 232.5 267.5 Z M 232.5 267.5 " fill-opacity="1" fill-rule="nonzero"/><g clip-path="url(#9b2159953a)"><path fill="#00406d" d="M 247.5 322.5 C 247.5 303.171875 231.828125 287.5 212.5 287.5 C 193.171875 287.5 177.5 303.171875 177.5 322.5 C 177.5 303.171875 161.828125 287.5 142.5 287.5 C 123.171875 287.5 107.5 303.171875 107.5 322.5 C 107.5 303.171875 91.828125 287.5 72.5 287.5 C 53.171875 287.5 37.5 303.171875 37.5 322.5 L 37.5 337.5 L 247.5 337.5 Z M 247.5 322.5 " fill-opacity="1" fill-rule="nonzero"/></g><path fill="#00406d" d="M 92.5 267.5 C 92.5 268.15625 92.46875 268.808594 92.402344 269.460938 C 92.339844 270.113281 92.242188 270.757812 92.117188 271.402344 C 91.988281 272.042969 91.828125 272.679688 91.640625 273.304688 C 91.449219 273.933594 91.226562 274.546875 90.976562 275.152344 C 90.726562 275.757812 90.445312 276.351562 90.136719 276.929688 C 89.828125 277.503906 89.492188 278.066406 89.128906 278.609375 C 88.765625 279.15625 88.375 279.679688 87.960938 280.1875 C 87.542969 280.695312 87.105469 281.179688 86.640625 281.640625 C 86.179688 282.105469 85.695312 282.542969 85.1875 282.960938 C 84.679688 283.375 84.15625 283.765625 83.613281 284.128906 C 83.066406 284.492188 82.503906 284.828125 81.929688 285.136719 C 81.351562 285.445312 80.757812 285.726562 80.152344 285.976562 C 79.546875 286.226562 78.933594 286.449219 78.304688 286.640625 C 77.679688 286.828125 77.042969 286.988281 76.402344 287.117188 C 75.757812 287.242188 75.113281 287.339844 74.460938 287.402344 C 73.808594 287.46875 73.15625 287.5 72.5 287.5 C 71.84375 287.5 71.191406 287.46875 70.539062 287.402344 C 69.886719 287.339844 69.242188 287.242188 68.597656 287.117188 C 67.957031 286.988281 67.320312 286.828125 66.695312 286.640625 C 66.066406 286.449219 65.453125 286.226562 64.847656 285.976562 C 64.242188 285.726562 63.648438 285.445312 63.070312 285.136719 C 62.496094 284.828125 61.933594 284.492188 61.386719 284.128906 C 60.84375 283.765625 60.320312 283.375 59.8125 282.960938 C 59.304688 282.542969 58.820312 282.105469 58.359375 281.640625 C 57.894531 281.179688 57.457031 280.695312 57.039062 280.1875 C 56.625 279.679688 56.234375 279.15625 55.871094 278.609375 C 55.507812 278.066406 55.171875 277.503906 54.863281 276.929688 C 54.554688 276.351562 54.273438 275.757812 54.023438 275.152344 C 53.773438 274.546875 53.550781 273.933594 53.359375 273.304688 C 53.171875 272.679688 53.011719 272.042969 52.882812 271.402344 C 52.757812 270.757812 52.660156 270.113281 52.597656 269.460938 C 52.53125 268.808594 52.5 268.15625 52.5 267.5 C 52.5 266.84375 52.53125 266.191406 52.597656 265.539062 C 52.660156 264.886719 52.757812 264.242188 52.882812 263.597656 C 53.011719 262.957031 53.171875 262.320312 53.359375 261.695312 C 53.550781 261.066406 53.773438 260.453125 54.023438 259.847656 C 54.273438 259.242188 54.554688 258.648438 54.863281 258.070312 C 55.171875 257.496094 55.507812 256.933594 55.871094 256.386719 C 56.234375 255.84375 56.625 255.320312 57.039062 254.8125 C 57.457031 254.304688 57.894531 253.820312 58.359375 253.359375 C 58.820312 252.894531 59.304688 252.457031 59.8125 252.039062 C 60.320312 251.625 60.84375 251.234375 61.386719 250.871094 C 61.933594 250.507812 62.496094 250.171875 63.070312 249.863281 C 63.648438 249.554688 64.242188 249.273438 64.847656 249.023438 C 65.453125 248.773438 66.066406 248.550781 66.695312 248.359375 C 67.320312 248.171875 67.957031 248.011719 68.597656 247.882812 C 69.242188 247.757812 69.886719 247.660156 70.539062 247.597656 C 71.191406 247.53125 71.84375 247.5 72.5 247.5 C 73.15625 247.5 73.808594 247.53125 74.460938 247.597656 C 75.113281 247.660156 75.757812 247.757812 76.402344 247.882812 C 77.042969 248.011719 77.679688 248.171875 78.304688 248.359375 C 78.933594 248.550781 79.546875 248.773438 80.152344 249.023438 C 80.757812 249.273438 81.351562 249.554688 81.929688 249.863281 C 82.503906 250.171875 83.066406 250.507812 83.613281 250.871094 C 84.15625 251.234375 84.679688 251.625 85.1875 252.039062 C 85.695312 252.457031 86.179688 252.894531 86.640625 253.359375 C 87.105469 253.820312 87.542969 254.304688 87.960938 254.8125 C 88.375 255.320312 88.765625 255.84375 89.128906 256.386719 C 89.492188 256.933594 89.828125 257.496094 90.136719 258.070312 C 90.445312 258.648438 90.726562 259.242188 90.976562 259.847656 C 91.226562 260.453125 91.449219 261.066406 91.640625 261.695312 C 91.828125 262.320312 91.988281 262.957031 92.117188 263.597656 C 92.242188 264.242188 92.339844 264.886719 92.402344 265.539062 C 92.46875 266.191406 92.5 266.84375 92.5 267.5 Z M 92.5 267.5 " fill-opacity="1" fill-rule="nonzero"/><path fill="#00406d" d="M 126.035156 192.5 C 122.359375 186.519531 114.484375 171.785156 116.035156 152.5 C 116.039062 152.414062 116.050781 152.335938 116.054688 152.253906 C 116.96875 141.425781 122.171875 131.410156 130.003906 123.878906 L 131.289062 122.644531 L 138.359375 115.574219 L 148.964844 126.179688 L 152.5 80.21875 L 106.539062 83.753906 L 117.144531 94.359375 L 106.539062 104.964844 C 95.695312 113.773438 92.273438 122.976562 91.035156 127.496094 C 85.089844 149.238281 98.753906 176.085938 126.035156 192.5 Z M 126.035156 192.5 " fill-opacity="1" fill-rule="nonzero"/><path fill="#00406d" d="M 298.945312 195.46875 C 298.03125 206.300781 292.828125 216.316406 284.996094 223.84375 L 283.710938 225.078125 L 276.640625 232.148438 L 266.035156 221.546875 L 262.5 267.5 L 308.460938 263.964844 L 297.855469 253.359375 L 308.460938 242.753906 C 319.304688 233.945312 322.726562 224.746094 323.964844 220.226562 C 329.910156 198.484375 316.246094 171.640625 288.964844 155.226562 C 292.640625 161.203125 300.515625 175.941406 298.964844 195.226562 C 298.960938 195.304688 298.949219 195.386719 298.945312 195.46875 Z M 298.945312 195.46875 " fill-opacity="1" fill-rule="nonzero"/><g clip-path="url(#acb60faa7d)"><path fill="#00406d" d="M 297.5 37.5 C 275.410156 37.5 257.5 55.410156 257.5 77.5 C 257.5 99.589844 275.410156 117.5 297.5 117.5 C 319.589844 117.5 337.5 99.589844 337.5 77.5 C 337.5 55.410156 319.589844 37.5 297.5 37.5 Z M 296.339844 95.699219 C 295.441406 96.78125 294.128906 97.429688 292.726562 97.496094 C 292.648438 97.5 292.574219 97.5 292.5 97.5 C 291.175781 97.5 289.90625 96.976562 288.964844 96.035156 L 273.964844 81.035156 L 281.035156 73.964844 L 292.164062 85.09375 L 313.660156 59.300781 L 321.339844 65.699219 Z M 296.339844 95.699219 " fill-opacity="1" fill-rule="nonzero"/></g></svg>