<svg xmlns="http://www.w3.org/2000/svg" xmlns:xlink="http://www.w3.org/1999/xlink" width="500" zoomAndPan="magnify" viewBox="0 0 375 374.999991" height="500" preserveAspectRatio="xMidYMid meet" version="1.0"><defs><clipPath id="a42bdb68ba"><path d="M 69.1875 37.5 L 306 37.5 L 306 337.5 L 69.1875 337.5 Z M 69.1875 37.5 " clip-rule="nonzero"/></clipPath></defs><g clip-path="url(#a42bdb68ba)"><path fill="#00406d" d="M 138.097656 260.011719 C 136.003906 224.648438 125.914062 211.355469 118.210938 197.722656 C 112.539062 187.691406 108.03125 177.496094 108.03125 159.808594 C 108.03125 115.910156 143.617188 80.324219 187.511719 80.324219 C 231.410156 80.324219 266.996094 115.910156 266.996094 159.808594 C 266.996094 177.496094 262.484375 187.691406 256.816406 197.722656 C 249.101562 211.371094 238.996094 224.683594 236.917969 260.152344 C 236.917969 260.179688 236.914062 260.210938 236.914062 260.238281 L 236.902344 272 C 236.902344 279.660156 231.773438 286.164062 224.796875 288.261719 L 224.796875 296.265625 C 224.796875 304.042969 219.484375 310.628906 212.339844 312.621094 L 212.339844 320.527344 C 212.339844 329.839844 204.703125 337.5 195.390625 337.5 L 179.632812 337.5 C 170.324219 337.5 162.660156 329.835938 162.660156 320.527344 L 162.660156 312.617188 C 155.507812 310.621094 150.230469 304.035156 150.230469 296.265625 L 150.230469 288.265625 C 143.230469 286.171875 138.097656 279.664062 138.097656 272 Z M 227.230469 264.707031 L 147.773438 264.707031 L 147.773438 272 C 147.773438 276.015625 151.054688 279.292969 155.066406 279.292969 L 219.957031 279.292969 C 223.953125 279.292969 227.226562 276.011719 227.226562 271.996094 Z M 215.117188 288.972656 L 159.90625 288.972656 L 159.90625 296.265625 C 159.90625 300.28125 163.183594 303.558594 167.199219 303.558594 L 207.824219 303.558594 C 211.824219 303.558594 215.117188 300.28125 215.117188 296.265625 Z M 202.660156 313.234375 L 172.339844 313.234375 L 172.339844 320.527344 C 172.339844 324.527344 175.632812 327.824219 179.632812 327.824219 L 195.390625 327.824219 C 199.390625 327.824219 202.660156 324.527344 202.660156 320.527344 Z M 187.511719 90.003906 C 148.960938 90.003906 117.707031 121.257812 117.707031 159.808594 C 117.707031 179.371094 124.074219 188.535156 130.746094 200.046875 C 137.722656 212.082031 145.140625 226.410156 147.449219 255.027344 L 227.574219 255.027344 C 229.882812 226.410156 237.304688 212.082031 244.277344 200.046875 C 250.953125 188.535156 257.316406 179.371094 257.316406 159.808594 C 257.316406 121.257812 226.066406 90.003906 187.511719 90.003906 Z M 143.753906 165.671875 L 146.558594 162.871094 C 148.445312 160.984375 151.511719 160.984375 153.398438 162.871094 C 155.289062 164.757812 155.289062 167.824219 153.398438 169.714844 L 150.597656 172.515625 L 153.398438 175.316406 C 155.289062 177.207031 155.289062 180.273438 153.398438 182.160156 C 151.511719 184.050781 148.445312 184.050781 146.558594 182.160156 L 143.753906 179.359375 L 140.953125 182.160156 C 139.0625 184.050781 135.996094 184.050781 134.109375 182.160156 C 132.222656 180.273438 132.222656 177.207031 134.109375 175.316406 L 136.910156 172.515625 L 134.109375 169.714844 C 132.222656 167.824219 132.222656 164.757812 134.109375 162.871094 C 135.996094 160.984375 139.0625 160.984375 140.953125 162.871094 Z M 177.171875 115.167969 C 185.546875 115.167969 192.351562 121.972656 192.351562 130.351562 C 192.351562 138.730469 185.546875 145.53125 177.171875 145.53125 C 168.792969 145.53125 161.988281 138.730469 161.988281 130.351562 C 161.988281 121.972656 168.792969 115.167969 177.171875 115.167969 Z M 177.171875 124.847656 C 174.132812 124.847656 171.667969 127.3125 171.667969 130.351562 C 171.667969 133.386719 174.132812 135.855469 177.171875 135.855469 C 180.207031 135.855469 182.675781 133.386719 182.675781 130.351562 C 182.675781 127.3125 180.207031 124.847656 177.171875 124.847656 Z M 198.589844 187.183594 C 206.96875 187.183594 213.769531 193.984375 213.769531 202.363281 C 213.769531 210.742188 206.96875 217.542969 198.589844 217.542969 C 190.210938 217.542969 183.410156 210.742188 183.410156 202.363281 C 183.410156 193.984375 190.210938 187.183594 198.589844 187.183594 Z M 198.589844 196.859375 C 195.550781 196.859375 193.085938 199.328125 193.085938 202.363281 C 193.085938 205.402344 195.550781 207.867188 198.589844 207.867188 C 201.628906 207.867188 204.09375 205.402344 204.09375 202.363281 C 204.09375 199.328125 201.628906 196.859375 198.589844 196.859375 Z M 231.246094 159.449219 L 234.046875 156.648438 C 235.9375 154.757812 239.003906 154.757812 240.890625 156.648438 C 242.777344 158.535156 242.777344 161.601562 240.890625 163.492188 L 238.089844 166.292969 L 240.890625 169.09375 C 242.777344 170.984375 242.777344 174.050781 240.890625 175.9375 C 239.003906 177.828125 235.9375 177.828125 234.046875 175.9375 L 231.246094 173.136719 L 228.441406 175.9375 C 226.554688 177.828125 223.488281 177.828125 221.601562 175.9375 C 219.710938 174.050781 219.710938 170.984375 221.601562 169.09375 L 224.402344 166.292969 L 221.601562 163.492188 C 219.710938 161.601562 219.710938 158.535156 221.601562 156.648438 C 223.488281 154.757812 226.554688 154.757812 228.441406 156.648438 Z M 221.605469 136.667969 C 220.183594 144.800781 217.410156 150.726562 213.898438 155.277344 C 207.273438 163.871094 197.789062 167.546875 188.683594 171.503906 C 182.546875 174.171875 176.582031 176.949219 172.636719 182.765625 C 168.601562 188.71875 166.820312 197.664062 168.367188 212.195312 C 168.648438 214.847656 166.722656 217.234375 164.066406 217.515625 C 161.410156 217.800781 159.027344 215.875 158.746094 213.21875 C 156.851562 195.453125 159.691406 184.613281 164.625 177.335938 C 169.652344 169.921875 177.003906 166.027344 184.828125 162.628906 C 192.476562 159.304688 200.671875 156.582031 206.238281 149.367188 C 208.882812 145.9375 210.878906 141.484375 211.984375 135.503906 L 209.917969 137.015625 C 207.765625 138.59375 204.734375 138.128906 203.15625 135.972656 C 201.578125 133.816406 202.046875 130.789062 204.199219 129.210938 L 214.796875 121.449219 C 216.773438 120 219.519531 120.257812 221.191406 122.046875 L 230.53125 132.046875 C 232.355469 133.996094 232.25 137.0625 230.300781 138.886719 C 228.347656 140.707031 225.285156 140.605469 223.460938 138.652344 C 223.460938 138.652344 222.652344 137.785156 221.605469 136.667969 Z M 192.351562 59.925781 C 192.351562 62.59375 190.183594 64.761719 187.511719 64.761719 C 184.839844 64.761719 182.675781 62.59375 182.675781 59.925781 L 182.675781 42.339844 C 182.675781 39.667969 184.839844 37.5 187.511719 37.5 C 190.183594 37.5 192.351562 39.667969 192.351562 42.339844 Z M 135.394531 72.59375 C 136.730469 74.90625 135.933594 77.867188 133.621094 79.199219 C 131.304688 80.535156 128.34375 79.738281 127.011719 77.425781 L 118.230469 62.191406 C 116.898438 59.875 117.695312 56.914062 120.007812 55.582031 C 122.320312 54.246094 125.28125 55.042969 126.617188 57.359375 Z M 92.425781 112.042969 C 94.738281 113.378906 95.53125 116.34375 94.195312 118.652344 C 92.855469 120.964844 89.894531 121.757812 87.582031 120.421875 L 72.347656 111.617188 C 70.035156 110.28125 69.246094 107.316406 70.582031 105.007812 C 71.917969 102.695312 74.878906 101.902344 77.191406 103.238281 Z M 247.984375 77.429688 C 246.648438 79.742188 243.6875 80.535156 241.375 79.199219 C 239.0625 77.859375 238.269531 74.898438 239.605469 72.585938 L 248.410156 57.351562 C 249.75 55.039062 252.710938 54.25 255.023438 55.585938 C 257.335938 56.921875 258.128906 59.882812 256.789062 62.195312 Z M 287.445312 120.421875 C 285.132812 121.757812 282.171875 120.96875 280.832031 118.65625 C 279.496094 116.34375 280.285156 113.382812 282.597656 112.046875 L 297.804688 103.238281 C 300.117188 101.902344 303.078125 102.691406 304.417969 105.003906 C 305.753906 107.3125 304.964844 110.277344 302.652344 111.613281 Z M 287.445312 120.421875 " fill-opacity="1" fill-rule="evenodd"/></g></svg>