<!DOCTYPE svg PUBLIC "-//W3C//DTD SVG 1.1//EN" "http://www.w3.org/Graphics/SVG/1.1/DTD/svg11.dtd">
<!-- Uploaded to: SVG Find, www.svgrepo.com, Transformed by: SVG Find Mixer Tools -->
<svg fill="#0a4773" width="800px" height="800px" version="1.1" viewBox="144 144 512 512" xmlns="http://www.w3.org/2000/svg">
<g id="SVGRepo_bgCarrier" stroke-width="0"/>
<g id="SVGRepo_tracerCarrier" stroke-linecap="round" stroke-linejoin="round"/>
<g id="SVGRepo_iconCarrier"> <g> <path d="m596.02 364.21-51.641-23.031c-0.070312-0.03125-0.14844-0.039062-0.22266-0.066406-0.20312-0.078125-0.40625-0.13281-0.61328-0.1875-0.19922-0.050781-0.39844-0.097656-0.60156-0.12109-0.20312-0.023437-0.39844-0.027343-0.60547-0.027343-0.21094 0-0.41797 0-0.62891 0.027343-0.19531 0.023438-0.38672 0.070313-0.58203 0.11719-0.21094 0.050781-0.41797 0.10938-0.62109 0.1875-0.074219 0.027343-0.15234 0.035156-0.22266 0.066406l-49.594 22.121-49.586-22.105c-0.078125-0.035156-0.16016-0.042969-0.23828-0.070312-0.19141-0.074219-0.38281-0.125-0.57812-0.17188-0.21094-0.054687-0.41406-0.10156-0.62891-0.12891-0.19141-0.023437-0.38281-0.023437-0.57812-0.027344-0.22266 0-0.44141 0-0.66016 0.03125-0.19141 0.023438-0.375 0.070313-0.5625 0.11328-0.21094 0.050781-0.42187 0.10547-0.625 0.1875-0.074218 0.027344-0.15625 0.035156-0.23047 0.070312l-51.641 23.023c-1.8203 0.80859-2.9922 2.6094-2.9922 4.5977v32.293l-25.828-16.301c-1.168-0.73828-2.5781-0.96484-3.918-0.625-1.3398 0.33594-2.4766 1.207-3.1562 2.4062-6.5703 11.629-18.906 18.852-32.188 18.852s-25.617-7.2266-32.191-18.852c-0.67969-1.1992-1.8203-2.0703-3.1562-2.4062-1.3359-0.34375-2.7539-0.11328-3.918 0.625l-28.812 18.184c-22.863 14.414-36.512 39.191-36.512 66.281l-0.003906 127.21c0 2.7812 2.2539 5.0391 5.0391 5.0391h199.11c2.7812 0 5.0391-2.2539 5.0391-5.0391v-99.309l17.184-7.6758 49.586 22.109c0.09375 0.042969 0.19531 0.027344 0.28906 0.0625 0.50391 0.1875 1.0195 0.30859 1.5508 0.33203 0.070313 0 0.14062 0.042969 0.21094 0.042969 0.64844 0 1.2773-0.16797 1.8828-0.41797 0.054688-0.023437 0.11328-0.011718 0.16797-0.035156l49.59-22.113 49.59 22.117c0.65625 0.29297 1.3555 0.4375 2.0508 0.4375 0.96094 0 1.9141-0.27344 2.7422-0.8125 1.4336-0.92969 2.2969-2.5195 2.2969-4.2266v-138.19c0-1.9883-1.1719-3.793-2.9883-4.6016zm-339.2 227.24h-34.059v-45.344h34.059zm154.97 0h-34.055v-45.344h34.055zm0-97.535v42.117h-34.055v-50.383c0-2.7812-2.2539-5.0391-5.0391-5.0391-2.7812 0-5.0391 2.2539-5.0391 5.0391v105.8h-100.76v-105.8c0-2.7812-2.2539-5.0391-5.0391-5.0391-2.7812 0-5.0391 2.2539-5.0391 5.0391v50.383h-34.059l0.003906-66.754c0-23.609 11.891-45.203 31.809-57.758l24.594-15.523c8.7969 12.16 22.965 19.523 38.109 19.523s29.312-7.3672 38.109-19.523l24.609 15.531c1.4766 0.92578 2.9609 1.9375 4.4023 3.0469 17.152 12.746 27.391 33.195 27.391 54.699zm22.219-13.195-12.145 5.4258 0.003906-16.867c0-3.0312-0.1875-6.043-0.53516-9.0273-0.11719-1.0078-0.35938-1.9922-0.51562-2.9922-0.30469-1.957-0.58984-3.918-1.0391-5.8359-0.28125-1.1992-0.69141-2.3555-1.0273-3.5391-0.47656-1.6758-0.91797-3.3594-1.5-4.9922-0.45312-1.2695-1.0273-2.4805-1.543-3.7227-0.62109-1.4922-1.2031-2.9961-1.9141-4.4414-0.625-1.2695-1.3555-2.4766-2.0469-3.7148-0.75-1.3438-1.4688-2.7031-2.2969-4-0.78516-1.2305-1.668-2.3867-2.5234-3.5703-0.875-1.2188-1.7266-2.4492-2.6719-3.6172-0.92578-1.1445-1.9414-2.2109-2.9375-3.3008-1.0117-1.1094-2.0039-2.2305-3.0781-3.2852-1.0352-1.0117-2.1406-1.9414-3.2344-2.8984-0.86328-0.75391-1.6602-1.5703-2.5586-2.2891v-35.965l41.562-18.531zm51.641 18.531-41.562-18.531v-127.16l41.562 18.531zm51.641-18.551-41.562 18.535v-127.15l41.562-18.539zm51.641 18.535-41.562-18.535v-127.16l41.562 18.539z"/> <path d="m242.01 284.12c0.32031 3.832 0.82422 7.6797 1.7305 11.594 3.7227 16.426 9.3047 32.508 16.68 47.988 5.3359 11.312 13.473 20.832 23.543 27.543 10.098 6.6758 21.617 10.207 33.309 10.207 11.656 0 23.168-3.5078 33.324-10.168 9.957-6.6367 18.09-16.133 23.516-27.461 6.6484-13.918 11.883-28.531 15.559-43.438v-0.003907c0-0.007812 0.003906-0.011718 0.007813-0.015624 0.41406-1.668 0.83203-3.3359 1.1211-4.7344 0.089844-0.23437 0.16016-0.47266 0.21484-0.71484 0.83203-3.8008 1.3008-7.3398 1.6133-10.797h32.559c9.7227 0 17.633-7.9102 17.633-17.633 0.003907-9.7227-7.9102-17.633-17.633-17.633h-37.871c-11.969-30.266-39.668-50.383-70.043-50.383-30.445 0-58.148 20.117-70.055 50.383h-28.59c-4.7266 0-9.1562 1.832-12.48 5.1562-3.3242 3.3242-5.1562 7.7578-5.1562 12.477 0 9.7227 7.9102 17.633 17.633 17.633zm10.012 0h60.047c-23.551 13.391-52.32 6.3438-59.496 4.2461-0.22266-1.4102-0.41406-2.8281-0.55078-4.2461zm113 55.359c-4.6406 9.6914-11.562 17.793-19.984 23.406-16.98 11.133-38.668 11.105-55.504-0.027344-8.5273-5.6875-15.445-13.797-20.109-23.668-6.043-12.691-10.781-25.98-14.312-39.711 5.7695 1.3516 14.32 2.8359 24.086 2.8359 15.645 0 34.348-3.918 49.641-18.191h9.9531c0.03125 0.14453 0.10156 0.28125 0.13281 0.42188 0.21484 0.90625 0.50391 1.8008 0.85547 2.6836 0.10938 0.27344 0.21094 0.54297 0.33203 0.8125 0.46094 1.0273 0.98828 2.0352 1.6328 3.0156 0.078125 0.11719 0.17188 0.22656 0.25391 0.34375 0.59766 0.875 1.2773 1.7227 2.0156 2.5508 0.21875 0.24609 0.44141 0.49219 0.67578 0.73438 0.875 0.91406 1.8086 1.8047 2.8594 2.6445 1.5781 1.2656 3.3242 2.3555 5.1367 3.3516 0.29297 0.16016 0.57031 0.33203 0.86719 0.48438 1.7422 0.89453 3.5703 1.6562 5.4609 2.3008 0.40625 0.14062 0.8125 0.26953 1.2266 0.39453 1.9102 0.58984 3.8633 1.0703 5.8555 1.4023 0.34375 0.058594 0.6875 0.085937 1.0312 0.13672 2.0117 0.28516 4.0469 0.46094 6.0859 0.47656 0.10547 0 0.21094 0.023438 0.32031 0.023438 0.035156 0 0.070313-0.007813 0.10547-0.007813 1.4023-0.003906 2.8008-0.066406 4.1914-0.19922-3.3125 11.57-7.6055 22.902-12.809 33.785zm16.211-47.023c-0.097656 0.25391-0.17188 0.51562-0.22656 0.77734-0.125 0.60938-0.25781 1.1992-0.39453 1.7852-0.30078 0.066407-0.60547 0.16016-0.90625 0.21875-0.625 0.11719-1.25 0.21094-1.875 0.28906-0.73828 0.097656-1.4766 0.17578-2.2109 0.21875-0.64453 0.039062-1.2891 0.0625-1.9258 0.0625-0.69922 0-1.3906-0.019532-2.0781-0.058594-0.64063-0.039062-1.2812-0.082031-1.9102-0.15234-0.66797-0.078125-1.3203-0.17969-1.9727-0.29297-0.60938-0.10547-1.2188-0.20703-1.8086-0.33984-0.64844-0.14844-1.2734-0.32422-1.8984-0.50391-0.54688-0.15625-1.1016-0.30469-1.6289-0.48438-0.64453-0.21875-1.25-0.47266-1.8594-0.71875-0.45703-0.1875-0.92969-0.35937-1.3672-0.5625-0.66016-0.30859-1.2695-0.64453-1.875-0.98437-0.32812-0.18359-0.6875-0.35156-0.99609-0.53906-0.89062-0.54297-1.7148-1.1094-2.4531-1.6992-0.30469-0.24219-0.64062-0.53516-0.98438-0.85156-0.11719-0.10547-0.23828-0.23047-0.35547-0.34375-0.24609-0.23438-0.48828-0.48438-0.73828-0.75-0.13672-0.14453-0.26953-0.29688-0.40234-0.44922-0.25391-0.29297-0.49609-0.60938-0.73828-0.93359-0.10547-0.14453-0.21875-0.28125-0.32031-0.43359-0.32812-0.48047-0.62891-0.98828-0.89062-1.5273-0.007813-0.023438-0.011719-0.042969-0.023438-0.0625h33.199c-0.27734 2.7109-0.73438 5.4961-1.3594 8.3359zm-63.961-83.906c25 0 48.004 15.93 59.16 40.305h-118.33c11.102-24.375 34.109-40.305 59.172-40.305zm-106.2 57.938c0-2.0039 0.80469-3.957 2.2031-5.3555 1.418-1.418 3.3203-2.1992 5.3555-2.1992h206.56c4.168 0 7.5586 3.3906 7.5586 7.5586 0 4.1641-3.3906 7.5547-7.5586 7.5547h-206.56c-4.168 0-7.5586-3.3906-7.5586-7.5586z"/> </g> </g>
</svg>