<!DOCTYPE svg PUBLIC "-//W3C//DTD SVG 1.1//EN" "http://www.w3.org/Graphics/SVG/1.1/DTD/svg11.dtd">
<!-- Uploaded to: SVG Find, www.svgrepo.com, Transformed by: SVG Find Mixer Tools -->
<svg width="800px" height="800px" version="1.1" viewBox="144 144 512 512" xmlns="http://www.w3.org/2000/svg" fill="#0a4773">
<g id="SVGRepo_bgCarrier" stroke-width="0"/>
<g id="SVGRepo_tracerCarrier" stroke-linecap="round" stroke-linejoin="round"/>
<g id="SVGRepo_iconCarrier"> <defs> <clipPath id="a"> <path d="m148.09 148.09h503.81v503.81h-503.81z"/> </clipPath> </defs> <g clip-path="url(#a)"> <path d="m618.32 148.09h-436.64c-8.9062 0-17.449 3.5391-23.75 9.8359-6.2969 6.3008-9.8359 14.844-9.8359 23.75v436.64c0 8.9062 3.5391 17.449 9.8359 23.75 6.3008 6.2969 14.844 9.8359 23.75 9.8359h436.64c8.9062 0 17.449-3.5391 23.75-9.8359 6.2969-6.3008 9.8359-14.844 9.8359-23.75v-436.64c0-8.9062-3.5391-17.449-9.8359-23.75-6.3008-6.2969-14.844-9.8359-23.75-9.8359zm-436.64 16.793h436.64c4.4531 0 8.7266 1.7695 11.875 4.918 3.1484 3.1523 4.918 7.4219 4.918 11.875v33.59h-470.22v-33.59c0-4.4531 1.7695-8.7227 4.918-11.875 3.1523-3.1484 7.4219-4.918 11.875-4.918zm41.984 470.22v-255.33l174.21-113.48c0.51172-0.29688 1.0859-0.46875 1.6797-0.50391 0.23437-0.046875 0.47266-0.070313 0.71094-0.066407 0.67188 0.023438 1.3242 0.22266 1.8906 0.57813l174.18 113.47v255.33zm394.65 0h-25.191v-244.42l12.207 7.9531 0.003907-0.003906c3.8828 2.5352 9.0859 1.4375 11.621-2.4492 2.5312-3.8867 1.4336-9.0898-2.4531-11.621l-203.22-132.35c-3.3633-2.1836-7.2852-3.3438-11.289-3.3438-4.0078 0-7.9297 1.1602-11.293 3.3438l-203.21 132.35c-3.8867 2.5312-4.9844 7.7344-2.4492 11.621 2.5312 3.8867 7.7344 4.9844 11.621 2.4492l12.207-7.9492v244.42h-25.191c-4.4531 0-8.7227-1.7695-11.875-4.918-3.1484-3.1484-4.918-7.4219-4.918-11.875v-386.25h470.22v386.25c0 4.4531-1.7695 8.7266-4.918 11.875-3.1484 3.1484-7.4219 4.918-11.875 4.918z"/> </g> <path d="m538.91 432.14-105.33-30.078v-60.84c0-12-6.4023-23.09-16.793-29.09-10.395-6-23.195-6-33.59 0-10.391 6-16.793 17.09-16.793 29.09v60.844l-105.45 30.117c-3.4688 1.043-6.5156 3.168-8.6914 6.0664-2.1758 2.8945-3.3711 6.4102-3.4102 10.031v10.496c0 4.4531 1.7695 8.7227 4.918 11.875 3.1484 3.1484 7.4219 4.918 11.875 4.918h100.76v62.328l-49.543 28.551h0.003906c-2.7969 1.4023-5.1445 3.5586-6.7734 6.2227-1.6328 2.668-2.4883 5.7383-2.4648 8.8672v11.586c-0.019531 4.7461 1.9648 9.2812 5.4727 12.48 3.5039 3.1992 8.1992 4.7656 12.926 4.3125l51.539-5.2812c2.832 5.5352 7.6094 9.8281 13.414 12.055 5.8047 2.2227 12.227 2.2227 18.031 0 5.8047-2.2266 10.582-6.5195 13.41-12.055l51.684 5.2891c4.7031 0.41406 9.3594-1.1758 12.832-4.3711 3.4766-3.1992 5.4414-7.707 5.4219-12.43v-11.586c0.039063-3.0469-0.76172-6.0391-2.3203-8.6562-1.5547-2.6172-3.8047-4.7539-6.4961-6.1719l-49.961-28.82v-62.32h100.76c4.4531 0 8.7266-1.7695 11.875-4.918 3.1484-3.1523 4.918-7.4219 4.918-11.875v-10.496c-0.046875-3.6445-1.2578-7.1758-3.457-10.082-2.1992-2.9023-5.2734-5.0273-8.7695-6.0586zm-4.5664 26.637h-109.16c-4.6367 0-8.3945 3.7578-8.3945 8.3945v75.574c0 3 1.6016 5.7695 4.1992 7.2695l54.578 31.523 0.10156 11.629-58.191-5.9609c-4.457-0.40234-8.4609 2.7227-9.1602 7.1445-0.5625 4.1641-4.1172 7.2734-8.3203 7.2734s-7.7617-3.1094-8.3242-7.2734c-0.59766-4.1211-4.1289-7.1797-8.293-7.1875-0.29297 0-0.57812 0-0.83984 0.042969l-58.117 5.918 0.41797-11.875 54.16-31.234h0.003906c2.5977-1.5 4.1953-4.2695 4.1953-7.2695v-75.574c0-2.2266-0.88281-4.3633-2.457-5.9375-1.5742-1.5742-3.7109-2.457-5.9375-2.457h-109.16l0.042968-10.48 111.42-31.824c3.6094-1.0273 6.0977-4.3242 6.0938-8.0781v-67.172c0-6 3.2031-11.547 8.3984-14.547 5.1953-3 11.598-3 16.793 0 5.1953 3 8.3984 8.5469 8.3984 14.547v67.176-0.003907c0 3.7539 2.4883 7.0508 6.0938 8.0781l111.46 31.898z"/> <path d="m190.08 198.48h8.3984c4.6367 0 8.3945-3.7617 8.3945-8.3984s-3.7578-8.3984-8.3945-8.3984h-8.3984c-4.6367 0-8.3984 3.7617-8.3984 8.3984s3.7617 8.3984 8.3984 8.3984z"/> <path d="m232.06 198.48h8.3984-0.003907c4.6406 0 8.3984-3.7617 8.3984-8.3984s-3.7578-8.3984-8.3984-8.3984h-8.3945c-4.6367 0-8.3984 3.7617-8.3984 8.3984s3.7617 8.3984 8.3984 8.3984z"/> <path d="m274.05 198.48h8.3984-0.003906c4.6406 0 8.3984-3.7617 8.3984-8.3984s-3.7578-8.3984-8.3984-8.3984h-8.3945c-4.6367 0-8.3984 3.7617-8.3984 8.3984s3.7617 8.3984 8.3984 8.3984z"/> <path d="m542.75 198.48h67.176-0.003906c4.6367 0 8.3984-3.7617 8.3984-8.3984s-3.7617-8.3984-8.3984-8.3984h-67.172c-4.6406 0-8.3984 3.7617-8.3984 8.3984s3.7578 8.3984 8.3984 8.3984z"/> </g>
</svg>