<svg xmlns="http://www.w3.org/2000/svg" xmlns:xlink="http://www.w3.org/1999/xlink" width="500" zoomAndPan="magnify" viewBox="0 0 375 374.999991" height="500" preserveAspectRatio="xMidYMid meet" version="1.0"><defs><clipPath id="f7599944b5"><path d="M 261 44.894531 L 295 44.894531 L 295 161 L 261 161 Z M 261 44.894531 " clip-rule="nonzero"/></clipPath><clipPath id="1101e4da8f"><path d="M 71.59375 81 L 337.84375 81 L 337.84375 276 L 71.59375 276 Z M 71.59375 81 " clip-rule="nonzero"/></clipPath><clipPath id="74acbe0f25"><path d="M 149 306 L 260 306 L 260 337.394531 L 149 337.394531 Z M 149 306 " clip-rule="nonzero"/></clipPath><clipPath id="5563c7e017"><path d="M 71.59375 240 L 337.84375 240 L 337.84375 250 L 71.59375 250 Z M 71.59375 240 " clip-rule="nonzero"/></clipPath></defs><path fill="#3b5998" d="M 279.742188 229.917969 C 278.875 229.917969 278.007812 229.671875 277.257812 229.183594 C 270.835938 225.027344 266.230469 216.222656 264.058594 211.347656 C 260.644531 203.683594 258.609375 195.515625 258.609375 189.496094 C 258.609375 180.453125 261.210938 175.722656 265.175781 169.539062 C 266.019531 168.226562 267.46875 167.433594 269.027344 167.433594 L 286.289062 167.433594 C 287.738281 167.433594 289.101562 168.121094 289.964844 169.289062 C 293.535156 174.125 295.765625 178.984375 296.597656 183.738281 C 297.050781 186.335938 297.0625 188.789062 296.636719 191.035156 C 296.179688 196.496094 293.328125 200.773438 290.804688 204.558594 C 290.191406 205.480469 289.609375 206.351562 289.058594 207.238281 C 285.300781 213.292969 285.03125 217.027344 284.722656 221.355469 C 284.617188 222.828125 284.507812 224.347656 284.265625 226.003906 C 284.039062 227.542969 283.046875 228.867188 281.628906 229.507812 C 281.027344 229.78125 280.382812 229.917969 279.742188 229.917969 Z M 271.546875 176.578125 C 269.050781 180.652344 267.753906 183.71875 267.753906 189.496094 C 267.753906 194.226562 269.539062 201.171875 272.414062 207.625 C 273.601562 210.300781 274.910156 212.742188 276.257812 214.835938 C 276.894531 211.363281 278.214844 207.367188 281.292969 202.410156 C 281.917969 201.402344 282.570312 200.425781 283.195312 199.484375 C 285.410156 196.167969 287.320312 193.300781 287.535156 190.128906 C 287.554688 189.808594 287.605469 189.570312 287.640625 189.390625 C 287.90625 188.058594 288.347656 183.433594 283.898438 176.578125 Z M 296.660156 190.746094 C 296.660156 190.746094 296.660156 190.746094 296.65625 190.75 C 296.660156 190.75 296.660156 190.746094 296.660156 190.746094 Z M 296.660156 190.746094 " fill-opacity="1" fill-rule="evenodd"/><path fill="#3b5998" d="M 286.292969 176.578125 C 285.984375 176.578125 285.667969 176.546875 285.355469 176.484375 C 282.882812 175.964844 281.296875 173.542969 281.8125 171.074219 L 283.960938 160.78125 L 271.355469 160.78125 L 273.503906 171.074219 C 274.019531 173.542969 272.429688 175.964844 269.960938 176.480469 C 267.488281 177 265.066406 175.414062 264.550781 172.941406 L 261.253906 157.140625 C 260.972656 155.796875 261.3125 154.390625 262.183594 153.324219 C 263.050781 152.257812 264.351562 151.636719 265.730469 151.636719 L 289.582031 151.636719 C 290.960938 151.636719 292.261719 152.257812 293.132812 153.324219 C 294 154.394531 294.339844 155.796875 294.058594 157.144531 L 290.761719 172.941406 C 290.3125 175.097656 288.410156 176.578125 286.292969 176.578125 Z M 286.292969 176.578125 " fill-opacity="1" fill-rule="evenodd"/><g clip-path="url(#f7599944b5)"><path fill="#3b5998" d="M 289.582031 160.78125 C 287.125 160.78125 285.097656 158.835938 285.015625 156.363281 L 281.71875 58.265625 C 281.714844 58.214844 281.714844 58.164062 281.714844 58.113281 C 281.714844 55.875 279.894531 54.054688 277.65625 54.054688 C 275.417969 54.054688 273.597656 55.875 273.597656 58.113281 C 273.597656 58.164062 273.597656 58.214844 273.597656 58.265625 L 270.300781 156.363281 C 270.214844 158.886719 268.09375 160.863281 265.578125 160.777344 C 263.054688 160.691406 261.078125 158.578125 261.160156 156.054688 L 264.453125 58.027344 C 264.5 50.785156 270.40625 44.910156 277.65625 44.910156 C 284.910156 44.910156 290.816406 50.785156 290.859375 58.027344 L 294.15625 156.054688 C 294.238281 158.578125 292.261719 160.695312 289.738281 160.777344 C 289.683594 160.78125 289.632812 160.78125 289.582031 160.78125 Z M 289.582031 160.78125 " fill-opacity="1" fill-rule="evenodd"/></g><g clip-path="url(#1101e4da8f)"><path fill="#3b5998" d="M 323.789062 275.402344 L 85.3125 275.402344 C 77.769531 275.402344 71.632812 269.265625 71.632812 261.722656 L 71.632812 95.667969 C 71.632812 88.128906 77.769531 81.992188 85.3125 81.992188 L 268.070312 81.992188 C 270.59375 81.992188 272.640625 84.042969 272.640625 86.566406 C 272.640625 89.089844 270.59375 91.136719 268.070312 91.136719 L 85.3125 91.136719 C 82.8125 91.136719 80.777344 93.171875 80.777344 95.667969 L 80.777344 261.722656 C 80.777344 264.222656 82.8125 266.257812 85.3125 266.257812 L 323.789062 266.257812 C 326.289062 266.257812 328.324219 264.222656 328.324219 261.722656 L 328.324219 95.667969 C 328.324219 93.171875 326.289062 91.136719 323.789062 91.136719 L 287.242188 91.136719 C 284.71875 91.136719 282.671875 89.089844 282.671875 86.566406 C 282.671875 84.042969 284.71875 81.992188 287.242188 81.992188 L 323.789062 81.992188 C 331.332031 81.992188 337.46875 88.128906 337.46875 95.667969 L 337.46875 261.722656 C 337.46875 269.265625 331.332031 275.402344 323.789062 275.402344 Z M 323.789062 275.402344 " fill-opacity="1" fill-rule="evenodd"/></g><path fill="#3b5998" d="M 179.621094 315.925781 C 179.222656 315.925781 178.820312 315.871094 178.417969 315.761719 C 175.980469 315.097656 174.542969 312.585938 175.210938 310.148438 L 186.261719 269.625 C 186.929688 267.1875 189.441406 265.753906 191.878906 266.417969 C 194.3125 267.082031 195.75 269.59375 195.085938 272.03125 L 184.03125 312.554688 C 183.476562 314.589844 181.632812 315.925781 179.621094 315.925781 Z M 179.621094 315.925781 " fill-opacity="1" fill-rule="evenodd"/><path fill="#3b5998" d="M 229.480469 315.925781 C 227.46875 315.925781 225.625 314.589844 225.070312 312.554688 L 214.054688 272.160156 C 213.925781 271.738281 213.855469 271.292969 213.855469 270.828125 C 213.855469 268.300781 215.902344 266.253906 218.429688 266.253906 C 220.488281 266.253906 222.300781 267.632812 222.839844 269.625 L 233.894531 310.148438 C 234.558594 312.582031 233.121094 315.097656 230.6875 315.761719 C 230.285156 315.871094 229.878906 315.925781 229.480469 315.925781 Z M 229.480469 315.925781 " fill-opacity="1" fill-rule="evenodd"/><g clip-path="url(#74acbe0f25)"><path fill="#3b5998" d="M 255.175781 337.546875 L 153.929688 337.546875 C 151.40625 337.546875 149.359375 335.5 149.359375 332.972656 L 149.359375 321.691406 C 149.359375 313.46875 156.046875 306.777344 164.269531 306.777344 L 244.832031 306.777344 C 253.054688 306.777344 259.746094 313.46875 259.746094 321.691406 L 259.746094 332.972656 C 259.746094 335.5 257.699219 337.546875 255.175781 337.546875 Z M 158.503906 328.402344 L 250.601562 328.402344 L 250.601562 321.691406 C 250.601562 318.511719 248.015625 315.921875 244.832031 315.921875 L 164.269531 315.921875 C 161.089844 315.921875 158.503906 318.511719 158.503906 321.691406 Z M 158.503906 328.402344 " fill-opacity="1" fill-rule="evenodd"/></g><g clip-path="url(#5563c7e017)"><path fill="#3b5998" d="M 332.894531 249.804688 L 76.207031 249.804688 C 73.683594 249.804688 71.632812 247.757812 71.632812 245.234375 C 71.632812 242.707031 73.683594 240.660156 76.207031 240.660156 L 332.894531 240.660156 C 335.421875 240.660156 337.46875 242.707031 337.46875 245.234375 C 337.46875 247.757812 335.421875 249.804688 332.894531 249.804688 Z M 332.894531 249.804688 " fill-opacity="1" fill-rule="evenodd"/></g><path fill="#3b5998" d="M 311.253906 249.804688 C 308.730469 249.804688 306.683594 247.757812 306.683594 245.234375 L 306.683594 111.570312 L 287.929688 111.570312 C 285.40625 111.570312 283.359375 109.523438 283.359375 107 C 283.359375 104.472656 285.40625 102.425781 287.929688 102.425781 L 311.253906 102.425781 C 313.78125 102.425781 315.828125 104.472656 315.828125 107 L 315.828125 245.234375 C 315.828125 247.757812 313.777344 249.804688 311.253906 249.804688 Z M 311.253906 249.804688 " fill-opacity="1" fill-rule="evenodd"/><path fill="#3b5998" d="M 97.851562 249.804688 C 95.324219 249.804688 93.277344 247.757812 93.277344 245.234375 L 93.277344 107 C 93.277344 104.472656 95.324219 102.425781 97.851562 102.425781 L 267.382812 102.425781 C 269.90625 102.425781 271.953125 104.472656 271.953125 107 C 271.953125 109.523438 269.90625 111.570312 267.382812 111.570312 L 102.421875 111.570312 L 102.421875 245.234375 C 102.421875 247.757812 100.375 249.804688 97.851562 249.804688 Z M 97.851562 249.804688 " fill-opacity="1" fill-rule="evenodd"/><path fill="#3b5998" d="M 243.332031 152.925781 L 118.167969 152.925781 C 115.640625 152.925781 113.59375 150.878906 113.59375 148.351562 L 113.59375 126.886719 C 113.59375 124.363281 115.640625 122.316406 118.167969 122.316406 L 243.332031 122.316406 C 245.859375 122.316406 247.90625 124.363281 247.90625 126.886719 L 247.90625 148.351562 C 247.90625 150.878906 245.859375 152.925781 243.332031 152.925781 Z M 122.738281 143.78125 L 238.761719 143.78125 L 238.761719 131.460938 L 122.738281 131.460938 Z M 122.738281 143.78125 " fill-opacity="1" fill-rule="evenodd"/><path fill="#3b5998" d="M 243.332031 229.917969 L 197.414062 229.917969 C 194.890625 229.917969 192.84375 227.871094 192.84375 225.34375 L 192.84375 165.550781 C 192.84375 163.027344 194.890625 160.980469 197.414062 160.980469 L 243.332031 160.980469 C 245.859375 160.980469 247.90625 163.027344 247.90625 165.550781 L 247.90625 225.34375 C 247.90625 227.871094 245.859375 229.917969 243.332031 229.917969 Z M 201.988281 220.773438 L 238.761719 220.773438 L 238.761719 170.125 L 201.988281 170.125 Z M 201.988281 220.773438 " fill-opacity="1" fill-rule="evenodd"/><path fill="#3b5998" d="M 175.117188 187.667969 L 118.167969 187.667969 C 115.640625 187.667969 113.59375 185.621094 113.59375 183.097656 L 113.59375 165.554688 C 113.59375 163.027344 115.640625 160.980469 118.167969 160.980469 L 175.117188 160.980469 C 177.640625 160.980469 179.6875 163.027344 179.6875 165.554688 L 179.6875 183.097656 C 179.6875 185.621094 177.640625 187.667969 175.117188 187.667969 Z M 122.738281 178.523438 L 170.542969 178.523438 L 170.542969 170.125 L 122.738281 170.125 Z M 122.738281 178.523438 " fill-opacity="1" fill-rule="evenodd"/><path fill="#3b5998" d="M 175.117188 229.917969 L 118.167969 229.917969 C 115.640625 229.917969 113.59375 227.871094 113.59375 225.34375 L 113.59375 199.96875 C 113.59375 197.441406 115.640625 195.394531 118.167969 195.394531 L 175.117188 195.394531 C 177.640625 195.394531 179.6875 197.441406 179.6875 199.96875 L 179.6875 225.347656 C 179.6875 227.871094 177.640625 229.917969 175.117188 229.917969 Z M 122.738281 220.773438 L 170.542969 220.773438 L 170.542969 204.539062 L 122.738281 204.539062 Z M 122.738281 220.773438 " fill-opacity="1" fill-rule="evenodd"/></svg>