<!DOCTYPE svg PUBLIC "-//W3C//DTD SVG 1.1//EN" "http://www.w3.org/Graphics/SVG/1.1/DTD/svg11.dtd">
<!-- Uploaded to: SVG Find, www.svgrepo.com, Transformed by: SVG Find Mixer Tools -->
<svg fill="#00406d" width="250px" height="250px" version="1.1" viewBox="144 144 512 512" xmlns="http://www.w3.org/2000/svg" stroke="#00406d" stroke-width="5.12">
<g id="SVGRepo_bgCarrier" stroke-width="0"/>
<g id="SVGRepo_tracerCarrier" stroke-linecap="round" stroke-linejoin="round"/>
<g id="SVGRepo_iconCarrier"> <g> <path d="m161.16 634.21h3.5781c1.0312 0 1.8672-0.83594 1.8672-1.8672s-0.83594-1.8672-1.8672-1.8672h-3.5781c-1.0312 0-1.8672 0.83594-1.8672 1.8672s0.83594 1.8672 1.8672 1.8672z"/> <path d="m220.09 632.35c0-1.0312-0.83594-1.8672-1.8672-1.8672h-34.832c-1.0312 0-1.8672 0.83594-1.8672 1.8672s0.83594 1.8672 1.8672 1.8672h34.832c1.0312 0 1.8672-0.83594 1.8672-1.8672z"/> <path d="m614.12 634.21c1.0312 0 1.8672-0.83594 1.8672-1.8672s-0.83594-1.8672-1.8672-1.8672h-29.621c-1.0312 0-1.8672 0.83594-1.8672 1.8672s0.83594 1.8672 1.8672 1.8672z"/> <path d="m630.91 632.35c0 1.0312 0.83594 1.8672 1.8672 1.8672h6.0625c1.0312 0 1.8672-0.83594 1.8672-1.8672s-0.83594-1.8672-1.8672-1.8672h-6.0625c-1.0312 0-1.8672 0.83594-1.8672 1.8672z"/> <path d="m380.93 234.62h38.148c1.0312 0 1.8672-0.83594 1.8672-1.8672s-0.83594-1.8672-1.8672-1.8672h-38.148c-1.0312 0-1.8672 0.83594-1.8672 1.8672s0.83594 1.8672 1.8672 1.8672z"/> <path d="m427.31 234.62h3.2109c1.0312 0 1.8672-0.83594 1.8672-1.8672s-0.83594-1.8672-1.8672-1.8672h-3.2109c-1.0312 0-1.8672 0.83594-1.8672 1.8672s0.83594 1.8672 1.8672 1.8672z"/> <path d="m324.5 472.25h150.99c1.0312 0 1.8672-0.83594 1.8672-1.8672 0-34.465-22.566-64.398-55.27-74.098 3.3438-2.2891 6.2969-5.0938 8.7891-8.2773 0.007813-0.003906 0.015625-0.007812 0.019532-0.011718 10.691-8.9648 16.977-22.109 17.238-36.066l0.5625-30.078c0.31641-17.258-11.145-32.039-27.324-36.328 0.003906-0.46875 0.003906-0.84766 0.003906-1.0273 0-11.812-9.5938-21.422-21.383-21.422-11.848 0-21.934 9.8242-21.344 22.43-16.223 4.2734-27.711 19.07-27.395 36.348l0.59766 30.07c0.1875 12.695 5.2891 24.598 14.355 33.5 0.89062 0.89062 1.8242 1.707 2.793 2.4805 2.5078 3.2266 5.4844 6.0664 8.8633 8.3789-32.68 9.6953-55.234 39.633-55.234 74.102 0.003907 1.0312 0.83594 1.8672 1.8672 1.8672zm59.117-72.742c10.461 4.8203 22.25 4.832 32.727 0v3.3242c0 9.0352-7.332 16.383-16.344 16.383-4.3633 0-8.4805-1.7148-11.594-4.8281-3.043-3.043-4.7891-7.2578-4.7891-11.555zm16.383-132.7c9.7344 0 17.652 7.9375 17.652 17.688v0.24219c-0.44141-0.070313-0.875-0.16797-1.3242-0.22266-1.6055-0.21094-3.1016-0.3125-4.5703-0.3125h-23.551c-1.4492 0-2.9883 0.10547-4.5547 0.30859-0.42578 0.050782-0.83594 0.14844-1.2539 0.21094-0.13672-10.316 8.1523-17.914 17.602-17.914zm-44.41 85.051-0.59766-30.078c-0.31641-17.09 12.199-31.52 29.129-33.57 1.4219-0.1875 2.8008-0.28125 4.0859-0.28125h23.547c1.3047 0 2.6445 0.089844 4.1055 0.28516 16.91 2.0469 29.426 16.477 29.109 33.566l-0.5625 30.078c-0.15234 8.0781-2.4922 15.855-6.6484 22.578 0.94531-3.3711 1.4883-6.9062 1.4883-10.574v-30.004c0-0.66406-0.35156-1.2773-0.92578-1.6094-10.27-6.0117-13.258-18.742-13.289-18.871-0.16406-0.71875-0.73438-1.2734-1.4531-1.418-0.73047-0.12891-1.4609 0.14844-1.8867 0.74609-0.19141 0.26562-19.359 26.539-59.324 31.105-0.94141 0.10938-1.6562 0.90234-1.6562 1.8516v18.199c0 3.6445 0.53906 7.1602 1.4727 10.512-4.1484-6.7188-6.4766-14.426-6.5938-22.516zm8.8594 12.008v-16.547c33.156-4.3047 51.863-22.512 58.02-29.621 1.6523 4.5117 5.4414 12.336 13.047 17.211v28.961c0 19.594-15.941 35.535-35.535 35.535-19.59-0.007813-35.531-15.949-35.531-35.539zm15.434 35.711v3.2578c0 5.2812 2.1445 10.457 5.8828 14.195 3.8164 3.8164 8.8711 5.9219 14.23 5.9219 11.07 0 20.078-9.0234 20.078-20.117v-3.2578c31.043 8.7578 52.727 36.594 53.531 68.941h-147.21c0.80469-32.352 22.473-60.188 53.492-68.941z"/> <path d="m477.37 489.05c0-1.0312-0.83594-1.8672-1.8672-1.8672h-151c-1.0312 0-1.8672 0.83594-1.8672 1.8672s0.83594 1.8672 1.8672 1.8672h151c1.0312 0 1.8672-0.83594 1.8672-1.8672z"/> <path d="m380.93 359.63c-3.0273 0-5.5586-2.1055-6.2188-4.918-0.11328 0.47266-0.17578 0.97266-0.17578 1.4766 0 3.5273 2.8594 6.3945 6.3945 6.3945 3.5273 0 6.3945-2.8672 6.3945-6.3945 0-0.50781-0.0625-1.0039-0.17578-1.4766-0.66016 2.8125-3.1953 4.918-6.2188 4.918z"/> <path d="m419.04 362.59c3.5273 0 6.3945-2.8672 6.3945-6.3945 0-0.50781-0.0625-1.0039-0.17578-1.4766-0.66016 2.8125-3.1992 4.918-6.2188 4.918-3.0273 0-5.5586-2.1055-6.2188-4.918-0.11328 0.47266-0.17578 0.97266-0.17578 1.4766 0 3.5273 2.8594 6.3945 6.3945 6.3945z"/> <path d="m409.73 379.59c0-1.0312-0.83594-1.8672-1.8672-1.8672s-1.8672 0.83594-1.8672 1.8672c0 3.3164-2.6953 6.0117-6.0117 6.0117-3.3164 0-6.0117-2.6953-6.0117-6.0117 0-1.0312-0.83594-1.8672-1.8672-1.8672s-1.8672 0.83594-1.8672 1.8672c0 5.3711 4.3711 9.7422 9.7422 9.7422 5.3789 0 9.75-4.3711 9.75-9.7422z"/> <path d="m614.94 318.22c2.7617-4.0156 2.3711-9.5664-1.1992-13.137-4.0195-4.0195-10.559-4.0195-14.578 0-4.0273 4.0273-4.0312 10.574-0.011718 14.594 3.4648 3.4648 8.9766 4.0664 13.156 1.1836l4.4688 4.4688c0.73047 0.73047 1.9102 0.73047 2.6367 0 0.73047-0.73047 0.73047-1.9102 0-2.6367zm-13.156-1.1836c-2.5664-2.5664-2.5586-6.7422 0.011719-9.3164 2.5625-2.5586 6.7305-2.5664 9.3008 0 2.5703 2.5703 2.5781 6.7461 0.015625 9.3125h-0.003906s0 0.003906-0.003907 0.003906c-2.5664 2.5703-6.75 2.5703-9.3203 0z"/> <path d="m632.54 300.59c0-4.1328-3.3633-7.5-7.5-7.5h-104.24v-45.996c0-15.535-12.641-28.176-28.176-28.176l-159.64 0.003906-0.046875-3.0508c-0.050781-3.293-2.2969-6.2148-5.4727-7.1055l-7.2344-2.0078c-0.85156-2.5508-1.8477-4.9219-3.1211-7.2383l3.4688-6.5781c1.5898-2.9336 1.0352-6.4961-1.3828-8.8672l-5.707-5.5586c-2.3633-2.3164-6.0273-2.7891-8.9023-1.1484l-6.6133 3.7422-7.1445-2.8125-2.2383-7.25c-0.98438-3.1523-3.9961-5.2891-7.2539-5.2656l-7.9883 0.10938c-3.293 0.050781-6.2148 2.2969-7.1094 5.4805l-2.0352 7.1992c-2.5859 0.875-4.9492 1.9102-7.168 3.1406l-6.6016-3.5156c-2.9492-1.5508-6.6016-0.94922-8.8906 1.4375l-5.5156 5.7031c-2.3398 2.3906-2.8008 5.9805-1.1406 8.9492l3.7109 6.4648c-1.2617 2.4805-2.2305 4.8828-2.9414 7.2852l-7.1758 2.2383c-3.1758 1.0078-5.2734 3.9219-5.2188 7.2539l0.10938 7.9531c0.050781 3.2891 2.2969 6.2109 5.4688 7.1055l7.2188 2.0117c0.85156 2.4766 1.9258 4.9258 3.1406 7.1875l-3.4883 6.6094c-1.5273 2.9102-0.95313 6.5508 1.3984 8.8477l5.7188 5.5703c2.3867 2.2891 6.0508 2.7617 8.8867 1.1367l6.5391-3.6758c2.2422 1.1484 4.6758 2.1211 7.2617 2.8945l2.2383 7.1406c0.98828 3.1602 3.8516 5.2656 7.1406 5.2656h0.11328l4.1914-0.050781v223.28h-24.352c-6.7422 0-12.23 5.4883-12.23 12.23v59.281c0 6.7422 5.4883 12.23 12.23 12.23h24.348v23.488c0 10.465 5.7617 19.598 14.273 24.445l-56.586-0.003906c-1.0312 0-1.8672 0.83594-1.8672 1.8672s0.83594 1.8672 1.8672 1.8672h328.95c1.0312 0 1.8672-0.83594 1.8672-1.8672s-0.83594-1.8672-1.8672-1.8672h-59.305c8.5117-4.8477 14.273-13.977 14.273-24.445v-51.051l8.0664-0.11328c4.2148-0.09375 7.7969-2.8633 8.9219-6.8906l2.7891-10.027c3.4688-1.1133 6.8867-2.5859 10.18-4.3945l9.2109 4.8594c3.668 1.9492 8.2422 1.2227 11.137-1.7656l7.4727-7.7344c2.918-3.0625 3.4766-7.5547 1.3906-11.164l-5.1094-9.0273c1.3359-2.7227 2.4727-5.4336 3.3906-8.0898 0.23828-0.72266 0.46094-1.4609 0.67969-2.1953l9.9258-3.1055c3.9453-1.2031 6.668-4.9414 6.6211-9.0859l-0.14844-10.727c-0.09375-4.1484-2.9258-7.8164-6.8906-8.9219l-10.047-2.793c-1.1523-3.4883-2.3398-6.5039-4.3789-10.184l4.8203-9.1641c1.9492-3.6641 1.2227-8.2422-1.7617-11.133l-7.6445-7.457c-2.957-2.9102-7.5664-3.5078-11.227-1.4492l-9.1094 5.1914-10.203-4.043-3.0898-9.9961c-1.207-3.9922-4.8945-6.7891-9.1289-6.625l-5.8711 0.085937v-74.555h104.24c4.1328 0 7.5-3.3633 7.5-7.5zm-155.21 30.152c-2.0781 0-3.7656-1.6875-3.7656-3.7656v-26.387c0-2.0781 1.6875-3.7656 3.7656-3.7656h105.86v33.918h-105.86zm-182.45 251.8h19.262c6.7422 0 12.23-5.4883 12.23-12.23v-42.086h119.13c1.0312 0 1.8672-0.83594 1.8672-1.8672s-0.83594-1.8672-1.8672-1.8672h-119.13v-13.465c0-0.5-0.089843-0.97656-0.14844-1.4609h100.82c1.0312 0 1.8672-0.83594 1.8672-1.8672s-0.83594-1.8672-1.8672-1.8672l-101.87 0.003906c-1.9609-4.1445-6.1484-7.0391-11.031-7.0391h-19.262v-251.7c0-6.8945 5.6094-12.5 12.504-12.5h31.316c0.91797 7.1875 7.0586 12.762 14.473 12.762h103.89c7.418 0 13.559-5.5742 14.473-12.762h21.094c6.8945 0 12.5 5.6055 12.5 12.5v45.996h-27.801c-4.1328 0-7.5 3.3633-7.5 7.5v26.387c0 4.1328 3.3633 7.5 7.5 7.5h27.801v271.56c0 6.875-5.6055 12.465-12.5 12.465l-185.25-0.007812c-6.8945 0-12.504-5.5898-12.504-12.465zm-19.918-310.71c-1.7656 0.042969-3.1367-1.0391-3.6406-2.6484l-2.5352-8.0977c-0.19141-0.60547-0.67188-1.0703-1.2812-1.2422-3.0391-0.84375-5.8555-1.9688-8.3711-3.3438-0.5625-0.30859-1.25-0.30469-1.8125 0.011719l-7.4336 4.1836c-1.4297 0.81641-3.2617 0.57031-4.457-0.57422l-5.707-5.5547c-1.1797-1.1523-1.4648-2.9805-0.69922-4.4375l3.957-7.5c0.29688-0.5625 0.28516-1.2383-0.027344-1.793-1.4609-2.5664-2.7227-5.4531-3.6523-8.3438-0.19141-0.59766-0.67188-1.0586-1.2773-1.2266l-8.168-2.2773c-1.5898-0.44531-2.7188-1.9141-2.7461-3.5664l-0.10937-7.9531c-0.027344-1.6719 1.0273-3.1367 2.6094-3.6367l8.1367-2.5391c0.61328-0.19141 1.0859-0.68359 1.25-1.3047 0.73047-2.7539 1.8398-5.5039 3.3867-8.4062 0.30078-0.56641 0.29297-1.25-0.027344-1.8086l-4.207-7.3359c-0.83594-1.4961-0.60938-3.3047 0.57031-4.5078l5.5273-5.7148c1.1523-1.1992 2.9922-1.4961 4.457-0.72656l7.5039 3.9961c0.57031 0.30859 1.2695 0.29297 1.8242-0.039063 2.4961-1.4805 5.1992-2.668 8.2617-3.6406 0.59766-0.1875 1.0586-0.66406 1.2305-1.2656l2.3164-8.1836c0.44922-1.5898 1.9141-2.7188 3.5664-2.7461l7.9883-0.10938c1.5898-0.007813 3.1445 1.0625 3.6367 2.6367l2.5 8.1016c0.16406 0.54297 0.57031 0.98047 1.0977 1.1875l8.8086 3.4688c0.52344 0.20312 1.1133 0.16406 1.6016-0.11328l7.3945-4.1836c1.4375-0.82031 3.2734-0.58984 4.457 0.57031l5.707 5.5586c1.2148 1.1914 1.5 2.9648 0.70312 4.4375l-3.957 7.5039c-0.30078 0.57031-0.28516 1.2578 0.039062 1.8125 1.0703 1.8281 2.0039 3.8125 2.7695 5.8945 0.28516 0.78125 0.57031 1.5664 0.82031 2.418 0.17969 0.62109 0.66797 1.1055 1.293 1.2773l8.207 2.2773c1.5898 0.44531 2.7188 1.9141 2.7461 3.5664l0.046874 2.9922h-21.879c-3.1992 0-6.375 0.54688-9.3281 1.5859-0.44141-10.73-9.4766-19.336-20.18-19.09-11.055 0.16797-19.809 9.2734-19.605 20.211 0.058594 5.3125 2.1992 10.281 6.0234 13.996 3.7422 3.6289 8.6914 5.6914 14.219 5.6133 0.5-0.015625 0.95313-0.066406 1.418-0.10938-0.42578 1.9375-0.72266 3.918-0.72266 5.9688v24.691zm6.082-34.621c-5.2969 1-10.414-0.63672-14.152-4.2695-3.1055-3.0156-4.8438-7.0469-4.8945-11.375-0.16797-8.9766 7.0273-16.289 15.926-16.422 8.8164-0.16406 16.293 7.0078 16.43 15.898 0 0.39062-0.035156 0.75781-0.054688 1.1367-6.1172 3.2109-10.863 8.6016-13.254 15.031zm1.8906 9.8789c0-13.387 10.875-24.445 24.445-24.445h23.801 161.45c13.48 0 24.445 10.965 24.445 24.445v45.996h-8.2109v-45.996c0-8.9492-7.2812-16.23-16.23-16.23h-22.84c-1.0312 0-1.8672 0.83594-1.8672 1.8672 0 6.0078-4.8711 10.898-10.859 10.898l-103.9-0.003907c-5.9883 0-10.859-4.8906-10.859-10.898 0-1.0312-0.83594-1.8672-1.8672-1.8672h-33.062c-8.9492 0-16.234 7.2812-16.234 16.23v251.71h-8.2109zm-36.574 323.22v-59.281c0-4.6875 3.8125-8.5 8.5-8.5h59.281c4.6875 0 8.5 3.8125 8.5 8.5v59.281c0 4.6875-3.8125 8.5-8.5 8.5h-59.285c-4.6836 0-8.4961-3.8125-8.4961-8.5zm274.45-109.67c0.53906-0.039063 1.082-0.11719 1.6133-0.12109 12.168 0 22.18 9.793 22.383 21.969 0.17188 12.332-9.7227 22.535-22.074 22.738-0.58984 0.015625-1.2773-0.082031-1.9258-0.13281zm5.9375-47.965c2.5234-0.066406 4.7617 1.5781 5.4922 3.9844l3.3594 10.859c0.16406 0.53906 0.57031 0.97656 1.0938 1.1836l11.867 4.7031c0.52344 0.20703 1.1172 0.16406 1.6094-0.11328l9.8828-5.6328c2.207-1.25 4.9883-0.89062 6.7734 0.86719l7.6562 7.4688c1.7969 1.7422 2.2383 4.5 1.0625 6.7109l-5.3008 10.074c-0.30078 0.56641-0.28516 1.25 0.035156 1.8008 1.5039 2.6016 2.7617 5.2891 3.7461 7.9922 0.40234 1.0977 0.76562 2.1953 1.1328 3.3281 0.19141 0.59766 0.67187 1.0547 1.2773 1.2227l11.008 3.0586c2.3945 0.66797 4.1016 2.8906 4.1602 5.3945l0.14844 10.707c0.027343 2.4961-1.6055 4.7461-3.9922 5.4727l-10.859 3.3984c-0.28906 0.089843-0.58594 0.28516-0.80078 0.5-0.21875 0.21875-0.37891 0.48828-0.46875 0.78906-0.32422 1.0977-0.61719 2.1094-0.90625 2.9844-0.95312 2.7656-2.1758 5.625-3.6328 8.4961-0.28125 0.55859-0.26562 1.2188 0.042969 1.7617l5.6055 9.9023c1.2539 2.1758 0.91406 4.8867-0.84375 6.7266l-7.4609 7.7227c-1.7461 1.7969-4.5039 2.2383-6.7109 1.0625l-10.113-5.3359c-0.5625-0.29688-1.2422-0.28516-1.7969 0.03125-3.6367 2.0742-7.4336 3.7148-11.289 4.8672-0.61328 0.18359-1.0898 0.67188-1.2617 1.2891l-3.0586 11.008c-0.67969 2.4297-2.8516 4.1016-5.3945 4.1602l-7.9961 0.11328-0.003907-42.387c0.82031 0.054687 0.94531 0.14453 2.0078 0.11328 14.383-0.24219 25.918-12.141 25.723-26.527-0.23828-14.219-11.918-25.645-26.09-25.645-0.53906-0.003906-1.0898 0.085938-1.6367 0.12109l-0.003907-44.148zm-9.668 193.35c0 13.457-10.965 24.406-24.445 24.406h-185.25c-13.48 0-24.445-10.949-24.445-24.406v-23.488h8.2109v23.488c0 8.9297 7.2852 16.195 16.234 16.195h185.25c8.9492 0 16.23-7.2656 16.23-16.195l0.003906-271.56h8.2109v271.56zm111.73-279.06c0 2.0781-1.6875 3.7656-3.7656 3.7656h-38.121v-33.918h38.121c2.0781 0 3.7656 1.6875 3.7656 3.7656z"/> <path d="m255.68 521.55h57.621c1.0312 0 1.8672-0.83594 1.8672-1.8672s-0.83594-1.8672-1.8672-1.8672h-57.621c-1.0312 0-1.8672 0.83594-1.8672 1.8672s0.83594 1.8672 1.8672 1.8672z"/> <path d="m315.17 533.68c0-1.0312-0.83594-1.8672-1.8672-1.8672h-57.621c-1.0312 0-1.8672 0.83594-1.8672 1.8672s0.83594 1.8672 1.8672 1.8672h57.621c1.0312-0.003906 1.8672-0.83594 1.8672-1.8672z"/> <path d="m301.33 545.81h-11.352c-1.0312 0-1.8672 0.83594-1.8672 1.8672s0.83594 1.8672 1.8672 1.8672h11.352c1.0312 0 1.8672-0.83594 1.8672-1.8672-0.003906-1.0352-0.83594-1.8672-1.8672-1.8672z"/> <path d="m280.64 545.81h-24.965c-1.0312 0-1.8672 0.83594-1.8672 1.8672s0.83594 1.8672 1.8672 1.8672h24.965c1.0312 0 1.8672-0.83594 1.8672-1.8672 0-1.0352-0.83594-1.8672-1.8672-1.8672z"/> <path d="m278.93 559.8h-23.254c-1.0312 0-1.8672 0.83594-1.8672 1.8672s0.83594 1.8672 1.8672 1.8672h23.254c1.0312 0 1.8672-0.83594 1.8672-1.8672s-0.83594-1.8672-1.8672-1.8672z"/> </g> </g>
</svg>