<?xml version="1.0" encoding="UTF-8"?>
<!-- Uploaded to: SVG Find, www.svgrepo.com, Generator: SVG Find Mixer Tools -->
<svg width="800px" height="800px" version="1.1" viewBox="144 144 512 512" xmlns="http://www.w3.org/2000/svg">
 <defs>
  <clipPath id="b">
   <path d="m148.09 400h330.91v251.9h-330.91z"/>
  </clipPath>
  <clipPath id="a">
   <path d="m414 148.09h237.9v353.91h-237.9z"/>
  </clipPath>
 </defs>
 <g clip-path="url(#b)">
  <path d="m470.85 518.08h-23.617v-15.742c0-4.3438-3.5273-7.8711-7.8711-7.8711s-7.8711 3.5273-7.8711 7.8711v47.23c0 30.387-24.719 55.105-55.105 55.105h-11.918c-6.2109-7.3359-23.113-23.617-51.059-23.617s-44.848 16.281-51.059 23.617h-11.918c-30.387 0-55.105-24.719-55.105-55.105v-47.23c0-30.387 24.719-55.105 55.105-55.105h11.918c6.2109 7.3359 23.113 23.617 51.059 23.617s44.848-16.281 51.059-23.617h11.918c13.438 0 26.379 4.8867 36.449 13.777 3.2656 2.875 8.2344 2.5664 11.117-0.69141 2.0938-2.3711 2.457-5.6445 1.2578-8.3594l12.43-15.539c2.7148-3.3945 2.1641-8.3516-1.2266-11.059-3.3867-2.7148-8.3516-2.1641-11.059 1.2266l-12.18 15.223c-11.012-6.6914-23.711-10.305-36.777-10.305h-2.5195l2.4102-14.445c0.71484-4.2891-2.1797-8.3438-6.4727-9.0625-4.3125-0.71484-8.3438 2.1875-9.0625 6.4727l-2.8438 17.043h-36.629v-23.617c0-4.3438-3.5273-7.8711-7.8711-7.8711s-7.8711 3.5273-7.8711 7.8711v23.617h-36.629l-2.8438-17.043c-0.71484-4.2812-4.7539-7.1797-9.0625-6.4727-4.2812 0.71484-7.1875 4.7695-6.4727 9.0625l2.4102 14.445h-2.5195c-13.453 0-26 3.8398-36.723 10.375l-12.234-15.297c-2.7148-3.4023-7.6758-3.9453-11.059-1.2266-3.4023 2.7148-3.9453 7.668-1.2266 11.059l12.051 15.066c-6.7383 6.5195-12.211 14.328-15.949 23.066l-17.391-10.43c-3.7383-2.25-8.5664-1.0312-10.801 2.6992-2.2344 3.7305-1.0312 8.5664 2.6992 10.801l20.926 12.547c-0.69141 3.9688-1.125 8.0234-1.125 12.188v15.742h-23.621c-4.3438 0-7.8711 3.5273-7.8711 7.8711s3.5273 7.8711 7.8711 7.8711h23.617v15.742c0 4.1641 0.43359 8.2188 1.125 12.188l-20.926 12.547c-3.7305 2.2344-4.9375 7.0703-2.6992 10.801 1.4805 2.457 4.0859 3.8164 6.7539 3.8164 1.3789 0 2.7773-0.36328 4.0469-1.125l17.391-10.43c3.7461 8.7383 9.2109 16.547 15.949 23.066l-12.051 15.066c-2.7148 3.3945-2.1641 8.3516 1.2266 11.059 1.4492 1.1562 3.1875 1.7227 4.9141 1.7227 2.3047 0 4.5977-1.0078 6.1484-2.9531l12.234-15.297c10.723 6.543 23.27 10.375 36.723 10.375h2.5195l-2.4102 14.445c-0.71484 4.2891 2.1797 8.3438 6.4727 9.0625 0.44141 0.070313 0.875 0.10938 1.3086 0.10938 3.7773 0 7.1172-2.7305 7.7539-6.5742l2.8438-17.043h36.629v23.617c0 4.3438 3.5273 7.8711 7.8711 7.8711s7.8711-3.5273 7.8711-7.8711v-23.617h36.629l2.8438 17.043c0.64453 3.8477 3.9766 6.5742 7.7539 6.5742 0.42578 0 0.86719-0.03125 1.3086-0.10938 4.2812-0.71484 7.1875-4.7695 6.4727-9.0625l-2.4102-14.445h2.5195c13.453 0 26-3.8398 36.723-10.375l12.234 15.297c1.5508 1.9453 3.8398 2.9531 6.1484 2.9531 1.7227 0 3.4648-0.56641 4.9141-1.7227 3.4023-2.7148 3.9453-7.668 1.2266-11.059l-12.051-15.066c6.7383-6.5195 12.211-14.328 15.949-23.066l17.391 10.43c1.2656 0.76172 2.6602 1.125 4.0469 1.125 2.6758 0 5.2812-1.3633 6.7539-3.8164 2.2344-3.7305 1.0312-8.5664-2.6992-10.801l-20.926-12.547c0.69141-3.9688 1.125-8.0234 1.125-12.188v-15.742h23.617c4.3438 0 7.8711-3.5273 7.8711-7.8711s-3.5273-7.8711-7.8711-7.8711zm-157.44-62.977c-11.609 0-20.719-3.668-27.355-7.8711h54.703c-6.6367 4.2031-15.742 7.8711-27.355 7.8711zm0 141.7c11.609 0 20.719 3.668 27.355 7.8711h-54.703c6.6367-4.2031 15.742-7.8711 27.355-7.8711z"/>
 </g>
 <path d="m345.06 479.11c-6.6758 3.8477-12.98 7.4766-31.652 7.4766s-24.977-3.6289-31.652-7.4766c-6.7227-3.8711-14.352-8.2656-31.324-8.2656-0.39453 0-39.359 0.62891-39.359 55.105 0 54.473 38.965 55.105 39.359 55.105 16.973 0 24.602-4.3945 31.324-8.2656 6.6758-3.8477 12.98-7.4766 31.652-7.4766s24.977 3.6289 31.652 7.4766c6.7227 3.8711 14.352 8.2656 31.324 8.2656 0.39453 0 39.359-0.62891 39.359-55.105 0-54.473-38.965-55.105-39.359-55.105-16.973 0-24.602 4.3945-31.324 8.2656zm54.938 46.84c0 37.637-21.293 39.297-23.617 39.359-12.762 0-17.484-2.7227-23.457-6.1641-7.793-4.4883-16.633-9.582-39.516-9.582s-31.715 5.0859-39.516 9.582c-5.9766 3.4492-10.699 6.1641-23.363 6.1641-2.4258-0.0625-23.719-1.7227-23.719-39.359s21.293-39.297 23.617-39.359c12.762 0 17.484 2.7227 23.457 6.1641 7.793 4.4883 16.633 9.582 39.516 9.582 22.883 0 31.715-5.0859 39.516-9.582 5.9766-3.4492 10.699-6.1641 23.363-6.1641 2.4258 0.0625 23.719 1.7227 23.719 39.359z"/>
 <path d="m359.32 521.58c-4.125 6.1797-3.8164 6.1562-7.9258 0-3.0234-4.5352-7.5898-11.375-17.059-11.375s-14.027 6.8477-17.051 11.375c-4.1016 6.1562-3.7773 6.1562-7.8789 0-3.0156-4.5352-7.582-11.383-17.043-11.383-9.4609 0-14.02 6.8477-17.043 11.375-4.0859 6.1328-3.7539 6.1953-7.8633 0-3.0156-4.5352-7.5742-11.383-17.035-11.383-4.3438 0-7.8711 3.5273-7.8711 7.8711s3.5273 7.8711 7.8711 7.8711c0.88281 0 1.8828 1.2812 3.9297 4.3594 3.0156 4.5352 7.5742 11.383 17.035 11.383s14.02-6.8477 17.043-11.375c4.1016-6.1562 3.7773-6.1562 7.8789 0 3.0156 4.5352 7.582 11.375 17.043 11.375 9.4609 0 14.02-6.8477 17.043-11.375 4.1172-6.1875 3.8008-6.1406 7.9102 0 3.0234 4.5273 7.5898 11.375 17.059 11.375s14.035-6.8398 17.059-11.375c2.0625-3.0859 3.0625-4.3672 3.9688-4.3672 4.3438 0 7.8711-3.5273 7.8711-7.8711s-3.5273-7.8711-7.8711-7.8711c-9.4688 0-14.035 6.8477-17.059 11.375z"/>
 <g clip-path="url(#a)">
  <path d="m651.64 201.17c-0.53516-2.0156-1.8594-3.7383-3.668-4.7773l-81.809-47.234c-3.7773-2.1797-8.582-0.88281-10.754 2.8828l-15.742 27.27c-1.0391 1.8008-1.3242 3.9531-0.78906 5.9766 0.53516 2.0156 1.8594 3.7383 3.668 4.7773l20.445 11.809-23.617 40.895-34.086-19.68c-1.8125-1.0391-3.9766-1.332-5.9766-0.78906-2.0156 0.53516-3.7383 1.8594-4.7773 3.668l-15.742 27.27c-2.1719 3.7695-0.88281 8.582 2.8828 10.754l13.633 7.8711-51.168 88.625c-6.5117 11.281-2.6289 25.75 8.6445 32.258l-11.809 20.453c-1.0391 1.8008-1.3242 3.9531-0.78906 5.9766 0.53516 2.0156 1.8594 3.7383 3.668 4.7773l6.8164 3.9375-35.426 61.363c-2.1719 3.7695-0.88281 8.582 2.8828 10.754 1.2422 0.71484 2.5977 1.0547 3.9297 1.0547 2.7227 0 5.3672-1.4102 6.8242-3.9375l35.426-61.355 6.8164 3.9375c1.2422 0.71484 2.5977 1.0547 3.9297 1.0547 2.7227 0 5.3672-1.4102 6.8242-3.9375l11.809-20.453c3.707 2.1406 7.7617 3.1562 11.77 3.1562 8.1719 0 16.121-4.2344 20.492-11.809l51.168-88.625 13.633 7.8711c1.2031 0.69141 2.5664 1.0547 3.9375 1.0547 0.67578 0 1.3711-0.085937 2.0391-0.26953 2.0156-0.53516 3.7383-1.8594 4.7773-3.668l15.742-27.27c2.1719-3.7695 0.88281-8.582-2.8828-10.754l-34.086-19.68 23.617-40.895 20.453 11.809c1.2422 0.71484 2.5977 1.0547 3.9297 1.0547 2.7227 0 5.3672-1.4102 6.8242-3.9375l15.742-27.27c1.0391-1.8008 1.3242-3.9531 0.78906-5.9766zm-179.45 220.95-13.633-7.8711 7.8711-13.625 13.633 7.8711zm83.426-97.266-20.453-11.809-7.8711 13.633 20.453 11.809-7.8711 13.633-20.453-11.809-7.8711 13.633 20.453 11.809-7.8711 13.633-20.453-11.809-7.8711 13.633 20.453 11.809-3.9375 6.8164c-2.1641 3.7617-7.0078 5.0469-10.754 2.8828l-40.902-23.617c-1.8203-1.0469-3.1172-2.7461-3.668-4.7773-0.55078-2.0312-0.26953-4.1484 0.78906-5.9766l51.168-88.625 54.539 31.488-7.8711 13.633zm36.195-15.461-95.441-55.105 7.8711-13.633 95.441 55.105zm-25.16-50.883-13.633-7.8711 23.617-40.895 13.633 7.8711zm58.758-38.785-68.172-39.359 7.8711-13.625 68.172 39.359z"/>
 </g>
 <path d="m289.79 250.43c4.3438 0 7.8711-3.5273 7.8711-7.8711v-31.488c0-4.3438-3.5273-7.8711-7.8711-7.8711s-7.8711 3.5273-7.8711 7.8711v31.488c0 4.3438 3.5273 7.8711 7.8711 7.8711z"/>
 <path d="m289.79 329.15c4.3438 0 7.8711-3.5273 7.8711-7.8711v-31.488c0-4.3438-3.5273-7.8711-7.8711-7.8711s-7.8711 3.5273-7.8711 7.8711v31.488c0 4.3438 3.5273 7.8711 7.8711 7.8711z"/>
 <path d="m313.41 274.05h31.488c4.3438 0 7.8711-3.5273 7.8711-7.8711s-3.5273-7.8711-7.8711-7.8711h-31.488c-4.3438 0-7.8711 3.5273-7.8711 7.8711s3.5273 7.8711 7.8711 7.8711z"/>
 <path d="m234.69 274.05h31.488c4.3438 0 7.8711-3.5273 7.8711-7.8711s-3.5273-7.8711-7.8711-7.8711h-31.488c-4.3438 0-7.8711 3.5273-7.8711 7.8711s3.5273 7.8711 7.8711 7.8711z"/>
 <path d="m573.18 486.59c-4.3438 0-7.8711 3.5273-7.8711 7.8711v31.488c0 4.3438 3.5273 7.8711 7.8711 7.8711s7.8711-3.5273 7.8711-7.8711v-31.488c0-4.3438-3.5273-7.8711-7.8711-7.8711z"/>
 <path d="m573.18 565.31c-4.3438 0-7.8711 3.5273-7.8711 7.8711v31.488c0 4.3438 3.5273 7.8711 7.8711 7.8711s7.8711-3.5273 7.8711-7.8711v-31.488c0-4.3438-3.5273-7.8711-7.8711-7.8711z"/>
 <path d="m628.29 541.7h-31.488c-4.3438 0-7.8711 3.5273-7.8711 7.8711s3.5273 7.8711 7.8711 7.8711h31.488c4.3438 0 7.8711-3.5273 7.8711-7.8711s-3.5273-7.8711-7.8711-7.8711z"/>
 <path d="m549.57 541.7h-31.488c-4.3438 0-7.8711 3.5273-7.8711 7.8711s3.5273 7.8711 7.8711 7.8711h31.488c4.3438 0 7.8711-3.5273 7.8711-7.8711s-3.5273-7.8711-7.8711-7.8711z"/>
</svg>