<svg xmlns="http://www.w3.org/2000/svg" xmlns:xlink="http://www.w3.org/1999/xlink" width="500" zoomAndPan="magnify" viewBox="0 0 375 374.999991" height="500" preserveAspectRatio="xMidYMid meet" version="1.0"><defs><clipPath id="7c824fcc24"><path d="M 37.5 218 L 90 218 L 90 327.5625 L 37.5 327.5625 Z M 37.5 218 " clip-rule="nonzero"/></clipPath></defs><path fill="#00406d" d="M 220.839844 271.761719 C 218.242188 271.761719 215.300781 271.417969 212.179688 270.722656 L 162.300781 257.214844 C 157.796875 256.175781 159.699219 249.417969 164.03125 250.632812 L 213.738281 263.96875 C 239.546875 270.378906 236.429688 242.144531 217.03125 237.640625 L 157.101562 221.1875 C 144.632812 217.550781 132.855469 214.257812 121.941406 221.1875 L 87.820312 242.320312 C 83.839844 244.742188 80.203125 238.855469 84.183594 236.429688 L 118.304688 215.300781 C 132.679688 206.292969 147.058594 211.140625 161.085938 215.125 C 174.421875 218.9375 206.8125 228.117188 218.589844 230.886719 C 243.703125 236.777344 247.515625 271.761719 220.839844 271.761719 Z M 220.839844 271.761719 " fill-opacity="1" fill-rule="evenodd"/><path fill="#00406d" d="M 112.761719 319.394531 C 108.953125 319.394531 93.539062 318.875 83.664062 310.558594 C 80.203125 307.617188 84.703125 302.246094 88.167969 305.191406 C 97.175781 312.8125 113.457031 312.464844 113.628906 312.464844 L 184.296875 312.464844 L 318.875 234.699219 C 325.976562 230.714844 328.398438 221.707031 324.242188 214.605469 C 320.257812 207.679688 311.253906 205.253906 304.152344 209.238281 L 235.042969 249.074219 C 231.234375 251.5 227.769531 245.4375 231.578125 243.183594 L 300.6875 203.175781 C 317.316406 193.648438 337.40625 209.0625 332.382812 227.597656 C 330.996094 233.140625 327.359375 237.816406 322.335938 240.757812 L 187.066406 318.875 C 184.640625 320.257812 122.289062 319.046875 113.628906 319.394531 C 113.628906 319.394531 113.28125 319.394531 112.761719 319.394531 Z M 112.761719 319.394531 " fill-opacity="1" fill-rule="evenodd"/><g clip-path="url(#7c824fcc24)"><path fill="#00406d" d="M 81.585938 327.1875 L 45.386719 327.1875 C 41.058594 327.1875 37.59375 323.550781 37.59375 319.394531 L 37.59375 226.382812 C 37.59375 222.054688 41.058594 218.589844 45.386719 218.589844 L 81.585938 218.589844 C 85.917969 218.589844 89.382812 222.054688 89.382812 226.382812 L 89.382812 319.394531 C 89.382812 323.550781 85.917969 327.1875 81.585938 327.1875 Z M 45.386719 225.519531 C 44.867188 225.519531 44.523438 225.863281 44.523438 226.382812 L 44.523438 319.394531 C 44.523438 319.738281 44.867188 320.257812 45.386719 320.257812 L 81.585938 320.257812 C 82.105469 320.257812 82.453125 319.738281 82.453125 319.394531 L 82.453125 226.382812 C 82.453125 225.863281 82.105469 225.519531 81.585938 225.519531 Z M 45.386719 225.519531 " fill-opacity="1" fill-rule="evenodd"/></g><path fill="#00406d" d="M 63.574219 313.675781 C 48.160156 313.675781 48.160156 290.296875 63.574219 290.296875 C 78.816406 290.296875 78.816406 313.675781 63.574219 313.675781 Z M 63.574219 297.222656 C 57.339844 297.222656 57.339844 306.75 63.574219 306.75 C 69.636719 306.75 69.636719 297.222656 63.574219 297.222656 Z M 63.574219 297.222656 " fill-opacity="1" fill-rule="evenodd"/><path fill="#00406d" d="M 269.683594 132.679688 C 222.746094 132.679688 175.808594 132.679688 128.871094 132.679688 C 125.925781 132.679688 124.367188 129.390625 126.101562 127.140625 L 152.773438 91.113281 C 153.464844 90.246094 154.503906 89.726562 155.542969 89.726562 L 245.4375 89.726562 C 246.648438 89.726562 247.6875 90.246094 248.378906 91.113281 L 272.28125 126.964844 C 274.359375 129.738281 272.109375 132.679688 269.683594 132.679688 Z M 135.625 125.753906 L 263.101562 125.753906 L 243.703125 96.65625 L 157.277344 96.65625 Z M 135.625 125.753906 " fill-opacity="1" fill-rule="evenodd"/><path fill="#00406d" d="M 199.191406 203.175781 C 198.324219 203.175781 197.460938 202.828125 196.765625 202.136719 L 126.273438 131.640625 C 124.195312 129.5625 125.753906 125.753906 128.871094 125.753906 L 269.511719 125.753906 C 272.628906 125.753906 274.1875 129.5625 272.109375 131.640625 L 201.617188 202.136719 C 200.921875 202.828125 200.058594 203.175781 199.191406 203.175781 Z M 137.183594 132.679688 L 199.191406 194.859375 L 261.199219 132.679688 Z M 137.183594 132.679688 " fill-opacity="1" fill-rule="evenodd"/><path fill="#00406d" d="M 227.597656 132.679688 C 208.71875 132.679688 189.839844 132.679688 170.785156 132.679688 C 168.535156 132.679688 166.800781 130.429688 167.496094 128.179688 L 178.234375 92.152344 C 178.753906 90.59375 180.140625 89.726562 181.699219 89.726562 L 217.898438 89.726562 C 219.457031 89.726562 220.839844 90.765625 221.1875 92.152344 L 231.058594 129.21875 C 231.058594 131.121094 229.5 132.679688 227.597656 132.679688 Z M 175.460938 125.753906 L 223.09375 125.753906 L 215.125 96.65625 L 184.121094 96.65625 Z M 175.460938 125.753906 " fill-opacity="1" fill-rule="evenodd"/><path fill="#00406d" d="M 199.191406 203.175781 C 197.804688 203.175781 196.59375 202.308594 195.898438 201.097656 L 167.667969 130.601562 C 166.800781 128.179688 168.359375 125.753906 170.785156 125.753906 L 227.597656 125.753906 C 230.019531 125.753906 231.753906 128.179688 230.714844 130.601562 L 202.480469 201.097656 C 201.960938 202.308594 200.578125 203.175781 199.191406 203.175781 Z M 175.980469 132.679688 L 199.191406 190.53125 L 222.398438 132.679688 Z M 175.980469 132.679688 " fill-opacity="1" fill-rule="evenodd"/><path fill="#00406d" d="M 199.191406 73.101562 C 197.285156 73.101562 195.726562 71.542969 195.726562 69.636719 L 195.726562 52.316406 C 195.726562 47.8125 202.65625 47.8125 202.65625 52.316406 L 202.65625 69.636719 C 202.65625 71.542969 201.097656 73.101562 199.191406 73.101562 Z M 199.191406 73.101562 " fill-opacity="1" fill-rule="evenodd"/><path fill="#00406d" d="M 238.679688 82.625 C 235.910156 82.625 234.351562 79.683594 235.5625 77.429688 L 244.398438 62.363281 C 246.648438 58.378906 252.539062 61.84375 250.285156 65.824219 L 241.625 80.894531 C 240.933594 81.933594 239.894531 82.625 238.679688 82.625 Z M 238.679688 82.625 " fill-opacity="1" fill-rule="evenodd"/><path fill="#00406d" d="M 159.699219 82.625 C 158.660156 82.625 157.449219 81.933594 156.757812 80.894531 L 148.097656 65.824219 C 145.84375 61.84375 151.734375 58.378906 154.160156 62.363281 L 162.820312 77.429688 C 164.03125 79.683594 162.472656 82.625 159.699219 82.625 Z M 159.699219 82.625 " fill-opacity="1" fill-rule="evenodd"/></svg>