<?xml version="1.0" encoding="UTF-8"?>
<!-- Uploaded to: SVG Find, www.svgrepo.com, Generator: SVG Find Mixer Tools -->
<svg fill="#000000" width="800px" height="800px" version="1.1" viewBox="144 144 512 512" xmlns="http://www.w3.org/2000/svg">
 <g>
  <path d="m532.53 466.3c-10.23-27.246-76.734-43.875-84.277-45.68-2.1836-0.57422-4.5469 0.46094-5.6836 2.4648-10.848 19.297-34.848 34.523-42.559 39.086-7.7266-4.5625-31.711-19.762-42.57-39.086-1.1328-2-3.4844-2.9531-5.668-2.4648-7.5586 1.8047-74.047 18.418-84.289 45.68-9.6836 25.723-16.527 88.809-16.809 91.484-0.18359 1.7227 0.53125 3.4414 1.8906 4.5352 1.8086 1.4805 45.75 35.84 147.44 35.84 101.66 0 145.63-34.355 147.45-35.84 1.3594-1.0898 2.0586-2.8125 1.9023-4.5352-0.30859-2.6719-7.1406-65.762-16.824-91.484zm-132.53 121.59c-85.254 0-128.82-25.344-138.77-32.008 1.4688-12.93 7.7969-64.5 15.855-85.969 3.1758-8.3984 15.086-16.18 28.996-22.684 0.6875 11.293 3.6797 33.516 15.352 60.906-6.1172 4.7305-10.105 12.02-10.105 20.336 0 14.219 11.586 25.805 25.836 25.805 14.234 0 25.805-11.586 25.805-25.805 0-14.246-11.574-25.836-25.805-25.836-2.2539 0-4.3945 0.37891-6.4805 0.92188-12.414-29.516-14.262-52.648-14.457-60.738 12.594-5.0508 25.527-9.0273 34.285-11.293 15.309 23.832 45.707 40.375 47.051 41.09 1.4961 0.85547 3.3438 0.85547 4.8711 0 1.3438-0.71484 31.738-17.242 47.035-41.09 8.7734 2.2656 21.707 6.2266 34.316 11.32-0.15234 5.543-1.1055 18.094-5.5273 34.691-8.0469-1.9727-23.355-3.875-32.734 6.4805-4.8711 5.3867-11.055 18.961-15.031 28.453-4.3945 0.32031-8.4258 3.1211-10.02 7.543-2.1953 6.0195 0.91016 12.652 6.9258 14.848 6.0312 2.2109 12.68-0.89453 14.875-6.9141 1.4844-4.1016 0.37891-8.4258-2.3086-11.477 3.9727-9.4336 9.5312-21.453 13.211-25.527 8.0039-8.8594 25.891-2.4922 26.633-2.2109 0.75391 0.25 18.559 6.8867 19.004 18.836 0.19531 5.5-3.3047 18.262-6.2969 28.016-4.0312 0.62891-7.668 3.2188-9.1367 7.3203-2.2109 6.0469 0.89453 12.68 6.9141 14.875 6.0195 2.1953 12.68-0.89453 14.875-6.9414 1.6094-4.3945 0.32031-9.0977-2.8125-12.188 3.0352-9.8086 7.0234-24.195 6.7461-31.461-0.54688-14.273-13.59-22.516-21.145-26.129 4.0039-14.766 5.4844-26.562 5.9492-33.812 13.883 6.4805 25.836 14.289 28.984 22.684 8.0742 21.453 14.371 73.039 15.871 85.969-9.9531 6.6445-53.504 31.988-138.76 31.988zm-74.117-69.973c0.79688 1.6641 1.5938 3.3047 2.4648 4.9961-1.0234 1.6367-1.793 3.4414-1.793 5.543 0 5.8516 4.7461 10.578 10.609 10.578 5.8516 0 10.578-4.7305 10.578-10.578 0-5.793-4.6445-10.469-10.398-10.578-0.78516-1.5273-1.4844-3.0352-2.2266-4.5625 0.69922-0.082031 1.3164-0.40625 2.043-0.40625 8.5508 0 15.52 6.9688 15.52 15.547 0 8.5508-6.9688 15.52-15.52 15.52-8.5664 0-15.535-6.9688-15.535-15.52-0.011719-4.0859 1.6562-7.7812 4.2578-10.539z"/>
  <path d="m326.41 356.29c11.754 41.496 51.613 71.234 73.586 71.234s61.828-29.738 73.586-71.234c9.9766-4.0156 16.695-13.715 16.695-24.574v-10.441c0-7.4883-3.3047-14.402-8.7891-19.383 0.96484-4.043 1.918-8.4531 2.7695-13.363l0.28125-1.5273c2.4922-14.164 7.1641-40.516-9.6406-60.57-13.719-16.344-38.91-24.602-74.902-24.602-35.996 0-61.199 8.2852-74.898 24.629-16.809 20.039-12.133 46.406-9.6289 60.57l0.26562 1.4961c0.85547 4.9258 1.8047 9.3477 2.7695 13.363-5.4844 4.9688-8.8164 11.922-8.8164 19.383v10.441c0.011719 10.848 6.7461 20.562 16.723 24.578zm6.5781-123.25c11.656-13.883 34.203-20.938 67.008-20.938s55.348 7.0547 66.992 20.938c13.742 16.375 9.7812 38.781 7.418 52.16l-0.28125 1.5781c-2.4062 13.715-5.5977 24.113-7.668 30.02-0.015626-0.74219-0.015626-1.4961-0.015626-2.2969 0-40.809-13.141-46.91-20.965-46.91-4.2695 0-8.7461 1.832-13.363 5.4453-11.32 8.832-20.445 9.9766-27.137 9.9766l-4.9805-0.082031-4.9688 0.082031c-6.7031 0-15.828-1.1484-27.137-9.9766-4.6055-3.6094-9.0977-5.4453-13.352-5.4453-7.8359 0-20.977 6.1016-20.977 46.91v2.2656c-2-5.625-5.2461-16.094-7.668-29.992l-0.28125-1.5547c-2.3672-13.387-6.3672-35.809 7.375-52.18zm108.72 73.066h-19.801c-4.7305 0-9.0273 2.0273-12.414 5.2461h-19.02c-3.4023-3.2188-7.6953-5.2461-12.441-5.2461h-19.773c-5.6953 0-10.805 2.8398-14.414 7.3203 0.18359-24.352 5.5977-35.531 10.68-35.531 1.875 0 4.3086 1.1211 7.0117 3.2188 13.797 10.789 25.133 12.16 33.488 12.16l4.9688-0.074219 4.9688 0.082031c8.3398 0 19.676-1.3711 33.488-12.16 2.6992-2.0977 5.1367-3.2188 7.0234-3.2188 5.0508 0 10.496 11.184 10.637 35.562-3.582-4.4922-8.6758-7.3594-14.402-7.3594zm9.3633 22.57c0 6.7734-4.1992 12.301-9.3633 12.301h-19.801c-5.0508 0-9.3359-5.625-9.3359-12.301 0-6.6758 4.2812-12.301 9.3359-12.301h19.801c5.1797 0 9.3633 5.5273 9.3633 12.301zm-63.648 0c0 6.7734-4.2109 12.301-9.375 12.301h-19.773c-5.1641 0-9.375-5.5273-9.375-12.301 0-6.7734 4.2109-12.301 9.375-12.301h19.773c5.1641 0 9.375 5.5273 9.375 12.301zm-61.855-4.0703c3.1484 13.195 5.3047 18.695 10.551 18.695 2.4492 0 4.1289-0.92188 5.2891-3.2031 3.4297 6.6484 9.6562 11.152 16.863 11.152h19.773c10.848 0 19.648-10.117 19.648-22.574 0-2.4922-0.43359-4.8125-1.0781-7.0547h6.7461c-0.64453 2.2383-1.0781 4.5625-1.0781 7.0547 0 12.469 8.8164 22.574 19.621 22.574h19.801c7.207 0 13.434-4.5078 16.852-11.152 1.1758 2.2656 2.8398 3.2031 5.3047 3.2031 5.2461 0 7.4023-5.5 10.273-17.816 0.14062-0.32031 1.8906-4.4492 4.043-11.504 1.1484 2.2383 1.8047 4.7305 1.8047 7.293v10.441c0 7.25-4.9531 13.672-12.02 15.605-1.793 0.48828-3.1914 1.8906-3.6367 3.7227-9.7422 38.891-47.566 66.195-64.348 66.195s-54.594-27.305-64.348-66.195c-0.43359-1.8047-1.832-3.2188-3.6367-3.7227-7.082-1.9453-12.02-8.3672-12.02-15.605v-10.441c0-2.5742 0.64453-5.082 1.8047-7.3203 2.125 6.8047 3.7461 10.652 3.7891 10.652z"/>
 </g>
</svg>