<svg xmlns="http://www.w3.org/2000/svg" xmlns:xlink="http://www.w3.org/1999/xlink" width="500" zoomAndPan="magnify" viewBox="0 0 375 374.999991" height="500" preserveAspectRatio="xMidYMid meet" version="1.0"><defs><clipPath id="d43e479d41"><path d="M 184 62.4375 L 194 62.4375 L 194 99 L 184 99 Z M 184 62.4375 " clip-rule="nonzero"/></clipPath><clipPath id="0c4812b5e1"><path d="M 184 273 L 194 273 L 194 309.9375 L 184 309.9375 Z M 184 273 " clip-rule="nonzero"/></clipPath><clipPath id="f8ce57153b"><path d="M 294 136 L 337.4375 136 L 337.4375 157 L 294 157 Z M 294 136 " clip-rule="nonzero"/></clipPath><clipPath id="e566136b0a"><path d="M 40.4375 215 L 83 215 L 83 236 L 40.4375 236 Z M 40.4375 215 " clip-rule="nonzero"/></clipPath></defs><g clip-path="url(#d43e479d41)"><path fill="#3b5998" d="M 188.746094 98.714844 C 191.429688 98.714844 193.222656 96.921875 193.222656 94.234375 L 193.222656 66.917969 C 193.222656 64.230469 191.429688 62.4375 188.746094 62.4375 C 186.058594 62.4375 184.265625 64.230469 184.265625 66.917969 L 184.265625 94.683594 C 184.265625 96.921875 186.058594 98.714844 188.746094 98.714844 Z M 188.746094 98.714844 " fill-opacity="1" fill-rule="nonzero"/></g><g clip-path="url(#0c4812b5e1)"><path fill="#3b5998" d="M 188.746094 273.378906 C 186.058594 273.378906 184.265625 275.167969 184.265625 277.855469 L 184.265625 305.621094 C 184.265625 308.308594 186.058594 310.101562 188.746094 310.101562 C 191.429688 310.101562 193.222656 308.308594 193.222656 305.621094 L 193.222656 277.855469 C 193.222656 275.167969 191.429688 273.378906 188.746094 273.378906 Z M 188.746094 273.378906 " fill-opacity="1" fill-rule="nonzero"/></g><path fill="#3b5998" d="M 275.628906 124.6875 L 300.707031 104.984375 C 302.5 103.640625 302.949219 100.503906 301.605469 98.714844 C 300.261719 96.921875 297.125 96.472656 295.335938 97.816406 L 270.253906 117.523438 C 268.460938 118.867188 268.015625 122.003906 269.359375 123.792969 C 270.703125 126.03125 273.390625 126.03125 275.628906 124.6875 Z M 275.628906 124.6875 " fill-opacity="1" fill-rule="nonzero"/><path fill="#3b5998" d="M 101.859375 247.402344 L 76.78125 266.660156 C 74.988281 268.003906 74.542969 271.136719 75.886719 272.929688 C 77.226562 274.722656 80.363281 275.167969 82.15625 273.824219 L 107.234375 254.121094 C 109.027344 252.777344 109.472656 249.640625 108.128906 247.851562 C 106.785156 246.058594 104.101562 246.058594 101.859375 247.402344 Z M 101.859375 247.402344 " fill-opacity="1" fill-rule="nonzero"/><path fill="#3b5998" d="M 275.628906 247.402344 C 273.835938 246.058594 270.703125 246.058594 269.359375 248.296875 C 268.015625 250.089844 268.015625 253.222656 270.253906 254.566406 L 295.335938 274.273438 C 297.125 275.617188 300.261719 275.617188 301.605469 273.378906 C 302.949219 271.585938 302.949219 268.449219 300.707031 267.109375 Z M 275.628906 247.402344 " fill-opacity="1" fill-rule="nonzero"/><path fill="#3b5998" d="M 101.859375 124.6875 C 103.652344 126.03125 106.785156 126.03125 108.128906 123.792969 C 109.472656 122.003906 109.472656 118.867188 107.234375 117.523438 L 82.15625 97.816406 C 80.363281 96.472656 77.226562 96.472656 75.886719 98.714844 C 74.542969 100.953125 74.542969 103.640625 76.78125 104.984375 Z M 101.859375 124.6875 " fill-opacity="1" fill-rule="nonzero"/><path fill="#3b5998" d="M 233.082031 105.429688 C 235.320312 106.773438 238.007812 105.878906 239.351562 103.640625 L 253.234375 78.113281 C 254.578125 75.875 253.683594 73.1875 251.445312 71.84375 C 249.203125 70.5 246.519531 71.394531 245.175781 73.632812 L 231.289062 99.160156 C 229.945312 101.402344 230.84375 104.089844 233.082031 105.429688 Z M 233.082031 105.429688 " fill-opacity="1" fill-rule="nonzero"/><path fill="#3b5998" d="M 144.40625 266.660156 C 142.167969 265.316406 139.480469 266.210938 138.136719 268.449219 L 124.253906 293.980469 C 122.910156 296.21875 123.804688 298.90625 126.042969 300.25 C 128.285156 301.59375 130.972656 300.695312 132.316406 298.457031 L 146.199219 272.929688 C 147.542969 270.691406 146.644531 268.003906 144.40625 266.660156 Z M 144.40625 266.660156 " fill-opacity="1" fill-rule="nonzero"/><path fill="#3b5998" d="M 332.507812 228.144531 L 299.8125 217.394531 C 297.574219 216.5 294.886719 217.84375 293.992188 220.082031 C 293.09375 222.320312 294.4375 225.007812 296.675781 225.90625 L 329.371094 236.652344 C 331.609375 237.550781 334.296875 236.207031 335.191406 233.964844 C 336.089844 231.726562 334.746094 229.039062 332.507812 228.144531 Z M 332.507812 228.144531 " fill-opacity="1" fill-rule="nonzero"/><path fill="#3b5998" d="M 44.984375 143.945312 L 77.675781 154.695312 C 79.914062 155.589844 82.601562 154.246094 83.5 152.007812 C 84.394531 149.769531 83.050781 147.082031 80.8125 146.1875 L 48.117188 135.4375 C 45.878906 134.542969 43.191406 135.886719 42.296875 138.125 C 41.398438 140.363281 42.742188 143.050781 44.984375 143.945312 Z M 44.984375 143.945312 " fill-opacity="1" fill-rule="nonzero"/><g clip-path="url(#f8ce57153b)"><path fill="#3b5998" d="M 294.886719 152.902344 C 295.78125 155.144531 298.019531 156.488281 300.707031 156.039062 L 333.847656 145.738281 C 336.089844 144.84375 337.433594 142.605469 336.984375 139.917969 C 336.089844 137.675781 333.847656 136.332031 331.164062 136.78125 L 298.019531 147.082031 C 295.335938 147.976562 293.992188 150.664062 294.886719 152.902344 Z M 294.886719 152.902344 " fill-opacity="1" fill-rule="nonzero"/></g><g clip-path="url(#e566136b0a)"><path fill="#3b5998" d="M 82.601562 219.1875 C 81.707031 216.949219 79.46875 215.605469 76.78125 216.050781 L 44.085938 226.351562 C 41.847656 227.25 40.503906 229.488281 40.953125 232.175781 C 41.847656 234.414062 44.085938 235.757812 46.773438 235.308594 L 79.914062 225.007812 C 82.15625 224.113281 83.5 221.425781 82.601562 219.1875 Z M 82.601562 219.1875 " fill-opacity="1" fill-rule="nonzero"/></g><path fill="#3b5998" d="M 237.113281 268.898438 C 235.769531 266.660156 233.082031 265.765625 230.84375 267.109375 C 228.605469 268.449219 227.707031 271.136719 229.050781 273.378906 L 242.488281 298.90625 C 243.832031 301.144531 246.519531 302.039062 248.757812 300.695312 C 250.996094 299.351562 251.890625 296.664062 250.546875 294.425781 Z M 237.113281 268.898438 " fill-opacity="1" fill-rule="nonzero"/><path fill="#3b5998" d="M 140.375 103.191406 C 141.71875 105.429688 144.40625 106.328125 146.644531 104.984375 C 148.886719 103.640625 149.78125 100.953125 148.4375 98.714844 L 135 73.1875 C 133.660156 70.945312 130.972656 70.050781 128.730469 71.394531 C 126.492188 72.738281 125.597656 75.425781 126.941406 77.664062 Z M 140.375 103.191406 " fill-opacity="1" fill-rule="nonzero"/><path fill="#3b5998" d="M 188.746094 126.03125 C 124.699219 126.03125 73.644531 180.671875 71.40625 182.910156 C 69.613281 184.703125 69.613281 187.390625 71.40625 189.179688 C 73.644531 191.417969 124.699219 246.058594 188.746094 246.058594 C 252.789062 246.058594 303.84375 191.417969 306.082031 189.179688 C 307.875 187.390625 307.875 184.703125 306.082031 182.910156 C 303.84375 180.671875 252.789062 126.03125 188.746094 126.03125 Z M 188.746094 237.101562 C 160.53125 237.101562 137.6875 214.261719 137.6875 186.046875 C 137.6875 157.832031 160.53125 134.988281 188.746094 134.988281 C 216.960938 134.988281 239.800781 157.832031 239.800781 186.046875 C 239.800781 214.261719 216.960938 237.101562 188.746094 237.101562 Z M 147.09375 143.050781 C 135.898438 153.800781 128.730469 169.027344 128.730469 186.046875 C 128.730469 203.0625 135.898438 218.292969 147.09375 229.039062 C 114.402344 216.949219 89.320312 194.105469 81.257812 186.046875 C 89.320312 177.984375 114.402344 155.144531 147.09375 143.050781 Z M 230.394531 229.039062 C 241.589844 218.292969 248.757812 203.0625 248.757812 186.046875 C 248.757812 169.027344 241.589844 153.800781 230.394531 143.050781 C 263.089844 155.144531 288.167969 177.984375 296.230469 186.046875 C 288.167969 194.105469 263.089844 216.949219 230.394531 229.039062 Z M 230.394531 229.039062 " fill-opacity="1" fill-rule="nonzero"/><path fill="#3b5998" d="M 188.746094 152.007812 C 169.933594 152.007812 154.707031 167.234375 154.707031 186.046875 C 154.707031 204.855469 169.933594 220.082031 188.746094 220.082031 C 207.554688 220.082031 222.78125 204.855469 222.78125 186.046875 C 222.78125 167.234375 207.554688 152.007812 188.746094 152.007812 Z M 188.746094 211.125 C 174.859375 211.125 163.664062 199.929688 163.664062 186.046875 C 163.664062 172.160156 174.859375 160.964844 188.746094 160.964844 C 202.628906 160.964844 213.824219 172.160156 213.824219 186.046875 C 213.824219 199.929688 202.628906 211.125 188.746094 211.125 Z M 188.746094 211.125 " fill-opacity="1" fill-rule="nonzero"/></svg>