<svg xmlns="http://www.w3.org/2000/svg" xmlns:xlink="http://www.w3.org/1999/xlink" width="500" zoomAndPan="magnify" viewBox="0 0 375 374.999991" height="500" preserveAspectRatio="xMidYMid meet" version="1.0"><defs><clipPath id="37c2cbf6e1"><path d="M 37.5 37 L 337.5 37 L 337.5 339.714844 L 37.5 339.714844 Z M 37.5 37 " clip-rule="nonzero"/></clipPath></defs><rect x="-37.5" width="450" fill="#ffffff" y="-37.499999" height="449.999989" fill-opacity="1"/><rect x="-37.5" width="450" fill="#ffffff" y="-37.499999" height="449.999989" fill-opacity="1"/><g clip-path="url(#37c2cbf6e1)"><path fill="#00406d" d="M 48.054688 208.335938 C 41.546875 214.84375 37.503906 223.820312 37.503906 233.6875 L 37.503906 247.011719 C 37.503906 247.378906 37.804688 247.675781 38.167969 247.675781 L 100.207031 247.675781 C 100.4375 247.675781 100.636719 247.566406 100.761719 247.375 C 100.890625 247.183594 100.910156 246.960938 100.820312 246.746094 C 95.160156 233.617188 92.488281 219.136719 93.304688 204.226562 C 93.320312 203.984375 93.210938 203.769531 93.003906 203.632812 C 78.835938 194.34375 60.128906 196.261719 48.054688 208.335938 Z M 187.5 125.921875 C 233.636719 125.921875 271.039062 163.324219 271.039062 209.460938 C 271.039062 229.734375 263.820312 248.320312 251.808594 262.789062 C 251.585938 263.054688 251.605469 263.4375 251.847656 263.683594 L 266.015625 277.847656 C 266.273438 278.109375 266.695312 278.109375 266.953125 277.847656 L 271.953125 272.851562 C 272.863281 271.9375 274.386719 271.9375 275.296875 272.851562 L 316.851562 314.402344 C 317.320312 314.871094 317.554688 315.476562 317.554688 316.074219 L 317.53125 316.074219 C 317.53125 316.683594 317.304688 317.292969 316.851562 317.746094 L 295.78125 338.816406 C 294.871094 339.726562 293.347656 339.726562 292.433594 338.816406 L 250.882812 297.265625 C 249.972656 296.355469 249.972656 294.832031 250.882812 293.921875 L 255.886719 288.917969 C 256.144531 288.660156 256.144531 288.238281 255.886719 287.976562 L 241.71875 273.8125 C 241.476562 273.566406 241.089844 273.550781 240.824219 273.769531 C 207.667969 301.300781 158.945312 299.050781 128.425781 268.535156 C 95.800781 235.910156 95.800781 183.015625 128.425781 150.390625 C 143.546875 135.273438 164.433594 125.921875 187.5 125.921875 Z M 239.078125 157.882812 C 210.59375 129.398438 164.40625 129.398438 135.921875 157.882812 C 104.410156 189.398438 108.371094 241.339844 143.796875 267.863281 C 144.003906 268.019531 144.261719 268.042969 144.492188 267.925781 C 144.722656 267.8125 144.859375 267.589844 144.859375 267.332031 L 144.859375 235.871094 C 144.859375 214.039062 161.226562 195.859375 183.328125 193.789062 L 185.003906 193.632812 C 185.21875 193.613281 185.410156 193.6875 185.558594 193.847656 C 185.703125 194.007812 185.757812 194.207031 185.714844 194.421875 L 173.972656 254.261719 C 173.933594 254.457031 173.976562 254.640625 174.101562 254.800781 L 186.808594 270.886719 C 186.9375 271.050781 187.117188 271.136719 187.328125 271.136719 C 187.539062 271.136719 187.71875 271.050781 187.851562 270.886719 L 200.898438 254.367188 C 201.023438 254.207031 201.070312 254.023438 201.03125 253.828125 L 189.371094 194.425781 C 189.328125 194.210938 189.386719 194.011719 189.53125 193.851562 C 189.675781 193.691406 189.871094 193.617188 190.085938 193.636719 L 191.765625 193.796875 C 213.828125 195.914062 230.140625 214.070312 230.140625 235.871094 L 230.140625 267.332031 C 230.140625 267.589844 230.277344 267.808594 230.507812 267.925781 C 230.742188 268.039062 231 268.015625 231.207031 267.863281 C 266.628906 241.339844 270.59375 189.398438 239.078125 157.882812 Z M 167.160156 171.449219 C 167.160156 182.699219 176.230469 191.789062 187.609375 191.789062 C 198.699219 191.789062 207.839844 182.675781 207.839844 171.449219 C 207.839844 160.214844 198.734375 151.109375 187.5 151.109375 C 176.265625 151.109375 167.160156 160.214844 167.160156 171.449219 Z M 326.945312 208.335938 C 314.871094 196.261719 296.164062 194.34375 281.996094 203.632812 C 281.789062 203.769531 281.683594 203.984375 281.695312 204.226562 C 282.511719 219.136719 279.839844 233.617188 274.179688 246.75 C 274.089844 246.960938 274.109375 247.183594 274.238281 247.375 C 274.363281 247.570312 274.5625 247.675781 274.792969 247.675781 L 336.832031 247.675781 C 337.195312 247.675781 337.496094 247.378906 337.496094 247.011719 L 337.496094 233.6875 C 337.496094 223.820312 333.453125 214.84375 326.945312 208.335938 Z M 301.589844 151.054688 C 285.265625 151.054688 277.046875 170.886719 288.59375 182.433594 C 300.117188 193.957031 319.972656 185.789062 319.972656 169.4375 C 319.972656 159.285156 311.742188 151.054688 301.589844 151.054688 Z M 245.742188 88.804688 C 228.203125 88.839844 212.984375 100.339844 207.707031 116.546875 C 207.644531 116.730469 207.664062 116.910156 207.761719 117.078125 C 207.855469 117.25 208.003906 117.355469 208.191406 117.398438 C 236.105469 123.644531 259.527344 142.320312 272.0625 167.59375 C 272.199219 167.867188 272.488281 168.011719 272.785156 167.953125 C 273.082031 167.894531 273.296875 167.652344 273.320312 167.347656 C 273.957031 158.617188 278.570312 150.84375 285.582031 146.039062 C 285.769531 145.910156 285.871094 145.71875 285.871094 145.492188 L 285.871094 128.855469 C 285.871094 106.824219 267.847656 88.804688 245.824219 88.804688 C 245.796875 88.804688 245.769531 88.804688 245.742188 88.804688 Z M 225.074219 58.085938 C 225.074219 69.566406 234.371094 78.855469 245.898438 78.835938 C 257.292969 78.816406 266.570312 69.53125 266.570312 58.085938 C 266.570312 46.625 257.28125 37.335938 245.820312 37.335938 C 234.363281 37.335938 225.074219 46.625 225.074219 58.085938 Z M 114.503906 72.757812 C 122.605469 80.859375 135.746094 80.863281 143.847656 72.757812 C 151.953125 64.65625 151.953125 51.515625 143.847656 43.414062 C 135.746094 35.3125 122.605469 35.3125 114.503906 43.414062 C 106.402344 51.515625 106.402344 64.65625 114.503906 72.757812 Z M 93.453125 149.390625 C 98.140625 154.078125 101.171875 160.378906 101.679688 167.347656 C 101.703125 167.652344 101.917969 167.894531 102.214844 167.953125 C 102.511719 168.011719 102.800781 167.867188 102.9375 167.59375 C 115.472656 142.320312 138.894531 123.644531 166.808594 117.398438 C 166.996094 117.355469 167.144531 117.246094 167.238281 117.078125 C 167.335938 116.910156 167.355469 116.730469 167.292969 116.546875 C 161.996094 100.265625 146.789062 88.847656 129.09375 88.804688 C 107.285156 88.75 89.125 106.808594 89.125 128.851562 L 89.125 145.492188 C 89.125 145.714844 89.230469 145.910156 89.414062 146.039062 C 90.863281 147.03125 92.214844 148.15625 93.453125 149.390625 Z M 60.410156 182.433594 C 53.234375 175.257812 53.234375 163.617188 60.410156 156.441406 C 71.960938 144.890625 91.789062 153.113281 91.789062 169.4375 C 91.789062 185.789062 71.933594 193.957031 60.410156 182.433594 Z M 60.410156 182.433594 " fill-opacity="1" fill-rule="evenodd"/></g></svg>