<svg xmlns="http://www.w3.org/2000/svg" xmlns:xlink="http://www.w3.org/1999/xlink" width="500" zoomAndPan="magnify" viewBox="0 0 375 374.999991" height="500" preserveAspectRatio="xMidYMid meet" version="1.0"><defs><clipPath id="0d61b05e67"><path d="M 37.5 79.210938 L 337.5 79.210938 L 337.5 295.960938 L 37.5 295.960938 Z M 37.5 79.210938 " clip-rule="nonzero"/></clipPath></defs><g clip-path="url(#0d61b05e67)"><path fill="#00406d" d="M 133.667969 288.65625 L 171.46875 288.65625 L 171.46875 281.597656 C 171.46875 276.96875 175.261719 273.171875 179.902344 273.171875 L 187.183594 273.171875 L 187.183594 263.378906 L 130.027344 263.378906 C 123.691406 263.378906 117.941406 260.792969 113.773438 256.625 C 109.605469 252.457031 107.019531 246.707031 107.019531 240.375 L 107.019531 198.296875 L 112.949219 198.296875 L 112.949219 221.917969 L 331.570312 221.917969 L 331.570312 125.136719 L 150.953125 125.136719 L 150.953125 102.128906 L 314.492188 102.128906 C 320.828125 102.128906 326.578125 104.726562 330.746094 108.894531 C 334.914062 113.0625 337.5 118.8125 337.5 125.136719 L 337.5 240.375 C 337.5 246.707031 334.914062 252.457031 330.746094 256.625 C 326.578125 260.792969 320.828125 263.378906 314.492188 263.378906 L 257.324219 263.378906 L 257.324219 273.171875 L 264.617188 273.171875 C 269.253906 273.171875 273.039062 276.96875 273.039062 281.597656 L 273.039062 288.65625 L 310.851562 288.65625 C 312.855469 288.65625 314.492188 290.296875 314.492188 292.300781 C 314.492188 294.300781 312.855469 295.949219 310.851562 295.949219 L 133.667969 295.949219 C 131.664062 295.949219 130.027344 294.300781 130.027344 292.300781 C 130.027344 290.296875 131.664062 288.65625 133.667969 288.65625 Z M 153.414062 204.726562 C 152.601562 204.726562 151.929688 204.054688 151.929688 203.242188 C 151.929688 202.425781 152.601562 201.757812 153.414062 201.757812 L 214.886719 201.757812 C 215.710938 201.757812 216.371094 202.425781 216.371094 203.242188 C 216.371094 204.054688 215.710938 204.726562 214.886719 204.726562 Z M 153.414062 194.246094 C 152.601562 194.246094 151.929688 193.582031 151.929688 192.769531 C 151.929688 191.945312 152.601562 191.285156 153.414062 191.285156 L 214.886719 191.285156 C 215.710938 191.285156 216.371094 191.945312 216.371094 192.769531 C 216.371094 193.582031 215.710938 194.246094 214.886719 194.246094 Z M 91.523438 136.605469 C 97.167969 136.605469 101.75 141.179688 101.75 146.820312 C 101.75 152.464844 97.167969 157.035156 91.523438 157.035156 C 85.890625 157.035156 81.308594 152.464844 81.308594 146.820312 C 81.308594 141.179688 85.890625 136.605469 91.523438 136.605469 Z M 93.96875 118.84375 L 89.089844 118.84375 C 86.523438 118.84375 84.425781 120.941406 84.425781 123.507812 L 84.425781 125.308594 C 83.359375 125.664062 82.324219 126.085938 81.339844 126.585938 L 80.0625 125.308594 C 78.253906 123.5 75.28125 123.5 73.460938 125.308594 L 70.023438 128.757812 C 68.203125 130.582031 68.203125 133.550781 70.023438 135.363281 L 71.296875 136.636719 C 70.796875 137.621094 70.367188 138.648438 70.011719 139.710938 L 68.210938 139.710938 C 65.644531 139.710938 63.542969 141.820312 63.542969 144.386719 L 63.542969 149.257812 C 63.542969 151.824219 65.644531 153.933594 68.210938 153.933594 L 70.011719 153.933594 C 70.367188 154.996094 70.796875 156.019531 71.296875 157.007812 L 70.023438 158.28125 C 68.203125 160.09375 68.203125 163.0625 70.023438 164.882812 L 73.472656 168.335938 C 75.28125 170.144531 78.253906 170.144531 80.074219 168.335938 L 81.339844 167.058594 C 82.324219 167.558594 83.359375 167.980469 84.425781 168.335938 L 84.425781 170.136719 C 84.425781 172.703125 86.523438 174.800781 89.089844 174.800781 L 93.96875 174.800781 C 96.535156 174.800781 98.632812 172.703125 98.632812 170.136719 L 98.632812 168.335938 C 99.699219 167.980469 100.722656 167.558594 101.710938 167.058594 L 102.984375 168.335938 C 104.804688 170.144531 107.777344 170.144531 109.585938 168.335938 L 113.035156 164.882812 C 114.855469 163.0625 114.855469 160.09375 113.035156 158.28125 L 111.761719 157.007812 C 112.261719 156.019531 112.691406 154.996094 113.035156 153.933594 L 114.839844 153.933594 C 117.40625 153.933594 119.515625 151.824219 119.515625 149.257812 L 119.515625 144.386719 C 119.515625 141.820312 117.40625 139.710938 114.839844 139.710938 L 113.046875 139.710938 C 112.691406 138.648438 112.261719 137.621094 111.761719 136.636719 L 113.035156 135.363281 C 114.855469 133.550781 114.855469 130.582031 113.035156 128.757812 L 109.585938 125.308594 C 107.777344 123.5 104.804688 123.5 102.984375 125.308594 L 101.710938 126.585938 C 100.722656 126.085938 99.699219 125.664062 98.632812 125.308594 L 98.632812 123.507812 C 98.632812 120.941406 96.535156 118.84375 93.96875 118.84375 Z M 132.488281 79.210938 L 50.570312 79.210938 C 46.984375 79.210938 43.726562 80.675781 41.363281 83.03125 C 39.003906 85.398438 37.539062 88.65625 37.539062 92.242188 L 37.539062 179.832031 C 37.539062 183.417969 39.003906 186.675781 41.363281 189.042969 C 43.726562 191.398438 46.984375 192.863281 50.570312 192.863281 L 132.488281 192.863281 C 136.070312 192.863281 139.332031 191.398438 141.6875 189.042969 C 144.054688 186.675781 145.519531 183.417969 145.519531 179.832031 L 145.519531 92.242188 C 145.519531 88.65625 144.054688 85.398438 141.6875 83.03125 C 139.332031 80.675781 136.070312 79.210938 132.488281 79.210938 Z M 40.480469 104.25 L 142.578125 104.25 L 142.578125 179.832031 C 142.578125 182.601562 141.4375 185.132812 139.609375 186.960938 C 137.777344 188.792969 135.257812 189.921875 132.488281 189.921875 L 50.570312 189.921875 C 47.800781 189.921875 45.269531 188.792969 43.449219 186.960938 C 41.621094 185.132812 40.480469 182.601562 40.480469 179.832031 Z M 129.078125 92.460938 C 129.078125 91.226562 130.082031 90.230469 131.308594 90.230469 C 132.546875 90.230469 133.550781 91.226562 133.550781 92.460938 C 133.550781 93.699219 132.546875 94.703125 131.308594 94.703125 C 130.082031 94.703125 129.078125 93.699219 129.078125 92.460938 Z M 111.578125 92.460938 C 111.578125 91.226562 112.578125 90.230469 113.8125 90.230469 C 115.046875 90.230469 116.054688 91.226562 116.054688 92.460938 C 116.054688 93.699219 115.046875 94.703125 113.8125 94.703125 C 112.578125 94.703125 111.578125 93.699219 111.578125 92.460938 Z M 120.328125 92.460938 C 120.328125 91.226562 121.324219 90.230469 122.5625 90.230469 C 123.796875 90.230469 124.804688 91.226562 124.804688 92.460938 C 124.804688 93.699219 123.796875 94.703125 122.5625 94.703125 C 121.324219 94.703125 120.328125 93.699219 120.328125 92.460938 Z M 171.355469 167.757812 C 172.417969 168.8125 172.417969 170.539062 171.355469 171.59375 C 170.289062 172.65625 168.574219 172.65625 167.511719 171.59375 L 157.125 161.214844 C 156.070312 160.152344 156.070312 158.425781 157.125 157.371094 L 167.511719 146.984375 C 168.574219 145.921875 170.289062 145.921875 171.355469 146.984375 C 172.417969 148.046875 172.417969 149.765625 171.355469 150.828125 L 162.894531 159.289062 Z M 179 179.871094 C 178.453125 181.269531 176.882812 181.960938 175.492188 181.414062 C 174.09375 180.867188 173.40625 179.296875 173.949219 177.898438 L 189.300781 138.707031 C 189.847656 137.316406 191.417969 136.625 192.816406 137.171875 C 194.207031 137.71875 194.898438 139.289062 194.351562 140.679688 Z M 200.789062 171.59375 C 199.738281 172.65625 198.011719 172.65625 196.949219 171.59375 C 195.894531 170.539062 195.894531 168.8125 196.949219 167.757812 L 205.417969 159.289062 L 196.949219 150.828125 C 195.894531 149.765625 195.894531 148.046875 196.949219 146.984375 C 198.011719 145.921875 199.738281 145.921875 200.789062 146.984375 L 211.175781 157.371094 C 212.242188 158.425781 212.242188 160.152344 211.175781 161.214844 Z M 243.816406 133.867188 L 307.863281 133.867188 C 311.398438 133.867188 314.617188 135.3125 316.945312 137.640625 C 319.273438 139.96875 320.722656 143.179688 320.722656 146.726562 L 320.722656 199.179688 C 320.722656 202.714844 319.273438 205.933594 316.945312 208.261719 C 314.617188 210.589844 311.398438 212.039062 307.863281 212.039062 L 243.816406 212.039062 C 240.269531 212.039062 237.058594 210.589844 234.730469 208.261719 C 232.394531 205.933594 230.957031 202.714844 230.957031 199.179688 L 230.957031 146.726562 C 230.957031 143.179688 232.394531 139.96875 234.730469 137.640625 C 237.058594 135.3125 240.269531 133.867188 243.816406 133.867188 Z M 298.671875 146.363281 C 302.964844 146.363281 306.433594 149.839844 306.433594 154.125 C 306.433594 158.417969 302.964844 161.886719 298.671875 161.886719 C 294.390625 161.886719 290.910156 158.417969 290.910156 154.125 C 290.910156 149.839844 294.390625 146.363281 298.671875 146.363281 Z M 309.472656 198.996094 C 310.554688 200.394531 310.679688 201.046875 309.828125 200.960938 L 240.59375 200.960938 C 240.25 200.902344 239.953125 200.664062 239.847656 200.320312 C 239.734375 199.984375 239.820312 199.609375 240.066406 199.363281 C 255.886719 173.785156 263.792969 160.992188 263.792969 160.992188 C 264.839844 159.097656 265.96875 159.097656 267.1875 160.992188 C 276.222656 175.03125 280.746094 182.046875 280.746094 182.046875 C 285.863281 173.84375 288.421875 169.742188 288.421875 169.742188 C 289.242188 168.316406 290.078125 168.316406 290.910156 169.742188 C 303.28125 189.242188 309.472656 198.996094 309.472656 198.996094 Z M 307.863281 137.816406 L 243.816406 137.816406 C 241.363281 137.816406 239.136719 138.820312 237.519531 140.429688 C 235.910156 142.050781 234.902344 144.273438 234.902344 146.726562 L 234.902344 199.179688 C 234.902344 201.621094 235.910156 203.855469 237.519531 205.464844 C 239.136719 207.085938 241.363281 208.082031 243.816406 208.082031 L 307.863281 208.082031 C 310.304688 208.082031 312.539062 207.085938 314.148438 205.464844 C 315.769531 203.855469 316.773438 201.621094 316.773438 199.179688 L 316.773438 146.726562 C 316.773438 144.273438 315.769531 142.050781 314.148438 140.429688 C 312.539062 138.820312 310.304688 137.816406 307.863281 137.816406 Z M 222.253906 235.246094 C 225.53125 235.246094 228.175781 237.902344 228.175781 241.167969 C 228.175781 244.4375 225.53125 247.089844 222.253906 247.089844 C 218.988281 247.089844 216.332031 244.4375 216.332031 241.167969 C 216.332031 237.902344 218.988281 235.246094 222.253906 235.246094 Z M 312.980469 112.46875 C 314.820312 112.46875 316.3125 113.964844 316.3125 115.804688 C 316.3125 117.644531 314.820312 119.140625 312.980469 119.140625 C 311.128906 119.140625 309.636719 117.644531 309.636719 115.804688 C 309.636719 113.964844 311.128906 112.46875 312.980469 112.46875 Z M 293.691406 112.46875 C 295.53125 112.46875 297.023438 113.964844 297.023438 115.804688 C 297.023438 117.644531 295.53125 119.140625 293.691406 119.140625 C 291.851562 119.140625 290.355469 117.644531 290.355469 115.804688 C 290.355469 113.964844 291.851562 112.46875 293.691406 112.46875 Z M 303.328125 112.46875 C 305.179688 112.46875 306.675781 113.964844 306.675781 115.804688 C 306.675781 117.644531 305.179688 119.140625 303.328125 119.140625 C 301.488281 119.140625 299.996094 117.644531 299.996094 115.804688 C 299.996094 113.964844 301.488281 112.46875 303.328125 112.46875 Z M 303.328125 112.46875 " fill-opacity="1" fill-rule="evenodd"/></g></svg>