<svg width="270" height="270" viewBox="0 0 270 270" fill="none" xmlns="http://www.w3.org/2000/svg">
<g clip-path="url(#clip0_1175_628)">
<path d="M270 63.8086V24.2578C270 11.1728 259.355 0.527344 246.27 0.527344H23.7305C10.6455 0.527344 0 11.1728 0 24.2578V63.8086H270ZM182.461 32.168H229.922C234.29 32.168 237.832 35.7096 237.832 40.0781C237.832 44.4466 234.29 47.9883 229.922 47.9883H182.461C178.092 47.9883 174.551 44.4466 174.551 40.0781C174.551 35.7096 178.092 32.168 182.461 32.168ZM103.359 32.168C107.728 32.168 111.27 35.7096 111.27 40.0781C111.27 44.4466 107.728 47.9883 103.359 47.9883C98.9909 47.9883 95.4492 44.4466 95.4492 40.0781C95.4492 35.7096 98.9909 32.168 103.359 32.168ZM71.7188 32.168C76.0873 32.168 79.6289 35.7096 79.6289 40.0781C79.6289 44.4466 76.0873 47.9883 71.7188 47.9883C67.3502 47.9883 63.8086 44.4466 63.8086 40.0781C63.8086 35.7096 67.3502 32.168 71.7188 32.168ZM40.0781 32.168C44.4466 32.168 47.9883 35.7096 47.9883 40.0781C47.9883 44.4466 44.4466 47.9883 40.0781 47.9883C35.7096 47.9883 32.168 44.4466 32.168 40.0781C32.168 35.7096 35.7096 32.168 40.0781 32.168Z" fill="url(#paint0_linear_1175_628)"/>
<path d="M0 79.6289V245.742C0 258.827 10.6455 269.473 23.7305 269.473H246.27C259.355 269.473 270 258.827 270 245.742V79.6289H0ZM92.4803 192.104C95.8922 194.833 96.4448 199.811 93.7158 203.222C90.9874 206.633 86.0087 207.187 82.5979 204.458L43.0471 172.817C39.0925 169.654 39.0899 163.628 43.0471 160.463L82.5979 128.823C86.0077 126.094 90.9863 126.646 93.7158 130.058C96.4448 133.469 95.8922 138.447 92.4803 141.176L60.6509 166.641L92.4803 192.104ZM166.001 114.386L118.54 225.128C116.819 229.142 112.17 231.004 108.153 229.282C104.138 227.561 102.278 222.911 103.999 218.896L151.46 108.153C153.181 104.138 157.831 102.278 161.847 103.999C165.862 105.72 167.722 110.37 166.001 114.386ZM226.953 172.817L187.402 204.458C183.997 207.183 179.017 206.639 176.284 203.223C173.555 199.812 174.108 194.833 177.52 192.105L209.349 166.641L177.52 141.177C174.108 138.448 173.555 133.47 176.284 130.059C179.013 126.647 183.991 126.094 187.402 128.824L226.953 160.464C230.907 163.627 230.91 169.652 226.953 172.817Z" fill="url(#paint1_linear_1175_628)"/>
</g>
<defs>
<linearGradient id="paint0_linear_1175_628" x1="-98" y1="32.3177" x2="269.993" y2="30.6677" gradientUnits="userSpaceOnUse">
<stop stop-color="#394FC2"/>
<stop offset="0.941107" stop-color="#B7C0EE"/>
</linearGradient>
<linearGradient id="paint1_linear_1175_628" x1="-98" y1="175" x2="270" y2="174.45" gradientUnits="userSpaceOnUse">
<stop offset="0.10767" stop-color="#394FC2"/>
<stop offset="0.941107" stop-color="#B7C0EE"/>
</linearGradient>
<clipPath id="clip0_1175_628">
<rect width="270" height="270" fill="white"/>
</clipPath>
</defs>
</svg>
